<svg id="Слой_1" enable-background="new 0 0 500 500" height="512" viewBox="0 0 500 500" width="512" xmlns="http://www.w3.org/2000/svg"><g><path d="m499.4 201.69c-.38-1.4-.93-2.72-1.64-3.97.99-3.69.84-7.6-.46-11.12-1.5-4.09-4.47-7.52-8.36-9.64-2.2-1.2-4.49-2.03-6.8-2.47-2.65-.5-6.15-1.14-9.82-1.65-1.39-.19-2.73-.34-4.03-.47-.95-.4-1.99-.75-3.14-1.01-1.84-.42-3.6-.72-5.02-.95-.19-.03-.37-.06-.56-.09.77-2.85 1.41-5.77 1.52-9.15.16-4.75-1.16-9.14-3.81-12.7-2.58-3.47-6.32-5.99-10.81-7.27-2.08-.59-4.25-.9-6.45-.9-.32 0-.64.01-.97.02-3.52-6.45-10.1-10.36-18.04-10.37-.24-.81-.54-1.64-.89-2.48-1.27-2.98-3.12-5.51-5.49-7.53-2.43-2.06-5.29-3.49-8.51-4.23-1.56-.36-3.16-.54-4.75-.54-3.4 0-6.73.81-9.88 2.41-2.63 1.33-4.89 2.71-6.92 4.21-11.57 8.57-21.22 18.97-28.68 30.92-2.9 4.64-5.28 9.57-7.12 14.73-1.11.09-2.19.2-3.25.3l-.43.04c-.96.09-1.92.19-2.88.28-4 .39-8.14.79-12.27 1.27-3.27.38-6.31 1.35-9.01 2.86-1.48.19-3.06.4-4.66.65-.95.15-1.9.3-2.85.45-.4-1.68-.91-3.35-1.51-5.03-1.9-5.29-4.83-9.85-8.69-13.55-3.77-3.6-8.36-6.31-13.64-8.04-4.1-1.34-8.36-2.02-12.67-2.02-3.19 0-6.42.38-9.6 1.12-5.57 1.29-10.73 3.46-15.45 6.47-8.37-6.15-17.42-9.27-26.97-9.27-2.04 0-4.13.15-6.2.43-6.04.84-11.44 2.92-16.03 6.18-4.77 3.39-8.54 7.94-11.18 13.53-1.23 2.61-2.22 5.26-2.93 7.93-3.02-.46-6.17-.94-9.52-1.45-2.42-1.36-5.09-2.29-7.92-2.75-6.69-1.08-13.26-1.56-19.62-2-1.72-4.85-3.96-9.53-6.7-14-6.15-10.03-13.78-18.96-22.67-26.55-2.91-2.48-6.12-5.11-9.86-7.48-2.8-1.77-5.57-2.96-8.47-3.65-1.71-.41-3.44-.61-5.14-.61-4.68 0-9.04 1.51-12.59 4.37-3.26 2.62-5.61 6.21-6.82 10.4-.58 0-1.17.03-1.75.07-4.28.31-8.21 1.82-11.37 4.35-2.01 1.61-3.68 3.62-4.95 5.93-.33-.01-.66-.02-.99-.02-2.54 0-5.02.4-7.38 1.18-4.07 1.35-7.49 3.78-9.9 7.04-2.52 3.4-3.82 7.54-3.78 11.96.02 1.98.24 3.99.66 5.99.28 1.31.58 2.6.92 3.88-.05.01-.1.01-.15.02-1.4.21-2.86.43-4.39.71-1.57.29-3.04.72-4.38 1.29-.11.01-.22.02-.33.04-4.26.45-8.81.99-13.57 2.06-2.41.54-4.64 1.35-6.63 2.39-7.62 4.01-11.28 12.53-9.03 20.87-.68 1.19-1.21 2.47-1.59 3.81-1.21 4.27-.72 8.83 1.37 12.84.01.02.02.04.03.06-1.01 3.18-1.08 6.61-.16 9.85 1.35 4.74 4.71 8.71 9.24 10.88 1.59.76 3.29 1.31 5.2 1.66 3.7.68 7.54 1 12.07 1.01.25 1.16.5 2.36.75 3.52 2.2 10.59 5.15 19.12 9.22 26.66-1.02.86-1.92 1.87-2.69 2.99-1.87 2.74-2.76 5.96-2.59 9.3.18 3.62 1.65 7.04 4.14 9.64l.03.03c.48 1.27 1.14 2.47 1.95 3.56 2.44 3.28 6.16 5.4 10.21 5.88 1.34.77 2.81 1.35 4.36 1.68.02 1.47.25 2.95.71 4.4 1.16 3.65 3.6 6.6 6.74 8.43 1.16 1.43 2.59 2.64 4.19 3.55 1.65.94 3.47 1.55 5.36 1.81 1.83.79 3.85 1.22 5.97 1.22.68 0 1.36-.05 2.04-.14.84-.11 1.66-.3 2.45-.54-.07.6-.1 1.21-.1 1.82.01 4.27 1.8 8.44 4.91 11.43 2.06 1.98 4.55 3.35 7.25 4.02-.01 4.04 1.55 7.99 4.34 10.93 2.95 3.11 7.12 4.92 11.42 4.96h.14c4.01 0 7.84-1.49 10.78-4.2 1.71-1.57 3.03-3.46 3.9-5.54 2.47-.72 4.74-2.04 6.63-3.88.4-.39.77-.8 1.12-1.22h.06.01c3.52 0 6.81-1.31 9.31-3.52 0 .01 0 .02-.01.03-.34 2.08-.23 4.2.31 6.23-.03.38-.06.75-.09 1.13-.13 1.59-.28 3.4-.31 5.32-.08 4.29.99 8.57 3.1 12.38 1.43 2.57 3.44 4.75 5.83 6.31 2.74 1.79 5.91 2.73 9.16 2.73 1.05 0 2.11-.1 3.15-.3 1.34 2.83 3.22 5.15 5.62 6.91 3.31 2.44 6.91 3.68 10.69 3.68 1.98 0 3.94-.35 5.82-1.03.46-.17.92-.36 1.36-.56 1.02 1.03 2.16 1.97 3.39 2.8 3.03 2.05 6.51 3.14 10.06 3.14 3.58 0 7.03-1.11 9.91-3.15.62.71 1.28 1.39 1.98 2.04 2.26 2.11 4.89 3.93 8.06 5.56 2.88 1.48 5.99 2.23 9.25 2.23.71 0 1.42-.04 2.13-.11 3.99-.41 7.57-2.04 10.31-4.65 2.06.82 4.26 1.24 6.47 1.24 4.22 0 8.33-1.55 11.57-4.36.84-.73 1.61-1.53 2.28-2.39.31.23.63.46.95.69 2.37 1.64 4.72 3.05 7.12 4.46 3.69 2.17 7.28 2.85 10.3 3.22.8.1 1.62.15 2.42.15 3.59 0 7.1-1.01 10.15-2.93 1.76-1.11 3.31-2.5 4.56-4.11.9.13 1.81.2 2.73.2 1.68 0 3.37-.23 5.01-.69 2.54-.7 4.69-1.75 6.58-3.2.84-.64 1.61-1.36 2.3-2.14 1.01.11 2.04.16 3.11.16.93 0 1.88-.04 2.9-.12 4.6-.37 8.77-2.16 12.04-5.18 1.91-1.76 3.36-3.86 4.31-6.23.19-.48.36-.97.51-1.47 1.1.17 2.22.26 3.34.26 1.87 0 3.77-.24 5.64-.7 1.65-.41 3.84-1.05 6.09-2.32 4.27-2.41 7.23-6.52 8.1-11.26.09-.5.16-1.01.21-1.52 1.12-.81 2.11-1.65 3.03-2.47 1.52-1.36 2.81-3.03 3.83-4.92 2.75 2.2 6.17 3.45 9.83 3.45 1.2 0 2.4-.14 3.58-.41.84-.19 1.66-.46 2.45-.78 2.54 1.66 5.49 2.55 8.57 2.55.16 0 .32 0 .49-.01 4.14-.13 8.02-1.86 10.92-4.88 2.8-2.92 4.37-6.73 4.44-10.75.02-1.05-.07-2.08-.25-3.08 1.89-2.77 2.86-6.05 2.76-9.45-.04-1.27-.22-2.52-.55-3.72.18-.04.36-.07.54-.11.48 1.55 1.19 3.01 2.12 4.33 2.36 3.33 5.89 5.52 9.95 6.16.78.12 1.57.19 2.36.19 2.12 0 4.15-.44 6-1.25 2-.29 3.94-.99 5.69-2.05 1.46-.89 2.73-1.98 3.78-3.25.21-.12.41-.24.61-.37 2.38-1.54 4.28-3.73 5.5-6.32.92-1.97 1.4-4.09 1.43-6.22 1.5-.32 2.92-.87 4.22-1.6 3.52-.41 6.84-2.08 9.28-4.72 1.28-1.38 2.28-2.98 2.96-4.7 2.89-2.97 4.52-7.09 4.19-11.51-.31-4.15-2.34-8.02-5.47-10.64 1.21-2.4 2.29-4.72 3.28-6.85.8-1.7 1.5-3.54 2.21-5.77 1.93-6.07 3.39-12.1 4.53-17.43 3.41-.02 6.76-.25 9.95-.7 1.75-.25 3.85-.62 6.14-1.53 4.98-1.97 8.71-5.98 10.25-11 1.03-3.37.99-6.92-.07-10.23.88-1.66 1.48-3.43 1.8-5.26.43-2.49.31-5-.35-7.44z" fill="#fff"/><g><path d="m326.44 185.69c2.58-.01 3.8 1.63 3.12 3.73-.07.23-.17.48-.17.71.03 1.7.09 3.41.13 5.11.03 1.38.05 2.75.04 4.13 0 .67-.04 1.34-.14 1.99-.39 2.65-2.3 3.91-4.87 3.14-2.63-.79-5.26-1.62-7.86-2.49-5.61-1.88-11.21-3.79-16.8-5.7-.55-.19-1.1-.42-1.59-.72-1.08-.67-1.64-1.64-1.51-2.94.13-1.31.89-2.16 2.1-2.53.99-.3 2.02-.48 3.05-.65 5.51-.92 11.01-1.85 16.52-2.72 2.76-.44 5.54-.74 7.98-1.06z" fill="#7b524b"/><path d="m170.67 193.41c.07-2 .15-3.99.19-5.99.01-.27-.16-.54-.25-.82-.54-1.74.52-3.34 2.34-3.48.54-.04 1.09-.03 1.62.05 5.64.85 11.28 1.71 16.92 2.58 2.84.44 5.68.91 8.51 1.39.57.1 1.15.23 1.68.47 2.15.99 2.47 3.67.59 5.11-.52.4-1.15.69-1.77.9-8.05 2.7-16.12 5.38-24.18 8.07-.39.13-.8.26-1.2.34-1.96.38-3.62-.59-4.12-2.52-.22-.83-.24-1.73-.28-2.6-.04-1.17-.01-2.34-.01-3.5-.02 0-.03 0-.04 0z" fill="#7b524b"/><path d="m75.01 300.36c-.29.55-.52 1.15-.9 1.62-.29.35-.77.7-1.2.74-.85.08-1.24-.85-.8-1.73.45-.89.9-1.77 1.44-2.83-.46.06-.73.06-.97.13-.96.28-1.91.59-2.86.88s-1.6.09-1.8-.55c-.2-.63.19-1.2 1.08-1.57.23-.1.47-.18.71-.25 1.44-.41 2.87-.86 4.33-1.19.61-.14.94-.38 1.16-.94.64-1.63 1.31-3.24 1.98-4.86.6-1.46 1.21-2.93 1.81-4.39.11-.27.24-.53.39-.78.43-.73.96-1 1.51-.77.61.25.78.85.43 1.71-1.33 3.28-2.66 6.56-4.01 9.84-.24.59-.31 1.11-.18 1.78.34 1.71.51 3.46.7 5.2.09.78-.32 1.33-.92 1.41-.62.08-1.05-.32-1.22-1.14-.15-.76-.28-1.53-.42-2.29-.09-.02-.18-.02-.26-.02z" fill="#7b524b"/><path d="m424.98 302.97c-.15.82-.27 1.64-.45 2.45-.16.73-.64 1.1-1.19 1.02-.56-.09-.93-.56-.89-1.31.04-.79.17-1.57.28-2.35.16-1.15.36-2.29.5-3.45.04-.31-.01-.66-.13-.95-1.34-3.32-2.69-6.63-4.04-9.94-.09-.23-.22-.45-.28-.69-.14-.5.02-.93.46-1.18s.93-.22 1.25.18c.31.38.57.82.76 1.27 1.22 2.92 2.44 5.83 3.6 8.78.36.91.86 1.35 1.84 1.54 1.42.28 2.8.77 4.2 1.2.35.11.71.26 1.01.47.43.31.69.75.44 1.3-.24.51-.69.72-1.24.63-.37-.06-.71-.23-1.07-.34-1.02-.31-2.04-.6-3.05-.91-.05.08-.11.16-.16.23.42.84.82 1.69 1.26 2.53.42.81.37 1.4-.19 1.74-.55.34-1.26.14-1.71-.55-.36-.55-.64-1.14-.95-1.71-.1.02-.17.03-.25.04z" fill="#7b524b"/><path d="m56.12 279.42c-1.14.9-2.26 1.81-3.42 2.68-.39.29-.84.58-1.3.68-.7.16-1.19-.33-.98-1.01.16-.52.52-1.04.92-1.42.78-.74 1.65-1.37 2.67-2.21-.58-.06-.93-.12-1.28-.13-1.29-.02-2.58-.01-3.88-.02-.29 0-.6.02-.87-.06-.46-.14-.82-.43-.84-.97-.03-.53.24-.91.71-1.06.38-.13.81-.17 1.22-.16 2.37.05 4.75.11 7.12.21.62.03 1.12-.1 1.62-.46 1.45-1.05 2.93-2.06 4.41-3.08.17-.12.33-.27.52-.34.46-.17.92-.18 1.26.24.33.4.33.87.05 1.28-.21.3-.5.56-.8.78-1.21.89-2.42 1.77-3.67 2.61-.49.33-.71.72-.78 1.31-.19 1.61-.46 3.22-.7 4.83-.18 1.22-.61 1.73-1.32 1.61-.69-.12-.99-.76-.85-1.95.13-1.07.29-2.13.44-3.2-.09-.06-.17-.11-.25-.16z" fill="#7b524b"/><path d="m446.3 280.82c.93.76 1.75 1.38 2.52 2.07.37.32.67.73.94 1.14.24.38.23.81-.09 1.16-.33.35-.74.39-1.14.17s-.77-.48-1.13-.76c-1.08-.83-2.15-1.68-3.22-2.52-.08.04-.17.08-.25.12.13 1.04.26 2.09.39 3.13.04.29.11.58.08.86-.07.72-.5 1.14-1.09 1.14-.56 0-.93-.34-1.05-1.04-.19-1.07-.35-2.14-.51-3.21-.07-.45-.23-.92-.19-1.36.15-1.4-.69-2.09-1.72-2.73-.85-.52-1.64-1.14-2.46-1.72-.27-.19-.54-.4-.78-.63-.67-.64-.78-1.24-.33-1.74.42-.47.94-.46 1.67.05 1.47 1.02 2.96 2.03 4.4 3.09.54.39 1.07.53 1.74.5 2.33-.11 4.66-.17 7-.21.49-.01 1.03.05 1.44.27.3.16.57.63.6.99.04.48-.33.85-.84.94-.32.06-.66.04-.99.05-1.33.02-2.67.02-4 .05-.29.02-.56.11-.99.19z" fill="#7b524b"/><path d="m475.15 200.83c1.29.31 2.58.61 3.86.94 1.25.32 2.49.66 3.73 1.02.44.13.87.29 1.28.5 1.92 1 2.46 3.02 1.31 4.86-.67 1.06-1.63 1.79-2.77 2.25-1.5.61-3.04 1.12-4.57 1.67-.38.14-.78.24-1.47.46.6.32.98.5 1.35.71 1.44.83 2.92 1.6 4.29 2.52.74.5 1.4 1.21 1.9 1.95 1.25 1.83.58 4.02-1.49 4.84-.91.36-1.92.53-2.9.67-3.97.56-7.97.67-11.97.47-4.78-.24-9.57-.53-14.35-.86-2.72-.19-4.27-1.51-4.84-4.22-.42-1.99-.65-4.03-.91-6.05-.53-4.05-.88-8.11-.97-12.2-.05-2.28-.47-4.55-.78-6.81-.11-.81-.39-1.6-.58-2.4-.04-.19-.08-.42-.01-.59.86-2.07 1.74-4.13 2.66-6.32.52.04 1.09.05 1.66.12 4.01.49 8.01 1.01 12.02 1.48 2.94.34 5.89.55 8.82.96 3.05.42 6.09.96 9.11 1.53.92.18 1.85.54 2.68.99 1.87 1.02 2.57 3.01 1.89 5.04-.47 1.41-1.38 2.51-2.64 3.22-1.74.98-3.56 1.8-5.35 2.68-.29.15-.62.23-.93.35-.02.07-.03.14-.03.22z" fill="#f8d870"/><path d="m23.49 209.94c-1.49-.5-2.78-.91-4.05-1.37-.9-.33-1.79-.69-2.64-1.12-.98-.5-1.78-1.23-2.3-2.22-.87-1.66-.36-3.5 1.26-4.43.57-.33 1.21-.57 1.84-.74 1.93-.53 3.87-1 5.8-1.49.47-.12.94-.24 1.69-.42-.6-.26-.97-.4-1.33-.57-1.72-.84-3.47-1.62-5.13-2.56-1.33-.75-2.31-1.9-2.76-3.42-.6-2 .1-3.93 1.95-4.9.98-.52 2.08-.87 3.16-1.12 3.94-.89 7.95-1.36 11.97-1.79 3.64-.39 7.27-.9 10.91-1.34 2.07-.25 4.14-.44 6.21-.66.66-.07 1.31-.14 2.03-.21.89 2.23 1.77 4.42 2.65 6.6-.18.8-.4 1.64-.56 2.48-.73 3.82-.73 7.71-1.04 11.57-.35 4.43-.98 8.85-1.54 13.26-.09.69-.36 1.37-.65 2.01-.64 1.43-1.77 2.3-3.3 2.59-.73.14-1.49.2-2.23.25-3.78.24-7.57.5-11.35.67-5.08.22-10.16.3-15.2-.63-.57-.1-1.15-.26-1.66-.51-1.83-.88-2.45-2.91-1.36-4.62.46-.72 1.07-1.42 1.76-1.91 1.28-.91 2.67-1.68 4.03-2.47.54-.34 1.11-.58 1.84-.93z" fill="#f8d870"/><path d="m391.59 180.29c7.71 0 15.43-.11 23.14.03 7.75.14 15.5.5 23.2 1.43.37.05.75.1 1.12.07 4.21-.29 8.27.72 12.37 1.45 2.13.38 4.28.66 6.41 1.02 1.4.23 2.79.47 4.17.78 1.49.34 2.01 1.03 1.97 2.58-.03 1.21-.17 2.41-.27 3.61-.34 3.9-.64 7.81-1.03 11.7-.41 4.14-.83 8.28-1.39 12.41-.61 4.46-1.26 8.91-2.11 13.33-1.45 7.52-3.11 15-5.43 22.32-.44 1.39-.93 2.77-1.55 4.09-2.91 6.23-5.86 12.46-10.04 17.97-2.34 3.08-4.89 6.01-7.51 8.86-3.99 4.34-9.04 7.18-14.31 9.67-4.7 2.22-9.66 3.56-14.75 4.59-7.17 1.45-14.37 1.79-21.64 1.22-7.03-.55-13.82-2.15-20.29-4.96-7.99-3.46-14.32-8.93-18.95-16.3-5.33-8.49-9.27-17.6-11.81-27.31-3.34-12.78-6.31-25.63-8.4-38.68-.6-3.75-1.05-7.51-1.16-11.31-.05-1.91-.2-3.83-.23-5.74-.02-1.47.31-2.9.89-4.25 1.43-3.34 4.04-5.15 7.57-5.56 4.96-.57 9.94-1.03 14.91-1.52 1.99-.2 3.98-.4 5.98-.48 5.29-.22 10.58-.39 15.87-.56 5.33-.17 10.66-.34 16-.47 2.42-.06 4.83-.01 7.25-.01.02.01.02.01.02.02z" fill="#a2dae4"/><path d="m110.4 294.96c-8.95-.1-16.94-1.07-24.7-3.58-5.1-1.66-9.88-4.01-14.31-7.03-1.88-1.28-3.7-2.73-5.32-4.33-5.86-5.77-10.73-12.3-14.41-19.68-.02-.04-.03-.08-.05-.11-4.39-7.59-6.91-15.85-8.68-24.37-1.09-5.22-2.28-10.42-3.14-15.67-.9-5.5-1.54-11.06-2.16-16.6-.38-3.39-.48-6.81-.77-10.21-.21-2.4-.52-4.8-.79-7.2-.01-.08-.03-.16-.04-.25-.23-2.38.33-3.2 2.68-3.64 2.33-.43 4.69-.72 7.03-1.11 2.79-.48 5.57-1.04 8.36-1.49 1.68-.27 3.39-.55 5.09-.54 5.01.01 9.94-.89 14.93-1.06 3.87-.13 7.75-.35 11.62-.39 9.21-.09 18.42-.15 27.64-.1 5.37.03 10.75.28 16.12.44 5.42.16 10.84.15 16.24.53 7.73.55 15.47.94 23.14 2.18 4.31.7 7.29 3.82 7.85 8.21.21 1.64.17 3.33.07 4.98-.22 3.78-.3 7.58-.97 11.32-.86 4.79-1.6 9.61-2.54 14.39-2.01 10.22-4.36 20.36-7.28 30.35-2.47 8.45-6.16 16.37-10.89 23.79-5.62 8.82-13.57 14.64-23.49 17.85-5.1 1.65-10.32 2.63-15.66 3.02-2.14.16-4.26.23-5.57.3z" fill="#a2dae4"/><path d="m406.91 150.52c.57-.37.91-.6 1.26-.81 2.28-1.37 4.54-2.8 6.87-4.09 1.8-1 3.77-1.57 5.86-1.59 3.63-.03 5.91 1.79 6.64 5.33.46 2.21.21 4.4-.23 6.58-.21 1.05-.47 2.1-.75 3.35.51-.25.87-.41 1.21-.59 2.53-1.38 5.09-2.68 7.85-3.54 2.29-.71 4.61-1.11 7-.42 3.02.86 4.52 2.84 4.41 5.97-.09 2.56-.76 5.02-1.47 7.46-2.12 7.38-5.71 14.01-10.23 20.18-3.12 4.26-6.47 8.29-10.77 11.42-7.27 5.28-15.28 8.97-24.07 10.92-2.9.64-5.88.64-8.83.79-4.34.23-8.66-.02-12.97-.66-2.14-.32-4.32-.39-6.44-.76-4.72-.82-8.23-3.48-10.65-7.55-1.6-2.7-2.49-5.65-2.47-8.81.02-3.5 0-7 .25-10.49.16-2.18.67-4.37 1.24-6.49 1.59-5.86 3.99-11.38 7.22-16.55 6.64-10.64 15.06-19.62 25.12-27.07 1.53-1.13 3.21-2.11 4.91-2.97 1.58-.8 3.3-1.12 5.1-.7 2.02.47 3.41 1.66 4.22 3.56.65 1.52.83 3.14.93 4.76.18 3.01-.07 5.99-.58 8.96-.2 1.18-.39 2.37-.63 3.81z" fill="#f8d870"/><path d="m73.68 156.68c-.31-1.47-.61-2.75-.86-4.04-.43-2.23-.59-4.45.08-6.67.83-2.78 2.73-4.3 5.62-4.51 2.32-.17 4.5.36 6.5 1.45 2.37 1.29 4.66 2.74 6.99 4.13.35.21.68.45 1.26.83-.07-.63-.09-1.05-.17-1.47-.69-3.66-1.16-7.33-.93-11.06.08-1.28.22-2.58.53-3.83.95-3.75 4.06-5.53 7.85-4.63 1.52.36 2.9 1.03 4.21 1.86 2.93 1.85 5.61 4.03 8.25 6.28 7.83 6.69 14.42 14.43 19.81 23.2 3.83 6.24 6.46 12.97 7.79 20.16.39 2.11.32 4.31.44 6.46.05.79.02 1.58.08 2.37.34 4.59-.17 9.01-2.66 13-2.33 3.73-5.62 6.24-9.98 7.12-1.91.38-3.88.49-5.82.72-1.61.19-3.23.36-4.84.56-3.91.48-7.83.33-11.74.11-12.09-.66-22.5-5.63-31.96-12.84-3.2-2.44-5.79-5.52-8.16-8.76-1.38-1.88-2.7-3.81-4-5.75-4.18-6.24-6.86-13.11-8.41-20.44-.22-1.05-.35-2.14-.36-3.22-.03-2.75 1.41-4.64 4.04-5.51 2.01-.67 4.02-.55 6.04-.07 3.19.77 6.08 2.25 8.95 3.78.42.24.86.46 1.45.77z" fill="#f8d870"/><path d="m341.94 196.14c-.02 2.77-2.44 4.69-4.95 3.92-.46-.14-.93-.39-1.3-.71-2.09-1.75-1.64-5.53.73-6.87 2.1-1.18 5.62.32 5.52 3.66z" fill="#7b524b"/><path d="m162.24 197.59c-2.23 0-3.96-1.79-3.96-4.12 0-2.24 1.73-4.01 3.92-4.02 2.06 0 3.72 1.88 3.72 4.22.01 2.21-1.6 3.92-3.68 3.92z" fill="#7b524b"/><path d="m251.5 171.19c.12-.22.19-.48.36-.66 5.11-5.56 11.29-9.33 18.65-11.04 4.93-1.15 9.9-1 14.71.58 6.52 2.13 11.13 6.45 13.47 12.96 3.71 10.33 1.94 19.89-4.39 28.67-3.35 4.65-7.61 8.38-12.36 11.57-5.96 4-12.14 7.64-18.29 11.32-4.77 2.85-9.34 5.98-13.31 9.92-.18.18-.36.35-.55.51-.45.4-.89.39-1.32-.04-.53-.54-1.07-1.05-1.57-1.62-3.26-3.74-7.23-6.67-11.25-9.5-5.79-4.08-11.67-8.05-17.3-12.36-4.71-3.61-8.91-7.71-12.04-12.76-5.87-9.45-6.94-19.38-2.12-29.57 3.26-6.87 8.91-10.76 16.43-11.8 9.75-1.35 18.04 1.97 25.36 8.18 1.81 1.54 3.54 3.18 4.9 5.15.09.14.14.31.2.47.16-.01.29.01.42.02z" fill="#ff7772"/><g fill="#f4fafa"><path d="m277.97 160.59c.5.06 1.18.06 1.81.23 1.26.33 1.98 1.4 1.87 2.6-.11 1.19-1.05 2.11-2.32 2.22-1.2.1-2.41.14-3.61.2-1.5.07-2.97.3-4.38.87-1.39.55-2.64.1-3.2-1.07-.55-1.15-.13-2.46 1.09-3.23 1.44-.92 3.07-1.26 4.73-1.46 1.27-.17 2.56-.24 4.01-.36z"/><path d="m221.19 159.82c1.42.1 2.38.11 3.33.26 1.34.21 2.23 1.25 2.22 2.47-.01 1.26-.97 2.3-2.36 2.48-.53.07-1.08.03-1.62-.02-1.88-.15-3.74-.11-5.59.29-.28.06-.58.09-.87.08-1.01-.04-1.75-.54-2.12-1.48-.38-.94-.21-1.87.56-2.51.55-.46 1.27-.86 1.97-.99 1.62-.3 3.28-.44 4.48-.58z"/><path d="m372.45 178.71c-1.3-.02-2.31-1.1-2.29-2.44.03-1.67 1.41-3.17 2.9-3.16 1.42.01 2.59 1.22 2.56 2.66-.02 1.44-1.67 2.97-3.17 2.94z"/><path d="m85.84 193.69c-1.33.03-2.39-.97-2.44-2.3-.06-1.53 1.18-2.71 2.9-2.76 1.54-.04 2.8 1.03 2.75 2.43-.05 1.54-1.14 2.4-3.21 2.63z"/><path d="m114.76 173.37c1.36-.03 2.49 1.04 2.5 2.4.01 1.58-1.36 3.17-2.74 3.18-1.32.02-2.3-.97-2.35-2.38-.07-1.78 1.05-3.16 2.59-3.2z"/><path d="m380.12 197.92c-.02-1.65 1.21-3.04 2.69-3.04 1.32.01 2.36 1.07 2.36 2.4 0 1.47-1.32 2.95-2.67 2.99-1.33.04-2.37-.98-2.38-2.35z"/><path d="m407.73 187.61c.01 1.72-1.09 3.03-2.51 3-1.31-.03-2.43-1.27-2.42-2.69 0-1.43 1.21-2.69 2.58-2.7 1.3-.03 2.34 1.04 2.35 2.39z"/><path d="m73.32 175.38c-1.01.02-1.97-.63-2.32-1.57s-.07-2.02.72-2.71c.4-.35.8-.7 1.21-1.04.74-.62 1.67-.4 2.04.48.21.49.41.99.6 1.49.6 1.58-.56 3.31-2.25 3.35z"/><path d="m100.14 179.3c.03 1.43-1.14 2.77-2.46 2.81-1.34.04-2.55-1.13-2.59-2.51-.04-1.4 1.17-2.62 2.6-2.63 1.3-.02 2.42 1.05 2.45 2.33z"/><path d="m114.98 195.5c.02 1.33-1.29 2.61-2.66 2.63-1.29.01-2.36-1.06-2.38-2.38-.02-1.39 1.09-2.55 2.49-2.59 1.38-.05 2.53 1.01 2.55 2.34z"/><path d="m371.1 193.15c0 1.31-1.32 2.68-2.63 2.72-1.29.04-2.4-1.04-2.42-2.35-.02-1.45 1.25-2.7 2.72-2.67 1.29.03 2.33 1.05 2.33 2.3z"/><path d="m108.65 152.17c1.34.01 2.55 1.24 2.52 2.58-.03 1.28-1.14 2.34-2.44 2.33-1.38-.01-2.55-1.19-2.51-2.56.04-1.28 1.15-2.36 2.43-2.35z"/><path d="m416.6 177.56c-.01 1.3-1.25 2.54-2.57 2.56-1.31.02-2.38-1.04-2.37-2.36.01-1.35 1.2-2.55 2.54-2.56 1.29-.02 2.41 1.09 2.4 2.36z"/><path d="m85.87 162.13c-1.3-.01-2.36-1.1-2.36-2.42 0-1.33 1.14-2.53 2.42-2.55 1.3-.02 2.46 1.18 2.43 2.51-.03 1.35-1.17 2.47-2.49 2.46z"/><path d="m388.97 182.98c-1.35.01-2.39-1.03-2.37-2.37.02-1.35 1.25-2.48 2.65-2.45 1.27.03 2.33 1.08 2.33 2.32.01 1.34-1.19 2.49-2.61 2.5z"/><path d="m384.82 161.1c1.39.01 2.48 1.11 2.44 2.45-.04 1.32-1.2 2.37-2.58 2.34-1.33-.03-2.38-1.09-2.37-2.39.01-1.34 1.13-2.41 2.51-2.4z"/><path d="m214.37 166.78c.01 1.35-1.09 2.48-2.42 2.48-1.28-.01-2.36-1.1-2.36-2.4-.01-1.35 1.11-2.49 2.43-2.48 1.28.01 2.34 1.08 2.35 2.4z"/><path d="m403.73 161.78c-.01 1.31-1.08 2.33-2.42 2.32-1.4-.01-2.48-1.09-2.45-2.44.03-1.31 1.09-2.33 2.42-2.33 1.38.01 2.47 1.1 2.45 2.45z"/><path d="m427.41 179.58c1.31-.01 2.34 1.03 2.36 2.38s-.97 2.43-2.27 2.47c-1.34.04-2.46-1.08-2.45-2.44.01-1.33 1.06-2.4 2.36-2.41z"/><path d="m402.17 198.85c.01 1.28-1.07 2.35-2.4 2.37-1.34.02-2.4-1-2.4-2.32 0-1.3 1.06-2.38 2.38-2.39 1.29-.02 2.41 1.06 2.42 2.34z"/><path d="m285.73 168.14c-1.29-.03-2.35-1.17-2.29-2.47.06-1.32 1.15-2.36 2.45-2.33 1.31.03 2.32 1.12 2.27 2.46-.06 1.34-1.13 2.37-2.43 2.34z"/><path d="m133.18 189.51c0 1.27-1.15 2.39-2.42 2.36-1.26-.03-2.29-1.08-2.29-2.34 0-1.31 1.11-2.39 2.4-2.36 1.24.03 2.3 1.12 2.31 2.34z"/></g><path d="m224.08 281.15c2.19-.1 4.32.24 6.41.85 2.3.67 4.23 1.94 5.97 3.53.57.52 1.05 1.19 1.45 1.87 1.79 3.02 2.78 6.28 3.18 9.78.53 4.66-.43 9.13-1.55 13.57-1.45 5.76-4.46 10.66-8.6 14.86-3.07 3.11-6.85 5.04-11.12 5.84-2.91.55-5.88.69-8.8-.08-3.65-.96-6.74-2.83-9.15-5.75-2.81-3.41-4.06-7.41-4.32-11.76-.56-9.23 2.4-17.2 8.64-23.99.25-.28.51-.55.75-.84 3.48-4.28 8.1-6.57 13.42-7.56 1.21-.24 2.48-.23 3.72-.32zm4.23 21.33c-.01-1.96-.32-3.83-1.3-5.54-1.29-2.24-3.46-3.2-5.94-2.49-1.1.32-2.18.83-3.16 1.43-1.44.86-2.6 2.08-3.63 3.4-2.7 3.5-4.19 7.47-4.43 11.87-.11 2.01.23 3.99 1.21 5.8 1.29 2.38 3.48 3.32 6.1 2.67 1.74-.43 3.24-1.32 4.53-2.53 4.25-3.94 6.32-8.88 6.62-14.61z" fill="#7b524b"/><path d="m280.81 310.86c.98-7.18 2.52-14.28 3.1-21.52.18-2.28.46-4.56.68-6.84.16-1.58.54-2.08 2.08-2.32 3.17-.5 6.34-.96 9.52-1.41.44-.06.93-.05 1.36.08.87.26 1.24 1.11 1.02 2.27-.32 1.72-.7 3.43-1.05 5.14-2.98 14.4-5.96 28.81-8.94 43.21-.13.61-.26 1.22-.41 1.83-.21.85-.76 1.38-1.62 1.53-1.97.34-3.94.66-5.91 1.01-1.4.25-2.13-.48-2.78-1.59-6.24-10.6-12.5-21.19-18.76-31.77-2.4-4.06-4.8-8.11-7.19-12.17-.19-.32-.4-.64-.56-.98-.58-1.22-.11-2.29 1.22-2.58 1.38-.3 2.79-.48 4.19-.7 1.52-.24 3.05-.46 4.57-.72 1.76-.3 2.93.07 3.95 1.82 4.82 8.24 9.69 16.45 14.55 24.67.22.38.46.75.69 1.13.08-.02.18-.06.29-.09z" fill="#7b524b"/><path d="m319.03 282.05c.36 1.65.73 3.31 1.13 5.11.5-.17.92-.3 1.32-.46 2.75-1.1 5.49-2.2 8.23-3.31.35-.14.69-.29 1.05-.41 1.16-.38 2.01-.08 2.46 1.02.75 1.85 1.42 3.74 2.08 5.63.28.79 0 1.49-.66 1.99-.33.25-.7.45-1.06.66-2.89 1.67-5.78 3.33-8.67 4.99-.36.21-.7.43-1.2.73 1.2 2.97 2.4 5.92 3.64 8.99.44-.23.8-.41 1.14-.61l11.22-6.57c.32-.19.64-.39.98-.55 1.08-.52 1.93-.3 2.57.72.49.77.92 1.59 1.37 2.39.74 1.31 1.49 2.61 2.21 3.92.84 1.52.63 2.31-.9 3.19-7.25 4.2-14.51 8.38-21.77 12.56-1.72.99-2.68.62-3.31-1.27-2.13-6.36-4.25-12.73-6.37-19.09-2.49-7.47-4.98-14.94-7.47-22.42-.07-.2-.14-.39-.2-.59-.46-1.54-.02-2.27 1.52-2.64.44-.11.86-.3 1.26-.51 5.18-2.77 10.35-5.56 15.53-8.34.33-.18.66-.37 1-.51.95-.4 1.75-.23 2.3.64 1.08 1.73 2.11 3.5 3.09 5.29.48.87.19 1.7-.62 2.31-.3.22-.63.4-.95.59-3.33 1.98-6.67 3.95-10 5.93-.28.19-.55.38-.92.62z" fill="#7b524b"/><path d="m169.39 305.07c.22.14.34.24.48.31 3.97 1.93 7.95 3.84 11.9 5.8 1.15.57 2.23 1.3 3.32 1.99 1.12.71 1.52 1.9.82 3.16-.78 1.41-1.77 2.72-2.73 4.02-.44.6-1.01 1.11-1.55 1.63-.85.82-1.78 1-2.97.62-1.66-.52-3.08-1.44-4.53-2.32-6.29-3.76-12.58-7.53-18.88-11.3-.14-.09-.29-.17-.43-.26-1.46-.92-1.72-1.88-.85-3.35.8-1.37 1.64-2.71 2.46-4.06 6.2-10.19 12.39-20.38 18.6-30.55.4-.66.97-1.23 1.55-1.75.65-.58 1.43-.58 2.22-.19.78.39 1.57.75 2.36 1.14.26.13.51.29.74.46 1.23.85 2.43 1.74 3.68 2.56 1.79 1.17 2.01 1.98.89 3.82-5.47 9.02-10.94 18.04-16.41 27.06-.22.39-.43.78-.67 1.21z" fill="#7b524b"/><path d="m377.89 324.31c-.01 1.16-.53 1.88-1.35 2.07-.84.19-1.61-.2-2.03-1.07-.09-.19-.16-.39-.21-.59-.29-1.02.19-2.04 1.1-2.35.93-.32 1.92.17 2.31 1.17.11.31.15.64.18.77z" fill="#7b524b"/><path d="m97.16 320.87c-1.04.01-1.96-.87-1.96-1.87 0-.98.85-1.85 1.82-1.86 1-.01 1.89.93 1.87 1.96-.02.99-.78 1.76-1.73 1.77z" fill="#7b524b"/><path d="m395.01 314.09c.03 1.03-.8 1.93-1.83 1.99-1.01.05-1.77-.64-1.8-1.64-.03-1.11.84-2.09 1.87-2.1.93 0 1.73.8 1.76 1.75z" fill="#7b524b"/><path d="m109.17 336.29c-1.04-.01-1.85-.84-1.81-1.83.04-.96.82-1.66 1.84-1.65 1.07.01 1.85.79 1.8 1.81-.03.93-.85 1.67-1.83 1.67z" fill="#7b524b"/><path d="m390.79 324.23c.98 0 1.72.77 1.71 1.76-.02.94-.81 1.77-1.72 1.8-.92.03-1.76-.78-1.79-1.72-.04-.99.8-1.84 1.8-1.84z" fill="#7b524b"/><path d="m121.19 325.47c-.02.94-.83 1.72-1.77 1.7-.95-.02-1.72-.85-1.67-1.79.05-.9.81-1.62 1.71-1.63.96-.02 1.75.77 1.73 1.72z" fill="#7b524b"/><path d="m290.51 358.6c-4.19.72-8.29 1.43-12.55 2.16.33.17.57.29.8.41 1.51.8 3.05 1.54 4.5 2.42 1.24.75 2.13 1.85 2.63 3.24.58 1.61.08 3.1-1.37 4.01-1.03.65-2.17.88-3.36.73-1.7-.21-3.4-.51-4.9-1.39-2.12-1.25-4.23-2.5-6.25-3.9-1.54-1.07-2.9-2.38-3.68-4.19-6.02.25-11.99.5-18.17.76.34.45.63.77.86 1.14.46.74.97 1.46 1.31 2.25.45 1.05.05 1.96-.78 2.68-1.38 1.2-3.22 1.23-4.7.04-1.96-1.57-2.92-3.59-2.61-6.23-5.11-.34-10.19-.68-15.41-1.03.23.21.4.41.6.54 2.7 1.8 3.92 4.45 4.35 7.55.28 2-.75 3.31-2.77 3.52-1.23.13-2.43-.07-3.52-.63-3.61-1.85-6.66-4.28-8.26-8.17-.57-1.38-1.13-2.76-1.75-4.25-4.76-.96-9.68-1.95-14.77-2.98.19.46.37.81.49 1.18.39 1.23.79 2.45 1.1 3.7.12.47.07 1 0 1.49-.43 2.76-3.05 3.88-5.36 2.32-3.04-2.06-3.92-5.03-3.54-8.52.04-.37.1-.74.17-1.11.06-.32.14-.63.2-.93-4.52-1.59-8.97-3.16-13.54-4.77.06.27.1.46.15.64.52 2.1 1.11 4.19 1.54 6.31.4 1.95-.75 3.95-2.44 4.56-1.29.47-2.37-.02-3.36-.75-.87-.64-1.31-1.6-1.63-2.61-1.07-3.36-1.2-6.79-.84-10.27.03-.29.06-.57.08-.8-3.82-2.23-7.59-4.43-11.39-6.65.18.94.42 1.9.52 2.87.11 1.12.16 2.25.12 3.37-.05 1.33-.58 2.51-1.48 3.5-1.66 1.84-3.98 1.61-5.18-.55-.9-1.63-1.38-3.42-1.34-5.28.04-1.95.24-3.91.38-5.86.08-1.12.21-2.23.32-3.48-.27-.48-1.22-.89-.6-1.79.33-.48.79-.41 1.76.18 2.35-1.25 4.91-1.84 7.52-2.11 1.47-.15 2.9.32 4.17 1.08 1.32.8 1.63 2.32.83 3.72-.69 1.2-1.76 1.99-2.99 2.56-.56.26-1.16.45-1.95.75 3.05 2.16 6.21 3.87 9.48 5.57.17-.32.33-.59.48-.87 1.66-3.05 3.91-5.49 7.07-7.01 1.62-.78 3.32-1.02 5.11-.64 2.74.59 3.65 3.11 1.9 5.32-.85 1.07-1.98 1.78-3.19 2.35-1.09.52-2.2 1-3.3 1.5-1.06.47-2.13.94-3.43 1.51 5.15 2.32 10.28 4.13 15.46 5.66.94-1.23 1.77-2.38 2.67-3.47 1.9-2.29 4.35-3.72 7.23-4.41.4-.1.82-.13 1.24-.14 1.37-.03 2.42.54 3.1 1.73.68 1.2.61 2.4-.1 3.56-.69 1.13-1.67 1.98-2.8 2.63-.97.57-1.99 1.04-2.99 1.56-.24.13-.48.26-.98.53 4.72 1.19 9.21 2.11 13.82 2.8.7-2.94 2.8-4.88 4.55-7.03 1.49-1.84 3.54-3.02 5.65-4.05 1.8-.88 3.5-.52 5.1.5 1.3.83 1.65 2.45 1.18 4.28-.18.7-.58 1.4-1.04 1.97-1.48 1.83-3.19 3.4-5.4 4.35-.56.24-1.1.52-1.63 1.02.33.1.66.28 1 .3 5.74.42 11.47.82 17.21 1.22.12.01.24-.05.32-.07.59-1.28 1.14-2.53 1.75-3.76.87-1.75 2.1-3.2 3.65-4.39.74-.57 1.54-.98 2.51-1.01 2.09-.08 3.55 1.58 3.16 3.66-.26 1.4-.89 2.6-1.98 3.53-.57.49-1.17.94-1.74 1.43-.17.15-.31.33-.64.68 5.81.05 11.36-.24 16.91-.67 1.03-5.48 4.19-9.6 7.96-13.35 1.01-1.01 2.2-1.79 3.55-2.29.5-.19 1.03-.36 1.56-.41 2.09-.2 3.68 1.17 3.75 3.27.08 2.32-.54 4.46-1.97 6.32-1.41 1.84-3.06 3.41-5.07 4.58-.42.24-.82.51-1.19.88 5.14-.49 10.2-1.3 15.21-2.35.79-2.63 1.71-5.15 3.22-7.37.67-.99 1.52-1.87 2.39-2.69.47-.44 1.12-.73 1.74-.94 2.47-.81 4.6 1.11 4.08 3.66-.32 1.55-1.09 2.87-2.03 4.11-.27.36-.55.71-.72 1.27 2.18-.61 4.37-1.21 6.61-1.83-.22-3 .64-5.7 1.57-8.38.61-1.76 1.49-3.37 2.85-4.65.65-.61 1.46-1.14 2.29-1.45 1.66-.61 3.2.22 3.79 1.89.45 1.28.36 2.59-.18 3.79-.8 1.78-1.76 3.49-2.66 5.22-.18.35-.42.67-.56 1.1 6.51-2.17 12.72-4.92 18.72-8.33-.84-2.45-1-4.93-.98-7.43.02-1.8.56-3.45 1.61-4.91.75-1.05 1.73-1.74 3.09-1.44 1.39.31 2.21 1.23 2.55 2.62.3 1.22.08 2.41-.19 3.59-.26 1.14-.62 2.25-.92 3.37-.08.3-.12.62.03 1.08 2.03-1.51 4.05-3.02 6.11-4.54-.45-1.22-.07-2.22.43-3.2.25-.48.53-.95.75-1.44 1.29-2.81 3.59-4.33 6.5-4.97.77-.17 1.68-.11 2.44.13 1.98.63 2.91 2.7 2.16 4.65-.25.64-.63 1.31-1.13 1.76-.95.86-1.96 1.72-3.09 2.3-2.04 1.04-4.2 1.81-6.51 2.06-.16.02-.35.04-.47.13-1.47 1.13-2.94 2.28-4.36 3.65.56 0 1.14-.07 1.68.02 1.02.17 2.05.35 3.02.69.55.2 1.08.64 1.47 1.11 1 1.21.75 2.75-.62 3.53-.78.44-1.69.7-2.57.92-2.28.57-4.47.3-6.5-.93-.89-.53-1.78-1.06-2.74-1.63-5.95 3.49-12.29 6.29-18.79 8.73.02.08.05.16.07.25.48 0 .97-.01 1.45 0 1.33.02 2.66-.03 3.98.09.72.07 1.48.31 2.12.66 1.73.95 1.94 2.94.48 4.29-1.02.94-2.27 1.39-3.63 1.5-2.13.17-4.26.1-6.28-.7-1.35-.54-2.7-1.11-4-1.76-.76-.39-1.43-.97-2.32-1.6-2.39.66-5.02 1.39-7.6 2.1 1.29.77 2.6 1.49 3.84 2.3 1.05.69 1.88 1.61 1.6 3-.29 1.47-1.45 2.06-2.75 2.41-1.04.29-2.09.24-3.05-.23-1.38-.67-2.74-1.4-4.08-2.17-1.41-.8-2.42-1.94-2.95-3.61z" fill="#94bf83"/><path d="m192.15 224.01c.28.89.38 1.71-.42 2.23-.91.59-1.92.83-2.96.32-.91-.44-1.31-1.46-.9-2.45.24-.56.6-1.11 1.02-1.56 2.05-2.2 4.51-3.65 7.52-4.13 5.31-.85 10.65 3.49 10.91 8.87.13 2.73-.42 5.3-1.62 7.74-.16.33-.32.65-.51 1.05.31.12.53.21.75.29 4.53 1.78 7.27 5.03 7.94 9.89.3 2.14-.38 4.12-1.45 5.96-.37.65-.82 1.25-1.28 1.95.19.11.34.23.52.3 2.1.87 3.6 2.4 4.63 4.37 2.31 4.42 2.6 8.99.8 13.64-.72 1.86-1.77 3.5-3.62 4.46-.96.49-1.94.68-3 .23-.09-.68.26-1.17.59-1.63.46-.65.93-1.29 1.46-1.87 3.16-3.51 3.06-10.56.12-14.37-1-1.3-2.36-1.97-3.91-2.25-.39-.07-.89.13-1.25.35-1.39.86-2.82 1.64-4.41 2.01-.72.17-1.5.25-2.22.14-1.49-.22-2.18-1.69-1.51-3.04.45-.9 1.22-1.47 2.1-1.89 1.48-.71 3.05-1.14 4.7-1.13.74 0 1.29-.22 1.74-.77.21-.26.45-.49.66-.75 3.76-4.51 1.72-10.92-3.96-12.51-1.12-.32-2-.23-2.92.67-1.67 1.64-3.67 2.89-5.86 3.75-.61.24-1.27.41-1.92.5-.79.11-1.49-.16-1.96-.85-.5-.74-.42-1.51.02-2.24.26-.42.57-.83.92-1.18 2.07-2.11 4.55-3.47 7.45-4.07.39-.08.87-.21 1.09-.49 1.99-2.58 3-5.51 2.46-8.76-.6-3.6-4.29-5.84-7.83-4.9-1.44.39-2.71 1.08-3.89 2.12z" fill="#f8d86f"/><path d="m283.61 257.94c-.12-.23-.26-.48-.39-.74-1.76-3.41-1.93-6.93-.66-10.53.68-1.94 1.66-3.73 2.89-5.37 1.41-1.88 3.17-3.29 5.43-4.03.19-.06.37-.17.48-.22.06-1.18.09-2.3.18-3.41.16-1.92.88-3.65 2.02-5.18 3.36-4.54 7.73-7.26 13.54-7.26 1.51 0 2.99.27 4.39.84.46.19.91.42 1.3.73.76.6.92 1.49.49 2.22-.46.77-1.37 1.01-2.3.6-.6-.27-1.17-.64-1.8-.79-1.9-.46-3.81-.35-5.67.24-3.27 1.05-5.79 3.06-7.61 5.95-1.09 1.74-1.27 3.66-1 5.73.39.1.77.22 1.17.31 1.27.29 2.46.79 3.51 1.57 1.67 1.24 2.13 2.99 1.25 4.59-.92 1.67-3.06 2.4-4.87 1.67-1.05-.42-1.83-1.16-2.41-2.1-.46-.74-.84-1.53-1.3-2.37-.94.12-1.79.57-2.47 1.21-2.89 2.74-4.79 6.01-4.63 10.11.12 3.1 1.52 5.58 4.17 7.29.88.57 1.2 1.18 1.02 1.95-.15.64-.71 1.19-1.4 1.25-.36.03-.74-.05-1.09-.17-.39-.13-.75-.35-1.13-.54-.99-.49-1.97-.46-2.84.2-3.05 2.31-5.19 5.27-6.21 8.98-.31 1.13-.23 2.31.4 3.39.27.46.48.97.64 1.49.23.77-.07 1.19-.87 1.3-.96.14-1.72-.28-2.34-.95-1.25-1.36-1.54-3.04-1.3-4.78.17-1.18.49-2.37.95-3.48 1.27-3.09 3.21-5.74 5.76-7.9.81-.64 1.76-1.17 2.7-1.8zm12.88-17.27c.48 1.16.48 1.16 1.4.85-.54-.33-.97-.59-1.4-.85z" fill="#f8d86f"/><path d="m248.07 258.86c.94.38 1.67.64 2.38.97.87.4 1.78.75 2.54 1.3 1.77 1.26 2.19 3.29 1.18 5.2-.27.51-.66.96-.97 1.45-.88 1.42-1.75 2.83-2.6 4.26-.29.48-.41.96-.08 1.52.5.84-.05 1.78-1.23 1.92-1.25.15-2.41-.8-2.41-2.14 0-.8.19-1.69.57-2.39.96-1.79 2.01-3.55 3.14-5.24 1.01-1.53.98-1.84-.69-2.54-.54-.22-1.11-.38-1.64-.61-.64-.29-1.31-.56-1.88-.96-1.72-1.19-2.08-3.06-.93-4.81 1.01-1.52 2.41-2.64 3.91-3.64.58-.39 1.17-.78 2.1-1.4-.43-.25-.74-.39-1-.58-1.32-.93-2.77-1.54-4.38-1.68-.96-.09-1.87-.05-2.65.76-.61.64-1.46.59-2.04.09-.58-.49-.72-1.28-.32-2.05.44-.85 1.17-1.38 2.05-1.74 1.5-.6 3.03-.52 4.55-.19 1.94.41 3.71 1.24 5.25 2.51.41.34.8.74 1.11 1.18.92 1.3.83 2.86-.28 4-.55.56-1.24.97-1.86 1.46-.99.76-1.98 1.52-2.95 2.3-.27.23-.47.56-.87 1.05z" fill="#f8d86f"/><path d="m131.68 321.44c-1.34-5-4.11-8.36-9.1-9.84 5-1.49 7.77-4.83 9.08-9.83 1.34 4.9 4.06 8.33 9.11 9.83-4.99 1.5-7.76 4.88-9.09 9.84z" fill="#f8d86f"/><path d="m372.39 311.86c-4.86 1.56-7.61 4.96-8.88 9.89-1.28-4.92-4.03-8.35-9.08-9.87 5.02-1.52 7.77-4.9 9.11-9.96.54 2.55 1.55 4.59 3.11 6.32 1.56 1.74 3.44 2.99 5.74 3.62z" fill="#f8d86f"/><path d="m177.62 260.47c4.4-1.29 6.82-4.29 8-8.59 1.18 4.34 3.63 7.31 7.98 8.59-4.38 1.28-6.84 4.28-7.98 8.64-1.15-4.3-3.55-7.31-8-8.64z" fill="#b2e5d4"/><path d="m243.76 336.84c3.45-.89 6.68-3.55 7.94-8.33.57 1.23.98 2.49 1.69 3.55.73 1.09 1.63 2.13 2.66 2.94 1.01.8 2.27 1.3 3.42 1.93-4.04 1.24-6.49 4.17-7.7 8.54-1.19-4.38-3.63-7.3-8.01-8.63z" fill="#b2e5d4"/><path d="m313.08 247.04c1.23 4.05 3.6 6.95 7.94 8.3-4.29 1.36-6.76 4.24-7.93 8.64-1.22-4.37-3.61-7.28-7.96-8.62 4.33-1.36 6.75-4.24 7.95-8.32z" fill="#b2e5d4"/></g></g></svg>