<svg id="Слой_1" enable-background="new 0 0 500 500" height="512" viewBox="0 0 500 500" width="512" xmlns="http://www.w3.org/2000/svg"><g><path d="m469.75 97.2-.08-.06c-1.07-.86-2.85-2.29-5.34-3.28-.91-2.6-2.55-4.93-4.79-6.69-1.3-1.01-5.25-4.1-11.12-4.1-1.9 0-3.81.33-5.67.97-.51.18-1.03.35-1.54.53-2.45-4.18-6.83-6.89-11.72-7.18-.41-.02-.83-.04-1.24-.04-4.86 0-8.3 1.72-9.96 2.54l-.11.06c-1.42-4.52-5-8.18-9.72-9.6-.38-.11-.59-.22-.66-.26-.06-.08-.35-.52-.66-1.66-1.69-6.41-7.49-10.87-14.12-10.87-.01 0-.02 0-.03 0-.87 0-1.72.08-2.56.23-1.74-2-4.02-3.53-6.67-4.36-.59-.19-.86-.35-.89-.39-.08-.07-.43-.62-.78-1.93-1.69-6.4-7.47-10.87-14.09-10.88-.01 0-.02 0-.03 0-6.61 0-12.39 4.44-14.11 10.82-.55 2.04-.8 2.12-1.75 2.41-6.17 1.89-10.38 7.6-10.34 14.06.04 5.99 3.72 11.3 9.21 13.48-.84-.2-1.69-.38-2.54-.53-1.56-.8-3.28-1.36-5.11-1.62-.75-.1-1.53-.16-2.31-.16-.75 0-1.34.05-1.66.07h-.02c-1.76.11-3.53.22-5.29.33-1.62.1-3.23.2-4.85.3-10.94.68-21.87 1.36-32.81 2.04l-75.03 4.66c-7.91.49-15.82.98-23.72 1.47-3.71.23-7.42.45-11.14.67-4.43.26-9.01.54-13.53.82-6.06.38-12.12.76-18.17 1.15-4.92.31-9.84.62-14.76.93 2.16-2.5 3.48-5.73 3.56-9.21.15-6.51-4.01-12.32-10.2-14.27-.05-.14-.11-.32-.17-.55-1.71-6.14-7.19-10.43-13.51-10.67.7-.56 1.42-1.13 2.16-1.73 3.94-3.17 7.25-6.86 9.82-10.98.12-.19.23-.39.35-.59.5-.14.99-.3 1.47-.48 4.86-.13 9.48-2.65 12.41-6.79 2.12-3 2.58-5.94 2.73-7.17.23-1.5.23-3.02-.01-4.52-.88-5.51-3.24-10.14-7-13.77-2.45-2.35-5.48-3.85-8.71-4.32-1.8-.9-4.37-1.81-7.46-1.81-.38 0-.75.02-1.13.05-4.07-2.63-8.88-4.13-14-4.29-.38-.02-.76-.03-1.14-.03-7.03 0-13.53 2.01-19.39 6-3.62-1.26-7.34-1.9-11.13-1.9-2.84 0-5.72.36-8.56 1.08-3.86.98-7.36 2.64-10.35 4.9-.56-.06-1.12-.1-1.68-.1-.9 0-1.8.08-2.69.25-3.57.55-6.15 2.01-7.96 3.57-2.41.71-4.23 1.85-5.29 2.65-2.82 2.12-4.82 5.12-5.8 8.66-1.87 6.8-.9 13.83 2.73 19.79 3.13 5.15 8.28 8.1 14.13 8.1.37 0 .74-.02 1.12-.04 1.15.26 2.34.41 3.56.44.68.68 1.41 1.34 2.17 1.99-.28.66-.51 1.35-.69 2.06-.23.91-.45 1.35-.55 1.51-.09.04-.24.11-.5.18-6.26 1.79-10.57 7.51-10.58 14.02 0 .96.09 1.9.27 2.81-2.62 1.99-4.58 4.86-5.38 8.25-1.47 6.19-4.01 7.34-6.93 8.11-6.66 1.76-11.18 7.94-10.85 14.82s5.43 12.6 12.22 13.71c.57.09 1.44.24 3.02 1.98 1.22 1.34 1.94 2.78 2.26 4.54.71 3.85 2.9 7.13 5.93 9.27-2.06 4.58-4.03 9.52-5.97 14.91-5.04 14.04-8.95 28.89-11.97 45.41-3.42 18.71-5.2 37.17-5.29 54.86-.09 15.65 1 28.54 3.43 40.58 1.93 9.6 4.53 17.36 8.16 24.42 3.26 6.34 9.19 9.98 16.26 9.98.22 0 .45 0 .68-.01 7.49-.24 15.13-.41 22.53-.57l3.74-.08c5.14-.12 10.27-.23 15.41-.34 7.18-.16 14.6-.32 21.91-.49 12.72-.3 25.64-.63 38.15-.94h.06c.3 2.44.61 4.88.91 7.32.63 5.05 1.26 10.1 1.88 15.15.47 3.81.93 7.61 1.39 11.42.46 3.75.91 7.49 1.37 11.24.63 5.08 1.26 10.16 1.89 15.24.59 4.73 1.17 9.45 1.76 14.18.59 4.76 1.17 9.52 1.75 14.27.58 4.77 1.17 9.53 1.75 14.3.83 6.73 1.66 13.45 2.5 20.18l1.19 9.58.9 7.28c.8 6.48 1.6 12.97 2.42 19.45.25 2 .84 6.69 4.99 10.57 4.19 3.92 8.95 4.15 10.98 4.25 7.94.39 16.02.78 24.03 1.15.38.02.74.03 1.09.03 6.72 0 10.67-3.5 12.43-5.58 3.21-3.82 3.65-8.09 3.8-9.49.25-2.44.48-4.89.71-7.27.12-1.28.24-2.55.37-3.83l.13-1.38c.8-8.18 1.59-16.36 2.4-24.55.46-4.64.91-9.27 1.37-13.91.4-4.07.8-8.13 1.2-12.2.39-3.93.77-7.87 1.15-11.8.46-4.66.91-9.31 1.37-13.97.42-4.22.83-8.44 1.25-12.66.09-.91.18-1.81.27-2.72 1.38 4.66 5.03 8.44 9.87 9.87.6.18.92.32 1.08.39.2.28.81 1.25 1.72 3.8 2.09 5.82 7.61 9.67 13.74 9.67.22 0 .44 0 .66-.01 6.4-.29 11.86-4.71 13.48-10.9.65-2.47 1.21-2.64 2.43-3.01 6.17-1.86 10.39-7.55 10.39-13.99 0-2.77-.78-5.39-2.16-7.64h.08c6.46-.42 11.87-5.03 13.31-11.34.18-.78.55-2.16 1.04-2.71.24-.26 1.06-.97 3.56-1.91 5.64-2.12 9.4-7.48 9.46-13.51s-3.57-11.47-9.16-13.72c-3-1.21-3.72-1.89-3.84-2.02-.06-.06-.56-.68-1.27-3.34-.26-.97-.61-1.9-1.04-2.77 4.79-1.5 9.73-3.06 14.65-4.85 19.32-7.01 38.08-13.86 53.89-19.65 15.77-5.4 31.53-10.8 47.3-16.2l.09-.03c.72-.23 2.21-.7 3.87-1.65 1.75-1 3.02-2.18 3.86-3.08 2.36-1.81 4.1-4.31 5-7.13 3.06-.4 6.21-.81 9.35-1.26 6.09-.88 9.51-4.08 11.3-6.61 2.34-3.31 3.26-7.27 2.72-11.77-.08-.68-.19-1.22-.24-1.52v-.03l-1.52-9.32c-1.35-8.29-2.71-16.57-4.06-24.86-.82-5.06-1.65-10.12-2.47-15.18-1.14-7.04-2.29-14.08-3.44-21.12-1.88-11.52-3.77-23.04-5.66-34.55l-1.31-8.01c2.65-.85 5.29-1.7 7.94-2.55 4.35-1.4 8.7-2.8 13.06-4.2.86-.27 1.76-.54 2.81-.85.55-.16 1.12-.33 1.72-.51 5.19-1.56 9.09-5.87 10.13-11.19.98-5.31-1.01-10.77-5.23-14.17z" fill="#fff"/><g><path d="m460.59 108.58c-1.76.53-3.28.96-4.78 1.44-7.02 2.25-14.04 4.51-21.05 6.77-.65.21-1.3.42-1.96.57-.6.14-1.34.35-1.6-.46-.25-.79.39-1.08 1.02-1.27.05-.02.11-.04.16-.06 8.32-2.65 16.64-5.3 24.97-7.93 1.51-.48 1.52-.44 3.24.94z" fill="#75544d"/><path d="m450.54 98.68c-2.06.8-3.82 1.56-5.64 2.17-6.56 2.18-13.14 4.31-19.71 6.45-.43.14-.89.27-1.32.25-.28-.01-.74-.27-.78-.48-.05-.32.09-.82.33-1 .39-.3.92-.42 1.4-.58 7.58-2.54 15.17-5.04 22.72-7.65 1.21-.42 1.93 0 3 .84z" fill="#75544d"/><path d="m428.62 91.96c-.99 1.39-2.07 2.09-3.22 2.69-3.46 1.82-6.93 3.63-10.43 5.37-5.53 2.75-11.09 5.45-16.65 8.16-.4.2-.83.44-1.26.46-.32.01-.75-.24-.93-.51-.12-.18.03-.68.22-.89.25-.28.64-.45.99-.63 9.08-4.52 18.16-9.05 27.26-13.55 1.14-.56 2.3-1.2 4.02-1.1z" fill="#75544d"/><g><path d="m320.49 100.11c-.49-1.94-.37-2.18 1.43-2.86 14.3-5.39 27.87-3.72 40.73 4.34 7.86 4.92 14.2 11.47 19.75 18.82 6.82 9.02 12.12 18.92 16.59 29.28 5.5 12.76 9.58 25.98 12.76 39.49 2.77 11.78 4.81 23.7 6.28 35.71 1.37 11.17 2.23 22.38 2.66 33.62.02.62 0 1.24 0 1.94-.56.23-1.07.46-1.6.65-34.49 12.61-68.96 25.27-103.48 37.79-7.46 2.71-15.11 4.91-22.67 7.37-.73.24-1.32.17-1.86-.38-.44-.44-.91-.85-1.33-1.31-.22-.24-.55-.58-.52-.83.27-1.81-1.09-2.76-2.01-3.92-1.62-2.05-3.31-4.03-4.9-6.1-2.8-3.66-4.45-7.85-5.82-12.23-1.87-5.96-2.64-12.07-3.08-18.26-.33-4.64-.9-9.27-1.36-13.9-.52-5.22-.33-10.44.1-15.66.44-5.38.74-10.77 1.3-16.13 1.1-10.56 2.34-21.12 5.06-31.42 2.35-8.91 5.46-17.57 8.92-26.09 4.34-10.68 8.78-21.33 14.37-31.43 2.06-3.72 4.4-7.29 6.62-10.93 1.39-2.28 2.81-4.54 4.18-6.83 2.29-3.84 4.54-7.73 7.88-10.73z" fill="#99c5b7"/><path d="m168.02 307.64c-1.24-.26-1.55-1.09-1.56-2.24-.03-2.21-.23-4.42-.26-6.64-.01-.7.25-1.43.49-2.11.32-.93 1.07-1.22 2.02-1.23 1.93-.02 3.86-.1 5.79-.15 8.46-.23 16.91-.44 25.37-.68 10.39-.3 20.77-.64 31.16-.96 1.19-.04 2.38-.06 3.58-.05 1.52.01 1.79.27 1.66 1.84-.2 2.55-.45 5.09-.71 7.63-.64 6.5-1.31 12.99-1.95 19.49-.65 6.61-1.29 13.22-1.94 19.84-.86 8.76-1.71 17.52-2.57 26.28-.85 8.65-1.72 17.29-2.57 25.93-.85 8.59-1.68 17.18-2.52 25.77-.86 8.7-1.72 17.4-2.57 26.11-.85 8.65-1.69 17.29-2.53 25.94-.36 3.67-.69 7.35-1.07 11.02-.18 1.73-.5 2.02-2.1 1.95-8-.37-15.99-.76-23.99-1.15-1.92-.09-1.95-.13-2.2-2.05-1.11-8.9-2.21-17.81-3.31-26.71-1.23-9.92-2.46-19.84-3.69-29.75-1.17-9.52-2.33-19.05-3.51-28.57-1.21-9.81-2.43-19.61-3.64-29.41-.93-7.55-1.84-15.11-2.77-22.66-1.11-9.02-2.24-18.03-3.36-27.05-.42-3.45-.83-6.88-1.25-10.39z" fill="#99c5b7"/><g><path d="m419.79 112.76c1.47-.06 1.74.12 2 1.67.9 5.32 1.76 10.64 2.63 15.96 2.47 15.07 4.95 30.13 7.41 45.2 1.98 12.1 3.93 24.2 5.9 36.3 1.86 11.43 3.73 22.85 5.59 34.28.05.28.11.56.14.84.19 1.57-.03 1.95-1.59 2.18-3.93.57-7.87 1.07-11.81 1.58-9.4 1.23-18.79 2.45-28.19 3.66-7.37.95-14.75 1.89-22.12 2.85-9.29 1.2-18.57 2.43-27.85 3.63-9.17 1.19-18.35 2.35-27.52 3.54-7.43.96-14.86 1.92-22.29 2.89-9.23 1.2-18.46 2.4-27.69 3.6-9.28 1.21-18.57 2.42-27.85 3.62-2.81.36-5.63.73-8.44 1.07-1.81.22-2.18-.09-2.37-1.97-.74-7.34-1.46-14.68-2.21-22.03-1.08-10.73-2.19-21.45-3.27-32.18-.97-9.66-1.9-19.32-2.86-28.98-.85-8.53-1.74-17.05-2.59-25.58-.89-8.87-1.77-17.73-2.65-26.6-.12-1.25.24-1.73 1.57-1.9 2.98-.38 5.97-.73 8.96-1.09 8.11-.98 16.22-1.97 24.34-2.95 8-.96 16-1.91 24-2.87 8.9-1.07 17.8-2.16 26.7-3.24 9.07-1.1 18.14-2.17 27.21-3.27 8.9-1.08 17.8-2.17 26.7-3.24 8-.97 16-1.91 24-2.88 8.9-1.07 17.8-2.16 26.7-3.23 2.49-.3 4.97-.57 7.45-.86z" fill="#ffe3c6"/><path d="m300.63 196.26c-.62-.47-1.15-.88-1.69-1.27-23.91-17.13-47.81-34.26-71.72-51.39-.74-.53-1.51-1.03-2.17-1.64-.83-.77-.62-1.79.44-2.11.57-.18 1.24-.18 1.84-.1.67.09.69.77.93 1.27.23.47.75.82 1.19 1.14 7.75 5.56 15.51 11.11 23.26 16.66 27.74 19.86 55.49 39.73 83.23 59.59.55.39 1.11.78 1.77 1.24.45-.53.85-.99 1.23-1.47 25.76-32.33 51.52-64.66 77.27-96.99.67-.84 1.32-1.7 2.01-2.54.29-.35.6-.69.94-.99.47-.42 1-.56 1.54-.12.52.43.55 1 .25 1.54s-.68 1.05-1.07 1.53c-15.82 19.85-31.64 39.7-47.46 59.54-.35.44-.69.9-1.11 1.45.37.37.69.74 1.06 1.07 21.99 19.28 43.98 38.55 65.98 57.83.38.34.79.66 1.14 1.03.49.51.58 1.11.16 1.7-.38.55-1.12.59-1.82.11-.33-.22-.61-.51-.91-.77-21.69-19.01-43.39-38.03-65.08-57.04-.68-.6-1.37-1.18-2.15-1.86-.42.49-.78.91-1.13 1.35-9.52 11.94-19.05 23.88-28.57 35.83-1.72 2.16-1.87 2.18-4.09.59-10.48-7.5-20.97-15-31.45-22.5-.5-.36-1.01-.71-1.67-1.18-.49.54-.94 1.02-1.37 1.52-15.65 18.52-31.3 37.04-46.95 55.56-4.18 4.94-8.35 9.89-12.54 14.83-.33.39-.65.8-1.05 1.11-.49.38-1.15.44-1.53-.08-.25-.35-.33-.97-.21-1.39.13-.46.55-.84.88-1.23 19.79-23.42 39.58-46.84 59.37-70.27.39-.46.76-.95 1.25-1.55z" fill="#75544d"/><path d="m339.03 231.1c-4.12-3.35-9.06-4.94-13.48-7.48-1.99-1.14-3.84-2.44-5.33-4.19-2.64-3.08-3.71-6.61-2.77-10.62.77-3.27 2.8-5.4 6.03-6.31 3.55-1.01 6.86-.3 9.97 1.57.87.52 1.68 1.15 2.55 1.76.7-.79 1.34-1.59 2.05-2.31 1.79-1.81 3.89-3.12 6.41-3.68 6.37-1.41 10.88 2.5 11.5 8.62.37 3.59-.82 6.78-3.13 9.45-1.66 1.92-3.58 3.63-5.46 5.36-1.76 1.61-3.64 3.08-5.4 4.69-1 .9-1.85 1.96-2.94 3.14z" fill="#ff7772"/><g fill="#f4fafa"><path d="m319.72 209.11c.53-1.09 1-2.23 1.62-3.27.33-.55.96-.79 1.62-.41.6.34.64.91.29 1.77-.32.76-.57 1.56-.8 2.36-.24.83-.69 1.24-1.4 1.14-.65-.1-1.1-.7-1.33-1.59z"/><path d="m321.45 215.66c-.68.04-1.29-.55-1.28-1.28.01-.64.33-1.07.99-1.17.68-.09 1.33.48 1.38 1.18.05.66-.44 1.23-1.09 1.27z"/></g></g><path d="m170.95 309.38c-18.05.45-36.11.91-54.16 1.34-12.43.3-24.87.55-37.3.83-8.8.2-17.6.39-26.4.66-1.71.05-2.7-.52-3.48-2.05-3.36-6.53-5.39-13.48-6.83-20.63-2.5-12.42-3.21-24.98-3.14-37.61.1-17.59 1.9-35.02 5.06-52.31 2.68-14.66 6.31-29.06 11.34-43.1 3.84-10.71 8.39-21.1 14.64-30.67 2.52-3.86 5.28-7.55 8.71-10.65 1.68-1.52 3.51-2.87 5.37-4.17 2.24-1.56 4.77-2.2 7.52-2.35 8.67-.45 17.34-1.06 26.01-1.59 6.74-.41 13.49-.8 20.23-1.22 11.79-.73 23.57-1.5 35.36-2.23 8.22-.51 16.43-.99 24.65-1.49 11.05-.68 22.1-1.37 33.15-2.06 10.94-.68 21.87-1.36 32.81-2.04s21.87-1.36 32.81-2.04 21.87-1.36 32.81-2.04c3.4-.21 6.8-.43 10.2-.64.34-.02.69-.07 1.02-.02.79.11 1.19.76.86 1.49-.2.45-.56.85-.92 1.2-10.54 10.29-18.9 22.2-25.91 35.09-8.81 16.2-15.19 33.34-19.85 51.15-3.54 13.54-5.98 27.27-7.45 41.18-1.55 14.71-1.98 29.46-1.18 44.23.65 12.09 2.07 24.09 4.54 35.96.05.22.09.45.13.67.31 1.83 0 2.27-1.86 2.32-6.42.17-12.83.3-19.25.46-13.74.33-27.48.66-41.22.98-15.9.37-31.79.73-47.69 1.1-3.52.08-7.04.21-10.56.31-.02-.02-.02-.04-.02-.06z" fill="#b2e5d4"/><path d="m93.81 130.87c0-2.9.04-5.74-.01-8.57-.06-2.95-.24-5.9-.32-8.85-.24-8.4-.44-16.8-.69-25.19-.16-5.67-.38-11.34-.55-17.02-.17-5.45-.32-10.9-.43-16.34-.01-.77.13-1.61.46-2.29.55-1.17 1.62-1.76 2.92-1.69 1.28.07 2.27.74 2.77 1.95.23.56.32 1.21.35 1.82.14 3.8.25 7.6.37 11.41.19 6.07.39 12.14.57 18.21.16 5.45.29 10.9.45 16.35.19 6.35.4 12.71.59 19.06.09 3.12.16 6.24.24 9.36.01.56 0 1.13 0 1.74.56.3 1.06.56 1.54.82 5.52 3.04 6.01 10.15.87 13.81-3.33 2.37-6.96 2.69-10.62.84-5.41-2.74-6.17-9.55-1.52-13.45.89-.76 1.97-1.3 3.01-1.97z" fill="#75544d"/><path d="m174.14 307.95c-3.46 0-6.93-.05-10.39.01-11.75.22-23.5.47-35.25.72-11.24.24-22.48.48-33.71.71-10.39.22-20.77.43-31.16.65-.51.01-1.05.08-1.52-.06-.3-.09-.69-.5-.7-.77-.01-.29.33-.71.62-.86.33-.17.77-.12 1.17-.13 4.6-.11 9.19-.21 13.79-.32 8.63-.2 17.25-.41 25.88-.6 7.61-.16 15.21-.27 22.82-.43 11.52-.25 23.04-.53 34.56-.78 5.62-.12 11.24-.2 16.86-.32 9.53-.2 19.07-.42 28.6-.62 11.58-.24 23.16-.46 34.74-.72 11.29-.25 22.59-.55 33.88-.81 3.63-.08 7.27-.13 10.9-.19.17 0 .34-.01.51-.01.67.01 1.32.14 1.28.99-.04.82-.69.92-1.36.93-4.88.09-9.76.19-14.64.29-11.24.24-22.48.47-33.71.72-11.69.26-23.38.56-35.07.82-8.91.2-17.82.35-26.73.52-.45.01-.91 0-1.36 0-.01.07-.01.16-.01.26z" fill="#75544d"/><path d="m419.21 261.71c-.16.17-.37.53-.68.7-.44.25-.95.37-1.43.54-20.78 7.12-41.56 14.24-62.35 21.35-19.49 6.67-38.99 13.35-58.48 20.02-.54.18-1.08.45-1.63.46-.36.01-.94-.3-1.02-.58-.09-.3.22-.82.5-1.09.26-.25.72-.32 1.09-.44 14.93-5.11 29.86-10.22 44.79-15.34 24.97-8.55 49.94-17.1 74.91-25.66.97-.33 1.93-.68 2.91-.95.79-.2 1.39.2 1.39.99z" fill="#75544d"/><path d="m92.01 23.63c.98-1.04 1.79-1.99 2.69-2.84 4.25-4.03 9.21-6.35 15.19-6.17 7.14.23 11.45 5.32 11.95 11.81.26 3.45-.71 6.64-2.54 9.56-1.76 2.82-3.98 5.24-6.57 7.32-2.61 2.1-5.24 4.17-7.89 6.22-3.02 2.32-6.04 4.62-8.51 7.56-.21.25-.5.44-.78.68-.24-.08-.49-.09-.66-.21-4.35-3.22-9.43-4.94-14.3-7.1-3.27-1.45-6.58-2.83-9.5-4.94-3.05-2.2-5.52-4.85-6.81-8.49-2.24-6.27.07-15.3 9.43-17.67 6.21-1.57 11.79-.17 16.98 3.34.41.27.81.57 1.32.93z" fill="#ff7772"/><g fill="#75544d"><path d="m58.22 38.81c-1.26-.01-1.8-.66-2.06-1.48-1.06-3.41-1.38-6.87-.4-10.35.21-.74.66-1.44 1.14-2.05.21-.26.77-.23 1.18-.34.1.4.4.92.26 1.18-2.08 3.76-1.27 7.55-.27 11.37.13.5.1 1.04.15 1.67z"/><path d="m53.68 38.36c-1.18.23-1.73-.38-2.13-1.04-1.58-2.6-1.92-5.4-1.12-8.33.09-.32.25-.68.5-.86.28-.21.85-.44 1-.31.28.23.56.8.45 1.08-.99 2.72-.43 5.23.8 7.7.26.52.32 1.13.5 1.76z"/><path d="m128.21 29.03c-.28-.71-.62-1.23-.69-1.79-.32-2.51-1.01-4.87-2.44-6.99-.32-.47-.44-1.07.1-1.32.34-.16.94.05 1.33.27.31.18.52.59.71.93 1.03 1.85 1.74 3.82 2.03 5.91.14.99.33 2.06-1.04 2.99z"/><path d="m134.22 26.46c-.07.31-.05.7-.22.95-.21.29-.59.63-.89.63-.25-.01-.67-.47-.7-.76-.16-2-.91-3.71-2.25-5.18-.38-.42-.49-.92-.02-1.35.48-.44.99-.21 1.37.16 1.57 1.51 2.37 3.4 2.71 5.55z"/></g></g><g fill="#a2dae4"><path d="m73.51 61.04c1.6 6.18 5.02 10.41 11.23 12.15-6.17 1.76-9.65 5.96-11.22 12.21-1.55-6.22-5.01-10.4-11.19-12.2 6.17-1.78 9.61-5.96 11.18-12.16z"/><path d="m306.65 339.17c-8.07 3.03-11.94 7.26-13.71 15.06-.63-1.72-1.08-3.44-1.88-4.97-.83-1.6-1.84-3.15-3.04-4.49-1.2-1.33-2.62-2.54-4.14-3.49-1.5-.94-3.25-1.49-4.79-2.18 7.53-2.11 11.85-7.43 13.78-15.13 2.18 8.29 5.44 11.85 13.78 15.2z"/><path d="m109.42 81.55c5.26-1.57 8.27-5.12 9.73-10.53 1.48 5.31 4.45 8.94 9.84 10.56-2.72.68-4.76 2-6.45 3.88-1.63 1.82-2.71 3.94-3.35 6.34-1.49-5.11-4.48-8.7-9.77-10.25z"/><path d="m404.25 84.33c-6.17 1.83-9.55 5.98-11.24 11.87-.7-2.78-1.95-5.26-3.85-7.38-1.95-2.16-4.27-3.71-7.47-4.45 6.24-1.91 9.73-6.05 11.33-12.22 1.63 6.13 5.09 10.33 11.23 12.18z"/></g><path d="m56.7 124.74c-.83-4.47-2.78-8.37-5.83-11.72-3.06-3.35-6.68-5.77-11.46-6.56 9.77-2.59 15.09-9.13 17.41-18.85.78 4.87 2.78 8.79 5.85 12.17 3.05 3.35 6.7 5.71 11.34 6.51-9.72 2.66-15.02 9.09-17.31 18.45z" fill="#f8d86f"/><path d="m269 389.76c-2.88-8.01-5.95-11.35-12.4-13.26 6.78-2.12 10.65-6.66 12.35-13.51 1.77 6.71 5.5 11.38 12.4 13.45-6.87 2.08-10.63 6.74-12.35 13.32z" fill="#f8d86f"/><path d="m256.53 324.73c1.67 6.43 5.17 10.73 11.28 12.57-1.62.87-3.46 1.57-4.95 2.73-1.5 1.16-2.84 2.64-3.88 4.23-1.07 1.63-1.7 3.55-2.54 5.39-.62-2.8-1.91-5.41-3.92-7.63-1.99-2.19-4.36-3.77-7.31-4.58 2.92-.86 5.32-2.41 7.31-4.61 2.01-2.23 3.29-4.85 4.01-8.1z" fill="#f8d86f"/><path d="m367.97 54.82c1.69 6.39 5.18 10.58 11.45 12.54-6.17 2-9.81 6.18-11.43 12.61-1.72-6.26-5.15-10.66-11.61-12.55 6.35-1.94 9.88-6.21 11.59-12.6z" fill="#f8d86f"/></g></g></svg>