<svg id="Слой_1" enable-background="new 0 0 500 500" height="512" viewBox="0 0 500 500" width="512" xmlns="http://www.w3.org/2000/svg"><g><path d="m499.19 340.2c-1.47-7.24-4.89-13.98-10.16-20.03-.23-.26-.46-.52-.69-.78.41-1.21.8-2.44 1.17-3.69 4.17-14.02 5.44-26.78 3.89-38.99-.95-7.45-2.81-14-5.69-20.01-2.89-6.03-6.65-11.18-11.15-15.3-1.89-1.73-3.92-3.28-6.08-4.65.28-3.96.3-7.86.07-11.69-.7-11.22-3.25-21.87-7.58-31.66-2.2-4.98-5.14-9.47-8.73-13.34-3.54-3.81-7.74-7.06-12.5-9.67-1.72-.94-3.47-1.74-5.24-2.38 1.83-2.52 2.89-5.59 2.9-8.86.01-3.21-.99-6.25-2.76-8.76 2.44-1.65 4.41-4.02 5.56-6.91 1.26-3.15 2.28-3.32 3.68-3.55 6.67-1.12 11.78-6.52 12.54-13.23.76-6.72-3.02-13.12-9.26-15.7-1.31-.54-2.25-.93-2.78-4.32-1.08-6.87-6.71-12.13-13.64-12.74-.45-.04-.89-.06-1.33-.06-6.41 0-12.2 4.07-14.32 10.22-.31.9-.71 1.5-1.38 2.09-.72.63-1.09.68-1.36.72-2.26.32-4.36 1.13-6.18 2.32-.17-4.07-1.64-7.89-4.27-10.98-2.64-3.1-6.19-5.16-10.19-5.97-2.33-5.14-5.92-9.5-10.49-12.71-5.22-3.67-11.36-5.61-17.75-5.61-4.11 0-8.16.81-12.04 2.39-4.46 1.83-8.35 4.38-11.6 7.6-1.48-1.83-3.18-3.48-5.06-4.95-2.69-2.09-5.69-3.71-8.91-4.82-3.23-1.11-6.62-1.67-10.05-1.67-4.61 0-9.14 1-13.45 2.96-3.25 1.48-6.27 3.49-8.95 5.93-5.7-6.05-13.7-9.72-22.55-9.72-4.61 0-9.14 1-13.45 2.96-3.85 1.75-7.31 4.21-10.26 7.18-1.98-2.71-4.39-5.09-7.16-7.04-5.23-3.68-11.39-5.63-17.82-5.63-3.23 0-6.46.5-9.59 1.48-5.51 1.73-10.49 4.86-14.56 9.11-.78-.91-1.6-1.77-2.48-2.59-5.72-5.31-13.17-8.24-20.98-8.24-5.02 0-9.91 1.18-14.51 3.51-2.62 1.33-5.01 2.89-7.16 4.69-.64-.64-1.3-1.25-2-1.83-5.54-4.65-12.58-7.21-19.82-7.21-5.29 0-10.63 1.38-15.43 3.99-4.62 2.51-8.5 5.79-11.52 9.74-.34.45-.67.9-.99 1.36-.76 0-1.43 0-2.06.01-9.37.08-17 6.91-18.15 16.22-.19 1.51-.34 2.96-.48 4.37-.03.3-.06.61-.09.91-3.42-4.16-7.8-7.27-13.03-9.23-3.28-1.23-6.61-1.86-9.91-1.86-6.99 0-13.44 2.75-18.65 7.94-2.28 2.27-4.25 4.77-5.86 7.44-4.79 7.94-8.07 16.11-9.75 24.29-.79 3.87-1.33 7.83-1.61 11.93-4.63 1.21-8.47 4.56-10.26 9.08-5.08 2.55-8.37 7.78-8.35 13.58.02 5.85 3.39 11.11 8.57 13.6 1.73 4.01 5.09 7.02 9.14 8.37-6.23 9.04-9.95 19.62-11.07 31.5-.52 5.56-.05 11.04 1.41 16.39-1.48 1.37-2.84 2.82-4.09 4.36-4.16 5.13-7.03 10.6-8.55 16.25-1.73 6.44-1.72 13.11.03 19.83 1.4 5.39 3.4 10.32 5.95 14.66 2.47 4.22 5.52 7.99 9.08 11.25-.05.17-.09.35-.14.52-1.34 5.53-3.43 6.51-6.03 7.21-6.6 1.78-11.2 7.76-11.21 14.59-.02 6.84 4.55 12.84 11.15 14.64 2.67.73 4.8 1.72 6.03 7.12.76 3.35 2.6 6.22 5.1 8.29-4.44 2.27-7.58 6.64-8.16 11.79-.76 6.74 3.05 13.16 9.33 15.72 1.29.53 2.15.88 2.64 4.29.98 6.81 6.42 12.1 13.25 12.89.59.07 1.17.1 1.75.1 4.05 0 7.87-1.63 10.67-4.4-.28 2.47-.55 4.99-.82 7.49-.57 5.37.95 10.43 4.26 14.26 3.33 3.84 8.16 6.08 13.61 6.29.76.03 1.45.03 2.01.03.32 0 .63 0 .84.01 2.34.07 4.68.14 7.01.21 4.45.13 9.05.27 13.59.39 2.63.07 5.25.1 7.79.14 1.58.02 3.21.04 4.8.07 2.48.04 5.74.11 9.04.21 2.09.06 4.24.14 6.31.21 2.34.08 4.76.16 7.17.23 2.82.08 5.67.15 8.42.21 1.79.04 3.58.08 5.37.13 2.32.06 4.64.12 6.95.18 4 .11 8.14.22 12.23.31 4.05.09 8.15.16 12.11.24 2.92.05 5.94.11 8.9.17 1.81.04 3.68.09 5.49.14 1.17.03 2.33.07 3.5.1 7.71.2 15.41.39 23.12.59 1.54.04 3.08.07 4.62.11 2.02.05 4.1.1 6.14.15 2.93.08 5.86.16 8.79.24 4.04.11 8.23.23 12.35.33 2.84.07 5.71.13 8.49.18 1.35.03 2.7.05 4.05.08.8.02 1.6.03 2.4.05 1.97.04 3.82.07 5.7.13 3.09.09 6.25.19 9.3.28 3.83.12 7.79.24 11.69.35 2.96.08 5.95.15 8.84.21 2.05.05 4.16.09 6.23.14 2.39.06 4.82.13 7.17.19 3.65.1 7.43.2 11.16.29 4.87.11 9.8.19 14.57.28 2.26.04 4.51.08 6.77.12h.06c.23.01.57.03.98.04.8.02 1.61.04 2.41.06 2.15.06 4.37.12 6.62.13h.14c2.86 0 5.63-.63 8.11-1.85 1.23-.48 2.91-1.14 4.71-2.14 7.22-4.01 14.28-7.96 21.04-11.79 5.23 2.24 10.48 4.46 15.6 6.62l6.09 2.58c.59.25 1.11.44 1.56.62.17.06.36.13.57.22 1.76.68 3.61 1.01 5.44 1.01 3.02 0 6.01-.9 8.57-2.66 4.12-2.82 6.57-7.5 6.57-12.49 0-.15 0-.29.01-.41.01-.59.03-1.47-.07-2.55-.04-.49-.08-.98-.13-1.47.21.9.49 1.79.87 2.66 2.57 5.93 7.95 9.86 14.41 10.52.71.07 1.42.11 2.13.11 3.69 0 7.36-1 10.59-2.89.09-.05.18-.11.28-.16 1.09-.63 2.92-1.68 4.78-3.41.35-.33.7-.65 1.05-.98 1.92-1.78 4.1-3.79 6.19-6.19 7.19-8.25 13.65-17.61 20.33-29.46 2.71-4.81 5.29-9.6 7.09-15.33 2.4-7.52 2.88-15 1.44-22.14z" fill="#fff"/><g><g><path d="m415.09 412c-.72-.28-1.2-.45-1.67-.65-8.79-3.73-17.59-7.43-26.36-11.21-1.55-.67-2.83-.56-4.28.27-8.43 4.79-16.88 9.53-25.35 14.24-1.35.75-2.84 1.23-4.26 1.83-1.19-1.29-1.79-2.64-1.71-4.23.09-1.75.24-3.49.43-5.23.71-6.39 1.38-12.79 2.2-19.16.98-7.69 2.03-15.37 3.14-23.05 1.8-12.4 3.75-24.77 5.5-37.18 2.13-15.17 4.2-30.34 6.13-45.54 1.52-11.96 2.81-23.95 4.13-35.93.78-7.1 1.44-14.2 2.14-21.31 1-10.12 1.98-20.23 2.97-30.35 1.19-12.04 2.33-24.09 3.59-36.13 1.4-13.35 2.93-26.7 4.38-40.05.24-2.2.35-4.42.48-6.63.07-1.24 1.52-3.36 2.66-3.79 1.62-.61 3.39.53 3.72 2.47.19 1.07.23 2.16.32 3.25.33 4.05.65 8.1.96 12.15.27 3.54.53 7.07.8 10.61.31 3.91.63 7.82.94 11.73.3 3.72.59 7.45.88 11.17.3 3.77.6 7.54.9 11.31.22 2.78.42 5.56.63 8.34.29 3.77.59 7.54.88 11.31s.57 7.54.86 11.31c.29 3.86.59 7.73.88 11.59.27 3.63.52 7.26.78 10.89.27 3.82.54 7.64.81 11.46.21 2.97.4 5.94.6 8.91.24 3.54.5 7.07.74 10.61.34 5 .68 10 1.02 15s.67 10 1 15c.26 3.96.5 7.93.76 11.89.31 4.77.64 9.53.95 14.29.33 5.05.65 10.1.99 15.14.33 4.91.68 9.81 1.02 14.71.26 3.82.5 7.64.77 11.46.28 3.86.59 7.73.88 11.59.28 3.68.53 7.36.82 11.03.29 3.82.61 7.63.92 11.45.21 2.68.41 5.37.64 8.05.22 2.59.47 5.18.7 7.76.24 2.64.48 5.27.7 7.91.04.5.01.97.01 1.71z" fill="#ff7772"/><path d="m109.86 98.68c.99 0 1.98-.02 2.97 0 6.28.18 12.56.38 18.85.56 3.02.09 6.05.18 9.07.27 6.19.19 12.38.37 18.57.56 3.12.09 6.24.18 9.35.28l18.57.57c2.5.08 5.01.18 7.51.25 5.58.15 11.15.24 16.73.42 6 .19 11.99.44 17.99.65 2.22.08 4.44.1 6.66.15 3.35.08 6.71.16 10.06.26 5.76.18 11.53.37 17.29.55 3.07.1 6.14.18 9.21.28 6.28.19 12.57.39 18.85.58 2.88.09 5.76.17 8.65.26 6.38.19 12.75.39 19.13.58 2.46.08 4.91.18 7.37.24 5.57.14 11.15.24 16.73.41 6 .19 11.99.44 17.99.65 2.17.08 4.35.09 6.52.14 3.26.08 6.52.16 9.78.27 4.11.13 8.22.27 12.33.46 2.02.09 3.2 1.48 2.97 3.51-.5 4.36-1.06 8.72-1.61 13.08-.52 4.17-1.05 8.34-1.58 12.51-.83 6.56-1.66 13.12-2.48 19.68-.48 3.84-.95 7.69-1.43 11.53-.73 5.91-1.47 11.81-2.21 17.72-.91 7.31-1.81 14.63-2.72 21.94-1.04 8.34-2.08 16.69-3.12 25.03-1.05 8.39-2.09 16.78-3.14 25.17-1.04 8.3-2.08 16.59-3.12 24.89-1.1 8.72-2.22 17.43-3.31 26.15-.8 6.37-1.56 12.75-2.34 19.13-1.04 8.44-2.09 16.87-3.14 25.31-1.04 8.34-2.07 16.68-3.13 25.02-1.09 8.67-2.21 17.33-3.32 26-.39 3.05-.77 6.1-1.16 9.14-.05.42-.11.84-.2 1.26-.36 1.66-1.39 2.58-3.08 2.57-2.93-.02-5.86-.12-8.79-.19-.33-.01-.66-.04-.99-.04-7.14-.13-14.27-.25-21.41-.4-6.1-.13-12.19-.32-18.29-.48-5.01-.13-10.02-.22-15.03-.36-6.99-.2-13.98-.43-20.97-.63-2.74-.08-5.48-.12-8.22-.18-4.16-.09-8.32-.16-12.48-.26-7.04-.18-14.08-.38-21.12-.57-3.59-.1-7.18-.17-10.77-.26-7.7-.19-15.4-.39-23.11-.59-3.02-.08-6.05-.18-9.07-.24-6.99-.14-13.99-.25-20.99-.4-6.38-.14-12.76-.33-19.14-.49-4.58-.12-9.17-.21-13.75-.34-4.49-.13-8.97-.3-13.46-.44-3.07-.09-6.14-.16-9.22-.21-4.16-.08-8.32-.1-12.48-.2-6.85-.17-13.7-.4-20.55-.6-.9-.03-1.8 0-2.69-.04-2.47-.1-3.65-1.4-3.4-3.83.54-5.12 1.13-10.23 1.69-15.35.5-4.55.99-9.11 1.49-13.66.53-4.74 1.08-9.48 1.61-14.22.51-4.55 1.01-9.11 1.51-13.66.54-4.83 1.08-9.67 1.62-14.5.5-4.51 1-9.01 1.5-13.52.53-4.74 1.05-9.48 1.58-14.22s1.05-9.48 1.58-14.22c.51-4.55 1.03-9.1 1.53-13.66.62-5.54 1.23-11.08 1.85-16.61.72-6.43 1.46-12.86 2.18-19.29.6-5.4 1.18-10.79 1.79-16.19.71-6.38 1.44-12.76 2.15-19.15.53-4.79 1.04-9.58 1.59-14.36.61-5.39 1.26-10.79 1.87-16.18.52-4.6.98-9.2 1.49-13.8.53-4.74 1.11-9.47 1.63-14.21.51-4.6.98-9.2 1.49-13.8.52-4.69 1.09-9.38 1.61-14.07.52-4.6 1-9.2 1.5-13.8.22-2.07.41-4.13.67-6.2.22-1.77 1.51-2.92 3.26-2.94 2.22-.02 4.44 0 6.66 0 .02.12.02.22.02.33z" fill="#b2e5d4"/><path d="m130.01 109.03c4.29.03 7.82 3.63 7.8 7.93-.02 4.18-3.46 7.58-7.62 7.56-4.28-.03-7.91-3.65-7.9-7.87 0-4.22 3.48-7.65 7.72-7.62z" fill="#7b524b"/><path d="m370.8 123.22c0 4.22-3.45 7.61-7.7 7.59-4.17-.02-7.6-3.45-7.58-7.58.02-4.19 3.51-7.62 7.74-7.59 4.18.03 7.54 3.4 7.54 7.58z" fill="#7b524b"/><path d="m174.23 126c-4.16-.02-7.46-3.35-7.45-7.5.01-4.12 3.39-7.49 7.51-7.5 4.11-.02 7.52 3.36 7.53 7.47.01 4.18-3.38 7.55-7.59 7.53z" fill="#7b524b"/><path d="m270.83 127.33c-4.13.03-7.5-3.31-7.51-7.45-.01-4.09 3.25-7.42 7.33-7.49 4.13-.07 7.54 3.24 7.59 7.37.05 4.14-3.28 7.54-7.41 7.57z" fill="#7b524b"/><path d="m230.06 118.22c-.05 4.14-3.44 7.42-7.58 7.34-4.09-.08-7.34-3.41-7.32-7.47.03-4.14 3.39-7.45 7.53-7.42 4.13.03 7.42 3.4 7.37 7.55z" fill="#7b524b"/><path d="m322.24 121.31c.03 4.13-3.31 7.51-7.44 7.52-4.12.01-7.49-3.35-7.48-7.48 0-4.05 3.3-7.39 7.37-7.45 4.1-.07 7.52 3.29 7.55 7.41z" fill="#7b524b"/><path d="m240.07 102.62c-2.8-.09-5.29-.18-7.9-.27-.14-.53-.28-1.01-.38-1.5-.09-.42-.1-.84-.18-1.26-1.28-6.47-7.24-8.27-12.15-5.35-4.39 2.61-6.8 8.28-5.56 13.24.84 3.37 2.9 5.56 6.45 6.14.6.1 1.22.23 1.77.47 1.89.85 2.85 3 2.27 4.97-.6 2.02-2.57 3.34-4.69 3.07-6.56-.84-11.06-4.42-13.42-10.54-4.03-10.44 2.16-23.11 12.84-26.47 8.43-2.65 17.06 1.6 20.04 9.96.54 1.5.83 3.1 1.07 4.68.13.85-.08 1.75-.16 2.86z" fill="#f8d86f"/><path d="m381.46 106.72c-2.23 0-4.26.01-6.28-.01-.61-.01-1.21-.1-1.87-.15-.09-.38-.18-.69-.24-1-.16-.78-.25-1.59-.49-2.35-1.44-4.57-5.85-6.75-10.27-4.89-4.61 1.94-6.93 5.66-7.39 10.57-.16 1.71.06 3.4.79 4.99 1.15 2.49 3 4.08 5.76 4.52.33.05.65.11.97.18 2.27.55 3.7 2.56 3.36 4.71-.37 2.33-2.41 3.91-4.79 3.65-4.45-.48-8.15-2.41-10.88-5.96-3.73-4.86-4.66-10.37-3.15-16.24 1.72-6.73 5.7-11.67 12.2-14.34 8.66-3.55 18.08.65 21.25 9.46.54 1.5.81 3.1 1.09 4.68.12.7-.03 1.46-.06 2.18z" fill="#f8d86f"/><path d="m333.79 105.28c-2.86 0-5.45 0-8.1 0-.12-.5-.2-.86-.28-1.22-.2-.92-.31-1.88-.63-2.75-1.5-4.11-5.47-6.06-9.62-4.64-4.15 1.43-6.51 4.54-7.6 8.68-.55 2.1-.53 4.23.19 6.29 1.02 2.9 2.97 4.78 6.08 5.3.37.06.75.12 1.11.22 2.05.53 3.43 2.43 3.24 4.42-.21 2.17-1.95 3.9-4.16 3.89-1.21-.01-2.46-.21-3.62-.57-6.28-1.95-9.91-6.38-11.31-12.66-2.03-9.1 3.04-19.07 11.52-22.93 9.58-4.37 20 .55 22.69 10.74.29 1.09.45 2.22.58 3.35.08.61-.05 1.27-.09 1.88z" fill="#f8d86f"/><path d="m288.74 104.1c-2.68-.1-5.39-.2-8.07-.31-.25-1.09-.4-2.08-.71-3.02-1.45-4.39-5.61-6.41-9.97-4.89-5.87 2.05-9.33 9.66-6.97 15.42 1.08 2.64 2.99 4.32 5.87 4.79.33.05.65.11.97.18 2.27.54 3.67 2.52 3.37 4.71-.3 2.17-2.24 3.85-4.52 3.62-1.58-.16-3.2-.49-4.67-1.08-5.15-2.08-8.26-6.01-9.66-11.31-2.47-9.33 2.53-19.76 11.31-23.77 10.3-4.7 21.46 1.41 23.1 12.68.13.92.48 1.86-.05 2.98z" fill="#f8d86f"/><path d="m192.62 101.15c-2.86-.08-5.57-.15-8.35-.22-.08-.42-.13-.74-.21-1.04-.27-.95-.46-1.94-.86-2.84-1.56-3.4-4.91-5.07-8.54-4.14-4.64 1.19-7.17 4.48-8.38 8.93-.49 1.8-.51 3.65-.02 5.47.88 3.3 2.89 5.46 6.35 6.09.23.04.47.05.7.1 2.35.48 3.91 2.51 3.59 4.69-.34 2.37-2.43 3.99-4.88 3.72-3.59-.39-6.75-1.78-9.34-4.33-3.92-3.85-5.61-8.64-5.22-14.03.58-7.88 4.29-13.97 11.42-17.57 10.48-5.3 22.5 1.03 23.74 13.71.04.43 0 .84 0 1.46z" fill="#f8d86f"/><path d="m149.22 99.74c-2.9.33-5.61-.25-8.45-.12-.14-.58-.25-1.12-.4-1.65-.8-2.93-2.45-5.11-5.51-5.9-1.84-.48-3.66-.23-5.4.54-5.15 2.28-8.2 8.83-6.58 14.24.97 3.23 3.08 5.26 6.49 5.74 1.66.23 2.96.97 3.67 2.53 1.38 3.03-1.06 6.29-4.49 5.96-3.6-.35-6.76-1.77-9.35-4.3-3.85-3.76-5.56-8.45-5.25-13.74.45-7.77 4-13.86 10.9-17.61 10.17-5.53 21.76.07 23.98 11.46.2.9.26 1.84.39 2.85z" fill="#f8d86f"/><path d="m298.67 384.38c-5.48-.18-10.96-.37-16.44-.53-2.22-.07-4.44-.06-6.67-.12-5.91-.15-11.81-.32-17.72-.47-2.03-.05-4.07-.07-6.1-.11-9.26-.2-18.53-.38-27.79-.62-9.21-.23-18.43-.53-27.64-.78-4.68-.12-9.36-.18-14.04-.3-5.43-.13-10.87-.31-16.3-.45-1.99-.05-3.97-.05-5.96-.1-7.47-.17-14.93-.35-22.4-.54-6.99-.18-13.99-.38-20.98-.57-2.6-.07-5.2-.11-7.8-.19-.6-.02-1.25-.07-1.79-.31-1.04-.47-1.32-1.4-1.2-2.49.3-2.63.59-5.26.88-7.89.64-5.78 1.26-11.56 1.9-17.34.75-6.76 1.5-13.53 2.26-20.29 1-8.88 2.03-17.75 3.03-26.62.89-7.89 1.75-15.79 2.63-23.68.99-8.88 2-17.76 2.99-26.64.83-7.42 1.61-14.85 2.44-22.27 1-8.92 2.03-17.85 3.03-26.77.68-6.01 1.33-12.03 2.01-18.04.82-7.33 1.66-14.65 2.48-21.98.36-3.19.68-6.39 1.04-9.59.22-1.97 1.01-2.59 3-2.54 5.91.16 11.81.3 17.72.48 7.61.23 15.21.51 22.82.75 3.78.12 7.56.2 11.34.32 4.49.14 8.98.3 13.46.44 1.8.06 3.59.08 5.39.13 6.05.17 12.09.34 18.14.53 7.51.23 15.02.49 22.53.71 5.67.17 11.34.3 17.01.46 4.11.12 8.22.28 12.33.41 1.89.06 3.78.1 5.67.16 6.05.17 12.09.34 18.14.52 5.57.17 11.15.37 16.72.53 7.46.22 14.93.42 22.4.64 1.42.04 2.83.13 4.25.23 1.55.11 2.35.97 2.18 2.53-.3 2.87-.69 5.73-1.04 8.59-.82 6.62-1.64 13.23-2.47 19.85-.89 7.13-1.79 14.26-2.68 21.39-.63 5.07-1.24 10.14-1.87 15.2-1.31 10.46-2.63 20.92-3.94 31.38-1 7.93-2 15.85-2.98 23.78-.83 6.71-1.64 13.42-2.48 20.13-1.05 8.44-2.13 16.89-3.19 25.33-.83 6.61-1.62 13.23-2.45 19.85-1.31 10.46-2.64 20.92-3.96 31.38-.15 1.17-.27 2.35-.47 3.51-.29 1.69-1 2.28-2.71 2.24-4.92-.09-9.83-.21-14.75-.31.03.03.03.05.03.07z" fill="#f4fafa"/><g fill="#7b524b"><path d="m233.45 276.58h7.3c-.11 1.24-.16 2.36-.31 3.47-.84 6.52-1.86 13.01-3.37 19.41-.29 1.24-.28 1.28-1.57 1.3-1.64.03-3.28.01-5.07.01.17-1.7.35-3.36.55-5.4-.71.5-1.15.81-1.59 1.12-2.15 1.53-4.47 2.42-7.16 2.13-2.83-.31-4.7-1.83-5.67-4.47-.89-2.43-.85-4.94-.33-7.42.91-4.31 2.73-8.24 5.18-11.89.1-.15.25-.28.47-.53 1.66.54 3.36 1.08 5.19 1.67-.2.49-.35.87-.5 1.24-.93 2.48-1.9 4.93-2.76 7.43-.52 1.53-.62 3.16-.35 4.77.39 2.38 2 3.16 4.14 2 1.69-.92 2.79-2.39 3.59-4.09 1.32-2.78 1.75-5.77 2.01-8.8.07-.64.17-1.28.25-1.95z"/><path d="m283.28 291.81c1.49 3.21 2.91 6.28 4.41 9.5-2.59 1.05-4.98 2.01-7.53 3.04-.9-3.58-1.76-7.04-2.64-10.54-1.06 0-1.98 0-3.12 0-.4 2.66-.8 5.34-1.23 8.2-2.44-.04-4.81-.07-7.31-.32.21-1.05.38-1.97.58-2.88 1.21-5.73 2.24-11.5 2.82-17.34.08-.75.21-1.5.24-2.25.03-.7.38-1 1.02-1.13 3.56-.72 7.13-.96 10.67 0 1.16.32 2.31.87 3.31 1.55 3.16 2.15 3.88 6.05 1.72 9.22-.55.81-1.33 1.46-2.02 2.17-.26.27-.57.49-.92.78zm-8.17-4.18c1.61.06 2.95-.12 4.13-.89.67-.43 1.1-1.08 1-1.9-.11-.84-.72-1.3-1.49-1.53-1.05-.32-2.12-.35-3.31-.03-.1 1.39-.21 2.79-.33 4.35z"/><path d="m171.96 295.55c.22-1.1.41-2.02.6-2.94 1.19-5.55 2.39-11.09 3.57-16.64.54-2.53.6-2.63 3.15-2.92 2.21-.25 4.43-.39 6.64-.05.7.11 1.4.24 2.07.46 3.44 1.15 4.57 4.55 2.45 7.5-.62.87-1.46 1.58-2.25 2.43.37.2.73.39 1.09.58 2.38 1.28 3.31 3.52 2.48 6.11-.99 3.09-3.24 4.92-6.21 5.94-2.32.8-4.7.93-7.14.65-2.11-.23-4.2-.51-6.45-1.12zm8.87-9.21c-.23 1.48-.44 2.84-.65 4.21 1.47.46 2.71.32 3.86-.33.68-.38 1.17-.98 1.11-1.83-.05-.8-.59-1.26-1.25-1.59-.9-.46-1.87-.55-3.07-.46zm1.47-8.4c-.13 1.14-.62 2.24-.42 3.49 1.33.14 2.53-.02 3.49-.92 1.07-1 .72-2.31-.69-2.7-.78-.22-1.57-.33-2.38.13z"/><path d="m206.28 298.92c-.74-3.34-1.44-6.45-2.13-9.54-1.08 0-1.97 0-3.02 0-.47 2.58-.94 5.12-1.42 7.79-2.35 0-4.64 0-7.09 0 .21-1 .42-1.99.63-2.98 1.29-6.01 2.59-12.02 3.89-18.02.31-1.42.31-1.43 1.69-1.65 3.01-.47 6.03-.7 9.02-.01 1.31.3 2.65.79 3.79 1.49 2.98 1.85 3.56 4.8 1.79 7.87-.62 1.07-1.69 1.88-2.58 2.78-.26.26-.59.45-.99.75 1.22 2.77 2.44 5.51 3.72 8.41-2.48 1.05-4.81 2.04-7.3 3.11zm-4.16-15.35c.68 0 1.12.08 1.5-.02.9-.23 1.82-.45 2.66-.84.71-.33 1.12-1.04 1.01-1.87-.11-.82-.77-1.14-1.48-1.31-1-.24-2.02-.39-3.08.08-.19 1.26-.38 2.5-.61 3.96z"/><path d="m259.68 276.54c2.15 7.75 3.49 15.48 4.17 23.52-2.75.3-5.35.58-8.13.89-.07-1.45-.13-2.74-.19-4.19-2.38-.21-4.66-.41-7.03-.62-.76 1.34-1.5 2.65-2.31 4.09-2.37-.6-4.72-1.2-7.22-1.83.32-.55.51-.91.74-1.26 4.12-6.45 8.25-12.88 12.34-19.35.46-.72.96-1.03 1.82-1.03 1.88-.01 3.76-.14 5.81-.22zm-8.92 15.07h4.65c-.24-2.47-.46-4.82-.69-7.17-.11-.02-.22-.05-.33-.07-1.18 2.34-2.35 4.7-3.63 7.24z"/><path d="m168.4 295.96c-5.26-.19-10.44-.37-15.82-.57.47-2.84 1.12-5.47 1.66-8.12.53-2.64.98-5.29 1.51-7.93.54-2.68 1.13-5.35 1.73-8.17 5.55.21 10.99.41 16.7.62-.76 1.93-1.43 3.66-2.16 5.52-2.94.1-5.88-.41-8.9-.44-.45 1.08-.5 2.2-.59 3.47h6.87c-.02.47.01.79-.06 1.09-.26 1.05-.6 2.09-.82 3.15-.15.7-.5.92-1.19.88-1.32-.08-2.64-.11-3.96-.15-.51-.02-1.02 0-1.63 0-.19 1.23-.38 2.38-.58 3.68 3.04.35 6.01.03 9.13.38-.47 2.27-1.18 4.38-1.89 6.59z"/><path d="m301.87 305.49c-2.93-.21-5.63-.4-8.52-.61.17-.92.3-1.65.45-2.37.44-2.18.85-4.36 1.33-6.53.16-.74.07-1.39-.23-2.06-1.88-4.28-3.76-8.57-5.63-12.86-.19-.43-.39-.85-.58-1.26.85-.63 5.92-2.39 7.49-2.59 1.29 3.54 2.59 7.12 3.98 10.95 1.18-1.55 1.95-3.14 2.87-4.63.94-1.52 1.82-3.08 2.84-4.8 2.04 1.29 3.91 2.61 5.92 4.04-.36.52-.66.99-.99 1.42-2.4 3.16-4.79 6.34-7.24 9.47-.71.91-1.02 1.84-1.08 2.98-.14 2.88-.38 5.75-.61 8.85z"/><path d="m140.95 295.13c-2.67 0-5.11 0-7.73 0 .4-2.92 1.18-5.67 1.66-8.48.47-2.8.95-5.59 1.42-8.39.48-2.83.95-5.67 1.45-8.69 5.86.27 11.58.53 17.52.8-.26.75-.43 1.27-.62 1.78-.44 1.2-.88 2.4-1.32 3.59-.42 1.14-.43 1.15-1.57 1.06-2.12-.16-4.24-.34-6.36-.5-.51-.04-1.03-.06-1.72-.09-.17 1.3-.33 2.54-.52 3.97 1.9.04 3.66.08 5.61.12-.39 1.57-.74 2.96-1.1 4.41-1.69 0-3.28 0-5.04 0-.57 3.46-1.12 6.88-1.68 10.42z"/><path d="m241.45 223.17c5.44.53 10.69 1.05 16.03 1.57.14-.62.28-1.11.36-1.62 1.46-9.39 2.89-18.78 4.39-28.16.22-1.38.63-2.79 1.28-4.02 1.59-3.01 4.97-4.54 8.26-3.96 3.4.6 5.94 3.19 6.57 6.6.26 1.39.08 2.73-.13 4.09-1.43 9.3-2.89 18.59-4.33 27.88-1.38 8.87-2.74 17.75-4.12 26.62-.39 2.52-.79 5.04-1.19 7.56-.06.37-.16.73-.27 1.27-5.33-.39-10.63-.78-16.15-1.19.98-6.39 1.94-12.62 2.91-18.98-2.07-.21-3.99-.42-5.91-.61-5.74-.58-11.48-1.09-17.21-1.73-5.08-.57-8.59-5.05-7.86-10.14.7-4.86 1.61-9.7 2.43-14.54 1.48-8.66 2.95-17.33 4.46-25.99.24-1.39.52-2.8.94-4.14 1.24-4.01 5.16-6.35 9.18-5.56 4.05.8 6.9 4.57 6.34 8.78-.62 4.68-1.45 9.34-2.23 14-1.17 6.94-2.38 13.88-3.57 20.82-.06.43-.1.85-.18 1.45z"/><path d="m200.14 256.03c-5.43-.4-10.69-.78-16.16-1.19.78-5.91 1.7-11.63 2.56-17.36.85-5.69 1.69-11.38 2.31-17.18-.23.25-.48.49-.68.76-1.53 2.1-3.03 4.22-4.59 6.3-1.61 2.15-3.71 3.48-6.46 3.58-5.81.21-9.87-5.43-7.79-10.87.37-.96.91-1.87 1.51-2.71 8.04-11.16 16.11-22.3 24.17-33.45 1.13-1.57 2.47-2.86 4.32-3.54 5.32-1.96 10.84 1.86 10.85 7.61 0 1.87-.37 3.76-.65 5.62-1.28 8.6-2.58 17.19-3.88 25.79-1.67 11.12-3.35 22.24-5.02 33.36-.16 1.07-.32 2.13-.49 3.28z"/></g><path d="m216.08 327.51c1.3-1.02 2.48-2.04 3.75-2.92 5.02-3.47 10.51-5.57 16.7-5.46 3.55.06 6.95.7 9.96 2.78 2.32 1.6 4.13 3.61 5.12 6.27 1.31 3.49 1.68 7.07.79 10.73-1.06 4.38-3.17 8.17-6.34 11.38-3.08 3.12-6.53 5.75-10.4 7.8-3.97 2.1-7.95 4.18-11.98 6.17-4.33 2.15-8.64 4.3-12.39 7.41-.24.2-.55.34-.95.58-.41-.5-.83-.94-1.17-1.43-1.99-2.81-4.56-5.04-7.17-7.23-3.52-2.94-7.08-5.83-10.6-8.77-3-2.5-5.59-5.36-7.62-8.72-1.81-3-2.92-6.24-3.25-9.73-.49-5.13.8-9.79 3.94-13.84 2.43-3.14 5.76-4.86 9.69-5.32 5.12-.6 9.86.58 14.22 3.32 2.83 1.78 5.3 3.96 7.3 6.64.1.09.22.18.4.34z" fill="#ff7772"/></g><path d="m444.82 404.21c.26-.1.39-.2.51-.19 3.08.07 5.39-1.53 7.53-3.47 3.24-2.93 6.02-6.28 8.64-9.76 6.46-8.55 12.14-17.58 16.97-27.14 1.37-2.71 2.58-5.49 3.29-8.44 1.99-8.24.44-15.75-4.85-22.43-1.98-2.5-4.35-4.6-6.9-6.49-.22-.16-.47-.28-.8-.48-.29.45-.55.82-.78 1.22-1.6 2.64-3.45 5.09-5.84 7.08-2.48 2.07-5.27 3.5-8.5 3.96-.47.07-.94.12-1.41.13-6.21.16-8.68-5.12-7.33-9.48 1.5-4.84 4.98-7.71 9.77-8.99 3.37-.9 6.66-.28 9.83 1.07 1.08.46 2.14.99 3.37 1.57.25-.49.52-.96.74-1.45 2.86-6.37 4.86-13.01 6.17-19.86 1-5.22 1.54-10.48 1.42-15.79-.15-6.78-1.37-13.35-3.99-19.62-3.04-7.26-7.93-12.82-15.16-16.15-1.23-.57-2.55-.94-3.95-1.45-.2.67-.34 1.16-.48 1.65-1.63 5.79-4.04 11.21-7.95 15.85-2.53 3-5.47 5.49-9.09 7.09-2.28 1.01-4.65 1.55-7.16 1.43-3.42-.16-5.83-1.77-7.1-4.96-1.32-3.29-1.37-6.65-.25-10 2.06-6.2 6.46-10.1 12.45-12.32 5.44-2.02 11.07-2.27 16.78-1.53.28.04.55.06 1.03.12.24-1.22.53-2.39.71-3.58 2.12-14.24.37-27.99-5.34-41.21-2.7-6.24-7.07-11.02-12.91-14.46-2.51-1.48-5.2-2.51-8.14-2.71-3.98-.27-7.36.99-9.88 4.18-.53.67-1.01 1.36-.7 2.33.16.49-.09.94-.6 1.14s-.93 0-1.25-.4c-.51-.64-.67-1.41-.37-2.14.38-.9.8-1.84 1.42-2.59 2.8-3.42 6.5-4.9 10.87-4.79 3.19.08 6.14 1.04 8.91 2.56 6.65 3.64 11.58 8.9 14.65 15.85 3.73 8.44 5.74 17.27 6.31 26.48.4 6.37-.08 12.66-1.25 18.91-.04.23-.07.47-.1.7 0 .04.03.08.08.23.19.08.44.2.7.28 9.03 2.76 15.18 8.78 19.19 17.13 2.33 4.85 3.64 10.03 4.32 15.36 1.42 11.18-.2 22.05-3.39 32.76-1.16 3.9-2.58 7.71-4.32 11.39-.12.25-.22.51-.36.84.34.28.65.56.98.8 2.29 1.69 4.44 3.54 6.31 5.69 7.13 8.18 8.94 17.48 5.7 27.78-1.38 4.4-3.58 8.43-5.84 12.43-5.38 9.54-11.34 18.67-18.55 26.94-1.89 2.16-4.06 4.09-6.16 6.05-.68.64-1.54 1.09-2.36 1.57-1.09.64-2.28.92-3.54.79-.91-.11-1.62-.49-2.05-1.48zm6.42-156.61c-1.21-.13-2.23-.26-3.25-.35-4.74-.43-9.36.12-13.79 1.85-4.94 1.93-8.62 5.23-10.45 10.33-.97 2.71-1.03 5.46-.15 8.22.82 2.57 2.52 4.04 5.28 4.16.47.02.95.03 1.42-.01 3.32-.26 6.19-1.63 8.8-3.6 3.1-2.35 5.51-5.3 7.47-8.63 2.13-3.67 3.59-7.59 4.67-11.97zm16.01 76.92c-1.73-1.16-3.5-1.89-5.35-2.42-5.17-1.47-10.19.27-13.14 4.51-1.03 1.47-1.64 3.08-1.48 4.91.21 2.33 1.73 4.04 3.99 4.29.97.11 2 .1 2.95-.1 6.37-1.3 9.95-5.85 13.03-11.19z" fill="#f8d86f"/><path d="m35.9 242.45c2.84-.89 5.58-1.26 8.4-1.06 2.2.15 4.33.6 6.22 1.75.99.61 1.94 1.39 2.66 2.29 1.5 1.88 1.2 4.15-.69 5.64-2.24 1.77-4.82 2.33-7.62 1.72-2.53-.55-4.57-2.02-6.4-3.77-1.19-1.14-2.26-2.4-3.46-3.69-.23.07-.55.13-.83.26-7.34 3.5-12.31 9.1-14.92 16.79-1.08 3.18-1.03 6.42-.4 9.66 1.49 7.69 4.79 14.41 10.69 19.7 3.37 3.02 7.3 4.82 11.77 5.48 4.39.65 8.77.3 13.15-.14 1.45-.15 2.9-.3 4.35-.44.04.09.08.19.12.28-.28.16-.54.36-.83.48-2.74 1.09-5.59 1.72-8.52 2.06-3.94.46-7.84.23-11.67-.77-3.33-.87-6.35-2.43-9.01-4.63-6.26-5.17-9.88-11.92-11.9-19.68-2.24-8.62.21-16.04 5.63-22.73 2.66-3.28 5.97-5.76 9.71-7.7.41-.21.83-.44 1.3-.68-.12-.27-.19-.48-.3-.68-3.6-6.12-5.38-12.73-4.72-19.82.9-9.64 3.93-18.55 9.91-26.31 3.11-4.04 7.16-6.68 12.12-7.9.23-.06.46-.12.68-.2.09-.03.16-.1.3-.19-.07-.15-.12-.32-.23-.45-5.97-7.07-9.39-15.24-10.36-24.43-.95-9.03-.9-18.05.92-26.96 1.43-6.96 4.21-13.43 7.88-19.5.99-1.64 2.23-3.19 3.59-4.55 3.57-3.56 7.86-4.39 12.54-2.63 5.71 2.14 8.89 6.53 10.25 12.31.79 3.35.29 6.68-.63 9.94-.84 2.97-2.1 5.77-3.65 8.44-2.62 4.5-6.36 7.83-10.88 10.3-.98.54-2.08.88-3.17 1.2-.52.16-1.14.14-1.68.03-.28-.06-.63-.47-.68-.76-.05-.3.16-.72.4-.96.21-.21.6-.22.91-.34 1.23-.46 2.54-.78 3.67-1.42 6.4-3.57 10.36-9.13 12.54-16 .61-1.92 1.04-3.95 1.2-5.95.49-5.84-2.74-11.64-7.71-14.09-1.01-.49-2.11-.86-3.21-1.09-2.69-.56-5.16.04-7.34 1.74-1.9 1.48-3.3 3.37-4.52 5.41-2.44 4.08-4.25 8.44-5.82 12.9-1.91 5.41-2.56 11.03-2.81 16.72-.19 4.4-.15 8.79.22 13.18.7 8.28 3.2 15.91 8.16 22.65.67.91 1.45 1.75 2.12 2.66.73.98 1.57 1.22 2.81 1.06 2.48-.33 5.01-.4 7.45.36.76.24 1.5.58 2.18.99.84.51 1.46 1.25 1.32 2.33-.13 1.07-.89 1.68-1.82 1.97-.84.27-1.75.45-2.63.48-2.86.09-5.39-.95-7.61-2.67-.93-.72-1.76-.81-2.86-.57-5.45 1.17-9.66 4.11-12.87 8.63-3.61 5.1-5.85 10.78-7.32 16.79-1.16 4.72-1.67 9.49-.84 14.34.74 4.38 2.31 8.39 4.74 12.22zm1.38 1.97c2.07 2.54 4.14 4.64 6.96 5.83 2 .84 3.98.67 5.88-.3 2.11-1.08 2.27-2.51.44-4.05-.57-.48-1.23-.9-1.92-1.18-3.63-1.53-7.33-1.41-11.36-.3zm27.21-53.42c-1.29-1.19-4.56-1.72-6.85-1.11 1.74 1.54 5.02 2.08 6.85 1.11z" fill="#f8d86f"/><path d="m416.46 121.94c3.57-.5 6.6-2.01 9.25-4.34 2.65-2.32 4.54-5.16 5.71-8.55 1.16 7.4 4.71 12.97 11.96 15.96-7.72 1.3-12.45 5.89-15.24 12.86-.4-3.53-1.57-6.72-3.61-9.57-2.07-2.88-4.66-5.07-8.07-6.36z" fill="#f8d86f"/><path d="m56.35 373.09c-7.75 1.24-12.45 5.86-15.27 13.06-1.1-7.63-4.65-13.2-11.91-16.16 7.71-1.27 12.47-5.84 15.25-13.11 1.09 7.67 4.65 13.23 11.93 16.21z" fill="#f8d86f"/><g fill="#a2dae4"><path d="m433.86 327.93c-2.24-9.27-7.41-15.62-16.77-18.22 9.37-2.58 14.58-8.98 16.77-18.26 2.2 9.27 7.4 15.67 16.79 18.25-9.34 2.53-14.55 8.93-16.79 18.23z"/><path d="m48.89 326.44c-9.58 2.65-14.82 9.08-16.94 18.41-2.14-9.36-7.37-15.77-16.8-18.36 9.33-2.51 14.55-8.9 16.82-18.27.13.46.24.79.32 1.13 1.94 7.82 6.47 13.43 14.07 16.39.76.29 1.58.44 2.53.7z"/><path d="m62.01 206.71c2.05 7.4 6.32 12.58 13.93 14.71-7.63 2.13-11.91 7.31-13.87 15.02-1.94-7.63-6.2-12.87-14.08-15.07 3.83-.79 6.74-2.66 9.17-5.31 2.44-2.67 4.08-5.77 4.85-9.35z"/><path d="m416.95 151.49c1.2 3.7 3.42 6.27 7.3 7.63-3.93 1.35-6.12 4.01-7.3 7.93-1.2-3.92-3.37-6.59-7.32-7.92 3.92-1.38 6.13-4.02 7.32-7.64z"/><path d="m29.38 175.51c-1.18-3.66-3.4-6.29-7.33-7.64 3.91-1.37 6.16-3.96 7.29-7.96 1.22 3.88 3.35 6.6 7.33 7.93-3.85 1.4-6.14 3.95-7.29 7.67z"/><path d="m442.51 356.67c.98 2.8 2.55 4.72 5.38 5.74-2.79 1.06-4.42 2.92-5.38 5.84-.96-2.88-2.57-4.79-5.39-5.82 2.81-1.04 4.4-2.93 5.39-5.76z"/></g></g></g></svg>