<svg id="Слой_1" enable-background="new 0 0 500 500" height="512" viewBox="0 0 500 500" width="512" xmlns="http://www.w3.org/2000/svg"><g><path d="m498.95 453.71c-.18-.68-.4-1.34-.66-2l-19.32-48.5c-1.03-3.45-2.7-6.58-4.97-9.35-2.27-3.12-5.12-5.66-8.51-7.59-3.46-2.09-7.22-3.35-11.19-3.76-1.44-.24-2.9-.35-4.36-.35-2.75 0-5.5.42-8.17 1.26-.55.17-1.09.37-1.62.59l-2.85 1.2c-.75.32-1.47.68-2.17 1.09-.95.56-1.85 1.16-2.72 1.81 8.58-18.13 13.55-37.84 14.53-58.04 1.43-29.3-5.64-58.38-20.46-84.08-13.68-23.72-33.42-43.34-57.08-56.75-22.99-13.02-49.1-19.9-75.53-19.9-5.33 0-10.67.28-15.98.84-13.18-18.44-30.31-33.78-50.1-44.77-22.7-12.6-48.42-19.26-74.39-19.26-7.46 0-14.92.55-22.29 1.64l-5.06-15.21 4.6-1.68c.19-.07.37-.14.56-.22 3.88-1.57 7.24-3.91 10-6.97 2.74-2.71 4.83-5.91 6.23-9.55 1.55-3.73 2.23-7.62 2.04-11.61.06-4.26-.87-8.38-2.77-12.27-.25-.52-.53-1.02-.83-1.51l-1.61-2.63c-.42-.69-.9-1.36-1.41-1.99-3.25-3.98-7.32-6.98-12.09-8.91-.75-.3-1.53-.56-2.31-.76l-2.99-.76c-.8-.2-1.61-.35-2.43-.44-1.14-.13-2.3-.19-3.43-.19-3.94 0-7.8.77-11.47 2.28l-1 .37-2.64-7.92c-.12-.36-.25-.71-.39-1.06-1.57-3.88-3.91-7.24-6.97-10-2.71-2.74-5.91-4.83-9.55-6.23-3.31-1.37-6.79-2.07-10.34-2.07-.42 0-.84.01-1.26.03-.11 0-.23 0-.34 0-4.15 0-8.16.93-11.93 2.77-.52.25-1.02.53-1.51.83l-2.64 1.61c-.69.42-1.36.9-1.99 1.41-3.99 3.25-6.98 7.32-8.91 12.09-.3.75-.56 1.53-.76 2.31l-.76 2.99c-.2.8-.35 1.61-.44 2.43-.57 5.03.09 9.94 1.96 14.61l2.25 6.75-5.34 1.95c-.19.07-.37.14-.56.22-3.88 1.57-7.24 3.91-10 6.97-2.74 2.71-4.83 5.91-6.23 9.55-1.55 3.73-2.23 7.62-2.04 11.61-.06 4.26.87 8.38 2.77 12.27.25.52.53 1.02.83 1.51l1.61 2.64c.42.69.9 1.36 1.41 1.99 3.25 3.98 7.32 6.98 12.09 8.91.75.3 1.53.56 2.32.76l2.99.76c.8.2 1.61.35 2.43.44 1.14.13 2.3.19 3.43.19 3.94 0 7.8-.77 11.47-2.28l1.75-.64 4.92 14.79c-16.21 9.65-30.29 21.99-41.91 36.73-12.27 15.56-21.28 33.12-26.8 52.2-11.36 39.31-6.63 80.91 13.32 117.14.02.03.03.06.05.09 10.16 18.22 23.59 33.88 39.9 46.56 16.24 12.62 34.52 21.64 54.32 26.81 13.68 3.57 27.36 5.38 40.67 5.38 4.99 0 9.99-.26 14.95-.76 9.12 12.75 20.04 23.92 32.58 33.33 15.73 11.8 33.31 20.29 52.26 25.23 13.68 3.57 27.37 5.39 40.68 5.39 26.91 0 52.94-7.33 77.35-21.78 6.34-3.75 12.39-7.95 18.1-12.55-.72 1.59-1.29 3.26-1.71 5.01-.14.58-.25 1.18-.33 1.77l-.43 3.17c-.11.82-.16 1.64-.16 2.46.02 5.34 1.38 10.4 4.06 15.02.4.69.84 1.35 1.33 1.98l1.86 2.41c.48.62 1 1.21 1.56 1.77 3.69 3.66 8.1 6.23 13.11 7.64.76.21 1.53.38 2.32.49l51.59 7.38c2.17.48 4.37.73 6.57.73 2.63 0 5.28-.35 7.85-1.04.06-.02.13-.03.19-.05 5.01-1.4 9.42-3.97 13.11-7.64l.09-.09c3.66-3.69 6.23-8.1 7.64-13.11.02-.06.04-.13.05-.19 1.41-5.2 1.41-10.49.01-15.7zm-348.92-184.33c-9.73 26.27-11.99 54.64-6.79 81.94-5.63-.64-11.27-1.83-16.84-3.54-20.04-6.16-35.98-17.68-48.72-35.21-.21-.29-.44-.58-.67-.86-1.78-2.6-3.42-5.28-4.91-7.99-11.9-21.7-14.57-46.7-7.51-70.38 7.02-23.57 22.77-43.05 44.34-54.87 13.61-7.45 28.96-11.39 44.4-11.39 23.12 0 45.17 8.71 62.05 23.97-30.11 17.91-53.21 45.56-65.35 78.33zm52.4 68.32c-5.98-36.04 10.21-73.11 42.04-93.15 5.81 36.19-10.38 73.27-42.04 93.15zm163.29 42.94c-.85.88-1.64 1.82-2.36 2.81-7.14 8.16-15.6 14.95-25.15 20.19-3.31 1.81-6.77 3.45-10.29 4.85-.43.17-.86.34-1.3.5-.02.01-.03.01-.05.02-3.05 1.15-6.2 2.15-9.36 2.98-7.85 2.05-15.76 3.09-23.5 3.09-8.93 0-17.96-1.38-26.84-4.11-13.49-4.14-25.11-10.71-35.16-19.91 30.7-18.18 54.19-46.74 66.14-80.4 9.12-25.71 11.15-53.34 6.09-79.85 29.8 3.19 55.86 20.42 71.02 47.46 17.75 33.36 14.12 73.42-9.24 102.37z" fill="#fff"/><g><g><path d="m270.38 191.84c-31.12-53.97-93.69-78.39-151.34-63.15-3.72-11.17-7.43-22.33-11.15-33.5-1.5-4.51-3-9.02-4.5-13.53 2.4-.88 4.79-1.75 7.19-2.63 4.63-1.69 9.26-3.38 13.88-5.07 1.48-.6 2.71-1.5 3.69-2.72 1.16-1.02 2-2.28 2.53-3.76.66-1.48.9-3.01.74-4.59.11-1.62-.19-3.17-.92-4.67-.54-.88-1.08-1.76-1.61-2.63-1.32-1.61-2.94-2.81-4.87-3.59-1-.25-2-.51-2.99-.76-2.17-.25-4.26.07-6.26.95-6.29 2.3-12.59 4.6-18.88 6.9-.38-1.14-.76-2.27-1.13-3.41-2.46-7.38-4.92-14.77-7.37-22.15-.6-1.48-1.5-2.71-2.72-3.69-1.02-1.16-2.28-2-3.76-2.53-1.48-.66-3.01-.9-4.59-.74-1.62-.11-3.17.19-4.67.92-.88.54-1.76 1.08-2.63 1.61-1.61 1.32-2.81 2.94-3.59 4.87-.25 1-.51 2-.76 2.99-.25 2.17.07 4.26.95 6.26 2.66 8 5.33 16 7.99 24-2.64.97-5.28 1.93-7.93 2.9-4.63 1.69-9.26 3.38-13.88 5.07-1.48.6-2.71 1.5-3.69 2.72-1.16 1.02-2 2.28-2.53 3.76-.66 1.48-.9 3.01-.73 4.59-.11 1.62.19 3.17.92 4.67.54.88 1.08 1.76 1.61 2.63 1.32 1.61 2.94 2.81 4.87 3.59 1 .25 2 .51 2.99.76 2.17.25 4.26-.07 6.26-.95l19.62-7.17c3.62 10.88 7.24 21.76 10.87 32.65 1.58 4.76 3.17 9.52 4.75 14.28-2.97 1.38-5.92 2.87-8.83 4.48-65.18 36.05-89.27 117.72-52.72 184.1 18.1 32.44 48.12 55.58 83.02 64.7 36.67 9.58 71.64 4.85 104.27-14.47 62.73-37.13 85.5-118.49 47.9-183.69zm-63.95 164.44c-52.91 29.02-120.18 10.78-150.15-43.88-29.58-53.94-9.05-120.72 43.98-149.77 52.4-28.7 119.44-11.04 150.07 43.79 29.62 55.39 8.35 121.2-43.9 149.86z" fill="#f8d86f"/><path d="m63.08 323.18c14.79 20.36 34.02 34.48 58.02 41.86 19.93 6.12 40.05 6.5 60.22 1.23 40.79-10.67 71.55-43.25 80.15-83.85 4.98-23.51 2.55-46.34-7.27-68.26-9.82-21.93-25.41-38.73-46.09-50.98.14.02.29.03.43.07s.28.11.42.17c9.38 3.92 18.02 9.07 25.94 15.43 7.05 5.66 13.29 12.13 18.71 19.36 4.12 5.5 7.68 11.35 10.71 17.52 4.8 9.77 8.08 20.03 9.89 30.75 2.29 13.58 2.19 27.16-.39 40.69-4.8 25.15-16.46 46.63-34.81 64.47-5.69 5.53-11.9 10.4-18.62 14.63-20.24 12.76-42.28 18.99-66.22 18-22.35-.92-42.54-8.13-60.51-21.48-6.71-4.98-12.78-10.67-18.04-17.17-3.27-4.04-6.37-8.21-9-12.71-.76-1.3-1.59-2.56-2.3-3.89-.85-1.58-1.27-3.3-1.37-5.09-.01-.15-.01-.3 0-.45 0-.07.05-.14.13-.3z" fill="#eccf71"/><g><path d="m48.36 181.51c-2.69 2.58-4.71 5.74-6.01 9.22-.23.61-.08 1.48.22 2.04.32.58.95 1.12 1.6 1.28.67.17 1.43.15 2.04-.22.63-.38 1.02-.9 1.28-1.6.15-.39.31-.78.47-1.17-.09.21-.18.42-.27.63.74-1.66 1.67-3.22 2.79-4.64-.14.18-.29.36-.43.54.63-.79 1.31-1.54 2.04-2.24 1.01-.97 1.1-2.8.06-3.78-1.07-1-2.7-1.09-3.79-.06z" fill="#fff"/></g><g><path d="m38.82 200.54c.67 1.23 2.4 1.81 3.63 1.06 1.24-.75 1.78-2.32 1.06-3.63-.67-1.23-2.4-1.81-3.63-1.06-1.24.76-1.78 2.32-1.06 3.63z" fill="#fff"/></g></g><g><path d="m481.51 458.4c-2.56-6.42-5.12-12.84-7.67-19.26-2.56-6.42-5.12-12.84-7.67-19.26-1.45-3.63-2.89-7.26-4.34-10.89-.37-1.55-1.08-2.9-2.13-4.05-.84-1.3-1.95-2.32-3.34-3.07-1.37-.87-2.84-1.34-4.43-1.41-1.58-.35-3.17-.28-4.75.21-.95.4-1.9.8-2.85 1.2-1.79 1.06-3.22 2.48-4.27 4.27-.4.95-.8 1.9-1.2 2.85-.57 2.11-.57 4.22 0 6.34 1.12 2.82 2.25 5.64 3.37 8.45-3.47-2.34-6.94-4.69-10.41-7.03-8.17-5.51-16.34-11.03-24.51-16.54-.62-.42-1.23-.83-1.85-1.25 28.2-41.21 32.57-96.79 5.4-143.92-36.86-63.91-117.83-86.39-182.49-50.62-65.16 36.04-89.26 117.71-52.7 184.09 18.1 32.44 48.12 55.58 83.02 64.7 36.67 9.58 71.64 4.85 104.27-14.47 10.19-6.03 19.32-13.23 27.31-21.34 5.26 3.55 10.51 7.1 15.77 10.65 7.79 5.26 15.57 10.51 23.36 15.77-2.87-.41-5.75-.82-8.62-1.23-1.58-.5-3.17-.57-4.75-.21-1.59.07-3.06.54-4.43 1.41-1.39.75-2.5 1.77-3.34 3.07-1.05 1.15-1.76 2.5-2.13 4.05-.14 1.06-.28 2.11-.43 3.17.01 2.15.55 4.16 1.63 6.01.62.8 1.24 1.61 1.86 2.41 1.49 1.48 3.24 2.5 5.26 3.06 6.81.97 13.61 1.95 20.42 2.92 6.84.98 13.67 1.96 20.51 2.94 3.83.55 7.67 1.1 11.5 1.65 2.11.57 4.22.57 6.34 0 2.02-.57 3.77-1.59 5.26-3.06 1.48-1.49 2.5-3.24 3.06-5.26.54-2.13.54-4.24-.03-6.35zm-134.62-38.93c-52.91 29.02-120.18 10.78-150.15-43.88-29.58-53.94-9.05-120.72 43.98-149.77 52.4-28.7 119.44-11.04 150.07 43.79 22.45 41.98 15.66 89.93-11.68 123.17-.57.52-1.06 1.11-1.49 1.77-8.46 9.87-18.79 18.37-30.73 24.92z" fill="#f8d86f"/><path d="m203.54 386.37c14.79 20.36 34.01 34.48 58.02 41.86 19.93 6.12 40.05 6.5 60.22 1.23 40.79-10.67 71.55-43.25 80.15-83.85 4.98-23.51 2.55-46.34-7.27-68.26-9.82-21.93-25.41-38.73-46.09-50.98.14.02.29.03.43.07s.28.11.42.17c9.38 3.92 18.02 9.07 25.94 15.43 7.05 5.66 13.29 12.13 18.71 19.36 4.12 5.5 7.68 11.35 10.71 17.52 4.8 9.77 8.08 20.03 9.89 30.75 2.29 13.58 2.19 27.16-.39 40.69-4.8 25.15-16.46 46.63-34.81 64.47-5.69 5.53-11.9 10.4-18.62 14.63-20.24 12.76-42.28 18.99-66.22 18-22.35-.92-42.54-8.13-60.51-21.48-6.71-4.98-12.78-10.67-18.04-17.17-3.27-4.04-6.37-8.21-9-12.71-.76-1.3-1.59-2.56-2.3-3.89-.85-1.58-1.27-3.3-1.37-5.09-.01-.15-.01-.3 0-.45 0-.07.05-.14.13-.3z" fill="#eccf71"/><g><path d="m188.82 244.7c-2.69 2.58-4.71 5.74-6.01 9.22-.23.61-.08 1.48.22 2.04.32.58.95 1.12 1.6 1.28.67.17 1.43.15 2.04-.22.63-.38 1.02-.9 1.28-1.6.15-.39.31-.79.47-1.17-.09.21-.18.42-.27.63.74-1.66 1.67-3.22 2.79-4.64-.14.18-.29.36-.43.54.63-.79 1.31-1.54 2.04-2.24 1.01-.97 1.1-2.8.06-3.78-1.06-1-2.7-1.1-3.79-.06z" fill="#fff"/></g><g><path d="m179.28 263.73c.67 1.23 2.4 1.81 3.63 1.06 1.24-.75 1.78-2.32 1.06-3.63-.67-1.23-2.4-1.81-3.63-1.06-1.24.75-1.78 2.32-1.06 3.63z" fill="#fff"/></g></g></g></g></svg>