<svg id="Слой_1" enable-background="new 0 0 500 500" height="512" viewBox="0 0 500 500" width="512" xmlns="http://www.w3.org/2000/svg"><g><path d="m499.99 370.71c-.11-6.35-2.73-12-6.9-15.99.39-1.41.68-2.85.87-4.29.97-7.19-1.15-14.43-5.79-19.86-4.64-5.42-11.46-8.63-18.7-8.78-.2 0-.4-.01-.6-.01-1.76 0-3.52.16-5.38.5-2.53.46-4.67.69-6.51.71-2.23-1.51-4.65-2.72-7.25-3.63-1.06-.37-2.05-.7-3.01-1.01-1.11-.36-2.15-.71-3.03-1.03 0 0-.37-.14-.52-.19-2.16-1.48-4.28-3.04-6.31-4.62-.79-.62-1.54-1.43-2.22-2.41-7.93-11.43-13.47-22.46-16.93-33.72-2.12-6.89-4.79-12.92-8.12-18.32 1.88-4.1 2.41-8.74 1.46-13.32-.35-1.69-.89-3.32-1.63-4.93.51-.53 1.02-1.08 1.53-1.66 3.81-4.37 5.67-9.93 5.24-15.64-.3-4.1-1.76-7.94-4.18-11.17-.39-10.79-4.26-21-11.51-30.07-5.05-6.32-11.34-11.58-19.25-16.08-7.4-4.22-15.54-6.51-24.22-6.82 3.05-2.23 5.66-4.86 7.77-7.85 2.85-4.03 4.74-8.6 5.62-13.58.84-4.75.64-9.38-.6-13.78-1.38-4.91-3.96-9.27-7.66-12.95-4.55-4.53-10.4-7.55-16.93-8.73-1.51-.27-3.04-.45-4.56-.52-4.25-4.06-9.39-6.87-15.2-8.27-2.42-.58-4.87-.88-7.28-.88-1.35 0-2.68.09-3.99.27.52-2.13.84-4.28.96-6.44.28-5.17-.59-10.3-2.6-15.24-1.9-4.68-4.66-8.67-8.19-11.86-3.93-3.56-8.62-5.97-13.93-7.17-2.35-.53-4.77-.8-7.18-.8-4.29 0-8.57.84-12.71 2.51-1.82.73-3.56 1.59-5.23 2.59-2.62-.61-5.27-.91-7.93-.91-3.77 0-7.53.62-11.16 1.85-8.93 3.01-15.66 9.35-18.96 17.84-1.83 4.71-2.62 9.54-2.38 14.3-2.31-.85-4.77-1.29-7.29-1.29-4.88 0-9.66 1.71-13.46 4.83-2.03 1.67-3.7 3.66-5.01 5.96-6.68-1.47-13.83-2.32-21.67-2.59-.04 0-.07 0-.1 0-.94-.03-1.88-.04-2.8-.04-5.58 0-10.71.49-15.68 1.49-12.49 2.52-22.28 9.56-28.3 20.36-3.84 6.88-6.07 14.42-6.64 22.4-.62 8.6.36 16.56 1.5 23.89 1.81 11.62 4.39 23.03 6.68 32.65.5 2.09.94 4.24 1.32 6.44-.31.42-.62.84-.91 1.25-.67.93-1.24 1.79-1.7 2.48-.26.4-.63.94-.76 1.12-6.71 8.55-13.91 17.61-21.64 26.06-.89.97-1.78 1.93-2.67 2.9-4.17 4.52-8.48 9.19-12.58 14.42-6.02 7.69-12.16 16.07-18.77 25.62-4.34 6.27-8.41 12.64-12.34 18.9-.34.08-.67.15-1.01.23-2.61.6-5.21 1.17-7.97 1.76-4.14.9-8.42 1.83-12.74 2.89-6.09 1.5-10.96 2.4-15.35 2.83-4.78.47-8.91 1.7-12.65 3.75-7.84 4.28-12.46 12.2-12.35 21.14.09 7.28 3.12 13.87 8.54 18.56.38.33.81.71 1.26 1.12 1.3 1.16 2.82 2.52 4.63 3.9-.17.19-.34.37-.5.57-3.35 3.89-5.25 8.76-5.48 14.07-.11 2.49.06 5.03.51 7.55.3 1.68.61 3.28.92 4.83.31 1.6.61 3.1.86 4.54.88 5.11 1.81 10.55 2.62 16.03.2 1.31.35 2.81.51 4.41s.33 3.25.57 5.02c.34 2.55.83 5.13 1.5 7.91.48 2 1.09 3.64 1.49 4.73.08.23.2.54.23.64 1.73 5.32 4.58 9.97 8.47 13.82 4.92 4.87 11.38 7.56 18.19 7.56.78 0 1.58-.04 2.37-.11.3.12.59.23.86.33l.18.07c3.52 1.35 7.17 2.03 10.85 2.03 1.56 0 3.14-.13 4.7-.37 2.86.81 5.83 1.23 8.87 1.23 1.54 0 3.11-.11 4.69-.32 3.35.87 6.89 1.31 10.56 1.31 1.5 0 3-.07 4.6-.21 1.81-.16 3.55-.3 5.02-.3.61 0 1.14.03 1.58.08 3.73.43 7.68.63 12.07.63 2.51 0 5.14-.06 8.51-.21.46-.02.96-.03 1.52-.03 1.42 0 3 .06 4.67.13.51.02 1.01.04 1.52.06.19.01.71.07 1.09.11 1.01.11 2.26.25 3.73.32 1.21.05 2.43.11 3.64.16 6.19.28 12.59.57 18.99.74 1 .03 2.04.04 3.11.04 3.47 0 6.92-.14 9.7-.26l.8-.03c2.24-.09 4.36-.18 6.33-.18 1.84 0 3.37.08 4.67.25 2.8.36 5.58.54 8.25.54s5.33-.18 7.89-.54c3.08-.43 6.14-.9 9.09-1.41 2.53-.43 5.19-.83 7.42-.83.5 0 .96.02 1.39.06 2.5.24 5.1.36 7.73.36 5.53 0 11.38-.51 18.41-1.61 4.99-.78 8.97-1.25 12.52-1.48.45-.03.97-.04 1.58-.04 1.13 0 2.41.05 3.77.1 1.47.06 2.99.11 4.64.13.75.01 1.54.02 2.37.04 1.2.02 2.45.05 3.77.05 2.41 0 4.46-.09 6.43-.27 6.82-.64 13.44-1.56 19.84-2.45 3.42-.47 6.09-.7 8.39-.7 1.11 0 2.12.05 3.08.15 4.6.49 9.23.73 13.76.73 4.22 0 8.47-.21 12.63-.64 1.14-.12 2.26-.17 3.34-.17 2.58 0 4.98.33 7.34.99 5.15 1.46 10 2.35 14.84 2.74 2.13.17 4.31.25 6.64.25 3.98 0 7.73-.24 10.95-.47 2.72-.19 5.92-.39 9-.39 2.37 0 4.45.11 6.36.35 3.1.38 6.32.58 9.58.58 3.57 0 7.18-.22 11.03-.68 1.85-.22 3.64-.33 5.33-.33 1.18 0 2.34.05 3.45.16 2.67.26 5.4.38 8.13.38 1.01 0 2.04-.02 3.05-.05 3.4-.12 6.72-.32 9.93-.51 2.17-.13 4.22-.25 6.27-.35.42-.02.83-.04 1.25-.06 1.65-.08 3.2-.16 4.55-.16 1.29 0 2.28.07 2.93.22 2.06.46 4.15.7 6.23.7 5.65 0 11.16-1.73 15.92-5.01 2.9-2 5.26-3.82 7.41-5.73 2.76-2.45 4.98-5.46 6.8-9.22 1.34-2.77 2.07-5.39 2.6-7.57 1.04-4.26 1.61-8.65 1.74-13.41.75-2.97 1.12-5.96 1.11-8.92.47-2.67.4-5.06.12-7.04.48-2.3.95-4.66 1.39-7.06.58-3.24.85-6.48.79-9.65zm-260.62-17.31c-.09-.02-.18-.04-.26-.07.06-.06.13-.12.19-.18.01.08.04.17.07.25z" fill="#fff"/><g><g><path d="m283.12 157.17c.16-.22.24-.33.32-.44 1.05-1.53 2.38-2.72 4.11-3.42 1.26-.5 2.56-.67 3.89-.37 1.9.43 3.14 1.64 3.87 3.42.88 2.16.72 4.27-.3 6.34-.7 1.42-1.69 2.61-2.84 3.68-1.16 1.08-2.34 2.15-3.51 3.22-.92.85-1.84 1.72-2.54 2.78-.01.01-.02.02-.03.04-.37.48-.4.5-.9.12-1.18-.89-2.51-1.49-3.84-2.1-1.53-.69-3.07-1.37-4.58-2.13-1.62-.81-3.05-1.9-4.06-3.43-1.37-2.09-1.71-4.35-.8-6.71.58-1.49 1.73-2.45 3.24-2.96 2.08-.7 4.07-.41 5.99.55.62.31 1.17.73 1.75 1.11.08.07.13.18.23.3z" fill="#ff7772"/><g fill="#f4fafa"><path d="m274.93 163.19c.08.32.04.62-.11.91-.18.34-.42.44-.78.29-.48-.2-.77-.6-.99-1.03-.4-.78-.46-1.62-.37-2.48.02-.18.1-.37.21-.51.28-.36.76-.35 1.05-.01.06.07.12.15.15.24.27.79.53 1.57.79 2.36.04.08.04.16.05.23z"/><path d="m274.62 157.96c.05.38-.26 1.03-.59 1.21-.2.11-.42.15-.63.04-.21-.12-.29-.33-.28-.56.03-.44.2-.82.56-1.09.4-.3.87-.1.94.4z"/></g></g><g><path d="m268.98 79.63c.33-.45.5-.68.66-.91 2.14-3.12 4.86-5.57 8.41-6.99 2.57-1.03 5.25-1.36 7.96-.75 3.88.88 6.43 3.35 7.91 6.99 1.8 4.42 1.47 8.74-.62 12.98-1.43 2.9-3.45 5.34-5.81 7.52-2.38 2.21-4.79 4.39-7.18 6.6-1.89 1.75-3.76 3.52-5.2 5.68-.02.03-.04.05-.06.08-.76.98-.82 1.02-1.84.25-2.41-1.83-5.13-3.05-7.86-4.29-3.14-1.42-6.29-2.81-9.37-4.35-3.32-1.66-6.25-3.88-8.31-7.03-2.81-4.28-3.5-8.9-1.63-13.72 1.18-3.05 3.53-5 6.63-6.05 4.25-1.43 8.33-.83 12.25 1.12 1.26.62 2.4 1.49 3.58 2.27.19.11.29.34.48.6z" fill="#ff7772"/><g fill="#f4fafa"><path d="m252.24 91.94c.17.66.09 1.28-.23 1.87-.37.69-.86.89-1.6.58-.97-.41-1.57-1.22-2.02-2.11-.81-1.59-.94-3.32-.75-5.06.04-.36.21-.75.44-1.04.56-.74 1.55-.73 2.15-.01.12.15.25.31.31.48.55 1.61 1.08 3.22 1.62 4.83.05.14.06.31.08.46z"/><path d="m251.6 81.23c.1.78-.53 2.1-1.21 2.48-.41.23-.85.31-1.28.08-.44-.24-.6-.67-.57-1.14.06-.9.42-1.68 1.14-2.23.82-.63 1.78-.21 1.92.81z"/></g></g><g><path d="m331.12 122.91c.46-.19.69-.27.92-.37 3.08-1.33 6.27-1.88 9.6-1.28 2.41.44 4.58 1.45 6.32 3.19 2.5 2.49 3.24 5.55 2.64 8.97-.73 4.16-3.02 7.25-6.58 9.44-2.44 1.5-5.11 2.38-7.9 2.91-2.83.53-5.66 1.03-8.49 1.56-2.24.42-4.48.86-6.58 1.81-.03.01-.05.02-.08.03-1.03.38-1.1.38-1.5-.68-.94-2.51-2.41-4.71-3.87-6.92-1.68-2.54-3.39-5.07-4.97-7.68-1.7-2.81-2.86-5.85-2.92-9.19-.09-4.53 1.57-8.32 5.24-11.05 2.32-1.73 5.01-2.09 7.82-1.41 3.86.93 6.64 3.3 8.66 6.61.65 1.06 1.1 2.25 1.62 3.39.08.17.05.39.07.67z" fill="#ff7772"/><g fill="#f4fafa"><path d="m312.77 124.25c-.18.57-.54 1-1.05 1.29-.6.34-1.07.26-1.47-.31-.54-.76-.6-1.66-.52-2.54.14-1.58.85-2.93 1.82-4.15.2-.25.52-.46.82-.58.77-.29 1.51.19 1.62 1.01.02.17.04.35.01.51-.35 1.46-.7 2.92-1.07 4.38-.04.14-.11.27-.16.39z"/><path d="m317.33 115.92c-.29.63-1.39 1.33-2.07 1.29-.41-.02-.79-.17-1-.55s-.13-.78.11-1.12c.47-.65 1.1-1.06 1.91-1.13.91-.08 1.43.68 1.05 1.51z"/></g></g><path d="m419.01 391.93c.72-.52 1.48-1 2.15-1.58 2.08-1.81 4.12-3.68 6.19-5.5 3.85-3.39 7.85-6.58 12.14-9.39 1.17-.77 2.4-1.49 3.69-2.02 2.72-1.11 5.02-.34 6.38 2.26.87 1.67 1.49 3.51 1.97 5.34.63 2.37 1 4.81 1.51 7.22.14.67.37 1.32.65 2.25.81-.62 1.49-1.03 2.03-1.58 1.3-1.33 2.56-2.69 3.77-4.1 4.13-4.81 8.7-9.18 13.47-13.35.68-.59 1.4-1.15 2.12-1.69.4-.3.84-.56 1.29-.77 1.86-.84 3.46.01 3.49 2.04.03 1.89-.13 3.82-.47 5.68-.74 4.1-1.64 8.16-2.5 12.37 1.11.51 1.26 1.39.72 2.62-.24.55-.12 1.29-.07 1.93.11 1.62-.07 3.19-.47 4.77-.34 1.35-.56 2.76-.59 4.15-.08 3.18-.43 6.31-1.18 9.4-.3 1.21-.62 2.45-1.16 3.57-.51 1.06-1.17 2.16-2.04 2.93-1.72 1.53-3.58 2.91-5.48 4.22-1.89 1.3-4 1.77-6.31 1.25-4.67-1.05-9.39-.69-14.1-.46-5.31.25-10.62.67-15.94.85-2.85.1-5.73.02-8.57-.25-4.38-.42-8.72-.3-13.07.22-5.26.62-10.51.76-15.77.11-6.42-.79-12.82-.52-19.24-.07-4.86.34-9.71.62-14.59.23-3.72-.29-7.37-1.02-10.94-2.04-5.98-1.69-12.02-2.1-18.19-1.48-7.41.75-14.83.7-22.25-.09-5.47-.58-10.92-.13-16.36.62-6.31.88-12.63 1.75-18.97 2.35-3.48.33-7.02.12-10.53.1-3.81-.03-7.64-.39-11.43-.14-4.8.31-9.59.94-14.34 1.68-7.02 1.1-14.03 1.77-21.14 1.1-4.73-.45-9.42.18-14.08.97-2.82.48-5.65.92-8.48 1.31-3.6.5-7.22.43-10.81-.03-5.06-.64-10.12-.38-15.19-.17-3.81.16-7.63.31-11.44.21-7.43-.2-14.85-.56-22.27-.89-1.65-.07-3.3-.37-4.95-.43-3.11-.11-6.22-.29-9.33-.16-5.83.25-11.64.35-17.44-.32-3.57-.41-7.12-.14-10.67.18-3.09.27-6.12.17-9.09-.75-2-.62-4.03-.77-6.1-.39-2.73.51-5.39.38-7.95-.81-1.12-.52-2.32-.59-3.54-.38-1.14.19-2.29.31-3.43.5-1.78.29-3.5.06-5.18-.58-.98-.38-1.97-.75-2.93-1.19-1.75-.81-3.56-.99-5.44-.69-.5.08-.99.15-1.49.21-1.87.22-3.45-.37-4.79-1.69-1.64-1.62-2.78-3.54-3.49-5.73-.42-1.29-.98-2.53-1.29-3.84-.47-1.95-.86-3.92-1.12-5.91-.43-3.23-.64-6.5-1.13-9.72-.82-5.5-1.75-10.98-2.7-16.47-.55-3.17-1.24-6.31-1.8-9.47-.18-1.03-.27-2.1-.22-3.15.1-2.29 1.85-3.16 3.77-1.88.75.49 1.41 1.13 2.05 1.77 4.72 4.74 9.13 9.74 13.05 15.17 1.53 2.12 3.09 4.21 4.7 6.26.64.82 1.39 1.59 2.21 2.25.99.8 1.71.66 2.34-.46.49-.86.88-1.81 1.15-2.77.58-2.08 1.03-4.19 1.6-6.28.34-1.26.72-2.52 1.24-3.71 1.02-2.34 3.07-2.86 4.97-1.15 1.25 1.13 2.4 2.46 3.3 3.88 1.67 2.62 3.13 5.38 4.67 8.08.4.69.77 1.4 1.19 2.15.64-.3.73-.88.89-1.36 1.2-3.51 2.4-7.03 3.55-10.56 1.03-3.15 1.97-6.33 2.98-9.48.31-.95.64-1.92 1.12-2.79.94-1.71 2.79-2.02 4.14-.62.82.85 1.55 1.88 2.02 2.96 1.37 3.12 2.71 6.27 3.84 9.48 2.07 5.93 3.97 11.91 6.62 17.61 1.12 2.41 2.35 4.77 3.6 7.12.38.72.99 1.33 1.52 2.02 1.16-.81 1.66-1.87 2.2-2.87 1.69-3.1 2.88-6.41 3.86-9.79 2.03-6.99 3.99-14 6-21 .41-1.45.86-2.89 1.33-4.32.17-.52.38-1.05.66-1.51.88-1.45 2.58-1.62 3.64-.29.58.73 1.02 1.62 1.36 2.49.74 1.87 1.39 3.77 2.06 5.66 1.84 5.21 3.66 10.42 5.51 15.62.28.79.67 1.54 1.13 2.59.48-.58.84-.96 1.13-1.38.84-1.19 1.63-2.41 2.48-3.59.32-.45.69-.87 1.1-1.23 1.27-1.1 2.61-1.2 4.01-.27.57.38 1.11.88 1.52 1.43.75 1 1.4 2.08 2.1 3.12.3.45.61.88 1.07 1.54.63-1.19 1.2-2.12 1.64-3.12 1.53-3.55 2.97-7.14 4.54-10.67 1.18-2.66 2.46-5.28 3.76-7.88.42-.85.95-1.67 1.58-2.37 1.31-1.45 3.19-1.25 4.14.44.48.86.89 1.83 1.05 2.8.66 3.96 1.25 7.93 1.8 11.9.64 4.68 1.2 9.36 1.8 14.04.05.38.17.76.29 1.27.72-.49.98-1.16 1.25-1.76 1.42-3.16 2.91-6.29 4.16-9.52 2.52-6.51 4.9-13.07 7.37-19.6.67-1.78 1.43-3.54 2.23-5.27.33-.72.78-1.43 1.32-1.99 1.08-1.11 2.67-.94 3.46.39.48.81.82 1.74 1.01 2.66.57 2.75 1.08 5.52 1.52 8.29 1.28 8.18 2.16 16.43 3.93 24.53.31 1.42.67 2.83 1.01 4.25.03.13.16.24.38.57.39-.76.74-1.39 1.03-2.04 1.68-3.87 3.28-7.77 5.04-11.61 1.32-2.87 2.81-5.66 4.28-8.46.42-.79.96-1.54 1.57-2.2 1.5-1.62 3.48-1.72 5.05-.16.84.83 1.6 1.84 2.11 2.9 1.25 2.62 2.32 5.34 3.49 8 .4.9.87 1.77 1.44 2.92.73-.76 1.34-1.26 1.8-1.89 1.21-1.66 2.32-3.4 3.53-5.06 1.72-2.35 3.48-4.67 5.28-6.95.58-.74 1.3-1.41 2.06-1.97 1.79-1.31 3.61-1.16 5.15.42.62.64 1.22 1.37 1.61 2.16.92 1.89 1.78 3.82 2.52 5.79 1.14 3.06 2.15 6.16 3.23 9.24.26.75.62 1.46 1.07 2.49.59-.86 1.09-1.47 1.45-2.14 1.28-2.39 2.5-4.81 3.76-7.21 2.85-5.45 6.26-10.53 10.03-15.37.67-.87 1.42-1.71 2.25-2.42 1.76-1.48 3.73-1.28 5.13.54.69.9 1.23 1.95 1.7 3 1.57 3.56 2.36 7.35 3.27 11.11.79 3.27 1.55 6.55 2.37 9.81.24.96.61 1.89.95 2.91.98-.41 1.44-1.15 1.86-1.85 1.5-2.49 2.88-5.06 4.41-7.54 2.5-4.06 5.04-8.09 7.63-12.1.73-1.13 1.61-2.19 2.55-3.16 2.51-2.6 5.2-2.53 7.42.34 1.25 1.61 2.35 3.41 3.14 5.28 1.31 3.09 2.33 6.3 3.44 9.48.73 2.08 1.37 4.2 2.1 6.28.28.79.55 1.62 1.32 2.16 1.08-.53 1.66-1.5 2.17-2.45 1.09-2.04 2.15-4.09 3.07-6.2 3.95-9.02 8.44-17.78 13.17-26.41.58-1.06 1.21-2.09 1.85-3.1.32-.51.69-.99 1.1-1.43 2.15-2.35 4.55-1.94 5.7 1.01 1.03 2.64 1.38 5.44 1.72 8.24 1.02 8.53 1.99 17.06 3 25.58.28 2.39.63 4.78.96 7.17.06.43.19.86.35 1.56.54-.62.94-1.04 1.29-1.51 2.28-2.99 4.5-6.04 6.85-8.98 1.63-2.03 3.38-3.98 5.2-5.85.9-.91 2.01-1.69 3.16-2.26 2.1-1.04 3.86-.28 4.76 1.89.93 2.27 1.01 4.7 1.23 7.1.13 1.48.22 2.96.62 4.56.33-.41.68-.79.98-1.22 1.45-2.11 2.86-4.25 4.35-6.33 1.29-1.79 2.64-3.55 4.04-5.25.63-.76 1.4-1.47 2.23-2 1.68-1.08 3.55-.67 4.56 1.05.6 1.02 1.12 2.19 1.28 3.34.41 2.98.66 5.98.85 8.98.15 2.4.11 4.82.16 7.23.01.49.07.98.13 1.74.47-.45.77-.68.99-.96 1.8-2.29 3.62-4.57 5.39-6.88 4.81-6.29 10.25-11.97 16.2-17.18.83-.73 1.7-1.41 2.58-2.08.52-.39 1.07-.75 1.64-1.06 3.03-1.64 5.4-.73 6.17 2.62.51 2.23.65 4.56.78 6.86.15 2.45.05 4.92.15 7.38.05 1.24.27 2.47.41 3.7.15.12.29.18.43.23z" fill="#85ab76"/><path d="m256.41 321.17c-1.23 1.08-2.13 1.96-3.11 2.73-2.8 2.21-5.74 2.39-8.8.49-3.91-2.43-6.88-5.62-8.42-10.06-1.49-4.3-2.4-8.71-2.85-13.22-.53-5.35-.82-10.71-.7-16.09.14-6.44.93-12.81 2.16-19.13 1.4-7.19 2.85-14.37 4.32-21.55 1.69-8.27 4.1-16.35 6.59-24.41 1.36-4.41 2.82-8.79 4.5-13.09.94-2.41 2.28-4.69 3.68-6.88 1.41-2.2 3.62-3.27 6.25-3.35 2.06-.06 3.3.81 3.99 2.75 1.53 4.3 3.01 8.61 4.58 12.89 4.58 12.56 10.27 24.64 15.79 36.8 3.06 6.73 5.38 13.73 7.81 20.7 4.75 13.66 8.7 27.56 12.67 41.46 1.66 5.83 3.83 11.52 5.78 17.27.58 1.71 1.18 3.41 1.77 5.12 1.62 4.71 3.61 9.25 5.99 13.63 1.22 2.25 2.29 4.58 3.45 6.86 1.19 2.33.9 4.52-.38 6.73-2.2 3.8-5.33 6.01-9.81 6.25-3.14.17-6.22-.09-9.24-.93-3.06-.85-5.72-2.42-7.97-4.66-3.6-3.56-6.65-7.52-8.6-12.24-.17-.41-.39-.8-.72-1.45-.3.69-.52 1.15-.72 1.63-1.44 3.48-3.43 6.6-6.3 9.07-1.09.94-2.32 1.76-3.6 2.43-1.68.88-3.48.85-5.26.18-1.87-.71-3.42-1.9-4.75-3.37-3.34-3.7-5.49-8.04-6.62-12.85-1.58-6.69-2.07-13.48-1.68-20.34.05-1.02.12-2.05.2-3.37z" fill="#75544d"/><path d="m205.09 397.16c3.12 1.46 6.04 2.8 8.93 4.18.85.41 1.68.91 2.45 1.46.86.61 1.11 1.33.86 2.06-.26.77-1.02 1.28-2.04 1.22-.69-.04-1.4-.18-2.05-.42-2.31-.84-4.59-1.75-6.88-2.63-.6-.23-1.2-.48-2-.8-.25 1.26-.48 2.41-.69 3.57-.18.99-.29 1.99-.5 2.97-.22 1.01-.81 1.53-1.59 1.54-.77.01-1.47-.51-1.64-1.49-.26-1.53-.4-3.08-.52-4.63-.07-.89-.01-1.8-.01-2.77-1.13-.1-2 .44-2.9.79-2.2.84-4.38 1.74-6.57 2.6-.37.15-.75.29-1.14.39-.68.18-1.3.05-1.77-.52-.46-.57-.49-1.25-.16-1.84.28-.51.69-1 1.17-1.33.91-.62 1.87-1.18 2.86-1.66 2.7-1.33 5.41-2.62 8.3-4 0-.51.01-1.04 0-1.58-.23-14.1-.45-28.2-.7-42.3-.02-1.35-.22-2.7-.26-4.05-.08-2.59.9-3.59 3.52-3.51 1.9.06 3.8.28 5.7.4.95.06 1.91 0 2.86.06 1.51.09 2.19.9 1.96 2.39-.8 5.26-1.65 10.5-2.45 15.76-.98 6.45-1.94 12.9-2.86 19.35-.62 4.32-1.16 8.65-1.73 12.98-.09.62-.11 1.27-.15 1.81z" fill="#75544d"/><path d="m167.67 397.54c2.9 1.31 5.65 2.52 8.37 3.78 1 .46 1.99.96 2.9 1.58.55.38 1.09.93 1.36 1.53.57 1.28-.45 2.47-1.84 2.23-.44-.08-.87-.24-1.29-.4-2.21-.81-4.41-1.65-6.62-2.44-.88-.32-1.78-.56-2.72-.85-.1 2.09-.18 4.04-.28 5.98-.03.55-.07 1.11-.21 1.64-.24.96-.88 1.5-1.65 1.5-.78 0-1.36-.5-1.59-1.53-.41-1.86-.76-3.73-1.14-5.6-.05-.23-.14-.46-.26-.82-.62.25-1.16.47-1.7.69-2.36.98-4.7 2-7.08 2.93-.69.27-1.45.42-2.19.46-.94.06-1.68-.46-1.91-1.18-.27-.83.08-1.48.71-1.99.47-.38.96-.75 1.49-1.01 3.05-1.52 6.11-3 9.17-4.49.18-.09.36-.16.7-.31-.17-1.37-.28-2.76-.51-4.12-1.2-7.22-2.43-14.44-3.66-21.65-1.14-6.62-2.29-13.24-3.45-19.85-.23-1.28-.51-2.56-.78-3.83-.43-2.03.19-2.82 2.21-2.95 2.3-.15 4.59-.39 6.89-.56.85-.06 1.71-.1 2.55 0 1.33.16 1.96.79 2.21 2.1.11.58.1 1.2.1 1.8-.07 5.87-.25 11.74-.21 17.61.07 9.33.29 18.66.44 27.99 0 .54-.01 1.09-.01 1.76z" fill="#75544d"/><path d="m176.79 115.73c7.96.27 15.79 1.24 23.45 3.53 9.82 2.94 18.46 7.94 26.41 14.35 16.76 13.51 28.49 30.47 35.4 50.83 3.25 9.58 5.54 19.38 7.01 29.39 1.09 7.43 1.53 14.88 1.11 22.38-.3 5.32-1.1 10.58-2.08 15.81-1.76 9.43-3.87 18.78-6.94 27.88-4.76 14.1-10.96 27.52-19.57 39.71-7.82 11.06-16.95 20.89-28.05 28.77-8.52 6.05-17.77 10.71-27.47 14.55-10.11 4.01-20.46 7.1-31.19 8.95-8.22 1.42-16.47 2.52-24.83 2.49-7.05-.03-14.02-.9-20.95-2.1-8.86-1.53-17.59-3.61-26.19-6.22-5.1-1.54-9.99-3.65-14.78-5.97-6.46-3.13-13.07-5.97-19.17-9.78-7.11-4.44-14.13-9.01-21.1-13.67-2.2-1.47-4.12-3.35-6.13-5.09-1.07-.93-1.58-2.16-1.6-3.6-.02-1.52.63-2.58 1.94-3.31 1.53-.84 3.21-1.18 4.9-1.35 6.16-.6 12.19-1.84 18.19-3.31 6.77-1.67 13.61-3.02 20.41-4.59 5.67-1.3 11.44-2.33 16.94-4.16 14.01-4.63 26.72-11.67 37.85-21.47 5.52-4.86 10.55-10.18 15.18-15.88.51-.62 1-1.26 1.45-1.92 8.35-12.1 14.25-25.21 16.66-39.81 1.03-6.26 1.82-12.54 1.34-18.89-.56-7.26-1.61-14.47-3.29-21.56-2.45-10.3-4.74-20.64-6.37-31.11-1-6.41-1.78-12.85-1.31-19.35.36-4.96 1.7-9.65 4.15-14.03 3.27-5.85 8.25-9.14 14.71-10.44 4.6-.9 9.25-1.16 13.92-1.03z" fill="#f8d86f"/><path d="m380.47 399.66c-18.43-.09-35.95-3.93-52.35-12.47-7.67-4-15.03-8.5-21.68-14.07-11.85-9.91-20.25-22.13-24.78-36.99-2.17-7.13-3.73-14.36-4.6-21.75-.74-6.29-1.2-12.59-1.36-18.91-.17-6.79.49-13.54 1.18-20.28.74-7.19 1.89-14.31 3.54-21.36 3.25-13.83 8.35-26.91 15.7-39.09 3.39-5.61 7.34-10.79 11.82-15.56 5.58-5.93 12.09-10.54 19.53-13.83 7.14-3.16 14.49-5.61 22.28-6.59 7.58-.96 14.8.05 21.52 3.88 5.15 2.94 9.78 6.51 13.49 11.17 6.54 8.18 8.63 17.34 6.08 27.57-1.93 7.74-4.82 15.09-8.51 22.14-2.54 4.84-5.2 9.62-7.79 14.44-.25.47-.4 1.02-.46 1.55-.46 4.1-.01 8.13 1.14 12.06.8 2.74 1.85 5.41 2.9 8.07 1.43 3.64 2.98 7.24 4.43 10.87 5.59 14.03 14.21 25.93 25.45 35.93 7.2 6.4 15.64 10.64 24.86 13.37 6.14 1.82 12.41 2.83 18.8 3.08 1.05.04 2.1.14 3.15.19 4.13.19 8.21-.26 12.27-1 .64-.12 1.3-.19 1.94-.18 3.21.07 5.41 2.67 4.98 5.84-.25 1.87-.92 3.59-1.86 5.21-1.71 2.95-3.48 5.88-5.11 8.87-2.02 3.7-4.92 6.54-8.28 8.98-3.25 2.36-6.54 4.67-9.74 7.08-6.35 4.77-13.4 8.24-20.65 11.36-10.42 4.49-21.25 7.55-32.46 9.25-1.83.28-3.68.51-5.53.64-3.29.23-6.59.36-9.9.53z" fill="#f8d86f"/><g fill="#75544d"><path d="m123.4 335.41c-.2.89-.34 1.46-.47 2.03-1.18 5.55-3.25 10.76-6.08 15.66-2.58 4.46-6.18 7.9-10.9 10.05-1.26.57-2.66.91-4.03 1.16-2.68.48-5.08-.28-7.13-2.05-3.18-2.75-5.19-6.22-6.25-10.26-.17-.63-.32-1.26-.49-1.89-.01-.04-.08-.06-.27-.18-.52.52-1.05 1.09-1.61 1.63-3.99 3.83-8.63 6.55-13.99 7.91-1.59.4-3.28.52-4.92.53-4.41.02-8.68-.84-12.76-2.55-3.34-1.4-5.5-3.94-6.87-7.23-.77-1.85-.59-3.53.85-5 1.34-1.36 2.61-2.79 4.04-4.06 4.38-3.9 8.12-8.34 11.49-13.11 4.03-5.7 8.42-11.12 12.14-17.06 4.82-7.7 9.64-15.42 14.81-22.89 5.8-8.38 11.78-16.64 18.07-24.66 4.42-5.64 9.4-10.85 14.25-16.15 7.97-8.72 15.34-17.93 22.62-27.22 1.05-1.34 1.92-2.83 2.92-4.21 1.12-1.54 2.25-3.07 3.45-4.54 1.22-1.49 2.86-1.82 4.64-1.23 3.32 1.11 5.6 3.39 6.59 6.72.73 2.44 1.26 4.97 1.56 7.5.62 5.19.72 10.42.58 15.65-.18 6.63-.23 13.26-.6 19.87-.35 6.06-.98 12.11-1.63 18.15-.66 6.19-1.42 12.37-2.28 18.54-1.13 8.1-3.41 15.89-6.65 23.4-2.03 4.71-4.27 9.29-7.3 13.48-3.1 4.28-7.19 6.85-12.32 7.99-4.1.91-7.31-.26-9.79-3.59-.52-.68-.98-1.39-1.67-2.39z"/><path d="m430.23 351.87c-.04.33-.08.48-.07.62.3 4.06-2.12 7.3-6.05 8.05-1.64.31-3.29.3-4.93-.14-2.72-.73-5.37-1.64-7.82-3.07-.2-.12-.43-.2-.77-.35.15.96.28 1.8.42 2.63.38 2.23-.32 4.04-2.09 5.46-4.56 3.68-9.7 4.93-15.39 3.57-8.46-2.02-16.43-5.19-23.61-10.21-6.31-4.41-10.68-10.19-12.82-17.66-2.48-8.69-3.35-17.5-2.69-26.51.97-13.14 3.96-25.86 7.73-38.43 1.04-3.46 2.02-6.94 3.52-10.23 1.06-2.32 2.27-4.58 3.46-6.84.96-1.83 2.65-2.89 4.46-3.62.91-.37 2.07-.29 3.09-.17 2.18.27 4.12 1.2 5.88 2.52 3.21 2.39 5.87 5.31 8.19 8.55 3.54 4.96 5.95 10.45 7.72 16.24 4.36 14.19 11.2 27.13 19.63 39.28 1.79 2.58 3.9 4.87 6.36 6.79 2.68 2.1 5.45 4.11 8.28 6.01 1.19.8 2.59 1.31 3.94 1.82 2.11.79 4.28 1.43 6.41 2.18 1.43.5 2.73 1.25 3.86 2.28 1.42 1.3 1.85 2.87 1.12 4.64-1.6 3.86-4.42 6.27-8.62 6.88-3.03.44-6.08.54-9.21-.29z"/><path d="m219.03 130.74c.52-.07.82-.08 1.1-.16 5.04-1.57 10.27-2.25 15.44-3.23 1.43-.27 2.87-.45 4.31-.66.15-.02.3-.03.45-.03.68-.01 1.46-.24 1.85.58.27.57-.1 1.05-1.21 1.62-4.42 2.27-8.86 4.48-13.25 6.8-2.88 1.52-5.67 3.2-8.51 4.8-.79.44-1.57.9-2.4 1.24-1.04.42-1.6.25-2.19-.67-1.68-2.62-3.34-5.25-4.95-7.9-.57-.93-.63-1.97-.21-3.03 1.17-2.99 2.46-5.94 3.43-8.99 1.26-3.96 2.26-8 3.4-12 .13-.46.31-1.01.65-1.29.7-.57 1.66-.12 1.75.81.1 1.05.11 2.1.12 3.16.01 4.92-.01 9.84.02 14.75-.02 1.32.11 2.66.2 4.2z"/><path d="m389.91 250.3c-.24-.09-.58-.19-.9-.32-5.32-2.23-10.64-4.46-15.94-6.71-1.51-.64-1.69-1.26-.8-2.68 2.11-3.36 4.24-6.7 6.4-10.02.94-1.44 1.87-1.41 2.7.07 3.21 5.73 6.4 11.48 9.59 17.23.17.3.32.63.39.97.2.93-.4 1.57-1.44 1.46z"/><path d="m355.01 401.55c-.71.82-1.32 1.54-1.95 2.23-.6.67-1.25 1.3-1.83 1.99-.85 1.01-1.4 1.13-2.43.46-.94-.61-1.2-1.59-.67-2.59.11-.2.24-.39.56-.9-1.79.54-3.25 1.01-4.72 1.42-.91.25-1.84.44-2.77.58-.7.1-1.29-.14-1.57-.86-.26-.68.05-1.23.56-1.57 1.04-.69 2.1-1.38 3.23-1.88 2.37-1.07 4.8-2.01 7.2-3.02.41-.17.8-.38 1.21-.57.06-1.69-.1-3.26-.68-4.79-.21-.55-.47-1.15-.44-1.72.07-1.43.86-1.82 2.34-2.03 1.41-.2 2.11.86 3.13 1.32.3.14.39.99.4 1.51.01 1.75-.03 3.51-.14 5.26-.05.81.19 1.3.89 1.7 1.08.63 2.11 1.35 3.15 2.04 1.11.75 1.4 1.51.91 2.36-.91 1.57-2.05 2.04-3.29 1.33-.57-.32-1.14-.64-1.65-1.03-.53-.37-.98-.84-1.44-1.24z"/><path d="m326.44 398.57c-1.71.2-3.14.8-4.61 1.22-.91.26-1.84.44-2.77.59-.64.1-1.22-.11-1.5-.75-.31-.7-.07-1.32.52-1.72.96-.64 1.92-1.28 2.97-1.75 2.47-1.1 4.99-2.09 7.48-3.13.41-.17.8-.39 1.24-.61-.09-1.75-.11-3.46-.88-5.03-.47-.96-.34-1.86.15-2.72.18-.32.56-.72.86-.73.94-.03 1.93-.04 2.8.24 1.1.36 1.82 1.15 1.75 2.5-.1 1.8-.04 3.61-.11 5.41-.03.73.16 1.22.81 1.6 1.03.61 2.03 1.29 3.02 1.96.33.22.68.45.92.76.2.26.39.63.37.94-.06.98-.78 1.6-1.48 2.13-.64.48-1.4.44-2.1-.07-1.04-.76-2.12-1.48-3.09-2.15-.58.67-1.18 1.39-1.8 2.08-.63.71-1.31 1.38-1.93 2.1-.76.89-1.38 1.03-2.34.44-.99-.6-1.28-1.57-.77-2.56.12-.2.26-.39.49-.75z"/><path d="m366.37 221.11c-2.2-.12-4.09-1.06-5.19-3.24-1.08-2.13-.72-4.17.6-6.09.22-.32.51-.64.84-.84.51-.32 1.06-.29 1.5.18.39.41.45.89.16 1.38-.17.3-.41.57-.59.87-.72 1.2-.91 2.45-.11 3.68.82 1.26 2.08 1.68 3.52 1.51 1.02-.12 1.91-.57 2.63-1.32.24-.25.48-.52.75-.73.45-.34.94-.33 1.39.02s.59.83.38 1.34c-.14.36-.38.71-.65 1-1.35 1.46-3.05 2.2-5.23 2.24z"/><path d="m175.54 132.33c-.01-.16-.05-.41-.05-.66-.01-1.09.49-1.78 1.34-1.87.81-.09 1.61.52 1.7 1.55.11 1.24.17 2.53-.06 3.74-.56 2.88-2.66 4.37-5.59 3.99-1.12-.15-2.24-.54-3.29-.98-1-.42-1.32-1.26-.97-2.06.35-.81 1.12-1.09 2.17-.75.67.21 1.31.51 1.99.66 1.72.38 2.56-.25 2.76-2.02.05-.5 0-1.01 0-1.6z"/><path d="m388.83 228.76c-3.84-.09-5.69-3.54-4.92-6.94.2-.89.79-1.27 1.51-1.11.64.14.94.65.91 1.51-.02.65-.11 1.31.01 1.94.27 1.37 1.17 2.05 2.56 2.08 1.55.03 2.81-.66 3.91-1.67.4-.37.74-.82 1.13-1.21.6-.58 1.23-.64 1.74-.2.5.43.63 1.12.09 1.75-.78.9-1.65 1.76-2.6 2.47-1.22.92-2.66 1.37-4.34 1.38z"/><path d="m195.01 127.62c-.88-.03-2.02-.61-2.99-1.53-.68-.65-.74-1.54-.23-2.16.5-.63 1.29-.7 2.16-.2.04.03.08.06.12.08 1.92 1.18 2.61.78 2.71-1.54.01-.35.02-.7.12-1.03.2-.69.69-1.11 1.43-1.11.66 0 1.12.37 1.38.97 1.22 2.8-1.21 6.56-4.7 6.52z"/></g><path d="m184.84 150.46c-2.74.01-4.38-2.37-3.39-4.69.92-2.16 2.68-3.48 4.84-4.21 1.38-.47 3.3.29 4.17 1.45.81 1.08.91 2.54.07 3.65-1.27 1.66-2.93 2.87-4.87 3.65-.33.13-.7.13-.82.15z" fill="#f5726e"/><path d="m354.67 224.65c.52.17 1.12.22 1.54.52 1.08.8 2.16 1.63 3.1 2.59 1.09 1.11 1.18 2.56.44 3.73-.73 1.15-2.09 1.62-3.57 1.2-1.63-.47-3-1.4-4.15-2.62-.89-.95-.91-2.01-.33-3.19.63-1.27 1.39-2.22 2.97-2.23z" fill="#f5726e"/></g></g></svg>