<svg id="Слой_1" enable-background="new 0 0 500 500" height="512" viewBox="0 0 500 500" width="512" xmlns="http://www.w3.org/2000/svg"><g><path d="m486.61 150.36c.51-.38.95-.72 1.31-1 .11-.09.22-.17.34-.26 11.04-8.43 14.81-23.37 9.09-36.03l-.7-1.55c-3.59-7.95-10.48-13.93-18.86-16.37-2.74-.8-5.56-1.19-8.35-1.19-1.76 0-3.52.16-5.26.47-.24-.78-.51-1.55-.81-2.32l-.65-1.65c-3.33-8.38-10.27-14.81-18.89-17.49-2.9-.9-5.89-1.35-8.87-1.35-4.47 0-8.9 1-12.96 2.96-3.78-1.64-7.84-2.47-11.92-2.47-6.37 0-12.77 2.03-18.17 6.17-.7.54-1.39 1.07-2.07 1.6-1.21.94-2.36 1.83-3.38 2.58-8.66 6.35-17.32 12.7-25.98 19.05-7.65 5.61-15.3 11.22-22.95 16.83-1.58 1.16-2.93 2.26-4.01 3.15l-.5.41c-1.38 1.12-2.67 2.34-3.86 3.64-.83.04-1.66.08-2.47.13-2.37.12-4.82.25-7.21.36-1.52.07-3.04.14-4.66.2-1.63.07-3.31.14-5.01.22-2.53.12-5.09.25-7.56.38-2.32.12-4.64.24-6.96.35-1.49.07-2.98.13-4.55.2-1.62.07-3.29.14-4.99.22-2.35.11-4.72.24-7.02.35-2.37.12-4.81.25-7.19.36-1.52.07-3.04.14-4.65.2-1.63.07-3.31.14-5.02.22-2.53.12-5.08.25-7.54.38-2.32.12-4.65.24-6.97.35-1.5.07-3.01.14-4.6.2-1.6.07-3.26.14-4.94.22-2.43.12-4.88.24-7.25.36-2.34.12-4.76.24-7.11.36-1.51.07-3.01.14-4.61.2-1.65.07-3.35.14-5.08.23-2.32.11-4.65.23-6.9.35-1.34.07-2.7.14-4.06.21-.57-5.57-1.79-11.13-3.71-16.96-5.99-18.17-18.1-31.75-35.02-39.28-1.56-.69-3.41-1.5-5.58-2.27-7.12-2.52-14.26-3.8-21.22-3.8-3.7 0-7.42.36-11.04 1.07-8.31 1.64-16.26 5.15-23.67 10.44-4.69-1.34-9.63-2.13-14.76-2.35-.84-.04-1.7-.05-2.54-.05-6.77 0-13.42 1.16-19.78 3.44-5.79 2.08-11.35 5.11-16.53 9-6.51 4.89-12.04 10.76-16.44 17.43-4.18 6.35-7.37 13.48-9.46 21.18-.74 2.71-1.54 6.03-2.09 9.82-1.94 1.52-3.78 3.16-5.5 4.94-3.88 3.98-7.11 8.5-9.61 13.44-2.62 5.17-4.36 10.67-5.2 16.35-1.51 10.3-.55 20.64 2.87 30.74 2.91 8.62 7.84 15.97 14.66 21.84 4.89 4.21 9.85 7.49 15.17 10.02 11.04 5.25 22.81 7.95 35 8.05.09 1.13.19 2.27.28 3.4l.82 10c.53 6.46 1.06 12.92 1.58 19.37l.73 8.92c.33 3.98.65 7.96.98 11.94.27 3.31.54 6.63.81 9.94.3 3.69.6 7.38.9 11.07.51 6.18 1.01 12.35 1.52 18.53l.19 2.35c.87 10.63 5.73 17.47 9.65 21.34 4.31 4.26 11.87 9.33 23.43 9.33.23 0 .45 0 .69-.01 4.46-.08 8.92-.16 13.39-.24 5.18-.09 10.54-.19 15.8-.28 10.66-.18 22.23-.36 36.42-.58 3.81-.06 7.61-.11 11.42-.16 4.62-.06 9.39-.13 14.1-.2 4.49-.07 9.04-.15 13.44-.23 4.75-.09 9.66-.18 14.47-.25 5.9-.09 11.91-.17 17.73-.24 2.17-.03 4.35-.06 6.52-.08.31.01.61.01.92.01.25 0 .49 0 .74-.01 1.11-.03 2.21-.06 3.32-.09 2.36-.06 4.6-.12 6.81-.16 4.17-.07 8.42-.13 12.53-.18 4.2-.06 8.54-.12 12.83-.19 4.66-.07 9.38-.16 13.95-.24 2.07-.04 4.17-.08 6.28-.11-.02.2-.05.39-.07.59-.94 9.07-.38 17.34 1.73 25.29 1.93 7.29 4.77 13.54 8.69 19.11 6.68 9.5 16.67 15.72 28.13 17.52 2.58.41 5.2.61 7.77.61 8.48 0 16.54-2.15 23.95-6.4 3.23-1.85 6.25-3.86 9.05-6.02 4.99 2.09 10.15 3.27 15.4 3.52.92.04 1.84.06 2.75.06 8.15 0 15.8-1.7 22.74-5.06 7.53-3.64 13.88-9.05 18.9-16.07 9.45-13.24 14.09-28.55 13.56-44.58 2.73-1.87 5.34-4.02 7.8-6.44 3.89-3.81 7.05-7.7 9.65-11.88 3.29-5.28 5.63-10.97 6.95-16.91 1.82-8.17 1.79-16.55-.07-25.64-2.77-13.5-8.93-24.8-18.29-33.58-6.43-6.03-13.99-10.72-22.46-13.94-4.55-1.73-9.24-2.75-13.95-3.06.01-5.37.02-10.72.03-15.97.01-3.97.02-7.94.03-11.92.63-.58 1.25-1.19 1.86-1.85l.01-.01c.42-.44.83-.89 1.24-1.33 1.04-1.12 2.02-2.18 2.79-2.92 8.41-8.12 17.08-16.43 26.48-25.42 5.31-5.07 8.66-11.53 9.69-18.69.37-2.58.42-5.19.17-7.81.68-.5 1.36-1 2.03-1.5 3.12-2.25 6.3-4.6 9.44-6.93z" fill="#fff"/><g><path d="m254.19 338.68c-8.55.11-17.1.21-25.64.35-9.31.15-18.61.34-27.92.49-8.5.14-17 .24-25.5.37-12.15.19-24.31.38-36.46.58-9.73.16-19.47.35-29.2.52-2.45.04-3.29-.76-3.49-3.25-.57-6.95-1.14-13.91-1.71-20.86-.57-7-1.14-14.01-1.71-21.01-.57-6.95-1.14-13.91-1.71-20.86s-1.14-13.91-1.71-20.86c-.67-8.19-1.34-16.37-2.01-24.56-.47-5.72-.93-11.45-1.41-17.17-.71-8.56-1.44-17.12-2.15-25.69-.42-5.11-.83-10.22-1.21-15.33-.06-.8-.13-1.66.11-2.4.51-1.52 1.61-2.4 3.3-2.46 3.18-.11 6.36-.24 9.53-.4 4.69-.23 9.38-.48 14.08-.71 3.22-.16 6.45-.27 9.67-.43 4.79-.23 9.57-.49 14.36-.72 3.13-.15 6.26-.27 9.39-.42 4.88-.24 9.76-.49 14.65-.73 3.18-.15 6.36-.26 9.53-.42 4.79-.23 9.57-.49 14.36-.72 3.27-.16 6.55-.27 9.82-.42 4.69-.23 9.38-.48 14.08-.71 3.22-.16 6.45-.27 9.67-.43 4.79-.23 9.57-.49 14.36-.72 3.18-.15 6.36-.27 9.53-.42 4.84-.23 9.67-.49 14.5-.73 3.22-.15 6.45-.26 9.68-.42 4.74-.23 9.48-.49 14.22-.72 3.18-.15 6.36-.27 9.53-.42 4.84-.23 9.67-.49 14.5-.72 3.22-.15 6.45-.26 9.68-.42 4.74-.23 9.48-.49 14.22-.72 3.18-.15 6.36-.27 9.53-.42 4.84-.23 9.67-.49 14.5-.72 3.22-.15 6.45-.27 9.68-.42 4.74-.23 9.48-.48 14.22-.71 3.13-.15 6.26-.28 9.39-.42 2.47-.11 4.93-.22 7.4-.31 2.46-.09 3.39.8 3.38 3.27-.04 16.2-.1 32.41-.14 48.61-.05 18.15-.07 36.3-.12 54.46-.07 24.8-.15 49.61-.22 74.41 0 .24.01.48-.01.71-.09 1.65-1.03 2.62-2.69 2.73-.76.05-1.52.02-2.28.03-8.78.12-17.57.24-26.35.38-9.21.15-18.42.33-27.63.48-8.64.14-17.28.24-25.93.37-9.31.15-18.61.34-27.92.49-8.45.14-16.9.23-25.36.37-3.47.06-6.93.17-10.4.25.01 0 .01-.01.01-.02z" fill="#b2e5d4"/><path d="m253.87 212.36c1.93-2.27 4.16-4.15 6.8-5.55 3.56-1.88 7.31-2.64 11.29-1.91 4.43.81 7.65 3.26 9.39 7.44 2.48 5.97 1.62 11.62-1.9 16.92-1.75 2.63-3.96 4.86-6.53 6.69-3.05 2.18-6.13 4.32-9.24 6.41-3.04 2.04-6.04 4.12-8.55 6.82-.22.24-.5.42-.82.69-.38-.33-.76-.61-1.08-.94-2.24-2.3-4.9-4.04-7.58-5.76-3.47-2.24-6.98-4.42-10.38-6.76-3.44-2.37-6.35-5.3-8.26-9.07-2.05-4.06-2.55-8.31-1.28-12.72 1.63-5.66 5.9-9.09 11.78-9.51 4.73-.33 8.89 1.18 12.62 3.97 1.27.97 2.41 2.12 3.74 3.28z" fill="#75544d"/><path d="m251.29 213.09c1.9-2.23 4.05-4.06 6.58-5.45 3.86-2.12 7.95-2.86 12.24-1.88 4.1.93 7.06 3.39 8.68 7.32 2.45 5.98 1.6 11.62-1.93 16.92-1.86 2.79-4.25 5.1-6.99 7.03-2.99 2.1-5.99 4.19-9.02 6.22-2.92 1.96-5.8 3.97-8.21 6.56-.25.27-.56.48-.91.77-.41-.35-.78-.63-1.11-.96-2.24-2.29-4.9-4.03-7.58-5.75-3.47-2.23-6.97-4.42-10.37-6.76-3.44-2.37-6.35-5.3-8.24-9.08-2.23-4.46-2.62-9.08-.89-13.8 1.74-4.75 5.18-7.47 10.17-8.24 5.37-.83 10.02.88 14.22 4.09 1.14.88 2.17 1.94 3.36 3.01z" fill="#f5726e"/><g fill="#75544d"><path d="m305.25 242.53c-.73.67-1.36 1.25-1.99 1.83-16.44 15.17-32.88 30.35-49.32 45.52-.24.23-.49.45-.74.67-.54.46-1.11.48-1.69.06-.42-.31-.84-.62-1.26-.94-13.57-10.24-27.14-20.49-40.71-30.73-.34-.26-.69-.5-1.11-.81-.37.29-.74.57-1.09.88-29.23 25.31-58.45 50.62-87.68 75.93-.25.22-.49.45-.76.64-.48.33-.99.37-1.41-.09-.43-.46-.35-.96.05-1.4.19-.21.42-.39.63-.57 29.01-25.12 58.02-50.25 87.03-75.37.46-.4.92-.81 1.47-1.29-.42-.34-.76-.65-1.13-.93-35.62-26.91-71.24-53.81-106.85-80.72-.27-.2-.55-.38-.8-.6-.52-.48-.62-1.08-.24-1.5.41-.46.9-.48 1.4-.14.24.16.46.34.69.51l107.34 81.03c.56.42 1.04.94 1.87.89.27-.02.74.37.8.65.15.64.6.94 1.05 1.28 13.56 10.25 27.13 20.5 40.69 30.74.22.17.47.31.76.51.34-.28.67-.53.97-.81 36.99-34.15 73.98-68.31 110.97-102.47 9.95-9.18 19.88-18.38 29.82-27.57.42-.39.82-.79 1.27-1.14.59-.45 1.18-.44 1.53 0 .42.54.28 1.07-.17 1.53-.23.24-.48.46-.72.69-19.3 17.81-38.61 35.63-57.91 53.44-10.09 9.31-20.17 18.62-30.26 27.93-.28.26-.58.49-.97.81.43.41.74.75 1.08 1.05 18.48 16.1 36.95 32.2 55.43 48.3 10.71 9.33 21.42 18.66 32.12 27.98.29.25.59.49.83.77.38.45.43.96 0 1.41-.38.39-.84.42-1.29.1-.31-.22-.6-.47-.88-.72-17.48-15.23-34.95-30.45-52.42-45.68-11.85-10.33-23.71-20.66-35.56-30.98-.21-.2-.47-.4-.84-.69z"/><path d="m51.58 157.74c-.38-1.83-.81-3.54-1.08-5.27-.79-5.18.06-10.21 1.42-15.2 2.49-9.2 7.36-16.81 15.02-22.57 5.82-4.37 12.32-6.74 19.62-6.43 8.04.34 15.08 3.14 20.69 9.11.19.2.4.38.69.64.35-.48.65-.89.95-1.3 2.87-3.92 5.91-7.68 9.78-10.68 3.99-3.09 8.35-5.41 13.36-6.39 5.66-1.12 11.15-.33 16.52 1.58 1.16.41 2.29.91 3.42 1.41 9.53 4.24 15.56 11.54 18.79 21.34 1.25 3.8 2.14 7.67 2.46 11.67.3 3.79-.29 7.49-1.11 11.15-.48 2.13-1.07 4.23-1.64 6.34-.12.45-.26.95-.55 1.3-.23.27-.75.53-1.04.44-.3-.09-.58-.58-.65-.94-.07-.34.15-.73.24-1.09.76-3.23 1.6-6.45 2.24-9.7.8-4.06.6-8.13-.22-12.17-1.07-5.3-2.86-10.33-5.73-14.94-1.88-3.02-4.24-5.6-7.13-7.68-4.97-3.58-10.45-6-16.54-6.85-5-.7-9.84-.09-14.46 2.06-3.08 1.43-5.89 3.27-8.41 5.54-3.48 3.14-6.31 6.82-9.02 10.77.25.43.52.86.75 1.31 3.38 6.46 3.48 13 .34 19.56-.48 1.01-1.18 1.97-1.96 2.77-1.83 1.86-4.04 1.63-5.58-.5-.88-1.22-1.33-2.61-1.54-4.09-.54-3.66.02-7.22 1.3-10.63.85-2.25 2.03-4.38 3.08-6.56.29-.59.67-1.14 1.04-1.75-.93-1.42-2.14-2.56-3.43-3.59-4.35-3.47-9.34-5.38-14.87-5.91-8.26-.8-15.39 1.85-21.72 7.08-7.11 5.88-11.21 13.5-13.27 22.36-.91 3.9-1.42 7.85-.89 11.87.26 1.93.66 3.82 1.35 5.71 1.2.1 2.38.17 3.55.31 3.12.36 6.01 1.34 8.56 3.22 1.27.94 2.38 2.05 3.13 3.46.33.62.64 1.29.77 1.98.71 3.65-2.18 6.49-5.85 5.77-2.32-.46-4.2-1.71-5.83-3.37-2.19-2.23-3.82-4.84-5.11-7.67-.2-.43-.39-.86-.67-1.46-1.47.3-2.96.53-4.41.92-4.41 1.18-7.96 3.65-10.78 7.25-4.34 5.55-5.82 11.83-5.1 18.73.3 2.85.94 5.61 1.88 8.31.95 2.75 2.51 5.09 4.66 7.05 4.21 3.86 9.13 6.42 14.51 8.2 5.84 1.93 11.85 2.63 17.96 2.52 1.79-.03 3.58-.4 5.36-.65.5-.07 1.07-.15 1.21.38.1.37-.1 1.03-.39 1.23-.56.38-1.26.68-1.94.76-10.15 1.1-19.87-.42-29.11-4.82-3.11-1.48-5.9-3.43-8.5-5.67-2.77-2.38-4.69-5.31-5.86-8.77-1.86-5.5-2.45-11.11-1.61-16.85 1.49-10.15 9.67-18.53 19.74-20.28.53-.09 1.03-.2 1.61-.32zm56.39-35.84c-1.24 1.78-2.15 3.58-2.92 5.46-1.41 3.42-2.22 6.97-1.81 10.69.13 1.15.47 2.34.99 3.37.79 1.59 1.82 1.67 2.97.33.55-.64 1.01-1.38 1.39-2.14 1.85-3.69 2.19-7.62 1.59-11.65-.31-2.12-1-4.12-2.21-6.06zm-53.22 37.84c.17.47.25.79.39 1.07 1.26 2.62 2.8 5.05 4.95 7.04 1.3 1.22 2.78 2.14 4.59 2.37 2.13.26 3.6-1.33 3.13-3.42-.13-.59-.38-1.19-.75-1.66-.63-.82-1.31-1.64-2.12-2.27-2.95-2.3-6.36-3.13-10.19-3.13z"/><path d="m426.16 334.49c.32.56.6 1.05.88 1.53 3.22 5.47 5.42 11.31 6.11 17.63 1.19 10.88-1.43 20.88-7.77 29.76-4.52 6.33-11 8.94-18.69 8.58-2.75-.13-5.3-1.07-7.66-2.45-5.5-3.21-9.5-7.79-12.22-13.53-.22-.47-.43-.94-.72-1.57-.26.54-.44.92-.63 1.3-1.24 2.46-2.41 4.95-3.72 7.37-3.66 6.71-9.19 11.54-15.73 15.29-3.79 2.17-7.9 2.88-12.23 2.2-3.52-.55-6.29-2.29-8.33-5.2-2.05-2.91-3.35-6.16-4.25-9.58-1.27-4.79-1.4-9.65-.89-14.56.73-7.02 2.17-13.88 4.63-20.49.77-2.08 1.81-4.07 2.87-6.03.53-.98 1.38-1.8 2.13-2.65.27-.31.65-.56 1.03-.75.64-.33 1.26-.19 1.51.29.3.57.05.99-.43 1.33-1.78 1.25-2.79 3.08-3.71 4.97-1.77 3.65-2.92 7.51-3.87 11.44-1.4 5.78-2.43 11.62-2.37 17.6.05 5.3 1.2 10.36 3.68 15.07 2.32 4.41 5.53 7.38 12.94 6.61 2.46-.26 4.71-1.07 6.82-2.32 6.19-3.69 11.41-8.37 14.77-14.85 1.53-2.94 2.83-6 4.24-9 .36-.77.34-1.51.09-2.34-.95-3.09-1.73-6.23-1.55-9.51.05-.94.16-1.89.35-2.82.12-.59.37-1.19.69-1.7 1-1.59 2.73-1.56 3.61.1.41.78.65 1.69.77 2.56.53 3.83.01 7.58-1.02 11.26-.24.86-.22 1.61.09 2.46 2.03 5.61 5.41 10.21 10.18 13.77 3.5 2.61 7.41 4.1 11.83 3.68 5.68-.54 10.51-2.81 14-7.5 3.72-5.01 5.99-10.67 7.1-16.77 2.1-11.56-.69-22.06-7.35-31.57-2.12-3.02-4.65-5.75-6.99-8.62-.36-.44-.75-.86-1.08-1.32-.32-.44-.26-.91.13-1.29.38-.38.88-.45 1.3-.13.56.43 1.07.93 1.55 1.46 1.53 1.68 2.99 3.45 4.58 5.07 2.66 2.72 5.85 4.3 9.74 4.33 3.33.03 6.59-.45 9.52-2.02 7.2-3.87 12.45-9.44 14.4-17.61.96-3.99.7-8.02-.12-12.01-1.03-4.98-2.69-9.69-5.93-13.72-4.13-5.14-9.37-8.67-15.56-10.86-3.2-1.13-6.44-1.04-9.68-.24-2.99.74-3.86 3.87-1.76 6.17.25.28.55.53.87.73 2.5 1.61 5.15 2.37 8.11 1.48 1.64-.49 3.28-.94 4.93-1.39 1.07-.29 1.67-.13 1.85.45.17.57-.28 1.2-1.24 1.48-2.18.64-4.35 1.43-6.59 1.77-3.52.54-6.71-.57-9.29-3.01-1.8-1.7-2.18-3.97-1.57-6.32.41-1.61 1.71-2.53 3.19-3.01 1.39-.45 2.85-.73 4.3-.9 2.83-.34 5.58.07 8.25 1.08 4.72 1.79 8.95 4.35 12.64 7.81 5.19 4.86 8.05 10.94 9.47 17.81.9 4.37 1.15 8.74.18 13.14-1.24 5.59-4.34 10.01-8.36 13.96-3.31 3.24-7.09 5.53-11.59 6.6-4 .95-7.98 1.14-11.88-.53-.16-.01-.31.03-.55.03zm-40.19 22.94c-1.22 2.14-1.06 7.61.18 9.31.46-3.16.79-6.23-.18-9.31z"/><path d="m410.1 101.98c.44.46.75.8 1.18 1.25-.67.54-1.28 1.05-1.91 1.53-8.28 6.21-16.55 12.43-24.85 18.62-7.88 5.88-15.79 11.71-23.68 17.57-2.86 2.12-5.69 4.28-8.52 6.43-.47.36-.93.5-1.42.12-.44-.34-.42-.92.06-1.52.27-.33.58-.64.9-.9 1.1-.9 2.2-1.81 3.35-2.65 16.31-11.97 32.62-23.92 48.93-35.88 1.98-1.47 3.91-3 5.96-4.57z"/><path d="m469.43 123.83c.25.56.45.99.7 1.54-.45.34-.88.68-1.32 1.01-10.37 7.7-20.8 15.31-31.09 23.12-6.46 4.91-12.73 10.09-19.03 15.21-1.72 1.4-3.25 3.05-4.86 4.59-.14.13-.25.29-.39.42-.39.36-.85.47-1.29.14-.45-.33-.48-.83-.2-1.27.3-.48.64-.95 1.05-1.34 1.61-1.54 3.19-3.13 4.91-4.55 16.31-13.54 33.42-26.01 50.67-38.31.22-.16.46-.3.85-.56z"/><path d="m434.96 101.49c.26.66.45 1.13.65 1.65-.25.21-.45.4-.68.56-11.29 8.11-22.55 16.26-33.89 24.31-6.03 4.28-12.05 8.61-18.43 12.37-.53.31-1.07.62-1.62.89-.54.26-1.05.18-1.35-.37-.27-.49-.07-.92.35-1.25.15-.12.31-.21.47-.31 8.93-5.43 17.37-11.58 25.86-17.65 8.99-6.43 18.05-12.78 27.07-19.16.47-.32.95-.62 1.57-1.04z"/><path d="m445.23 160.66c.42 1.32.37 2.2-.53 3.06-8.89 8.49-17.75 16.99-26.6 25.52-1.77 1.71-3.42 3.55-5.11 5.34-.41.44-.77.88-1.43.5-.53-.31-.63-.92-.18-1.62.44-.67.94-1.32 1.49-1.9 1.45-1.5 2.92-2.98 4.43-4.42 8.83-8.41 17.67-16.81 26.5-25.21.42-.37.85-.74 1.43-1.27z"/><path d="m442.2 118.28c.3.63.52 1.1.79 1.68-.44.31-.85.61-1.27.89-8.83 5.81-17.67 11.61-26.49 17.44-3 1.99-5.95 4.06-8.92 6.1-.47.32-.91.53-1.4.08-.42-.39-.43-1.01.1-1.51.62-.58 1.32-1.09 2.02-1.56 8.65-5.74 17.31-11.47 25.97-17.19 2.61-1.72 5.25-3.41 7.88-5.11.39-.25.8-.49 1.32-.82z"/></g><path d="m229.96 211.36c2.54-.04 3.88 2.2 2.89 4.12-.4.79-.77 1.6-1.11 2.42-.61 1.47-1.93 2.23-3.39 1.91-1.36-.3-2.37-1.55-2.26-3.03.12-1.75.71-3.36 2.11-4.5.59-.48 1.38-.73 1.76-.92z" fill="#f4fafa"/><path d="m229.45 223.61c1.62-.05 3.08 1.32 3.08 2.89.01 1.51-1.27 2.78-2.82 2.79-1.6.02-2.93-1.24-2.99-2.81-.06-1.51 1.19-2.83 2.73-2.87z" fill="#f4fafa"/></g></g></svg>