<svg id="Слой_1" enable-background="new 0 0 500 500" height="512" viewBox="0 0 500 500" width="512" xmlns="http://www.w3.org/2000/svg"><g><path d="m495.42 278.98c-3.01-3.06-7.12-4.78-11.39-4.78-.06 0-.12 0-.18 0 .23-1.24.33-2.53.31-3.88 0-.1 0-.2 0-.3l.5-10.69c.21-4.5.42-9 .63-13.51.04-.76.03-1.4.02-1.86 0-.13 0-.27 0-.42 0-.97-.09-1.92-.26-2.86 5.07-2.51 8.69-7.47 9.4-13.45.7-5.81 1.43-11.66 2.07-16.69.23-1.85.48-3.7.72-5.55.24-1.86.49-3.72.72-5.59.16-1.29.3-2.57.44-3.8.06-.55.12-1.11.19-1.68.51-4.52-.93-9.04-3.96-12.43-1.3-1.46-2.85-2.65-4.55-3.53.64-1.75.99-3.64.98-5.59-.04-6.57-4.09-12.36-10.06-14.74-2.03-6.5-8-11.05-14.89-11.2-.12 0-.23 0-.35 0-6.96 0-13.1 4.51-15.21 11.12-2.56.97-4.77 2.56-6.48 4.56-.16-.01-.33-.01-.49-.01h-.01c-3.07 0-5.98.88-8.46 2.43-2.44-5.82-8.15-9.74-14.62-9.78-.04 0-.07 0-.11 0-6.81 0-12.83 4.32-15.06 10.67-5.85 2.49-9.72 8.27-9.7 14.73 0 .17.01.33.01.5-.21.01-.42.02-.63.03-1.62.09-3.36.23-5.49.44-1.25.13-2.39.29-3.38.44l-.58.08c-1.01.12-3.89.5-6.93 2.3-.23.14-.46.28-.69.43-1.11.66-2.14 1.45-3.06 2.35-.56-.13-1.11-.26-1.67-.39-2.11-.49-4.22-.98-6.33-1.47-.3-.07-.6-.14-.9-.21.17-.93.25-1.88.25-2.85-.01-6.41-3.85-12.13-9.63-14.62-2.17-6.45-8.23-10.86-15.12-10.87-.01 0-.01 0-.02 0-5.68 0-10.8 3.01-13.64 7.68-2.72-2.06-6.08-3.25-9.65-3.25-.09 0-.19 0-.28 0-5.44.1-10.35 2.94-13.18 7.37-1.22.87-2.29 1.9-3.21 3.05-.46-.04-.92-.06-1.38-.06-.09 0-.18 0-.27 0-3.01.05-5.86.95-8.28 2.49-1.46-.44-3-.67-4.58-.67-.4 0-.81.02-1.22.05-.09.01-.19.01-.28.02-.64.03-1.72.09-2.99.3-1.5.25-2.94.51-4.34.77l-.74.13c-.51.07-1.4.2-2.51.49-15.45 3.52-30.65 7.02-44.77 10.29-3.85.89-7.22 3.17-9.47 6.38-6.48-3.79-13.22-6.49-20.06-8.02-5.6-1.26-11.76-2.01-16.46-2-.19 0-.37 0-.55 0-2.3.02-4.42.08-6.43.17.43-1.37.69-2.81.74-4.29.22-6.87-3.96-13.05-10.3-15.45-2-6.75-8.22-11.42-15.31-11.42-.02 0-.04 0-.06 0-7.09.03-13.28 4.73-15.26 11.48-6.07 2.39-10.13 8.29-10.1 14.93 0 .76.06 1.51.17 2.25-.17.27-.33.54-.49.81-3.15 2.2-5.42 5.49-6.35 9.26-1.7-3.25-4.5-5.88-8-7.33-2.15-6.31-8.04-10.65-14.77-10.8-.93-.66-1.93-1.23-3-1.69-2.18-6.44-8.25-10.83-15.12-10.83-.01 0-.02 0-.03 0-6.87.01-12.92 4.41-15.09 10.84-5.62 2.4-9.41 7.83-9.68 14-6.22.32-12.62.66-18.96 1.06-1.53.1-3.1.17-4.76.24-4.25.19-8.64.38-13.35 1.09-.2.03-.4.06-.61.08-.77.1-1.84.24-3.05.49-1.45.3-2.83.78-4.12 1.41-5.79 2.47-9.78 8.24-9.71 14.87l1.49 126.8c.09 7.55 5.45 14.01 12.86 15.48 1.73.34 2.93.36 7.22.36 12.47 0 65.94-.58 78.18-.96.55.05 1.11.08 1.67.08.86 0 1.74-.06 2.63-.18.75-.1 1.58-.19 2.46-.29.9-.1 1.82-.2 2.81-.32 2.13-.27 7.1-.91 11.3-5.3 2.13-2.23 3.27-4.59 3.91-6.64 6.64 4.54 13.69 7.98 20.99 10.25 7.49 2.32 15.6 3.53 24.78 3.68h.27c.35 0 .7-.01 1.05-.03.78-.05 1.55-.1 2.33-.15 1.77-.11 3.6-.22 5.48-.38 3.56-.29 7.1-.81 10.53-1.55 2.6-.3 5.14-.7 7.58-1.19 9.84-2 19.28-5.94 28.05-11.72 1.58-1.04 3.11-2.13 4.58-3.26 1.82 1.69 4.01 2.94 6.42 3.64.91 5.32 4.48 9.88 9.52 12.01 2.2 6.4 8.24 10.77 15.1 10.77h.03c6.86-.01 12.89-4.4 15.07-10.79.85-.36 1.65-.8 2.41-1.29 3.45 2.09 6.98 2.43 8.91 2.43.61 0 1.13-.03 1.61-.06 2.92-.17 5.83-.35 8.75-.53 2.67-.16 5.35-.33 8.02-.48 6.56-.39 12.48-.73 18.44-1.05.92-.05 1.82-.16 2.7-.34.8-.09 1.6-.18 2.4-.28 1.21-.14 2.42-.28 3.63-.41 4.1-.43 7.78-2.15 10.62-4.84 1.82 2.89 4.56 5.18 7.89 6.43 2.08 6.62 8.24 11.17 15.23 11.17h.08c6.99-.03 13.11-4.61 15.17-11.22 1.04-.4 2.02-.91 2.93-1.5.84.14 1.7.21 2.58.21h.24c13.19-.2 26.63-.34 39.64-.47 15.1-.16 30.72-.32 46.14-.58 1.54-.03 3.02-.27 4.42-.7 1.3-.12 2.63-.24 3.99-.39 4.61-.5 8.4-2.34 11.26-5.48 3.93-4.32 4.3-9.19 4.42-10.79.29-3.8.56-7.59.83-11.39.4-5.63.8-11.27 1.2-16.9.06-.83.1-1.61.14-2.36.02-.31.03-.62.05-.95.26-4.48-1.39-8.86-4.54-12.06z" fill="#fff"/><g><path d="m183.8 197.29c3.12-.04 8.27.48 13.34 1.62 6.31 1.41 12.12 4.02 17.57 7.49 10.5 6.69 18.06 15.91 23.29 27.12 2.99 6.41 4.96 13.14 5.97 20.13.82 5.69.88 11.4.25 17.13-.72 6.49-2.22 12.77-4.74 18.78-4.81 11.45-12.31 20.7-22.71 27.55-6.89 4.54-14.34 7.76-22.45 9.4-5.72 1.16-11.49 1.6-17.32 1.49-6.09-.12-12.08-.94-17.92-2.68-6.23-1.86-11.94-4.79-17.3-8.42-9.46-6.4-16.61-14.81-21.62-25.05-5.69-11.63-7.96-23.9-6.48-36.8.88-7.67 2.9-15.04 6.3-21.99 5.46-11.17 13.59-19.87 24.29-26.19 7.22-4.27 14.95-7.09 23.25-8.39 4.7-.75 9.44-1.13 16.28-1.19zm-30.99 66.34c-.04 3.97.73 7.77 2.28 11.35 3.55 8.21 9.65 13.43 18.49 15.25 4.07.84 8.17.8 12.11-.5 10.35-3.42 16.45-10.74 18.76-21.26 1.21-5.51.68-10.98-1.25-16.29-1.65-4.54-4.34-8.33-8.19-11.29-7.85-6.03-19.64-6.45-27.85-1.43-9.07 5.55-13.84 13.59-14.35 24.17z" fill="#76554d"/><path d="m242.1 199.25c.45-.16.78-.31 1.13-.39 6.44-1.47 12.88-2.93 19.32-4.4 4.84-1.1 9.67-2.22 14.51-3.34.28-.07.67-.1.81-.29.58-.8 1.45-.77 2.26-.91 1.65-.3 3.31-.61 4.97-.88.61-.1 1.23-.1 1.9-.15 9.4 31.38 18.77 62.64 28.13 93.9.08.01.17.02.25.03 8.5-27.53 17-55.06 25.52-82.67-.8-.25-1.4-.62-1.23-1.56-.7-.18-1.41-.15-1.97-.75-.24-.25-.96-.09-1.45-.06-.38.02-.75.13-1.12.16-.69.05-1.09-.21-1.12-.72-.04-.61.37-.81.87-.87 1.08-.14 2.18-.21 3.26-.4 2.86-.5 5.62-.22 8.46.49 7.63 1.93 15.31 3.64 22.97 5.43 4.26 1 8.52 1.98 12.78 2.98.32.08.63.19 1.12.34-.27.67-.5 1.28-.75 1.88-4.02 9.49-8.05 18.98-12.07 28.47-4.21 9.92-8.42 19.83-12.61 29.76-3.28 7.75-6.52 15.51-9.8 23.26-3.04 7.17-6.1 14.33-9.15 21.49-1.89 4.45-3.8 8.9-5.66 13.37-.39.93-.98 1.4-1.96 1.5-2.05.22-4.09.47-6.14.7-.55.06-1.07.09-1.54-.35-.18-.17-.54-.22-.81-.21-3.95.21-7.9.44-11.85.66-1.55.09-3.11.17-4.66.27-3.02.19-6.05.4-9.07.58-.67.04-1.34.01-2.21.01-17.67-42.36-35.36-84.79-53.09-127.33z" fill="#76554d"/><path d="m482.74 192.11c-.21 1.86-.38 3.57-.6 5.27-.47 3.72-.97 7.43-1.44 11.14-.71 5.6-1.41 11.19-2.08 16.79-.09.71-.36 1.09-1.06 1.16-2.47.24-4.94.48-7.41.72-.75.07-1.15-.38-1.35-1.07-12.89.16-25.72.32-38.73.48.43 6.82.82 13.51 1.33 20.39 6.41-.53 12.71-1.16 19.02-1.73 6.27-.56 12.55-1.16 18.95-1.75 0 .64.02 1.09 0 1.54-.38 8.08-.76 16.15-1.14 24.23-.02.42-.02.84-.01 1.26.02 1.06-.09 1.22-1.19 1.34-1.46.17-2.93.3-4.4.44-.88.09-1.76.19-2.64.24-.32.02-.81.01-.94-.18-.45-.65-1.06-.58-1.69-.56-7.79.25-15.57.51-23.36.76-.29.01-.57.06-1.02.1.34 6.42.84 12.76 1.26 19.28 16.64-.61 33.16-1.21 49.82-1.82-.06 1.08-.1 2.07-.17 3.06-.4 5.63-.8 11.25-1.2 16.88-.27 3.78-.54 7.56-.83 11.34-.1 1.31-.22 1.46-1.46 1.59-1.96.21-3.93.37-5.9.56-.59.05-1.13.06-1.59-.5-.2-.24-.75-.27-1.15-.27-2.78.01-5.56.05-8.34.08-15.54.17-31.08.34-46.61.52-6.57.07-13.14.17-19.71.25-.37 0-.75 0-1.29 0-.39-20.11-.51-40.14-.76-60.16-.24-20.03-.46-40.05-.7-60.31-.39.33-.6.5-.79.68-1.36 1.28-3.17 1.46-4.62.46-1.4-.96-1.89-2.69-1.24-4.37.09-.23.2-.45.36-.82-.45 0-.84.1-1.13-.03-.3-.13-.62-.44-.7-.74-.05-.19.29-.57.54-.71.27-.16.64-.18.97-.22 1.13-.16 2.25-.34 3.38-.46 1.59-.16 3.18-.3 4.77-.39 8.11-.44 16.23-.88 24.34-1.3 6.06-.31 12.11-.58 18.17-.9 6.64-.35 13.28-.74 19.93-1.1 6.1-.32 12.2-.61 18.29-.92 1.6-.08 3.19-.19 4.79-.27.37.01.75.02 1.33.02zm-88.45 6.09c-.46.1-.73.15-1.29.27.48.42.77.66 1.19 1.02.04-.46.06-.77.1-1.29z" fill="#76554d"/><path d="m24.33 202.58c-1.6.19-2.98.36-4.35.52-.88.1-1.75.2-2.63.3-.5.06-.95-.01-1.12-.56-.14-.45.17-.86.88-1.01.9-.19 1.83-.27 2.74-.41 5.55-.84 11.16-.82 16.75-1.18 9.12-.58 18.24-1.01 27.37-1.5.45-.02.91 0 1.54 0-1.01 16.32-2.1 32.56-3.13 48.79-1.03 16.2-2.09 32.4-3.15 48.77 18.14-.99 36.14-1.97 54.32-2.97-.13 1.35-.22 2.51-.37 3.66-.47 3.67-.97 7.34-1.45 11.01-.75 5.71-1.49 11.43-2.24 17.15-.01.04-.01.08-.01.13-.24 2.07-.24 2.09-2.25 2.35-1.79.23-3.59.38-5.38.62-.94.13-1.66-.03-1.97-1.14-24.65.28-49.27.56-74.02.84-.24-2.85-.13-5.61-.18-8.37-.06-2.78-.06-5.56-.09-8.34s-.05-5.56-.07-8.34c-.03-2.78-.06-5.56-.09-8.34s-.07-5.56-.11-8.34c-.03-2.78-.06-5.56-.1-8.34s-.08-5.56-.11-8.34c-.04-2.82-.07-5.64-.1-8.46-.03-2.78-.06-5.56-.09-8.34s-.06-5.56-.09-8.34-.05-5.56-.07-8.34-.04-5.56-.08-8.34c-.03-2.78-.09-5.56-.13-8.34s-.07-5.56-.1-8.34c-.04-2.72-.08-5.48-.12-8.46z" fill="#76554d"/><path d="m170.51 329.48c-6.91-.11-13.7-.91-20.31-2.96-6.82-2.12-13.05-5.42-18.78-9.66-10.05-7.42-17.25-17.03-21.81-28.65-3.89-9.93-5.51-20.2-4.42-30.83 1-9.71 3.67-18.93 8.71-27.33 5.7-9.51 13.4-17.01 23.11-22.44 6.3-3.53 12.95-6.04 20.03-7.4 7.36-1.41 14.8-1.9 22.25-1.33 17.34 1.31 31.3 9.08 42.11 22.58 5.4 6.74 9.28 14.3 11.77 22.59 2.26 7.52 3.45 15.2 3.06 23.04-.77 15.58-5.67 29.59-16.18 41.37-5.66 6.35-12.47 11.14-20.13 14.76-6.93 3.27-14.24 5.12-21.86 5.75-2.51.21-5.03.35-7.55.51zm2.37-92.21c-3.83-.01-6.4.23-8.83 1.11-10.57 3.83-17.05 11.27-19.21 22.3-.86 4.41-.4 8.82 1.01 13.09 3.1 9.43 9.37 15.49 19.15 17.66 4.14.92 8.31.82 12.36-.45 7.84-2.46 13.39-7.61 16.76-15.05 2.45-5.39 3.08-11.07 2.15-16.92-.74-4.62-2.35-8.88-5.27-12.55-4.94-6.2-11.49-9.12-18.12-9.19z" fill="#b3dace"/><path d="m233.76 200.52c14.95-3.46 29.84-6.89 44.85-10.31 9.42 31.39 18.79 62.6 28.16 93.81 2.14-5.7 3.77-11.53 5.59-17.3s3.57-11.57 5.36-17.36c1.8-5.83 3.6-11.66 5.4-17.48 1.79-5.79 3.6-11.57 5.39-17.36 1.81-5.82 3.6-11.65 5.4-17.44.99-.07 39.64 8.94 41.13 9.59-.2.52-.38 1.06-.61 1.59-2.91 6.86-5.82 13.71-8.73 20.57-5.25 12.35-10.5 24.7-15.74 37.06-5.8 13.67-11.57 27.36-17.36 41.03-2.53 5.97-5.07 11.93-7.56 17.91-.3.73-.68 1.02-1.47 1.06-6.18.33-12.36.69-18.54 1.05-5.59.33-11.18.68-16.77 1.01-1.41.08-1.42.06-1.95-1.2-3.51-8.43-7.02-16.86-10.54-25.29-3.29-7.88-6.59-15.76-9.87-23.64-2.6-6.25-5.17-12.52-7.77-18.78-3.28-7.89-6.57-15.77-9.86-23.65-3.31-7.92-6.63-15.83-9.95-23.75-1.43-3.42-2.85-6.84-4.27-10.25-.09-.22-.16-.46-.29-.87z" fill="#b3dace"/><path d="m474.41 193.49c-1.44 11.31-2.86 22.51-4.31 33.89-5.42.16-10.75.12-16.08.2-5.39.07-10.78.16-16.17.23-5.33.07-10.67.12-16.18.18.44 6.82.87 13.47 1.32 20.3 12.7-1.17 25.25-2.33 37.98-3.5.03 4.75-.42 9.35-.58 13.95-.16 4.62-.43 9.24-.65 14.01-11.75.38-23.38.76-35.19 1.15.44 6.51.86 12.87 1.3 19.4 5.57.03 11.05-.38 16.54-.58 5.55-.2 11.1-.47 16.66-.69 5.5-.22 10.99-.41 16.69-.62-.78 10.93-1.55 21.7-2.33 32.63-28.68.48-57.24.61-85.75 1.05-.34-1.09-1.87-125.13-1.59-126.97.33-.04.69-.1 1.05-.12 7.23-.4 14.46-.81 21.69-1.19 7.15-.37 14.3-.69 21.44-1.07 5.63-.29 11.26-.64 16.89-.95 3.53-.19 7.06-.35 10.6-.53 4.71-.25 9.42-.51 14.12-.75.78-.05 1.57-.02 2.55-.02z" fill="#b3dace"/><path d="m15.97 202.3c13.76-.76 27.36-1.52 41.15-2.29-.03 2.62-.32 5.07-.46 7.52-.14 2.52-.34 5.04-.5 7.56-.16 2.48-.29 4.96-.45 7.44-.16 2.52-.32 5.04-.49 7.56-.16 2.48-.35 4.95-.51 7.43-.16 2.52-.31 5.04-.47 7.56-.15 2.48-.29 4.96-.45 7.44-.16 2.52-.34 5.04-.51 7.56-.17 2.48-.34 4.96-.49 7.43-.16 2.52-.3 5.04-.46 7.56-.16 2.48-.32 4.96-.49 7.43-.17 2.52-.35 5.04-.51 7.56-.16 2.47-.3 4.93-.46 7.58 18.11-.92 36.11-1.97 54.1-2.92.16 1.15-3.69 31.72-4.16 33.4-1 .28-81.97 1.26-83.42.97-.46-42.15-.94-84.36-1.42-126.79z" fill="#b3dace"/><g fill="#f7d86e"><path d="m301.01 211.37c5.31-1.53 8.18-5.06 9.49-10.29 1.34 5.18 4.18 8.8 9.52 10.28-5.24 1.49-8.18 5.03-9.51 10.34-1.31-5.25-4.18-8.8-9.5-10.33z"/><path d="m85.33 272.97c-1.37-5.36-4.23-8.94-9.55-10.43 5.29-1.48 8.19-5.09 9.52-10.3 1.31 5.23 4.2 8.79 9.62 10.33-2.69.56-4.67 1.85-6.33 3.68-1.68 1.85-2.74 4.01-3.26 6.72z"/><path d="m152.36 186.74c-1.37-5.07-4.25-8.62-9.5-10.08 5.21-1.5 8.18-5.02 9.47-10.36 1.31 5.26 4.23 8.86 9.65 10.38-2.72.57-4.72 1.88-6.39 3.74-1.64 1.81-2.68 3.93-3.23 6.32z"/><path d="m456.22 172.46c5.33-1.52 8.18-5.05 9.56-10.08.55 2.42 1.62 4.54 3.26 6.36 1.64 1.81 3.61 3.1 6.07 3.71-2.44.64-4.44 1.92-6.09 3.76-1.63 1.82-2.7 3.92-3.23 6.37-1.37-5.03-4.23-8.61-9.57-10.12z"/><path d="m376.36 327.46c-5.16 1.53-8.16 4.95-9.47 10.14-1.36-5.19-4.33-8.66-9.63-10.16 2.6-.55 4.64-1.82 6.31-3.68 1.67-1.84 2.74-3.99 3.26-6.74 1.35 5.35 4.23 8.94 9.53 10.44z"/><path d="m332.59 181.85c4.97-1.44 7.61-4.75 8.87-9.57 1.25 4.82 3.9 8.11 8.8 9.56-4.86 1.46-7.56 4.72-8.78 9.59-1.27-4.79-3.88-8.14-8.89-9.58z"/><path d="m429.04 180.03c-4.76 1.47-7.4 4.79-8.65 9.61-1.22-4.79-3.86-8.1-8.79-9.56 4.84-1.46 7.55-4.7 8.8-9.39.56 2.2 1.51 4.19 3.04 5.87s3.33 2.92 5.6 3.47z"/><path d="m70.5 183.93c4.91-1.44 7.56-4.69 8.85-9.56 1.3 4.85 3.95 8.14 8.85 9.55-4.86 1.43-7.53 4.64-8.82 9.53-1.33-4.79-3.94-8.11-8.88-9.52z"/><path d="m88.11 196.46c5.04-1.38 7.73-4.71 9.01-9.58 1.26 4.85 3.95 8.18 8.97 9.57-2.45.55-4.34 1.73-5.89 3.45-1.52 1.69-2.53 3.65-3.05 5.94-.58-2.21-1.53-4.2-3.06-5.89-1.57-1.73-3.44-2.95-5.98-3.49z"/><path d="m261.14 318.71c1.24 4.68 3.91 8 8.84 9.41-4.79 1.48-7.62 4.61-8.81 9.5-1.2-4.82-3.98-8.01-8.89-9.51 2.45-.59 4.31-1.77 5.84-3.48 1.52-1.69 2.49-3.67 3.02-5.92z"/><path d="m374.88 289c-3.77 1.18-5.85 3.67-6.87 7.47-1.11-3.71-3.11-6.3-6.74-7.39 1-.54 2.06-.95 2.91-1.62.91-.72 1.72-1.62 2.37-2.58.62-.92.97-2.01 1.5-3.14.98 3.57 3.06 6.09 6.83 7.26z"/><path d="m76.25 243.64c-.99-3.49-2.89-5.78-6.3-6.78 3.4-1.01 5.3-3.29 6.28-6.75 1.01 3.39 2.87 5.76 6.34 6.74-3.42 1.01-5.33 3.29-6.32 6.79z"/><path d="m443.58 178.05c.81 2.71 2.27 4.49 4.94 5.4-2.57.94-4.14 2.64-4.9 5.4-.9-2.66-2.34-4.54-5.05-5.37 2.65-.88 4.17-2.65 5.01-5.43z"/><path d="m352.72 305.19c.85 2.7 2.31 4.54 5 5.38-2.61.9-4.16 2.64-4.97 5.41-.85-2.66-2.29-4.48-4.98-5.37 2.64-.93 4.17-2.69 4.95-5.42z"/><path d="m249.17 304.57c2.58-1.27 3.38-2.14 4.49-4.94.62 1 1.17 2.05 1.87 2.99.72.95 1.74 1.57 2.89 1.89-.98.72-2.06 1.31-2.85 2.16-.77.83-1.26 1.93-1.83 2.85-.55-.89-1.02-1.98-1.79-2.81-.76-.84-1.82-1.42-2.78-2.14z"/><path d="m305.16 192.4c-2.72.95-4.19 2.73-5 5.4-.82-2.69-2.32-4.47-4.97-5.39 2.67-.91 4.14-2.67 4.94-5.35.85 2.56 2.22 4.43 5.03 5.34z"/><path d="m255.85 291.16c-.77-2.56-2.24-4.29-4.88-5.22 2.6-.93 4.11-2.65 4.91-5.39.86 2.64 2.28 4.47 4.81 5.31-3.12 1.66-3.45 2.24-4.84 5.3z"/><path d="m246 310.13c-2.72.94-4.18 2.73-4.99 5.35-.85-2.62-2.3-4.47-5.03-5.33 2.72-.9 4.17-2.69 5.01-5.33.85 2.58 2.25 4.43 5.01 5.31z"/><path d="m97.13 233.81c.81 2.73 2.28 4.49 4.95 5.4-2.61.95-4.14 2.66-4.92 5.42-.85-2.65-2.28-4.48-4.99-5.4 2.66-.93 4.13-2.69 4.96-5.42z"/><path d="m135.72 192.88c2.5-.86 3.95-2.6 4.78-5.27.88 2.62 2.29 4.43 4.95 5.31-2.55.94-4.08 2.62-4.86 5.24-.42-.86-.69-1.58-1.11-2.2-.45-.65-.98-1.27-1.59-1.77-.6-.49-1.34-.82-2.17-1.31z"/><path d="m318.17 176.7c.74 2.06 2 3.52 4.19 4.37-2.18.86-3.47 2.29-4.15 4.62-.77-2.24-1.94-3.79-4.23-4.58 2.18-.88 3.52-2.31 4.19-4.41z"/></g></g></g></svg>