<svg id="Слой_1" enable-background="new 0 0 500 500" height="512" viewBox="0 0 500 500" width="512" xmlns="http://www.w3.org/2000/svg"><g><path d="m490.93 171.37c-.3-.15-.59-.29-.88-.44-1.28-.64-2.87-1.44-4.87-2.15-1.22-.44-2.48-.72-3.75-.85-3.57-.92-8.4-2.03-10.75-2.57-11.74-2.66-13.01-2.66-14.63-2.66-.53 0-1.07.03-1.59.08-5.99.58-11.14 4.46-13.36 10.05l-.15.39c-2.53-5.79-6.55-9.01-10.01-10.78-2.67-1.59-5.57-2.39-8.61-2.39-1.96 0-3.92.35-5.77 1.03-4.65 1.46-13.64 4.78-15.49 5.47-4.16 1.54-7.13 2.67-9.3 3.55-.51-.24-1.02-.47-1.55-.66-5.58-2.67-11.55-4.02-17.77-4.02-.67 0-1.34.02-2.01.05-4.22.2-8.24.92-12.04 2.17-.36-.19-.74-.38-1.15-.57-.49-.24-1-.46-1.52-.65-.07-.03-.15-.06-.23-.09-1.81-.67-3.7-1-5.58-1-.92 0-1.84.08-2.75.24l-28.45 1.34c-1.71.08-3.33.43-4.85.99-4.99-1.79-10.31-2.49-14.37-2.49-.69 0-1.38.02-2.05.06-4.08.23-7.97.95-11.65 2.15l-.18-.11c-2.53-1.52-5.39-2.29-8.26-2.29-1.15 0-2.29.12-3.42.37l-27.74 1.31c-2.85.13-5.52 1.02-7.8 2.46-.09-.03-.17-.06-.26-.09-1.65-.56-3.4-.86-5.17-.86-.26 0-.52.01-.79.02l-27.82 1.37c-1.34.07-2.63.29-3.85.66-.62-.2-1.25-.38-1.88-.55 5.58-2.61 9.26-8.25 9.24-14.56-.02-6.91-4.46-13.01-10.97-15.17-.02-.07-.04-.14-.06-.22-1.85-7.05-8.22-11.96-15.5-11.96-.02 0-.05 0-.07 0-7.31.03-13.67 5.01-15.47 12.1-.01.04-.02.08-.03.12-5.1 1.71-8.92 5.83-10.33 10.86-.39-1.99-1.19-4.42-2.84-6.86-2.68-3.93-6.23-5.79-7.74-6.58-.05-.02-.09-.05-.14-.07-1.04-.62-2.03-1.05-2.88-1.36-.79-.31-1.61-.56-2.45-.74-1.25-.3-2.52-.45-3.79-.45-.63 0-1.26.04-1.89.11-2.06.08-4.13.16-6.19.24-5.16.2-10.5.42-15.73.6-6.87.24-12.72 4.1-15.65 10.34-2.33 4.96-4.74 10-7.07 14.89 0 0-3.94 8.24-5.64 11.82-2.4-5.69-4.79-11.37-7.19-17.06-.91-2.16-2.05-4.85-4.48-7.48-2.49-2.68-5.1-3.99-7.22-5.05-2.2-1.1-4.08-1.44-4.88-1.59l-.04-.01c-1.13-.25-2.27-.37-3.4-.37-.78 0-1.55.06-2.32.17-1.73.1-3.46.2-5.2.29l-5.69.31c-3.89.21-7.78.42-11.67.63-1.03.06-1.88.18-2.38.26l-.18.03c-7.09.91-12.73 6.41-13.81 13.48l-14.79 96.45c-.64 4.22.42 8.52 2.96 11.95 1.49 2.02 3.43 3.64 5.63 4.76 1.82 1.26 4.91 3.13 9.19 3.77 8.94 1.34 18.02 2.67 26.8 3.96l.05.01c-2.82 2.85-4.54 6.72-4.63 10.93-.14 6.58 3.74 12.53 9.72 15.08 2.04 6.74 8.26 11.37 15.34 11.37h.1c5.25-.03 10-2.61 12.92-6.68 1.69 6.06 6.86 10.75 13.38 11.6 1.19.15 2.7.63 4.87 3.03 1.88 2.08 2.86 4.12 3.17 6.62 1 8.03 7.82 14.05 15.91 14.05h.06c8.11-.03 14.92-6.12 15.86-14.18.28-2.39 1.24-4.39 3.13-6.49.35-.39.69-.73 1.01-1.03.38 10.24.95 24.89 1.3 30.42-.01.66.03 1.33.1 2 .22 1.98.81 3.87 1.71 5.59 1.56 3.07 4.04 5.51 7.02 7.03.11.07.2.14.26.18 3.23 2.32 7.06 3.55 11.08 3.55.4 0 .81-.01 1.21-.04 5.18-.31 10.36-.6 15.54-.89 2.61-.15 5.23-.3 7.84-.45 1.06-.06 1.92-.2 2.38-.27l.09-.02c3.39-.48 6.42-2 8.77-4.21.6.37 1.22.7 1.86.99.5.32 1.05.65 1.65.99 2.93 1.62 6.19 2.49 9.41 2.5 3.58.01 7.16.02 10.73.02 4.08 0 8.16-.01 12.24-.01h1.83c1.05 0 1.89-.08 2.39-.13l.11-.01c3.58-.28 6.83-1.73 9.36-3.97.55.32 1.12.6 1.71.86 2.9 1.89 6.24 3.03 9.96 3.39 5.21.52 10.53 1.07 15.67 1.61 2.25.23 4.49.47 6.74.7.83.09 1.62.15 2.38.21.33.03.66.05 1.02.08.46.04.91.06 1.37.06 3.85 0 7.59-1.39 10.52-3.93 2.32-2.02 3.99-4.64 4.85-7.54 1.34.85 2.71 1.64 4.11 2.36 8.32 5.14 17.67 7.75 27.78 7.75 3.56 0 7.24-.33 10.95-.98 11.91-2.1 22.99-7.94 32.93-17.38.9-.85 1.53-1.63 1.98-2.22 1.7-2.14 2.78-4.61 3.24-7.17.81.38 1.67.69 2.56.93.19.05.33.1.42.14.11.21.3.66.5 1.46 1.75 7.18 8.18 12.23 15.57 12.23 7.39 0 13.82-5.05 15.57-12.23.2-.82.4-1.27.5-1.47.1-.04.27-.11.51-.17 6.93-1.93 11.73-8.24 11.73-15.44s-4.79-13.51-11.72-15.44c-.25-.07-.42-.13-.52-.18-.1-.2-.3-.65-.51-1.48-.79-3.24-2.54-6.05-4.9-8.15v-.45c1.36.81 2.78 1.48 4.18 1.96.55.19 1.09.37 1.64.56 1.39.47 2.82.97 4.29 1.45 6.24 2.04 12.49 4.06 18.73 6.08l.23.07c.81.26 1.48.43 1.93.54.08.02.17.04.27.07 1.36.35 2.72.52 4.06.52 6.57 0 12.67-4.07 15.04-10.5l41.21-112.05c2.83-7.75-.67-16.39-8.1-19.98z" fill="#fff"/><g><g fill="#76554d"><path d="m114.66 154.06c6.99-.29 13.89-.58 20.9-.87 0-.73 0-1.35 0-2.14.42.14.73.18.98.33.96.59 2.19 1.01 2.77 1.87.55.8.44 2.07.57 3.14.92 7.9 1.83 15.81 2.75 23.71 1.24 10.61 2.51 21.22 3.75 31.83.93 7.9 1.83 15.81 2.75 23.71.79 6.78 1.61 13.56 2.4 20.33.04.31 0 .64 0 1.07-2.2.41-4.36.81-6.52 1.21-8.66 1.56-17.32 3.1-25.97 4.7-1.09.2-2.02.13-2.91-.56-.66-.51-1.39-.92-2.34-1.53 1.28-.54 2.31-.98 3.35-1.42-1.05-14.99-1.98-29.85-3.01-44.7-.1-.01-.2-.02-.3-.03-.21.4-.44.8-.64 1.21-5.49 11.67-10.99 23.34-16.44 35.03-.48 1.04-1.07 1.43-2.21 1.47-6.12.22-12.23.51-18.34.83-1.16.06-2.13-.15-3-.9-.6-.53-1.52-.71-1.89-1.67.66-.03 1.22-.06 1.95-.1-6.09-11.66-12.1-23.15-18.11-34.65-.12.02-.23.04-.35.07-1.06 15.36-1.94 30.74-2.99 46.23-.57-.03-1.02-.02-1.47-.08-10.01-1.47-20.02-2.93-30.03-4.43-1.61-.24-2.75-1.4-4.06-2.22.03-.11.06-.22.09-.34.56-.04 1.12-.11 1.67-.1.59.01 1.19.09 1.89.14 4.8-31.46 9.59-62.8 14.39-94.26 7.44-.42 14.76-.84 21.99-1.25.6-.69.46-1.35-.13-2.21.64.14.91.15 1.13.26 2.84 1.43 2.85 1.43 4.12 4.44 7.5 17.78 14.99 35.56 22.48 53.34.18.43.39.84.72 1.56 5.13-10.7 10.09-21.18 15.09-31.65 5.01-10.44 9.99-20.89 14.97-31.37z"/><path d="m281.36 355.98c-1.16-.1-2.14-.17-3.11-.27-7.49-.78-14.98-1.58-22.47-2.32-1.21-.12-2.28-.43-3.23-1.19-.54-.43-1.12-.81-1.6-1.48h3.31c.13-.99.25-1.86.35-2.73 1.02-9.36 2.04-18.73 1.84-28.17-.07-3.3-.43-6.58-1.41-9.75-.72-2.32-1.85-4.4-3.67-6.09-3.33-3.1-7.28-3.72-11.58-2.97-2.77.48-5.28 1.66-7.69 3.08-.45.26-.5.61-.44 1.07 1.72 13.42 1.11 26.88.62 40.34-.07 2.02-.16 4.05-.24 6.07-.02.47-.08.93-.12 1.51-.45.04-.86.09-1.26.1-8.24.01-16.48.02-24.72 0-.57 0-1.19-.21-1.7-.49-.92-.51-1.77-1.15-2.89-1.89 1.41-.48 2.54-.4 3.72-.4.08-.24.18-.44.21-.66.95-8.33 1.9-16.65 2.03-25.04.06-3.72.08-7.44-.57-11.13-.39-2.23-.96-4.41-1.89-6.49-1.93-4.31-6.23-7.2-11.48-6.13-3.51.71-6.52 2.34-9.04 4.88-.56.57-.78 1.21-.8 2.02-.47 14.4-.96 28.8-1.45 43.2-.02.65-.08 1.3-.12 2.02-.44.06-.8.14-1.16.16-7.8.45-15.61.88-23.41 1.34-.74.04-1.37-.08-1.98-.52-.75-.54-1.55-1.02-2.43-1.6.93-.98 2.09-.75 3.23-1.07-.81-23.19-1.63-46.42-2.44-69.76.52-.06.93-.13 1.33-.15 7.52-.37 15.05-.73 22.57-1.1 1.87-.09 1.87-.1 2.49-1.84.06-.16.16-.31.3-.58 1.22.52 2.23 1.28 3.24 2.01.23.16.29.67.29 1.01 0 1.6-.06 3.2-.09 4.8-.01.46 0 .92 0 1.62.57-.33.96-.54 1.34-.78 4.87-3.08 10.06-5.29 15.8-6.15 5.08-.76 10.05-.4 14.89 1.32 3.22 1.14 5.93 3.04 8.19 5.59.28.32.57.62.86.93.03.03.08.04.23.11.38-.2.83-.43 1.28-.67 5.84-3.11 11.89-5.68 18.41-7 6.62-1.34 13.14-.68 19.46 1.56 6.16 2.18 10.53 6.4 13.38 12.26 2.55 5.25 3.76 10.83 4.15 16.6.63 9.22.48 18.45.15 27.67-.17 4.75-.34 9.51-.52 14.26-.04.93-.1 1.86-.16 2.89z"/><path d="m479.6 185.04c.06-.36.11-.66.19-1.16 1.46.52 2.74 1.24 4.18 1.93-13.76 37.4-27.47 74.69-41.21 112.05-.52-.14-.92-.22-1.31-.35-6.31-2.04-12.62-4.09-18.92-6.15-1.92-.63-3.83-1.29-5.74-1.94-1.09-.37-2.67-1.48-3.25-2.41 1.31.29 2.45.54 3.66.81.13-.28.3-.6.43-.94 4.12-10.41 8.22-20.83 12.37-31.23.36-.9.21-1.58-.18-2.39-10.36-21.23-20.7-42.47-31.04-63.71-.2-.42-.39-.85-.67-1.45 4.11-1.63 8.23-3.03 12.31-4.52 4.06-1.48 8.12-2.96 11.99-4.37.81-1.27-.59-2-.45-3.02.6-.31.91.18 1.31.35 1.85.79 2.76 2.17 3.38 4.13 4.61 14.48 9.35 28.92 14.06 43.37.2.62.42 1.24.77 1.89 2.18-4.93 4.1-9.96 6.08-14.95 2.02-5.07 4.02-10.15 6.03-15.22 1.99-5.03 3.98-10.06 6.03-15.25 6.69 1.41 13.29 3.06 19.98 4.53z"/><path d="m208.8 193.22c0-1.93 0-3.57 0-5.41 7.91-.47 15.87-.75 23.87-1.23 0-.78 0-1.36 0-2.05.27.02.52.04.77.07.09.01.16.09.24.14.92.56 2.19.93 2.66 1.75.47.8.17 2.07.13 3.13-.4 10.87-.81 21.74-1.23 32.6-.32 8.14-.66 16.28-.99 24.42-.12 2.92-.23 5.83-.35 8.75-.02.46-.06.93-.09 1.45-.52.08-.98.18-1.44.21-3.99.22-7.99.42-11.98.65-2.87.16-5.73.34-8.59.55-.89.06-1.66-.11-2.39-.62-.62-.43-1.3-.76-1.93-1.17-.2-.13-.33-.38-.63-.74 1.27-.1 2.33-.19 3.52-.28-.08-1.7-.15-3.31-.23-5.2-.41.4-.6.58-.79.77-3.98 4.04-8.85 6.21-14.44 7-17.69 2.49-33.5-9.77-37.31-26.66-2.47-10.96-.98-21.35 5.62-30.7 5.4-7.64 12.81-12.21 21.99-13.79 6.22-1.07 12.27-.35 18.01 2.43 2.02.96 3.82 2.21 5.58 3.93zm-1.97 29.81c-.05-5.72-3.28-10.48-8.48-12.52-2.97-1.17-6-1.09-9-.28-10.73 2.89-12.02 14.99-6.5 21.03 3.54 3.86 8.12 5.14 13.21 4.42 6.05-.85 10.82-6.55 10.77-12.65z"/><path d="m361.97 315.65c-13.48 3.4-26.82 6.76-40.45 10.19.65.85 1.09 1.57 1.66 2.15 2.27 2.29 5.04 3.54 8.22 4 6.61.95 12.45-1.01 17.97-4.56-.66-.96-1.29-1.88-2.02-2.95.38.03.65-.02.84.09 1.82 1 3.46 2.14 4.73 3.88 2.62 3.57 5.43 6.99 8.15 10.48.29.36.55.74.85 1.15-.19.23-.32.43-.48.58-7.02 6.66-15.11 11.53-24.67 13.21-12.59 2.22-24.12-.44-33.67-9.33-6.99-6.5-10.52-14.79-11.29-24.26-.37-4.48-.19-8.95.96-13.32 1.42-5.41 3.99-10.23 7.61-14.5 5.78-6.83 13.27-10.49 21.98-11.88 5.51-.88 10.99-.68 16.36.91s9.94 4.5 13.54 8.8c2.61 3.12 4.65 6.61 6.18 10.4 1.7 4.22 2.8 8.58 3.38 13.08.06.55.09 1.11.15 1.88zm-42.59-3.63c7.13-1.41 14-2.77 20.95-4.15-.3-1.68-.89-2.93-2.06-3.93-2.8-2.4-5.97-3.09-9.6-2.5-4.34.71-8 3.93-8.9 8.32-.14.67-.24 1.34-.39 2.26z"/><path d="m277.08 183.61c.08-.73.16-1.42.27-2.36 1.33.8 2.48 1.49 3.75 2.25-.17 3.62-.35 7.26-.54 11.25.52-.56.83-.88 1.12-1.22 4.43-5.32 10.08-8.54 16.87-9.76 3.81-.68 7.6-.4 11.34.55.53.13 1.04.43 1.63.1.15-.08.46.03.65.13 1.02.58 2.02 1.18 3.19 1.87-3.23 7.18-6.45 14.32-9.68 21.51-.26-.05-.46-.04-.61-.12-5.08-2.75-10.4-2.89-15.92-1.67-3.12.69-5.83 2.05-8.26 4.09-.66.56-.96 1.16-.99 2.05-.35 9.6-.75 19.2-1.14 28.8-.19 4.66-.38 9.32-.58 13.97-.02.46-.09.91-.15 1.43-1.34.06-2.56.13-3.77.18-6.4.26-12.8.49-19.2.78-.94.04-1.74-.12-2.51-.66-.53-.38-1.15-.65-1.7-1-.25-.16-.44-.41-.85-.8 1.24-.16 2.21-.28 3.29-.42-1-23.19-2-46.32-3.01-69.65 8.91-.48 17.73-.81 26.8-1.3z"/><path d="m322.84 255.04c1.09-.08 2.03-.15 3.17-.24-1-23.27-2-46.52-3.01-69.9 9.05-.43 17.91-.85 26.9-1.28 0-.77 0-1.43 0-2.26 1.5.56 2.56 1.49 3.88 2.21-.16 3.59-.32 7.19-.48 10.79.08.03.16.07.23.1.3-.32.62-.64.91-.98 4.38-5.22 9.94-8.41 16.62-9.65 3.86-.71 7.68-.44 11.48.48.52.13 1.08.08 1.62.13.22.02.48 0 .66.11 1.05.61 2.08 1.24 3.23 1.94-3.24 7.2-6.44 14.31-9.66 21.47-.29-.07-.53-.08-.71-.18-4.94-2.66-10.13-2.82-15.51-1.68-3.16.67-5.96 1.97-8.43 4.05-.75.63-1.09 1.3-1.13 2.28-.18 5.46-.42 10.91-.64 16.37-.37 8.94-.74 17.87-1.11 26.81-.01.23-.06.46-.11.8-.35.06-.71.15-1.06.17-7.34.3-14.68.57-22.01.9-.99.04-1.84-.13-2.64-.7-.53-.38-1.13-.68-1.67-1.05-.21-.16-.32-.41-.53-.69z"/></g><path d="m135.97 151.14c4.06 34.61 8.1 69.09 12.16 103.77-11.43 2.07-22.74 4.11-34.28 6.16-1.09-16.24-2.17-32.36-3.24-48.48-.09-.03-.18-.06-.26-.08-.2.39-.43.76-.61 1.16-5.45 11.59-10.89 23.18-16.34 34.76-.12.26-.27.5-.36.77-.25.78-.78 1.07-1.59 1.09-1.79.04-3.57.16-5.36.24-4.52.21-9.03.42-13.55.63-.42.02-.84 0-1.38 0-6.51-12.45-13.02-24.9-19.53-37.36-.1.01-.2.03-.3.04-.43 3.79-.51 7.61-.79 11.41-.28 3.9-.49 7.8-.73 11.7-.25 3.85-.51 7.7-.76 11.56-.25 3.84-.49 7.68-.75 11.72-10.8-1.58-21.44-3.14-32.28-4.73 4.92-32.19 9.83-64.27 14.75-96.46.5-.06.95-.15 1.41-.18 5.78-.32 11.57-.63 17.35-.94 1.93-.1 3.86-.21 5.78-.32 1.44-.09 1.44-.09 1.97 1.17 2.11 4.99 4.21 9.97 6.31 14.96 4.55 10.8 9.1 21.6 13.66 32.4 1.08 2.56 2.19 5.1 3.29 7.65.13.3.29.58.55 1.1.33-.65.59-1.12.82-1.6 7.02-14.69 14.04-29.39 21.06-44.08 2.56-5.35 5.11-10.7 7.63-16.07.37-.78.82-1.1 1.7-1.13 7.34-.25 14.68-.56 22.02-.85.52-.02 1.02-.01 1.65-.01z" fill="#ed7474"/><path d="m221.69 286.29c.37-.2.78-.42 1.19-.64 5.58-3 11.37-5.49 17.57-6.84 7.22-1.58 14.34-1.01 21.22 1.71 6.49 2.57 10.77 7.38 13.4 13.77 1.75 4.27 2.73 8.71 3.14 13.28.79 8.6.68 17.21.42 25.83-.19 6.31-.46 12.61-.7 18.91-.02.51-.06 1.01-.11 1.7-9.14-.83-18.13-1.9-27.29-2.81.04-.66.06-1.21.11-1.75.68-7.17 1.46-14.33 2.02-21.51.38-4.93.51-9.89-.14-14.81-.25-1.9-.71-3.79-1.24-5.64-.31-1.07-.85-2.1-1.44-3.05-2.81-4.52-6.98-6.25-12.16-5.74-3.14.31-6.03 1.4-8.71 3.08-.6.38-.93.75-.82 1.58 1.18 8.61 1.24 17.27 1.03 25.94-.17 6.92-.45 13.83-.69 20.75-.01.32-.07.64-.11 1.04-8.98 0-17.9 0-26.97 0 .04-.52.05-.97.1-1.41 1.1-9.12 2.09-18.24 2.28-27.43.09-4.24.04-8.49-1.01-12.63-.46-1.81-1.06-3.63-1.9-5.29-2.3-4.56-6.25-6.39-11.26-5.43-3.39.65-6.24 2.27-8.65 4.73-.7.72-1 1.51-1.03 2.52-.18 6.73-.41 13.46-.64 20.19-.27 7.91-.54 15.81-.82 23.72-.01.32-.06.64-.11 1.13-8.48.47-16.92.94-25.34 1.41-.35-1.03-2.92-70.99-2.68-73.16 9.94-.58 19.93-.97 30.02-1.44v7.26c.62-.36 1.05-.59 1.47-.86 4.08-2.6 8.43-4.59 13.18-5.61 5.57-1.19 11.12-1.17 16.59.61 3.63 1.18 6.67 3.22 9.17 6.1.18.21.37.43.57.63.08.06.18.08.34.16z" fill="#ed7474"/><path d="m422.2 176.12c5.21 15.93 10.39 31.79 15.58 47.64.1.01.2.03.3.04 2.04-4.96 3.96-9.97 5.95-14.94 2.01-5.02 4.02-10.05 6.01-15.08 2-5.03 3.98-10.06 5.96-15.05 1.14-.11 22.8 4.84 24.25 5.54-13.66 37.1-27.33 74.21-41.05 111.47-8.76-2.62-17.26-5.75-26.04-8.53.24-.64.42-1.15.62-1.66 4.18-10.59 8.35-21.19 12.57-31.76.4-1.01.34-1.81-.13-2.77-6.97-14.25-13.9-28.51-20.85-42.77-3.4-6.98-6.83-13.95-10.24-20.92-.16-.33-.32-.68-.47-1 .93-.76 22.65-8.81 27.54-10.21z" fill="#ed7474"/><path d="m205.12 191.15c0-1.88 0-3.52 0-5.35 9.21-.45 18.44-.9 27.82-1.37-.92 23.54-1.84 46.88-2.76 70.37-7.84.46-15.56.92-23.37 1.39-.12-2.68-.23-5.24-.35-8.1-.45.47-.7.73-.95.98-3.62 3.58-7.98 5.73-12.98 6.63-18.06 3.24-34.52-8.97-38.61-26.41-1.59-6.77-1.65-13.61.52-20.22 4.33-13.18 13.22-21.55 27.02-24.16 5.89-1.12 11.7-.46 17.25 2.01 2.08.92 4 2.08 5.68 3.63.2.17.41.33.73.6zm-14.93 42.53h1.69c.19 0 .38-.02.56-.06 5.4-1.31 9.16-4.48 10.37-9.97 1.19-5.37-.51-9.98-4.87-13.41-3.88-3.05-8.32-3.3-12.86-1.95-4.7 1.4-7.82 4.6-8.77 9.42-.97 4.92.18 9.37 4.2 12.73 2.8 2.33 6.09 3.29 9.68 3.24z" fill="#ed7474"/><path d="m358.58 313.63c-13.59 3.42-26.94 6.79-40.31 10.16.18 1.11.86 1.73 1.49 2.34 2.42 2.36 5.36 3.54 8.7 3.95 6.7.82 12.51-1.41 17.96-4.98.35-.23.69-.48 1.19-.82 3.62 4.61 7.21 9.19 10.82 13.79-.23.28-.39.52-.59.71-7 6.61-15.05 11.45-24.57 13.13-12.59 2.22-24.1-.46-33.69-9.31-6.05-5.59-9.51-12.67-10.87-20.77-1-5.97-.83-11.91.78-17.78 1.11-4.04 2.94-7.73 5.35-11.15 6.24-8.84 14.96-13.36 25.51-14.62 5.43-.65 10.82-.35 16.03 1.48 5.82 2.04 10.56 5.57 14.08 10.63 3.44 4.93 5.66 10.4 6.89 16.27.49 2.25.81 4.52 1.23 6.97zm-21.85-7.72c-.05-.44-.05-.77-.14-1.07-.44-1.44-1.31-2.59-2.48-3.52-2.71-2.15-5.79-2.5-9.09-1.97-3.93.64-6.53 2.95-8.15 6.45-.59 1.27-.92 2.62-.9 4.21 6.98-1.37 13.83-2.73 20.76-4.1z" fill="#ed7474"/><path d="m319.46 182.92c10.28-.49 20.42-.96 30.73-1.45.13 1.89-.12 3.7-.18 5.51-.07 1.81-.16 3.62-.11 5.53 5.52-6.8 12.56-10.62 21.27-11.03 4.62-.21 9.07.72 13.34 3.03-3.25 7.21-6.46 14.35-9.69 21.54-.4-.16-.67-.24-.91-.36-4.4-2.29-9.03-2.69-13.87-1.84-3.1.55-6.03 1.47-8.63 3.29-.27.19-.53.4-.8.57-1.08.68-1.49 1.6-1.54 2.92-.42 11.58-.91 23.15-1.38 34.73-.1 2.45-.19 4.89-.3 7.34-.02.51-.09 1.01-.15 1.69-8.19.34-16.31.68-24.63 1.03-1.05-24.19-2.1-48.25-3.15-72.5z" fill="#ed7474"/><path d="m311.76 184.62c-3.23 7.16-6.43 14.27-9.66 21.44-.4-.17-.66-.25-.9-.38-4.4-2.28-9.03-2.69-13.87-1.83-3.1.55-6.03 1.47-8.63 3.29-.04.03-.08.04-.12.07-1.41.9-2.24 1.97-2.3 3.85-.32 10.59-.79 21.17-1.21 31.76-.14 3.39-.29 6.77-.44 10.16-.02.42-.08.83-.14 1.41-8.16.34-16.27.68-24.35 1.02-.35-1.22-3.43-70.77-3.21-72.5 10.1-.48 20.24-.95 30.56-1.44.05 3.69-.37 7.31-.3 11.03 5.5-6.74 12.47-10.54 21.12-11.03 4.75-.27 10.66 1.17 13.45 3.15z" fill="#ed7474"/><path d="m115.57 327.51c-.74-5.95-3.23-11.03-7.19-15.4-3.95-4.37-8.7-7.39-14.69-8.17 4.48-.45 8.25-2.36 11.61-5.15 4.94-4.09 8.18-9.27 9.71-15.51.23-.95.35-1.94.57-3.24.73 6.22 3.15 11.35 7.1 15.73 3.96 4.38 8.67 7.48 14.76 8.18-6 .78-10.77 3.8-14.73 8.2-3.94 4.38-6.45 9.45-7.14 15.36z" fill="#f7d86e"/><path d="m368.79 256.36c9.66-2.43 14.87-8.97 16.91-18.32 2.01 9.35 7.25 15.87 16.8 18.29-9.53 2.38-14.72 8.89-16.81 18.31-.05-.13-.15-.34-.2-.56-.07-.27-.09-.56-.15-.83-1.77-7.44-6.05-12.83-13.12-15.89-1.09-.47-2.29-.68-3.43-1z" fill="#f7d86e"/><path d="m409.05 328.34c-6.96 1.94-10.66 6.62-12.29 13.28-1.63-6.7-5.36-11.4-12.31-13.28 6.94-1.87 10.68-6.57 12.31-13.3 1.63 6.68 5.32 11.36 12.29 13.3z" fill="#f7d86e"/><path d="m191.82 155.39c-5.8 1.69-8.98 5.54-10.47 11.34-1.53-5.69-4.64-9.65-10.5-11.31 5.78-1.69 8.99-5.55 10.46-11.38 1.51 5.75 4.66 9.68 10.51 11.35z" fill="#f7d86e"/><path d="m65.22 279.37c1.26 4.82 4.13 8 9.03 9.42-4.86 1.69-7.74 5-9.02 10.1-1.33-5.02-4.11-8.41-9.03-10.08 4.85-1.42 7.77-4.62 9.02-9.44z" fill="#f7d86e"/></g></g></svg>