<svg id="Слой_1" enable-background="new 0 0 500 500" height="512" viewBox="0 0 500 500" width="512" xmlns="http://www.w3.org/2000/svg"><g><path d="m240.29 455.82c-20.49-.76-32.22-13.96-37.85-20.31-13.18-14.84-30.57-27.26-48.99-40.41l-.5-.35c-3.73-2.67-7.47-5.33-11.21-7.99-19.37-13.79-39.4-28.04-58.84-43.13-33.14-25.72-55.83-54.43-69.36-87.77-21.56-53.12-17.3-105.84 12.3-152.48 20.61-32.47 53.05-52.45 93.83-57.78 9.36-1.22 18.76-1.67 27.96-1.33 35.53 1.31 69.49 14.26 100.94 38.47 1.86 1.43 3.65 2.88 5.37 4.35 22.95-16.35 47.91-27.14 74.53-32.17 12.37-2.34 24.69-3.3 36.62-2.85 18.89.7 37.11 4.89 54.16 12.45 41.54 18.42 68.31 53.04 77.43 100.13 9.63 49.76-1.74 96.2-33.78 138.03-18.08 23.59-41.12 43.84-70.45 61.92-12.11 7.46-24.4 14.93-36.3 22.15-10.6 6.44-21.56 13.09-32.26 19.66-17.54 10.78-31.85 19.92-43.11 31.26-1.28 1.29-2.4 2.27-3.23 2.96-6.64 5.75-18.65 15.88-37.26 15.19z" fill="#fff"/><g><path d="m250.58 146.37c3.38-3.15 5.1-4.68 6.75-6.29 22.31-21.8 48.18-37.18 79.11-43.02 22.4-4.23 44.54-2.61 65.44 6.66 29.97 13.29 46.57 37.36 52.7 69.07 7.46 38.55-2.08 72.94-25.72 103.79-16.17 21.11-36.41 37.63-58.91 51.49-22.77 14.03-45.72 27.78-68.51 41.79-18.07 11.1-36.01 22.4-51.09 37.58-.19.19-.4.34-.6.52-7.7 6.71-8.25 6.97-15.25-.91-16.52-18.61-36.57-32.86-56.63-47.19-23.06-16.47-46.3-32.73-68.68-50.1-24.14-18.74-44.26-41.31-55.92-70.02-15.85-39.06-14.02-77.47 8.77-113.37 14.43-22.73 36.53-34.76 63.18-38.24 36.59-4.78 68.61 6.6 97.18 28.6 9.17 7.06 17 15.86 25.3 24.02 1.27 1.22 1.73 3.28 2.88 5.62z" fill="#a2dae4"/><g fill="#f4fafa"><path d="m95.72 219.07c.31 5.58-1.33 10.44-4.83 14.73-4.06 4.98-8.4 5.81-13.83 2.16-7.21-4.85-10.69-12.4-12.93-20.29-4.02-14.15-2.33-28.29 2.03-42.09.9-2.86 2.93-5.73 5.2-7.73 5.74-5.08 13.69-3.38 17.4 3.35.76 1.37 1.54 2.87 1.74 4.38 1.86 13.85 3.61 27.72 5.33 41.59.16 1.31-.07 2.65-.11 3.9z"/><path d="m107.63 131.55c-.4 6.43-7.62 16.13-13.7 18.13-3.65 1.2-7.4 1.16-10.48-1.42-3.14-2.63-3.76-6.33-2.77-10.11 1.89-7.21 6.05-12.88 12.8-16.2 7.61-3.74 14.68 1.17 14.15 9.6z"/></g></g></g></svg>