<svg id="Слой_1" enable-background="new 0 0 500 500" height="512" viewBox="0 0 500 500" width="512" xmlns="http://www.w3.org/2000/svg"><g><g fill="#fff"><path d="m485.3 346.72c-3.65 0-6.61-2.96-6.61-6.61 0-.81-.66-1.47-1.47-1.47-3.65 0-6.61-2.96-6.61-6.61v-.01c0-3.65 2.96-6.61 6.61-6.61.81 0 1.47-.66 1.47-1.47 0-3.65 2.96-6.61 6.61-6.61h.01c3.65 0 6.61 2.96 6.61 6.61 0 .81.66 1.47 1.47 1.47 3.65 0 6.61 2.96 6.61 6.61v.01c0 3.65-2.96 6.61-6.61 6.61-.81 0-1.47.66-1.47 1.47 0 3.65-2.96 6.61-6.61 6.61z"/><path d="m485.31 323.93h-.01c0 4.46-3.62 8.08-8.08 8.08v.01c4.46 0 8.08 3.62 8.08 8.08h.01c0-4.46 3.62-8.08 8.08-8.08v-.01c-4.46 0-8.08-3.61-8.08-8.08z"/><path d="m239.79 374.82c-2.76 0-5.42-.71-7.67-2.05-2.38-1.42-4.27-3.51-5.47-6.05-.66-1.41-1.12-3.02-1.32-4.66-.01-.11-.03-.22-.04-.33h-24.24c-.86 1.59-1.96 2.97-3.28 4.12-1.52 1.32-3.28 2.29-5.18 2.86-2.52 2.21-5.7 3.4-9.2 3.4-.18 0-.36 0-.54-.01-5.66-.19-10.22-3.29-12.49-8.49-.28-.63-.51-1.26-.72-1.88h-32.88c-2 1.7-4.07 3.1-6.28 4.26-1.12.59-2.27 1.11-3.43 1.54-3.68 2.32-7.61 3.79-11.69 4.37-1.38.2-2.77.3-4.13.3-5.59 0-10.94-1.65-15.92-4.91-2.32-1.52-4.48-3.35-6.53-5.56h-.64c-2 3.35-5.23 5.66-9.29 6.55-2.38 1.9-5.33 3.03-8.4 3.18-1.94.09-3.89.15-5.77.21-1.04.03-2.12.07-3.16.1-1.99.07-3.98.15-5.96.22-1.25.05-2.5.1-3.75.14l-.44.02c-1.31.05-2.66.1-4 .14-.9.03-1.79.05-2.69.07-1.17.03-2.38.06-3.56.1-1.96.07-3.95.14-5.89.21-1.3.05-2.6.1-3.91.14-1.18.04-2.37.08-3.55.12-.54.02-1.09.04-1.63.05-.18.02-.37.02-.56.02-3.77 0-7.24-1.3-10.04-3.75-1.32-1.15-2.35-2.16-3.24-3.17-2.46-2.78-3.7-6.3-3.69-10.46.01-3.4 0-6.86-.01-10.21-.01-2.15-.01-4.37-.02-6.56-.02-18.48-.03-36.95-.05-55.43l-.01-8.99c0-.25 0-.5 0-.75-.01-.79-.02-1.68.03-2.62.25-4.71 2.67-8.88 6.32-11.42v-38.99c-2.04-1.12-3.43-3.3-3.43-5.79 0-2.67-2.17-4.84-4.84-4.84-3.65 0-6.61-2.96-6.61-6.61v-.02c0-3.65 2.96-6.61 6.61-6.61 2.67 0 4.84-2.17 4.84-4.84 0-3.65 2.96-6.61 6.61-6.61h.02c3.24 0 5.93 2.33 6.5 5.4h12.84c.12-.99.32-2.02.6-3.06 1.04-3.81 3.53-6.8 7.02-8.42.57-.26 1.15-.48 1.74-.66 2.06-1.36 4.46-2.1 6.94-2.1 5.43 0 10.23 3.5 11.95 8.71.49 1.5.74 3.13.72 4.85 0 .22 0 .45-.01.67h3.13c.02-.31.05-.64.1-.97.63-5.17 4.28-9.42 9.16-10.9 2.1-1.39 4.57-2.14 7.13-2.14h.07c4.93.03 9.23 2.82 11.4 6.99.68-1.1 1.53-2.09 2.52-2.95 1.4-1.22 3.02-2.1 4.77-2.62 2.08-1.39 4.44-2.12 6.92-2.12 1.22 0 2.46.18 3.69.53 4.3 1.23 7.44 4.32 8.77 8.58 1.6-3.05 4.31-5.28 7.6-6.23 2.05-1.37 4.44-2.1 6.92-2.1.22 0 .44.01.66.02 3.06.16 5.85 1.41 7.97 3.4 1.1-.76 2.33-1.35 3.62-1.73 1.38-.9 2.91-1.53 4.52-1.85.91-.18 1.84-.27 2.75-.27h.04c10.73.03 21.34.07 31.55.12 4.09.02 7.93 2.13 10.29 5.42 1.09-.74 2.3-1.33 3.59-1.71 1.24-.81 2.62-1.41 4.07-1.77.99-.24 2-.36 3.02-.36 4.47 0 8.69 2.37 11.02 6.18.44.72.8 1.46 1.09 2.23 1.25-4.14 4.52-7.37 8.64-8.6 2.09-1.38 4.54-2.13 7.07-2.13.19 0 .38 0 .57.01 6.91.3 12.35 5.94 12.39 12.83 0 .72.01 1.44.01 2.16h15.99c1.03-2.31 3.35-3.92 6.04-3.92 4.09 0 7.42-3.33 7.42-7.42 0-3.65 2.96-6.61 6.61-6.61h.02c3.65 0 6.61 2.96 6.61 6.61 0 4.09 3.33 7.42 7.42 7.42 2.69 0 5.01 1.61 6.04 3.92h5.76c.24-.35.51-.68.81-.98 1.24-1.24 2.92-1.94 4.67-1.94h.02c2.28 0 4.3 1.16 5.49 2.92h22.82c-.97-1.99-1.72-3.98-2.41-5.88-1.08-2.95-1.02-6.17.17-9.29 1.75-4.62 5.49-7.38 9.99-7.38.84 0 1.69.1 2.53.3-.06-.2-.12-.41-.19-.61-1.47-4.83-3-9.83-4.11-14.99-.94-4.34-1.92-9.43-1.69-14.79.09-2.19.49-4.22 1.18-6.05.7-1.87 1.74-3.41 3.07-4.57 1.68-1.47 3.82-2.28 6.02-2.28 1.67 0 4.22.47 6.84 2.7 3.42 2.91 5.95 6.57 7.53 10.89 2.25 6.13 3.61 11.83 4.14 17.44.07.78.16 1.57.26 2.4.15 1.34.31 2.7.41 4.09 2.03-1.91 4.71-2.96 7.67-2.96.55 0 1.12.04 1.68.11 1.93.25 5.11 1.2 7.35 4.58.18-.24.36-.49.54-.73 3.67-4.85 8.43-8.69 14.15-11.42 1.82-.87 4.63-2.02 8.09-2.02h.31c3.12.06 5.86 1.13 7.92 3.08 2.11 2.01 3.3 4.75 3.44 7.93.08 1.73-.16 3.53-.71 5.37-1.23 4.14-3.53 7.82-6.82 10.93-.07.07-.15.14-.22.21 3.75 1.41 6.6 4.42 7.69 8.3.55.96.97 2.01 1.27 3.11.52 1.92.6 3.84.26 5.68.96.55 1.83 1.21 2.61 1.97 1.85 1.83 3.05 4.22 3.46 6.9.24 1.57.23 3.1-.03 4.54-.67 3.72-2.39 6.99-4.83 9.51.04.04.07.08.11.12.35.4.68.83.97 1.27l.32.28c.01 0 .01-.01.02-.01 3.83-2.83 8.14-4.46 12.81-4.84.54-.04 1.09-.07 1.61-.07 2.66 0 5.11.57 7.27 1.69 2.33 1.21 4.28 3.02 5.79 5.4 2.23 3.5 2.78 7.46 1.59 11.45-.86 2.89-2.4 5.41-4.69 7.65l7.77 6.77c1.93 1.68 3.93 3.43 5.9 5.13 1.97 1.71 3.05 4.09 3.05 6.7-.01 24.75-.01 50.11-.01 73.64h.23.02c3.65 0 6.61 2.96 6.61 6.61 0 2.23 1.81 4.04 4.04 4.04 3.65 0 6.61 2.96 6.61 6.61v.02c0 3.65-2.96 6.61-6.61 6.61-2.23 0-4.04 1.81-4.04 4.04 0 3.65-2.96 6.61-6.61 6.61h-.02c-.38 0-.75-.03-1.1-.09-1.13 2.03-3.29 3.41-5.78 3.41h-170.36c-1.48 0-2.86-.49-3.98-1.33-1.67-1.21-2.74-3.18-2.74-5.36v-1.6c-.45.97-1.02 1.89-1.69 2.75-1.6 2.05-3.71 3.61-6.07 4.53-2.39 2.22-5.47 3.55-8.74 3.73-1.78.1-3.55.15-5.27.21-.81.03-1.61.05-2.42.08-1.69.06-3.38.13-5.07.19-1.41.05-2.81.11-4.22.16l-1.01.04c-1.15.04-2.33.09-3.51.12-1.46.04-2.92.08-4.38.12-1.75.05-3.56.1-5.34.15h-.05c-1.74.05-3.39.1-5.04.19-.29-.02-.59-.01-.89-.01z"/><path d="m477.52 339.57h-.02c0 4.54-2.84 8.41-6.84 9.95 0-30.06 0-60.13.01-90.19 0-.72-.25-1.25-.77-1.7-2.03-1.77-4.06-3.54-6.1-5.31-4.7-4.1-9.4-8.19-14.1-12.29 1.57-.65 3.07-1.47 4.48-2.53 2.19-1.64 3.93-3.61 4.73-6.31.64-2.15.38-4.12-.83-6.01-2.02-3.16-4.99-4.28-8.56-3.99-3.47.28-6.62 1.5-9.42 3.57-1.45 1.07-2.71 2.27-3.82 3.57-1.86-1.62-3.72-3.24-5.58-4.86-.22-.43-.48-.83-.81-1.21-.59-.68-1.31-1.11-2.05-1.29-1.4-1.22-2.81-2.45-4.21-3.67-.28-.25-.57-.49-.85-.74 5.15-.44 9.33-4.13 10.3-9.46.14-.76.12-1.59 0-2.36-.41-2.69-2.23-4.22-4.67-4.87-1.72-.46-3.52-.65-5.38-.91.49-.33.97-.69 1.41-1.07 2.07-1.79 3.22-4.14 2.46-6.98-.24-.88-.6-1.62-1.08-2.25-.42-2.92-2.82-5.02-6.1-5.13-1.76-.06-3.27.52-4.63 1.55-.18.14-.36.27-.54.41-1.78.07-3.54.23-5.29.48-.51-.8-1.07-1.21-1.98-1.66-.64-.32-1.3-.56-1.97-.74 5.35-2.88 10.21-6.55 14.7-10.79 2.36-2.23 4.09-4.88 5.02-8 .3-1.02.49-2.13.44-3.19-.13-2.95-1.95-4.63-4.89-4.69-1.93-.04-3.71.56-5.42 1.37-4.65 2.22-8.6 5.32-11.72 9.44-3.61 4.77-6.31 10.04-8.37 15.64-.36.97-.33 2.08-.5 3.12 0 .03-.01.06-.01.09-.77.79-1.43 1.7-1.92 2.72-.06.11-.11.23-.16.34-.08.1-.17.21-.25.31-.32-.28-.64-.55-.95-.83 0-.01 0-.01 0-.02.76-4.05 1.57-8.09 2.24-12.16.41-2.46.17-4.91-.65-7.28-.58-1.67-1.55-2.98-3.44-3.23-1.95-.25-3.67.36-4.72 2.03-.8 1.26-1.45 2.69-1.83 4.13-1.2 4.64-1.24 9.15-.06 13.53-3.6 3.14-7.21 6.29-10.81 9.43-.11-1.85-.22-3.7-.32-5.55-.11-2.07.14-4.17.4-6.24.21-1.64.79-3.24 1-4.89.53-4.08 1.17-8.18 1.32-12.28.11-3.23-.42-6.49-.73-9.73-.52-5.43-1.89-10.68-3.77-15.79-1.17-3.18-3.04-5.94-5.62-8.13-2.25-1.92-4.41-1.34-5.46 1.44-.47 1.26-.7 2.66-.76 4.02-.19 4.44.61 8.78 1.54 13.11 2.39 11.1 6.87 21.64 8.7 32.89.34 2.1 1.46 4.09 1.75 6.2.28 2.07.36 4.17.43 6.26-.02.02-.04.03-.06.05-.18.15-.35.31-.53.46h-.18c-1.22-5.39-3.53-10.37-6.08-15.22-.86-1.64-2.05-3.16-3.31-4.53-.85-.93-2-1.69-3.16-2.24-2.75-1.3-4.98-.31-6.06 2.55-.59 1.54-.69 3.16-.14 4.68.81 2.23 1.67 4.48 2.82 6.55 1.68 3.03 3.81 5.74 6.22 8.21h-40.71c-.28-.93-.43-1.91-.43-2.92h-.02c0 1.01-.15 2-.43 2.92h-26.57c2.52-2.41 5.94-3.9 9.71-3.9v-.02c-7.75 0-14.03-6.28-14.03-14.03h-.02c0 7.75-6.28 14.03-14.03 14.03v.02c3.77 0 7.19 1.48 9.71 3.9h-38.39c.03-2.91.05-5.82.03-8.73-.02-3.4-2.71-6.12-6.07-6.27-1.71-.08-3.29.55-4.47 1.63-2.57.34-4.74 2.27-5.3 4.86-.15.71-.21 1.45-.22 2.18-.02 2.11-.03 4.21-.05 6.32h-11.68c-.01-2.05-.02-4.09-.02-6.14 0-1.27-.31-2.45-.97-3.53-1.41-2.32-4.2-3.48-6.83-2.84-1.06.26-2.01.77-2.78 1.47-2.61.35-4.77 2.3-5.31 4.97-.14.71-.18 1.45-.17 2.18 0 1.29.01 2.59.01 3.88h-19.63c0-.03 0-.06 0-.08h.5c1.6 0 3.21.08 4.81-.01 1.41-.09 2.69-.68 3.68-1.59 1.07-.13 2.05-.55 2.94-1.21 2.16-1.61 3.07-4.43 2.24-6.99-.82-2.54-3.23-4.37-5.82-4.38-10.51-.05-21.03-.08-31.54-.12-.5 0-1.01.05-1.5.15-1.13.22-2.14.76-2.96 1.5-2.35.29-4.4 1.99-5.16 4.28-.84 2.51-.01 5.29 2.05 6.93 1.21.96 2.6 1.42 4.14 1.42 3.23 0 6.46.01 9.69.01h.85v.09h-20.45c-.01-2.21-.03-4.41-.04-6.62-.01-.95-.13-1.93-.37-2.85-.68-2.55-2.92-4.33-5.49-4.47-1.64-.09-3.2.52-4.37 1.63-2.31.27-4.25 1.81-5.02 4.15-.28.84-.46 1.74-.5 2.62-.09 1.85-.16 3.69-.2 5.54h-10.6c-.03-2.56-.05-5.12-.08-7.68-.01-.64-.04-1.29-.18-1.91-.55-2.46-2.02-4.16-4.46-4.85-2.23-.64-4.25-.16-5.93 1.36-2.45.31-4.59 2.11-5.27 4.62-.18.68-.26 1.4-.26 2.1.02 2.12.04 4.24.08 6.36h-9.84c.01-.23.03-.45.04-.68.14-2.47.19-4.95-.04-7.42-.32-3.4-3-5.9-6.29-5.91-1.65-.01-3.15.61-4.29 1.64-2.84.41-5.13 2.68-5.48 5.58-.09.77-.12 1.55-.15 2.33-.02.43-.01.87 0 1.31.02 1.05.02 2.1.01 3.15h-16.37c0-.57 0-1.14 0-1.71.01-1.88.05-3.76.06-5.64.01-.92-.1-1.83-.39-2.71-1.39-4.22-6.51-5.54-9.76-2.55-.61.07-1.22.24-1.81.52-1.8.83-2.91 2.28-3.42 4.16-.25.92-.43 1.88-.48 2.84-.08 1.7-.16 3.4-.22 5.09h-22.21v2.75c-2.1-2.08-3.41-4.96-3.41-8.15h-.02c0 6.32-5.13 11.45-11.45 11.45v.02c6.32 0 11.45 5.13 11.45 11.45h.02c0-3.19 1.3-6.07 3.41-8.15v57.13c-3.49.73-6.13 3.79-6.33 7.57-.05 1-.02 2.01-.02 3.01.02 21.47.03 42.94.05 64.42.01 5.6.04 11.2.03 16.79-.01 2.26.51 4.34 2.03 6.06.82.92 1.72 1.77 2.65 2.58 1.72 1.5 3.75 2.18 6.03 2.11 1.72-.06 3.44-.11 5.16-.17 3.27-.12 6.54-.25 9.81-.36 2.09-.07 4.19-.11 6.28-.17 1.46-.04 2.93-.1 4.39-.15 3.24-.12 6.48-.25 9.72-.37 2.95-.11 5.91-.17 8.86-.31 2.28-.11 4.29-1.17 5.67-2.79.5-.05 1-.11 1.49-.21 3.09-.64 5.19-2.55 6.04-5.61.11-.38.19-.76.24-1.12h8.21c2.05 2.56 4.37 4.83 7.13 6.64 4.72 3.09 9.87 4.4 15.5 3.6 3.56-.51 6.75-1.85 9.66-3.78 1.13-.39 2.24-.87 3.33-1.44 2.54-1.33 4.77-3.04 6.79-5.01h40.39c.1.34.19.67.29 1.01.46 1.63.86 3.29 1.54 4.83 1.25 2.85 3.53 4.43 6.66 4.53 2.63.09 4.68-.92 6.17-2.83 1.49-.14 2.96-.73 4.19-1.8 1.24-1.07 2-2.42 2.51-3.94.2-.6.4-1.2.6-1.8h35.19c0 .73-.01 1.47-.01 2.2-.01 1.32.02 2.65.18 3.95.11.9.35 1.82.73 2.63 1.37 2.92 4.28 4.48 7.71 4.29 1.75-.1 3.5-.15 5.25-.2 3.24-.1 6.48-.18 9.72-.28 1.49-.04 2.98-.1 4.47-.16 3.1-.11 6.19-.23 9.29-.35 2.52-.09 5.05-.15 7.57-.28 2.22-.12 4.19-1.26 5.48-2.94 3.6-.7 6.32-4.11 6.07-7.85-.02-.35-.07-.69-.14-1.02h12.06v8.09.91h.1c0 .04 0 .07.01.08h66.51.98 102.91c0-.04 0-.08 0-.12h.05c0-.24 0-.49 0-.74 0-4.13 0-8.27 0-12.4 4 1.53 6.84 5.41 6.84 9.95h.02c0-5.88 4.77-10.65 10.65-10.65v-.02c-5.91.01-10.67-4.76-10.67-10.64z"/><path d="m135.48 184.92c-.17 0-.34 0-.51-.01-5.41-.16-9.73-2.71-12.16-7.18-2.64-4.85-2.31-10.26.92-14.86 1.46-2.09 3.57-3.65 6.1-4.52.15-.05.29-.1.44-.15h.01c.67-.45 1.38-.83 2.13-1.13.77-.31 1.94-.77 3.24-1.14 1.17-.33 2.37-.49 3.58-.49 2.8 0 5.48.87 7.78 2.53 2.26 1.63 3.96 3.9 4.93 6.57 1.42 3.93 1.07 8.07-.99 11.66-1.78 3.09-4.72 5.44-8.06 6.5-2.25 1.43-4.82 2.22-7.41 2.22z"/><path d="m135.2 178.3c1.73.08 3.45-.57 4.81-1.7 4.07-.74 7.41-5.1 5.7-9.82-1.28-3.52-4.83-5.46-8.28-4.49-.86.24-1.7.56-2.52.89-.53.22-1.02.51-1.45.88-.13.05-.25.1-.38.15-.36.15-.73.26-1.1.39-1.16.4-2.14 1.07-2.84 2.07-1.77 2.52-2 5.21-.53 7.9 1.39 2.55 3.73 3.65 6.59 3.73z"/></g><g><path d="m64.45 297.38c0-3.83-3.11-6.94-6.94-6.94 3.83 0 6.94-3.11 6.94-6.94 0 3.83 3.11 6.94 6.94 6.94-3.83 0-6.94 3.11-6.94 6.94z" fill="#b2e5d4"/><path d="m287.5 207.48c0-7.76-6.29-14.05-14.05-14.05 7.76 0 14.05-6.29 14.05-14.05 0 7.76 6.29 14.05 14.05 14.05-7.76 0-14.05 6.29-14.05 14.05z" fill="#b2e5d4"/><g fill="#75544d"><path d="m270.97 231.94c0-3.5-2.84-6.34-6.33-6.34 3.5 0 6.33-2.84 6.33-6.34 0 3.5 2.84 6.34 6.34 6.34-3.5 0-6.34 2.84-6.34 6.34z"/><path d="m57.79 330.21c0-5.51-4.46-9.97-9.97-9.97 5.51 0 9.97-4.46 9.97-9.97 0 5.51 4.46 9.97 9.97 9.97-5.51 0-9.97 4.47-9.97 9.97z"/><path d="m18.07 214.86c0-6.33-5.13-11.46-11.46-11.46 6.33 0 11.46-5.13 11.46-11.46 0 6.33 5.13 11.46 11.46 11.46-6.33 0-11.46 5.13-11.46 11.46z"/></g><path d="m29.58 240.2c0-3.5-2.84-6.34-6.34-6.34 3.5 0 6.34-2.84 6.34-6.34 0 3.5 2.84 6.34 6.34 6.34-3.5.01-6.34 2.84-6.34 6.34z" fill="#ffe3c6"/><g><path d="m300.11 364.12c0-.33 0-.62 0-.91 0-34.39 0-68.79 0-103.18 0-.32.03-.64-.01-.95-.08-.61.16-1.06.62-1.45 1.49-1.28 2.96-2.57 4.44-3.86 10.78-9.39 21.56-18.79 32.34-28.18 10.98-9.56 21.95-19.13 32.93-28.69 4.57-3.98 9.14-7.97 13.7-11.95.72-.62 1.65-.62 2.36 0 12.38 10.79 24.76 21.58 37.13 32.36 13.39 11.67 26.79 23.35 40.18 35.02 2.03 1.77 4.06 3.54 6.1 5.31.52.45.77.99.77 1.7-.01 34.67-.01 69.34-.01 104.02v.74c-.49.11-169.74.15-170.55.02z" fill="#efccae"/><path d="m318.84 214.82c0-5.63-4.57-10.2-10.2-10.2 5.63 0 10.2-4.57 10.2-10.2 0 5.63 4.57 10.2 10.2 10.2-5.63 0-10.2 4.57-10.2 10.2z" fill="#b2e5d4"/><path d="m485.3 340.11c0-4.47-3.62-8.09-8.09-8.09 4.47 0 8.09-3.62 8.09-8.09 0 4.47 3.62 8.09 8.09 8.09-4.47 0-8.09 3.62-8.09 8.09z" fill="#f8d86f"/><path d="m477.51 360.89c0-5.89-4.77-10.66-10.66-10.66 5.89 0 10.66-4.77 10.66-10.66 0 5.89 4.77 10.66 10.66 10.66-5.89 0-10.66 4.77-10.66 10.66z" fill="#b2e5d4"/><path d="m300.17 236.83c0-5.89-4.77-10.66-10.66-10.66 5.89 0 10.66-4.77 10.66-10.66 0 5.89 4.77 10.66 10.66 10.66-5.89 0-10.66 4.77-10.66 10.66z" fill="#f8d86f"/><g fill="#446c54"><path d="m383.19 313.75c2.17-1.97 4.35-3.93 6.6-5.81 3.27-2.74 6.75-5.25 9.96-8.06 5.12-4.48 10.14-9.08 15.08-13.75 1.28-1.21 2.37-2.78 3.07-4.39 1.17-2.67-.27-5.43-3.12-6.02-1.72-.36-3.61-.39-5.35-.1-4.75.79-8.83 3.23-12.63 6.02-5.84 4.28-10.36 9.71-12.69 16.67-1.35 4.04-2.62 8.13-3.03 12.41-.05.49-.25.97-.42 1.44-.19.52-.38 1.03-.57 1.55 1.05 0 2.08.01 3.1.04z"/><path d="m377.49 308.25c-2.36-2.95-4.72-5.9-7.08-8.84-1.91-2.38-3.94-4.66-6.59-6.23-1.22-.73-2.58-1.35-3.96-1.67-2.33-.53-4.21.88-4.43 3.28-.1 1.12-.02 2.38.4 3.4.82 1.99 1.76 3.98 2.97 5.76 3.03 4.46 7.03 7.85 11.97 10.08.45.2.89.41 1.33.62 2.03-1.94 3.72-4.18 5.39-6.4z"/><path d="m458.08 225.17c-2.02-3.16-4.99-4.28-8.56-3.99-3.46.28-6.62 1.5-9.42 3.57-4.92 3.63-7.7 8.77-9.71 14.34-.53 1.46-1.29 1.94-2.58 2.29 1.05-2.88 2.09-5.57 3.03-8.31.74-2.15.97-4.38.69-6.64-.19-1.53-.59-2.99-1.63-4.18-1.49-1.71-3.76-1.87-5.35-.26-.69.7-1.36 1.62-1.56 2.54-.46 2.17-.98 4.43-.85 6.62.18 3.01.91 5.99 1.45 8.98.22 1.19.55 2.35.81 3.42-6.69 4.54-13.2 8.96-19.71 13.38.21-.86.59-1.54 1.02-2.19 3.21-4.74 5.22-9.99 6.43-15.55.57-2.63.75-5.33-.4-7.89-1.01-2.25-2.86-2.77-4.71-1.17-1.06.91-2.05 2.13-2.56 3.41-1.16 2.87-2.23 5.82-2.94 8.83-1.29 5.51-1.71 11.15-1.85 16.8-.04 1.47-.51 2.54-1.63 3.58-6.79 6.33-12.96 13.22-18.45 20.73-.1.14-.33.19-.55.31-.07-.29-.15-.49-.16-.69-.24-3.75-.51-7.51-.7-11.27-.1-2.09-.35-4.23-.03-6.27.49-3.13 1.36-6.21 2.18-9.28.35-1.31.78-2.68 1.51-3.79 1.84-2.77 4.02-5.31 5.8-8.11 1.82-2.86 3.41-5.88 4.95-8.9.55-1.07.84-2.34.92-3.55.08-1.19-.08-2.47-.46-3.61-.72-2.14-2.65-2.95-4.72-2.01-1.03.47-2.04 1.17-2.78 2.01-3.13 3.55-5.29 7.66-5.8 12.38-.42 3.88-.27 7.81-.6 11.7-.23 2.68-.84 5.34-1.27 8-.19-.03-.38-.06-.57-.09-.24-2.81-.44-5.62-.71-8.43-.79-8.14-1.58-16.27-2.42-24.4-.26-2.51.08-4.85 1.05-7.2 3.44-8.36 8.21-15.94 13.49-23.22.12-.16.34-.26.37-.28 5.26 1.5 10.37 3.12 15.55 4.4 5.14 1.27 10.35 1.33 15.37-.66 1.58-.63 3.14-1.55 4.42-2.66 2.07-1.79 3.22-4.14 2.46-6.98-.76-2.82-2.9-4.27-5.57-4.92-1.53-.37-3.15-.55-4.73-.54-7.26.02-14.23 1.43-20.83 4.51-.55.26-1.13.45-1.94.77 1.85-2.87 2.09-3.12 3.6-3.66 8.6-3.07 15.98-8.08 22.58-14.3 2.36-2.23 4.09-4.88 5.02-8 .3-1.02.49-2.13.44-3.19-.13-2.95-1.95-4.63-4.89-4.69-1.93-.04-3.71.56-5.42 1.37-4.65 2.22-8.6 5.32-11.72 9.44-3.61 4.77-6.31 10.04-8.37 15.64-.36.97-.33 2.08-.5 3.12-.04.27-.07.59-.23.79-1.02 1.32-2.08 2.62-3.12 3.93-.21-.85-.06-1.47.06-2.11.76-4.05 1.56-8.09 2.24-12.16.41-2.46.17-4.91-.65-7.28-.58-1.67-1.55-2.98-3.44-3.23-1.95-.25-3.67.36-4.72 2.03-.8 1.26-1.45 2.69-1.83 4.13-1.74 6.72-1.04 13.2 2.28 19.34.75 1.39 1.5 2.77 2.27 4.18-5.27 7.37-9.97 14.92-13.59 23.15-.25-.55-.39-1.03-.43-1.53-.6-9.24-1.23-18.48-1.73-27.73-.11-2.07.14-4.17.4-6.24.21-1.64.79-3.24 1-4.89.53-4.08 1.17-8.18 1.32-12.28.11-3.23-.42-6.49-.73-9.73-.52-5.43-1.89-10.68-3.77-15.79-1.17-3.18-3.04-5.94-5.62-8.13-2.25-1.92-4.41-1.34-5.46 1.44-.47 1.26-.7 2.66-.76 4.02-.19 4.44.61 8.78 1.54 13.11 2.39 11.1 6.87 21.64 8.7 32.89.34 2.1 1.46 4.09 1.75 6.2.41 3.05.39 6.16.55 9.24-.37-.5-.59-1.02-.7-1.57-1.16-5.74-3.58-11-6.28-16.12-.86-1.64-2.05-3.16-3.31-4.53-.85-.93-2-1.69-3.16-2.24-2.75-1.3-4.98-.31-6.06 2.55-.59 1.54-.69 3.16-.14 4.68.81 2.23 1.67 4.48 2.82 6.55 2.12 3.82 4.96 7.13 8.16 10.1 2.94 2.72 5.47 5.79 7.79 9.03.88 1.23 1.72 2.49 1.82 4.09.24 3.75.47 7.51.81 11.26.92 10.16 1.91 20.31 2.85 30.47.31 3.35.58 6.71.89 10.3-.43-.25-.63-.31-.76-.45-4.36-4.67-9.37-8.39-15.42-10.61-.6-.22-1.2-.81-1.52-1.39-2.02-3.62-3.59-7.44-4.3-11.54-.78-4.49-1.38-9.01-2.13-13.51-.49-2.93-1.26-5.8-2.7-8.44-.95-1.73-2.3-2.97-4.33-3.3-2.16-.35-3.72.49-4.45 2.55-.36 1.01-.59 2.1-.67 3.17-.56 7.71 1.56 14.75 5.6 21.24 1.89 3.04 4.1 5.86 6.74 8.4-3.19-.78-6.3-1.7-9.37-2.71-.48-.16-.88-.72-1.21-1.18-.93-1.29-1.82-2.61-2.7-3.94-2.2-3.33-5.15-5.72-8.97-6.82-2.91-.84-5.88-1.59-8.87-1.97-4.01-.52-7.4.97-9.98 4.12-2.83 3.44-2.85 7.52.07 10.88.88 1.01 2.06 1.84 3.24 2.47 2.73 1.46 5.69 2.03 8.8 1.92 6.2-.22 12.11-2 18.1-3.35.95-.22 1.8-.34 2.74-.04 3.45 1.09 6.91 2.14 10.36 3.22.5.16.97.41 1.45.62-2.72.3-5.24.87-7.62 2.01-3.42 1.63-6.58 3.69-9.39 6.21-2.46 2.2-4.4 4.83-5.15 8.13-.73 3.19.92 5.59 4.12 6.18 2.7.49 5.23-.16 7.5-1.53 6.43-3.85 11.64-9.03 15.9-15.17.64-.93 1.06-2.01 1.66-3.16.81.4 1.52.71 2.2 1.09 3.13 1.74 5.76 4.12 8.36 6.54 2.12 1.97 3.17 4.35 3.25 7.26.1 3.83.37 7.66.6 11.49.63 10.43.91 20.87.84 31.32.52.12 1.03.24 1.55.36 0-.34.01-.68.01-1.02.06-7.38.02-14.78-.46-22.14-.23-3.43.89-6.04 2.72-8.6.63-.88 1.3-1.74 2.02-2.55 3.31-3.74 6.6-7.51 9.99-11.17 1.82-1.96 3.82-3.75 5.77-5.59 1.14-1.07 2.42-1.47 3.92-.65.69.38 1.46.63 2.2.93 4.28 1.78 8.57 3.5 13.14 4.43 2.26.46 4.48.31 6.61-.58 3.99-1.67 4.61-6.34 1.08-8.81-1.38-.97-3.07-1.64-4.72-2.06-4.36-1.1-8.62-.25-12.82 1.05-.87.27-1.74.55-2.97.94 2.18-2.67 16.98-12.66 19.55-13.32 1.07 2.19 2.02 4.47 3.24 6.59 2.37 4.14 6.1 6.53 10.68 7.51 3.57.76 6.3-2.09 5.63-5.65-.45-2.36-1.57-4.35-3.43-5.88-3.07-2.52-6.44-4.4-10.48-4.84-.53-.06-1.04-.23-1.56-.35.45-.43.9-.61 1.34-.57 3.98.38 7.94.41 11.9-.25 4.05-.68 7.88-1.88 11.21-4.37 2.19-1.64 3.93-3.61 4.73-6.31.62-2.12.36-4.09-.85-5.99z"/></g><g><path d="m332.55 242.74c-.83-.38-1.58-.66-2.26-1.06-7.07-4.08-6.3-13.62-1.09-17.73 2.52-1.98 5.47-2.12 8.45-1.08 1.01.35 1.97.86 3.15 1.38.11-.76.22-1.44.3-2.12.82-6.39 5.82-11.5 12.19-12.36 2.68-.37 5.21.17 7.4 1.79 2.71 2 3.48 4.86 3.27 8.07-.09 1.34-.33 2.68-.53 4.19.87-.45 1.55-.85 2.27-1.16 5.01-2.16 9.94-2.36 14.7.72 2.7 1.74 4.25 4.31 4.97 7.37.73 3.1-.79 6.28-3.81 7.77-1.6.79-3.38 1.22-5.09 1.8-.46.16-.94.27-1.64.48.63.58 1.09.99 1.54 1.42 2.65 2.54 4.26 5.63 4.82 9.25.53 3.45-.82 6.08-3.65 7.98-2.67 1.79-5.64 2.55-8.85 2.34-.86-.06-1.72-.2-2.82-.34.18.66.32 1.24.5 1.8.87 2.73.42 5.25-1.66 7.19-1.46 1.35-3.16 2.6-4.97 3.37-2.44 1.04-5.05 1.74-7.65 2.3-3.51.76-6.64-.8-8.36-4-1.65-3.08-2.29-6.36-1.37-10.06-1.59.18-3.07.3-4.53.52-2.11.31-4.02-.15-5.8-1.26-1.29-.8-2.65-1.5-3.86-2.41-3.16-2.38-3.96-5.87-2.26-9.46 1.05-2.21 2.68-3.93 4.66-5.33.65-.44 1.29-.88 1.98-1.37z" fill="#ff7772"/><g fill="#9e4f40"><path d="m344.3 248.52c-1.73.35-3.45.74-5.19 1.05-1.69.3-3.35 1.13-5.09.56-.05-.17-.1-.34-.14-.5.37-.22.72-.55 1.12-.63 3.93-.87 7.87-1.65 11.79-2.57.71-.16 1.3-.81 2.24-1.42.08.56.29 1.01.16 1.35-.17.45-.55.84-.9 1.2-2.93 2.94-6.24 5.37-9.92 7.27-1.13.58-1.16.54-2.66-.12 1.68-.98 3.23-1.78 4.68-2.73 1.42-.93 2.75-2 4.13-3.01-.08-.16-.15-.31-.22-.45z"/><path d="m360.27 237.43c-.82-.92-.37-1.43.1-1.89.82-.81 1.6-1.69 2.52-2.36 3.51-2.52 7.05-4.99 10.62-7.44.54-.37 1.14-.98 2.03-.41.26 1.11-.69 1.39-1.36 1.84-2.4 1.59-4.88 3.08-7.2 4.77-1.97 1.44-3.78 3.11-5.66 4.67-.32.26-.65.5-1.05.82z"/><path d="m361.57 240.49c.16-.72.15-1.19.37-1.49.18-.24.62-.32.96-.42 4.35-1.28 8.69-2.55 13.05-3.8.42-.12.91-.02 1.46-.02-.05 1.4-.99 1.49-1.79 1.71-3.19.88-6.39 1.72-9.58 2.6-1.36.4-2.71.87-4.47 1.42z"/><path d="m354.33 238.24c-1.53-.37-1.32-1.32-1.24-2.13.26-2.87.56-5.73.85-8.6.12-1.22.21-2.44.37-3.66.08-.61.13-1.33 1.22-1.3.63 1.75-.14 3.49-.16 5.22-.02 1.72-.31 3.44-.49 5.16-.18 1.75-.36 3.49-.55 5.31z"/><path d="m348.23 267.03c-.08-.4-.3-.82-.23-1.18.92-4.36 1.88-8.71 2.86-13.05.03-.13.34-.2.65-.36.17.34.48.66.44.91-.84 4.38-1.72 8.75-2.61 13.11-.07.34-.28.65-.42.97-.24-.14-.46-.27-.69-.4z"/><path d="m361.95 245.4c1.6.97 2.81 1.7 4.02 2.43 2.34 1.42 4.7 2.8 7 4.27.61.39 1.65.83.76 2.02-.3-.1-.59-.14-.81-.28-3.19-1.95-6.37-3.92-9.55-5.89-.42-.26-.91-.53-1.17-.92-.22-.31-.15-.82-.25-1.63z"/><path d="m346.41 241.22c-.57 0-1.01.11-1.37-.02-1.58-.57-3.16-1.16-4.74-1.73-1.47-.53-2.98-.88-4.35-1.66-.36-.2-.71-.43-.95-.76s-.37-.77-.23-1.16c.2-.54 4.56 1.74 5.62 2.12 1.41.5 2.84.96 4.25 1.48.7.24 1.58.36 1.77 1.73z"/><path d="m367.55 258.42c-.5-.3-1.1-.51-1.48-.92-2.23-2.36-4.4-4.77-6.6-7.16-.15-.16-.36-.33-.38-.51-.05-.38.01-.77.03-1.16.37.07.89 0 1.1.22 1.89 1.98 3.72 4.01 5.57 6.04.58.64 1.19 1.26 1.72 1.94.24.3.33.72.49 1.09-.15.14-.3.3-.45.46z"/><path d="m352.65 234.49c-1.96-.43-2-1.66-2.27-2.61-2.37-8.22-2.46-8.83-1.53-10.32 1.21 2.08 1.37 4.31 2 6.37.62 2.03 1.13 4.09 1.8 6.56z"/><path d="m357.48 263.97c-.39-.19-.85-.26-.96-.49-1.55-3.29-1.96-6.88-2.63-10.39-.08-.41.19-.88.38-1.61.45.47.8.67.87.94.9 3.62 1.75 7.24 2.61 10.87.02.1-.1.24-.27.68z"/><path d="m338.4 232.28c.46-.14.74-.32.84-.25 2.9 2.12 5.79 4.25 8.65 6.41.3.23.46.66.84 1.23-.63.06-1.13.27-1.34.11-2.87-2.16-5.71-4.37-8.54-6.59-.2-.14-.25-.48-.45-.91z"/></g><path d="m353.45 252.94c-4.88-.06-8.82-4.17-8.78-9.19.03-5.33 4.46-9.94 9.52-9.93s9.01 4.05 9 9.19c-.02 5.39-4.52 9.99-9.74 9.93z" fill="#f4fafa"/></g><g><path d="m410.49 188.67c1.63-1.28 3.08-2.47 4.58-3.6 1.36-1.03 2.87-1.61 4.63-1.55 4.04.13 6.75 3.29 6.06 7.27-.44 2.52-1.42 4.85-2.96 6.92-.28.38-.58.76-.82 1.08 2.23.35 4.38.52 6.42 1.07 2.44.66 4.26 2.18 4.67 4.87.12.77.14 1.6 0 2.36-1.12 6.18-6.55 10.16-12.81 9.42-.34-.04-.67-.11-1-.16-.1 1.44-.08 2.73-.29 3.99-.44 2.56-1.96 4.28-4.41 5.18-5.53 2.03-10.61-.49-12.31-6.14-.12-.41-.23-.83-.39-1.42-.54.5-.96.99-1.47 1.34-1.48 1.02-2.89 2.24-4.52 2.91-5.93 2.47-11.81-1.12-12.56-7.52-.59-5 2.75-10.6 7.81-12.92 1.42-.65 2.95-1.06 4.9-1.74-.67-.5-1.22-.82-1.67-1.25-2.72-2.58-3.36-6.17-1.73-9.53 2.57-5.3 9.37-7.6 14.66-4.97 1.59.81 2.11 1.5 3.21 4.39z" fill="#ff7772"/><g fill="#9e4f40"><path d="m408.58 222.32c-.25-4.67-.49-9.22-.74-13.87.65-.2 1.25-.38 1.8-.54 2.58 2.41 5.61 9.15 5.2 11.53-1.11.06-1.16-.9-1.45-1.56-.95-2.1-1.84-4.22-2.78-6.32-.2-.43-.53-.81-1.15-1.17 0 .45-.02.9 0 1.35.15 2.88.34 5.76.47 8.63.03.83.07 1.76-1.35 1.95z"/><path d="m416.8 207.41c1.65.86 3.32 1.69 4.95 2.6.69.38 1.34.86 1.9 1.4.21.2.13.71.22 1.39-3.39-1.75-6.49-3.35-9.73-5.03.25-.62.52-1.32.9-2.27 2.13.24 4.25.46 6.37.74 1.5.2 3.01.41 4.48.74.62.14 1.17.6 1.75.91-.03.18-.07.36-.1.53-.42.07-.86.25-1.26.18-3.13-.5-6.24-1.04-9.36-1.57-.05.12-.09.25-.12.38z"/><path d="m395.51 213.02c0-1.55 1.33-1.87 2.05-2.62.78-.81 1.68-1.49 2.37-2.5-1.53.35-3.06.72-4.6 1.05-.56.12-1.16.25-1.7.16-.3-.05-.74-.53-.74-.82 0-.27.48-.78.76-.79 3.88-.15 7.44-1.52 11.02-2.82.41-.15.88-.1 1.57-.17-.59 1.9-2.21 2.32-3.26 3.29-1.16 1.08-2.4 2.08-3.7 2.99-1.13.81-1.92 2.3-3.77 2.23z"/><path d="m398.48 193.65c.94-1.02 1.52-.53 2.06-.05 1.24 1.1 2.46 2.23 3.69 3.33.51.46 1.05.9 1.92 1.16-.52-2.48-1.04-4.95-1.55-7.41 1.32-.41 1.47.47 1.63 1.1.53 2.09.98 4.21 1.43 6.32.22 1.03.4 2.07.68 3.53-.87-.3-1.47-.34-1.82-.65-2.67-2.37-5.3-4.81-8.04-7.33z"/><path d="m410.66 200.78c0-.76-.14-1.18.02-1.39 2.17-2.9 3.74-6.24 6.14-8.94 1 .49.82 1.01.47 1.54-.82 1.27-1.64 2.54-2.46 3.82-.29.46-.56.95-.95 1.62 2.4-.31 3.97-2.19 6.09-2.6.38 1.1-.22 1.53-.76 1.8-2.73 1.37-5.5 2.67-8.55 4.15z"/></g><path d="m407.23 209.95c-1.33-.48-2.77-.77-3.96-1.48-1.98-1.19-2.38-3.48-1.22-5.49 2.03-3.52 7.79-4.96 11.27-2.82 2.26 1.39 2.75 3.94 1.19 6.16-1.4 2.01-4.3 3.36-7.28 3.63z" fill="#f4fafa"/></g><g><path d="m420.74 259.2c-1.77-.56-3.64-.92-5.29-1.73-3.77-1.82-4.9-5.72-2.74-9.31 2.26-3.75 5.7-5.41 10.05-5.09 1.49.11 2.96.39 4.54.6 0-1.22-.04-2.29.01-3.36.1-2.43 1.34-4.05 3.6-4.91 3.02-1.16 7.02-.14 9.12 2.32 1 1.17 1.33 2.52 1.22 4.03-.06.85-.01 1.7-.01 2.88 1.01-.27 1.87-.59 2.75-.72 1.98-.3 4.01-.88 5.96-.69 4.98.47 8.58 4.56 8.73 9.47.15 5.07-3.35 9.62-8.17 10.58-.84.17-1.7.28-2.73.44.19.47.35.83.49 1.2 1.01 2.73.31 5.42-1.98 7.19-2.33 1.81-5.07 2.54-7.95 2.28-2.8-.26-4.72-2.02-6.01-4.45-.27-.5-.42-1.06-.7-1.8-.5.38-.9.73-1.34 1.03-1.26.83-2.45 1.82-3.82 2.4-2.78 1.18-5.52.45-7.48-1.75-1.69-1.89-2-4.51-.66-7.08.66-1.26 1.6-2.36 2.41-3.53z" fill="#ff7772"/><g fill="#9e4f40"><path d="m420.18 249.45c3.69-.21 6.72 2.36 10.51 2.85-.21-2.16-.43-4.21-.62-6.27-.07-.71-.15-1.44-.11-2.15.04-.62.36-1.09 1.39-.88.27 3.61.54 7.28.83 11.2-4.59-.58-8.19-2.91-12.27-3.81.09-.32.18-.63.27-.94z"/><path d="m424.46 266.33c.28-2.38 2.4-3.25 3.18-5.23-2.46.9-4.24 2.8-6.5 3.58-.69-.8-.32-1.27.18-1.59 2.06-1.32 4.11-2.67 6.26-3.83.77-.42 1.82-.32 2.74-.45.67.68.13 1.22-.18 1.75-1.4 2.36-4.1 5.21-5.68 5.77z"/><path d="m436.59 260.6c0 2.06.04 3.69-.03 5.31-.02.39-.37.77-.57 1.15-.31-.33-.88-.65-.89-1-.09-2.01-.04-4.02-.04-6.05.86-.3 1.52-.54 2.33-.82 1.88 2.22 3.72 4.39 5.57 6.57-.78.91-1.33.59-1.78.09-1.01-1.13-1.98-2.3-2.97-3.45-.44-.52-.91-1.02-1.62-1.8z"/><path d="m451.71 256.74c-3.57-.14-7.07-.26-10.57-.43-.26-.01-.51-.4-.91-.73.44-.25.73-.55 1.02-.55 2.89.02 5.78.03 8.67.16.75.04 1.81.03 1.79 1.55z"/><path d="m440.13 253.96c.29-.66.36-1.21.65-1.4.53-.35 1.18-.53 1.81-.69 2.58-.67 5.17-1.33 7.77-1.94.33-.08.73.17 1.12.27-.23 1.17-1.05 1.25-1.81 1.44-3.01.72-6.01 1.46-9.54 2.32z"/><path d="m436.98 239.72c-.47 3.93-.92 7.62-1.39 11.31-.02.13-.33.22-.7.45-.16-.53-.43-.97-.4-1.38.19-2.81.42-5.62.7-8.42.05-.55.3-1.13.62-1.59.17-.24.68-.23 1.17-.37z"/><path d="m420 254.44c.64-.15 1.31-.5 1.91-.4 2.47.39 4.92.92 7.37 1.41.27.05.57.19.75.39.16.18.3.53.23.73s-.4.43-.63.44c-.34.01-.69-.15-1.04-.24-2.57-.66-5.1-1.47-7.81-1.38-.23.01-.47-.22-.7-.34-.03-.2-.05-.41-.08-.61z"/></g><path d="m434.8 260.45c-.8.11-1.62.05-2.4-.16-.7-.19-1.52-.43-2.26-.83-2.35-1.28-2.81-4-1.21-6.13 2.2-2.93 7.61-3.85 10.63-1.79 2.16 1.47 2.59 3.94.97 6.02-1.38 1.78-3.26 2.56-5.73 2.89z" fill="#f4fafa"/></g><g><path d="m385.16 289.94c-1.71.63-3.16 1.27-4.67 1.7-1.76.51-3.57.49-5.35-.06-2.52-.77-3.58-2.74-2.73-5.22.62-1.83 1.83-3.28 3.32-4.47 2.31-1.85 4.95-2.96 7.92-3.21.49-.04.99-.05 1.76-.09-.31-.83-.55-1.46-.79-2.1-1.08-2.94-.98-5.82.55-8.58 1.32-2.37 3.12-3.3 5.53-2.88 2.32.41 3.39 2.01 3.75 4.2.02.14.09.27.23.68.67-.5 1.27-.95 1.87-1.4 3.21-2.4 6.76-3.16 10.66-2.19 4.06 1 5.72 3.55 4.59 7.56-.52 1.84-1.53 3.56-2.41 5.29-.45.88-1.11 1.66-1.76 2.6.84.18 1.53.26 2.19.47 2.97.95 4.4 3.78 3.34 6.72-.29.8-.73 1.58-1.23 2.27-3.14 4.25-9.55 5.66-14.79 3.2-.22.41-.39.87-.68 1.23-1.04 1.28-1.98 2.69-3.22 3.73-1.59 1.33-3.34 1.19-4.98-.08-1.94-1.5-2.94-3.54-3.09-5.97-.06-1.09-.01-2.18-.01-3.4z" fill="#ff7772"/><g fill="#9e4f40"><path d="m401.09 275.03c-.26.52.37 1.04.83.68 2.08-1.62 4.04-3.15 6.02-4.66.04-.03.11-.02.2.01.32.1.48.47.32.78-.13.26-.26.49-.44.66-2.36 2.12-4.7 4.27-7.17 6.25-.59.47-1.44.62-2.38.88-.35.09-.69-.17-.7-.53 0-.37 0-.63.1-.83 1.73-3.42 3.27-6.95 5.22-10.23.15-.26.49-.35.75-.19.64.38.47.88.21 1.4-.98 1.93-1.97 3.85-2.95 5.78 0-.01-.01-.01-.01 0z"/><path d="m396.98 284.08c-.12-.5.36-.94.86-.78 3.43 1.13 6.36 2.4 9.17 3.96.04.02.08.05.12.09.44.45.01 1.2-.61 1.1-1.21-.2-2.11-1.05-3.16-1.4-.8-.27-1.58-.61-2.38-.93-.6-.24-1.15.43-.81.98.98 1.54 2.23 2.88 3.21 4.38.27.42.01.99-.49 1.03-.51.04-.81-.34-1.04-.68-1.63-2.43-4.06-4.38-4.87-7.75z"/><path d="m390.85 292.69c-.27.78-.25 1.75-1.2 2.28-.17.09-.38 0-.43-.18-.1-.36-.21-.66-.16-.92.37-1.84.87-3.65 1.19-5.5.2-1.16 1.23-1.46 1.9-2.3.14-.17.4-.15.5.04.73 1.46.18 2.84.27 4.13.09 1.36.03 2.73.02 4.2 0 .2-.19.34-.38.29-1.08-.34-1.02-1.22-1.15-1.97-.03-.32-.46-.36-.56-.07z"/><path d="m383.21 286.08c.85-.5 1.7-1 2.73-1.61.02-.01.01-.03-.01-.04-1.25-.14-2.33.23-3.47.13-.71-.06-.8-1.1-.1-1.26h.01c1.06-.23 2.15-.31 3.22-.49 1.75-.3 3.5-.62 5.4-.97.01 0 .02.01.02.02.01.28.14.73-.03.96-.33.45-.79.85-1.28 1.14-1.8 1.08-3.61 2.14-5.45 3.14-.13.07-.26.14-.4.21-.8.37-1.4-.78-.64-1.23z"/><path d="m392.31 278.04c-.77-1.51-1.56-3.01-2.32-4.53-.32-.65-.63-1.33.44-1.83.23.28.49.52.65.81 1.13 2.01 2.23 4.04 3.34 6.06.59 1.06.59 1.06-.43 2.48-2.13-.74-3.83-2.19-5.51-3.63-.2-.17-.19-.59-.21-.98.15.02.28-.11.28-.26.35.04.71.06.97.24.86.57 1.65 1.26 2.47 1.9-.1-.2.14-.4.32-.26z"/></g><path d="m391.65 287.13c-1.97 0-2.94-1.23-2.38-3.13.18-.61.47-1.24.86-1.73 1.74-2.22 3.92-3.82 6.69-4.52 1.16-.29 2.35-.27 3.14.83.74 1.02.34 2.08-.15 3.07-1.36 2.68-5.55 5.48-8.16 5.48z" fill="#f4fafa"/></g><g><path d="m470.61 261.06v103.14c-56.83 0-113.61 0-170.39 0-.13-.47-.19-101.48-.06-102.96.24-.05.39.13.57.24 3.09 1.93 6.18 3.86 9.27 5.79 7.73 4.82 15.45 9.65 23.18 14.47 13.86 8.64 27.73 17.27 41.59 25.91 1.28.8 2.54 1.61 3.8 2.43.27.17.5.25.82.1.24-.11.54-.1.81-.11.49-.03.97-.08 1.44-.3.34-.16.76-.2 1.15-.24.33-.04.67 0 1.01 0 1.01 0 2.02-.01 3.02 0 .57.01 1.18-.07 1.71.1.82.26 1.62.48 2.48.46.6.41 1.04 0 1.5-.29 14.5-9.07 29-18.16 43.5-27.22 11.32-7.07 22.65-14.11 33.98-21.16.16-.11.35-.21.62-.36z" fill="#ffe3c6"/><path d="m376.79 309.2c-.18-.13-.32-.23-.46-.33-3.03-1.9-6.06-3.82-9.11-5.71-11.06-6.88-22.13-13.75-33.2-20.62-9.09-5.63-18.18-11.25-27.27-16.88-1.92-1.19-3.84-2.38-5.75-3.57-.18-.11-.37-.24-.52-.39-.3-.3-.35-.75-.15-1.09.21-.36.66-.54 1.08-.39.24.09.46.22.68.36l22.56 14.01c3.78 2.35 7.57 4.7 11.35 7.05 13.95 8.64 27.9 17.29 41.85 25.93.44.27.86.56 1.28.86.2.14.39.14.61.09 2.35-.57 4.73-.73 7.14-.55 1.38.1 2.75.3 4.12.5.35.05.57-.11.81-.26 1.17-.74 2.33-1.5 3.51-2.23 12.7-7.89 25.39-15.78 38.1-23.66 11.68-7.24 23.36-14.47 35.04-21.7.2-.12.4-.26.62-.35.47-.2.96-.05 1.19.35.22.38.14.85-.23 1.18-.15.13-.32.23-.49.34-10.51 6.53-21.02 13.06-31.54 19.58-13.91 8.63-27.84 17.25-41.75 25.87-.82.51-1.62 1.06-2.45 1.61.1.06.16.12.23.14 3.44 1.24 6.63 3 9.79 4.82 7.59 4.37 14.88 9.21 22.03 14.26 4.82 3.4 9.61 6.85 14.35 10.36 9.8 7.26 19.37 14.82 28.74 22.64.26.22.54.4.79.63.17.16.34.34.45.54.19.35.11.7-.16.99-.27.28-.6.38-.98.23-.16-.07-.32-.16-.46-.27-3.77-3.09-7.5-6.21-11.3-9.27-6.31-5.08-12.75-9.99-19.26-14.81-8.87-6.56-17.88-12.92-27.19-18.84-4.11-2.61-8.27-5.16-12.63-7.34-1.54-.77-3.13-1.44-4.72-2.08-.69-.27-1.46-.35-2.19-.52-.21-.05-.46-.06-.61-.19-.33-.27-.72-.32-1.11-.37-2.25-.28-4.5-.35-6.76-.17-.55.04-1.11.07-1.65.17-.42.08-.82.26-1.23.39-.17.06-.33.16-.5.17-1.25.04-2.4.49-3.54.95-2.12.85-4.14 1.9-6.13 2.99-5.5 3.03-10.8 6.4-16.02 9.87-6.89 4.58-13.65 9.37-20.31 14.28-10.52 7.76-20.82 15.8-30.84 24.19-.23.19-.44.4-.66.59-.25.21-.53.36-.87.29-.36-.06-.61-.26-.73-.62-.13-.38-.01-.72.25-.98.25-.25.55-.45.83-.68 3.12-2.56 6.23-5.14 9.38-7.68 6.12-4.94 12.33-9.75 18.63-14.45 8.95-6.68 18.04-13.17 27.42-19.23 4.51-2.91 9.07-5.74 13.83-8.23 1.86-.97 3.75-1.89 5.72-2.61.14-.03.24-.09.39-.16z" fill="#e7c6a5"/></g></g><g><g><g fill="#75544d"><path d="m83.09 242.14c-.18.34-.28.54-.38.74-.92 1.67-1.78 3.36-2.76 4.99-1.17 1.92-2.7 3.53-4.62 4.73-2.43 1.51-5.09 2.12-7.94 1.92-3.6-.26-6.72-1.64-9.52-3.87-3.37-2.68-5.55-6.17-7.05-10.14-1.39-3.69-2.18-7.52-2.71-11.41-.53-3.98-.96-7.96-1.07-11.97-.08-2.82-.09-5.64-.08-8.46.01-4.56.05-9.12.11-13.68.03-2.06.11-4.12.48-6.16.28-1.55.87-2.94 2.04-4.04 3.25-3.05 8.41-1.73 9.8 2.5.29.88.4 1.79.39 2.71-.02 1.88-.06 3.76-.06 5.64-.02 6.46-.03 12.93-.04 19.39 0 2.96.29 5.9.59 8.84.27 2.62.6 5.23 1.17 7.81.46 2.11 1.08 4.17 2.04 6.11.66 1.34 1.58 2.47 2.84 3.29.38.25.8.45 1.23.6.89.3 1.1.23 1.61-.54.46-.69.88-1.4 1.27-2.12 1.41-2.66 2.56-5.43 3.46-8.3 1.48-4.73 2.84-9.48 3.58-14.39.51-3.4.91-6.81 1.3-10.22.26-2.28.43-4.56.63-6.84.04-.46.04-.92.04-1.37 0-2.04-.02-4.08 0-6.12.01-.85.03-1.7.12-2.54.34-3.4 3.08-5.91 6.39-5.89 3.29.02 5.97 2.51 6.29 5.91.23 2.47.18 4.94.04 7.42-.06 1.03-.13 2.06-.13 3.09-.02 3.55-.05 7.11.01 10.66.04 2.66.18 5.31.31 7.97.09 1.88.19 3.75.34 5.63.3 3.79.54 7.59 1.5 11.29.29 1.11.69 2.18 1.08 3.26.37 1.03 1.12 1.77 2.02 2.36.45.29.54.29.98-.05.2-.15.38-.34.54-.53 1.97-2.31 3.2-5 4.06-7.89.82-2.75 1.38-5.56 1.74-8.4.37-2.91.73-5.82.89-8.75.16-2.9.09-5.82.08-8.73-.01-1.92-.1-3.85-.13-5.77-.06-3.83-.1-7.65-.15-11.48-.03-1.83.53-3.45 1.82-4.75 1.75-1.76 3.87-2.35 6.25-1.67 2.43.7 3.9 2.39 4.46 4.85.14.62.17 1.27.18 1.91.05 3.83.07 7.65.13 11.48.05 3.09.16 6.19.22 9.28.07 4.09-.26 8.15-.74 12.2-.38 3.19-.86 6.36-1.54 9.49-.85 3.91-2.06 7.7-4 11.23-1.29 2.34-2.78 4.53-4.68 6.42-2.02 2-4.4 3.36-7.21 3.89-3.24.61-6.29.05-9.12-1.65-3.55-2.13-6.16-5.08-7.69-8.96-.14-.26-.24-.52-.41-.92z"/><path d="m231.83 230.7c-4.9 0-9.73 0-14.6 0-.02.23-.04.43-.04.63.01 5.2-.01 10.41.03 15.61.02 2.09-.58 3.9-2.18 5.28-1.92 1.65-4.14 2.06-6.48 1.11-2.37-.95-3.68-2.79-3.96-5.34-.05-.48-.05-.96-.05-1.44-.08-17.79-.15-35.57-.23-53.36 0-.92 0-1.83.06-2.75.19-2.7 2.14-4.97 4.8-5.61 2.63-.64 5.42.52 6.83 2.84.66 1.09.97 2.27.97 3.53.03 8.55.07 17.1.1 25.65v1.05h14.83c.02-.37.04-.7.04-1.04.05-8.71.1-17.42.15-26.13.01-.87.01-1.74.09-2.61.32-3.4 3.19-5.93 6.52-5.78 3.36.15 6.05 2.87 6.07 6.27.02 4.08-.04 8.16-.06 12.24-.01.92-.03 1.83-.03 2.75-.06 9.97-.12 19.94-.17 29.91-.02 4.26-.03 8.53-.06 12.79-.01.8-.05 1.61-.21 2.39-.64 3.23-3.5 5.36-6.76 5.08-3.15-.27-5.68-2.93-5.73-6.17-.05-3.53.02-7.06.04-10.59.01-1.93.03-3.85.04-5.78.03-.15.01-.31-.01-.53z"/><path d="m168.63 195.68c-.35 0-.61 0-.88 0-3.11 0-6.23-.01-9.35-.01-.9 0-1.78-.11-2.63-.41-2.68-.95-4.37-3.54-4.18-6.43.18-2.78 2.28-5.18 5.03-5.72.49-.1 1-.15 1.5-.15 10.51.03 21.03.07 31.54.12 2.59.01 5 1.84 5.82 4.38.83 2.56-.07 5.39-2.24 6.99-1.06.79-2.25 1.24-3.57 1.25-2.47.02-4.95-.01-7.42-.02-.27 0-.54 0-.87 0-.02.32-.04.57-.05.81-.06 3.25-.13 6.51-.17 9.76-.06 4.01-.08 8.02-.14 12.03-.13 8.34-.27 16.68-.4 25.02-.02 1.26 0 2.52-.02 3.78-.02 1.4-.35 2.73-1.14 3.9-1.47 2.2-4.09 3.24-6.66 2.65-2.52-.57-4.49-2.69-4.83-5.31-.13-1.04-.09-2.1-.08-3.16.05-3.37.13-6.74.18-10.1.12-8.89.23-17.78.36-26.67.06-3.92.14-7.84.21-11.75-.01-.28-.01-.58-.01-.96z"/><path d="m132.26 219.47c-.04-7.17-.11-14.35-.11-21.52 0-2.63.13-5.27.24-7.9.04-.96.24-1.91.61-2.81 1-2.44 3.35-3.97 5.88-3.84 2.57.14 4.81 1.91 5.49 4.47.24.92.37 1.9.37 2.85.09 12.79.15 25.57.2 38.36.01 3.39-.02 6.78-.08 10.17-.04 2.63-.14 5.27-.25 7.9-.12 2.93-1.82 5.25-4.43 6.1-3.89 1.27-8.04-1.52-8.22-5.61-.09-2.08.04-4.17.09-6.25.05-2.43.16-4.86.17-7.28.03-4.88.01-9.76.01-14.64z"/><path d="m138.57 176.71c-3.16-.01-5.93-1.78-6.97-4.57-.95-2.56-.63-5 1.04-7.21.59-.78 1.36-1.37 2.27-1.74.83-.34 1.67-.65 2.52-.89 3.45-.97 7.01.97 8.28 4.49 1.91 5.26-2.48 10.09-7.14 9.92z"/></g><path d="m79.68 243.71c-.18.37-.31.6-.42.85-.89 1.84-1.84 3.64-3 5.32-1.29 1.87-2.86 3.46-4.86 4.57-3.09 1.72-6.37 2.01-9.78 1.26-3.27-.71-6.01-2.39-8.44-4.64-2.79-2.59-4.57-5.81-5.87-9.33-1.25-3.39-1.99-6.9-2.5-10.47-.49-3.45-.87-6.91-1.05-10.38-.13-2.56-.17-5.13-.19-7.69-.02-3.83-.03-7.65.03-11.48.05-3.16.18-6.32.34-9.47.05-.95.23-1.91.48-2.84.51-1.88 1.63-3.33 3.42-4.16 3.52-1.64 7.59.47 8.35 4.34.16.82.2 1.68.19 2.53-.03 6.57-.09 13.15-.13 19.72-.02 3.25 0 6.51.27 9.75.32 3.88.7 7.75 1.51 11.57.46 2.13 1.08 4.21 2.05 6.18.68 1.39 1.63 2.55 2.95 3.36.48.29 1.04.45 1.58.65.34.13.64.02.85-.27.27-.37.55-.73.79-1.12 1.24-2.07 2.28-4.24 3.11-6.5 1.94-5.25 3.43-10.63 4.46-16.13.79-4.21 1.19-8.48 1.67-12.73.47-4.13.58-8.27.52-12.41-.01-.44-.02-.87 0-1.31.04-.78.06-1.56.15-2.33.38-3.13 3-5.52 6.14-5.64 3.07-.12 5.83 2.11 6.4 5.23.14.78.21 1.59.22 2.39.03 2.59.06 5.18-.18 7.76-.03.3-.02.6-.02.89 0 3.39-.04 6.78.01 10.17.04 2.84.16 5.68.3 8.51.11 2.4.26 4.8.46 7.2.26 3.24.53 6.49 1.34 9.65.3 1.15.71 2.27 1.11 3.39.37 1.03 1.11 1.78 2.01 2.37.45.29.56.29.98-.03.2-.15.38-.33.54-.52 1.94-2.27 3.17-4.91 4.02-7.75.93-3.1 1.52-6.28 1.91-9.48.32-2.64.65-5.28.78-7.93.14-2.86.07-5.72.07-8.59-.01-1.72-.08-3.44-.11-5.15-.07-4.01-.13-8.02-.17-12.02-.01-.7.07-1.43.26-2.1.77-2.83 3.39-4.76 6.23-4.67 2.94.1 5.38 2.13 6.01 5.03.14.67.2 1.36.21 2.04.06 3.73.07 7.47.14 11.2.04 2.47.14 4.95.2 7.42.1 4.47-.1 8.93-.62 13.37-.46 3.94-1.03 7.85-1.95 11.71-1.08 4.52-2.74 8.78-5.36 12.64-1.4 2.06-2.96 3.98-5.06 5.37-4.68 3.08-9.51 3.34-14.37.49-3.58-2.09-6.13-5.11-7.64-8.99-.09-.23-.19-.45-.34-.8z" fill="#b2e5d4"/><path d="m228.46 232.28c-4.93 0-9.76 0-14.67 0v.71c.01 5.2.01 10.4.04 15.6.01 2.51-.92 4.52-3.08 5.85-4.03 2.47-9.23-.24-9.54-4.96-.1-1.62-.08-3.25-.08-4.88-.03-7.97-.06-15.94-.09-23.92-.04-9.07-.09-18.14-.12-27.21 0-.73.03-1.47.17-2.18.61-3.02 3.28-5.11 6.34-5.03 3 .08 5.57 2.34 6.04 5.32.07.47.11.96.12 1.43.04 8.59.07 17.18.11 25.77v.6c.5.15 13.81.2 14.87.05 0-.23 0-.47 0-.72 0-1.56.01-3.12.02-4.67.05-7.67.09-15.35.16-23.02.01-.73.07-1.47.22-2.18.62-2.87 3.24-4.94 6.16-4.91 2.96.02 5.56 2.15 6.14 5.04.1.51.16 1.05.15 1.57-.05 9.55-.12 19.1-.18 28.66 0 .53-.01 1.05-.02 1.58-.04 8.96-.08 17.91-.14 26.87 0 .73-.02 1.47-.13 2.19-.47 3.2-3.08 5.5-6.22 5.51-3.2.01-5.93-2.39-6.31-5.58-.06-.5-.07-1.01-.07-1.51.03-5.04.07-10.08.1-15.12.01-.26.01-.53.01-.86z" fill="#b2e5d4"/><path d="m165.22 197.25c-.36 0-.6 0-.85 0-3.23 0-6.46 0-9.69-.01-1.54 0-2.93-.45-4.14-1.42-2.06-1.64-2.89-4.42-2.05-6.93s3.23-4.33 5.87-4.32c7.4.01 14.8.05 22.2.08 3.14.01 6.28.07 9.41 0 2.82-.06 6.02 2.12 6.38 5.73.35 3.44-2.28 6.66-5.73 6.87-1.6.1-3.2.01-4.81.01-1.08 0-2.15-.01-3.23-.01-.18 0-.36.02-.6.04-.02.24-.04.47-.04.69-.03 1.19-.05 2.38-.07 3.57-.08 4.44-.15 8.89-.22 13.33-.04 2.61-.08 5.22-.11 7.83-.08 6.28-.14 12.55-.22 18.83-.03 2.45-.07 4.9-.13 7.35-.07 2.79-1.67 5.12-4.11 6.05-3.89 1.48-8.11-1.14-8.54-5.3-.05-.48-.06-.96-.05-1.44.07-5.47.15-10.95.23-16.42.1-7.01.21-14.02.32-21.03.06-4.19.14-8.38.2-12.57-.02-.28-.02-.55-.02-.93z" fill="#b2e5d4"/><path d="m141.56 220.25c0 5.27.03 10.54-.01 15.8-.03 3.16-.18 6.32-.27 9.48-.03.89.01 1.79-.05 2.68-.06.82-.13 1.65-.36 2.43-.82 2.8-3.4 4.59-6.35 4.47-2.79-.12-5.24-2.19-5.82-4.99-.13-.6-.18-1.23-.16-1.84.06-2.84.16-5.68.24-8.52.04-1.49.07-2.98.07-4.47-.02-11.8-.07-23.59-.07-35.39 0-2.7.1-5.4.23-8.1.04-.88.23-1.78.5-2.62.87-2.65 3.26-4.29 5.97-4.19 2.61.1 4.91 1.97 5.57 4.63.2.82.3 1.67.32 2.51.07 3.5.11 7.01.12 10.51.02 5.86 0 11.73 0 17.59 0 .02.03.02.07.02z" fill="#b2e5d4"/><path d="m135.2 178.3c-2.86-.08-5.2-1.18-6.59-3.74-1.47-2.69-1.24-5.38.53-7.9.7-1 1.69-1.67 2.84-2.07.37-.13.74-.23 1.1-.39 3.84-1.64 8.03.42 9.33 4.46 1.68 5.2-2.75 9.84-7.21 9.64z" fill="#b2e5d4"/></g><g><g fill="#75544d"><path d="m86.71 315.46c.01-8.36 1.21-16.53 3.95-24.45 2.01-5.83 4.76-11.25 8.76-16 2.75-3.27 5.92-6.02 9.83-7.82 7.84-3.62 15.34-2.89 22.45 1.95 4.16 2.83 7.26 6.66 9.76 10.98 3.06 5.3 4.98 11.01 6.22 16.98 1.25 6.02 1.67 12.11 1.43 18.24-.35 9.29-2.17 18.28-6.04 26.79-1.77 3.89-3.92 7.54-6.74 10.76-2.55 2.91-5.44 5.43-8.9 7.24-4.25 2.22-8.75 3.1-13.5 2.42-4.16-.6-7.83-2.36-11.11-4.96-4.91-3.89-8.29-8.92-10.79-14.6-2.44-5.56-3.9-11.39-4.68-17.4-.46-3.36-.65-6.74-.64-10.13zm47.2-3.08c0-.8.02-1.61 0-2.41-.14-5.05-.91-10-2.42-14.82-1.19-3.81-2.81-7.41-5.31-10.55-1.13-1.42-2.43-2.67-4.05-3.56-1.94-1.06-3.95-1.25-5.95-.3-1.03.49-2.01 1.12-2.89 1.83-2.41 1.94-4.12 4.46-5.57 7.16-2.99 5.56-4.58 11.56-5.34 17.79-.46 3.73-.64 7.48-.41 11.25.28 4.78 1 9.47 2.45 14.04 1.18 3.72 2.76 7.24 5.21 10.32 1.19 1.49 2.54 2.81 4.26 3.7 1.96 1.03 3.95 1.11 5.96.16.62-.29 1.22-.64 1.79-1.03 1.37-.92 2.5-2.1 3.53-3.38 2.44-3.04 4.14-6.47 5.45-10.11 2.32-6.48 3.31-13.21 3.29-20.09z"/><path d="m251.73 350.03c.47 0 .78.01 1.09 0 3.99-.13 7.97-.26 11.96-.39 3.76-.12 7.51-.24 11.27-.36 1.55-.05 3.1-.14 4.65-.14 3.92-.01 7.22 3.09 7.49 7 .27 4.1-3.03 7.8-7.13 7.98-2.47.1-4.93.15-7.4.24-3.21.12-6.42.27-9.63.39-1.38.05-2.75.08-4.13.12-2.01.05-4.02.1-6.02.16-2.84.1-5.68.2-8.52.32-1.15.05-2.29 0-3.4-.36-3.04-.99-5.07-3.69-5.25-6.88-.3-5.51-.09-11.02-.08-16.53.01-5.43.07-10.85.1-16.28.12-17.46.24-34.91.34-52.37 0-.62-.1-1.26-.27-1.86-1.31-4.68 1.93-9.32 6.77-9.67.52-.04 1.03-.06 1.55-.05 8.96.03 17.91.06 26.87.1 2.27.01 4.54.03 6.8.11 3.64.14 6.62 2.77 7.19 6.27.58 3.58-1.4 7.03-4.84 8.3-.77.28-1.62.46-2.43.46-7.69.02-15.39-.01-23.08-.03-1.09 0-2.17 0-3.26 0-.2.61-.45 30.59-.26 32.58.23.02.47.07.72.06 2.78-.06 5.57-.14 8.35-.18 2.18-.04 4.36-.1 6.54-.04 4.15.11 7.47 4.08 7.02 8.3-.42 3.93-3.61 6.79-7.57 6.85-4.45.06-8.9.15-13.35.24-.6.01-1.2.08-1.9.13-.06 8.5-.12 16.95-.19 25.53z"/><path d="m188.96 328.23c.08-.23.17-.46.23-.69 2.51-9.78 5.01-19.57 7.52-29.35 2.31-9 4.63-18 6.94-27.01.45-1.74 1.23-3.27 2.62-4.45 2.44-2.07 5.86-2.39 8.61-.82 2.8 1.6 4.31 4.79 3.68 7.99-.41 2.08-.98 4.13-1.51 6.19-2.15 8.39-4.33 16.78-6.48 25.17-2.68 10.42-5.31 20.85-8.03 31.26-.71 2.72-1.66 5.37-2.53 8.04-1.34 4.12-2.71 8.23-4.07 12.34-.5 1.53-1.27 2.87-2.51 3.94-3.4 2.96-8.63 2.26-11.16-1.5-.68-1.02-1.06-2.16-1.39-3.32-3.02-10.65-6.05-21.31-9.05-31.97-4.56-16.18-9.11-32.37-13.66-48.55-.27-.97-.58-1.93-.76-2.91-.93-4.95 2.79-9.3 7.74-9.1 3.05.12 5.74 2.11 6.79 5.14.6 1.73 1.06 3.52 1.56 5.28 3.82 13.53 7.64 27.06 11.45 40.59 1.19 4.22 2.37 8.45 3.56 12.68.1.35.21.69.32 1.04.03.02.08.01.13.01z"/><path d="m37.47 347.51c1.66-.04 3.15-.07 4.64-.12 1.98-.07 3.96-.17 5.94-.24 3.79-.14 7.57-.27 11.36-.39 3.3-.11 6.6-.2 9.9-.3 2.15-.06 4.3-.14 6.46-.16 2.04-.01 3.85.68 5.33 2.08 2.27 2.16 3.12 4.81 2.27 7.84-.85 3.06-2.95 4.97-6.04 5.61-1.47.31-3.02.29-4.54.35-3.67.15-7.34.26-11.01.38-2.01.07-4.02.11-6.02.18-2.12.07-4.24.17-6.37.24-1.26.05-2.52.07-3.79.11-2.07.06-4.13.11-6.2.19-2.12.07-4.25.12-6.36.26-2.92.19-5.44-.62-7.51-2.72-.32-.33-.67-.63-1-.94-2.05-1.88-2.95-4.22-2.94-7 .03-5.57-.02-11.14-.03-16.71-.02-21.39-.04-42.78-.05-64.17 0-1-.02-2.01.03-3.01.21-3.71 3.13-6.86 6.81-7.37 3.78-.52 7.36 1.68 8.6 5.28.4 1.16.53 2.34.53 3.56 0 9.56.01 19.12.01 28.68v47.2c-.02.39-.02.75-.02 1.17z"/></g><path d="m143.74 314.77c0 5.63-.63 11.18-1.82 16.67-1.49 6.87-3.84 13.4-7.62 19.37-2.19 3.47-4.82 6.57-8.03 9.15-3.49 2.8-7.38 4.75-11.85 5.39-5.63.8-10.77-.5-15.5-3.6-3.01-1.97-5.49-4.5-7.68-7.34-3.32-4.31-5.54-9.17-7.19-14.31-1.73-5.38-2.76-10.91-3.04-16.55-.16-3.26-.23-6.55-.11-9.81.14-3.84.67-7.66 1.44-11.43 1.01-4.94 2.47-9.73 4.56-14.32 2.29-5 5.21-9.58 9.18-13.43 3.08-2.99 6.6-5.27 10.72-6.5 6.13-1.83 11.98-1.07 17.52 2.12 3.59 2.07 6.5 4.89 8.97 8.19 2.95 3.95 5.08 8.32 6.68 12.96 1.86 5.4 2.98 10.96 3.42 16.65.17 2.26.23 4.53.35 6.79zm-47.69 3.24c.05 4.8.51 9.5 1.72 14.37.97 3.89 2.34 7.62 4.44 11.06 1.27 2.07 2.76 3.96 4.76 5.38 2.8 2 5.51 2.06 8.43.24 1.6-1 2.93-2.3 4.1-3.77 2.46-3.06 4.17-6.52 5.5-10.18 1.87-5.19 2.89-10.56 3.25-16.06.45-6.85-.1-13.59-1.95-20.21-1.07-3.81-2.55-7.44-4.81-10.71-1.15-1.66-2.48-3.16-4.16-4.32-2.71-1.85-5.46-1.91-8.21-.13-1.29.83-2.43 1.82-3.45 2.97-2.51 2.83-4.28 6.1-5.66 9.59-2.77 6.95-3.87 14.2-3.96 21.77z" fill="#ff7772"/><path d="m247.47 278.74c-.07 11.04-.14 21.91-.21 32.91.54.01 1.01.04 1.49.03 4.62-.09 9.24-.2 13.86-.26 2.11-.03 3.96.74 5.39 2.29 2.21 2.38 2.78 5.17 1.61 8.21-1.08 2.83-3.86 4.7-6.89 4.75-4.53.09-9.07.17-13.6.27-.6.01-1.2.07-1.78.11-.22.64-.43 23.98-.24 25.69.31.01.65.04.98.03 4.44-.16 8.89-.34 13.33-.48 3.21-.11 6.43-.18 9.64-.27 1.72-.05 3.44-.15 5.16-.14 3.83.03 7.33 2.89 7.49 7.26.15 4.03-3.05 7.58-7.06 7.8-2.52.14-5.05.19-7.57.28-3.1.11-6.19.23-9.29.35-1.49.06-2.98.11-4.47.16-3.24.1-6.48.18-9.72.28-1.75.05-3.5.11-5.25.2-3.42.19-6.33-1.38-7.71-4.29-.38-.81-.62-1.74-.73-2.63-.16-1.31-.19-2.63-.18-3.95.13-23.51.27-47.02.41-70.53.02-3.93.08-7.87.09-11.8 0-.53-.08-1.09-.23-1.6-1.43-4.84 1.95-9.63 6.98-9.87.43-.02.86-.03 1.29-.03 9.04.03 18.09.05 27.13.09 2.27.01 4.54.04 6.8.11 3.89.12 7.08 3.17 7.35 6.99.28 3.96-2.44 7.42-6.34 8.08-.39.07-.8.09-1.2.09-8.5-.03-16.99-.06-25.49-.1-.31-.03-.62-.03-1.04-.03z" fill="#ff7772"/><path d="m183.78 330.78c.08-.26.17-.52.24-.78 2.7-10.54 5.4-21.07 8.1-31.61 1.57-6.11 3.14-12.23 4.71-18.34.57-2.22 1.15-4.44 1.72-6.67.48-1.89 1.35-3.55 2.94-4.73 2.45-1.81 5.13-2.14 7.88-.83s4.19 3.6 4.3 6.64c.03.88-.09 1.78-.31 2.64-2.72 10.68-5.47 21.35-8.2 32.02-2.55 9.95-5.06 19.91-7.67 29.85-.81 3.08-1.88 6.08-2.86 9.11-1.22 3.77-2.47 7.52-3.72 11.28-.22.65-.45 1.31-.77 1.91-1.51 2.8-3.86 4.31-7.06 4.2-3.12-.1-5.41-1.68-6.66-4.53-.67-1.54-1.08-3.2-1.54-4.83-3.58-12.62-7.15-25.24-10.71-37.86-2-7.1-3.98-14.2-5.98-21.3-1.95-6.93-3.92-13.86-5.86-20.79-.19-.69-.35-1.4-.43-2.1-.4-3.61 1.81-7.01 5.22-8.09 3.49-1.1 7.23.39 8.97 3.63.39.73.68 1.52.91 2.32 2.11 7.4 4.19 14.8 6.28 22.2 1.99 7.04 3.98 14.08 5.96 21.12 1.38 4.89 2.74 9.78 4.12 14.67.08.29.18.58.27.87.05.01.1.01.15 0z" fill="#ff7772"/><path d="m31.23 350.15c.23.05.34.09.45.09 3.04-.11 6.08-.23 9.12-.34 1.43-.05 2.87-.09 4.3-.13 3.38-.1 6.77-.19 10.15-.31 3.36-.11 6.71-.26 10.06-.36 1.66-.05 3.33-.15 4.99-.06 4.18.24 7.46 3.8 7.42 7.93-.04 4.2-3.37 7.69-7.59 7.89-2.95.14-5.91.2-8.86.31-3.24.12-6.48.25-9.72.37-1.46.05-2.92.11-4.39.15-2.09.06-4.19.1-6.28.17-3.27.11-6.54.24-9.81.36-1.72.06-3.44.11-5.16.17-2.28.08-4.31-.6-6.03-2.11-.93-.81-1.83-1.66-2.65-2.58-1.52-1.72-2.04-3.79-2.03-6.06.01-5.6-.03-11.2-.03-16.79-.02-21.47-.04-42.94-.05-64.42 0-1-.03-2.01.02-3.01.22-4.13 3.35-7.4 7.33-7.71 4.13-.32 7.71 2.43 8.52 6.57.16.81.2 1.65.21 2.48.02 14.5.02 28.99.02 43.49v32.81c.01.36.01.73.01 1.09z" fill="#ff7772"/></g></g></g><path d="m157.15 354.14c0-4.06-3.29-7.35-7.35-7.35 4.06 0 7.35-3.29 7.35-7.35 0 4.06 3.29 7.35 7.35 7.35-4.06 0-7.35 3.29-7.35 7.35z" fill="#75544d"/></g></svg>