<svg id="Слой_1" enable-background="new 0 0 500 500" height="512" viewBox="0 0 500 500" width="512" xmlns="http://www.w3.org/2000/svg"><g><path d="m243.06 440.75c-11.24 5.61-23.46 10.08-36.34 13.3-21.67 5.41-43.89 6.34-66.03 2.76-22.25-3.6-43.29-11.57-62.56-23.69-.03-.02-.06-.04-.09-.06-38.05-24.25-64.34-61.6-74.04-105.18-4.71-21.15-5.26-42.68-1.66-63.99 3.72-21.99 11.72-42.79 23.79-61.8 16.38-25.81 39.38-46.61 66.53-60.16 29.36-14.65 62.54-20.3 94.88-16.36 1.3-2.28 2.66-4.53 4.06-6.74 16.38-25.81 39.38-46.61 66.53-60.16 24.83-12.39 52.6-18.44 80.31-17.5 28.56.97 56.64 9.4 81.22 24.38 38.16 23.27 64.99 59.84 75.53 102.99 5.09 20.83 6.14 42.12 3.12 63.3-3.11 21.8-10.41 42.5-21.7 61.5-16.91 28.47-39.82 50.06-68.07 64.16-11.24 5.61-23.46 10.08-36.33 13.3-19.42 4.85-39.82 6.07-59.8 3.63-.42.73-.84 1.46-1.27 2.18-16.92 28.45-39.82 50.04-68.08 64.14zm-121.5-59.21c.37.15.73.31 1.09.48 21.37 10.12 42.65 12.81 65.06 8.22 8.72-1.79 17.02-4.63 24.66-8.44 8.62-4.3 16.72-10 24.07-16.92 2.6-2.45 5.09-5.06 7.41-7.76l.02-.02c.34-.39.67-.79 1-1.18.96-1.17 1.91-2.36 2.82-3.58-1.37-.81-2.72-1.63-4.07-2.48-.03-.02-.06-.04-.09-.06-30.44-19.39-53.42-47.17-66.46-80.34-6.26-15.94-10.03-32.69-11.19-49.77-.66-9.65-.47-19.3.54-28.86-15.24.15-30.44 3.75-44.15 10.6-16.25 8.11-30.04 20.52-39.88 35.88-14.46 22.6-19.34 49.49-13.73 75.72 5.64 26.36 21.27 48.9 44.02 63.45 2.84 1.8 5.82 3.51 8.88 5.06zm212.02-72.44c6.49-.08 13.04-.79 19.6-2.13 8.72-1.79 17.01-4.63 24.66-8.44 8.62-4.3 16.72-10 24.07-16.92 2.59-2.44 5.08-5.05 7.4-7.74.02-.02.03-.04.04-.05.33-.39.66-.78.99-1.18 2.63-3.18 5.08-6.55 7.29-10.01 30.13-47.12 16.76-108.24-30.43-139.24-30.54-19.12-67.71-21.08-99.47-5.23-13.94 6.96-26.08 17.08-35.45 29.52.64.38 1.27.76 1.9 1.14 31.23 19.04 54.86 46.89 68.33 80.52 6.44 16.09 10.33 33.02 11.57 50.32.7 9.84.54 19.69-.5 29.44zm-101.51-94.74c1.62 27.5 14.48 53.5 35.9 71.38-1.52-27.39-14.26-53.09-35.9-71.38z" fill="#fff"/><g><g><g><path d="m88.63 416.44c-69.72-44.42-89.39-135.2-45.87-203.8 43.19-68.07 132.46-88.92 201.18-47.02 70.1 42.74 90.88 132.55 50.26 200.91-21.13 35.56-52.13 58.39-92.24 68.4-38.18 9.54-79.03 3.1-113.33-18.49zm-22.83-189.77c-35.56 55.55-20.28 130.22 36.26 166.38 57.29 36.64 131.22 18.9 166.69-36.56 35.03-54.77 20.96-128.9-36.38-166.43-58.02-36.45-131.42-18.28-166.57 36.61z" fill="#f8d86f"/><path d="m114.22 399.82c24.82 11.75 50.6 15.21 77.44 9.71 22.28-4.57 41.74-14.73 58.29-30.33 33.46-31.55 45.86-78.85 32.85-122.21-7.54-25.11-21.8-45.69-42.67-61.54-20.87-15.86-44.59-23.78-70.8-24.69.15-.05.3-.12.45-.16.16-.04.33-.04.49-.06 11.02-1.16 21.99-.75 32.91 1.19 9.72 1.73 19.07 4.66 28.04 8.74 6.82 3.1 13.29 6.85 19.42 11.17 9.71 6.84 18.21 14.94 25.55 24.27 9.3 11.8 16.31 24.85 20.91 39.15 8.56 26.59 8.64 53.25.41 79.93-2.55 8.27-5.95 16.19-10.17 23.75-12.7 22.8-30.54 40.3-53.97 51.88-21.87 10.81-44.98 14.47-69.16 11.1-9.03-1.26-17.82-3.53-26.25-7-5.24-2.15-10.4-4.53-15.27-7.46-1.41-.85-2.86-1.62-4.23-2.52-1.64-1.07-2.94-2.49-3.98-4.15-.09-.14-.17-.28-.24-.43-.03-.06-.01-.15-.02-.34z" fill="#eccf71"/></g><g><path d="m26 271.9c-1.23 3.88-1.51 7.96-.93 11.98.1.71.69 1.46 1.28 1.83.6.39 1.49.58 2.2.39.73-.19 1.44-.6 1.83-1.28.4-.7.51-1.4.39-2.2-.07-.46-.12-.91-.16-1.37.02.25.04.5.07.74-.16-1.97-.08-3.95.24-5.91-.04.25-.09.5-.13.75.19-1.09.45-2.16.78-3.21.46-1.45-.41-3.25-1.92-3.65-1.53-.4-3.15.37-3.65 1.93z" fill="#fff"/></g><g><path d="m26.83 295.11c1.29.82 3.24.48 4.03-.88.79-1.37.49-3.15-.88-4.03-1.29-.82-3.24-.48-4.03.88-.8 1.37-.5 3.15.88 4.03z" fill="#fff"/></g></g><g><g><path d="m254.11 333.18c-69.72-44.42-89.39-135.2-45.87-203.8 43.19-68.07 132.46-88.92 201.18-47.02 70.1 42.74 90.88 132.55 50.26 200.91-21.13 35.56-52.13 58.39-92.25 68.4-38.17 9.53-79.02 3.09-113.32-18.49zm-22.83-189.77c-35.56 55.55-20.28 130.22 36.26 166.38 57.29 36.64 131.22 18.9 166.69-36.56 35.03-54.77 20.96-128.9-36.38-166.43-58.02-36.45-131.42-18.28-166.57 36.61z" fill="#f8d86f"/><path d="m279.69 316.56c24.82 11.75 50.6 15.21 77.44 9.71 22.28-4.57 41.74-14.73 58.29-30.33 33.46-31.55 45.86-78.85 32.85-122.21-7.54-25.11-21.8-45.69-42.67-61.54-20.87-15.86-44.6-23.78-70.8-24.69.15-.05.3-.12.45-.16.16-.04.33-.04.49-.06 11.02-1.16 21.99-.75 32.91 1.19 9.72 1.73 19.07 4.66 28.04 8.74 6.82 3.1 13.29 6.85 19.42 11.17 9.71 6.84 18.21 14.94 25.55 24.26 9.3 11.8 16.31 24.85 20.91 39.15 8.56 26.59 8.64 53.25.41 79.93-2.55 8.27-5.95 16.19-10.17 23.75-12.7 22.8-30.54 40.3-53.97 51.88-21.87 10.81-44.98 14.47-69.16 11.1-9.03-1.26-17.82-3.53-26.25-7-5.24-2.15-10.4-4.53-15.27-7.46-1.41-.85-2.86-1.62-4.23-2.52-1.64-1.07-2.94-2.49-3.98-4.15-.09-.14-.17-.28-.24-.43-.02-.05-.01-.14-.02-.33z" fill="#eccf71"/></g><g><path d="m191.48 188.64c-1.23 3.88-1.51 7.96-.93 11.98.1.71.69 1.46 1.28 1.83.6.39 1.49.58 2.2.39.73-.19 1.44-.6 1.83-1.28.4-.7.51-1.4.39-2.2-.07-.46-.12-.91-.16-1.37.02.25.04.5.07.74-.16-1.97-.08-3.95.24-5.91-.04.25-.09.5-.13.75.19-1.09.45-2.16.78-3.21.46-1.45-.41-3.25-1.92-3.65-1.53-.4-3.15.37-3.65 1.93z" fill="#fff"/></g><g><path d="m192.3 211.85c1.29.82 3.24.48 4.03-.88.79-1.37.49-3.15-.88-4.03-1.29-.82-3.24-.48-4.03.88-.79 1.37-.49 3.15.88 4.03z" fill="#fff"/></g></g></g></g></svg>