<svg id="Слой_1" enable-background="new 0 0 500 500" height="512" viewBox="0 0 500 500" width="512" xmlns="http://www.w3.org/2000/svg"><g><path d="m250.78 468.29c-4.83 0-9.46-2.12-12.7-5.81-1.33-1.52-2.81-3.04-4.38-4.65-.63-.65-1.26-1.29-1.88-1.94-.07-.07-.26-.25-.41-.4-.49-.47-1.16-1.11-1.87-1.91-7.2-8.17-14.91-15.48-22.94-21.73-.01-.01-.02-.01-.03-.02-.69-.54-1.43-1.11-2.25-1.72 0 0-.29-.22-.41-.31-4.71-3.54-9.19-7.12-12.95-10.15-4.8-3.87-9.93-7.39-15.36-11.11l-1.54-1.05c-4.73-3.24-9.49-6.56-14.1-9.77-7.46-5.2-15.18-10.57-22.81-15.68-11.77-7.87-23.05-16.41-34.54-25.19-2.37-1.81-4.81-3.65-7.18-5.42-2.93-2.2-5.95-4.47-8.93-6.77-7.4-5.7-14.74-12.25-21.82-19.46-.16.01-.32.01-.48.01h-.03c-7.05 0-12.76-5.71-12.76-12.76 0-1.05-.85-1.9-1.9-1.9-7.05 0-12.76-5.71-12.76-12.76v-.03c0-1.5.26-2.93.73-4.27-1.74-2.36-3.47-4.77-5.15-7.23-.65-.95-1.26-1.86-1.85-2.77-1.61-2.45-3.04-4.78-4.39-7.14-7.02-12.27-12.21-23.92-15.89-35.63-2.15-6.85-3.95-14.05-5.34-21.41-1.66-8.7-2.69-16.86-3.14-24.87-1.11-3.14-1.68-6.31-1.72-9.46-.04-3.18.53-6.19 1.7-8.94.04-.1.08-.2.13-.29.44-6.13 1.27-12.45 2.49-18.83 2.1-11 4.81-20.96 8.29-30.45 4.4-11.99 9.69-22.05 16.17-30.76 10.04-13.5 22.46-24.45 36.92-32.55 1.33-.75 2.69-1.5 4.09-2.24-.07-.53-.1-1.08-.1-1.63v-.03c0-7.05 5.71-12.76 12.76-12.76 1.12 0 2.03-.91 2.03-2.03 0-7.05 5.71-12.76 12.76-12.76h.03c7.05 0 12.76 5.71 12.76 12.76 0 1.12.91 2.03 2.03 2.03 2.58 0 4.98.76 6.98 2.08 2.83-.17 5.65-.26 8.42-.26 3.96 0 7.94.18 11.82.52 8.16.73 16.28 2.14 24.14 4.2 10.58 2.77 21.27 6.92 31.78 12.35 15.04 7.77 28.66 17.15 40.57 27.94.45-2.21 1.08-4.57 1.99-6.98 2.09-5.52 5.33-9.83 9.65-12.8 3.57-2.46 7.49-3.71 11.63-3.71.83 0 1.68.05 2.51.16 5.01.62 9.41 3.21 12.37 7.3 1.43 1.97 2.55 4.12 3.34 6.43 11.34-8.69 23.84-16.17 37.35-22.35 9.31-4.26 19.15-7.54 29.24-9.75 10.08-2.21 20.28-3.33 30.34-3.33 2.95 0 5.94.1 8.89.29 2.22.14 4.48.34 6.77.59 2.33-3.02 5.99-4.97 10.1-4.97h.03c5.73 0 10.59 3.78 12.19 8.99 4.33 1.13 9.03 2.65 13.63 4.8 15.19 7.09 28.31 16.56 39.01 28.15 1.12 1.22 2.22 2.46 3.3 3.74 1.66-.59 3.66-1.07 5.96-1.15.23-.01.46-.01.69-.01 4.73 0 9.13 1.52 12.71 4.41 3.58 2.88 6.02 6.84 7.05 11.45.1.46.17.84.21 1.06l.01.06c.03.19.06.37.09.56.87 6.48-.29 12.68-3.46 18.44-.62 1.12-1.27 2.2-1.96 3.25.9 2.5 1.75 5.03 2.54 7.56 1.1 2.17 1.79 4.54 2.03 7.01 2.71 10.12 4.57 20.62 5.54 31.24.81 8.97.67 18.39-.42 28.81-1.6 15.23-4.53 28.83-8.97 41.57-5.73 16.46-12.9 30.64-21.91 43.36-4.67 6.59-9.97 14.06-15.9 21.04-.57.67-1.1 1.3-1.64 1.91-.13.15-.26.3-.39.45-1.97 2.24-3.62 4.05-5.19 5.68l-1.26 1.32c-6.52 6.81-13.27 13.85-20.92 20.23-4.42 3.69-9 7.35-14 11.19-3.89 2.99-7.85 5.98-11.69 8.87-3.78 2.85-7.69 5.8-11.48 8.71-5.75 4.43-11.7 8.46-17.45 12.36-2.39 1.62-4.86 3.29-7.24 4.95-3.18 2.21-6.35 4.42-9.53 6.62-5.97 4.15-12.14 8.45-18.24 12.66-1.96 1.35-3.93 2.67-5.83 3.95-3.27 2.19-6.37 4.26-9.33 6.45-5.09 3.76-10.22 7.82-15.19 11.74-1.1.86-2.19 1.73-3.29 2.59-1.02.81-2.05 1.61-3.08 2.41-3.49 2.71-6.79 5.28-9.79 7.99-3.15 2.85-6.19 5.95-9.4 9.24-1.15 1.18-2.34 2.4-3.54 3.6-2.88 2.91-5.81 5.93-8.64 8.86 0 0-.55.57-.56.58-.14.14-.52.63-.72.9-3.22 4.13-8 6.48-13.14 6.48z" fill="#fff"/><g><path d="m486.36 201.26c-1.39 13.21-3.97 26.18-8.33 38.71-4.97 14.26-11.5 27.8-20.27 40.17-4.88 6.88-9.77 13.75-15.23 20.19-.49.58-.98 1.15-1.48 1.72-.12.14-.24.28-.37.42-1.57 1.79-3.18 3.57-4.83 5.3-6.81 7.11-13.58 14.27-21.15 20.59-4.46 3.72-9 7.34-13.6 10.88-7.68 5.91-15.48 11.67-23.17 17.58-7.81 6.01-16.1 11.33-24.19 16.94-9.25 6.42-18.48 12.87-27.74 19.27-5.15 3.56-10.45 6.91-15.48 10.62-6.37 4.71-12.56 9.67-18.79 14.57-4.56 3.59-9.23 7.07-13.53 10.96-4.67 4.23-8.99 8.84-13.44 13.32-3.13 3.15-6.21 6.34-9.3 9.54-.59.61-1.12 1.29-1.64 1.96-1.61 2.07-4.46 2.01-6.16.07-2.12-2.42-4.42-4.69-6.65-7.02-.63-.65-1.32-1.24-1.92-1.92-7.52-8.54-15.69-16.36-24.66-23.35-.81-.64-1.63-1.26-2.46-1.88-.12-.09-.25-.18-.36-.28-4.28-3.21-8.47-6.54-12.63-9.9-5.67-4.57-11.69-8.64-17.69-12.75-12.37-8.48-24.58-17.19-37.04-25.53-11.64-7.79-22.78-16.23-33.89-24.72-5.33-4.08-10.75-8.06-16.06-12.16-7.49-5.77-14.49-12.12-21.08-18.89-6.52-6.69-13.09-13.33-18.73-20.81-3.94-5.22-7.92-10.41-11.6-15.8-.58-.85-1.15-1.7-1.72-2.56-1.39-2.12-2.73-4.27-3.99-6.48-6.03-10.54-11.15-21.51-14.79-33.12-2.06-6.55-3.7-13.21-4.98-19.96-1.59-8.34-2.67-16.73-3.04-25.2-.04-.92-.07-1.84-.1-2.76-.08-3.19-.04-6.37.12-9.54.34-6.75 1.19-13.45 2.46-20.12 1.85-9.69 4.34-19.19 7.73-28.45 3.6-9.81 8.18-19.14 14.43-27.54 8.91-11.98 19.86-21.72 32.92-29.04 5.07-2.84 10.19-5.6 15.78-7.27 4-1.2 8.08-2.19 12.16-3.09 5.57-1.23 11.24-1.93 16.93-2.41 7.11-.59 14.22-.61 21.33.03 7.46.67 14.81 1.94 22.05 3.83 10.15 2.65 19.83 6.53 29.14 11.34 15.9 8.22 30.36 18.41 43.1 31.02 4.38 4.33 8.92 8.51 12.73 13.37 1.52 1.95 2.94 3.98 4.42 5.96.32.43.69.82 1.15 1.37.44-.48.71-.71.9-.99 5.14-7.84 11.82-14.3 18.49-20.77 14.61-14.18 31.31-25.26 49.78-33.72 8.56-3.92 17.46-6.87 26.66-8.89 11.76-2.58 23.65-3.55 35.67-2.77 6.5.42 12.95 1.31 19.35 2.58 6.45 1.28 12.82 2.88 18.79 5.67 13.26 6.19 25.05 14.43 35.03 25.24 3.64 3.94 6.88 8.12 9.76 12.51 1.87 2.85 3.6 5.79 5.18 8.81.18.34.35.68.53 1.02 1.43 2.79 2.75 5.65 3.96 8.56.46 1.1.9 2.21 1.33 3.33 1.46 3.81 2.78 7.66 3.95 11.54.41 1.35.8 2.69 1.17 4.05 2.73 9.9 4.55 20.01 5.49 30.32.81 8.79.53 17.56-.4 26.33z" fill="#ff7772"/><g><g fill="#6a895e"><path d="m233.13 359.63c-.15 1.99-.64 3.88-1.37 5.72-1.58 4.01-3.37 7.91-6.26 11.19-.87.99-1.75 1.98-2.74 2.84-2.64 2.3-5.22 4.68-8.38 6.3-.28.14-.5.43-.71.69-.63.75-1.47.66-1.84-.26-.18-.45-.3-.95-.32-1.43-.13-3.12-.24-6.24-.32-9.37-.03-1.05.01-2.11.02-3.16.05-4.68.94-9.21 2.57-13.59 1.04-2.81 2.34-5.48 4.29-7.79 1.6-1.9 3.47-3.5 5.95-4.11 2.87-.7 5.56.29 6.94 2.7 1.09 1.89 1.72 3.94 1.96 6.09.17 1.4.15 2.79.21 4.18z"/><path d="m192.31 394.62c-2.07-.31-3.98-.54-5.86-.89-2.32-.43-4.44-1.42-6.41-2.7-3.29-2.14-6.43-4.47-9.16-7.31-1.63-1.69-2.95-3.62-4.04-5.69-.36-.69-.65-1.45-.85-2.2-.67-2.47.38-4.82 2.66-5.98 2.23-1.14 4.58-1.11 6.94-.58 2.01.45 3.83 1.4 5.44 2.65 4.68 3.64 8.79 7.8 11.48 13.17.95 1.88 1.75 3.83 2.6 5.76.12.27.21.58.19.87-.03.44.08.77.31 1.15.43.73.08 1.47-.77 1.59-.89.12-1.79.12-2.53.16z"/><path d="m182.7 318.78c-.07 1-.19 2.43-.25 3.86-.04.9-.3 1.55-1.23 1.94-.94.4-1.6.06-2.26-.5-3.44-2.95-6.6-6.16-9.14-9.94-1.22-1.81-2.51-3.57-3.39-5.59-1.21-2.77-1.93-5.63-1.5-8.67.13-.92.38-1.86.78-2.69 1.13-2.33 3.72-3.42 6.41-2.81 1.5.34 2.83 1.04 4.02 1.97 3.77 2.95 5.91 6.85 6.63 11.55.53 3.49.58 6.97-.07 10.88z"/><path d="m204.98 314.88c-.16 2.6-1.01 4.6-2.08 6.52-1.49 2.69-3.44 5.03-5.62 7.18-1.42 1.4-2.95 2.68-4.44 4.01-.17.15-.35.29-.54.41-.98.62-2.01.26-2.32-.84-.15-.54-.25-1.11-.28-1.67-.11-2.37-.32-4.74-.24-7.1.15-4.32 1.33-8.38 3.6-12.09.81-1.33 1.85-2.46 3.17-3.32 2.42-1.58 6.37-1.21 7.96 2.4.69 1.55.85 3.19.79 4.5z"/><path d="m176.51 339.31c-3.84-.36-7.58-1.16-11.2-2.51-1.97-.74-3.72-1.81-5.07-3.46-1.15-1.41-1.79-3.04-1.9-4.86-.17-3.02 2.14-5.14 4.9-4.85 4.43.45 8.23 2.22 11.56 5.13 2.53 2.21 4.32 5 6.15 7.76.14.22.26.46.34.71.25.77.03 1.36-.72 1.64-.73.27-1.5.45-2.27.54-.58.07-1.19-.06-1.79-.1z"/></g><path d="m209.83 400.61c-.31.99-.26 1.9.01 2.88 1.64 6.07 3.18 12.16 4.59 18.29-.81-.64-1.63-1.26-2.46-1.88-.12-.09-.25-.18-.36-.28-1.12-4.73-2.31-9.45-3.53-14.15-.29-1.11-.79-1.9-1.74-2.61-3.76-2.81-7.52-5.63-11.27-8.45-4.92-3.7-9.83-7.41-14.75-11.12-.93-.7-1.88-1.39-2.82-2.09-.83-.63-1.04-1.33-.57-1.9s1.16-.54 2 .09c5.46 4.12 10.93 8.24 16.39 12.36 3.32 2.51 6.65 5.01 9.97 7.52.32.24.66.46 1.21.85-.09-.58-.11-.9-.2-1.2-1.98-6.76-3.87-13.55-5.97-20.27-2.3-7.34-4.75-14.62-7.24-21.9-1.55-4.53-3.3-8.99-4.91-13.5-.31-.88-.99-1.16-1.71-1.5-2.03-.94-4.06-1.87-6.08-2.81-3.31-1.53-6.62-3.06-9.93-4.59-.27-.13-.55-.25-.81-.41-.63-.4-.82-.99-.54-1.53.26-.49.8-.66 1.49-.44.21.07.42.18.62.27 3.31 1.53 6.62 3.05 9.93 4.58 1.31.61 2.62 1.21 3.93 1.81.39.18.8.32 1.2.48.07-.06.13-.12.2-.18-.21-.54-.41-1.09-.63-1.63-1.67-4.22-3.39-8.41-5.17-12.58-2.75-6.44-5.64-12.81-8.75-19.08-.28-.57-.56-1.15-.79-1.75-.26-.68-.09-1.23.38-1.5.52-.29 1.1-.12 1.51.57.62 1.07 1.19 2.18 1.74 3.3 2.68 5.53 5.22 11.11 7.65 16.76 2.03 4.71 3.97 9.46 5.83 14.24.09.24.23.45.47.91.18-.49.32-.77.4-1.06.4-1.44.81-2.88 1.21-4.33 1.35-4.84 2.7-9.67 4.05-14.51.11-.4.22-.8.4-1.17.23-.5.66-.72 1.2-.63.48.09.78.5.76 1.11-.02.45-.11.9-.23 1.33-1.28 4.61-2.56 9.23-3.84 13.84-.76 2.72-1.51 5.44-2.27 8.16-.2.71-.2 1.37.07 2.09 5.39 14.21 10.2 28.61 14.54 43.17.95 3.18 1.84 6.37 2.75 9.56.15.5.3.99.45 1.49l.24.03c.14-.36.29-.72.41-1.09 1.01-3.34 2.01-6.68 3.02-10.03 1.43-4.74 2.86-9.48 4.28-14.23.89-2.96 1.76-5.93 2.65-8.88.16-.54.36-1.07.62-1.57s.74-.62 1.27-.44c.5.17.7.56.69 1.05-.01.3-.08.6-.17.88-2.29 7.59-4.58 15.18-6.87 22.77-.47 1.57-.95 3.14-1.42 4.71-1.06 3.41-2.05 6.82-3.1 10.19z" fill="#75544d"/></g><g><g fill="#6a895e"><path d="m482.15 107.99c.51 3.75-.17 7.28-1.99 10.58-1.44 2.61-3.18 5.01-5.29 7.11-3.11 3.1-6.41 5.99-10.22 8.23-.94.55-1.92 1.07-2.92 1.51-.58.26-1.23.4-1.87.48-.86.11-1.31-.24-1.45-1.09-.1-.6-.11-1.22-.09-1.82.14-3.08.24-6.17.47-9.25.41-5.5 2.13-10.57 5.35-15.08 1.76-2.48 3.9-4.57 6.62-6.01 1.15-.61 2.35-1.1 3.69-1.15 3.78-.12 6.77 2.19 7.6 5.88.03.21.06.41.1.61z"/><path d="m432.8 189.77c.69 3.97.46 7.94-.25 11.87-.5 2.75-1.13 5.48-1.69 8.23-.06.31-.06.64-.08.96-.04.88-.4 1.26-1.27 1.27-.4 0-.81-.09-1.19-.21-5.19-1.63-9.16-4.79-11.92-9.47-1.19-2.01-2.1-4.14-2.64-6.4-.68-2.89-.77-5.87.35-8.65 1.58-3.91 4.47-6.55 8.67-7.46 2.34-.51 4.44.23 6.15 1.88 1.96 1.89 3.02 4.29 3.66 6.9.1.35.15.72.21 1.08z"/><path d="m465.4 195.58c.44 4.32-.66 8.19-3.49 11.53-3 3.54-6.87 5.82-11.18 7.35-2.56.9-5.22 1.53-7.83 2.31-.41.12-.81.33-1.14.6-.93.74-1.82.47-2.08-.68-.09-.39-.12-.81-.08-1.21.69-5.8 2.21-11.32 5.53-16.22 1.58-2.34 3.47-4.4 5.67-6.17 2.29-1.85 4.91-2.83 7.84-2.98 2.1-.11 3.92.57 5.36 2.14.78.84 1.05 1.56 1.4 3.33z"/><path d="m464.52 159.71c-2.81.46-5.6.1-8.4-.02-.39-.02-.8-.17-1.14-.35-1.04-.57-1.3-1.08-.9-2.2.72-2.02 1.41-4.08 2.34-6.01 3.28-6.8 8.74-11.03 15.9-13.17 1.43-.43 2.89-.44 4.32.04 2.87.96 4.59 3.4 4.64 6.47.05 3.11-.96 5.82-2.99 8.15-2.84 3.26-6.41 5.3-10.58 6.34-1.06.27-2.13.5-3.19.75z"/><path d="m466.01 252.22c.28 1.23.16 2.51-.12 3.79-.41 1.92-1.14 3.73-2.1 5.44-2.18 3.86-5.17 6.94-8.83 9.42-2.35 1.58-4.88 2.73-7.53 3.66-.55.19-.99.42-1.38.91-.7.88-1.66.63-1.99-.47-.08-.27-.15-.56-.15-.84-.09-4.43-.06-8.86 1.28-13.15 1.59-5.11 4.64-9.16 9.05-12.18 1.43-.98 2.99-1.64 4.72-1.85 3.81-.49 6.38 1.41 7.05 5.27z"/><path d="m438.38 139.65c-.46-3.59-.4-7.21.78-10.75.71-2.12 1.89-3.96 3.55-5.45.68-.61 1.48-1.17 2.32-1.53 2.94-1.24 5.26-.14 6.96 2.31 1.26 1.83 1.83 3.94 2 6.18.44 5.65-.94 10.96-3.07 16.11-.66 1.6-1.56 3.11-2.41 4.63-.58 1.05-1.49 1.8-2.43 2.52-.59.45-1.09.42-1.62-.11-.2-.2-.36-.44-.52-.67-2.64-4.05-4.44-8.45-5.56-13.24z"/><path d="m410.35 262.78c-.65-2.44-.32-4.81.75-7.09.51-1.08 1.19-2.03 2.14-2.77 2.51-1.98 6.13-1.85 8.9.34 1.19.94 2.14 2.1 2.91 3.41 1.21 2.05 1.82 4.32 2.53 6.57.98 3.09 1.1 6.31 1.67 9.46.12.64.22 1.28.31 1.92.05.32.16.69.04.95-.14.34-.44.74-.75.83s-.91-.06-1.05-.3c-.39-.67-1-.74-1.62-.93-2.01-.63-4.06-1.19-6.01-1.98-1.61-.65-3.17-1.48-4.63-2.41-2.91-1.86-4.81-4.45-5.19-8z"/></g><path d="m470.87 117.15c-.02.1-.04.2-.08.3-.1.31-.25.6-.4.89-2.98 5.74-6.01 11.45-8.98 17.2-1.04 2.02-2.08 4.04-3.11 6.06-3.24 6.38-6.04 12.97-8.71 19.6-.13.33-.22.67-.38 1.13.64-.09.94-.5 1.28-.8 1.16-1.02 2.33-2.05 3.49-3.07 3.56-3.14 7.12-6.28 10.69-9.42.85-.75 1.7-1.52 2.56-2.26.27-.23.58-.46.91-.6.49-.2.98-.11 1.31.34.32.43.36.92.06 1.37-.2.3-.48.54-.76.78-4.16 3.68-8.32 7.36-12.49 11.03-2.45 2.16-4.9 4.31-7.36 6.46-1.17 1.02-1.94 2.16-2.43 3.66-3.6 11.12-6.43 22.42-8.41 33.93-.98 5.68-1.6 11.42-2.38 17.14-.05.39-.04.78-.07 1.22.63-.01.76-.45.98-.75 1.07-1.44 2.14-2.88 3.2-4.32 2.34-3.16 4.68-6.33 7.02-9.5 1.38-1.86 2.74-3.74 4.12-5.6.21-.29.43-.59.7-.83.5-.44 1.13-.47 1.55-.11.46.39.51.91.31 1.44-.09.26-.28.5-.45.72-3.34 4.52-6.68 9.03-10.02 13.55-2.46 3.32-4.92 6.65-7.39 9.97-.41.55-.63 1.11-.68 1.78-.51 7.46-.74 14.93-.35 22.4.23 4.5.6 8.99 1.17 13.47.75 5.84 1.57 11.68 2.68 17.46.07.39.18.78.27 1.17.62.02.71-.45.9-.77 1.47-2.45 2.93-4.9 4.38-7.35 1.12-1.88 2.24-3.76 3.35-5.64 1.48-2.48 2.93-4.97 4.4-7.45.17-.28.33-.57.54-.81.43-.47 1.07-.58 1.55-.32.49.26.69.84.46 1.49-.14.38-.36.73-.57 1.07-2.28 3.84-4.56 7.68-6.84 11.53-2.25 3.77-4.49 7.55-6.75 11.32-.5.84-.59 1.59-.37 2.53.85 3.56 1.57 7.14 2.44 10.69.09.35.18.71.28 1.06-.49.58-.98 1.15-1.48 1.72-.12.14-.24.28-.37.42-.66-2.25-1.2-4.53-1.73-6.81-.57-2.41-1.06-4.84-1.65-7.25-.13-.52-.49-1.02-.84-1.45-3.21-3.87-6.43-7.74-9.66-11.6-1.95-2.35-3.91-4.69-5.87-7.04-.94-1.12-1.88-2.25-2.81-3.37-.18-.22-.36-.44-.48-.7-.31-.62-.21-1.22.23-1.54.46-.34 1.08-.32 1.57.11.33.29.62.65.9.99 3.1 3.72 6.19 7.43 9.28 11.15 1.54 1.84 3.07 3.69 4.6 5.53.51.62 1.05 1.21 1.73 1.99.07-.44.14-.65.12-.85-.04-.4-.13-.8-.2-1.2-1.15-6.11-2.15-12.25-2.72-18.44-.4-4.33-.86-8.65-.98-12.99-.15-5.11.02-10.23.11-15.35.04-2.07.26-4.13.35-6.2.03-.56-.01-1.15-.17-1.67-1.06-3.54-2.16-7.07-3.26-10.6-.34-1.11-.69-2.22-1.04-3.33-1.26-4.05-2.53-8.09-3.8-12.14-.52-1.67-1.05-3.33-1.57-5-.08-.27-.17-.55-.2-.83-.09-.8.27-1.36.94-1.47.66-.11 1.26.27 1.47.98.48 1.64.92 3.28 1.42 4.91 1.11 3.57 2.24 7.13 3.36 10.69.27.87.54 1.74.81 2.61.58 1.88 1.16 3.76 1.75 5.65.21.68.47 1.35.71 2.02.1-.01.2-.02.3-.03.08-.45.2-.9.25-1.36 1.1-10.98 3.23-21.78 5.92-32.47 1.26-5 2.79-9.94 4.23-14.89.42-1.44.81-2.84.78-4.39-.05-2.8.15-5.6.24-8.4.04-1.28.08-2.56.12-3.84.17-5.55.34-11.09.51-16.64.02-.61.02-1.22.03-1.83 0-.2-.01-.41.01-.61.07-1.15.54-1.74 1.34-1.68.76.05 1.15.6 1.12 1.73-.1 3.45-.22 6.9-.33 10.35-.08 2.47-.16 4.95-.23 7.42-.07 2.07-.13 4.14-.19 6.22-.01.31.05.63.08.95.08.01.16.02.25.03.15-.32.32-.63.45-.96 3.22-7.97 6.84-15.74 10.75-23.37 1.5-2.93 3.03-5.84 4.61-8.73 1.63-3 3.21-6.02 4.83-9.03.27-.5.59-.97.97-1.39.34-.36.8-.47 1.26-.23.03.01.05.03.08.04.44.28.54.62.48 1.01z" fill="#75544d"/></g><g><g fill="#6a895e"><path d="m35.21 152.94c2.05 1.62 3.88 3.01 5.14 4.98.22.34.45.68.72.99 5.14 5.85 7.82 12.72 8.24 20.43.3 5.55-.38 11.03-1.84 16.4-.05.2-.13.39-.18.59-.32 1.57-1.2 2.34-3 .75-.24-.21-.41-.51-.59-.78-1.66-2.49-3.25-5.01-4.97-7.45-1.82-2.57-3.73-5.07-5.65-7.57-2.76-3.57-5.21-7.34-7.17-11.41-1.53-3.16-2.26-6.46-2.05-9.98.26-4.37 4.66-8.22 8.98-7.71.9.12 1.76.56 2.37.76z"/><path d="m26.48 179.23c9.22 6.59 14.79 15.2 14.66 26.9-.02 1.8-.23 3.59-.37 5.38-.02.32-.08.66-.2.96-.29.74-.89.93-1.58.58-2.8-1.42-5.63-2.81-8.41-4.28-3.99-2.1-7.38-4.97-10.42-8.27-2.35-2.55-4.27-5.38-5.7-8.53-1.03-2.26-1.67-4.61-1.7-7.11-.02-1.32.18-2.62.69-3.84 1.12-2.66 3.68-4.19 6.7-4 2.3.13 4.39.91 6.33 2.21z"/><path d="m80.03 194.71c-1.02 1.68-2.35 3.07-3.76 4.37-5.46 5.03-11.64 8.83-18.75 11.06-.16.05-.31.11-.46.17-1.18.45-1.9.05-2.01-1.23-.07-.89-.01-1.8.04-2.69.23-4.01.68-7.99 1.98-11.82 2.1-6.2 5.77-11.23 11.35-14.77 1.78-1.13 3.71-1.87 5.84-2.06 5.37-.48 7.99 3.37 8.37 7.05.23 2.2-.18 4.33-.95 6.38-.46 1.21-1.09 2.36-1.65 3.54z"/><path d="m52.91 244.35c1.55-2.62 4.53-5.42 8.65-6.87.99-.35 2.05-.59 3.1-.69 2.93-.29 5.19.97 6.75 3.38 1.57 2.44 1.39 4.98-.06 7.42-1.27 2.13-3.16 3.63-5.28 4.83-3.47 1.97-7.16 3.38-11.01 4.39-1.3.34-2.6.71-3.9 1.06-.35.1-.71.2-1.07.24-1 .09-1.57-.4-1.59-1.4-.01-.49.05-.98.13-1.46.54-3.52 1.77-6.79 4.28-10.9z"/><path d="m41.38 259.93c-5.19-3.78-8.32-8.73-9.54-14.9-.4-2-.3-3.99.24-5.95.65-2.39 2.64-3.71 4.99-3.33 1.14.18 2.03.83 2.81 1.64 1.5 1.57 2.47 3.46 3.17 5.48 1.65 4.76 2.45 9.65 2.17 14.71-.07 1.18-.64 1.99-1.3 2.81-.33.41-.8.41-1.23.22-.49-.21-.94-.49-1.31-.68z"/></g><path d="m71.45 187.86c-.14.42-.39.81-.63 1.19-4.31 6.99-8.61 13.98-12.93 20.97-2.52 4.09-5.05 8.17-7.58 12.26-.52.84-.74 1.66-.7 2.65.36 9.5.08 18.99-1.06 28.44-.14 1.14-.29 2.27-.43 3.41-.05.39-.06.78.11 1.24.14-.18.27-.36.41-.54.68-.92 1.37-1.83 2.06-2.74 2.59-3.36 5.65-6.24 8.98-8.85.32-.25.68-.46 1.05-.62.52-.22 1.05-.22 1.44.28.3.39.19.96-.28 1.43-.23.23-.51.41-.76.62-3.62 3.06-7.02 6.31-9.7 10.19-.69 1-1.34 2.04-1.93 3.13-.74 1.37-1.32 2.84-2.19 4.11-.97 1.41-1.19 3.01-1.64 4.57-.91 3.14-1.85 6.27-2.78 9.41-.01.02-.01.04-.02.06-.58-.85-1.15-1.7-1.72-2.56.21-.6.41-1.2.6-1.81.55-1.8 1.04-3.62 1.56-5.43.66-2.31.47-4.65-.08-6.92-.14-.56-.28-1.13-.42-1.69-.77-3.01-1.62-5.99-2.44-8.99-.52-1.89-1.08-3.78-1.56-5.68-.16-.62-.19-1.29-.15-1.94.02-.31.32-.6.5-.91.33.19.77.31.97.6.3.42.47.95.62 1.45 1.37 4.5 2.72 9.01 4.08 13.52.02.05.04.1.07.15.06.09.17.18.35.29.08-.41.18-.81.25-1.22 1.19-7.86 1.73-15.78 1.82-23.73.03-2.58-.05-5.16-.07-7.73 0-.56-.09-1.03-.59-1.4-.29-.21-.49-.55-.7-.84-2.85-3.99-5.7-7.99-8.54-11.98-3.81-5.33-7.61-10.67-11.41-16.01-.4-.56-.82-1.13-1.15-1.74-.37-.67-.23-1.29.27-1.65.5-.35 1.17-.28 1.64.29.65.79 1.23 1.63 1.82 2.46 3.99 5.61 7.99 11.22 11.98 16.82 1.7 2.39 3.4 4.79 5.11 7.18.3.42.62.83.93 1.25.09-.02.18-.04.27-.06.02-.33.07-.66.05-.99-.51-7.78-1.44-15.49-2.96-23.11-.74-3.73-1.63-7.44-2.68-11.12-1.68-5.92-3.8-11.67-6.73-17.1-.45-.83-.96-1.62-1.42-2.44-.2-.35-.4-.72-.49-1.12-.11-.47.04-.96.51-1.14.33-.12.87-.14 1.13.05.47.36.87.86 1.18 1.38 2.01 3.29 3.63 6.78 5.03 10.37 2.8 7.19 4.74 14.58 6.14 22.1.61 3.29 1.12 6.6 1.55 9.93.41 3.21.67 6.43 1.01 9.65.04.35.1.71.15 1.06.1.03.21.05.31.08.23-.32.47-.63.68-.96 1.61-2.61 3.21-5.22 4.82-7.83 4.53-7.36 9.05-14.72 13.59-22.08.23-.38.51-.75.84-1.03.46-.38 1-.33 1.48.02.44.37.55.86.38 1.35z" fill="#75544d"/></g><g><g fill="#6a895e"><path d="m302.26 102.32c-.34 2.6-1.53 4.48-2.99 6.22-1.76 2.08-3.94 3.63-6.34 4.89-4.52 2.37-9.39 3.7-14.38 4.56-3.15.54-6.36.82-9.53 1.22-.83.11-1.66.27-2.5.34-1.63.15-2.21-.61-1.53-2.06 3.04-6.5 7.35-12.01 13.05-16.39 3.3-2.53 6.83-4.64 10.88-5.76 2.52-.69 5.06-.93 7.6-.24 2.91.78 5.01 2.49 5.65 5.59.11.6.07 1.26.09 1.63z"/><path d="m233.98 143.4c-.55 3.78-1.39 7.49-2.78 11.06-.9 2.32-1.78 4.64-2.64 6.98-.34.94-.65 1.9-.88 2.87-.22.89-.81 1.47-1.45 2.01-.59.49-1.33.28-1.82-.49-.5-.78-.99-1.56-1.39-2.39-2.81-5.72-5.04-11.63-5.76-18.01-.29-2.59-.41-5.2-.04-7.8.49-3.41 1.57-6.63 3.42-9.56.82-1.3 1.89-2.37 3.17-3.25 2.1-1.43 5.17-1.11 6.77 1.32 1.66 2.53 2.67 5.28 3.12 8.26.34 2.24.51 6.87.28 9z"/><path d="m247.51 100.94c.37-3.44.95-6.83 2.18-10.08 1.03-2.71 2.5-5.12 4.95-6.8 1.61-1.11 3.34-1.64 5.33-1.4 1.56.19 2.73.91 3.61 2.13 1.48 2.04 2.16 4.36 2.33 6.85.29 4.4-.84 8.52-2.55 12.5-2.18 5.07-4.96 9.81-8.58 14-.86 1-1.78 1.96-2.72 2.89-1.69 1.68-2.91 1.44-3.53-.83-.48-1.77-.78-3.61-.94-5.44-.41-4.6-.5-9.21-.08-13.82z"/><path d="m283.78 125.59c1.24.3 2.52.48 3.71.91 3.55 1.28 5.42 4.91 4.6 8.61-.68 3.07-2.45 5.24-5.22 6.65-3.98 2.03-8.15 2.45-12.5 1.65-3.94-.73-7.65-2.07-11.16-3.96-1.19-.64-2.29-1.47-3.33-2.33-1.07-.88-1.07-1.74-.03-2.62 3.9-3.33 8.13-6.1 13.12-7.58 3.52-1.05 7.09-1.6 10.81-1.33z"/></g><path d="m249.46 131.76c.28-.26.57-.5.83-.77 5.66-5.82 11.76-11.15 18.33-15.94 5.75-4.19 11.77-7.95 18.11-11.18.32-.16.65-.33.99-.42.65-.17 1.22.07 1.44.56.23.5.06 1.07-.48 1.47-.22.17-.48.29-.73.42-11.03 5.66-21.08 12.72-30.16 21.15-2.97 2.75-5.74 5.72-8.59 8.59-.24.24-.43.54-.82 1.03.69-.02 1.11.01 1.53-.04 9.52-1.14 19.03-2.29 28.55-3.43.47-.06.96-.07 1.43 0 .52.08.86.43.89.99.03.57-.19 1.03-.75 1.24-.34.12-.7.19-1.05.23-8.96 1.05-17.92 2.09-26.88 3.14-1.91.22-3.82.47-5.73.65-.56.05-.86.39-1.16.76-1.33 1.66-2.68 3.3-3.96 5-5.18 6.88-9.62 14.21-13.08 22.11-1.53 3.49-2.85 7.07-3.87 10.74-.12.42-.28.84-.48 1.23-.25.49-.7.65-1.22.53-.54-.13-.82-.53-.8-1.06.01-.43.09-.88.22-1.29.8-2.48 1.57-4.97 2.45-7.42.65-1.79.66-3.63.62-5.46-.17-6.29-.47-12.58-.64-18.87-.06-2 .09-4.01.19-6.01.02-.51.13-1.05.33-1.52.12-.28.47-.58.76-.63.19-.03.55.31.67.56.17.39.26.84.27 1.27.03 1.72-.04 3.45.03 5.17.15 3.85.36 7.69.53 11.54.08 1.8.11 3.61.18 5.41.01.3.08.59.15 1.13.29-.42.47-.62.58-.85 4.43-8.93 10.08-17.04 16.55-24.6.53-.62.9-1.29 1.1-2.1 2.2-8.83 4.43-17.66 6.64-26.49.74-2.95 1.47-5.91 2.21-8.87.08-.31.17-.62.31-.91.3-.64.8-.91 1.33-.74.51.16.82.69.71 1.37-.11.67-.27 1.34-.43 2-1.34 5.53-2.69 11.07-4.04 16.6-1.02 4.17-2.06 8.33-3.08 12.5-.09.36-.13.73-.2 1.1.05.03.13.07.22.11z" fill="#75544d"/></g><path d="m64.19 312.45c0-8.11-6.57-14.68-14.68-14.68 8.1 0 14.68-6.57 14.68-14.68 0 8.1 6.57 14.68 14.68 14.68-8.11.01-14.68 6.58-14.68 14.68z" fill="#b2e5d4"/><path d="m266.07 399.74c0-8.11-6.57-14.68-14.68-14.68 8.11 0 14.68-6.57 14.68-14.68 0 8.1 6.57 14.68 14.68 14.68-8.11 0-14.68 6.57-14.68 14.68z" fill="#ffe3c6"/><g fill="#b2e5d4"><path d="m399.94 86.58c0-8.18-6.63-14.8-14.8-14.8 8.18 0 14.8-6.63 14.8-14.8 0 8.18 6.63 14.8 14.8 14.8-8.17 0-14.8 6.62-14.8 14.8z"/><path d="m97.24 74.07c0-8.18-6.63-14.8-14.8-14.8 8.18 0 14.8-6.63 14.8-14.8 0 8.18 6.63 14.8 14.8 14.8-8.17 0-14.8 6.63-14.8 14.8z"/><path d="m352.21 135.84c0-8.18-6.63-14.8-14.8-14.8 8.18 0 14.8-6.63 14.8-14.8 0 8.18 6.63 14.8 14.8 14.8-8.17 0-14.8 6.62-14.8 14.8z"/></g><g><g><path d="m260.99 341.63c-44.25 30.19-103.33 18.73-133.08-24.7-29.51-43.09-19.15-101.58 23.34-131.81 43.35-30.84 102.13-20.29 132.48 21.35 15.79 21.66 21.47 45.95 17.19 72.39-4.06 25.17-18.32 47.86-39.93 62.77zm-118.84-34.83c24.01 35.36 72.38 45.31 108.34 20.87 36.44-24.77 44.75-73.32 20.77-108.6-23.68-34.84-71.41-45.38-108.4-20.81-36.51 25.24-44.43 73.59-20.71 108.54z" fill="#f8d86f"/><path d="m257.62 322.16c13.33-11.78 21.97-26.25 25.55-43.64 2.97-14.43 1.88-28.62-3.19-42.45-10.25-27.98-35.25-47.44-64.39-50.75-16.87-1.92-32.77 1.32-47.54 9.71-14.77 8.38-25.54 20.49-32.77 35.86.01-.1 0-.21.02-.31s.06-.2.09-.31c2.13-6.86 5.17-13.29 9.11-19.29 3.51-5.34 7.64-10.17 12.36-14.47 3.59-3.27 7.47-6.17 11.61-8.72 6.55-4.04 13.55-7.03 20.97-9.03 9.4-2.53 18.96-3.37 28.65-2.46 18.02 1.69 33.92 8.45 47.7 20.16 4.27 3.63 8.12 7.68 11.55 12.12 10.34 13.38 16.2 28.47 17.12 45.38.85 15.79-2.86 30.48-11.04 44.02-3.06 5.05-6.65 9.71-10.87 13.85-2.62 2.57-5.35 5.03-8.34 7.19-.86.62-1.7 1.29-2.58 1.88-1.05.7-2.23 1.11-3.49 1.31-.1.02-.21.03-.32.03-.03-.01-.08-.04-.2-.08z" fill="#eccf71"/><path d="m103.52 109.55c6.84-4.71 13.69-9.42 20.52-14.14.49-.34 1.01-.56 1.6-.66 7.2-1.34 14.4-2.69 21.59-4.03 1.2-.23 2.41-.45 3.61-.68.62-.12 1.19-.08 1.78.21 6.14 2.97 12.28 5.93 18.42 8.88.43.21.86.43 1.29.64.65.31 1.03.81 1.16 1.52.35 1.99.72 3.98 1.07 5.98 1.22 7.03 2.44 14.06 3.66 21.1 1.22 7.03 2.44 14.07 3.66 21.1 1.12 6.46 2.24 12.91 3.36 19.37.08.47.14.95.25 1.42.2.9-.03 1.7-.52 2.43-2.43 3.69-4.88 7.37-7.34 11.04-.29.43-.68.83-1.11 1.12-10.02 6.82-20.04 13.63-30.08 20.41-.49.33-1.1.55-1.68.68-4.21.92-8.44 1.8-12.66 2.69-.95.2-1.82.07-2.67-.46-9.26-5.69-18.53-11.36-27.79-17.04-7.42-4.55-14.85-9.11-22.27-13.66-2.86-1.75-5.72-3.51-8.59-5.25-1.73-1.06-1.81-1.19-1.96-3.23-.48-6.53-.96-13.07-1.44-19.6-.04-.5-.12-1.02-.06-1.51.06-.48.21-1 .46-1.41 1.49-2.43 3.03-4.83 4.55-7.24 3.03-4.8 6.06-9.59 9.08-14.39.33-.53.72-.97 1.24-1.32 6.98-4.67 13.92-9.32 20.87-13.97zm69.95 73.11c-.17-1.01-18.27-54.01-18.63-54.53-.2.12-.41.23-.6.36-9.2 6.22-18.4 12.44-27.59 18.67-3.06 2.08-6.11 4.18-9.17 6.26-5.02 3.42-10.04 6.83-15.06 10.25-.25.17-.49.36-.81.59 14.69 12.53 29.27 24.96 43.85 37.41 9.4-6.38 18.71-12.7 28.01-19.01zm-101.64-35.99c.41-.04.64-.06.88-.1 1.21-.21 2.41-.44 3.61-.66 6.03-1.09 12.05-2.18 18.08-3.26.51-.09.96-.25 1.4-.54 6.63-4.4 13.28-8.78 19.9-13.2 3.16-2.12 6.27-4.32 9.4-6.49 1.25-.86 2.49-1.74 3.73-2.61 2.58-1.79 5.17-3.58 7.74-5.38.34-.24.66-.55.88-.9 3.92-6.27 7.83-12.56 11.74-18.84.14-.22.25-.45.44-.81-.87.16-1.6.29-2.33.43-6.7 1.25-13.4 2.51-20.1 3.75-.67.12-1.25.37-1.82.76-5.97 4.15-11.93 8.3-17.92 12.42-2.15 1.48-4.34 2.89-6.51 4.34-5.25 3.51-10.49 7.02-15.74 10.52-.45.3-.81.66-1.1 1.13-3.33 5.3-6.68 10.58-10.02 15.87-.72 1.12-1.44 2.27-2.26 3.57zm98.76-41.52c-.33.52-.56.86-.77 1.22-1.29 2.08-2.57 4.17-3.86 6.25-2.73 4.42-5.45 8.83-8.19 13.24-.24.39-.25.71-.1 1.12.48 1.36.93 2.72 1.39 4.08 2 5.87 4.01 11.74 6.01 17.61 3.49 10.23 6.97 20.47 10.45 30.7.06.19.17.37.29.64.2-.26.36-.43.49-.62 1.81-2.73 3.61-5.46 5.43-8.19.23-.34.29-.66.21-1.05-.21-1.13-.39-2.26-.59-3.38-1.67-9.6-3.34-19.2-5.01-28.81-1.84-10.6-3.67-21.2-5.51-31.8-.06-.26-.14-.54-.24-1.01zm-99.6 44.67c.44 6.02.86 11.95 1.32 17.95 8.36-1.49 16.6-2.93 24.89-4.43-.8-5.99-1.59-11.86-2.39-17.82-7.97 1.44-15.84 2.86-23.82 4.3zm98.06-47.72c-5.46-2.65-10.81-5.24-16.19-7.85-4.29 6.89-8.53 13.7-12.79 20.56 5.28 2.96 10.45 5.86 15.69 8.8 4.44-7.2 8.84-14.32 13.29-21.51z" fill="#a2dae4"/><path d="m71.56 146.85c.19-.38.29-.62.42-.83 3.53-5.6 7.06-11.19 10.59-16.79.5-.79.97-1.59 1.51-2.35.27-.38.62-.73.99-1 .84-.62 1.71-1.18 2.57-1.76 3.96-2.65 7.92-5.29 11.88-7.93 3.41-2.27 6.84-4.51 10.23-6.81 4.03-2.74 8.02-5.52 12.02-8.3 1.03-.71 2.05-1.43 3.03-2.2.89-.7 1.89-1.03 2.98-1.23 4.44-.81 8.88-1.66 13.32-2.49 2.66-.5 5.33-1 8-1.49.25-.05.51-.05.93-.08-.49.83-.88 1.52-1.3 2.19-1.76 2.82-3.52 5.63-5.28 8.45-1.88 3.02-3.75 6.05-5.63 9.07-.31.5-.71.91-1.21 1.25-2.9 1.98-5.79 3.98-8.68 5.98-.79.54-1.61 1.05-2.38 1.62-5.26 3.9-10.78 7.42-16.18 11.12-2.85 1.96-5.76 3.82-8.65 5.72-1.58 1.04-3.16 2.06-4.73 3.12-.5.34-1.02.55-1.61.66-3.92.7-7.85 1.4-11.77 2.11-3.22.58-6.43 1.18-9.64 1.77-.41.08-.82.12-1.41.2z" fill="#b2effa"/><path d="m101.33 164.11c17.96-12.19 35.77-24.28 53.68-36.44.14.3.28.54.36.8 1.06 3.09 2.11 6.18 3.16 9.28 1.48 4.35 2.95 8.71 4.43 13.06 1.16 3.42 2.33 6.84 3.5 10.26 1.69 4.98 3.38 9.96 5.07 14.94.65 1.91 1.31 3.82 1.96 5.73.08.22.14.45.23.7-9.44 6.41-18.87 12.81-28.35 19.25-7.34-6.26-14.67-12.52-22-18.77s-14.65-12.49-22.04-18.81z" fill="#a9e3ee"/><path d="m70.82 149.55c8.09-1.46 16.05-2.9 24-4.34.3.62 2.4 15.7 2.53 18.05-.26.09-.55.24-.84.29-1.8.34-3.61.66-5.41.98-2.01.36-4.03.7-6.04 1.06-2.83.5-5.65 1-8.48 1.5-1.23.22-2.46.44-3.69.66-.64.12-.75.05-.8-.6-.19-2.6-.38-5.19-.57-7.79-.21-2.91-.43-5.83-.64-8.74-.04-.34-.04-.68-.06-1.07z" fill="#a9e3ee"/><path d="m139.85 114.75c4.32-6.95 8.61-13.84 12.95-20.82.52.24 1.05.47 1.56.72 4.76 2.31 9.51 4.62 14.27 6.93.07.03.15.06.22.1.4.23.44.37.2.77-.97 1.56-1.94 3.11-2.91 4.67-1.49 2.42-2.98 4.84-4.47 7.26-1.24 2.01-2.5 4.01-3.75 6.02-.48.77-.94 1.54-1.41 2.31-.1.16-.19.32-.3.47-.37.5-.45.52-.98.22-1.6-.89-3.2-1.79-4.8-2.69-3.23-1.81-6.45-3.61-9.68-5.42-.27-.16-.54-.33-.9-.54z" fill="#d7f9ff"/><path d="m175.67 180.39c-.18-.48-.32-.81-.44-1.15-1.62-4.75-3.23-9.51-4.84-14.27-1.92-5.64-3.83-11.27-5.75-16.91-1.22-3.57-2.45-7.14-3.67-10.72-1.2-3.52-2.38-7.05-3.59-10.57-.11-.33-.1-.58.09-.89 1.1-1.76 2.18-3.53 3.26-5.29 1.51-2.44 3.01-4.88 4.52-7.33 1.61-2.6 3.21-5.2 4.82-7.8.13-.21.32-.39.62-.73.14.66.26 1.13.34 1.61.56 3.19 1.11 6.39 1.66 9.58.57 3.27 1.12 6.55 1.69 9.82.69 3.98 1.39 7.96 2.08 11.94.66 3.82 1.3 7.65 1.97 11.48.59 3.43 1.21 6.86 1.81 10.29.62 3.59 1.24 7.18 1.87 10.76.06.35-.01.61-.2.89-1.06 1.6-2.1 3.2-3.15 4.8-.86 1.31-1.74 2.61-2.61 3.92-.11.16-.25.3-.48.57z" fill="#cbf7ff"/></g><g><path d="m117.73 265.01c-.08-.29-.15-.59-.22-.88.03.16.06.32.1.48-.19-.98-.26-1.97-.21-2.96-.01.16-.02.32-.03.48.06-.99.25-1.97.56-2.92-.05.15-.1.31-.15.46.07-.21.15-.42.23-.62.18-.46.25-.94.08-1.42-.15-.44-.54-.91-.98-1.1-.89-.38-2.13-.09-2.52.89-1.11 2.82-1.28 5.89-.44 8.81.27.95 1.48 1.54 2.4 1.18.99-.39 1.47-1.38 1.18-2.4z" fill="#fff"/></g><g><path d="m117.2 273.53c.82-.56 1.11-1.81.5-2.63s-1.75-1.1-2.63-.5c-.82.56-1.11 1.81-.5 2.63s1.75 1.1 2.63.5z" fill="#fff"/></g></g><g><g><path d="m249.14 295.51c-25.84-46.92-8.81-104.65 37.25-130.12 45.71-25.28 102.94-9.39 128.99 35.78 26.57 46.08 10.48 103.6-33.86 129.84-23.06 13.65-47.78 16.99-73.7 10.22-24.66-6.43-45.89-22.78-58.68-45.72zm45.99-114.98c-37.48 20.53-52 67.73-31.09 105.86 21.18 38.63 68.73 51.52 106.13 31.01 36.94-20.25 51.97-66.77 31.03-105.93-21.65-38.75-69.03-51.22-106.07-30.94z" fill="#f8d86f"/><path d="m268.85 294.02c10.46 14.39 24.04 24.37 41.01 29.59 14.08 4.33 28.31 4.6 42.56.87 28.83-7.54 50.58-30.57 56.65-59.27 3.52-16.62 1.8-32.75-5.14-48.25s-17.96-27.38-32.58-36.04c.1.02.21.02.31.05s.2.08.3.12c6.63 2.77 12.74 6.41 18.34 10.9 4.99 4 9.39 8.57 13.23 13.68 2.92 3.88 5.43 8.02 7.57 12.38 3.39 6.9 5.71 14.15 6.99 21.74 1.62 9.6 1.55 19.2-.28 28.76-3.39 17.78-11.64 32.96-24.61 45.57-4.02 3.91-8.41 7.35-13.16 10.34-14.31 9.02-29.89 13.42-46.81 12.72-15.8-.65-30.07-5.75-42.77-15.18-4.74-3.52-9.03-7.54-12.75-12.14-2.31-2.85-4.5-5.8-6.36-8.98-.54-.92-1.12-1.81-1.62-2.75-.6-1.12-.9-2.33-.97-3.59-.01-.11-.01-.21 0-.32 0-.05.04-.09.09-.2z" fill="#eccf71"/></g><g><path d="m258.45 193.88c-1.9 1.82-3.33 4.06-4.25 6.52-.16.43-.06 1.04.16 1.44.22.41.67.79 1.13.91.47.12 1.01.11 1.44-.16.45-.27.72-.64.91-1.13.1-.28.22-.55.34-.83-.06.15-.13.3-.19.44.52-1.17 1.18-2.27 1.97-3.28-.1.13-.2.26-.3.38.44-.56.93-1.09 1.44-1.58.71-.68.78-1.98.04-2.67-.76-.71-1.92-.78-2.69-.04z" fill="#fff"/></g><g><path d="m251.71 207.33c.48.87 1.69 1.28 2.57.75s1.26-1.64.75-2.57c-.48-.87-1.69-1.28-2.57-.75s-1.26 1.64-.75 2.57z" fill="#fff"/></g></g></g></g></svg>