<svg id="Слой_1" enable-background="new 0 0 500 500" height="512" viewBox="0 0 500 500" width="512" xmlns="http://www.w3.org/2000/svg"><g><path d="m246.31 499.96c-23.91-.61-46.93-5.83-68.42-15.49-20.74-9.33-39.22-22.41-54.93-38.89-15.67-16.43-27.83-35.45-36.15-56.52-8.58-21.74-12.67-44.74-12.17-68.34.79-36.63 12.65-71.46 34.31-100.73 10.44-14.11 22.9-26.54 37.02-36.95 9.28-6.84 19.17-12.72 29.55-17.58-2.59-6.16-5.18-12.29-7.72-18.32l-5.81-13.79c-3.03-7.18-6.05-14.37-9.08-21.55-2.57-6.09-5.13-12.19-7.7-18.28-2.15-5.1-4.3-10.21-6.47-15.31-.99-2.33-2.64-6.22-2.24-11.32.39-5.04 2.59-8.62 3.9-10.77 3.1-5.07 6.21-10.15 9.31-15.23 2.55-4.17 5.1-8.35 7.65-12.52l.12-.2c.57-.98 1.64-2.82 3.42-4.71 2.32-2.48 4.99-4.35 7.92-5.58 3.35-1.41 6.72-2.77 9.98-4.08 1.1-.45 2.2-.89 3.3-1.34l5.91-2.4c6.71-2.72 13.43-5.45 20.13-8.19 3.24-1.32 6.58-1.95 9.91-1.87l.18.01c11.31.38 22.61.74 33.92 1.11l7.42.24 9.23.17c10.62.2 21.25.4 31.87.59h.19c3.36.09 6.62.86 9.67 2.29 8.91 4.18 17.83 8.35 26.75 12.51l6.96 3.25c1.55.72 3.09 1.45 4.64 2.16 4.39 2.03 7.9 5.31 10.17 9.48 4.06 7.48 8.22 15.09 12.24 22.45l3.94 7.21c.23.41.44.82.66 1.24.15.28.3.57.46.85 3.27 5.98 3.45 12.92.5 19.04-.69 1.42-1.36 2.85-2.04 4.28-.76 1.6-1.52 3.2-2.29 4.8-3.65 7.57-7.31 15.14-10.97 22.71l-27.11 56.09c24.24 13.27 45.02 32.13 60.74 55.26 19.49 28.69 29.93 62.19 30.2 96.88.38 48.88-17.02 91.37-51.72 126.3-16.52 16.62-35.96 29.52-57.79 38.33-21.94 8.85-45.17 13.12-69.06 12.7-.01.02-.5.01-.5.01zm6.65-287.37c-62.71-.99-113.06 46.88-114.66 109.05-1.57 61.66 47.12 113.11 108.56 114.69h.06c3.81.1 7.64 0 11.42-.27.42-.08.85-.14 1.28-.18 26.05-2.66 47.77-12.31 66.39-29.52 15.39-14.22 26.05-31.73 31.69-52.04 1.23-4.44 2.2-8.98 2.88-13.52.01-.04.01-.08.02-.11.04-.28.08-.55.12-.83l.04-.29c.55-4.06.87-8.19.98-12.29 1.56-62.04-46.21-112.38-108.78-114.69z" fill="#fff"/><g><g><path d="m247.14 482.6c-88.6-2.07-157-74.43-155.12-161.5 1.86-86.39 72.17-155.04 158.45-154.73 88.01.32 156.88 71.17 157.55 156.41.35 44.34-15.43 82.48-46.67 113.91-29.73 29.93-70.77 46.68-114.21 45.91zm-126.21-161.41c-1.8 70.68 53.63 130.7 125.56 132.51 72.87 1.83 130.85-55.45 132.62-126 1.75-69.67-52.27-129.86-125.69-132.48-73.44-1.26-130.69 56.12-132.49 125.97z" fill="#f8d86f"/><path d="m261.39 453.16c29.28-2.99 54.85-14.12 76.42-34.05 17.9-16.55 30.12-36.67 36.64-60.15 13.19-47.5-1.66-97.76-37.66-130.32-20.84-18.85-45.34-29.82-73.28-32.78-27.94-2.97-54.1 2.92-78.64 16.63.11-.13.21-.28.33-.39.13-.12.28-.22.42-.32 9.47-7.18 19.76-12.89 30.85-17.16 9.87-3.8 20.07-6.3 30.57-7.54 7.98-.94 15.99-1.09 24.01-.53 12.7.89 24.99 3.61 36.9 8.08 15.08 5.67 28.74 13.75 40.9 24.32 22.6 19.64 37.46 44.06 44.71 73.09 2.25 9 3.52 18.15 3.85 27.43 1 27.96-5.66 53.91-20.73 77.53-14.07 22.05-33.23 38.23-57.29 48.54-8.98 3.85-18.3 6.65-27.96 8.14-6 .93-12.05 1.61-18.14 1.63-1.76 0-3.52.1-5.28.04-2.09-.07-4.08-.66-5.95-1.6-.16-.08-.31-.16-.46-.26-.06-.07-.1-.16-.21-.33z" fill="#eccf71"/><path d="m259.14 18.73c13.74.26 27.49.52 41.23.77.99.02 1.9.23 2.8.65 10.97 5.14 21.94 10.27 32.92 15.39 1.84.86 3.67 1.72 5.51 2.57.94.44 1.67 1.04 2.19 2 5.38 9.91 10.8 19.81 16.21 29.71.38.7.74 1.4 1.12 2.1.57 1.04.61 2.08.09 3.16-1.45 3.02-2.87 6.05-4.33 9.07-5.13 10.64-10.28 21.27-15.41 31.9-5.14 10.63-10.28 21.27-15.42 31.9-4.72 9.76-9.43 19.52-14.15 29.28-.35.71-.72 1.41-1.03 2.14-.59 1.4-1.68 2.26-3.04 2.77-6.83 2.61-13.66 5.21-20.51 7.77-.8.3-1.72.45-2.58.43-20.04-.49-40.08-1-60.12-1.55-.98-.03-2.01-.32-2.92-.71-6.55-2.83-13.08-5.71-19.61-8.58-1.47-.65-2.51-1.67-3.16-3.19-6.96-16.58-13.96-33.14-20.94-49.71-5.6-13.28-11.18-26.56-16.78-39.84-2.16-5.12-4.31-10.23-6.48-15.34-1.31-3.09-1.29-3.35.48-6.24 5.66-9.25 11.3-18.5 16.96-27.75.44-.71.82-1.49 1.38-2.09.55-.59 1.24-1.14 1.98-1.45 4.35-1.82 8.72-3.57 13.09-5.34 8.69-3.53 17.39-7.05 26.08-10.6.96-.39 1.9-.62 2.95-.58 13.84.47 27.67.92 41.49 1.36zm23.58 165.73c.75-1.52 27.51-90.24 27.52-91.28-.38-.03-.77-.08-1.16-.09-18.36-.5-36.73-1.01-55.09-1.5-6.12-.16-12.24-.27-18.37-.42-10.04-.24-20.08-.5-30.12-.74-.5-.01-1 .01-1.66.02 7.67 31 15.29 61.78 22.9 92.58 18.77.48 37.39.96 55.98 1.43zm-101.98-146.36c.59.33.92.55 1.27.71 1.83.87 3.66 1.73 5.49 2.6 9.15 4.34 18.31 8.68 27.45 13.04.77.37 1.54.59 2.4.62 13.16.47 26.32 1 39.49 1.43 6.29.2 12.6.23 18.89.33 2.51.04 5.02.05 7.53.09 5.2.08 10.39.17 15.59.22.68.01 1.42-.1 2.05-.36 11.33-4.65 22.64-9.34 33.95-14.02.39-.16.77-.37 1.38-.67-1.33-.63-2.44-1.15-3.55-1.67-10.21-4.78-20.43-9.54-30.64-14.34-1.02-.48-2.04-.72-3.17-.73-12.02-.17-24.05-.35-36.07-.58-4.31-.08-8.62-.31-12.94-.45-10.43-.35-20.87-.68-31.3-1.03-.9-.03-1.73.11-2.56.45-9.58 3.91-19.18 7.79-28.77 11.69-2.06.85-4.13 1.71-6.49 2.67zm172.81 39.37c-.94.38-1.58.62-2.21.89-3.74 1.56-7.48 3.12-11.22 4.68-7.92 3.31-15.85 6.62-23.78 9.9-.7.29-1.02.72-1.22 1.4-.66 2.28-1.38 4.55-2.07 6.83-2.97 9.83-5.92 19.66-8.89 29.48-5.18 17.12-10.36 34.24-15.54 51.36-.1.32-.13.65-.23 1.14.52-.15.9-.23 1.25-.37 5.06-1.92 10.12-3.87 15.19-5.78.63-.24 1.02-.62 1.3-1.21.81-1.71 1.64-3.41 2.47-5.12 7.01-14.52 14.02-29.04 21.03-43.56 7.74-16.02 15.5-32.05 23.24-48.07.21-.39.37-.83.68-1.57zm-176.97-35.95c-5.21 8.51-10.36 16.9-15.52 25.41 12.67 6.05 25.14 12.06 37.73 18.03 4.69-8.82 9.3-17.48 13.97-26.26-12.11-5.75-24.07-11.43-36.18-17.18zm177.85 30.36c-4.79-8.82-9.49-17.47-14.21-26.16-12.41 5.13-24.68 10.21-37.02 15.31 4.24 9.06 8.4 17.95 12.62 26.95 12.92-5.39 25.69-10.71 38.61-16.1z" fill="#a2dae4"/><path d="m180.21 38.07c.62-.33.98-.56 1.37-.71 10.14-4.13 20.28-8.25 30.43-12.36 1.43-.58 2.84-1.2 4.29-1.71.73-.25 1.53-.38 2.3-.39 1.72-.02 3.43.06 5.15.11 7.87.26 15.75.52 23.62.79 6.77.23 13.54.54 20.32.71 8.05.2 16.11.3 24.16.42 2.06.03 4.13.05 6.19-.04 1.87-.09 3.53.44 5.18 1.22 6.76 3.19 13.54 6.33 20.31 9.5 4.06 1.9 8.13 3.8 12.18 5.71.38.18.72.43 1.33.78-1.46.64-2.65 1.2-3.85 1.7-5.08 2.1-10.17 4.17-15.25 6.27-5.44 2.25-10.88 4.52-16.32 6.77-.9.37-1.83.54-2.83.52-5.81-.14-11.62-.22-17.43-.33-1.59-.03-3.17-.14-4.76-.11-10.83.18-21.65-.41-32.48-.64-5.72-.12-11.43-.42-17.14-.65-3.12-.12-6.24-.28-9.37-.36-1-.02-1.91-.24-2.79-.66-5.95-2.84-11.9-5.69-17.86-8.51-4.88-2.32-9.78-4.61-14.67-6.92-.61-.3-1.21-.65-2.08-1.11z" fill="#b2effa"/><path d="m203.59 89.98c35.9.92 71.51 1.83 107.31 2.75-.1.53-.15.99-.28 1.42-1.56 5.18-3.13 10.35-4.69 15.52-2.21 7.28-4.42 14.55-6.63 21.83-1.73 5.72-3.45 11.45-5.19 17.17-2.52 8.33-5.06 16.65-7.58 24.98-.97 3.2-1.92 6.4-2.89 9.6-.11.37-.24.74-.38 1.17-18.88-.48-37.71-.97-56.67-1.45-3.83-15.5-7.65-30.98-11.49-46.45-3.83-15.46-7.66-30.92-11.51-46.54z" fill="#a9e3ee"/><path d="m176.61 41c12.28 5.83 24.38 11.57 36.45 17.3-.19 1.13-11.9 23.42-14 26.7-.45-.13-.96-.21-1.42-.42-2.75-1.28-5.49-2.59-8.22-3.9-3.05-1.46-6.1-2.94-9.15-4.4-4.28-2.06-8.56-4.11-12.84-6.16-1.86-.89-3.73-1.78-5.6-2.66-.98-.46-1.06-.65-.49-1.58 2.24-3.68 4.5-7.35 6.74-11.03 2.52-4.13 5.04-8.25 7.56-12.38.29-.47.62-.94.97-1.47z" fill="#a9e3ee"/><path d="m302.98 60.74c12.51-5.17 24.92-10.31 37.49-15.51.47.83.96 1.64 1.41 2.47 4.17 7.69 8.34 15.38 12.51 23.07.06.12.15.22.2.34.31.7.23.93-.48 1.22-2.8 1.16-5.61 2.31-8.41 3.48-4.34 1.81-8.67 3.64-13.02 5.45-3.61 1.5-7.23 2.99-10.85 4.49-1.38.57-2.75 1.16-4.13 1.75-.28.12-.56.25-.86.35-.97.31-1.11.26-1.53-.64-1.29-2.75-2.58-5.5-3.87-8.25-2.6-5.54-5.19-11.08-7.78-16.62-.21-.48-.41-.96-.68-1.6z" fill="#d7f9ff"/><path d="m287.86 183.53c.22-.82.35-1.41.52-1.98 2.41-7.95 4.83-15.9 7.24-23.85 2.86-9.42 5.71-18.85 8.56-28.28 1.81-5.98 3.59-11.96 5.4-17.94 1.78-5.89 3.59-11.77 5.37-17.67.17-.56.42-.88.98-1.11 3.17-1.3 6.33-2.65 9.49-3.97 4.38-1.83 8.76-3.66 13.14-5.49 4.67-1.95 9.33-3.9 14-5.84.38-.16.81-.21 1.54-.39-.45 1.03-.74 1.78-1.09 2.5-2.33 4.83-4.66 9.66-7 14.49-2.39 4.95-4.8 9.89-7.19 14.84-2.91 6.02-5.8 12.05-8.71 18.06-2.8 5.78-5.62 11.55-8.42 17.33-2.51 5.19-4.98 10.39-7.49 15.57-2.62 5.42-5.26 10.84-7.86 16.27-.25.53-.61.81-1.13 1.01-2.96 1.13-5.91 2.28-8.86 3.41-2.42.93-4.85 1.84-7.29 2.75-.3.1-.63.15-1.2.29z" fill="#cbf7ff"/></g><g><path d="m128.37 241.46c.17-.47.36-.94.56-1.4-.11.25-.22.49-.33.74.68-1.5 1.55-2.9 2.58-4.18-.17.21-.34.41-.51.62 1.04-1.27 2.23-2.41 3.56-3.39-.22.16-.43.32-.65.47.3-.21.6-.42.9-.62.69-.45 1.24-1.02 1.48-1.83.23-.74.16-1.74-.25-2.42-.83-1.36-2.78-2.18-4.25-1.23-4.21 2.73-7.39 6.69-9.09 11.41-.55 1.54.51 3.5 2.09 3.9 1.72.45 3.32-.42 3.91-2.07z" fill="#fff"/></g><g><path d="m119.44 252.41c1.64.04 3.24-1.36 3.21-3.05-.03-1.7-1.29-3.16-3.05-3.21-1.64-.04-3.24 1.36-3.21 3.05.04 1.69 1.3 3.16 3.05 3.21z" fill="#fff"/></g></g></g></svg>