<svg id="Слой_1" enable-background="new 0 0 500 500" height="512" viewBox="0 0 500 500" width="512" xmlns="http://www.w3.org/2000/svg"><g><g fill="#fff"><path d="m38.54 414.89c-10.53 0-19.21-7.94-20.38-18.16-10.22-1.17-18.16-9.85-18.16-20.38s7.94-19.24 18.16-20.41c1.16-10.22 9.84-18.16 20.38-18.16s19.24 7.94 20.41 18.16c10.22 1.16 18.16 9.84 18.16 20.38s-7.94 19.24-18.16 20.41c-1.16 10.22-9.84 18.16-20.38 18.16z"/><path d="m38.57 358.29h-.03c0 9.96-8.07 18.03-18.03 18.03v.03c9.96 0 18.03 8.07 18.03 18.03h.03c0-9.96 8.07-18.03 18.03-18.03v-.03c-9.95 0-18.03-8.08-18.03-18.03z"/><path d="m207.22 471.07c-42.01 0-78.26-.02-104.83-.04-46.67-.05-46.67-.05-48.81-.39-9.96-1.58-17.29-10.17-17.29-20.25v-76.34c-4.52-3.76-7.39-9.42-7.39-15.75 0-1.23-1-2.24-2.24-2.24-11.33 0-20.51-9.18-20.51-20.51s9.18-20.55 20.51-20.55c1.23 0 2.24-1 2.24-2.24 0-6.34 2.88-12.01 7.39-15.77v-78.93c0-.27 0-.54.01-.82-.57-7.69 2.49-14.97 8.51-20.12 2.33-1.99 4.71-4.08 7.02-6.1.92-.8 1.83-1.6 2.75-2.4l62.97-54.87c-.32-2.44-.4-4.95-.23-7.51.62-9.72 5.45-18.36 13.61-24.33 6.02-4.41 13.12-6.91 20.63-7.28 1.61-1.93 3.41-3.71 5.38-5.33 5.81-4.78 12.7-7.63 19.91-8.24.42-.04.85-.06 1.27-.08l22.12-19.28c7.53-6.56 15.05-13.12 22.58-19.69l8-6.98c4.51-3.93 10.23-6.1 16.12-6.1 5.88 0 11.6 2.16 16.11 6.09l37.33 32.53c4.26-2.14 8.95-3.26 13.75-3.26 3.1 0 6.25.46 9.35 1.38 6.54 1.93 12.2 5.53 16.7 10.58 2.04.14 4.07.45 6.06.91 6.96 1.63 13.09 5.18 17.72 10.28 7.21 7.95 9.83 18.25 7.36 29.01-.8 3.48-2.04 6.73-3.69 9.71l68.49 59.69c4.34 3.79 8.69 7.57 13.04 11.35 1.43 1.24 2.7 2.61 3.8 4.08 2.51 1.63 4.7 3.75 6.41 6.27 2.75 3.54 4.31 7.95 4.31 12.58v107.74c7.38 3.11 12.55 10.4 12.55 18.91 0 1.8 1.46 3.26 3.26 3.26 11.33 0 20.51 9.18 20.51 20.51v.04c0 11.33-9.18 20.51-20.51 20.51-1.8 0-3.26 1.46-3.26 3.26 0 .55-.02 1.1-.07 1.65 6.38 3.48 10.71 10.24 10.71 18.02v.04c0 11.33-9.18 20.51-20.51 20.51-1.2 0-2.14.62-2.69 1.43v14.31c0 11.33-9.18 20.51-20.51 20.51h-8.65c-20.16.16-132.09.24-227.29.24z"/><path d="m455.68 394.38h.04c0-13.13 10.64-23.77 23.77-23.77v-.04c-13.13 0-23.77-10.64-23.77-23.77h-.04c0 9.05-5.06 16.92-12.51 20.94 0-49.15 0-98.31 0-147.58-.18.1-.34.19-.49.27.06-.44-.01-.88-.25-1.28-.53-.9-1.61-1.24-2.66-.78-.48.21-.93.5-1.38.78-.32.2-.63.39-.95.59 0-1.08 0-2.16 0-3.24 0-1.6-.56-2.79-1.73-3.8-4.54-3.94-9.07-7.89-13.6-11.84-28.94-25.22-57.87-50.44-86.81-75.66 2.71-.5 5.32-1.32 7.77-2.66 4.3-2.35 7.15-5.83 8.25-10.65.91-3.97.22-7.59-2.55-10.64-1.94-2.13-4.41-3.45-7.2-4.1-3.86-.9-7.63-.45-11.31.93-.27.1-.55.19-1.1.38-.01-.33.04-.59-.04-.8-.54-1.36-1-2.78-1.69-4.06-2.17-3.99-5.28-6.93-9.74-8.25-3.25-.96-6.41-.7-9.23 1.19-3.59 2.4-5.69 5.68-6.46 9.64-17.47-15.23-34.95-30.46-52.42-45.69-1.6-1.39-3.68-1.39-5.28 0-10.19 8.89-20.38 17.78-30.58 26.67-9.67 8.43-19.35 16.86-29.03 25.29-1.83-.8-3.86-1.15-6.11-.96-3.24.27-6.11 1.59-8.61 3.64-3.45 2.84-5.62 6.53-6.91 10.77-.1.31-.2.62-.41 1.24-.3-.21-.5-.44-.74-.51-1.59-.45-3.17-1.01-4.79-1.26-5.06-.79-9.83-.02-14.06 3.08-3.08 2.26-5.01 5.26-5.26 9.08-.31 4.78 1.14 8.86 4.07 12.23-.54.47-1.08.94-1.62 1.41-24.06 20.97-48.12 41.93-72.18 62.9-3.3 2.87-6.58 5.77-9.91 8.61-1.03.88-1.54 1.87-1.38 3.24.09.7.03 1.41.03 2.12v111.44c-4.52-4.16-7.35-10.12-7.35-16.74h-.04c0 12.56-10.18 22.74-22.74 22.74v.04c12.56 0 22.74 10.18 22.74 22.74h.04c0-6.62 2.83-12.59 7.35-16.74v106.79 2.04c1.71.27 342.17.21 377.64-.04h8.73c0-5.89 0-11.77 0-17.65 2.36-10.64 11.85-18.59 23.2-18.59v-.04c-11.35 0-20.83-7.95-23.2-18.59 0-7.34 0-14.68 0-22.01 7.44 4.03 12.5 11.9 12.5 20.95z"/></g><g><g><path d="m56.8 450.38c0-.73 0-1.38 0-2.04 0-76.76 0-153.52 0-230.28 0-.71.06-1.42-.03-2.12-.17-1.37.35-2.37 1.38-3.24 3.32-2.85 6.61-5.74 9.91-8.61 24.06-20.97 48.12-41.93 72.18-62.9 24.49-21.34 48.99-42.68 73.48-64.03 10.2-8.89 20.39-17.78 30.58-26.67 1.6-1.39 3.68-1.39 5.28 0 27.62 24.08 55.25 48.15 82.87 72.23 29.89 26.05 59.78 52.1 89.67 78.15 4.53 3.95 9.06 7.9 13.6 11.84 1.16 1.01 1.73 2.2 1.73 3.8-.02 77.38-.02 154.75-.02 232.13v1.66c-1.09.29-378.83.37-380.63.08z" fill="#efccae"/><g><path d="m179.94 200.07c.58-.8.87-1.19 1.15-1.6 3.77-5.49 8.54-9.78 14.78-12.28 4.51-1.81 9.22-2.39 13.98-1.32 6.82 1.54 11.3 5.89 13.89 12.27 3.16 7.76 2.59 15.36-1.08 22.79-2.51 5.09-6.06 9.38-10.2 13.22-4.19 3.88-8.42 7.71-12.61 11.59-3.32 3.07-6.61 6.18-9.14 9.98-.03.05-.07.09-.1.13-1.33 1.72-1.44 1.8-3.23.44-4.23-3.21-9.02-5.36-13.81-7.53-5.51-2.49-11.05-4.93-16.45-7.64-5.83-2.92-10.98-6.81-14.61-12.34-4.94-7.52-6.14-15.63-2.86-24.09 2.08-5.36 6.21-8.79 11.64-10.62 7.46-2.52 14.63-1.46 21.53 1.96 2.21 1.1 4.22 2.62 6.29 3.98.31.21.49.62.83 1.06z" fill="#ff7772"/><g fill="#f4fafa"><path d="m150.54 221.71c.29 1.16.15 2.24-.4 3.28-.64 1.21-1.52 1.56-2.8 1.03-1.71-.72-2.75-2.15-3.55-3.71-1.43-2.8-1.66-5.82-1.32-8.9.07-.64.38-1.32.77-1.83.99-1.3 2.73-1.27 3.78-.02.22.26.44.54.55.85.96 2.82 1.9 5.65 2.84 8.49.08.25.08.54.13.81z"/><path d="m149.4 202.89c.18 1.36-.93 3.69-2.12 4.36-.71.4-1.5.55-2.25.14-.77-.42-1.05-1.17-1-2 .1-1.59.73-2.95 2.01-3.92 1.44-1.1 3.12-.36 3.36 1.42z"/></g></g><g><path d="m258.31 276.12c.49-.96.74-1.44.97-1.92 3.14-6.58 7.57-12.03 13.88-15.8 4.57-2.73 9.56-4.16 14.89-3.81 7.64.5 13.22 4.44 17.12 10.9 4.74 7.85 5.42 16.16 2.72 24.83-1.85 5.93-4.95 11.18-8.77 16.03-3.86 4.91-7.79 9.77-11.66 14.68-3.07 3.89-6.09 7.81-8.18 12.35-.03.06-.06.11-.09.16-1.15 2.09-1.25 2.19-3.42 1.03-5.12-2.75-10.66-4.26-16.22-5.79-6.38-1.75-12.79-3.45-19.09-5.45-6.8-2.16-13.03-5.49-17.9-10.85-6.62-7.29-9.31-15.86-7.2-25.56 1.33-6.15 5.21-10.56 10.77-13.47 7.64-3.99 15.57-4.08 23.61-1.55 2.58.81 5.01 2.11 7.48 3.23.38.16.65.57 1.09.99z" fill="#ff7772"/><g fill="#f4fafa"><path d="m230.21 304.53c.52 1.2.55 2.4.13 3.62-.49 1.42-1.37 1.95-2.86 1.59-1.97-.48-3.34-1.86-4.47-3.41-2.02-2.78-2.79-6.01-2.94-9.39-.03-.7.18-1.49.52-2.11.85-1.58 2.73-1.84 4.09-.67.28.24.57.5.73.82 1.52 2.89 3.02 5.79 4.52 8.69.13.27.19.58.28.86z"/><path d="m225.77 284.38c.43 1.44-.37 4.15-1.55 5.08-.7.56-1.53.85-2.41.53-.9-.32-1.34-1.09-1.42-1.99-.17-1.73.29-3.31 1.5-4.58 1.37-1.44 3.32-.93 3.88.96z"/></g></g><g><path d="m327.44 201.23c.62-.49.94-.72 1.24-.98 4.13-3.39 8.77-5.64 14.14-6.18 3.89-.39 7.65.21 11.08 2.1 4.92 2.71 7.4 7.06 7.99 12.57.71 6.69-1.43 12.43-5.92 17.35-3.07 3.37-6.77 5.89-10.82 7.93-4.1 2.06-8.22 4.07-12.31 6.13-3.25 1.63-6.48 3.3-9.28 5.67-.03.03-.07.05-.11.08-1.41 1.03-1.51 1.07-2.59-.38-2.55-3.42-5.76-6.15-8.98-8.89-3.7-3.15-7.43-6.27-10.99-9.56-3.85-3.55-6.95-7.7-8.52-12.78-2.13-6.9-1.26-13.43 3.16-19.23 2.8-3.67 6.75-5.4 11.35-5.6 6.32-.28 11.62 2.14 16.17 6.31 1.46 1.34 2.67 2.96 3.97 4.47.21.22.26.58.42.99z" fill="#ff7772"/><g fill="#f4fafa"><path d="m299.93 211.37c-.03.96-.38 1.76-1.04 2.45-.77.79-1.52.87-2.39.17-1.16-.93-1.64-2.27-1.91-3.65-.48-2.48.02-4.86.97-7.16.2-.48.58-.93 1-1.24 1.06-.78 2.39-.38 2.92.83.11.25.22.51.23.77.11 2.39.21 4.79.3 7.18.01.21-.05.44-.08.65z"/><path d="m303.25 196.6c-.16 1.09-1.54 2.64-2.61 2.89-.64.15-1.28.09-1.77-.4-.5-.49-.55-1.14-.33-1.77.43-1.2 1.22-2.11 2.42-2.58 1.37-.51 2.5.43 2.29 1.86z"/></g></g><g><path d="m162.64 117.15c.21-.62.32-.93.41-1.24 1.29-4.24 3.46-7.93 6.91-10.77 2.5-2.06 5.37-3.37 8.61-3.64 4.64-.39 8.36 1.47 11.29 5 3.56 4.29 4.73 9.23 3.89 14.69-.57 3.74-1.96 7.18-3.82 10.44-1.88 3.31-3.8 6.59-5.68 9.89-1.49 2.62-2.95 5.25-3.8 8.17-.01.04-.03.07-.04.11-.5 1.36-.55 1.43-1.96.93-3.33-1.19-6.8-1.59-10.28-2.01-4-.47-8.01-.91-11.98-1.55-4.29-.68-8.34-2.12-11.75-4.9-4.64-3.78-7.04-8.69-6.66-14.72.24-3.82 2.17-6.83 5.26-9.08 4.23-3.1 9-3.87 14.06-3.08 1.62.25 3.2.81 4.79 1.26.25.06.45.29.75.5z" fill="#ff7772"/><g fill="#f4fafa"><path d="m148.32 136.8c.42.67.55 1.39.41 2.17-.17.9-.65 1.3-1.57 1.21-1.23-.11-2.18-.81-3-1.64-1.47-1.49-2.22-3.37-2.62-5.38-.08-.42-.03-.91.12-1.32.37-1.03 1.47-1.36 2.4-.77.19.12.39.25.52.43 1.18 1.6 2.34 3.21 3.51 4.82.09.13.15.32.23.48z"/><path d="m143.82 125.08c.39.83.15 2.53-.47 3.2-.37.4-.84.65-1.4.54-.57-.11-.9-.53-1.04-1.07-.26-1.03-.13-2.02.49-2.89.69-1 1.91-.87 2.42.22z"/></g></g><g><path d="m262.24 139.92c.56-.44.84-.65 1.11-.87 3.7-3.03 7.86-5.03 12.66-5.51 3.48-.35 6.84.2 9.91 1.89 4.4 2.43 6.61 6.33 7.12 11.26.62 5.99-1.3 11.11-5.32 15.51-2.75 3.01-6.07 5.26-9.69 7.07-3.67 1.84-7.36 3.63-11.03 5.46-2.91 1.45-5.8 2.94-8.31 5.05-.03.03-.07.05-.1.07-1.27.92-1.35.95-2.32-.34-2.27-3.06-5.14-5.51-8.02-7.97-3.3-2.82-6.63-5.62-9.82-8.57-3.44-3.19-6.21-6.9-7.6-11.45-1.9-6.18-1.1-12.02 2.86-17.2 2.51-3.28 6.05-4.82 10.16-4.99 5.65-.24 10.39 1.93 14.46 5.67 1.31 1.2 2.38 2.65 3.54 4.01.2.21.25.53.39.91z" fill="#ff7772"/><g fill="#f4fafa"><path d="m237.61 148.94c-.03.86-.34 1.58-.94 2.19-.69.71-1.36.78-2.14.15-1.04-.84-1.47-2.04-1.7-3.27-.42-2.21.02-4.35.87-6.4.18-.43.52-.84.9-1.11.95-.7 2.14-.33 2.61.75.1.22.2.46.21.69.1 2.14.18 4.28.26 6.42.01.19-.04.39-.07.58z"/><path d="m240.61 135.73c-.15.98-1.38 2.36-2.34 2.58-.57.13-1.15.08-1.58-.36-.44-.44-.49-1.02-.29-1.58.39-1.08 1.1-1.89 2.17-2.3 1.22-.46 2.23.38 2.04 1.66z"/></g></g><g><path d="m329.16 98.45c.55-.19.83-.28 1.1-.38 3.68-1.38 7.45-1.83 11.31-.93 2.8.65 5.27 1.97 7.2 4.1 2.78 3.06 3.46 6.68 2.55 10.64-1.1 4.82-3.96 8.3-8.25 10.65-2.94 1.61-6.11 2.48-9.41 2.93-3.34.46-6.68.87-10.02 1.32-2.65.36-5.29.75-7.8 1.73-.03.01-.06.02-.1.03-1.23.38-1.31.38-1.71-.88-.96-2.99-2.54-5.65-4.12-8.32-1.82-3.07-3.67-6.13-5.36-9.27-1.83-3.39-3-7.02-2.88-10.92.16-5.31 2.33-9.64 6.79-12.62 2.82-1.88 5.98-2.14 9.23-1.19 4.46 1.31 7.57 4.26 9.74 8.25.7 1.28 1.15 2.69 1.69 4.06.08.21.03.47.04.8z" fill="#ff7772"/><g fill="#f4fafa"><path d="m307.61 98.94c-.25.66-.69 1.14-1.31 1.45-.72.37-1.26.24-1.7-.46-.58-.93-.6-1.97-.46-3 .26-1.84 1.17-3.38 2.38-4.75.25-.28.63-.51.99-.63.92-.29 1.75.31 1.83 1.27.02.2.03.41-.02.59-.49 1.69-1 3.38-1.51 5.06-.04.18-.13.33-.2.47z"/><path d="m313.44 89.46c-.37.72-1.7 1.47-2.5 1.39-.48-.05-.91-.24-1.14-.7s-.11-.92.2-1.31c.59-.73 1.35-1.18 2.3-1.21 1.07-.04 1.63.88 1.14 1.83z"/></g></g><g><path d="m253.19 69.56c.32-.25.49-.36.65-.49 2.15-1.71 4.56-2.82 7.33-3.06 2-.17 3.93.17 5.68 1.18 2.51 1.44 3.74 3.7 4 6.53.3 3.45-.84 6.38-3.2 8.87-1.61 1.7-3.53 2.97-5.63 3.98-2.12 1.02-4.26 2.02-6.39 3.04-1.68.81-3.36 1.64-4.82 2.83-.02.01-.04.03-.06.04-.74.52-.79.54-1.33-.22-1.28-1.78-2.91-3.21-4.54-4.65-1.87-1.65-3.76-3.29-5.57-5.01-1.95-1.86-3.51-4.02-4.27-6.65-1.04-3.57-.53-6.92 1.8-9.86 1.47-1.86 3.52-2.72 5.89-2.78 3.25-.09 5.96 1.2 8.26 3.39.74.7 1.35 1.54 2 2.34.1.11.12.3.2.52z" fill="#ff7772"/><g fill="#f4fafa"><path d="m238.95 74.53c-.02.49-.21.9-.56 1.25-.4.4-.79.43-1.23.06-.59-.49-.83-1.18-.95-1.9-.22-1.28.05-2.5.56-3.67.11-.24.31-.48.53-.63.55-.39 1.23-.17 1.5.45.05.13.11.27.11.4.04 1.23.06 2.46.09 3.69 0 .12-.03.24-.05.35z"/><path d="m240.79 66.96c-.09.56-.81 1.35-1.37 1.47-.33.07-.66.03-.91-.22-.25-.26-.27-.59-.15-.91.23-.61.65-1.07 1.27-1.3.71-.27 1.28.23 1.16.96z"/></g></g><g><path d="m443.17 220.15v230.18c-126.82 0-253.55 0-380.27 0-.29-1.04-.42-226.48-.14-229.78.54-.11.88.29 1.26.53 6.9 4.3 13.8 8.61 20.69 12.91 17.24 10.77 34.48 21.54 51.72 32.29 30.93 19.28 61.88 38.55 92.81 57.83 2.85 1.78 5.66 3.6 8.48 5.43.59.39 1.11.55 1.83.23.54-.24 1.2-.22 1.82-.25 1.1-.06 2.16-.17 3.2-.67.77-.37 1.7-.44 2.57-.54.74-.08 1.5 0 2.25.01 2.25 0 4.5-.02 6.75.01 1.28.02 2.63-.15 3.81.22 1.82.58 3.62 1.07 5.54 1.03 1.33.91 2.31-.01 3.34-.65 32.36-20.25 64.71-40.52 97.09-60.75 25.26-15.78 50.55-31.49 75.83-47.23.4-.23.82-.45 1.42-.8z" fill="#ffe3c6"/><path d="m233.8 327.59c-.4-.28-.71-.52-1.04-.73-6.77-4.25-13.53-8.52-20.32-12.74-24.69-15.35-49.39-30.69-74.09-46.02-20.28-12.57-40.57-25.11-60.86-37.66-4.28-2.65-8.56-5.31-12.84-7.97-.41-.26-.83-.53-1.16-.87-.67-.67-.78-1.68-.33-2.44.48-.81 1.47-1.21 2.42-.88.53.19 1.03.5 1.52.8 16.78 10.42 33.56 20.84 50.34 31.26 8.45 5.25 16.89 10.5 25.34 15.74 31.13 19.29 62.27 38.58 93.4 57.87.97.6 1.92 1.25 2.86 1.91.44.31.86.32 1.37.19 5.24-1.28 10.57-1.62 15.92-1.23 3.08.22 6.15.67 9.2 1.12.79.12 1.27-.24 1.81-.58 2.61-1.65 5.2-3.34 7.83-4.98 28.34-17.61 56.67-35.21 85.02-52.8 26.06-16.16 52.13-32.29 78.2-48.43.45-.28.9-.57 1.38-.78 1.05-.46 2.13-.12 2.66.78.5.85.31 1.91-.51 2.63-.33.29-.71.52-1.09.75-23.46 14.57-46.91 29.15-70.38 43.7-31.05 19.25-62.12 38.49-93.18 57.74-1.83 1.14-3.61 2.36-5.47 3.59.23.14.36.26.52.31 7.68 2.78 14.81 6.69 21.85 10.75 16.94 9.75 33.21 20.56 49.17 31.82 10.76 7.59 21.45 15.29 32.03 23.12 21.88 16.2 43.24 33.07 64.14 50.53.58.48 1.2.9 1.76 1.41.38.35.76.75 1 1.21.42.79.24 1.57-.36 2.2-.59.63-1.35.84-2.18.5-.36-.15-.71-.36-1.02-.6-8.4-6.89-16.75-13.86-25.21-20.68-14.08-11.34-28.44-22.3-42.98-33.05-19.79-14.64-39.89-28.84-60.67-42.05-9.17-5.83-18.45-11.5-28.18-16.37-3.43-1.72-6.98-3.21-10.54-4.63-1.54-.61-3.25-.78-4.88-1.16-.47-.11-1.02-.14-1.37-.42-.74-.6-1.6-.72-2.47-.83-5.01-.62-10.04-.78-15.08-.39-1.23.1-2.48.16-3.69.38-.94.17-1.83.57-2.75.87-.38.12-.74.36-1.12.37-2.8.1-5.35 1.1-7.89 2.11-4.72 1.89-9.23 4.23-13.69 6.68-12.28 6.75-24.1 14.28-35.76 22.04-15.38 10.23-30.45 20.91-45.32 31.88-23.47 17.32-46.45 35.27-68.83 53.99-.51.42-.97.9-1.48 1.33-.56.46-1.19.79-1.94.66-.8-.14-1.37-.58-1.63-1.38-.28-.86-.03-1.6.57-2.18.56-.55 1.23-1 1.84-1.51 6.97-5.71 13.91-11.47 20.93-17.13 13.65-11.02 27.52-21.76 41.59-32.25 19.98-14.91 40.25-29.39 61.2-42.92 10.06-6.5 20.24-12.8 30.85-18.37 4.15-2.17 8.36-4.22 12.77-5.82.25-.1.47-.23.82-.39z" fill="#e7c6a5"/></g></g><path d="m51.5 358.29h-4.14c0-11.43-9.26-20.69-20.69-20.69v-4.14c11.43 0 20.69-9.26 20.69-20.69h4.14c0 11.43 9.26 20.69 20.69 20.69v4.14c-11.43-.01-20.69 9.26-20.69 20.69z" fill="#b2e5d4"/><path d="m40.2 394.38h-3.29c0-9.06-7.34-16.4-16.41-16.4v-3.29c9.06 0 16.41-7.34 16.41-16.4h3.29c0 9.06 7.34 16.4 16.4 16.4v3.29c-9.06 0-16.4 7.34-16.4 16.4z" fill="#f8d86f"/><path d="m444.74 437.86h-4.33c0-11.94-9.68-21.62-21.62-21.62v-4.33c11.94 0 21.62-9.68 21.62-21.62h4.33c0 11.94 9.68 21.62 21.62 21.62v4.33c-11.94-.01-21.62 9.68-21.62 21.62z" fill="#b2e5d4"/><path d="m457.87 394.38h-4.33c0-11.94-9.68-21.62-21.62-21.62v-4.33c11.94 0 21.62-9.68 21.62-21.62h4.33c0 11.94 9.68 21.62 21.62 21.62v4.33c-11.94 0-21.62 9.68-21.62 21.62z" fill="#f8d86f"/></g></g></svg>