<svg id="Слой_1" enable-background="new 0 0 500 500" height="512" viewBox="0 0 500 500" width="512" xmlns="http://www.w3.org/2000/svg"><g><g fill="#fff"><path d="m239.27 310.08c-1.49 0-3.01-.18-4.65-.57-4.44-1.03-8.62-3.11-12.77-6.37-3.51-2.75-6.64-6.23-9.58-10.61-4.35-6.5-7.11-13.53-8.21-20.89-1.01-6.75-.44-12.69 1.74-18.14 2.55-6.38 7.05-11.16 13.01-13.81 3.11-1.38 6.41-2.08 9.83-2.08 2.13 0 4.31.28 6.49.82 1.56.39 3.09.91 4.6 1.56 1.17-.52 2.36-.95 3.58-1.31 2.59-.77 5.18-1.16 7.71-1.16 2.52 0 5 .38 7.39 1.14 4.46 1.41 8.26 3.98 11.3 7.64 3.36 4.05 5.41 9 6.1 14.71.65 5.4.13 10.86-1.59 16.68-2.11 7.15-5.67 13.69-10.57 19.46-3.47 4.08-7.5 7.33-11.98 9.66-3.18 1.65-6.66 2.71-10.35 3.15-.67.08-1.36.12-2.05.12z"/><path d="m259.25 254.98c-1.32-1.6-2.96-2.73-4.94-3.36-2.39-.76-4.77-.61-7.14.09-2.43.72-4.58 1.99-6.57 3.54-.26.21-.53.41-.76.58-.14-.04-.2-.04-.24-.07-.23-.17-.46-.34-.68-.51-2.14-1.64-4.44-2.97-7.08-3.63-2.56-.64-5.07-.59-7.51.49-2.89 1.29-4.76 3.55-5.9 6.42-1.43 3.59-1.48 7.33-.92 11.09.83 5.58 2.94 10.67 6.06 15.34 1.87 2.8 4 5.38 6.67 7.48 2.24 1.76 4.65 3.17 7.45 3.82.65.15 1.36.27 2.02.19 1.99-.24 3.9-.78 5.69-1.71 3.07-1.6 5.65-3.77 7.89-6.4 3.65-4.29 6.29-9.11 7.89-14.5 1.08-3.66 1.59-7.39 1.13-11.21-.34-2.82-1.21-5.43-3.06-7.65z"/><path d="m30.58 331.46c-6.33-.08-12.25-2.77-16.48-7.29-6.69-3.47-11.39-10.12-12.27-17.9-.23-2.01-.28-3.86-.29-5.25-.16-14.48-.32-28.95-.48-43.43l-.26-24.63c-.1-8.99-.2-17.98-.3-26.97-.17-14.99-.34-29.98-.5-44.97-.07-6.26 2.22-12.12 6.43-16.5s9.98-6.89 16.23-7.07c3.07-.09 6.13-.13 9.1-.16 1.05-.01 2.09-.02 3.14-.04 6.9-.1 39.15-.55 39.15-.55h.58c2.54 0 6.4.21 10.56 2.06 2.92 1.3 5.48 3.12 7.57 5.39 7.3 3.76 12.13 11.25 12.29 19.8.21 10.75-6.86 20.08-17.2 22.67-2.2.55-4.53.83-7.32.88-9.31.16-18.75.3-27.97.44.06 5.18.11 10.36.17 15.55.31 0 .62.01.93.01 2.01.02 5.76.06 9.81 1.68 3.2 1.28 6.06 3.24 8.37 5.71 7 3.65 11.84 10.76 12.36 18.82.74 11.41-7.13 21.72-18.3 23.99-1.93.39-3.9.59-5.86.59-2.25 0-4.51-.01-6.76-.02l.02 1.85c.17 15.93.35 32.41.52 48.62.02 2.16.01 4.7-.41 7.44-.83 5.4-3.6 10.33-7.8 13.88-4.13 3.5-9.37 5.42-14.76 5.42z"/><path d="m70.65 230.57c-.27-4.11-3.33-7.57-7.32-8.47-1.02-1.91-2.72-3.45-4.89-4.32-1.58-.63-3.24-.69-4.9-.71-4.75-.05-9.5-.08-14.25-.12-.15-13.92-.31-27.83-.46-41.75 0-.14.04-.27.07-.41.01-.04.06-.07.09-.1s.06-.07.18-.2c.38 0 .84.01 1.3 0 13.28-.2 26.56-.38 39.84-.61 1.42-.02 2.87-.13 4.24-.47 4.2-1.05 7-4.86 6.91-9.21-.08-4.26-3.05-7.91-7.26-8.81-.94-1.82-2.5-3.31-4.54-4.22-1.72-.77-3.56-.91-5.42-.89-13.05.18-26.1.36-39.15.55-4.01.06-8.02.08-12.03.2-5.54.16-9.52 4.31-9.46 9.83.26 23.98.53 47.96.79 71.94.25 22.69.49 45.37.75 68.06.01 1.29.06 2.58.2 3.86.47 4.12 3.45 7.34 7.29 8.19 1.58 2.92 4.66 4.9 8.11 4.94 4.53.05 8.53-3.25 9.23-7.77.26-1.72.27-3.49.25-5.23-.21-20.84-.44-41.68-.67-62.52-.01-.5 0-1.01 0-1.75h1.96c6.18.03 12.36.08 18.54.08 1.05 0 2.12-.11 3.15-.32 4.59-.92 7.75-5.1 7.45-9.77z"/><path d="m313.6 363.3c-.44 0-.89-.01-1.34-.04-5.93-.36-11.46-3.02-15.43-7.24-5.15-2.6-9.08-7.09-11.13-12.88-.82-2.32-1.3-4.87-1.42-7.59-.29-6.38-.55-12.85-.8-19.11-.07-1.84-.15-3.67-.22-5.51-6.01-4.92-9.64-10.82-12.01-15.25-2.98-5.57-5.36-11.88-7.28-19.27-2.66-10.26-4.12-21.13-4.32-32.29-.08-4.34.07-8.56.21-12.65.04-1.07.07-2.15.11-3.22.15-4.92 1.75-9.59 4.63-13.48 4.31-5.82 11.21-9.3 18.45-9.3 2.04 0 4.07.27 6.04.81 4.12 1.13 7.84 3.41 10.72 6.49 2.23 1.16 4.24 2.68 5.96 4.48 1.05-2.2 2.33-3.96 3.53-5.31 4.5-5.04 10.51-7.82 16.93-7.82 2.22 0 4.47.33 6.69.98 4.15 1.22 7.73 3.44 10.5 6.44 6.35 3.34 10.91 9.55 11.93 16.76.44 3.1.6 6.03.74 9 .09 1.85.07 3.62.05 5.18-.01.59-.01 1.18-.01 1.77.07 13.97-1.48 26.53-4.74 38.38-2.48 9.02-5.57 16.2-9.74 22.58-1.9 2.91-3.94 5.45-6.15 7.68.1 2.4.2 4.79.29 7.14l.26 6.45c.16 3.93.32 7.99.47 12.01.15 4.13-.52 7.79-2.05 11.19-3.72 8.28-11.91 13.62-20.87 13.62z"/><path d="m341.89 230.22c-.52-3.68-3.52-6.69-7.12-7.49-1.1-2.21-3.01-3.79-5.68-4.57-3.75-1.1-7.04-.08-9.64 2.84-1.92 2.15-2.49 4.76-2.32 7.6.2 3.41.35 6.81.52 10.22-.1 11.02-1.13 20.16-3.47 29.33-1.13 4.43-2.59 8.75-4.8 12.78-.88 1.61-1.86 3.15-3.19 4.43-1.24-2.24-2.18-4.64-3.01-7.07-2.44-7.15-3.69-14.55-4.39-22.05-.68-7.22-.67-14.46-.2-21.69.05-.82.02-1.66-.08-2.48-.48-4.03-3.42-7.2-7.23-8.05-1.19-2.22-3.29-3.93-5.79-4.62-3.7-1.01-7.68.37-9.96 3.46-1.28 1.73-1.91 3.69-1.97 5.81-.15 5.07-.4 10.14-.31 15.21.18 9.85 1.41 19.58 3.89 29.13 1.46 5.64 3.35 11.12 6.11 16.28 3.04 5.68 6.83 10.68 12.64 13.82.19.2.38.39.58.58.07.17.1.36.11.58.05 1.38.14 2.76.2 4.14.36 8.85.7 17.69 1.09 26.54.06 1.23.25 2.5.65 3.65 1.17 3.29 3.45 5.39 6.79 6.11 1.49 2.85 4.45 4.78 7.78 4.99 3.74.23 7.39-2.06 8.96-5.57.74-1.65.93-3.37.86-5.14-.19-5.16-.4-10.32-.61-15.48-.21-5.21-.41-10.41-.65-15.62-.04-.78.2-1.27.84-1.73 3.15-2.26 5.65-5.14 7.76-8.37 3.77-5.78 6.2-12.13 8.02-18.74 3.12-11.37 4.31-22.99 4.26-34.75 0-2.12.08-4.24-.02-6.36-.12-2.58-.25-5.17-.62-7.72z"/><path d="m194.59 327.3c-5.83 0-11.38-2.2-15.62-6.2-.36-.34-.72-.7-1.07-1.08-.67-.35-1.32-.72-1.95-1.14-4.3 5.2-10.76 8.41-17.65 8.41-.46 0-.93-.01-1.39-.04-5.93-.37-11.46-3.05-15.42-7.29-6.08-3.16-10.53-8.94-11.91-15.83-.37-1.85-.56-3.68-.57-5.45l-.02-3.84c-.14-22.96-.28-46.7-.34-70.07-.01-2.98.37-6.1 1.19-9.81 2.12-9.56 10.07-16.51 20.26-17.7 1.9-.22 3.82-.34 5.7-.34 8.23 0 16.23 2.11 23.77 6.26 3.77 2.07 7.23 4.47 10.33 7.13 12.17 7.98 20.8 20.49 23.73 34.49 2.71 12.9.46 25.13-6.5 35.55 2.11 3.54 4.28 7.21 6.4 10.86.94 1.63 2.29 4.14 3.14 7.2 2.73 9.84-1.53 20.39-10.38 25.67-3.53 2.1-7.58 3.22-11.7 3.22z"/><path d="m201.77 298.03c-2.99-5.14-6.04-10.25-9.07-15.36-.73-1.23-1.44-2.46-2.14-3.65.82-.88 1.53-1.61 2.2-2.37.68-.76 1.37-1.5 1.97-2.31 6.02-8.04 7.63-17.07 5.59-26.75-2.33-11.11-9.39-20.61-18.63-26.39-2.55-2.3-5.45-4.33-8.68-6.11-6.62-3.64-13.75-5.22-21.34-4.33-4.28.5-7.69 3.22-8.56 7.13-.5 2.24-.88 4.56-.87 6.84.07 24.62.22 49.25.36 73.87.01.96.12 1.93.31 2.88.73 3.67 3.54 6.45 7.12 7.26 1.49 2.83 4.41 4.74 7.72 4.95 3.98.25 7.74-2.23 9.21-6.01.7-1.81.75-3.69.74-5.58-.03-4.93-.07-9.87-.09-14.8 0-.48.06-.96.09-1.44.56 0 1.08.02 1.58.03 3.43 5.85 6.89 11.69 10.38 17.51.66 1.1 1.44 2.17 2.36 3.04 1.23 1.17 2.7 1.93 4.25 2.3.59.9 1.26 1.75 2.03 2.48 3.02 2.85 7.52 3.28 11.02 1.19 3.59-2.14 5.37-6.31 4.25-10.36-.39-1.41-1.07-2.76-1.8-4.02zm-34.45-62.8c.5.13.86.17 1.17.31.63.29 1.24.6 1.83.92 3.16 3.36 5.11 7.62 5.65 12.91.26 2.57-.2 5.06-1.49 7.35-1.62 2.88-4.01 4.5-6.97 5.17-.05-8.86-.12-17.7-.19-26.66z"/><path d="m103.86 330.64c-8.89 0-17.1-2.99-24.4-8.87-.69-.56-1.38-1.15-2.05-1.76-1.42-.89-2.81-1.88-4.16-2.96-5.64-4.51-10.11-10.29-13.67-17.67-3.39-7.02-5.58-14.77-6.52-23.05-.27-2.4-.43-4.77-.54-6.5-.04-.59-.07-1.12-.11-1.58-.03-.42-.05-.84-.04-1.27.23-14.51 2.88-26.37 8.33-37.31 4.01-8.06 9.31-14.64 15.74-19.54 7.03-5.36 14.85-8.14 23.25-8.28.21 0 .42-.01.63-.01 9.67 0 18.46 3.48 26.12 10.34.1.09.21.19.32.29.57.36 1.15.73 1.71 1.12 6.66 4.6 11.88 10.86 15.95 19.14 3.63 7.39 5.93 15.64 6.83 24.52.21 2.09.34 4.1.44 5.72.04.57.07 1.09.1 1.55.03.4.04.81.03 1.21-.25 14.21-2.81 25.84-8.07 36.58-3.95 8.07-8.9 14.39-15.12 19.32-7.34 5.81-15.43 8.84-24.06 8.99-.25.02-.48.02-.71.02z"/><path d="m132.2 238.75c-2.73-5.55-6.33-10.4-11.47-13.95-.74-.51-1.49-.98-2.25-1.42-.36-.36-.73-.71-1.12-1.05-4.96-4.45-10.73-6.98-17.46-6.87-5.67.09-10.74 2.08-15.22 5.49-5.16 3.93-8.94 9.01-11.81 14.79-4.76 9.56-6.71 19.75-6.9 31.47.14 1.79.28 4.7.6 7.58.74 6.5 2.41 12.77 5.26 18.68 2.41 5 5.55 9.47 9.92 12.97 1.28 1.02 2.59 1.92 3.93 2.68.73.72 1.5 1.41 2.32 2.07 4.76 3.83 10.15 5.97 16.31 5.86 6-.11 11.22-2.37 15.86-6.05 4.98-3.94 8.58-8.98 11.35-14.64 4.63-9.46 6.49-19.54 6.69-30.84-.12-1.73-.25-4.31-.51-6.88-.7-6.94-2.41-13.61-5.5-19.89zm-36.56 52.45c-2.03-3.73-3.21-7.75-3.86-11.91-1.31-8.43-.74-16.73 1.89-24.86 1.34-4.15 3.22-8.04 6.11-11.37 1.1-1.27 2.38-2.31 3.83-3.15 1.19-.68 2.38-.95 3.55-.8 2.41 3.48 3.79 7.39 4.71 11.48.82 3.66 1.16 7.37 1.16 10.5-.06 8.37-1.43 15.84-4.96 22.82-1.25 2.48-2.76 4.8-4.82 6.7-.71.65-1.47 1.27-2.29 1.77-1.38.83-2.7 1.16-3.98 1-.49-.7-.93-1.43-1.34-2.18z"/><path d="m385.33 330.15c-.98 0-1.97-.04-2.95-.11-8.31-.63-15.99-3.84-22.83-9.54-.48-.4-.95-.81-1.42-1.23-1.67-1.05-3.29-2.23-4.84-3.52-6.25-5.23-11.1-11.85-14.82-20.24-3.54-7.98-5.65-16.82-6.29-26.29-.09-1.28-.14-2.5-.17-3.4-.01-.27-.02-.51-.03-.7-.01-.27-.02-.54-.01-.8.14-11.88 2.06-21.74 6.05-31.01 3.75-8.72 8.75-15.54 15.27-20.83 7.51-6.09 15.89-9.18 24.89-9.18.58 0 1.17.01 1.76.04 8.24.37 15.92 3.3 22.85 8.71.86.67 1.71 1.39 2.54 2.14 1.24.78 2.46 1.64 3.64 2.56 6.24 4.86 11.18 11.14 15.08 19.17 3.78 7.77 6.14 16.49 7.03 25.92.17 1.79.26 3.47.34 5.1.03.66.07 1.31.11 1.97.02.37.03.73.02 1.1-.23 11.43-2.3 21.45-6.34 30.65-3.86 8.78-8.95 15.56-15.57 20.74-7.4 5.81-15.58 8.75-24.31 8.75z"/><path d="m411.84 241.87c-2.71-5.58-6.26-10.54-11.21-14.39-1.14-.89-2.31-1.68-3.52-2.38-.84-.81-1.73-1.59-2.67-2.32-4.44-3.47-9.44-5.59-15.1-5.85-6.62-.3-12.39 2-17.48 6.12-5.17 4.19-8.74 9.57-11.34 15.63-3.44 8-4.83 16.41-4.94 25.8.04.79.08 2.32.19 3.83.5 7.51 2.09 14.78 5.15 21.68 2.61 5.89 6.12 11.15 11.11 15.31 1.38 1.15 2.83 2.17 4.34 3.04.61.58 1.24 1.15 1.9 1.7 4.4 3.67 9.4 5.99 15.15 6.43 6.72.51 12.62-1.68 17.86-5.78 5.25-4.11 8.85-9.47 11.5-15.5 3.56-8.11 5.02-16.64 5.2-25.45-.13-2.21-.21-4.42-.42-6.62-.7-7.4-2.46-14.53-5.72-21.25zm-38.97 41.24c-1.52-4.74-2.1-9.62-2.18-14.91.07-5.71.98-11.59 3.32-17.21.89-2.13 1.98-4.17 3.43-5.98.66-.82 1.38-1.61 2.17-2.32 2.05-1.83 4.13-2.48 6.24-1.98.52.69 1 1.41 1.45 2.15 2.65 4.41 4.14 9.24 4.87 14.3.37 2.55.49 5.13.73 7.7-.15 6.78-1.25 13.31-4.26 19.44-1.02 2.08-2.27 4.01-3.92 5.66-.45.46-.93.9-1.44 1.29-1.84 1.42-3.72 1.91-5.6 1.48-2.26-2.84-3.7-6.16-4.81-9.62z"/><path d="m455.08 328.66c-6.99 0-13.71-2.39-19.42-6.92-.85-.67-1.69-1.4-2.5-2.16-1.34-.79-2.63-1.68-3.86-2.67-4.75-3.8-8.63-8.78-11.84-15.23-3.1-6.21-5.4-13.26-7.02-21.56-2.84-14.5-3.47-29.52-1.9-45.9.31-3.25.69-6.75 1.41-10.37 1.04-5.3 3.9-10.07 8.04-13.42 4.06-3.29 9.2-5.1 14.47-5.1 1.17 0 2.35.09 3.51.26 5.09.76 9.75 3.28 13.23 7 .99.51 1.93 1.09 2.82 1.73 4.25-5.59 10.9-9.04 18.17-9.04.36 0 .72.01 1.07.03 6.02.28 11.64 2.94 15.67 7.23 5.15 2.61 9.08 7.1 11.14 12.9.74 2.08 1.21 4.37 1.41 6.82.88 10.83.65 22.1-.7 33.48-1.19 10.1-3.13 19.06-5.92 27.41-2.36 7.06-5.02 12.71-8.38 17.79-3.68 5.57-7.81 9.75-12.64 12.78-5.14 3.24-10.94 4.94-16.76 4.94z"/><path d="m485.92 233.36c-.09-1.14-.29-2.3-.67-3.38-1.16-3.26-3.43-5.4-6.8-6.12-1.52-2.9-4.46-4.81-7.83-4.96-4.18-.2-7.93 2.43-9.27 6.5-.5 1.51-.58 3.08-.46 4.65.46 5.94.53 11.88.21 17.83-.48 9-1.69 17.89-4.12 26.59-1.27 4.54-2.83 8.97-5.26 13.04-.18.3-.36.6-.55.89-.77-2.06-1.37-4.19-1.9-6.34-1.6-6.56-2.38-13.24-2.7-19.98-.38-8.08-.07-16.13.92-24.16.25-2.05.74-4.07.42-6.18-.62-4-3.46-7.05-7.25-7.89-1.35-2.53-3.79-4.38-6.74-4.82-5.04-.76-9.67 2.38-10.66 7.43-.58 2.98-.92 6.01-1.21 9.03-1.34 14.07-1.02 28.09 1.71 42 1.23 6.26 2.98 12.37 5.85 18.1 2.04 4.08 4.56 7.8 8.17 10.68 1.15.92 2.35 1.68 3.59 2.29.83.89 1.73 1.73 2.71 2.5 6.16 4.87 13.87 5.3 20.52 1.13 3.55-2.23 6.24-5.3 8.52-8.75 2.99-4.54 5.11-9.49 6.83-14.62 2.69-8.03 4.32-16.29 5.31-24.69 1.23-10.22 1.5-20.48.66-30.77z"/></g><g><g><path d="m239.85 255.83c.23-.17.5-.37.76-.58 1.99-1.55 4.14-2.82 6.57-3.54 2.37-.7 4.75-.85 7.14-.09 1.98.63 3.61 1.76 4.94 3.36 1.84 2.22 2.72 4.83 3.06 7.65.46 3.82-.05 7.55-1.13 11.21-1.59 5.39-4.24 10.21-7.89 14.5-2.24 2.63-4.82 4.81-7.89 6.4-1.79.93-3.7 1.48-5.69 1.71-.66.08-1.36-.04-2.02-.19-2.8-.65-5.21-2.07-7.45-3.82-2.67-2.1-4.8-4.68-6.67-7.48-3.13-4.67-5.23-9.77-6.06-15.34-.56-3.76-.51-7.5.92-11.09 1.14-2.87 3.01-5.14 5.9-6.42 2.44-1.08 4.96-1.13 7.51-.49 2.64.66 4.94 1.99 7.08 3.63.23.17.45.35.68.51.04.04.1.04.24.07z" fill="#ff7772"/></g><g><g fill="#75544d"><path d="m39.56 240.59v1.75c.23 20.84.46 41.68.67 62.52.02 1.74.01 3.52-.25 5.23-.7 4.52-4.71 7.83-9.23 7.77-4.53-.05-8.44-3.44-9.12-7.94-.14-.95-.22-1.93-.23-2.89-.22-17.43-.43-34.86-.62-52.29-.29-26.37-.57-52.75-.85-79.12-.03-3.23-.01-6.46-.15-9.68-.23-5.62 3.94-10.15 9.97-10.21 12.59-.13 25.17-.33 37.76-.51 4.24-.06 8.48-.16 12.73-.18 1.28-.01 2.59.07 3.84.33 4.27.87 7.29 4.54 7.37 8.84.08 4.35-2.71 8.16-6.91 9.21-1.37.34-2.82.45-4.24.47-13.28.23-26.56.41-39.84.61-.46.01-.92 0-1.3 0-.11.13-.15.16-.18.2-.03.03-.08.06-.09.1-.03.13-.08.27-.07.41.16 15.17.33 30.34.5 45.51 0 .23.05.45.1.84.49.03.97.08 1.46.09 5.99.05 11.99.09 17.98.14 1.06.01 2.12.03 3.18.11 4.6.38 8.3 4.12 8.59 8.66.3 4.66-2.85 8.85-7.44 9.78-1.03.21-2.1.32-3.15.32-6.18 0-12.36-.05-18.54-.08-.57.01-1.16.01-1.94.01z"/><path d="m342.53 244.3c.06 11.76-1.13 23.38-4.26 34.75-1.82 6.61-4.24 12.97-8.02 18.74-2.11 3.23-4.6 6.11-7.76 8.37-.64.46-.87.95-.84 1.73.24 5.2.44 10.41.65 15.62.21 5.16.42 10.32.61 15.48.06 1.76-.13 3.49-.86 5.14-1.57 3.51-5.23 5.8-8.96 5.57-4-.24-7.48-2.97-8.5-6.81-.33-1.24-.5-2.54-.56-3.82-.43-9.9-.82-19.81-1.22-29.71-.03-.67-.09-1.2-.81-1.59-4.78-2.56-8.2-6.5-10.99-11.04-3.63-5.91-5.94-12.36-7.68-19.04-2.14-8.24-3.27-16.63-3.74-25.12-.33-5.86-.32-11.71.06-17.56.08-1.28.2-2.58.47-3.84.95-4.49 5.02-7.58 9.57-7.37 4.55.22 8.26 3.68 8.81 8.26.1.82.13 1.66.08 2.48-.47 7.24-.48 14.47.2 21.69.71 7.5 1.95 14.9 4.39 22.05 1.06 3.1 2.28 6.15 4.1 8.89.78 1.18 1.73 2.27 2.71 3.3.8.83 1.16.83 1.98-.03 1.04-1.1 2.05-2.26 2.85-3.53 2.65-4.22 4.22-8.9 5.47-13.69 2.73-10.42 3.63-21.05 3.43-31.8-.05-2.67-.23-5.34-.38-8.01-.13-2.21.17-4.32 1.29-6.27 1.98-3.44 5.81-5.21 9.77-4.5 3.76.67 6.95 3.77 7.49 7.57.36 2.55.5 5.14.62 7.71.11 2.13.03 4.26.03 6.38z"/><path d="m190.55 279.01c.7 1.19 1.41 2.42 2.14 3.65 3.03 5.12 6.09 10.22 9.07 15.36.73 1.26 1.42 2.61 1.8 4.01 1.12 4.04-.66 8.21-4.25 10.36-3.5 2.09-8.01 1.66-11.02-1.19-.96-.9-1.77-2.01-2.45-3.14-4.17-6.96-8.3-13.94-12.4-20.95-.55-.93-1.1-1.45-2.26-1.3-1.09.13-2.2.03-3.48.03-.03.48-.09.96-.09 1.44.03 4.93.06 9.87.09 14.8.01 1.89-.03 3.77-.74 5.58-1.47 3.78-5.24 6.26-9.21 6.01-4.1-.25-7.6-3.12-8.53-7.11-.29-1.24-.41-2.55-.42-3.84-.09-14.2-.14-28.41-.21-42.61-.05-9.96-.08-19.92-.19-29.88-.03-2.57.33-5.07.9-7.53.77-3.35 2.94-5.6 6.21-6.67 2.85-.93 5.81-.94 8.77-.71 17.11 1.35 32.38 14.83 36.04 32.25 2.03 9.68.43 18.71-5.59 26.75-.61.81-1.3 1.56-1.97 2.31-.68.77-1.38 1.5-2.21 2.38zm-22.99-12.42c.58.12 1.02.27 1.47.29.96.05 1.94.1 2.9.03 4.94-.37 8.65-3.47 9.9-8.26.51-1.94.61-3.94.27-5.89-1.43-8.17-6.13-13.8-13.6-17.22-.31-.14-.66-.18-1.17-.31.07 10.55.15 20.93.23 31.36z"/><path d="m138.21 265.51c-.2 11.3-2.06 21.38-6.69 30.84-2.77 5.65-6.37 10.69-11.35 14.64-4.64 3.68-9.86 5.95-15.86 6.05-6.16.11-11.56-2.02-16.31-5.86-3.79-3.06-6.69-6.85-8.99-11.11-3.27-6.08-5.17-12.61-6.09-19.43-1.55-11.49-.48-22.73 3.39-33.67 2.23-6.32 5.41-12.11 9.97-17.08 4.09-4.45 8.93-7.71 14.88-9.09 7.12-1.65 13.63-.1 19.58 4 5.14 3.55 8.74 8.4 11.47 13.95 3.09 6.28 4.8 12.95 5.5 19.89.25 2.56.37 5.14.5 6.87zm-18.96.89c-.01-3.51-.28-7-1.01-10.44-.93-4.36-2.34-8.53-4.92-12.23-1.01-1.45-2.19-2.73-3.69-3.69-1.98-1.27-3.99-1.29-6.01-.13-1.45.83-2.73 1.88-3.83 3.15-2.9 3.33-4.77 7.22-6.11 11.37-2.63 8.13-3.2 16.43-1.89 24.86.65 4.17 1.83 8.18 3.86 11.91 1.06 1.96 2.35 3.75 4.06 5.21 2.43 2.07 4.91 2.29 7.63.6.81-.51 1.57-1.13 2.27-1.8 2.54-2.44 4.27-5.42 5.66-8.61 2.8-6.44 3.96-13.21 3.98-20.2z"/><path d="m417.97 269.74c-.17 8.81-1.64 17.35-5.2 25.45-2.65 6.04-6.25 11.4-11.5 15.5-5.24 4.1-11.13 6.29-17.86 5.78-5.75-.44-10.75-2.76-15.15-6.43-5.14-4.29-8.75-9.71-11.34-15.81-4.21-9.91-5.69-20.27-4.89-30.98.52-6.9 1.99-13.58 4.75-19.95 2.62-6.05 6.2-11.43 11.38-15.6 5.06-4.07 10.8-6.34 17.36-6.05 5.66.25 10.66 2.36 15.11 5.83 4.94 3.85 8.49 8.8 11.21 14.39 3.26 6.71 5.02 13.84 5.72 21.25.2 2.2.28 4.42.41 6.62zm-47.28-1.54c.08 5.29.66 10.17 2.18 14.91 1.25 3.89 2.9 7.59 5.66 10.66.94 1.05 2.04 2.02 3.22 2.79 2.3 1.51 4.75 1.49 7-.1 1.26-.89 2.42-2 3.41-3.2 2.3-2.77 3.72-6.03 4.77-9.44 2.31-7.55 2.58-15.22 1.29-22.97-.79-4.72-2.27-9.21-4.75-13.33-1.15-1.91-2.51-3.65-4.26-5.05-3.27-2.62-6.46-2.56-9.6.23-.79.7-1.51 1.49-2.17 2.32-1.45 1.81-2.53 3.84-3.43 5.98-2.35 5.6-3.25 11.49-3.32 17.2z"/><path d="m455.16 295.89c.68-.8 1.25-1.39 1.72-2.04 1.58-2.18 2.75-4.58 3.75-7.07 2.68-6.62 4.26-13.53 5.31-20.57 1.57-10.53 2-21.1 1.14-31.72-.22-2.7.34-5.26 2.12-7.39 2.35-2.83 5.41-3.97 9.01-3.28 3.5.67 5.85 2.83 7.03 6.17.38 1.07.58 2.24.67 3.38.84 10.28.56 20.55-.65 30.79-.99 8.4-2.62 16.66-5.31 24.69-1.72 5.13-3.84 10.08-6.83 14.62-2.28 3.46-4.97 6.53-8.52 8.75-6.65 4.17-14.36 3.75-20.52-1.13-3.7-2.93-6.26-6.73-8.33-10.9-2.87-5.79-4.61-11.94-5.83-18.25-2.33-12.07-2.89-24.25-2.06-36.49.26-3.82.71-7.62 1.11-11.42.12-1.1.31-2.19.58-3.26 1.11-4.35 5.14-7.34 9.53-7.1 4.55.25 8.12 3.57 8.82 8.11.33 2.11-.16 4.13-.42 6.18-.99 8.03-1.3 16.08-.92 24.16.31 6.74 1.1 13.41 2.7 19.98.93 3.82 2.09 7.56 4.02 11 .53.88 1.17 1.72 1.88 2.79z"/></g><path d="m32.56 169.8c.18 15.81.35 31.38.53 47.14h1.77c6.23.05 12.45.09 18.68.15 1.66.02 3.31.07 4.9.71 3.98 1.59 6.35 5.4 5.95 9.64-.39 4.1-3.46 7.47-7.6 8.24-1.03.19-2.1.29-3.16.28-6.18-.01-12.36-.06-18.54-.09-.54 0-1.08 0-1.76 0v1.54c.23 20.89.47 41.78.68 62.67.02 1.65.03 3.33-.19 4.96-.65 4.76-4.7 8.22-9.36 8.12-4.7-.09-8.58-3.65-9.13-8.41-.15-1.28-.19-2.57-.21-3.86-.26-22.69-.5-45.37-.75-68.06-.26-23.98-.54-47.96-.79-71.94-.06-5.52 3.93-9.67 9.46-9.83 4.01-.12 8.02-.14 12.03-.2 13.05-.18 26.1-.36 39.15-.55 1.86-.03 3.7.12 5.42.89 4 1.78 6.14 5.78 5.46 10.17-.62 3.99-4.06 7.18-8.35 7.68-.91.11-1.84.14-2.76.15-13.23.21-26.47.41-39.7.61-.48-.01-.98-.01-1.73-.01z" fill="#b2e5d4"/><path d="m317.64 238.82c-.17-3.41-.32-6.82-.52-10.22-.17-2.83.4-5.45 2.32-7.6 2.6-2.92 5.9-3.94 9.64-2.84 3.8 1.12 6.07 3.83 6.65 7.72.76 5.07.79 10.21.64 15.32-.15 4.88-.37 9.77-.89 14.62-1.15 10.73-3.42 21.2-8.01 31.05-1.33 2.85-2.9 5.56-4.77 8.09-1.82 2.46-3.91 4.67-6.4 6.46-.61.44-.93.89-.89 1.7.33 7.14.62 14.28.91 21.42.14 3.5.28 7 .37 10.51.06 2.38-.6 4.57-2.15 6.42-2.24 2.68-5.12 3.89-8.59 3.36-3.7-.57-6.2-2.72-7.44-6.23-.41-1.15-.6-2.43-.65-3.65-.4-8.84-.73-17.69-1.09-26.54-.06-1.38-.15-2.76-.2-4.14-.02-.49-.13-.86-.62-1.12-5.84-3.14-9.66-8.16-12.7-13.86-2.75-5.15-4.65-10.64-6.11-16.28-2.48-9.55-3.71-19.28-3.89-29.13-.09-5.07.15-10.14.31-15.21.06-2.11.69-4.08 1.97-5.81 2.29-3.09 6.26-4.48 9.96-3.46 3.68 1.01 6.51 4.25 6.81 8.04.14 1.69.01 3.41-.07 5.11-.61 13.16.32 26.17 4.05 38.88 1.03 3.5 2.3 6.93 4.2 10.05.9 1.48 2.01 2.86 3.17 4.16.88.98 1.22.91 2.2.05 1.51-1.34 2.57-3.01 3.53-4.75 2.21-4.03 3.67-8.35 4.8-12.78 2.33-9.18 3.36-18.32 3.46-29.34z" fill="#b2e5d4"/><path d="m161.4 281.12v1.68c.02 5.12.05 10.24.07 15.35.01 1.62-.12 3.22-.71 4.76-1.48 3.84-5.33 6.34-9.33 6.03-4.23-.33-7.69-3.34-8.51-7.48-.19-.94-.3-1.92-.31-2.88-.15-24.62-.3-49.25-.36-73.87-.01-2.28.38-4.6.87-6.84.87-3.92 4.28-6.63 8.56-7.13 7.59-.89 14.72.69 21.34 4.33 11.29 6.21 18.56 15.62 21.17 28.28 2.1 10.18 0 19.51-6.78 27.59-.94 1.12-2.03 2.11-3.11 3.23.28.5.54.98.82 1.45 3.47 5.87 6.95 11.75 10.42 17.62.82 1.39 1.61 2.79 1.94 4.41.83 4.08-.98 8.11-4.56 10.13-3.52 1.97-7.91 1.48-10.89-1.36-.92-.88-1.7-1.95-2.36-3.04-4.17-6.96-8.31-13.94-12.4-20.95-.58-1-1.2-1.47-2.38-1.34-1.09.13-2.2.03-3.49.03zm-.08-50.56v31.27c1.45.47 2.79.48 4.11.37 3.92-.32 7.07-1.96 9.05-5.48 1.29-2.29 1.75-4.78 1.49-7.35-.92-8.96-5.87-14.96-13.9-18.64-.23-.1-.51-.12-.75-.17z" fill="#b2e5d4"/><path d="m65.96 267.21c.19-11.71 2.14-21.91 6.9-31.47 2.87-5.77 6.65-10.85 11.81-14.79 4.48-3.42 9.55-5.4 15.22-5.49 6.74-.11 12.5 2.43 17.46 6.87 4.63 4.15 7.8 9.3 10.11 15.02 3.04 7.54 4.38 15.41 4.45 23.5.09 9.89-1.63 19.46-5.59 28.56-2.59 5.94-6.05 11.29-10.93 15.64-3.71 3.31-7.92 5.73-12.83 6.74-7.8 1.61-14.7-.46-20.83-5.36-4.37-3.5-7.51-7.97-9.92-12.97-2.85-5.91-4.52-12.17-5.26-18.68-.31-2.88-.45-5.78-.59-7.57zm47.08-6.12c0-3.13-.33-6.84-1.16-10.5-.93-4.12-2.32-8.06-4.76-11.56-.98-1.41-2.13-2.66-3.57-3.62-2.05-1.36-4.18-1.48-6.23-.14-1.3.85-2.55 1.84-3.61 2.97-2.41 2.54-4.04 5.61-5.29 8.85-3.82 9.91-4.47 20.08-2.26 30.44.72 3.4 1.91 6.64 3.67 9.65 1.01 1.72 2.2 3.3 3.75 4.58 2.37 1.98 4.76 2.2 7.4.61.82-.49 1.59-1.11 2.29-1.77 2.06-1.9 3.57-4.22 4.82-6.7 3.52-6.97 4.89-14.44 4.95-22.81z" fill="#b2e5d4"/><path d="m345.58 264.48c.11-9.39 1.5-17.8 4.94-25.8 2.6-6.06 6.17-11.44 11.34-15.63 5.08-4.12 10.86-6.42 17.48-6.12 5.66.26 10.66 2.38 15.1 5.85 4.71 3.68 8.15 8.37 10.83 13.65 2.82 5.56 4.54 11.47 5.53 17.61.72 4.47 1.03 8.98.82 13.5-.44 9.61-2.48 18.81-7.23 27.28-3.03 5.39-6.95 9.99-12.3 13.21-5.19 3.13-10.78 4.46-16.83 3.48-5-.81-9.37-2.98-13.23-6.21-4.99-4.17-8.5-9.42-11.11-15.31-3.06-6.9-4.65-14.17-5.15-21.68-.11-1.51-.16-3.03-.19-3.83zm47.31.39c-.23-2.57-.36-5.15-.73-7.7-.73-5.06-2.22-9.88-4.87-14.3-1.39-2.31-3.05-4.4-5.35-5.88-2.51-1.61-5.11-1.61-7.48.17-1.2.9-2.3 2-3.25 3.17-2.23 2.76-3.62 5.98-4.65 9.35-2.31 7.55-2.62 15.22-1.29 22.97.82 4.81 2.33 9.38 4.92 13.56 1.22 1.97 2.68 3.75 4.56 5.14 2.84 2.09 5.72 2.07 8.52-.08.51-.39.98-.84 1.44-1.29 1.65-1.65 2.89-3.58 3.92-5.66 3.01-6.13 4.11-12.67 4.26-19.45z" fill="#b2e5d4"/><path d="m448.98 290.97c1.25-1.03 2.02-2.23 2.75-3.45 2.43-4.07 3.99-8.5 5.26-13.04 2.43-8.7 3.64-17.59 4.12-26.59.31-5.95.25-11.89-.21-17.83-.12-1.58-.04-3.14.46-4.65 1.34-4.07 5.09-6.7 9.27-6.5 4.29.2 7.89 3.22 8.74 7.54.37 1.89.48 3.84.59 5.77.46 7.75.24 15.48-.48 23.21-.84 9.02-2.37 17.91-5.04 26.57-1.82 5.88-4.1 11.56-7.5 16.73-2.25 3.42-4.91 6.46-8.4 8.69-6.7 4.28-14.53 3.86-20.74-1.1-3.61-2.89-6.13-6.6-8.17-10.68-2.86-5.74-4.62-11.84-5.85-18.1-2.73-13.91-3.05-27.92-1.71-42 .29-3.02.63-6.06 1.21-9.03.99-5.05 5.63-8.19 10.66-7.43 4.83.73 8.29 5.23 7.84 10.29-.23 2.62-.61 5.22-.89 7.83-.63 5.92-.84 11.87-.64 17.82.22 6.46.81 12.88 2.1 19.22.87 4.25 1.98 8.43 3.82 12.39.72 1.5 1.49 3.01 2.81 4.34z" fill="#b2e5d4"/></g></g></g></svg>