<svg id="Слой_1" enable-background="new 0 0 500 500" height="512" viewBox="0 0 500 500" width="512" xmlns="http://www.w3.org/2000/svg"><g><g fill="#fff"><path d="m247.35 330.9c-4.59 0-8.31-3.72-8.31-8.31 0-2.01-1.63-3.64-3.64-3.64-3.63 0-6.71-2.32-7.84-5.57-37.35 5.19-77.96 10.1-117.67 10.1-38.05 0-72.03-4.42-103.86-13.5-3.4-.97-5.81-3.98-6.01-7.51-.2-3.53 1.85-6.8 5.12-8.15 17.02-7.04 34.37-15.71 52.76-26.38-19.21-15.68-37.81-32.38-55.42-49.74-2.7-2.66-3.26-6.82-1.34-10.1 1.52-2.6 4.28-4.12 7.17-4.12.76 0 1.52.1 2.28.32 18.46 5.27 37.38 8.83 57.7 10.87.03-2.16.9-4.23 2.43-5.77 1.56-1.56 3.67-2.43 5.87-2.43h.02c4.59 0 8.31 3.72 8.31 8.31 0 .53.23.94.55 1.23 7.89.44 16.1.66 24.43.66 45.92 0 93.02-6.72 138.57-13.23 41.45-5.92 84.32-12.04 126.72-13.22 4.56-.13 9.13-.19 13.6-.19 7.86 0 15.64.2 23.29.59.91-3.6 4.17-6.25 8.05-6.25.73 0 1.32-.59 1.32-1.32 0-4.59 3.72-8.31 8.31-8.31h.02c4.59 0 8.31 3.72 8.31 8.31 0 .73.59 1.32 1.32 1.32 4.59 0 8.31 3.72 8.31 8.31v.02c0 .45-.04.9-.11 1.33 16.06 2.29 31.6 5.56 46.39 9.78 3.33.95 5.72 3.87 6 7.32s-1.61 6.71-4.74 8.19c-15.88 7.47-32 16.34-49.02 27 17.78 15.72 35.06 32.31 51.48 49.44 2.6 2.71 3.06 6.82 1.12 10.03-1.53 2.54-4.26 4.02-7.11 4.02-.76 0-1.52-.1-2.28-.32-30.54-8.71-64.39-13.13-100.63-13.13-4.32 0-8.74.06-13.14.18-35.98 1-72.66 5.69-108.52 10.74.32.89.5 1.85.5 2.85v.02c0 4.59-3.72 8.31-8.31 8.31-2.01 0-3.64 1.63-3.64 3.64 0 4.59-3.72 8.31-8.31 8.31h-.05z"/><path d="m432.39 245.78c19.05-12.4 38.72-23.8 59.3-33.48-20.24-5.78-40.88-9.48-61.72-11.51.94-4.34 4.79-7.59 9.41-7.59v-.02c-5.32 0-9.63-4.31-9.63-9.63h-.02c0 5.32-4.31 9.63-9.63 9.63v.02c4.6 0 8.44 3.23 9.4 7.54-17.94-1.73-36.02-2.21-54.1-1.71-97.46 2.71-194.96 31.47-292.06 25.68-3.92-1.34-6.74-5.05-6.74-9.42h-.02c0 3.64-1.96 6.83-4.87 8.56-21.16-1.88-42.29-5.52-63.41-11.55 20.34 20.05 41.73 38.96 64.12 56.68-20.59 12.5-41.85 23.81-64.12 33.02 79.23 22.61 158.81 11.65 238.49.28-1.53 4.84-6.05 8.35-11.4 8.35v.02c6.6 0 11.95 5.35 11.95 11.95h.02c0-6.6 5.35-11.95 11.95-11.95v-.02c-5.4 0-9.96-3.58-11.44-8.5 42.49-6.07 85.02-12.21 127.54-13.39 39.23-1.09 78.46 2.47 116.28 13.26-18.86-19.68-38.64-38.43-59.3-56.22z"/><path d="m406.41 200.17c-4.56 0-8.26-3.67-8.31-8.22-4.54-.05-8.22-3.75-8.22-8.31s3.67-8.27 8.22-8.32c.05-4.54 3.75-8.22 8.31-8.22s8.27 3.67 8.32 8.22c4.54.05 8.22 3.75 8.22 8.31s-3.67 8.27-8.22 8.32c-.05 4.54-3.75 8.22-8.31 8.22z"/><path d="m406.41 191.86h.01c0-4.54 3.68-8.22 8.22-8.22v-.01c-4.54 0-8.22-3.68-8.22-8.22h-.01c0 4.54-3.68 8.22-8.22 8.22v.01c4.54.01 8.22 3.68 8.22 8.22z"/><path d="m107.73 230.56c-4.59 0-8.31-3.72-8.31-8.31 0-.68-.56-1.24-1.24-1.24-4.59 0-8.31-3.72-8.31-8.31v-.02c0-4.59 3.72-8.31 8.31-8.31.68 0 1.24-.56 1.24-1.24 0-4.59 3.72-8.31 8.31-8.31h.02c4.59 0 8.31 3.72 8.31 8.31 0 .68.56 1.24 1.24 1.24 4.59 0 8.31 3.72 8.31 8.31v.02c0 4.59-3.72 8.31-8.31 8.31-.68 0-1.24.56-1.24 1.24 0 4.59-3.72 8.31-8.31 8.31z"/><path d="m107.73 222.26h.02c0-5.27 4.27-9.54 9.54-9.54v-.02c-5.27 0-9.54-4.27-9.54-9.54h-.02c0 5.27-4.27 9.54-9.54 9.54v.02c5.27 0 9.54 4.27 9.54 9.54z"/><path d="m278.25 332.89c-4.59 0-8.31-3.72-8.31-8.31 0-.73-.59-1.32-1.32-1.32-4.59 0-8.31-3.72-8.31-8.31v-.02c0-4.59 3.72-8.31 8.31-8.31.73 0 1.32-.59 1.32-1.32 0-4.59 3.72-8.31 8.31-8.31h.02c4.59 0 8.31 3.72 8.31 8.31 0 .73.59 1.32 1.32 1.32 4.59 0 8.31 3.72 8.31 8.31v.02c0 4.59-3.72 8.31-8.31 8.31-.73 0-1.32.59-1.32 1.32 0 4.59-3.72 8.31-8.31 8.31z"/><path d="m278.27 305.32h-.02c0 5.32-4.31 9.63-9.63 9.63v.02c5.32 0 9.63 4.31 9.63 9.63h.02c0-5.32 4.31-9.63 9.63-9.63v-.02c-5.32-.01-9.63-4.32-9.63-9.63z"/></g><g><path d="m491.69 301.99c-37.82-10.79-77.05-14.36-116.28-13.26-122.6 3.41-245.26 48.04-367.11 13.26 22.27-9.21 43.53-20.52 64.12-33.02-22.39-17.72-43.78-36.63-64.12-56.68 121.84 34.77 244.51-9.85 367.11-13.27 39.23-1.09 78.46 2.47 116.28 13.27-20.58 9.68-40.25 21.08-59.3 33.48 20.66 17.8 40.44 36.55 59.3 56.22z" fill="#ff7772"/><g fill="#75544d"><g><path d="m336.93 228.42c.08-.06.18-.11.25-.18 1.42-1.4 2.53-2.71 3.66-4.35.73-1.2 1.24-2.47 1.51-3.83.25-1.24.97-2.14 2.21-2.52 1.9-.56 3.67.9 3.46 2.87-.14 1.48-.69 3.11-1.37 4.42-1.55 2.86-3.39 5.19-5.72 7.47-.25.23-.5.46-.78.72.28.69.56 1.36.82 2.05 1.67 4.8 2.23 9.33 1.95 14.4-.43 3.9-1.32 7.44-2.9 11.03-1.19 2.58-2.89 4.97-5.06 6.81-3.48 2.56-7.21 4.02-11.53 2.64-1.96-.82-3.19-1.61-4.78-3.03-2.25-2.55-3.65-5.15-4.75-8.37-1.87-7.02-1.61-13.65.48-20.6 1.01-3.17 2.7-6.19 4.95-8.64 1.82-1.94 4.13-3.61 6.76-4.23 2.38-.37 3.82-.3 6.15.3 1.48.5 3.06 1.52 4.17 2.62.16.15.25.36.38.54.04-.03.09-.07.14-.12zm-1.79 8.23c-5.02 2.59-9.81 4.1-15.5 3.46-.07.08-.11.11-.13.16-.07.2-.14.4-.19.6-1.16 4.99-1.26 9.49-.16 14.5.59 2.33 1.57 4.58 3.08 6.47.8 1 1.74 1.86 2.93 2.42 2.46.68 3.32.52 5.61-.63.83-.59 1.53-1.31 2.16-2.1.98-1.23 1.85-2.77 2.41-4.24 1.06-2.93 1.8-5.9 1.89-9.03.04-3.71-.3-7.4-1.75-10.86-.1-.25-.22-.49-.35-.75zm-3.31-4.62c-1.47-1.21-3.36-1.81-5.22-1.21-1.55.45-3.11 1.82-4.02 3.11-.11.13-.18.3-.31.53 3.54-.04 6.39-.93 9.55-2.43z"/><path d="m386.6 238.66c-.18 5.79-1.18 11.17-3.31 16.56-1.07 2.56-2.56 5.06-4.39 7.04-1.34 1.45-2.69 2.49-4.41 3.57-4.29 1.94-7.74 2.09-12.09.32-1.79-.89-3.34-2.19-4.63-3.7-2.06-2.63-3.47-5.3-4.63-8.44-1.67-5.47-2.26-10.84-2.02-16.54.21-3.76.93-7.41 1.98-11.02.08-.24.15-.48.25-.71.8-1.74 2.73-2.61 4.57-2.26 1.7.31 2.89 1.85 2.44 3.58-.38 1.43-.83 2.86-1.12 4.31-.7 3.83-.95 7.55-.76 11.44.34 3.62 1.01 6.97 2.2 10.4.79 1.84 1.61 3.35 2.75 4.99.68.88 1.47 1.69 2.47 2.35 2.33 1.01 3.04.95 5.33-.16 1.15-.81 2.02-1.79 2.79-2.85 1.67-2.37 2.89-5.06 3.66-7.86 1.25-4.82 1.69-9.45 1.44-14.43-.28-2.9-.77-5.66-1.53-8.47-.46-1.52.24-2.92 1.74-3.64 1.97-.85 4.36-.28 5.28 1.77.35.94.59 1.92.81 2.89.87 3.55 1.1 7.2 1.18 10.86z"/><path d="m293.96 262.68v.87c.02 2.48.04 4.96.06 7.44.01.91-.11 1.78-.78 2.56-.84.97-1.85 1.42-2.98 1.19-1.14-.23-1.86-.95-1.99-2.18-.03-.32-.03-.65-.03-.98-.02-2.38-.04-4.76-.06-7.14 0-.25 0-.5 0-.73-.15-.05-.23-.1-.33-.12-2.7-.36-5.08-2.02-6.87-3.99-2.02-2.2-3.37-5-4.32-7.8-1.59-5.26-2.1-10.41-1.78-15.88.11-1.32.77-2.36 2.04-2.94 1.95-.93 3.85.57 3.71 2.65-.09 1.64-.13 3.3-.05 4.94.28 3.93 1.02 7.51 2.55 11.15.99 1.88 1.86 3.15 3.37 4.65.54.45 1.15.85 1.81 1.13 1.44.73 3.63.33 4.84-.68 1.12-.79 2.01-1.8 2.78-2.92 1.45-2.35 2.46-4.67 3.29-7.3 1.07-4.3 1.47-8.44 1.29-12.87-.03-.5-.08-1-.1-1.51-.05-1.64 1.02-3.12 2.64-3.47 1.5-.31 2.81.62 3.05 2.2.22 2.05.29 3.98.26 6.04-.2 3.84-.77 7.5-1.8 11.2-.63 2.1-1.45 4.15-2.5 6.08-1.87 3.5-4.51 6.59-8.1 8.41z"/></g><g><path d="m172.58 251.39c1.44-.95 2.91-2.2 3.99-3.54.83-1.01 1.63-2.04 2.45-3.06.28-.35.56-.7.88-1.01.99-1.07 3.07-1.4 4.25-.43 1.19.95 1.43 2.75.4 4.17-2.29 3.09-4.62 5.89-7.64 8.28-.26.19-.51.4-.8.62.13.32.26.61.38.91 2.92 7.65 2.97 14.92.46 22.69-.89 2.61-2.4 5.04-4.26 7.06-1.95 2.18-4.62 3.69-7.49 4.2-2.04.33-4.13.01-6.01-.84-2.07-.92-3.82-2.42-5.21-4.19-2.14-2.72-3.59-6.04-4.31-9.42-1.12-5.79-.89-11.13.73-16.8.89-2.68 2.23-5.28 4.08-7.43 1.44-1.52 2.68-2.52 4.48-3.6 3.48-1.41 6.16-1.53 9.68-.32 1.23.53 2.31 1.27 3.31 2.15.19.2.4.37.63.56zm-16.73 12.96c-.05.09-.09.13-.11.19-.04.14-.07.28-.09.42-.39 3.09-.38 5.9.04 8.99.6 2.65 1.42 4.89 2.79 7.24.78 1.16 1.69 2.18 2.87 2.93 2.86 1.24 4.32.87 6.75-1.05 1.05-1.07 1.81-2.32 2.42-3.66 1.04-2.64 1.61-5.11 1.88-7.93.08-3.64-.2-7.3-1.68-10.67-.11-.27-.25-.52-.39-.79-4.62 2.32-9.36 3.58-14.48 4.33zm2.82-6.95c2.6-.6 5.05-1.28 7.51-2.33-2.62-2.05-6.03-.1-7.51 2.33z"/><path d="m231.52 264.97c.05 3.88.1 7.76.16 11.64.18.03.26.06.33.04 3.74-.66 7.49-1.33 11.23-1.99 1.1-.2 2.2-.42 3.29-.56 1.66-.23 3.13.92 3.2 2.62.03 1.79-1.29 3.28-2.97 3.75-.14.04-.28.06-.42.09-3.77.67-7.54 1.33-11.32 1.99-1.69.29-3.38.57-5.07.9-1.54.3-2.64-.11-3.58-1.26-.82-1.01-1.11-2.11-1.12-3.45-.13-11.47-.28-22.95-.43-34.42-.01-.53 0-1.07.08-1.61.27-1.79 1.74-3.14 3.55-3.23 1.06-.05 2.13-.15 3.19-.3 3.83-.58 7.66-1.18 11.49-1.77.5-.08 1.02-.1 1.5-.04 1.35.18 2.27 1.31 2.26 2.7 0 1.42-.97 2.84-2.36 3.38-.49.19-1 .3-1.5.38-3.6.57-7.21 1.13-10.82 1.69-.28.04-.55.08-.92.13.05 4.27.09 8.55.14 12.82.62-.09 1.15-.15 1.68-.24 2.22-.4 4.45-.81 6.67-1.2.42-.07.85-.1 1.26-.06 1.44.12 2.45 1.23 2.47 2.68.02 1.42-.91 2.81-2.31 3.41-.37.16-.77.27-1.16.34-2.64.49-5.29.97-7.94 1.44-.14.03-.28.06-.58.13z"/><path d="m120.41 287.33c1.79-.04 3.57-.09 5.36-.13 5.75-.13 11.49-.33 17.23-.59.45-.02.9-.01 1.34.06 1.56.24 2.63 1.63 2.49 3.2-.13 1.55-1.36 2.85-2.93 3.08-.34.05-.68.07-1.01.09-8.33.4-16.66.64-25.01.7-.39 0-.79-.04-1.17-.1-1.41-.24-2.43-1.25-2.64-2.68-.09-.61-.1-1.23-.11-1.85-.1-8.87-.19-17.74-.29-26.61-.09-7.86-.19-15.71-.28-23.57-.01-.58.03-1.19.18-1.75.35-1.36 1.62-2.29 3.01-2.31 1.38-.02 2.65.87 3.04 2.21.12.42.18.88.18 1.33.09 6.84.16 13.68.24 20.52.11 9.12.21 18.24.32 27.36.01.29.03.59.05 1.04z"/><path d="m201.95 275.13c.16-.37.28-.6.37-.83 2.7-7 5.4-14 8.09-21 .68-1.79 1.36-3.58 2.03-5.37.14-.38.26-.78.37-1.17.49-1.8 2.15-3.14 4.05-2.91 1.84.28 2.74 2.15 2.18 3.84-.53 1.65-1.17 3.27-1.8 4.89-4.01 10.45-8.03 20.89-12.06 31.33-.17.44-.33.89-.55 1.3-.64 1.2-1.6 1.92-2.91 2.06-1.27.13-2.18-.39-2.78-1.41-.16-.27-.27-.58-.39-.88-3.7-9.55-7.4-19.11-11.09-28.67-.39-1.01-.78-2.02-1.13-3.05-.14-.41-.26-.84-.28-1.28-.08-1.45.81-2.84 2.16-3.43 1.36-.6 2.84-.26 3.63.87.27.39.46.84.64 1.3 1.31 3.4 2.61 6.81 3.92 10.22 1.72 4.46 3.45 8.91 5.18 13.36.1.24.21.47.37.83z"/></g></g><path d="m90.72 254.49c0-5.5-4.46-9.97-9.97-9.97 5.5 0 9.97-4.46 9.97-9.97 0 5.5 4.46 9.97 9.97 9.97-5.51 0-9.97 4.46-9.97 9.97z" fill="#f8d86f"/><g fill="#b2e5d4"><path d="m76.6 235.22c0-5.5-4.46-9.97-9.97-9.97 5.5 0 9.97-4.46 9.97-9.97 0 5.5 4.46 9.97 9.97 9.97-5.51 0-9.97 4.46-9.97 9.97z"/><path d="m406.41 191.86c0-4.54-3.68-8.22-8.22-8.22 4.54 0 8.22-3.68 8.22-8.22 0 4.54 3.68 8.22 8.22 8.22-4.54 0-8.22 3.68-8.22 8.22z"/><path d="m107.74 222.26c0-5.28-4.28-9.55-9.55-9.55 5.28 0 9.55-4.28 9.55-9.55 0 5.28 4.28 9.55 9.55 9.55-5.27 0-9.55 4.27-9.55 9.55z"/></g><path d="m411.31 222.43c0-5.32-4.31-9.63-9.63-9.63 5.32 0 9.63-4.31 9.63-9.63 0 5.32 4.31 9.63 9.63 9.63-5.31-.01-9.63 4.3-9.63 9.63z" fill="#f8d86f"/><path d="m429.75 202.82c0-5.32-4.31-9.63-9.63-9.63 5.32 0 9.63-4.31 9.63-9.63 0 5.32 4.31 9.63 9.63 9.63-5.31 0-9.63 4.31-9.63 9.63z" fill="#b2e5d4"/><path d="m278.26 324.58c0-5.32-4.31-9.63-9.63-9.63 5.32 0 9.63-4.31 9.63-9.63 0 5.32 4.31 9.63 9.63 9.63-5.32 0-9.63 4.31-9.63 9.63z" fill="#b2e5d4"/><path d="m268.79 295.51c0-4.22-3.42-7.64-7.64-7.64 4.22 0 7.64-3.42 7.64-7.64 0 4.22 3.42 7.64 7.64 7.64-4.22 0-7.64 3.42-7.64 7.64z" fill="#f8d86f"/><path d="m247.36 322.59c0-6.61-5.35-11.96-11.96-11.96 6.61 0 11.96-5.35 11.96-11.96 0 6.61 5.35 11.96 11.96 11.96-6.61 0-11.96 5.36-11.96 11.96z" fill="#f8d86f"/></g></g></svg>