<svg id="Слой_1" enable-background="new 0 0 500 500" height="512" viewBox="0 0 500 500" width="512" xmlns="http://www.w3.org/2000/svg"><g><path d="m201.15 500c-44.69 0-83.24-.02-111.51-.05-49.03-.05-49.19-.08-50.7-.32-6.76-1.07-11.73-6.9-11.73-13.74v-244.64c-2.01-1.9-3.74-3.98-5.17-6.24-1.9-3-3.12-6.19-3.63-9.48-.88-5.67.5-11.2 3.66-15.64-1.83-2.07-3.41-4.34-4.73-6.8-2.97-5.54-3.49-12.28-1.42-18.5 2.03-6.1 6.39-11.08 11.94-13.66 2.32-1.08 4.4-1.44 5.51-1.64l.13-.02c.99-.22 1.99-.33 3-.33.54 0 1.07.03 1.61.09l.42.05c3.35.39 7.5.87 11.85 2.92 8.25 2.6 15.39 6.97 21.32 13.03.29-.68.6-1.36.93-2.03.2-.42.41-.82.63-1.23-1.73-.55-3.44-1.19-5.15-1.93-7.78-3.39-12.89-9.73-14.39-17.84-.93-5.04-.31-10.38 1.75-15.03 1.99-4.5 5.26-8.2 9.41-10.74-.56-1.5-1.04-3.04-1.43-4.63-1.31-5.38-1.09-10.56.65-15.39 2.77-7.66 8.9-13.16 16.81-15.09 1.74-.42 3.5-.64 5.25-.64 5.02 0 9.81 1.75 13.85 5.06 2.57 2.1 4.83 4.69 6.72 7.69 1.86 2.95 3.29 5.87 4.3 8.83 3.1-1.59 6.34-2.4 9.67-2.4 1.88 0 3.77.26 5.61.78.83.23 1.74.55 2.7.97 1.15-.99 2.42-1.84 3.76-2.54-.16-.28-.31-.57-.47-.86-3.22-6.18-4.57-12.1-4.13-18.1.2-2.7.77-5.25 1.71-7.58 3.14-7.81 10.74-12.85 19.35-12.85 1.14 0 2.3.09 3.44.27 3.82.6 7.47 2.06 10.85 4.36 4.72 3.21 8.49 7.34 11.18 12.2 2.09-1.32 4.43-2.25 6.86-2.76 0 0 18.28-15.93 18.79-16.37-.71-3.43-.89-6.87-.53-10.3.41-3.98 1.72-7.6 3.88-10.76 2.97-4.34 7.3-7.27 12.35-8.4-1.86-3.3-3.19-6.69-4.04-10.22-2.11-8.8-.88-17.54 3.55-25.26 1.47-2.56 3.45-4.93 5.9-7.03 3.98-3.41 8.75-5.21 13.81-5.21 3.7 0 7.44 1.01 10.8 2.91 1.16.65 2.25 1.38 3.28 2.17 2.5-1.53 5.22-2.56 8.13-3.07 1.17-.21 2.36-.31 3.55-.31 10.28 0 19.05 7.6 20.63 17.56.53.01 1.07.06 1.59.13.09.01.38.04.58.06 1.25.13 3.14.32 5.27.92 12.15 3.42 18.42 14.41 15.25 26.73-1.64 6.38-5.58 11.79-11.38 15.64-4.35 2.88-9.31 5.18-15.18 7.02l50.56 44.07c.35-.13.71-.24 1.06-.36 1.72-.55 4.38-1.28 7.62-1.28 1.03 0 2.07.08 3.08.23 9.78 1.45 17.17 8.69 18.92 18.12 2-.6 4.1-.91 6.24-.91 1.58 0 3.21.17 4.84.49-.24-1.26-.42-2.54-.54-3.84-.15-1.67-.12-3.14-.09-4.21 0-.12.01-.24.01-.36-.26-3.7.14-7.52 1.21-11.66 2.34-9.02 8.28-15.71 16.72-18.82 2.81-1.04 5.67-1.56 8.49-1.56 7.89 0 14.97 4.07 19.41 11.15 1.6 2.56 2.76 5.28 3.45 8.12.51.05 1.01.12 1.5.21 9.79 1.7 16.24 9.66 16.05 19.8-.01.29-.02.59-.04.88-.12 1.44-.39 2.9-.8 4.35 4.34 2.12 8.01 5.23 10.77 9.14 3.52 4.99 4.84 10.83 3.69 16.45-.77 3.78-2.6 7.22-5.31 10.05 1.75-.96 3.52-1.79 5.35-2.49 3.98-1.53 7.76-2.28 11.56-2.28 1.53 0 3.06.13 4.56.38 8.99 1.49 15.63 7.12 18.23 15.45.56 1.79.73 3.34.81 4.09v.03c.11.78.15 1.56.13 2.34-.21 7.01-3.08 11.96-5.22 15.07-2.12 3.08-4.75 5.81-7.98 8.28.52.62 1 1.27 1.46 1.96 2.96 4.48 4.24 9.92 3.58 15.34-.94 7.76-4.96 14.13-11.63 18.4-1.82 1.17-3.72 2.16-5.68 2.97v236.5c0 7.68-6.23 13.91-13.91 13.91h-3.14c-21.32.15-140.35.23-241.6.23z" fill="#fff"/><g><path d="m41.13 485.9c0-.77 0-1.47 0-2.17 0-81.63 0-163.26 0-244.89 0-.75.06-1.51-.03-2.26-.18-1.46.37-2.52 1.46-3.45 3.53-3.03 7.03-6.1 10.53-9.16 25.59-22.3 51.17-44.59 76.76-66.89 26.05-22.7 52.1-45.39 78.14-68.09 10.84-9.45 21.68-18.91 32.52-28.36 1.7-1.48 3.91-1.48 5.61 0 29.38 25.6 58.75 51.21 88.13 76.81 31.79 27.7 63.57 55.41 95.36 83.11 4.82 4.2 9.64 8.4 14.47 12.59 1.24 1.07 1.84 2.34 1.84 4.04-.03 82.29-.02 164.57-.02 246.86v1.76c-1.15.32-402.85.4-404.77.1z" fill="#ffe3c6"/><g fill="#6a895e"><path d="m182.6 298.19c2.15.14 4.49.75 6.75 1.77 5.25 2.37 9.8 5.74 13.92 9.7 5.26 5.06 9.97 10.61 14.01 16.7 2.22 3.35 4.02 6.89 5.2 10.74.34 1.1.36 2.07-.53 3-.59.62-1.21.85-2 .7-5.53-1.09-11.04-2.21-16.29-4.39-5.17-2.14-10.32-4.31-15.08-7.28-4.52-2.82-8.32-6.42-11.26-10.88-1.68-2.55-2.69-5.35-3.13-8.38-.32-2.19-.12-4.32.59-6.39 1.16-3.4 3.91-5.3 7.82-5.29z"/><path d="m163.45 256.22c.08-3.91 1.61-7.02 5.25-8.77 1.07-.51 2.33-.75 3.52-.87 4.28-.45 8.31.54 12.18 2.31 5.78 2.64 10.87 6.15 14.51 11.49 2.32 3.4 3.98 7.14 5.38 10.98 1.08 2.95 2.05 5.95 3.04 8.93.15.44.26.92.25 1.37-.02.91-.62 1.37-1.51 1.19-2.12-.41-4.23-.83-6.34-1.28-5.86-1.24-11.42-3.41-17.06-5.35-3.85-1.32-7.36-3.33-10.67-5.67-3.57-2.53-6.36-5.69-7.82-9.9-.51-1.43-.81-2.89-.73-4.43z"/><path d="m231.96 169.55c-.02 2.49-.47 4.88-1.22 7.23-1.63 5.12-3.52 10.13-6.84 14.45-1 1.3-2.02 2.61-3.17 3.77-3.09 3.08-6.1 6.27-9.9 8.55-.34.2-.59.58-.83.91-.72.99-1.77.95-2.31-.16-.26-.54-.45-1.15-.51-1.75-.42-3.87-.82-7.75-1.19-11.63-.13-1.31-.16-2.62-.24-3.94-.34-5.83.4-11.53 2.06-17.12 1.06-3.58 2.45-7.01 4.68-10.05 1.83-2.5 4.02-4.65 7.05-5.61 3.51-1.12 6.94-.11 8.87 2.78 1.51 2.26 2.47 4.75 2.95 7.41.3 1.7.4 3.44.6 5.16z"/><path d="m36.53 182.87c2.98.35 5.6.6 8.02 1.77.42.2.85.4 1.3.53 8.55 2.61 15.31 7.72 20.37 15.01 3.64 5.24 6.28 11.01 8.09 17.14.07.23.1.46.18.68.63 1.73.24 3.01-2.48 2.54-.36-.06-.71-.24-1.05-.4-3.12-1.43-6.2-2.94-9.35-4.29-3.33-1.42-6.7-2.71-10.09-3.99-4.85-1.83-9.51-4.03-13.89-6.83-3.4-2.17-6.1-4.95-8.02-8.52-2.38-4.43-.4-10.85 4.13-12.95.95-.44 2.07-.52 2.79-.69z"/><path d="m43.83 213.82c12.99.88 23.61 5.94 30.54 17.45 1.06 1.77 1.94 3.65 2.88 5.48.17.33.32.69.38 1.05.16.89-.3 1.45-1.2 1.52-3.6.3-7.19.64-10.8.89-5.16.35-10.21-.41-15.17-1.81-3.83-1.08-7.41-2.68-10.72-4.9-2.36-1.59-4.41-3.5-5.94-5.93-.81-1.29-1.4-2.67-1.64-4.17-.51-3.28 1.07-6.31 4.13-7.95 2.36-1.23 4.87-1.73 7.54-1.63z"/><path d="m471.4 186.92c-.09 3.07-1.26 5.4-2.77 7.59-1.81 2.63-4.17 4.68-6.83 6.43-5 3.29-10.52 5.39-16.24 6.97-3.61 1-7.31 1.69-10.97 2.52-.96.22-1.91.5-2.88.69-1.89.36-2.65-.45-2.03-2.22 2.8-7.93 7.18-14.84 13.33-20.61 3.55-3.33 7.42-6.2 12.01-7.97 2.85-1.1 5.79-1.67 8.83-1.16 3.48.58 6.12 2.32 7.23 5.86.22.71.25 1.48.32 1.9z"/><path d="m105.51 196.68c.02 2.25-.44 4.41-1.04 6.54-2.3 8.21-6.06 15.65-11.67 22.11-.12.14-.23.29-.35.44-.88 1.16-1.83 1.2-2.71.01-.61-.83-1.1-1.75-1.59-2.66-2.19-4.06-4.15-8.23-5.19-12.74-1.69-7.33-1.13-14.45 2.19-21.27 1.06-2.18 2.5-4.07 4.47-5.54 4.96-3.71 9.84-1.52 12.43 1.85 1.55 2.01 2.43 4.34 2.92 6.8.29 1.46.37 2.97.54 4.46z"/><path d="m396.55 242.68c-.2 4.47-.76 8.89-1.96 13.21-.78 2.8-1.54 5.62-2.27 8.43-.29 1.13-.53 2.29-.7 3.45-.15 1.06-.77 1.81-1.46 2.51-.63.64-1.52.48-2.18-.36-.67-.85-1.33-1.71-1.9-2.62-3.94-6.34-7.21-12.98-8.79-20.33-.64-2.99-1.08-6.02-.94-9.09.18-4.03 1.06-7.91 2.88-11.53.81-1.61 1.93-2.99 3.33-4.15 2.28-1.91 5.9-1.89 8.05.76 2.23 2.75 3.72 5.84 4.59 9.27.64 2.56 1.37 7.93 1.35 10.45z"/><path d="m345.52 135.16c-.2 4.37-1.7 8.25-4.44 11.63-2.17 2.67-4.65 5.05-7.49 7.01-4.18 2.89-8.52 5.5-13.32 7.26-1.19.44-2.4.82-3.63 1.12-.71.17-1.48.2-2.22.16-1-.06-1.44-.55-1.42-1.54.01-.7.12-1.41.28-2.09.79-3.48 1.54-6.97 2.43-10.42 1.6-6.18 4.6-11.59 9.19-16.06 2.52-2.45 5.38-4.4 8.76-5.48 1.44-.46 2.9-.77 4.43-.54 4.33.64 7.25 3.88 7.43 8.26.01.22 0 .46 0 .69z"/><path d="m247.82 35.26c-.24 2.57-.48 5.13-.71 7.7-.3 3.5-.59 7.01-.89 10.52-.06.74-.17 1.49-.21 2.23-.02.4.06.81.11 1.22.13 1.13-.75 1.79-1.79 1.33-.25-.11-.49-.28-.69-.47-3.93-3.77-8.1-7.29-11.62-11.48-3-3.57-5.35-7.48-6.45-12.06-1.27-5.31-.62-10.38 2.09-15.1.73-1.27 1.78-2.44 2.9-3.4 2.55-2.2 5.73-2.38 8.65-.72 3.08 1.75 5.08 4.41 6.34 7.65 1.47 3.77 2.02 7.7 2.07 11.73v.85c.07-.01.13-.01.2 0z"/><path d="m407.43 191.63c.04-4.05.32-8.07 1.38-12 .88-3.28 2.33-6.25 4.98-8.5 1.74-1.47 3.7-2.3 6.06-2.24 1.84.05 3.28.75 4.45 2.07 1.96 2.21 3.02 4.83 3.5 7.72.85 5.1.01 10.03-1.53 14.86-1.96 6.17-4.65 12-8.39 17.31-.89 1.27-1.85 2.49-2.84 3.69-1.78 2.16-3.23 2.02-4.21-.56-.77-2.01-1.32-4.12-1.72-6.23-1-5.33-1.64-10.7-1.68-16.12z"/><path d="m184.11 216.51c-2.61-.21-5-.34-7.37-.62-2.93-.34-5.64-1.39-8.21-2.82-4.27-2.38-8.37-5.02-12.01-8.32-2.17-1.97-3.97-4.25-5.5-6.74-.51-.83-.93-1.75-1.25-2.67-1.04-3.01.07-6.03 2.81-7.67 2.67-1.6 5.6-1.77 8.59-1.31 2.54.39 4.88 1.42 7 2.84 6.13 4.13 11.59 8.97 15.39 15.42 1.33 2.26 2.5 4.62 3.72 6.95.17.32.31.71.31 1.07 0 .54.17.96.48 1.41.6.88.22 1.82-.83 2.04-1.09.23-2.22.3-3.13.42z"/><path d="m272.54 218.06c-.03 4.66-1.11 9.13-2.73 13.46-1.13 3.03-2.41 6.01-3.62 9.02-.14.34-.21.72-.29 1.08-.23.99-.71 1.35-1.71 1.18-.45-.08-.9-.27-1.31-.48-5.56-2.92-9.44-7.33-11.62-13.23-.93-2.53-1.54-5.14-1.69-7.82-.18-3.43.34-6.84 2.18-9.76 2.6-4.13 6.43-6.53 11.41-6.71 2.77-.1 5 1.17 6.61 3.41 1.85 2.56 2.55 5.51 2.75 8.61.05.4.02.82.02 1.24z"/><path d="m281.32 33.18c1.16.16 2.64.21 4.02.6 4.77 1.34 6.84 4.82 5.54 9.87-.83 3.23-2.84 5.68-5.6 7.52-3.67 2.44-7.71 4.12-11.89 5.42-5.92 1.83-11.9 3.49-17.85 5.22-.22.07-.46.12-.69.14-1.18.12-1.8-.49-1.66-1.65.04-.32.12-.65.22-.96 2.46-8.38 6.81-15.55 13.69-21.02 3.05-2.43 6.55-4.06 10.41-4.76 1.16-.22 2.34-.24 3.81-.38z"/><path d="m383.43 121.23c-.26-2.61.11-5.16.76-7.67 1.15-4.42 3.72-7.66 8.07-9.27 4.63-1.71 8.68-.26 11.3 3.93 1.91 3.04 2.49 6.29 1.85 9.84-1.04 5.75-3.11 11.1-5.81 16.24-1.03 1.95-1.9 3.98-2.85 5.97-.38.81-.75 1.63-1.66 2.02-.19.08-.32.32-.47.5-.83 1-1.53 1.06-2.44.09-.96-1.03-1.88-2.1-2.75-3.21-3.38-4.31-5.49-9.17-6-14.65-.1-1.25 0-2.52 0-3.79z"/><path d="m356.87 282.15c.07 2.05-.69 3.77-1.64 5.41-1.7 2.95-4.04 5.29-6.87 7.16-5.71 3.77-12.01 5.96-18.78 6.81-1.68.21-3.36.41-5.05.5-1.02.05-2.12.05-3.06-.26-.83-.28-1.59-.95-2.21-1.61-.25-.26-.16-.99-.03-1.44.17-.57.54-1.09.84-1.62 2.52-4.48 5.35-8.74 8.71-12.63 3.96-4.58 8.89-7.61 14.85-8.87 2.22-.47 4.45-.65 6.71-.17 1.84.39 3.5 1.08 4.8 2.49 1.12 1.21 1.85 2.61 1.73 4.23z"/><path d="m80.01 146.1c2.9.12 6.01.99 8.88 2.77 4.98 3.09 8.56 7.4 11.12 12.61.91 1.85 1.67 3.78 2.51 5.66.15.33.36.65.6.93.48.55.7 1.14.28 1.79-.43.67-1.09.66-1.76.45-1.46-.47-2.95-.51-4.46-.46-3.42.11-6.85.39-10.26.3-4.59-.12-9.02-1.2-13.23-3.03-3.35-1.46-5.59-3.94-6.27-7.61-.78-4.23.72-10.02 6.5-12.26 1.82-.71 3.68-1.16 6.09-1.15z"/><path d="m452.54 216.18c1.48.2 2.99.27 4.43.63 4.29 1.09 6.89 5.1 6.36 9.5-.44 3.66-2.25 6.39-5.32 8.36-4.4 2.82-9.21 3.8-14.38 3.36-4.67-.39-9.16-1.53-13.46-3.33-1.46-.61-2.84-1.45-4.15-2.34-1.34-.9-1.44-1.9-.34-3.05 4.16-4.33 8.77-8.04 14.41-10.34 3.99-1.63 8.09-2.67 12.45-2.79z"/><path d="m308.45 231.39c-.39 5.01-2.44 9.19-6.35 12.4-4.14 3.41-9.01 5.21-14.23 6.06-3.1.5-6.25.67-9.38 1.02-.49.05-.99.21-1.43.45-1.2.65-2.16.17-2.23-1.21-.02-.46.03-.95.16-1.39 1.98-6.46 4.85-12.43 9.63-17.32 2.28-2.33 4.85-4.29 7.72-5.86 2.98-1.63 6.17-2.21 9.53-1.78 2.41.31 4.35 1.45 5.66 3.54.72 1.12.88 2 .92 4.09z"/><path d="m165.78 122.97c0 1.25-.03 3.03.01 4.82.02 1.12-.24 1.95-1.36 2.52-1.14.58-1.98.21-2.85-.43-4.53-3.38-8.73-7.11-12.21-11.6-1.67-2.15-3.42-4.23-4.68-6.67-1.74-3.35-2.88-6.84-2.6-10.66.08-1.15.31-2.34.74-3.41 1.2-2.99 4.34-4.56 7.74-4.03 1.89.3 3.61 1.06 5.17 2.12 4.93 3.35 7.93 8.02 9.22 13.82.95 4.27 1.3 8.6.82 13.52z"/><path d="m373.63 157.51c-.41 6.9-2.52 13.27-5.42 19.44-.98 2.09-2.33 3.85-4.19 5.21-.65.48-1.11.95-.83 1.87.19.63-.05 1.23-.76 1.47-.68.23-1.21-.07-1.56-.64-.27-.43-.51-.9-.68-1.39-1.83-5.12-3.77-10.21-4.98-15.54-.58-2.58-.79-5.2-.64-7.83.22-3.82.84-7.56 2.69-10.99.91-1.67 2.08-3.12 3.65-4.21 2.03-1.41 4.29-1.58 6.61-1.08 1.48.32 2.57 1.3 3.46 2.51 1.2 1.63 1.89 3.47 2.15 5.44.27 1.9.35 3.82.5 5.74z"/><path d="m338.94 212.51c.26 6.78-1.52 13.09-4.5 19.11-.52 1.05-1.03 2.11-1.6 3.13-.31.57-.44 1.11-.17 1.74.11.25.16.55.16.82-.02 1.03-1.05 1.59-1.9 1-.33-.23-.6-.6-.77-.97-2.36-4.96-4.81-9.87-7-14.9-1.87-4.29-2.83-8.85-2.65-13.57.14-3.73 1.14-7.22 3.27-10.33.97-1.42 2.19-2.57 3.75-3.32 2.05-.99 4-.84 5.83.53 1.34 1 2.34 2.3 3.09 3.78 1.56 3.11 2.36 6.41 2.49 9.88.03 1.04 0 2.07 0 3.1z"/><path d="m99.37 135.95c-.13 1.9-.21 3.59-.37 5.27-.23 2.47-.51 4.94-.77 7.42-.03.32-.09.66-.21.96-.31.82-.82 1.13-1.65.88-.75-.23-1.54-.51-2.15-.98-3.71-2.88-7.3-5.91-10.59-9.26-3.3-3.36-5.53-7.34-6.64-11.9-.6-2.45-.65-4.95.22-7.36 1.21-3.34 3.59-5.47 7.02-6.3 2.58-.63 4.93-.02 6.99 1.67 1.51 1.23 2.74 2.71 3.77 4.34 1.82 2.88 3.21 5.96 3.79 9.33.35 2 .42 4.08.59 5.93z"/><path d="m314.82 190.39c-3.29-.06-6.4-1.04-9.55-1.75-.44-.1-.87-.35-1.23-.64-1.06-.86-1.25-1.5-.57-2.69 1.23-2.16 2.44-4.35 3.89-6.35 5.13-7.07 12.22-10.76 20.81-11.72 1.71-.19 3.38.1 4.91.93 3.07 1.68 4.52 4.82 3.95 8.32-.58 3.55-2.29 6.42-5.08 8.66-3.9 3.13-8.39 4.71-13.34 5.04-1.27.09-2.53.14-3.79.2z"/><path d="m297.49 295.96c.06 1.45-.34 2.89-.91 4.29-.87 2.1-2.06 4.01-3.51 5.75-3.27 3.94-7.31 6.83-11.99 8.9-3 1.32-6.12 2.1-9.32 2.62-.66.11-1.22.27-1.76.75-.98.86-2.01.37-2.17-.95-.04-.32-.05-.66 0-.98.81-5.06 1.76-10.09 4.16-14.7 2.87-5.49 7.16-9.47 12.8-11.99 1.83-.82 3.74-1.25 5.75-1.14 4.43.23 6.97 2.93 6.95 7.45z"/><path d="m236.74 91.79c0 .63.01 1.05 0 1.47-.04 1.53-.94 2.45-2.46 2.44-.55-.01-1.15-.1-1.63-.34-6.28-3.11-11.96-6.92-15.55-13.2-2.46-4.3-3.91-8.83-3.39-13.86.16-1.57.63-3.03 1.52-4.34 1.13-1.65 2.74-2.59 4.69-2.81 4.54-.52 8.11 1.06 10.5 5.05 1.9 3.17 3.12 6.63 3.97 10.2 1.22 5.13 1.92 10.34 2.35 15.39z"/><path d="m318.15 270.88c.05 3.51-.71 6.9-1.51 10.29-.4 1.69-.75 3.39-1.09 5.09-.2 1-.87 1.45-1.83 1.13-.26-.09-.51-.24-.73-.41-4.99-3.8-9.25-8.24-12.07-13.93-2.53-5.09-3.25-10.36-1.71-15.86.76-2.7 2.18-4.97 4.65-6.49 2.92-1.8 5.45-1.6 7.98.69 1.78 1.61 3.05 3.58 3.85 5.82 1.54 4.42 2.36 8.98 2.46 13.67z"/><path d="m424.63 163.49c-3.78.24-7.18-1.03-10.61-2.21-5.03-1.74-9.24-4.78-13.14-8.29-1.02-.92-1.08-1.93-.13-2.94.38-.41.84-.75 1.3-1.08 4.04-2.93 8.63-4.32 13.56-4.6 4.02-.23 7.98.22 11.81 1.51 3.07 1.03 5.62 2.81 7.5 5.48 2.67 3.78 1.84 7.86-2.09 10.29-1.93 1.19-4.05 1.72-6.29 1.84-.66.03-1.32 0-1.91 0z"/><path d="m289.2 162.19c.22-4.17 1.02-8.29 3.1-12.08 1.25-2.27 2.96-4.12 5.16-5.47.9-.56 1.92-1.03 2.95-1.26 3.6-.81 6.02.93 7.44 4.06 1.06 2.34 1.27 4.86 1.01 7.44-.66 6.53-3.33 12.28-6.8 17.7-1.08 1.69-2.42 3.22-3.69 4.78-.87 1.07-2.07 1.74-3.28 2.37-.77.4-1.32.26-1.82-.46-.18-.27-.32-.57-.45-.87-2.18-5.15-3.33-10.54-3.62-16.21z"/><path d="m108.71 154.05c-.09-4.23.28-7.76 1.59-11.14 1.14-2.96 2.88-5.48 5.43-7.39 2.04-1.52 4.26-2.4 6.85-1.67 2.01.57 3.41 1.92 4.5 3.63 1.5 2.34 2.03 4.93 1.75 7.68-.63 6.12-3.37 11.27-7.47 15.74-1.3 1.41-2.77 2.67-4.16 4-1.02.97-2.05 1.93-3.04 2.93-1.12 1.14-1.78 1.18-2.72-.08-.49-.66-.89-1.43-1.13-2.22-1.19-3.96-1.42-8.04-1.6-11.48z"/><path d="m225.41 261.62c.08-6.11 1.05-11.47 3.57-16.48 1.04-2.08 2.41-3.92 4.18-5.44.81-.7 1.71-1.34 2.66-1.82 2.7-1.36 5.19-.69 6.89 1.81 1.41 2.07 2.03 4.42 2.11 6.91.17 5.65-1.66 10.73-4.56 15.44-2.49 4.05-5.34 7.83-8.91 11.03-.28.25-.51.55-.77.82-.83.85-1.63.93-2.42.04-.57-.65-1.07-1.46-1.3-2.28-.49-1.81-.87-3.65-1.13-5.51-.23-1.69-.24-3.38-.32-4.52z"/><path d="m342.1 241.41c-1.83 0-3.66.02-5.49-.01-1.25-.02-1.8-.86-1.25-1.98.33-.67.79-1.28 1.26-1.86 2.06-2.5 4.06-5.06 6.23-7.46 3.75-4.15 8.25-7.23 13.64-8.91 2.66-.83 5.35-.95 8.05-.21 1.19.33 2.27.9 3.09 1.87 1.56 1.86 1.55 3.99.89 6.13-1.01 3.28-3.02 5.91-5.66 8.07-2.43 2-5.29 2.97-8.31 3.63-4.11.92-8.26 1.22-12.45.73z"/><path d="m267.98 23.76c-.12 4.69-1.87 8.84-4.29 12.78-2.14 3.48-4.92 6.4-7.93 9.11-1.05.94-2.09 1.9-3.22 2.73-1.47 1.08-2.45.73-2.83-1.09-.55-2.66-1.06-5.34-1.39-8.04-.41-3.33-.1-6.67.55-9.94.73-3.66 2.32-6.95 4.77-9.77 1.66-1.92 3.66-3.36 6.25-3.82 3.88-.68 7.75 2.28 8.07 6.21.07.61.02 1.22.02 1.83z"/><path d="m230.37 134.83c-.1.86-.21 2.07-.4 3.27-.3 1.87-1.8 3.05-3.7 2.88-.79-.07-1.6-.23-2.32-.53-6.91-2.84-11.84-7.67-14.43-14.71-.9-2.46-.96-5.04-.43-7.64.62-2.98 2.1-5.31 5.08-6.21 3.16-.95 6.06-.14 8.42 2.21.89.89 1.74 1.87 2.39 2.94 3.27 5.35 5.13 11.14 5.39 17.79z"/><path d="m231.97 296.53c-.24-2.91.62-5.54 2.31-7.92.8-1.12 1.78-2.06 3-2.71 3.27-1.74 7.36-.84 10.06 2.22 1.16 1.32 2 2.83 2.61 4.48.96 2.58 1.18 5.29 1.53 8 .48 3.71-.05 7.4-.04 11.11 0 .75-.01 1.5-.04 2.25-.01.37.04.81-.15 1.09-.23.35-.65.75-1.03.79-.37.04-1.03-.25-1.14-.56-.31-.84-.99-1.04-1.65-1.39-2.16-1.13-4.37-2.19-6.43-3.49-1.7-1.07-3.3-2.33-4.77-3.7-2.93-2.71-4.55-6.05-4.26-10.17z"/><path d="m127.98 273.2c.17-2.36.54-4.27 1.86-5.88 1.56-1.91 3.7-2.56 6.05-1.84 1.51.46 2.81 1.28 4.02 2.27 2.92 2.39 5.07 5.39 6.84 8.69 2.2 4.09 4.4 8.18 6.51 12.32.61 1.19 1.04 2.52 1.28 3.84.27 1.49-.73 2.37-2.22 2.02-5.75-1.36-11.29-3.26-15.98-7.02-3.59-2.88-6.32-6.42-7.65-10.9-.38-1.25-.53-2.56-.71-3.5z"/><path d="m246.83 145.02c-1.36-.15-3.8-.34-6.21-.69-1.71-.24-2.29-1.13-1.83-2.79 2.32-8.31 7.27-14.29 15.55-17.23 1-.36 2.1-.56 3.16-.64 3.75-.29 6.67 1.27 8.43 4.5 1.83 3.35 1.11 6.66-1.1 9.64-1.63 2.2-3.84 3.72-6.3 4.85-3.37 1.56-6.92 2.36-11.7 2.36z"/><path d="m108.92 261.54c-.07-3.49 1.16-8.03 4.31-11.93.76-.94 1.65-1.81 2.61-2.54 2.69-2.05 5.66-2.18 8.63-.77 3.01 1.43 4.36 4.03 4.41 7.29.04 2.84-.9 5.45-2.25 7.9-2.2 4.01-4.96 7.62-8.11 10.93-1.07 1.12-2.11 2.26-3.17 3.39-.29.31-.57.63-.91.88-.93.69-1.78.55-2.4-.4-.31-.47-.54-.99-.75-1.51-1.58-3.77-2.35-7.7-2.37-13.24z"/><path d="m240.88 178.17c-.56-.08-1.36-.12-2.13-.32-1.01-.26-1.37-.88-1.14-1.91 1.02-4.52 2.63-8.8 5.25-12.67 2.04-3.02 4.41-5.73 7.45-7.79 2.82-1.9 5.87-3.14 9.34-3.07 3.14.06 5.03 1.97 5.21 5.1.18 3.07-.9 5.77-2.62 8.16-4.81 6.69-11.25 10.93-19.43 12.36-.56.1-1.13.09-1.93.14z"/><path d="m193.18 116.24c.01 3.25-.87 5.81-2.04 8.29-1.63 3.47-3.86 6.55-6.39 9.4-1.65 1.86-3.45 3.58-5.18 5.36-.2.2-.41.39-.63.56-1.16.85-2.48.49-2.96-.85-.24-.66-.41-1.36-.49-2.05-.34-2.93-.8-5.87-.89-8.81-.18-5.39.95-10.54 3.46-15.35.9-1.72 2.09-3.22 3.66-4.4 2.88-2.16 7.82-2.03 10.1 2.32.97 1.87 1.32 3.9 1.36 5.53z"/><path d="m128.59 235.88c-3.68.11-7.31-.15-10.87-1.21-4.44-1.32-7.86-3.9-10.21-7.9-.99-1.67-1.42-3.47-1.27-5.4.1-1.31.58-2.47 1.47-3.43 1.54-1.67 3.45-2.57 5.72-2.64 6.76-.23 11.93 2.72 15.96 7.96 1.78 2.32 3.25 4.83 4.44 7.5.49 1.1.88 2.25 1.28 3.39.27.75-.1 1.43-.88 1.63-.4.1-.84.1-1.26.1-1.47 0-2.92 0-4.38 0z"/><path d="m255.19 103.1c-3.61.11-6.71-.87-9.81-1.79-1.38-.41-1.66-1.08-1.23-2.48.78-2.54 2.01-4.84 3.61-6.97 2.68-3.57 6.04-6.28 10.09-8.13 2.13-.98 4.36-1.38 6.71-1.29 3.51.14 6.52 3.45 6.89 6.74.26 2.29-.25 4.38-1.6 6.26-1.87 2.62-4.31 4.56-7.22 5.91-2.46 1.13-4.97 2.02-7.44 1.75z"/><path d="m386.01 192.16c-3.12-.09-6.17-.65-9.12-1.66-2.53-.86-5.02-1.85-7.5-2.86-1.59-.65-1.81-1.79-.51-2.9 3.77-3.2 7.72-6.17 12.31-8.12 2.91-1.24 5.99-1.6 9.12-1.32 2.72.25 5.06 1.39 6.94 3.39 1.96 2.08 2.35 4.83.88 7.27-.67 1.1-1.55 2.15-2.54 2.97-2.63 2.15-6.17 3.26-9.58 3.23z"/><path d="m159.8 149.03c-4.8-.12-9.53-.8-14.14-2.18-2.52-.75-4.79-1.94-6.6-3.88-1.55-1.66-2.49-3.63-2.77-5.89-.46-3.74 2.24-6.57 5.69-6.45 5.54.19 10.43 2.07 14.82 5.41 3.34 2.54 5.79 5.86 8.31 9.14.2.26.37.55.49.85.37.94.16 1.7-.76 2.11-.88.4-1.83.68-2.78.86-.74.14-1.51.03-2.26.03z"/><path d="m422.44 128.7c-.13 1.63-.81 3.42-1.83 5.08-2.2 3.6-5.33 6.2-9.17 7.82-3.58 1.51-7.27 2.77-10.93 4.1-.68.25-1.39.23-1.96.91-.62.73-1.73.29-1.91-.68-.08-.45-.05-.95.07-1.39 1.39-5.25 3.19-10.32 6.77-14.55 2.7-3.19 5.98-5.53 10-6.77 1.45-.45 2.93-.63 4.44-.37 2.96.53 4.58 2.49 4.52 5.85z"/><path d="m137.33 218.31c-.02-3.57.5-7.03 1.67-10.4.57-1.66 1.39-3.19 2.52-4.53.48-.57 1.03-1.11 1.63-1.54 1.94-1.4 4.16-1.25 5.92.39 1.39 1.29 2.16 2.93 2.61 4.75.76 3.07.27 6.08-.57 9.03-1.38 4.84-3.83 9.17-6.62 13.32-.63.94-1.29 1.85-1.94 2.77-.89 1.25-1.55 1.2-2.68.11-.89-.86-1.19-1.84-1.33-2.99-.2-1.82-.54-3.62-.75-5.44-.2-1.82-.31-3.65-.46-5.47z"/><path d="m234.2 218.47c-.01-3.59.47-7.13 1.67-10.51.74-2.07 1.61-4.12 2.65-6.05 1.55-2.88 3.92-5.02 6.79-6.58.61-.33 1.27-.61 1.94-.82 2.69-.84 4.98.23 6.09 2.85.96 2.29.77 4.6-.05 6.88s-2.08 4.3-3.76 6.06c-3.7 3.87-7.33 7.82-11.74 10.93-.35.25-.6.7-.8 1.11-.26.51-.63.93-1.19.79-.45-.11-.93-.43-1.21-.8-.26-.34-.34-.87-.37-1.33-.06-.84-.02-1.69-.02-2.53z"/><path d="m107.04 283.72c-7.35-.56-13.39-3.52-18.3-8.81-1.59-1.71-2.7-3.72-3.36-5.96-.8-2.73.34-5.21 2.87-6.26 1.22-.51 2.48-.41 3.73-.09 2.41.63 4.5 1.9 6.4 3.45 4.48 3.66 8.21 7.95 10.99 13.06.65 1.19.57 2.33.42 3.53-.07.6-.53.88-1.07.96-.59.08-1.21.09-1.68.12z"/><path d="m158.54 287.68c.18-4.83 1.53-8.87 4.75-12.27 3.44-3.63 7.93-1.49 9.49 1.34 1.41 2.56 1.4 5.2.39 7.88-1.16 3.1-3.19 5.62-5.47 7.94-1.11 1.13-2.42 2.05-3.67 3.04-.32.25-.74.42-1.13.55-1.32.44-2.29.48-2.96-1.31-.9-2.43-1.18-4.92-1.4-7.17z"/></g><path d="m221.92 289.59c-.09-.53-.15-1.06-.28-1.58-1.57-6.29-3.08-12.6-4.74-18.87-3.61-13.63-7.8-27.09-12.27-40.46-.45-1.36-1.14-2.3-2.38-3.1-11.37-7.34-22.69-14.76-34.03-22.16-1.22-.8-2.46-1.57-3.68-2.36-1.09-.71-1.41-1.56-.88-2.31.54-.75 1.4-.77 2.49-.05 11.49 7.5 22.98 15.01 34.47 22.51.42.27.86.52 1.58.95-.16-.71-.21-1.11-.35-1.48-3.03-8.25-5.95-16.54-9.14-24.72-3.48-8.93-7.14-17.79-10.85-26.63-2.31-5.5-4.86-10.9-7.24-16.38-.46-1.07-1.33-1.37-2.25-1.72-6.85-2.62-13.69-5.24-20.54-7.86-.35-.13-.71-.26-1.04-.44-.81-.44-1.11-1.17-.8-1.86.28-.63.94-.88 1.81-.67.27.07.53.18.8.28 5.92 2.26 11.85 4.53 17.77 6.79.5.19 1.03.33 1.54.5.08-.08.15-.16.23-.24-.3-.66-.6-1.32-.91-1.98-6.2-12.98-12.73-25.79-19.98-38.22-.4-.69-.8-1.39-1.13-2.11-.37-.83-.21-1.53.35-1.9.62-.41 1.36-.25 1.92.59.87 1.28 1.67 2.61 2.44 3.96 6.96 12.21 13.4 24.7 19.37 37.43.13.29.33.55.66 1.1.19-.62.33-.98.41-1.35 1.65-7.96 3.3-15.92 4.95-23.88.1-.5.21-1.02.4-1.5.24-.64.75-.95 1.45-.88.6.07 1.01.55 1.03 1.31.02.56-.06 1.13-.17 1.68-1.91 9.3-3.82 18.59-5.76 27.88-.19.91-.14 1.72.26 2.59 7.9 17.22 15.1 34.73 21.72 52.48 1.45 3.87 2.82 7.77 4.23 11.66.22.61.46 1.21.69 1.82.1.01.2.01.3.02.14-.46.3-.92.41-1.39 2.35-10.26 4.7-20.52 7.04-30.78.86-3.76 1.69-7.52 2.55-11.27.16-.68.36-1.36.64-2 .28-.65.87-.83 1.54-.65.63.16.92.63.94 1.25.01.37-.05.75-.14 1.11-2.67 11.63-5.34 23.26-8.01 34.89-.99 4.3-1.93 8.62-2.95 12.91-.3 1.25-.16 2.39.25 3.58 3.99 11.6 7.69 23.29 10.95 35.11 2.23 8.11 4.22 16.28 6.32 24.42.13.52.29 1.03.44 1.55h.3c.15-.42.33-.83.44-1.25 1.72-6.64 3.43-13.29 5.13-19.93.09-.36.17-.74.15-1.11-.23-5.68-.49-11.36-.7-17.04-.13-3.57-.19-7.14-.26-10.71-.12-5.92-.27-11.84-.34-17.76-.08-6.58-.19-13.16-.1-19.74.08-5.63.36-11.27.65-16.9.3-5.91.69-11.81 1.11-17.71.22-3.04.6-6.07.87-9.11.05-.58-.07-1.2-.19-1.78-.23-1.2-.5-2.39-.78-3.57-1.11-4.67-3.29-8.89-5.63-13.03-2.2-3.89-4.46-7.73-6.67-11.62-.46-.81-.85-1.68-1.11-2.57-.11-.36.19-.84.31-1.27.42.12.92.13 1.25.37.4.29.71.75.97 1.19 2.36 3.84 4.81 7.64 7.03 11.56 1.8 3.18 3.33 6.52 4.98 9.79.16.32.32.65.63 1.26.17-.68.32-1.05.36-1.44.37-3.22.7-6.44 1.09-9.66.5-4.1.99-8.21 1.57-12.3.7-4.98 1.49-9.94 2.23-14.92.06-.41.07-.85-.02-1.25-2.28-10.19-6.79-19.38-12.58-27.99-1.07-1.6-2.2-3.16-3.29-4.75-.24-.35-.53-.7-.62-1.09-.08-.37-.07-.97.15-1.14.3-.23.94-.34 1.26-.17.56.29 1.07.77 1.44 1.29 1.89 2.63 3.77 5.28 5.59 7.96 3.71 5.49 6.45 11.45 8.61 17.69.12.33.3.65.58 1.25.18-.62.32-.94.37-1.28 1.33-8.88 3.3-17.64 5.17-26.42.91-4.28 1.05-8.64.29-13.02-1.04-5.94-2.66-11.73-4.1-17.57-.74-3.01-1.48-6.03-2.15-9.05-.17-.76-.16-1.59-.07-2.37.04-.33.43-.75.76-.86.23-.08.74.23.9.5.39.63.75 1.32.93 2.03 1.65 6.37 3.29 12.73 4.88 19.12.51 2.05.86 4.14 1.28 6.21.08.39.2.78.3 1.17.1.01.19.01.29.02.13-.42.29-.83.4-1.26 2-7.73 3.99-15.47 6.01-23.2.46-1.77.96-3.54 1.53-5.28.23-.69.6-1.4 1.09-1.93.69-.73 1.63-.39 1.69.63.05.73-.13 1.49-.32 2.21-.62 2.36-1.33 4.7-1.93 7.07-1.75 6.87-3.47 13.76-5.2 20.64-.55 2.19-1.09 4.37-1.63 6.56-.08.31-.09.63-.17 1.17.37-.26.62-.36.76-.54 5.3-6.77 12.04-11.98 18.72-17.25 2.65-2.1 5.38-4.1 8.11-6.11.59-.44 1.29-.77 1.99-1 .32-.11.94.03 1.1.27.17.25.1.88-.12 1.15-.58.72-1.24 1.41-1.97 1.98-2.39 1.9-4.88 3.68-7.23 5.63-4.1 3.38-8.2 6.76-12.15 10.3-4.15 3.71-7.56 8.11-10.68 12.7-.51.75-.77 1.71-.96 2.62-1.49 7.37-2.95 14.74-4.4 22.11-.31 1.57-.53 3.15-.77 4.73-.05.31-.01.63-.01 1.06.28-.11.47-.13.6-.24 3.92-3.27 8.41-5.67 12.8-8.21 1.14-.66 2.28-1.32 3.42-1.96.41-.23.82-.46 1.26-.62.74-.27 1.38-.12 1.63.38.34.66.03 1.2-.45 1.62-.38.34-.84.6-1.27.87-3.93 2.41-7.87 4.78-11.78 7.22-2.32 1.45-4.45 3.15-6.21 5.27-.68.81-1.13 1.68-1.28 2.76-.76 5.44-1.6 10.87-2.37 16.32-.57 4.09-1.08 8.2-1.59 12.3-.25 2-.44 4.01-.65 6.02-.02.21.04.43.08.8.36-.22.61-.33.8-.51 4.89-4.44 10.61-7.59 16.45-10.54.96-.49 1.95-.93 2.96-1.32.42-.16.93-.25 1.37-.18.9.13 1.21 1.04.56 1.67-.42.41-1 .68-1.55.95-6.07 3.03-11.88 6.47-17.15 10.78-1.43 1.17-2.65 2.54-3.64 4.09-.32.5-.6 1.1-.66 1.67-.41 4.02-.78 8.04-1.13 12.06-.34 3.93-.69 7.86-.96 11.8-.2 2.95-.3 5.91-.43 8.87-.01.26.04.53.07 1.04.32-.37.53-.53.65-.75 2.91-5.46 6.77-10.14 11.43-14.2 2.05-1.79 4.07-3.63 6.11-5.43.35-.31.74-.59 1.15-.81.47-.25 1.02-.35 1.43.1.45.49.31 1.06-.02 1.56-.23.34-.56.63-.86.93-2.95 2.83-5.95 5.61-8.86 8.48-5.07 5-8.61 11-11.19 17.59-.17.42-.22.91-.24 1.37-.32 9.44-.28 18.89-.02 28.34.03 1.13.01 2.26.02 3.38 0 .26.07.52.14 1.03.36-.42.58-.62.74-.87 3.67-5.79 7.34-11.59 11.01-17.38.63-.99 1.24-2.01 1.97-2.92.39-.48.97-.88 1.55-1.1s1.08.2.98.82c-.12.72-.38 1.46-.76 2.07-1.52 2.48-3.14 4.91-4.68 7.38-2.55 4.11-5.16 8.19-7.57 12.39-1.14 1.98-1.93 4.17-2.73 6.33-.35.94-.42 2.03-.4 3.04.11 5.54.28 11.08.44 16.63.01.39.09.78.13 1.17.11.01.21.03.32.04.15-.47.32-.93.45-1.4.47-1.77.91-3.55 1.39-5.32.37-1.34 1-1.88 1.85-1.67.88.22 1.17 1 .84 2.33-1.26 4.92-2.45 9.85-3.82 14.73-.6 2.15-.5 4.27-.39 6.42.17 3.33.4 6.66.61 9.98.17 2.58.35 5.15.53 7.73.17 2.39.33 4.78.52 7.17.26 3.23.56 6.46.83 9.68.2 2.29.38 4.59.57 6.88.21 2.53.45 5.05.63 7.58.28 3.89.5 7.78.79 11.67.28 3.7.58 7.4.92 11.09.37 3.97.73 7.95 1.21 11.91.43 3.59.99 7.16 1.52 10.74.51 3.49 1.04 6.97 1.56 10.45.03.19.04.37.04.56-.01.87-.35 1.36-1 1.49-.7.14-1.34-.23-1.52-1.11-.43-2.07-.79-4.15-1.11-6.24-.68-4.51-1.4-9.01-1.94-13.53-.64-5.27-1.14-10.55-1.64-15.83-.37-3.93-.65-7.86-.94-11.8-.29-3.98-.53-7.97-.83-11.95-.24-3.23-.56-6.46-.83-9.68-.32-3.74-.62-7.49-.93-11.23-.31-3.84-.62-7.68-.91-11.52-.18-2.29-.32-4.59-.48-6.89-.02-.26-.07-.52-.11-.79-.1-.02-.19-.04-.29-.06-.16.5-.35.99-.48 1.49-1.36 5.23-2.74 10.45-4.06 15.69-.15.61-.18 1.32-.05 1.93 1.6 7.64 2.97 15.31 4.01 23.04 1.09 8.16 1.81 16.35 1.51 24.59-.1 2.76-.56 5.51-.84 8.27-.06.6-.09 1.21-.06 1.81.05 1.07-.29 1.72-1.07 1.87-.77.15-1.76-.38-1.95-1.27-.35-1.64-1.26-3.03-1.84-4.56-1.46-3.79-3.78-7.02-6.37-10.08-1.49-1.76-3.03-3.47-4.55-5.2-2.68-3.06-5.86-5.56-9.14-7.93-3.39-2.44-6.82-4.84-10.2-7.3-1.52-1.1-2.97-2.3-4.45-3.46-.92-.72-1.84-1.46-2.76-2.19-.79-.62-1.04-1.31-.67-1.92.35-.58 1.19-.77 2.02-.32.74.4 1.42.92 2.09 1.42 2.56 1.91 5.09 3.86 7.65 5.76 4.11 3.05 8.25 6.08 12.37 9.12.08.06.15.11.22.18 5.37 4.83 10.12 10.2 14.09 16.24.59.9 1.01 1.91 1.51 2.87.15.28.32.54.59.99.15-.43.29-.66.32-.91.41-4.64.39-9.27.11-13.93-.71-12.09-2.77-23.97-5.14-35.81-.34-1.72-1.1-2.8-2.54-3.75-14.35-9.48-28.65-19.03-42.97-28.56-.35-.23-.71-.46-1.04-.72-.83-.66-1.03-1.41-.57-2.06.45-.64 1.21-.72 2.14-.2.37.21.72.45 1.07.69 13.4 8.97 26.79 17.93 40.19 26.9.61.41 1.24.78 1.86 1.17.13-.1.22-.15.31-.21z" fill="#75544d"/><path d="m316.71 282.79c.46-1.45.86-2.59 1.19-3.74 3.14-10.94 6.96-21.65 11.4-32.13.68-1.61.66-3.32.76-4.98.25-4.22.38-8.45.36-12.68-.01-3-.3-6-.53-9-.24-3.14-.55-6.27-.84-9.4-.11-1.17-.26-2.33-.4-3.5-.03-.23-.07-.47-.09-.7-.05-.94.19-1.47.76-1.65.64-.2 1.48.21 1.76 1.06.29.88.48 1.82.56 2.75.48 5.19 1.02 10.38 1.33 15.58.22 3.7.1 7.42.14 11.13v1.48c.1.03.21.06.31.09.18-.28.41-.55.55-.85 5.61-12.41 12.53-24.09 19.75-35.61 1.27-2.03 2.52-4.09 4.01-5.97 2.27-2.87 3.41-6.17 3.95-9.67.51-3.29.76-6.62 1.09-9.94.16-1.63.27-3.28.35-4.92.14-2.96.24-5.91.35-8.87.03-.9.15-1.76.91-2.42.89.23 1.14.91 1.27 1.58.18.97.35 1.96.32 2.93-.13 3.9-.29 7.79-.53 11.68-.16 2.72-.47 5.43-.7 8.14-.03.36 0 .72 0 1.37.45-.44.73-.66.94-.93 7.38-9.81 15.27-19.2 23.15-28.6.65-.77 1.15-1.72 1.51-2.66 1.26-3.29 2.44-6.62 2.84-10.15.26-2.33.45-4.68.57-7.02.24-4.6.46-9.19.61-13.79.05-1.5-.16-3-.18-4.5-.01-.55.1-1.13.3-1.64.24-.63.76-.69 1.2-.18.27.31.5.71.59 1.1.19.91.4 1.85.4 2.78 0 4.98.06 9.97-.12 14.94-.16 4.26-.3 8.55-1.39 12.72-.06.22-.07.44.12.82.37-.38.76-.75 1.12-1.14 3.28-3.63 6.53-7.27 9.83-10.88.85-.93 1.79-1.8 2.75-2.63.44-.38 1-.61 1.51-.91.09.06.19.13.28.19-.1.47-.09 1-.33 1.39-.64 1.09-1.29 2.2-2.11 3.15-3.45 3.98-6.97 7.89-10.45 11.84-.77.87-1.5 1.77-2.38 2.81.4.08.57.15.72.13 6.38-1.12 12.82-.98 19.26-.96 2.35.01 4.7.06 7.04.16.74.03 1.5.21 2.19.47.31.12.64.58.67.92.03.26-.35.71-.64.81-.61.2-1.28.31-1.92.31-3.38-.01-6.77-.13-10.15-.08-5.31.08-10.62.18-15.87 1.05-.14.02-.28.03-.42.06-3.84.63-3.9.59-6.32 3.58-7.12 8.81-14.19 17.66-21.27 26.5-.34.43-.63.89-1.1 1.56.6-.08.92-.08 1.21-.17 4.5-1.46 9.17-2 13.81-2.76 2.04-.34 4.08-.64 6.13-.9.59-.08 1.24-.07 1.79.11.96.31 1.09 1.44.21 1.96-.55.32-1.22.48-1.86.59-4.95.85-9.92 1.64-14.87 2.51-3.26.57-6.35 1.7-9.33 3.12-.56.27-1.04.8-1.42 1.31-4.48 6.11-8.66 12.41-12.43 18.98-3.74 6.52-7.39 13.09-10.97 19.71-1.49 2.76-2.7 5.69-4.02 8.54-.09.2-.13.43-.24.81.28-.07.48-.06.59-.15 6.29-4.71 13.35-8.03 20.37-11.44.63-.31 1.25-.65 1.91-.91.43-.17.89-.29 1.35-.34.48-.05 1.03.08 1.13.62.07.42.01 1-.24 1.29-.38.45-.94.76-1.48 1.04-3.89 1.99-7.8 3.93-11.69 5.93-4.53 2.33-8.73 5.16-12.74 8.3-1.28 1-2.25 2.19-2.89 3.73-4.3 10.23-8.08 20.65-11.17 31.32-1.67 5.77-3.26 11.57-4.81 17.38-.61 2.31-1.01 4.68-1.5 7.03-.09.43-.11.88-.19 1.61.45-.38.68-.53.85-.72 3.58-4.28 7.84-7.84 12.23-11.23 3.31-2.55 6.68-5.02 10.05-7.5.6-.44 1.27-.8 1.96-1.08.48-.19 1.13-.17 1.33.42.12.37.02.94-.21 1.27-.3.45-.79.8-1.24 1.12-5.77 4.14-11.33 8.55-16.63 13.27-3.62 3.23-6.98 6.72-9.21 11.12-.35.69-.62 1.47-.74 2.24-.98 6.33-1.22 12.71-1.15 19.11.01.52.01 1.04-.08 1.54-.13.69-.67 1.12-1.28 1.1-.67-.03-1.02-.44-1.14-1.05-.09-.46-.16-.93-.18-1.39-.15-4.42 0-8.83.37-13.24.72-8.69 2.46-17.2 4.34-25.69.63-2.86.53-5.79.41-8.71-.15-3.9-1.49-7.54-2.55-11.24-.92-3.21-1.93-6.39-2.87-9.59-.17-.57-.27-1.2-.22-1.79.03-.35.34-.87.62-.96.38-.11 1.01-.01 1.26.26.43.46.75 1.08.94 1.69 1.1 3.5 2.18 7 3.2 10.52.68 2.34 1.25 4.72 1.88 7.08.08.3.2.6.43 1.25z" fill="#75544d"/><path d="m295.39 187.02c.24-.33.5-.65.72-1 7.33-11.62 15.47-22.66 24.08-33.36 2.47-3.08 4.89-6.19 7.36-9.28.41-.51.88-.99 1.39-1.38.48-.37 1.07-.37 1.56.06.52.45.46 1 .16 1.53-.18.33-.41.63-.64.93-6.18 7.99-12.44 15.93-18.54 23.98-5 6.6-9.54 13.51-13.94 20.52-.22.35-.39.72-.66 1.21.75.02 1.17-.38 1.62-.65 6.24-3.76 12.47-7.53 18.7-11.3 1.13-.68 2.24-1.38 3.38-2.04.36-.21.75-.41 1.15-.49.6-.12 1.13.08 1.42.66.28.56.22 1.12-.22 1.57-.29.3-.66.52-1.02.74-8.72 5.28-17.43 10.58-26.18 15.82-1.54.92-2.66 2.06-3.52 3.67-6.39 11.91-11.93 24.19-16.56 36.88-2.29 6.26-4.17 12.67-6.23 19.01-.14.43-.21.88-.33 1.38.71.12.96-.35 1.27-.65 4.83-4.53 9.65-9.08 14.48-13.62 1.95-1.84 3.89-3.69 5.84-5.52.31-.29.62-.59.97-.8.65-.4 1.38-.31 1.79.2.44.54.39 1.14.06 1.71-.16.28-.42.5-.66.73-8.21 7.73-16.42 15.47-24.65 23.18-.58.54-.95 1.13-1.14 1.88-2.12 8.39-3.91 16.83-5 25.42-.66 5.17-1.17 10.35-1.44 15.56-.36 6.81-.61 13.61-.54 20.43 0 .46.04.92.06 1.38.7.15.9-.37 1.18-.69 3.83-4.39 7.66-8.78 11.48-13.19 2.19-2.52 4.36-5.05 6.54-7.58.24-.28.49-.58.78-.8.58-.45 1.33-.44 1.83-.04s.61 1.1.21 1.79c-.23.4-.56.75-.86 1.11-6.71 7.74-13.42 15.48-20.16 23.2-.74.85-1 1.69-.94 2.8.23 4.22.32 8.45.58 12.67.15 2.39.54 4.76.82 7.13.06.51.16 1.03.13 1.54-.03.62-.39 1.06-1.05 1.14-.63.08-1.12-.17-1.36-.77-.16-.39-.26-.81-.33-1.22-.79-4.17-1-8.39-1.22-12.61-.15-2.86-.21-5.73-.39-8.59-.04-.62-.35-1.26-.66-1.82-4.6-8.14-9.22-16.28-13.83-24.41-.83-1.47-1.67-2.94-2.5-4.42-.16-.29-.32-.58-.41-.89-.23-.77.02-1.43.58-1.71.59-.29 1.29-.14 1.76.45.32.4.57.86.82 1.31 4.12 7.28 8.24 14.56 12.36 21.84.46.81.95 1.6 1.55 2.62.17-.49.3-.71.31-.94.04-.47.02-.94.02-1.41-.05-7.19.08-14.38.7-21.54.44-5 .8-10.02 1.55-14.98.89-5.85 2.13-11.64 3.29-17.45.47-2.35 1.14-4.65 1.68-6.99.14-.63.23-1.3.15-1.94-.48-4.25-1-8.49-1.52-12.73-.77-6.2-1.55-12.4-2.32-18.59-.25-2-.51-4.01-.76-6.01-.04-.33-.08-.66-.06-.98.06-.93.59-1.49 1.37-1.48s1.38.57 1.47 1.42c.21 1.96.37 3.92.61 5.88.52 4.29 1.09 8.57 1.62 12.86.41 3.31.8 6.62 1.22 9.93.1.82.26 1.63.39 2.44.12.01.23.02.35.03.19-.5.41-.99.56-1.5 3.51-12.27 8.15-24.12 13.42-35.73 2.47-5.43 5.21-10.73 7.88-16.07.78-1.55 1.51-3.06 1.79-4.83.52-3.2 1.32-6.35 2-9.52 1.65-7.72 3.29-15.44 4.93-23.16.15-.69.27-1.38.41-2.07.05-.23.08-.46.13-.69.32-1.3.97-1.86 1.87-1.64.86.22 1.18.92.91 2.2-.82 3.91-1.67 7.81-2.5 11.71-1.1 5.14-2.2 10.29-3.29 15.44-.08.36-.07.73-.1 1.1.09-.03.18 0 .27.02z" fill="#75544d"/><path d="m154.72 290.29c-.13-.59-.22-1.13-.36-1.66-2.5-9.55-5.58-18.92-8.75-28.27-1.58-4.67-3.17-9.34-4.75-14.02-1.22-3.59-3.33-6.62-5.92-9.33-3-3.14-6.35-5.87-10.18-7.95-2.93-1.59-5.9-3.1-8.84-4.68-.52-.28-1.06-.64-1.42-1.09-.46-.57-.18-1.28.54-1.39.57-.09 1.25-.05 1.77.18 6.58 2.85 12.97 6.02 18.18 11.1.32.31.69.58 1.26.72-.13-.43-.23-.87-.39-1.28-5.64-14.72-12.16-29.03-19.35-43.05-.77-1.51-1.61-2.98-2.26-4.54-1.71-4.06-4.81-7.03-7.83-10.04-4.27-4.25-8.85-8.15-14.11-11.17-4.21-2.42-8.67-4.28-13.24-5.9-.4-.14-.87-.22-1.15-.49-.3-.29-.54-.77-.56-1.18-.02-.53.47-.84.97-.82.74.03 1.51.08 2.21.29 9.52 2.9 17.88 7.79 25.07 14.68.4.38.82.74 1.23 1.1.09-.06.18-.11.28-.17-.19-.44-.36-.88-.58-1.3-3.05-5.83-6.05-11.69-9.19-17.46-3.46-6.36-7.04-12.65-10.6-18.94-.97-1.72-2.11-3.34-3.14-5.02-.41-.67-.83-1.34-.91-2.26.83-.18 1.39.22 1.79.68 1.1 1.28 2.28 2.53 3.14 3.96 3.1 5.16 6.17 10.33 9.07 15.59 4.65 8.43 9.16 16.95 13.74 25.43.19.36.43.69.9.99.04-.39.1-.79.13-1.18.17-2.76.35-5.53.5-8.3.17-3.13.9-6.14 1.98-9.06 1.27-3.44 2.71-6.81 4.09-10.2.19-.47.43-.99.8-1.29.3-.25.91-.42 1.24-.28.34.14.66.68.69 1.08.05.48-.17 1.01-.35 1.48-1.27 3.39-2.59 6.76-3.84 10.15-1.13 3.06-1.75 6.22-2.01 9.48-.28 3.57-.43 7.12-.28 10.7.11 2.6.56 5.05 1.83 7.42 6.26 11.74 12.1 23.69 17.22 35.97 2.06 4.94 4 9.94 6 14.91.2.5.41 1 .62 1.49.09-.02.19-.03.28-.05.04-.25.14-.49.12-.73-.6-6.99.52-13.77 2.42-20.46.42-1.49.81-2.99 1.29-4.47.2-.61.51-1.22.91-1.72.21-.25.8-.42 1.1-.31.3.12.56.6.65.96.08.33-.04.74-.15 1.1-1.28 4.33-2.2 8.74-2.97 13.19-.58 3.35-.77 6.72-.59 10.11.17 3.14.45 6.27.69 9.41.01.09.03.19.02.28-.32 3.21.93 6.07 1.89 9.01 3.18 9.74 6.39 19.46 9.45 29.23 1.4 4.48 2.49 9.06 3.72 13.59.14.52.32 1.04.56 1.82.22-.41.35-.55.37-.71.44-2.58 1.43-4.96 2.6-7.27.97-1.93 1.96-3.86 2.97-5.76.26-.49.62-.94 1.01-1.33.4-.4.99-.51 1.4-.1.29.29.5.81.47 1.21-.03.49-.33.97-.55 1.43-1.23 2.53-2.51 5.05-3.71 7.6-1.11 2.36-1.62 4.9-1.87 7.49-.2 2.15-.29 4.31-.4 6.46-.02.42.03.84.12 1.25 1.33 6.49 2.7 12.97 4 19.46.44 2.21.71 4.45 1.03 6.68.13.89-.23 1.49-.92 1.67-.63.16-1.21-.15-1.54-.92-.2-.47-.31-.98-.4-1.49-1.05-5.73-1.99-11.48-3.15-17.19-.92-4.51-2.09-8.97-3.17-13.44-.42-1.72-1.44-3.15-2.33-4.64-4.03-6.77-9.44-12.39-14.83-18.03-1.07-1.12-2.19-2.2-3.27-3.31-.33-.33-.69-.67-.88-1.08-.15-.34-.21-.91-.02-1.15.19-.25.76-.38 1.12-.32.43.08.88.34 1.21.65 5.32 5.04 10.75 9.99 15.05 15.98.19.27.41.51.63.75.05.03.17.02.43.07z" fill="#75544d"/><path d="m90.12 238.17c.03-.45.08-.9.08-1.35-.01-13.44-.04-26.89-.05-40.33 0-.51.04-1.04.21-1.52.22-.65.77-.93 1.45-.87.64.05 1.04.46 1.18 1.05.11.5.11 1.02.11 1.54 0 14.95.01 29.9-.01 44.84 0 1.14.28 2.07.91 3.01 6.08 9.07 11.52 18.51 16.11 28.43.55 1.19 1.09 2.4 1.64 3.59.19.41.41.8.85 1.14.14-1.57.27-3.13.44-4.7.51-4.84 1.76-9.51 3.44-14.07.16-.44.39-.86.66-1.24.38-.53.9-.85 1.58-.59.53.2.76.83.59 1.57-.08.36-.26.71-.37 1.06-2.14 6.51-3.73 13.11-3.33 20.03.1 1.78.42 3.57.33 5.34-.1 1.97.65 3.66 1.15 5.46 1 3.62 1.97 7.25 2.95 10.87.04.14.07.27.09.41.13.96-.21 1.58-.96 1.78-.8.21-1.51-.22-1.76-1.2-.39-1.5-.67-3.03-1.07-4.53-.55-2.09-1.17-4.16-1.75-6.24-.75-2.66-2.34-4.83-4.25-6.72-3-2.98-6.14-5.82-9.23-8.71-1.65-1.54-3.33-3.04-4.95-4.61-.53-.51-.96-1.15-1.32-1.8-.17-.31-.05-.79-.06-1.19.44-.01.94-.16 1.31 0 .55.23 1.03.64 1.49 1.05 4.05 3.58 8.09 7.17 12.13 10.75.13.12.3.19.68.18-.16-.45-.31-.9-.5-1.34-3.57-8.41-7.82-16.47-12.52-24.29-1.53-2.54-3.16-5.01-4.73-7.52-.34-.54-.71-.95-1.42-1.01-.41-.03-.81-.24-1.19-.4-12.13-5.1-24.25-10.21-36.37-15.32-.74-.31-1.48-.61-2.17-1-.77-.43-1-1.12-.72-1.78.28-.65.97-.98 1.78-.71 1.11.38 2.19.85 3.27 1.31 10.39 4.39 20.78 8.78 31.17 13.16.55.23 1.11.44 1.66.66.08-.07.15-.14.23-.22-.18-.33-.33-.69-.55-1-7.72-10.88-16.27-21.03-26.13-30.05-5.22-4.77-10.75-9.12-16.88-12.66-.94-.54-1.91-1-2.86-1.53-.41-.23-.82-.47-1.15-.79-.39-.39-.54-.97-.19-1.42.25-.32.77-.66 1.13-.63.68.07 1.36.32 1.98.63 3.95 2 7.64 4.44 11.17 7.1 10.16 7.67 18.84 16.83 26.82 26.68 2.34 2.88 4.53 5.88 6.8 8.82.25.32.52.63.78.95.08 0 .2-.04.32-.07z" fill="#75544d"/><path d="m413.25 227.33c.29-.33.61-.65.88-.99 5.93-7.44 12.43-14.35 19.52-20.69 6.22-5.55 12.8-10.62 19.82-15.12.35-.23.72-.46 1.11-.6.74-.27 1.43-.06 1.75.49.33.55.19 1.24-.39 1.77-.24.22-.52.4-.8.57-12.2 7.86-23.11 17.26-32.72 28.13-3.14 3.55-6.03 7.33-9.03 11.01-.25.31-.44.68-.83 1.3.8-.1 1.3-.12 1.77-.22l32.88-7.29c.54-.12 1.11-.2 1.66-.17.61.03 1.06.4 1.16 1.05.1.66-.11 1.23-.74 1.53-.38.18-.79.3-1.2.39-10.32 2.26-20.65 4.5-30.97 6.75-2.2.48-4.39.99-6.6 1.42-.65.13-.96.56-1.26 1.02-1.36 2.09-2.75 4.16-4.04 6.28-5.25 8.62-9.58 17.67-12.7 27.28-1.38 4.25-2.51 8.56-3.28 12.97-.09.5-.23 1.01-.42 1.49-.24.6-.75.84-1.37.76-.64-.09-1.02-.52-1.06-1.14-.03-.51 0-1.04.11-1.53.64-2.98 1.25-5.98 2-8.94.55-2.16.36-4.31.09-6.43-.92-7.31-1.99-14.61-2.92-21.92-.3-2.32-.35-4.68-.47-7.03-.03-.6.03-1.24.21-1.81.11-.34.48-.73.81-.82.22-.06.68.3.84.58.24.43.4.95.46 1.45.23 2 .36 4.02.63 6.02.61 4.47 1.31 8.92 1.95 13.39.3 2.09.55 4.19.83 6.28.05.35.16.68.31 1.3.29-.53.47-.78.58-1.06 4.14-10.92 9.79-21.03 16.45-30.59.55-.79.89-1.61 1.04-2.58 1.55-10.55 3.13-21.1 4.69-31.65.52-3.53 1.03-7.06 1.56-10.59.05-.37.13-.74.25-1.1.27-.78.83-1.15 1.47-1.01.62.13 1.03.7.98 1.51-.05.8-.17 1.59-.28 2.38-.93 6.6-1.86 13.21-2.8 19.81-.71 4.97-1.44 9.95-2.15 14.92-.06.43-.07.87-.1 1.31.11.04.22.08.32.12z" fill="#75544d"/><path d="m445.92 241.07v244.78c-134.86 0-269.63 0-404.4 0-.31-1.11-.45-240.85-.15-244.36.57-.11.94.31 1.34.56 7.34 4.57 14.67 9.15 22 13.73 18.33 11.45 36.66 22.91 55.01 34.34 32.9 20.51 65.8 41 98.7 61.5 3.03 1.89 6.02 3.83 9.02 5.77.63.41 1.18.59 1.95.24.57-.26 1.28-.23 1.93-.27 1.17-.07 2.3-.18 3.41-.71.82-.39 1.81-.47 2.73-.57.79-.09 1.6 0 2.39.01 2.39 0 4.79-.02 7.18.01 1.36.02 2.8-.16 4.05.24 1.94.61 3.85 1.14 5.89 1.1 1.42.97 2.46-.01 3.55-.69 34.41-21.54 68.81-43.1 103.25-64.6 26.86-16.78 53.76-33.49 80.64-50.23.43-.26.88-.49 1.51-.85z" fill="#ffe3c6"/><path d="m223.27 355.31c-.43-.3-.75-.55-1.1-.77-7.2-4.52-14.39-9.06-21.61-13.55-26.26-16.32-52.52-32.64-78.8-48.94-21.56-13.37-43.15-26.7-64.72-40.05-4.55-2.82-9.1-5.65-13.65-8.48-.44-.27-.88-.56-1.24-.92-.71-.72-.83-1.79-.35-2.6.51-.86 1.57-1.29 2.57-.93.57.2 1.1.53 1.61.85 17.85 11.08 35.69 22.16 53.53 33.24 8.98 5.58 17.96 11.17 26.94 16.73 33.11 20.52 66.22 41.03 99.33 61.54 1.04.64 2.04 1.33 3.05 2.03.47.33.92.34 1.46.2 5.57-1.36 11.24-1.72 16.93-1.31 3.27.23 6.53.71 9.79 1.19.84.12 1.35-.25 1.92-.61 2.78-1.75 5.53-3.56 8.32-5.29 30.13-18.72 60.26-37.45 90.41-56.15 27.71-17.19 55.44-34.34 83.16-51.5.48-.3.96-.61 1.47-.83 1.12-.49 2.27-.13 2.83.83.53.9.33 2.03-.54 2.8-.35.31-.76.55-1.16.8-24.95 15.49-49.89 31-74.85 46.47-33.02 20.48-66.06 40.93-99.09 61.4-1.95 1.21-3.83 2.51-5.82 3.82.24.15.38.27.55.33 8.17 2.95 15.75 7.12 23.24 11.43 18.02 10.37 35.31 21.87 52.29 33.84 11.44 8.07 22.81 16.26 34.06 24.59 23.27 17.23 45.98 35.17 68.2 53.74.61.51 1.28.96 1.87 1.49.41.37.8.8 1.06 1.28.44.84.25 1.67-.38 2.34s-1.44.9-2.32.53c-.38-.16-.76-.38-1.08-.64-8.94-7.33-17.81-14.74-26.81-21.99-14.97-12.06-30.25-23.72-45.71-35.15-21.05-15.56-42.42-30.67-64.52-44.71-9.76-6.2-19.62-12.23-29.97-17.41-3.65-1.82-7.42-3.41-11.21-4.93-1.63-.65-3.45-.83-5.19-1.23-.5-.12-1.09-.15-1.45-.45-.79-.64-1.7-.77-2.63-.88-5.33-.66-10.68-.83-16.03-.41-1.31.1-2.63.17-3.92.4-1 .18-1.95.61-2.92.93-.4.13-.79.38-1.19.39-2.97.11-5.69 1.17-8.39 2.25-5.02 2.01-9.82 4.5-14.56 7.11-13.06 7.18-25.62 15.18-38.03 23.44-16.36 10.88-32.38 22.24-48.19 33.9-24.96 18.42-49.4 37.51-73.2 57.41-.54.45-1.03.96-1.57 1.41-.59.49-1.26.84-2.07.7-.85-.15-1.45-.62-1.73-1.46-.3-.91-.03-1.7.6-2.32.6-.59 1.31-1.07 1.96-1.6 7.42-6.08 14.79-12.2 22.25-18.22 14.52-11.72 29.27-23.14 44.22-34.3 21.24-15.85 42.81-31.26 65.08-45.64 10.7-6.91 21.52-13.62 32.81-19.53 4.41-2.31 8.89-4.49 13.58-6.19.3-.1.54-.24.91-.42z" fill="#e7c6a5"/><path d="m245.44 403.48c.58-.58.87-.86 1.15-1.16 3.81-4.01 8.3-6.91 13.74-8.14 3.94-.9 7.88-.75 11.64.75 5.4 2.16 8.5 6.32 9.79 11.9 1.57 6.78.11 12.94-3.88 18.57-2.73 3.85-6.21 6.91-10.1 9.51-3.94 2.64-7.92 5.22-11.87 7.86-3.13 2.09-6.24 4.21-8.81 7-.03.03-.07.06-.1.1-1.32 1.24-1.42 1.29-2.71-.06-3.05-3.19-6.7-5.59-10.35-7.99-4.2-2.77-8.42-5.5-12.5-8.43-4.4-3.16-8.12-7.03-10.37-12.04-3.07-6.82-2.99-13.64.81-20.15 2.41-4.12 6.25-6.4 10.95-7.19 6.45-1.09 12.2.72 17.41 4.43 1.67 1.19 3.12 2.7 4.64 4.09.24.18.34.54.56.95z" fill="#ff7772"/><path d="m218.46 417.38c.09.99-.17 1.86-.76 2.64-.69.91-1.45 1.09-2.44.47-1.31-.81-1.98-2.13-2.42-3.51-.8-2.48-.6-5 .08-7.47.14-.51.48-1.03.87-1.4.98-.94 2.4-.69 3.11.48.14.24.29.5.34.77.42 2.44.82 4.89 1.22 7.34.04.22 0 .46 0 .68z" fill="#f4fafa"/><path d="m220 401.79c-.03 1.14-1.25 2.91-2.31 3.3-.64.24-1.3.25-1.87-.18-.57-.44-.71-1.1-.56-1.77.29-1.29.99-2.32 2.16-2.95 1.34-.73 2.62.1 2.58 1.6z" fill="#f4fafa"/><path d="m199.93 252.63c-.39-.6-.65-.98-.9-1.37-2.59-3.99-4.58-8.2-4.81-13.06-.15-3.16.41-6.18 1.96-8.97.94-1.68 2.21-3.02 3.96-3.89 1.81-.9 3.68-1.05 5.61-.5 2.62.76 4.67 2.36 6.43 4.38 1.56 1.79 2.67 3.86 3.66 6 .21.46.43.93.74 1.59.31-.58.53-.98.74-1.39 1.45-2.91 3.02-5.74 5.21-8.17 1.49-1.65 3.14-3.1 5.1-4.18 4.45-2.44 8.77-1.57 11.92 2.39 1.27 1.59 2.24 3.36 2.89 5.29 1.33 3.93.87 7.73-1.15 11.28-.99 1.74-2.37 3.25-3.59 4.85-.31.4-.69.75-1.19 1.3.61.15 1.07.29 1.54.38 2.85.55 5.52 1.58 7.87 3.29 1.13.82 2.21 1.77 3.09 2.85 2.56 3.14 2.9 6.62 1.26 10.3-.88 1.97-2.26 3.56-3.99 4.85-4.26 3.17-8.98 4.11-14.13 2.79-1.03-.26-2.04-.58-3.2-.9.41 1.98.82 3.8 1.14 5.63.74 4.12.81 8.22-.42 12.28-.56 1.86-1.39 3.59-2.57 5.14-2.74 3.6-6.77 4.74-10.75 2.61-6.48-3.49-10.44-8.87-11.22-16.35-.08-.78-.11-1.56-.17-2.45-.93.19-1.75.37-2.57.52-4 .72-8 1.07-12.03.19-2.66-.58-5.09-1.65-7.16-3.45-5.66-4.92-6.23-14.55 1.34-19.46 2.53-1.64 5.36-2.5 8.29-2.99 1.94-.32 3.91-.46 5.87-.67.32-.05.64-.07 1.23-.11z" fill="#fb816d"/><path d="m254.24 157.32c-.4.47-.67.85-1.01 1.17-1.17 1.08-2.26 2.28-3.56 3.17-3.1 2.11-6.5 2.43-9.93.92-4.66-2.05-7.27-5.63-7.57-10.78-.18-3.07.49-5.97 1.63-8.79.19-.46.37-.93.59-1.52-3.96-.07-7.28-1.52-10.4-3.53-1.51-.97-2.88-2.13-3.9-3.62-2.07-3.02-2.67-6.29-1.42-9.77 1.27-3.55 4.52-5.81 8.29-5.96 2.25-.09 4.38.48 6.52.99 1.46.35 2.91.74 4.37 1.1.26.06.53.07.96.12-.22-.57-.38-1-.55-1.42-1.27-3.08-2.01-6.26-1.84-9.61.18-3.64 1.53-6.77 4.27-9.2 4.64-4.1 11.08-3.05 14.2 2.3 1.58 2.71 2.44 5.69 3.02 8.75.09.49.19.99.3 1.58 1.06-.5 1.98-.96 2.92-1.38 3.4-1.51 6.91-2.45 10.67-2.05 4.8.51 8.95 2.41 12.3 5.92 1.32 1.39 2.27 3.01 2.52 4.94.31 2.38-.58 4.34-2.35 5.89-2.08 1.82-4.49 3.11-7.04 4.07-1.79.68-3.69 1.05-5.54 1.56-.31.09-.63.16-1.11.28.43.52.77.94 1.13 1.36 1.86 2.2 3.5 4.54 4.64 7.2 2.08 4.84 2.13 9.67-.26 14.43-.96 1.92-2.34 3.51-4.05 4.82-2.97 2.28-6.25 2.88-9.84 1.75-2.49-.79-4.73-2.04-6.75-3.7-.38-.3-.73-.6-1.21-.99z" fill="#fb816d"/><path d="m365.38 260.8c.24.36.52.78.81 1.2 1.79 2.63 2.82 5.51 2.89 8.7.14 6.59-4.68 11.82-11.27 12.28-2.88.2-5.47-.63-7.89-2.12-.59-.36-1.17-.75-1.85-1.2-.36.48-.66.89-.97 1.29-3.61 4.6-8.43 7.12-14.11 7.99-3.95.61-6.98-1.04-9.06-4.38-1.9-3.06-2.53-6.43-2.22-10 .04-.42.1-.83.16-1.34-.38-.13-.71-.27-1.06-.35-3.25-.79-5.79-2.61-7.65-5.38-1.41-2.09-2.34-4.4-2.78-6.88-.9-5.07 1.8-9.52 6.78-11.24 2.96-1.02 5.91-.87 8.87-.04.49.14.97.28 1.6.45-.02-.3.01-.48-.05-.62-1.78-4.5-1.01-8.76 1.28-12.85 1.26-2.24 2.89-4.16 5.06-5.59 4.96-3.27 10.6-2.17 13.93 2.72 1.61 2.36 2.59 4.99 3.22 7.76.1.45.22.9.37 1.53.5-.25.9-.44 1.29-.66 2.39-1.34 4.87-2.46 7.61-2.84 9.74-1.35 13.76 7.09 11.88 13.81-.86 3.08-2.85 5.23-5.56 6.8-.4.23-.8.47-1.2.72-.02.03-.02.09-.08.24z" fill="#fb816d"/><path d="m127.79 209.34c-.67.39-1.23.72-1.78 1.04-3.64 2.16-7.58 3.25-11.81 3.2-1.99-.02-3.93-.36-5.69-1.38-1.92-1.1-3.07-2.74-3.34-4.94-.21-1.71.37-3.25 1.27-4.67 1.56-2.47 3.61-4.44 6.12-5.92 1.13-.67 2.32-1.23 3.68-1.95-.45-.39-.85-.75-1.26-1.09-2.32-1.98-4.08-4.35-4.43-7.45-.46-4 .96-7.32 4.23-9.7 2.08-1.51 4.46-1.78 6.83-.76 1.41.61 2.69 1.5 4.02 2.3.44.26.82.61 1.4 1.05.12-.51.23-.89.29-1.26.35-2.11 1-4.11 2.11-5.94 1.11-1.82 2.59-3.22 4.59-4 3-1.17 5.73-.62 8.15 1.43 2.54 2.15 3.74 5 4.08 8.25.09.83.09 1.67.14 2.65.48-.13.88-.22 1.26-.35 1.75-.58 3.55-.95 5.39-.89 5.05.17 8.82 3.61 9.54 8.68.53 3.71-.25 7.13-2.55 10.1-2.94 3.8-6.62 6.63-11.28 8.06-.22.07-.44.15-.79.27.21.59.39 1.15.6 1.7 1.25 3.32 1.83 6.71 1.06 10.22-.71 3.27-2.26 6.06-4.88 8.19-4.32 3.5-10.03 2.63-13.13-1.99-1.69-2.51-2.49-5.36-3.03-8.28-.35-1.89-.46-3.82-.68-5.73-.04-.21-.06-.43-.11-.84z" fill="#fb816d"/><path d="m290.89 191.18c.56-.41 1-.75 1.45-1.07 3.66-2.59 8.41-2.52 11.79.23 2.41 1.96 3.31 4.48 2.59 7.53-.43 1.82-1.35 3.39-2.43 4.89-.54.76-1.1 1.49-1.74 2.35.49.2.87.34 1.24.51 1.1.52 2.28.92 3.28 1.59 3.7 2.47 4.61 6.92 2.12 10.61-2.41 3.58-5.87 5.45-10.17 5.72-1.26.08-2.53.01-3.93.01-.08.58-.17 1.17-.26 1.75-.48 3.38-1.94 6.28-4.5 8.54-3.53 3.12-8.13 2.79-11.27-.74-2.27-2.55-3.15-5.61-3.24-8.95-.03-1.21-.01-2.43-.01-3.81-.5.06-1.04.11-1.57.18-3.03.39-6 .18-8.85-1.01-.69-.29-1.37-.63-1.99-1.05-2.79-1.87-3.74-5.06-2.47-8.17.8-1.96 2.14-3.53 3.74-4.87 2.38-1.98 5.08-3.37 8.14-3.98.27-.05.52-.14.93-.25-.18-.63-.35-1.21-.52-1.78-.98-3.44-1.76-6.91-1.66-10.53.07-2.32.7-4.45 1.93-6.39 2.83-4.47 8.48-5.21 12.41-1.65 1.31 1.19 2.29 2.63 2.94 4.25.65 1.61 1.12 3.28 1.67 4.93.14.35.24.7.38 1.16z" fill="#fb816d"/><path d="m283.3 204.05c-.13-2.33-.25-4.66-.38-6.99-.07-1.22-.19-2.43-.26-3.65-.02-.37-.06-.79.08-1.11.14-.34.48-.6.74-.9.28.28.7.51.82.85.21.56.29 1.19.32 1.79.23 4.12.45 8.25.66 12.37.03.64-.06 1.21-.86 1.4-.26.06-.47.37-.7.58-.56.51-1.12.44-1.5-.2-.09-.16-.14-.35-.21-.52-1.36-3.9-2.71-7.8-4.06-11.7-.14-.4-.34-.82-.32-1.21.02-.36.24-.91.5-.99.29-.09.82.15 1.06.41.3.33.43.82.59 1.26.96 2.65 1.91 5.3 2.87 7.95.09.25.21.5.32.74.1-.05.21-.07.33-.08z" fill="#75544d"/><path d="m222.07 282.18c-1.21-.36-1.4-1.33-1.64-2.22-.83-3.08-1.61-6.18-2.41-9.27-.17-.66-.35-1.31-.75-1.97-.16.58-.34 1.15-.48 1.73-.64 2.65-1.26 5.3-1.9 7.94-.1.41-.19.86-.43 1.17-.19.25-.66.47-.93.4-.27-.06-.53-.47-.63-.79-.09-.28.01-.65.08-.96.87-3.65 1.74-7.3 2.64-10.95.25-1.02.4-1.1 1.44-1.1.18 0 .37-.01.55-.03 1.06-.09 1.18-.03 1.48 1 .22.77.4 1.54.6 2.32.87 3.36 1.74 6.72 2.59 10.09.21.86.49 1.74-.21 2.64z" fill="#75544d"/><path d="m279.56 212.78c-.42-.16-.83-.33-1.25-.46-2.46-.78-4.93-1.54-7.38-2.34-.52-.17-1.05-.43-1.45-.8-.48-.44-.27-1.04.37-1.13.5-.07 1.05-.06 1.52.09 2.82.88 5.64 1.78 8.44 2.72 1.03.35 1.1.7.53 1.9.21.14.46.26.63.45.51.55.39 1.19-.33 1.44-.52.18-1.11.31-1.65.27-2.67-.19-5.33-.39-7.99-.7-.64-.08-1.32-.5-1.81-.94-.54-.48-.26-1.11.47-1.17.41-.03.83.11 1.25.15 2.61.28 5.22.56 7.83.82.25.03.51-.04.77-.06.03-.09.04-.16.05-.24z" fill="#75544d"/><path d="m338.39 273.54c-.49.56-.75.87-1.02 1.17-1.68 1.84-3.34 3.69-5.07 5.49-.44.46-1.05.8-1.64 1.04-.61.25-1.04-.19-.83-.82.15-.43.42-.85.75-1.16 2.79-2.68 5.32-5.57 7.57-8.72.59-.83.85-.84 1.93-.37.84.36.96.56.76 1.53-.46 2.21-.91 4.42-1.45 6.61-.15.61-.49 1.22-.91 1.69-.44.5-1.02.28-1.1-.39-.06-.5.02-1.03.12-1.53.23-1.15.5-2.29.75-3.44.07-.26.08-.51.14-1.1z" fill="#75544d"/><path d="m349.51 269.34c1.32 1.37 2.52 2.6 3.71 3.84.29.3.64.6.8.96.13.29.13.8-.05 1.01s-.68.27-.99.2c-.33-.08-.64-.37-.9-.63-1.85-1.86-3.69-3.73-5.5-5.63-.24-.26-.44-.81-.32-1.09.11-.28.63-.54.99-.55 3.04-.14 6.08-.26 9.12-.3.78-.01 1.59.15 2.33.41.34.12.75.66.76 1.01.01.56-.6.66-1.07.65-1.68-.05-3.36-.16-5.05-.19-.93-.02-1.87.05-2.81.1-.28.01-.54.1-1.02.21z" fill="#75544d"/><path d="m138.64 204.92c-.22 1.72-.38 3.12-.58 4.51-.15 1.02-.34 2.04-.54 3.05-.07.36-.16.79-.4 1.03-.29.31-.77.68-1.12.63-.64-.09-.62-.72-.53-1.25.36-2.22.74-4.44 1.09-6.67.12-.74.1-1.5.25-2.24.19-.88.58-1.04 1.43-.71.17.07.37.28.49.23 1.18-.48 1.62.42 2.1 1.14 1.19 1.8 2.35 3.62 3.48 5.46.26.43.42.95.48 1.45.03.25-.19.68-.41.79s-.68.01-.88-.17c-.34-.3-.58-.72-.83-1.12-1.08-1.71-2.14-3.42-3.22-5.13-.16-.24-.39-.47-.81-1z" fill="#75544d"/><path d="m227.59 234.88c.59.49.37 1.1.21 1.68-.56 1.89-1.16 3.76-1.7 5.66-1.07 3.79-2.1 7.59-3.15 11.39-.15.54-.31 1.08-.51 1.61-.17.45-.57.71-1.01.5-.27-.14-.52-.53-.58-.84-.06-.4.03-.84.15-1.24 1.54-5.41 3.1-10.82 4.67-16.22.16-.54.38-1.06.65-1.55.26-.52.57-1.02 1.27-.99z" fill="#75544d"/><path d="m129.25 201.82c-2 0-3.86.02-5.72-.01-.56-.01-1.12-.1-1.67-.2-.51-.09-.9-.38-.85-.95.05-.56.51-.74 1-.81.23-.03.47-.01.7-.01 2.16-.01 4.31-.01 6.47-.05.99-.02 1.18.05 1.28.99.04.42.25.51.52.7.78.55.81 1.18-.01 1.63-2.49 1.36-4.63 3.18-6.8 4.98-.79.66-1.54.74-1.89.33-.34-.41-.15-1.1.7-1.79 1.71-1.39 3.47-2.71 5.22-4.06.31-.23.64-.46 1.05-.75z" fill="#75544d"/><path d="m295.15 214.08c1.72.43 3.44.85 5.15 1.31.53.14 1.08.32 1.55.6.21.13.38.59.32.83-.06.23-.43.49-.7.53-.45.07-.95.06-1.39-.06-2.49-.67-4.97-1.37-7.44-2.1-.84-.25-1.14-.73-1.17-1.53-.03-.87.62-1.07 1.26-1.27 2.28-.73 4.55-1.46 6.83-2.18.31-.1.65-.24.95-.19.37.06.71.3 1.06.47-.18.36-.26.84-.55 1.05-.48.35-1.08.56-1.65.76-1.41.5-2.83.95-4.25 1.42.02.12.03.24.03.36z" fill="#75544d"/><path d="m245.41 117.29c.47.51.83.84 1.12 1.23.16.22.26.5.32.78 1 4.58 1.99 9.17 2.97 13.75.07.31.1.7-.03.96-.14.29-.45.61-.75.7-.47.14-.78-.2-.92-.65-.04-.13-.05-.28-.08-.41-.94-4.36-1.89-8.71-2.82-13.07-.21-1-.54-2 .19-3.29z" fill="#75544d"/><path d="m256.37 135.5c-.21.25-.42.5-.62.75-.37.45-.84.68-1.35.33-.54-.36-.37-.9-.15-1.39.06-.13.12-.25.19-.38 1.96-3.49 4.14-6.82 6.79-9.83.4-.45.86-.87 1.35-1.23.41-.3.96-.61 1.39-.1.4.48.07.98-.25 1.4-.25.34-.55.64-.84.95-2.37 2.63-4.31 5.56-6.14 8.58-.17.27-.25.6-.37.9.01 0 0 .02 0 .02z" fill="#75544d"/><path d="m339.72 256.97c-.24.26-.47.73-.81.85-.51.18-.86-.23-1.03-.72-.53-1.45-1.03-2.92-1.6-4.35-.98-2.48-2.01-4.95-3.02-7.42-.11-.26-.28-.53-.28-.79.01-.38.04-.9.28-1.11.43-.37.91-.05 1.2.33.31.4.57.86.77 1.33.69 1.64 1.37 3.29 2.02 4.94.67 1.7 1.32 3.41 1.95 5.12.2.53.32 1.08.52 1.82z" fill="#75544d"/><path d="m263.66 156.46c-.95-.1-1.29-.68-1.59-1.26-1.96-3.73-3.91-7.47-5.85-11.22-.13-.25-.29-.53-.27-.78.02-.29.16-.72.37-.81.28-.12.71-.06 1.02.07.22.09.38.4.51.65 1.89 3.56 3.78 7.12 5.63 10.7.29.57.4 1.24.51 1.88.03.21-.2.48-.33.77z" fill="#75544d"/><path d="m136.74 186.18c.07 1.92.14 3.84.21 5.76.01.23.05.5-.04.69-.1.23-.31.54-.51.58-.27.05-.66-.06-.86-.25-.21-.2-.34-.56-.38-.87-.12-.88-.23-1.77-.24-2.66-.04-3.24-.03-6.47-.03-9.71 0-.33-.04-.68.06-.98.09-.28.35-.72.52-.71.31.01.78.23.88.48.24.59.4 1.25.42 1.89.05 1.92.02 3.84.02 5.77-.02.01-.03.01-.05.01z" fill="#75544d"/><path d="m320.67 257.83c.33.09.47.11.61.16 3.7 1.34 7.39 2.69 11.08 4.05.35.13.73.29.96.56.21.24.41.77.29.96-.18.28-.63.45-1 .53-.24.05-.53-.15-.79-.24-3.35-1.21-6.7-2.41-10.04-3.63-.56-.21-1.15-.45-1.6-.82-.24-.2-.34-.77-.24-1.1.07-.26.56-.37.73-.47z" fill="#75544d"/><path d="m212.74 253.51c-.27.35-.45.81-.7.85-.33.05-.87-.12-1.05-.38-.59-.84-1.02-1.79-1.57-2.66-1.51-2.43-3.06-4.83-4.56-7.26-.29-.46-.51-1.02-.58-1.55-.09-.71.5-1.05 1.1-.66.38.24.7.62.94 1.01 1.74 2.72 3.47 5.45 5.17 8.21.48.74.82 1.56 1.25 2.44z" fill="#75544d"/><path d="m232.04 243.35c.24 1.05-.29 1.61-.71 2.21-1.72 2.46-3.47 4.89-5.18 7.36-.48.69-.87 1.45-1.25 2.19-.22.42-.51.7-.99.61-.55-.11-.78-.55-.71-1.05.07-.45.2-.94.46-1.31 1.93-2.88 3.88-5.75 5.87-8.59.56-.8 1.3-1.44 2.51-1.42z" fill="#75544d"/><path d="m362.22 257.13c-.3.42-.48.83-.8 1.06-.48.36-1.03.66-1.59.88-3.28 1.26-6.57 2.49-9.85 3.73-.13.05-.29.15-.4.12-.37-.11-.87-.17-1.06-.44-.32-.44-.05-.9.39-1.18.27-.18.57-.32.88-.44 3.49-1.35 6.99-2.7 10.49-4.03.38-.14.82-.21 1.23-.19.21.01.41.27.71.49z" fill="#75544d"/><path d="m208.84 240.47c.16-.23.33-.74.62-.81.29-.08.8.19 1.03.46.29.34.4.83.58 1.27 1.05 2.56 2.07 5.14 3.17 7.68.33.77.84 1.46 1.29 2.18.31.49.42.98-.1 1.37-.45.33-.92.18-1.26-.2-.4-.46-.84-.92-1.08-1.47-1.35-3.1-2.65-6.21-3.95-9.33-.14-.31-.17-.64-.3-1.15z" fill="#75544d"/><path d="m206.02 262.28c.93-.04 1.87-.08 2.8-.13 1-.05 1.5.2 1.53.8.03.56-.35.89-1.27 1-.84.1-1.68.13-2.52.19-2.94.21-5.88.41-8.82.62-.14.01-.28.04-.42.04-.45-.01-1.02.13-1.19-.46-.19-.67.26-1.12.83-1.27.94-.26 1.91-.47 2.88-.55 2.05-.16 4.11-.22 6.17-.32.01.03.01.05.01.08z" fill="#75544d"/><path d="m289.11 206.71c-.86.04-1.24-.39-1.1-.98.05-.22.17-.44.31-.62 2.13-2.79 4.27-5.57 6.88-7.95.44-.4.94-.79 1.49-1.02.31-.13.77.08 1.16.13-.06.39-.1.79-.18 1.17-.03.12-.17.22-.27.31-2.79 2.33-4.97 5.2-7.23 8.01-.35.42-.81.73-1.06.95z" fill="#75544d"/><path d="m224.59 261.63c-.21-.18-.67-.41-.81-.76-.2-.51.17-.89.68-1.03.58-.16 1.18-.3 1.78-.39 2.91-.46 5.82-.93 8.74-1.32.66-.09 1.38.09 2.03.27.2.06.4.51.41.78 0 .19-.32.42-.54.55-.19.12-.44.14-.67.18-3.61.53-7.22 1.05-10.83 1.57-.19.04-.37.08-.79.15z" fill="#75544d"/><path d="m249.69 144c.76-.04 1.14.31 1.1.86-.02.32-.12.66-.28.93-1.76 2.93-3.52 5.86-5.34 8.75-.3.48-.87.84-1.38 1.14-.21.12-.65.03-.88-.13-.14-.1-.13-.52-.07-.76.08-.31.27-.59.44-.87 1.87-3.03 3.74-6.05 5.63-9.07.24-.37.6-.66.78-.85z" fill="#75544d"/><path d="m358.72 250.51c.34 1.26-.24 1.83-.84 2.36-1.4 1.24-2.83 2.46-4.22 3.7-1.15 1.03-2.27 2.1-3.41 3.14-.24.22-.49.46-.78.57-.67.25-1.25-.27-1.08-.97.07-.3.25-.62.48-.83 2.74-2.48 5.49-4.95 8.27-7.38.38-.33.98-.38 1.58-.59z" fill="#75544d"/><path d="m119.89 189.47c.3.08.4.1.48.13 3.39 1.2 6.86 2.22 10 4.03.24.14.57.25.68.46.16.29.3.75.17 1s-.57.4-.9.48c-.19.05-.44-.13-.65-.21-2.99-1.2-5.98-2.41-8.97-3.62-.43-.17-.88-.34-1.26-.59-.41-.27-.74-.72-.42-1.18.2-.29.67-.39.87-.5z" fill="#75544d"/><path d="m210.42 266.62c-.21.18-.47.55-.82.68-3 1.07-5.55 2.93-8.25 4.53-.44.26-.89.54-1.36.73-.44.18-.96.26-1.25-.26-.28-.5.03-.9.37-1.25.13-.13.28-.25.44-.35 2.55-1.5 5.08-3.02 7.66-4.46.67-.37 1.5-.52 2.27-.65.53-.08.88.26.94 1.03z" fill="#75544d"/><path d="m244.9 140.8c-.56-.16-.95-.2-1.27-.37-2.8-1.42-5.6-2.84-8.36-4.34-.5-.27-.9-.81-1.21-1.32-.3-.5.04-.96.63-.88.45.06.92.22 1.31.46 2.89 1.75 5.84 3.41 9.02 4.6.48.18.91.51.72 1.03-.13.34-.58.58-.84.82z" fill="#75544d"/><path d="m252.57 121.32c.87.61.94 1.43.85 2.21-.39 3.3-.85 6.6-1.29 9.9-.02.14-.06.28-.1.41-.17.49-.52.89-1.03.7-.31-.11-.55-.56-.7-.91-.1-.23 0-.55.03-.83.36-2.88.7-5.77 1.11-8.64.15-.98.08-2.09 1.13-2.84z" fill="#75544d"/><path d="m235.79 266.34c-.71.37-1.43.21-2.15.02-2.89-.78-5.79-1.54-8.68-2.32-.27-.07-.6-.09-.79-.26-.21-.19-.43-.55-.4-.8s.33-.63.57-.67c.49-.1 1.04-.11 1.53.01 2.72.68 5.45 1.38 8.14 2.16 1.35.38 1.59.73 1.78 1.86z" fill="#75544d"/><path d="m141.51 181.88c.71.67.48 1.43.31 2.14-.44 1.87-.94 3.72-1.39 5.58-.27 1.09-.49 2.19-.75 3.28-.19.76-.61 1.13-1.11.96-.65-.21-.83-.74-.69-1.35.73-3.1 1.46-6.19 2.25-9.27.15-.61.5-1.22 1.38-1.34z" fill="#75544d"/><path d="m256.37 135.5s.01-.02.01-.02c2.12-2 4.33-3.88 6.87-5.34.56-.32 1.16-.64 1.79-.78.38-.08 1.01.06 1.22.33.34.44-.1.86-.47 1.17-.21.18-.46.32-.71.45-2.46 1.31-4.64 2.99-6.69 4.87-.1.1-.2.19-.3.29-.39.37-.84.69-1.38.38-.52-.3-.55-.82-.34-1.35z" fill="#75544d"/><path d="m236.72 128.94c.51.37.88.57 1.16.86 2.15 2.24 4.55 4.16 7.24 5.73.68.4.9.89.63 1.35-.38.63-.93.49-1.48.28-.17-.07-.35-.14-.51-.24-2.53-1.53-4.88-3.32-6.91-5.47-.38-.4-.56-1.05-.68-1.62-.05-.21.31-.52.55-.89z" fill="#75544d"/><path d="m322.85 267.62c-.35 0-.5.02-.63 0-.54-.07-1.07-.25-1.12-.86-.06-.66.48-.85 1.02-.92 2.18-.31 4.35-.6 6.53-.89.97-.13 1.95-.24 2.92-.36s1.5.11 1.58.7c.08.57-.36.98-1.33 1.14-1.25.2-2.5.36-3.75.53-1.81.22-3.62.45-5.22.66z" fill="#75544d"/><path d="m240.96 150c-.87.01-1.21-.41-.95-1.01.16-.38.42-.74.72-1.02 2.22-2.01 4.47-4 6.71-6 .17-.15.38-.38.57-.38.38 0 .86.02 1.11.25.17.15.08.69-.02 1.01-.08.24-.34.44-.55.62-2.19 1.98-4.38 3.96-6.59 5.92-.33.31-.78.48-1 .61z" fill="#75544d"/><path d="m341.49 246.09c.7.68.74 1.44.74 2.18-.02 2.86-.08 5.72-.13 8.58-.01.27-.05.57-.16.82-.27.57-1.04.63-1.36.07-.18-.31-.3-.71-.29-1.07.02-2.86.07-5.72.14-8.58.02-.75.28-1.44 1.06-2z" fill="#75544d"/><path d="m152.17 196.08c-.38.39-.62.77-.96.95-.48.27-1.04.42-1.57.58-2.51.73-5.03 1.46-7.55 2.13-.29.08-.8-.06-.96-.28-.17-.23-.19-.8-.02-1 .31-.37.78-.69 1.24-.83 2.65-.78 5.31-1.5 7.98-2.22.35-.09.76-.1 1.11-.01.23.08.41.39.73.68z" fill="#75544d"/><path d="m257.65 139.4c.49.12.83.15 1.12.29 2.37 1.12 4.74 2.24 7.1 3.39.37.18.74.48.94.82.19.31.16.76.23 1.15-.35.06-.71.19-1.05.16-.31-.03-.6-.23-.9-.38-2.41-1.16-4.81-2.32-7.22-3.48-.17-.08-.35-.13-.52-.22-.41-.22-.72-.58-.51-1.02.16-.32.57-.51.81-.71z" fill="#75544d"/><path d="m279.76 227.74c.56-2.03 1.1-4.07 1.69-6.09.26-.9.59-1.78.96-2.64.3-.71.83-.97 1.3-.72.57.3.57.81.41 1.34-.79 2.75-1.59 5.49-2.39 8.23-.03.09-.06.18-.1.26-.24.52-.46 1.08-1.15 1.06-.42-.01-.64-.57-.72-1.44z" fill="#75544d"/><path d="m287.64 225.69c-.08.67-.09 1.24-.25 1.77-.08.25-.43.57-.68.59-.23.01-.54-.29-.69-.54-.16-.26-.23-.61-.26-.94-.28-2.6-.54-5.21-.8-7.82-.03-.28-.11-.61.01-.83.16-.3.46-.68.73-.71s.65.27.87.53c.17.19.19.52.22.8.3 2.42.58 4.84.85 7.15z" fill="#75544d"/><path d="m299.3 202.3c.14 1.02-.41 1.56-1.06 1.94-2.25 1.33-4.53 2.61-6.81 3.9-.48.27-1.02.36-1.36-.2-.32-.54-.07-.99.4-1.33.3-.22.64-.39.96-.58 1.97-1.16 3.95-2.32 5.92-3.48.6-.35 1.19-.78 1.95-.25z" fill="#75544d"/><path d="m147.99 190.39c.79-.01 1.16.52.81 1.12-.2.35-.54.65-.89.86-2.04 1.24-4.1 2.45-6.15 3.68-.4.24-.8.3-1.16-.05-.35-.35-.36-.78-.08-1.15.25-.33.53-.68.88-.89 1.89-1.12 3.81-2.22 5.73-3.3.29-.16.63-.2.86-.27z" fill="#75544d"/><path d="m125.12 184.73c.3.26.73.54 1.05.91.99 1.12 1.92 2.3 2.93 3.4.56.61 1.23 1.15 1.88 1.67.45.36.79.73.45 1.29-.32.53-.86.53-1.37.28-.37-.18-.77-.39-1.04-.69-1.46-1.57-2.91-3.16-4.32-4.78-.28-.33-.45-.82-.52-1.26-.07-.49.28-.75.94-.82z" fill="#75544d"/><path d="m341.66 252.44c5.49-.01 9.87 4.31 9.91 9.78.04 5.61-4.55 10.17-10.23 10.16-5.57-.01-10.08-4.37-10.12-9.78-.05-5.57 4.67-10.15 10.44-10.16z" fill="#f4fafa"/><path d="m215.93 268.89c-5.47.01-9.86-4.37-9.84-9.84.01-5.47 4.42-9.9 9.83-9.88 5.4.02 9.81 4.51 9.78 9.95-.03 5.42-4.37 9.76-9.77 9.77z" fill="#f4fafa"/><path d="m126.94 197.44c0-4.61 3.58-8.28 8.03-8.23s8.08 3.79 8.02 8.29c-.05 4.56-3.67 8.24-8.09 8.24-4.45 0-7.97-3.67-7.96-8.3z" fill="#f4fafa"/><path d="m260.22 139.16c.02 4.33-3.44 7.83-7.76 7.83-4.33 0-7.94-3.61-8-8.02-.07-4.39 3.45-8.02 7.76-8.02 4.3.01 7.97 3.78 8 8.21z" fill="#f4fafa"/><path d="m286.26 219.37c-4.3-.01-7.79-3.58-7.79-7.97s3.48-7.96 7.79-7.97c4.32-.01 7.78 3.54 7.77 7.97-.02 4.45-3.45 7.97-7.77 7.97z" fill="#f4fafa"/></g></g></svg>