<svg id="Слой_1" enable-background="new 0 0 500 500" height="512" viewBox="0 0 500 500" width="512" xmlns="http://www.w3.org/2000/svg"><g><path d="m189.78 479.69c-4.1 0-8.04-1.81-10.81-4.96-1.13-1.28-1.85-2.53-2.3-3.36-.86-1.61-1.73-3.22-2.6-4.83-2.32-4.31-4.72-8.77-7.05-13.21-.56-1.08-1.1-2.14-1.62-3.19-2.06 2.17-4.47 3.83-7.19 4.94-2.36.97-4.79 1.46-7.2 1.46-1.47 0-2.92-.18-4.32-.54-1.3 1.34-2.63 2.64-3.99 3.91-3.91 3.63-8.21 6.98-13.16 10.24-2.02 1.33-4.8 2.97-8.36 3.85-1.18.29-2.4.44-3.6.44-.44 0-.88-.02-1.31-.06-1.64-.09-3.28-.51-4.81-1.28-1.29-.6-2.48-1.38-3.53-2.33-2.07-1.69-3.53-4.01-4.16-6.6-.5-1.66-.71-3.42-.62-5.22.03-.66.12-1.32.26-1.97l.02-.11c.06-.31.16-.79.3-1.33.48-1.93.97-3.86 1.46-5.78 1.02-4.01 2.07-8.15 3.02-12.2.63-2.68 1.3-5.46 2.05-8.28-1.6-2.17-2.69-4.67-3.19-7.36-3.02.69-6.19 1.32-9.57 1.9-.29.06-.59.11-.89.15-.31.05-.62.1-.94.15-2.17.35-4.13.45-5.86.54-.62.03-1.2.06-1.7.1-.31.02-.61.03-.92.03-.41 0-.81-.02-1.22-.06l-2.32-.23c-1.75-.17-3.44-.34-5.14-.51l-.36-.04c-.87-.09-1.77-.18-2.74-.3-5.2-.67-9.49-3.79-11.48-8.37-1.98-4.56-1.34-9.79 1.7-14.01 1.29-1.79 2.61-3.52 3.85-5.13-1.63-1.22-3.03-2.72-4.12-4.48-1.34-2.14-2.15-4.54-2.43-7.04-1.59-.29-3.23-.66-4.89-1.14l-.15-.04c-.69-.2-1.74-.5-2.9-1-4.58-1.94-7.75-5.71-8.68-10.32-.47-2.3-.34-4.62.33-6.8-.92.07-1.85.14-2.8.22-2.37.18-4.82.37-7.27.53-1.11.07-2.18.11-3.18.12-1.22.32-2.47.48-3.74.48-3.28 0-6.42-1.05-9.16-3.06-2.34-1.53-4.23-3.67-5.47-6.2-1.16-2.03-1.93-4.21-2.3-6.51-.22-1.37-.37-2.65-.52-3.89l-.04-.34c-.23-1.97-.46-3.93-.69-5.9-.35-2.96-.7-6.01-1.07-9.01-.27-2.27-.57-4.59-.85-6.84-.28-2.27-.58-4.63-.86-6.96-.32-2.64-.63-5.3-.93-7.88-.24-2.06-.48-4.13-.73-6.19-.2-1.7-.41-3.41-.63-5.11-.18-1.47-.36-2.94-.54-4.4-.2-1.67-.4-3.34-.6-5.01-.24-2.05-.48-4.1-.73-6.14-.2-1.64-.41-3.29-.62-4.93-.24-1.92-.49-3.9-.73-5.87-.39-3.25-.78-6.5-1.16-9.76-.34-2.9-.69-5.8-1.03-8.69-.24-2.02-.51-4.12-.83-6.44-.74-5.41.75-10.64 4.18-14.74.11-.13.22-.26.33-.4.8-.97 1.9-2.29 3.39-3.59l.52-.46c2.35-2.05 5.02-4.38 8.16-6.45 2.87-1.89 5.8-3.88 8.63-5.8 2.37-1.61 4.82-3.27 7.27-4.89.66-.44 1.33-.88 2.01-1.31.39-3.29.9-6.63 1.54-9.98 1.77-9.28 4.06-17.68 6.99-25.67 3.72-10.15 8.21-18.68 13.71-26.08 8.51-11.45 19.05-20.73 31.32-27.61 4.72-2.64 9.81-5.37 15.65-7.12 3.23-.97 6.73-1.86 11.02-2.8 4.68-1.03 9.68-1.75 15.76-2.25 3.32-.28 6.65-.42 9.9-.42 3.35 0 6.72.15 10.01.44 6.9.62 13.77 1.81 20.41 3.55 8.94 2.34 17.97 5.85 26.85 10.44 14.73 7.61 27.84 17.06 38.97 28.07.65.65 1.31 1.29 1.97 1.93 1.56 1.52 3.15 3.07 4.72 4.71 2.48-2.62 5.02-5.08 7.5-7.49l.12-.12c6.24-6.06 13.04-11.6 20.33-16.59-2.04-2.4-3.9-4.92-5.53-7.5-.48-.76-1.03-1.56-1.61-2.42-1.04-1.53-2.22-3.26-3.31-5.19-.59-1.04-1.18-2.16-1.8-3.42-.2-.37-.39-.75-.56-1.14-.61-1.27-1.18-2.52-1.74-3.74l-.31-.67c-.98-2.14-1.41-4.17-1.69-5.87-.35-2.08-.32-4.29.09-6.38 1.06-5.41 4.87-9.63 9.93-11.16 1.47-.51 2.98-.77 4.52-.77 1.24 0 2.47.17 3.66.51.59.09 1.15.18 1.67.27l.41.07c2.3.38 4.6.75 6.9 1.13l.83.14c1.05.06 2 .23 2.87.47 3.58.59 6.68 1.1 9.61 1.59.85.05 1.97.18 3.21.54.41.07.81.14 1.22.21l.66.12c.09-.06.18-.12.27-.18 1.7-1.12 3.57-1.96 5.57-2.53-.15-1.4-.27-2.84-.39-4.36-.67-8.8-.37-18.05.95-29.1.14-1.17.28-2.34.41-3.51l.05-.46c.03-.64.11-1.29.23-1.92l.01-.12c.47-3.96.95-8.05 1.43-12.09.21-1.77.56-3.36 1.06-4.86 2.08-6.24 7.59-10.28 14.06-10.28.8 0 1.6.06 2.4.19 2.59.29 4.62 1.18 6.17 2.24 1.5.88 2.9 1.98 4.16 3.27.35.36.7.72 1.06 1.07 1.62 1.63 3.46 3.49 5.17 5.77 2.05 2.73 3.95 5.45 5.67 8.1.21.3.41.61.59.92 4.19 6.61 7.38 13.04 9.77 19.64.24.67.49 1.38.75 2.15.2.51.37 1.02.5 1.54.07.21.13.42.2.64.4-.09.8-.17 1.2-.24 1.05-.18 2.12-.27 3.17-.27 2.14 0 4.2.37 6.12 1.07 1.71-1.65 3.4-3.26 4.83-4.63.93-1.15 1.92-2 2.71-2.58 1.27-1.21 2.54-2.42 3.81-3.62 1.6-1.53 3.21-3.05 4.81-4.58.6-.57 1.19-1.07 1.79-1.51.69-.5 1.4-.94 2.15-1.32 1.91-1.1 4.1-1.7 6.38-1.7 1.03 0 2.05.12 3.1.37 3.95.8 7.39 3.26 9.56 6.86 1.16 1.93 1.84 3.83 2.25 5.08 1.15 3.55 1.78 7.34 1.92 11.58.13 3.94.01 7.8-.37 11.57l.14-.22c.99-1.55 2.02-3.16 3.07-4.76.62-.94 1.37-2.02 2.38-3.1 1.34-1.6 3.3-3.15 6.17-4.09 1.57-.56 3.2-.84 4.86-.84 4.91 0 9.5 2.51 12.28 6.72 1.07 1.63 1.89 3.41 2.55 5.61 1.98 6.54 2.97 13.59 3.09 22.16v.22c0 1.17-.03 2.34-.08 3.5 4.3-2.14 8.91-3.89 13.71-5.2.19-.05.38-.1.57-.16 1.3-.52 2.46-.75 3.29-.89 3.24-.87 6.51-1.74 9.67-2.58 1.69-.45 3.38-.9 5.07-1.35.82-.22 1.54-.37 2.28-.47.72-.1 1.46-.16 2.18-.16.71 0 1.4.05 2.09.15 2.35.2 4.66 1.09 6.62 2.66l1 .8c2.01 1.62 3.44 3.81 4.12 6.26.11.33.22.66.31.99 1.1 4.01.44 7.43.08 9.27l-.01.04c-.66 3.41-1.77 6.3-2.75 8.85-.2.53-.41 1.06-.61 1.6-3.18 8.56-8.38 16.11-15.5 22.5-.66 1.82-1.59 3.57-2.77 5.18 1.94 1.62 3.53 3.51 4.74 5.67 2.27 4 2.99 8.54 2.04 12.79-.97 4.31-3.61 8.14-7.45 10.76-.23.16-.47.31-.7.46 1.15 2.17 2.22 4.45 3.19 6.86.09.2.17.4.24.61.79 1.99 1.53 4.08 2.19 6.21.58 1.87 1.02 3.69 1.41 5.3.13.54.26 1.07.39 1.61.26 1.03.36 1.9.42 2.55.05.47.08.93.07 1.4-.01 1.31-.16 2.59-.45 3.81.42 1.96.58 4 .46 6.09-.21 3.94-.44 7.9-.61 10.91-.23 3.94-.46 7.89-.69 11.83-.16 2.7-.32 5.41-.48 8.11-.18 3.14-.37 6.27-.55 9.41l-.23 3.87c0 .25-.01.49-.02.74l-.36 6.02c-.28 4.59-.55 9.18-.82 13.77-.24 4.05-.47 8.11-.7 12.16-.12 2.08-.24 4.16-.35 6.24-.04.69-.08 1.37-.12 2.06-.1 1.83-.21 3.73-.33 5.63-.44 6.66-3.49 12.29-8.8 16.28-7.34 5.52-15.32 10.84-23.73 15.81-12.38 7.32-26.72 13.01-43.83 17.4-5.74 1.47-12.56 3.1-19.62 4.03-3.11.41-6.18.72-9.17.92l-.19.15c-2.35 1.79-4.74 3.59-7.05 5.34-3.18 2.4-6.47 4.88-9.67 7.34-.47.36-.94.71-1.41 1.07-.16.12-.32.24-.49.36l-.35.26c-.15.11-.3.23-.45.34-4.01 2.96-8.1 5.74-12.06 8.42l-1.12.76c-1.54 1.04-3.18 2.16-4.79 3.28-2.23 1.55-4.46 3.1-6.69 4.66l-1.86 1.3-.24.17c-.38.27-.76.54-1.14.81-1.28.93-2.64 1.86-4.15 2.86l-.05.03c-3.01 2.09-6.03 4.19-9.05 6.28-1.64 1.14-3.29 2.24-4.89 3.31-2.72 1.82-5.28 3.54-7.72 5.34-4.23 3.13-8.51 6.51-12.65 9.78-.91.72-1.82 1.44-2.73 2.15-.85.67-1.71 1.34-2.57 2-2.89 2.25-5.62 4.38-8.09 6.61-2.6 2.35-5.11 4.92-7.77 7.64-.96.99-1.96 2.01-2.97 3.02-2.41 2.42-4.85 4.95-7.21 7.39l-.27.28-.02.02c-.02.03-.04.05-.06.08-.14.2-.28.39-.42.58-2.94 3.99-7.46 6.27-12.4 6.27-.25 0-.5-.01-.75-.02-3.4-.16-5.91-1.28-7.72-2.63-1.23-.8-2.35-1.76-3.33-2.89-1.07-1.22-2.28-2.46-3.56-3.78-.54-.55-1.08-1.11-1.62-1.67-.09-.09-.19-.19-.29-.28-.43-.41-1.02-.98-1.66-1.7-4.03-4.57-8.25-8.82-12.63-12.69-.06 1.31-.14 2.64-.27 4.01-.65 7.3-1.87 13.7-3.72 19.57-.79 2.49-1.64 4.96-2.53 7.33-.68 1.81-1.61 3.6-2.76 5.34-1.32 1.99-3.14 3.74-5.27 5.07-2.2 1.47-4.83 2.23-7.5 2.23z" fill="#fff"/><g><path d="m70.11 352.32c-4.37.06-10.14-.01-15.91.24-6.14.27-12.27.88-18.4 1.27-2.14.14-4.29.12-6.44.11-2.28-.01-3.47-1.48-3.7-3.14-.3-2.12-.46-4.27-.45-6.4 0-.96.57-1.91.87-2.87.16-.51.42-1.02.43-1.54.12-10.77 2.34-21.13 5.78-31.3 2.11-6.24 5.56-11.53 10.47-15.83 4.56-3.99 9.59-7.28 15.47-9.09 3.44-1.06 6.96-1.68 10.52-2.08 5.95-.67 11.91-1.09 17.9-1.01 5.56.08 11.11.35 16.65.91 6.84.68 13.63 1.65 20.34 3.11 6.02 1.3 11.96 2.87 17.54 5.56 1.97.95 3.92 1.97 5.79 3.09 3.61 2.17 7.17 4.43 10.74 6.66.5.31.98.66 1.47.99 2.84 1.92 4.36 4.63 4.7 8 .21 2.09.43 4.19.51 6.3.14 3.63.72 7.2 1.38 10.77 1.57 8.45 2.07 16.98 1.4 25.55-.41 5.27-1.4 10.44-3.29 15.4-.46 1.21-1.1 2.36-1.76 3.48-.57.95-1.39 1.69-2.49 2.05-.08.03-.17.05-.23.1-1.84 1.38-3.66.96-5.6.14-5.97-2.53-11.98-4.97-17.97-7.46-4.28-1.78-8.52-3.64-12.81-5.4-4.77-1.96-9.75-3.21-14.8-4.21-8.16-1.61-16.42-2.37-24.72-2.74-3.99-.17-7.98-.39-13.39-.66z" fill="#e7c7a5"/><path d="m402.86 232.79c0-3.39.07-5.75-.02-8.1-.07-1.93-.3-3.86-.52-5.79-.34-3.03-.2-6.06.08-9.08.14-1.43.26-2.85.45-4.27.25-1.88 1.24-3.16 2.91-4.16 2.09-1.25 4.29-1.58 6.63-1.69 4.85-.24 9.7-.12 14.52.41 5.15.56 10.28 1.32 15.38 2.17 5.23.88 10.43 1.95 15.51 3.51 2.65.82 5.27 1.77 7.88 2.71.75.27 1.48.63 2.13 1.08 1.92 1.33 2.36 3.14 1.43 5.29-.14.32-.17.72-.14 1.08.32 4.33.53 8.65-.7 12.91-.68 2.34-1.16 4.75-1.83 7.09-.88 3.06-2.26 5.9-4.02 8.54-.37.56-.52 1.01-.26 1.72.77 2.08-.62 4.16-2.83 4.38-.08.01-.17.03-.25.01-1.69-.39-2.96.44-4.26 1.36-2.64 1.87-5.7 2.69-8.85 3.14-7.26 1.02-14.53.98-21.79-.11-4.21-.63-8.43-1.19-12.52-2.4-1.09-.32-2.17-.68-3.21-1.14-1.61-.71-2.73-1.93-3.33-3.61-.48-1.35-1.07-2.66-1.44-4.04-.34-1.25-.54-2.56-.63-3.85-.17-2.71-.25-5.45-.32-7.16z" fill="#e7c7a5"/><path d="m352.32 89.84c-.01 6.41-1.09 12.35-3.07 18.14-2.05 6-4.73 11.72-8.17 17.05-1 1.55-2.24 2.94-3.38 4.4-.13.16-.28.31-.45.44-.43.34-.92.43-1.42.2-.55-.25-.85-.7-.8-1.31.04-.47.08-.86-.26-1.28-3.2-3.9-5.61-8.29-7.79-12.81-2.59-5.36-4.95-10.79-6.38-16.6-1.32-5.38-2.02-10.84-2.43-16.35-.68-8.95-.16-17.84.89-26.73.71-6.02 1.41-12.05 2.14-18.07.1-.83.26-1.67.52-2.46.52-1.57 1.8-2.2 3.4-1.75 1.17.33 2.15 1.01 2.98 1.85 1.79 1.84 3.68 3.62 5.21 5.66 5.89 7.84 10.95 16.18 14.29 25.46 2.86 7.89 4.57 16.02 4.72 24.16z" fill="#8cb57c"/><path d="m360.44 136.07c-.01.25-.01.54-.05.83-.07.56-.41.92-.94 1.07-.55.15-1.02-.06-1.33-.5-.24-.34-.42-.73-.56-1.12-.86-2.39-1.35-4.86-1.6-7.39-.66-6.59-.6-13.15 1.15-19.57 2.09-7.64 5.66-14.58 10.41-20.92 3.39-4.53 7.28-8.63 11.34-12.55 5.58-5.38 11.21-10.7 16.82-16.05.18-.17.37-.34.58-.49 1.29-.94 2.63-.74 3.46.64.47.78.81 1.67 1.09 2.54.86 2.66 1.23 5.41 1.33 8.2.58 17.78-4.78 33.53-16.24 47.13-5.42 6.44-11.87 11.71-19.39 15.55-1.92.97-3.94 1.71-6.07 2.63z" fill="#8cb57c"/><path d="m115.38 459.58c.05-.25.13-.66.23-1.07 1.51-6.05 3.09-12.08 4.52-18.14 1.88-7.96 3.91-15.89 7.14-23.42 5.71-13.32 14.04-24.61 25.99-33.05 2.5-1.76 5.17-3.16 8.08-4.1 1.4-.45 2.79-.95 4.2-1.39.47-.15.99-.28 1.48-.24 1.12.07 1.76 1.1 1.22 2.08-.61 1.12-.66 2.32-.86 3.52-.87 5.27-1.61 10.57-3.14 15.72-1.63 5.5-3.4 10.94-5.64 16.22-5.67 13.41-13.56 25.29-24.26 35.23-3.58 3.33-7.47 6.29-11.56 8.99-1.41.93-2.88 1.77-4.53 2.18-1.67.4-2.96-.67-2.87-2.53z" fill="#8cb57c"/><path d="m322.27 142.55c-7.03.39-13.92-.45-20.52-2.88-8.09-2.97-14.98-7.79-20.65-14.31-1.77-2.04-3.39-4.19-4.83-6.48-1.51-2.39-3.23-4.64-4.61-7.1-1.47-2.6-2.69-5.33-3.93-8.05-.4-.87-.59-1.85-.75-2.8-.11-.65-.1-1.35.03-2 .25-1.3 1.11-1.97 2.44-1.87 1.26.1 2.5.32 3.75.53 8.19 1.34 16.38 2.65 24.55 4.06 4.93.85 9.6 2.52 13.98 4.97 3.42 1.91 6.36 4.41 9.11 7.15 3.14 3.13 6.12 6.39 8.59 10.09 2.99 4.48 4.22 9.51 4.34 14.83.05 2.21-1 3.27-3.18 3.4-2.76.17-5.54.31-8.32.46z" fill="#8cb57c"/><path d="m87.2 412.54c-2.58-.26-5.01-.5-7.44-.74-.92-.09-1.84-.18-2.76-.3-1.82-.23-2.47-1.58-1.4-3.06 1.55-2.15 3.18-4.25 4.81-6.34 3.8-4.89 7.71-9.7 12.35-13.84 6.9-6.16 14.64-10.97 23.46-13.81 7.36-2.37 14.94-3.84 22.72-3.77 3.15.03 6.29.55 9.43.81 1.49.13 2.57.95 3.56 1.95.51.51.66 1.2.43 1.88-.37 1.07-.74 2.16-1.27 3.15-3.04 5.7-6.94 10.73-11.78 15.04-5.77 5.13-12.3 8.9-19.47 11.74-8.44 3.34-17.2 5.34-26.11 6.78-2.19.34-4.44.35-6.53.51z" fill="#8cb57c"/><path d="m420.85 160.16c-.72 0-1.44.06-2.14-.01-1.68-.18-2.23-1.55-1.23-2.9.25-.33.46-.7.66-1.07 4.05-7.84 8.45-15.43 14.87-21.66 3.51-3.4 6.91-6.9 10.75-9.95 6.46-5.13 13.72-8.67 21.66-10.83 6.17-1.68 12.36-3.31 18.55-4.96.28-.08.57-.14.86-.19 1.35-.19 2.4.5 2.76 1.82.35 1.26.1 2.52-.14 3.75-.57 2.95-1.77 5.7-2.81 8.5-3.21 8.65-8.84 15.45-16.16 20.89-7.43 5.51-15.55 9.75-24.39 12.52-5.03 1.58-10.19 2.64-15.44 3.18-2.6.27-5.18.63-7.77.95-.02 0-.02-.02-.03-.04z" fill="#8cb57c"/><path d="m168.25 412.31c-.01-5.08.93-10.64 2.08-16.17.91-4.39 2.51-8.56 4.01-12.77.36-1 .69-1.99 1.45-2.77.52-.53 1.14-.68 1.72-.43s.86.77.84 1.56c0 .04-.01.09-.02.12-.18.51.08.86.35 1.27 1.31 1.96 2.69 3.88 3.85 5.93 3.84 6.78 7.88 13.45 11.38 20.42 2.53 5.05 4.39 10.3 5.27 15.88.72 4.56.7 9.16.29 13.74-.52 5.76-1.46 11.45-3.2 16.98-.71 2.25-1.48 4.48-2.31 6.69-.38 1.02-.91 2-1.51 2.9-.38.58-.96 1.08-1.55 1.45-.95.59-1.99.38-2.73-.47-.28-.31-.49-.68-.69-1.05-3.21-5.97-6.45-11.93-9.59-17.94-3.61-6.89-6.56-14.05-8.2-21.69-.94-4.3-1.34-8.65-1.44-13.65z" fill="#8cb57c"/><path d="m436.3 103.59c-.04 13.39-3.54 25.6-10.42 36.89-3.06 5.02-6.49 9.74-10.5 14.03-1.32 1.41-2.8 2.68-4.18 4.04-.5.5-.97 1.04-1.39 1.61-.67.9-1.73 1.1-2.64.37-.35-.28-.64-.67-.91-1.04-1.43-1.99-2.35-4.2-2.62-6.63-.38-3.43-.66-6.87-.97-10.31-.06-.63-.07-1.26-.13-1.89-.56-5.32.16-10.49 1.71-15.59 2.02-6.62 5.01-12.78 8.64-18.63 3.5-5.66 7.16-11.22 10.75-16.82 1.27-1.99 2.54-3.98 3.83-5.95.39-.6.8-1.2 1.32-1.69 1.27-1.22 2.93-1.06 3.9.41.48.72.8 1.58 1.05 2.42 1.86 6.17 2.46 12.53 2.56 18.78z" fill="#8cb57c"/><path d="m472.14 208.77c-.01 2.15-1.16 3.14-3.14 2.81-2.12-.35-4.23-.76-6.32-1.23-3.16-.71-6.33-1.4-9.45-2.29-5.05-1.44-9.57-3.93-13.56-7.35-4.56-3.9-8.73-8.17-12.29-13.02-4.4-6-7.21-12.72-9.05-19.88-.16-.62-.32-1.16-.92-1.57-.69-.47-.85-1.23-.59-1.9.25-.64.91-1.09 1.72-1.05.67.04 1.33.22 2 .28 1.8.17 3.61.31 5.41.45 7.38.56 14.32 2.63 20.8 6.17 6.13 3.35 11.03 8.13 15.11 13.75 3.89 5.38 6.58 11.36 8.55 17.66.64 2.05 1.09 4.15 1.61 6.23.08.39.1.77.12.94z" fill="#8cb57c"/><path d="m74.86 373.35c-4.53-.03-9.01-.38-13.38-1.64-.57-.16-1.14-.32-1.68-.55-1.69-.72-1.98-2.07-.7-3.39 1.17-1.21 2.35-2.42 3.6-3.55 2.95-2.7 5.93-5.38 8.92-8.03 5.22-4.61 11.32-7.31 18.15-8.6 7.06-1.33 14.15-2.21 21.34-1.96 5.08.18 10.03 1.14 14.87 2.69.82.26 1.58.58 1.84 1.54.05.2.34.34.53.5.87.7 1.02 1.47.42 2.42-.18.28-.41.54-.64.78-2.45 2.58-5.1 4.91-8.2 6.68-3.7 2.1-7.36 4.27-11.13 6.23-4.6 2.39-9.55 3.77-14.65 4.59-4.57.73-9.15 1.41-13.75 2.01-1.83.25-3.69.2-5.54.28z" fill="#8cb57c"/><path d="m351.94 86.19c.44 1.39.43 1.41-.48 2.11-1.44 1.1-2.89 2.18-4.31 3.32-3.35 2.69-6.03 5.99-8.47 9.49-.45.65-.52 1.2.03 1.81.39.43.43.84.01 1.34-.2.24-.18.69-.17 1.05.09 3.5.26 6.99.29 10.49.03 4.35-.49 8.66-1.22 12.94-.2 1.16-.43 1.31-1.69 1.15.07-.61.13-1.22.23-1.83 1.02-6.09 1.43-12.21 1-18.38-.13-1.85-.22-3.7-.27-5.55-.02-.83-.37-1.41-.93-1.97-2.71-2.73-5.69-5.14-8.78-7.41-2.48-1.82-4.97-3.63-7.49-5.39-.8-.56-1.05-1.21-.93-2.3 6.21 4.12 12.26 8.19 17.77 13.47-.09-1.31-.14-2.31-.23-3.29-.43-4.53-.88-9.05-1.3-13.58-.06-.66-.29-1.19-.71-1.7-1.39-1.67-2.98-3.11-4.8-4.27-3.55-2.27-7.15-4.46-10.73-6.68-.96-.6-.97-.59-.71-1.99 5.59 3.29 11.41 6.07 16.31 10.63.02-.41.08-.68.05-.94-.54-4.05-1.09-8.1-1.62-12.15-.15-1.16-.55-2.21-1.28-3.11-.82-1.02-1.63-2.05-2.53-2.99-2.87-2.97-5.76-5.92-8.69-8.83-.66-.65-.91-1.27-.52-2.21 1.01.49 1.66 1.38 2.46 2.08.82.72 1.6 1.5 2.38 2.26.82.79 1.63 1.59 2.43 2.4.77.78 1.52 1.58 2.27 2.37.74.78 1.48 1.57 2.29 2.31-1.35-9.68-3.94-19.01-7.27-28.19 1.45-.02 1.68.11 2.09 1.27 2.47 7 4.53 14.11 5.89 21.42.2 1.06.41 2.12.61 3.19.09.01.17.03.26.04.46-1.26.89-2.54 1.39-3.79.51-1.29 1.07-2.57 1.64-3.83.56-1.25 1.17-2.48 1.78-3.77 1.04 1.05 1.02 1.04.57 2.13-1.15 2.8-2.29 5.61-3.42 8.43-.19.47-.32.96-.47 1.44-.68 2.24-.88 4.46-.47 6.83.76 4.35 1.23 8.76 1.82 13.14.02.16.06.33.14.75.77-1.06 1.4-1.97 2.07-2.85.69-.9 1.41-1.79 2.16-2.64.78-.88 1.6-1.73 2.45-2.55.82-.79 1.68-1.54 2.53-2.29.85-.74 1.72-1.47 2.59-2.21.77 1.13.75 1.17-.14 2.02-2.13 2.04-4.37 3.98-6.33 6.17-1.71 1.9-3.09 4.1-4.62 6.15-.38.51-.42 1.06-.36 1.67.43 4.4.84 8.8 1.26 13.21.07.78.15 1.57.25 2.59 1.49-1.8 2.73-3.48 4.16-4.99 1.44-1.53 3.03-2.92 4.62-4.3 1.61-1.38 3.33-2.57 5.14-3.69z" fill="#789b6a"/><path d="m96.5 399.97c-2.88-2.61-6.36-3.82-9.48-5.6.58-1.18.65-1.21 1.79-.68 3.25 1.5 6.5 3.02 9.22 5.55 4.3-2.09 8.56-4.15 12.93-6.28-.26-.35-.41-.65-.64-.85-1.32-1.17-2.6-2.41-4.02-3.45-2.17-1.59-4.45-3.05-6.68-4.56-.27-.18-.52-.39-.8-.59.98-.87 1-.9 1.75-.44 3.1 1.88 6.2 3.76 8.95 6.14 1.05.91 2.04 1.88 3.15 2.92 3.47-1.81 7.08-3.69 10.77-5.61-3.84-3.76-7.76-7.25-12.44-9.81.96-.98 1.3-1.04 2.3-.44 2.68 1.61 5.16 3.5 7.45 5.62 1.38 1.28 2.78 2.56 4.17 3.84 3.44-1.62 6.78-3.19 10.2-4.8-.55-.89-1.43-1.32-2.18-1.88-.81-.6-1.66-1.15-2.51-1.71-.81-.53-1.63-1.05-2.46-1.54-.87-.52-1.75-1.01-2.63-1.51-.84-.47-1.68-.92-2.66-1.46 1.11-.52 2-.64 3-.11 3.61 1.93 7.07 4.09 10.25 6.69.67.55 1.18.66 2.01.31 4.46-1.89 8.95-3.7 13.43-5.53.23-.09.47-.16.7-.23.59 1.06.52 1.31-.59 1.78-3.5 1.46-7 2.9-10.5 4.36-1.12.47-2.23.96-3.32 1.44.3 1.5.57 2.9.87 4.29.52 2.42.35 4.86.31 7.3-.02 1.09-.88 1.53-1.87 2.27.74-4.57.46-8.82-.83-13.18-3.08 1.43-6.04 2.8-9.04 4.19.06.83.14 1.57.16 2.32.06 3.5-.69 6.86-1.77 10.16-.39 1.2-.9 2.37-1.26 3.57-.29.97-.88 1.49-2.02 1.62.11-.4.18-.74.29-1.06 1.12-3.22 2.25-6.44 2.85-9.82.33-1.82.52-3.65.27-5.64-.52.13-.99.17-1.38.36-3.45 1.77-6.88 3.56-10.31 5.36-.07.04-.12.12-.22.22.59 4.72-1.03 9.19-1.91 13.75-.18.95-.23.94-1.55 1.12.45-2.39.93-4.72 1.32-7.07.39-2.3 1.01-4.58.62-7.08-.47.18-.82.3-1.14.45-3.64 1.76-7.26 3.55-10.91 5.29-.73.34-1.03.8-1.23 1.57-.53 2.03-1.17 4.04-1.82 6.04-.35 1.08-.79 2.13-1.2 3.19-.44 1.12-.44 1.12-1.87 1.09 1.03-3.45 2.48-6.75 3.4-10.21-.08-.06-.16-.12-.23-.18-.37.17-.74.32-1.1.5-3.3 1.6-6.57 3.25-9.89 4.79-3.1 1.43-6.24 2.74-9.38 4.08-1.07.46-1.17.38-1.69-.93 2.38-1 4.78-1.97 7.14-3.03 2.38-1.07 4.73-2.21 7.08-3.35 2.33-1.15 4.66-2.32 7.15-3.55z" fill="#789b6a"/><path d="m363.87 94c2.74 6.87 5.69 13.54 6.17 20.96.09.03.18.06.27.09.33-.34.73-.62.97-1.01 2.62-4.27 5.21-8.57 7.82-12.85.4-.65.48-1.3.39-2.05-.33-2.77-.96-5.47-1.77-8.14-1.01-3.3-1.94-6.63-2.88-9.95-.3-1.06-.28-1.06.93-1.89 1.69 6.15 3.98 12.07 5.15 18.54.32-.51.54-.81.7-1.13 2.08-4.19 4.13-8.39 6.24-12.56.47-.93.56-1.83.33-2.8-.88-3.56-1.76-7.11-2.66-10.66-.27-1.08-.31-1.07.93-1.89.57 1.88 1.16 3.71 1.67 5.55.51 1.81.95 3.65 1.48 5.73.28-.63.48-1.03.65-1.44 2.27-5.36 3.98-10.92 5.8-16.44.28-.84.52-1.69.81-2.53.34-.96.47-1 1.72-.57-2.25 7.42-4.57 14.83-7.74 22.22 2.04-.94 3.79-1.82 5.61-2.55 1.79-.71 3.63-1.27 5.57-1.93v1.6c-1.15.4-2.26.79-3.38 1.16-2.81.94-5.44 2.27-8.01 3.71-.48.27-.97.71-1.22 1.2-2.32 4.58-4.59 9.19-6.88 13.8-.07.14-.1.31-.18.57 2.69-.49 5.28-1.01 7.88-1.43 2.56-.42 5.15-.69 7.77-.68-.18 1.44-.22 1.49-1.4 1.56-4.73.26-9.36 1.13-13.97 2.13-1 .22-1.68.67-2.22 1.61-1.99 3.47-4.1 6.87-6.16 10.3-.23.39-.46.77-.83 1.39 5.61-1.01 10.99-1.7 16.44-1.53-.18 1.23-.48 1.52-1.68 1.52-4.61-.02-9.16.6-13.68 1.39-.33.06-.66.15-.99.21-.92.17-1.52.68-2.07 1.47-2.71 3.96-5.49 7.88-8.29 11.78-1.5 2.09-3.09 4.1-4.65 6.15-.27.36-.57.7-.88 1.08-.79-1.18-.78-1.4-.05-2.38 3.5-4.75 6.99-9.5 10.51-14.24.6-.81.79-1.57.69-2.64-.53-5.68-1.97-11.1-4.12-16.36-.48-1.17-.84-2.39-1.35-3.54-.45-.93-.31-1.68.56-2.53z" fill="#789b6a"/><path d="m139.4 425.8c-5.5.01-10.66.87-15.83 2.13.17-1.53.18-1.54 1.4-1.86 4.59-1.19 9.26-1.78 14-1.76.88.01 1.36-.26 1.72-1.08 1.45-3.32 2.97-6.6 4.47-9.9.08-.19.14-.38.27-.73-5.74-.01-11.27.89-16.84 1.82.28-1.41.34-1.48 1.54-1.72 4.72-.93 9.47-1.55 14.29-1.62.34 0 .67-.04 1.01-.03.52 0 .84-.21 1.06-.7 1.45-3.17 2.94-6.33 4.49-9.66-5.2-.53-10.22.36-15.35 1.35.46-1.22 1.11-1.83 2.31-2.04 4.58-.81 9.17-1.25 13.87-.85.19-.3.37-.58.53-.86 3.74-7.03 8.39-13.42 13.52-19.48.67-.79.78-.8 1.97-.3-.4.52-.77 1.01-1.15 1.49-4.1 5.14-8.06 10.38-11.32 16.11-.52.91-1.11 1.8-1.52 2.77-.34.82-.8 1.57-1.2 2.34-1.66 3.17-3.12 6.44-4.65 9.67-.03.07 0 .16 0 .31.1.08.21.2.36.27 2.45 1.2 4.29 3.08 5.95 5.18.63.79 1.24 1.59 1.85 2.4.66.89.66.89-.09 2.06-.24-.23-.48-.44-.67-.67-1.13-1.36-2.22-2.76-3.36-4.1-1.3-1.52-2.78-2.81-4.72-3.66-.15.23-.33.45-.44.7-1.6 3.53-3.18 7.06-4.8 10.59-.23.5-.26.91-.04 1.42 1.5 3.39 2.95 6.8 4.46 10.18.38.85.44 1.51-.52 2.16-.69-1.14-1.15-2.39-1.73-3.57-.58-1.17-1.12-2.36-1.66-3.55-.56-1.22-1.12-2.44-1.77-3.87-.27.52-.47.9-.66 1.28-2.14 4.35-4.39 8.63-7.02 12.71-.61.95-1.48 1.84-1.73 2.87-.24 1 .19 2.15.27 3.24.13 1.68.19 3.36.3 5.04.06.87-.28 1.45-1.29 1.8-.2-2.72-.39-5.38-.61-8.33-4.46 5.71-8.74 11.19-13.11 16.78-.49-.34-.84-.57-1.28-.88 4.56-5.94 9.33-11.54 13.59-17.75-3.24-.8-6.38-.44-9.61-.81.1-.44.19-.81.3-1.3 2.13.08 4.18.11 6.24.25 1.12.08 2.25.29 3.35.54.67.15.93-.23 1.19-.66 1.54-2.51 3.13-5 4.58-7.56 1.24-2.2 2.33-4.48 3.47-6.74.2-.39.36-.82.61-1.42z" fill="#789b6a"/><path d="m414.93 102.85c.25-.38.46-.69.73-1.11 3.36 3.5 6.44 7.08 8.11 11.67l.27-.06c.26-.95.55-1.89.78-2.84.5-2.09.97-4.18 1.46-6.27.34-1.47-.05-2.86-.57-4.19-.79-2-1.69-3.95-2.54-5.92-.2-.46-.37-.95-.62-1.38-.48-.84-.28-1.5.55-2.18 1.45 2.69 2.59 5.47 3.95 8.19.39-1.09.45-2.2.56-3.3.38-4.15.72-8.3 1.09-12.45.12-1.4.17-1.43 1.51-1.77-.22 6.09-.75 12.1-1.52 18.4.86-.81 1.52-1.46 2.21-2.07.72-.65 1.46-1.27 2.21-1.89.74-.61 1.51-1.18 2.29-1.79.54 1.33.5 1.37-.43 2.21-1.72 1.54-3.45 3.09-5.12 4.7-1.14 1.09-1.85 2.41-2.16 4.03-.53 2.81-1.29 5.57-1.96 8.36-.06.24-.08.48-.17 1 3.28-2.56 6.79-4.23 10.34-5.91.23 1.39.22 1.43-.74 1.95-1.48.8-2.99 1.56-4.44 2.41-1.27.74-2.5 1.56-3.7 2.41-1.6 1.12-2.67 2.58-3.12 4.56-.43 1.88-1.12 3.7-1.7 5.55-.12.4-.24.79-.44 1.45 1.47-.68 2.73-1.28 4.01-1.84 1.28-.55 2.57-1.05 3.87-1.55 1.33-.52 2.67-1.01 4.03-1.52.13 1.25.01 1.48-.96 1.89-2.87 1.22-5.77 2.36-8.6 3.66-3.17 1.46-3.14 1.52-4.27 4.79-3.2 9.23-6.77 18.33-10.66 27.29-.1.23-.19.47-.3.69-.48 1.01-.65 1.04-1.76.24.18-.43.38-.89.57-1.35 1.92-4.67 3.83-9.35 5.78-14.01.41-.98.23-1.92-.07-2.83-.27-.83-.67-1.63-1.06-2.43-2.2-4.43-5.01-8.48-7.75-12.57-.74-1.11-.74-1.2-.02-2.42 3.89 5.17 7.44 10.5 10.24 16.54.21-.48.34-.73.44-1 1.02-2.81 2.02-5.63 3.06-8.43.28-.75.27-1.45.1-2.22-.43-2.02-1.25-3.87-2.53-5.45-1.74-2.16-3.61-4.23-5.43-6.32-.55-.63-1.15-1.23-1.72-1.85-.71-.77-.7-.78.09-1.92 2.04 2.09 4.11 4.1 6.03 6.26 1.94 2.18 3.62 4.53 4.74 7.51.2-.42.34-.65.42-.89.92-2.89 1.83-5.78 2.76-8.67.37-1.17.34-2.33-.09-3.47-.92-2.46-2.04-4.81-3.68-6.88-1.33-1.64-2.66-3.27-4.07-5.01z" fill="#789b6a"/><path d="m280.32 124.09c3.12-1.06 6.15-2.23 9.26-3.1 3.06-.86 6.2-1.42 9.35-2.13-.17-.13-.36-.29-.56-.41-3.9-2.34-7.8-4.69-11.71-7-.53-.31-1.15-.56-1.75-.66-2.99-.48-5.99-.92-8.99-1.33-1.67-.23-3.35-.36-5.02-.54-.91-.1-.95-.15-1.26-1.41 4.03.24 8.01.55 12.02.97-4.92-3.19-9.06-7.26-13.44-11.1.99-.66 1.56-.65 2.39.07 1.37 1.19 2.72 2.4 4.06 3.61 2.83 2.54 5.84 4.83 9.1 6.79.36.22.72.42 1.27.51-.44-1.01-.9-2.01-1.32-3.03-.42-1.01-.8-2.04-1.18-3.06-.39-1.06-.75-2.13-1.13-3.22 1.26-.16 1.35-.1 1.77.91.87 2.1 1.74 4.2 2.63 6.29.66 1.56 1.58 2.97 2.67 4.27.16.19.35.37.56.49 3.54 2.13 7.08 4.24 10.62 6.36.1.06.23.08.54.18-2.85-5.3-4.36-10.91-6.02-16.52 1.25.01 1.23.01 1.57.96 1.35 3.76 2.69 7.53 4.1 11.27.75 1.98 1.81 3.8 3.12 5.47.3.39.68.77 1.11.99 3.17 1.57 6.36 3.09 9.55 4.62.1.05.23.02.47.04-2.46-6.19-3.63-12.62-5.05-19.07 1.03.07 1.34.58 1.55 1.37 1.2 4.56 2.41 9.12 3.71 13.65.48 1.65 1.24 3.22 1.86 4.83.24.62.67 1.03 1.24 1.37 2.29 1.35 4.6 2.66 6.81 4.11 2.88 1.9 5.68 3.92 8.52 5.89.94.65 1.3 1.5.93 2.71-.18-.09-.38-.14-.51-.26-2.98-2.77-6.38-4.96-9.83-7.07-2.44-1.5-4.93-2.92-7.36-4.43-.61-.37-1.14-.43-1.78-.17-2.25.94-4.5 1.89-6.78 2.77-4.4 1.69-8.83 3.3-13.24 4.99-.79.3-1.38.2-2.04-.53 6.86-3.17 14.04-5.4 20.98-8.51-.26-.21-.42-.4-.63-.5-3.45-1.68-6.88-3.38-10.36-4.98-.59-.27-1.4-.2-2.09-.12-6.02.67-11.79 2.35-17.51 4.26-.2.07-.41.12-.6.21-.71.34-1.21.14-1.6-.81z" fill="#789b6a"/><path d="m129.04 351.32c0 1.38-.05 1.42-1.11 1.44-4.13.08-8.25.19-12.38.25-.98.01-1.49.41-1.88 1.31-.92 2.09-1.21 4.28-1.31 6.52-.03.76-.03 1.52-.08 2.27-.03.47-.11.96-.72 1.03-.45.06-.78-.34-.76-1.09.07-2.98-.02-6 1.27-8.81.1-.22.17-.46.3-.84-.91-.18-1.73.04-2.53.14-2.26.28-4.5.65-6.76.93-.74.09-1.18.44-1.62 1.02-2.75 3.58-3.78 7.75-4.3 12.11-.08.67-.17 1.34-.27 2-.15 1.03-.19 1.05-1.57 1.03.51-5.38 1.03-10.73 4.62-15.51-.8.12-1.25.17-1.69.27-2.58.61-5.15 1.26-7.74 1.83-.76.17-1.21.58-1.5 1.21-.68 1.49-1.49 2.95-1.93 4.52-.8 2.83-1.36 5.73-2.02 8.6-.25 1.11-.24 1.11-1.69 1.13.79-4.95 1.6-9.86 3.97-14.52-.41.07-.65.07-.88.15-2.76.9-5.51 1.83-8.27 2.73-.64.21-1.11.57-1.36 1.21-.08.19-.21.37-.33.53-2.31 3-3.97 6.34-5.14 9.94-.04.12-.12.22-.2.37-.42 0-.85 0-1.42 0 .5-1.92 1.09-3.67 1.91-5.32.81-1.64 1.78-3.19 2.8-4.99-.92.47-1.66.83-2.39 1.22-4.02 2.13-8.03 4.27-12.05 6.41-.98.52-1.03.49-1.62-.78 2.23-1.36 4.58-2.55 6.91-3.78 2.34-1.24 4.67-2.49 7.29-3.89-2.07-.49-3.87-.92-5.69-1.36.72-1.23.88-1.31 2.12-1.05 1.44.3 2.88.61 4.33.89 1.14.21 2.19.07 3.31-.39 2.53-1.03 5.14-1.86 7.72-2.76.55-.19 1.11-.35 1.93-.61-2.66-1.76-5.18-3.33-7.42-5.29 1.07-.91 1.14-.9 2.09-.24 2.08 1.44 4.17 2.86 6.24 4.3.73.51 1.46.66 2.37.42 2.72-.71 5.47-1.32 8.49-2.04-.95-.79-1.74-1.43-2.51-2.08s-1.54-1.31-2.28-1.99c-.76-.7-1.5-1.44-2.3-2.22.96-.52 1.64-.46 2.39.21 1.96 1.72 4 3.36 5.99 5.04.52.44 1.07.57 1.75.47 3.21-.47 6.42-.91 9.63-1.36.2-.03.4-.11.78-.21-2.08-1.98-4.06-3.87-6.16-5.87 1.17-.32 1.95-.22 2.71.52 1.51 1.47 3.12 2.83 4.64 4.29.76.73 1.6.93 2.63.9 4.17-.13 8.33-.2 12.5-.28.37-.02.74.04 1.19.07z" fill="#789b6a"/><path d="m443.22 203.01c-1.32-.5-1.39-.57-1.24-1.7.63-4.87.62-9.75.35-14.63-.07-1.33-.48-2.64-.78-3.95-.07-.31-.23-.67-.47-.86-2.18-1.71-4.39-3.39-6.59-5.08-.09-.07-.22-.06-.42-.11-.11 5.5-.41 10.93-2.17 16.18-1.09-.54-1.15-1.32-.91-2.28 1.15-4.56 1.51-9.21 1.51-13.91 0-.99-.31-1.64-1.12-2.21-4.49-3.14-8.99-6.26-13.83-8.85-1-.53-1.03-.7-.35-1.86.43.2.88.39 1.32.63 3.82 2.06 7.48 4.4 11.02 6.91.62.44 1.31.8 1.85 1.32 1.32 1.24 2.88 1.32 4.48.98 3.05-.64 6.08-1.36 9.12-2.06.74-.17 1.48-.35 2.2-.57.84-.26 1.43.08 2.17.82-2.49.7-4.77 1.39-7.08 1.98-2.26.58-4.55 1.06-6.93 1.61.26.23.47.43.69.6 1.3 1 2.68 1.93 3.89 3.02 1.34 1.21 2.9 1.58 4.61 1.77 3.16.34 6.31.04 9.47-.11 1.43-.07 2.86-.15 4.29-.24.82-.06 1.35.28 1.69 1.24-5.16.48-10.23 1.07-15.56.69.31.33.48.55.69.73 3.6 3.19 7.21 6.35 10.78 9.56.61.55 1.31.75 2.05.89 3.06.57 6.13 1.14 9.2 1.64.89.15 1.39.51 1.43 1.59-3.2-.21-6.29-.93-9.5-1.24 4.36 4.84 8.93 9.46 12.85 14.76-.31.34-.58.64-.97 1.06-4.25-5.28-8.72-10.17-13.5-14.85.67 4.18.32 8.3-.03 12.55-.48-.11-.83-.18-1.24-.27 0-.74-.02-1.41 0-2.07.12-3.37.28-6.74-.42-10.08-.02-.08-.04-.17-.04-.25-.18-1.58-.91-2.79-2.14-3.83-2.99-2.53-5.9-5.16-8.85-7.74-.3-.26-.63-.5-1.04-.81.44 6.48.61 12.75-.48 19.03z" fill="#789b6a"/><path d="m196.87 453.27c-3.2-2.63-5.93-5.69-9.52-7.91.07.43.11.86.21 1.28 1.08 4.76 2.17 9.52 3.26 14.29.33 1.44.65 2.87.98 4.31.25 1.11.25 1.11-1 1.82-1.03-3.57-1.82-7.16-2.67-10.74-.85-3.55-1.62-7.12-2.47-10.88-1.96 2.21-3.43 4.58-4.95 6.95-1.04-1.22-1.09-1.26-.32-2.35 1.43-2.03 2.91-4.02 4.41-6.01.32-.42.53-.78.42-1.36-.85-4.47-1.66-8.94-2.48-13.42-.04-.23-.12-.46-.22-.87-3.21 3.68-5.88 7.51-7.98 11.85-.84-.97-.79-1.76-.3-2.75 1.46-2.93 3.39-5.52 5.41-8.07.42-.53.84-1.05 1.26-1.58 1.28-1.59 1.26-1.59.9-3.62-1.14-6.43-2.34-12.84-3.35-19.29-.62-3.95-.98-7.94-1.39-11.91-.39-3.77-.68-7.55-1.02-11.32-.02-.25-.04-.5-.05-.76-.03-.58.3-.85.84-.88.58-.03.68.36.71.83.1 1.6.14 3.2.32 4.79.78 7.11 1.6 14.22 2.41 21.33.03.25.1.49.15.76 3.08.7 5.96 1.88 8.8 3.14 2.4 1.06 4.57 2.52 6.68 4.06.83.61 1.01 1.47 1.23 2.47-2.7-1.65-5.2-3.34-7.86-4.75s-5.48-2.51-8.6-3.28c.08.66.11 1.15.2 1.63.8 4.31 1.64 8.61 2.4 12.92.14.77.49 1.17 1.15 1.49 1.7.83 3.38 1.72 5.06 2.58 3.47 1.78 6.53 4.16 9.56 6.58.68.54.69 1.15.39 1.99-2.53-1.8-4.95-3.6-7.45-5.3-2.47-1.68-5.17-2.96-7.99-4.38 0 .36-.03.54 0 .72.86 4.77 1.74 9.53 2.59 14.3.11.62.36 1.07.91 1.42 3.35 2.16 6.15 4.97 9.05 7.67.74.68.94 1.29.32 2.25z" fill="#789b6a"/><path d="m477.73 134.28c-.7 1.23-.7 1.23-1.79 1-2.59-.56-5.18-1.15-7.78-1.65-1.28-.25-2.58-.36-3.88-.46-.38-.03-.85.11-1.15.34-4.07 3.14-8.12 6.3-12.17 9.46-.09.07-.13.2-.23.35 3.59 1.13 6.67 3.16 9.9 5.04-1.2 1.01-1.2 1.01-2.3.4-1.77-.97-3.52-2-5.33-2.89-1.01-.5-2.13-.77-3.2-1.13-.65-.22-1.2-.06-1.76.35-6.59 4.77-13.51 9.03-20.56 13.09-.29.17-.6.32-.87.51-1.49 1.03-3.18 1.21-5.1 1.21.46-.58 1.02-.75 1.5-1.04 5.32-3.16 10.68-6.27 15.96-9.48 2.37-1.44 4.59-3.13 6.92-4.64 1-.65 1.58-1.5 1.79-2.62.42-2.19.83-4.38 1.19-6.59.84-5.11 1.67-10.22 2.46-15.34.14-.89.53-1.34 1.54-1.5-1.07 7.82-2.16 15.55-3.54 23.45.49-.32.81-.51 1.1-.74 3.53-2.74 7.04-5.49 10.59-8.21.61-.47.92-1.05 1.1-1.77 1.5-5.7 3.02-11.39 4.53-17.09.32-1.2.3-1.21 1.73-1.44-1.24 5.89-2.83 11.62-4.17 17.54.33-.26.68-.49.98-.78 3.84-3.72 7.71-7.42 11.5-11.19 2.96-2.94 5.81-5.98 8.72-8.98.26-.27.54-.52.88-.84.32.26.59.48 1 .8-7.04 7.62-14.02 15.12-21.89 22.14 4.31.68 8.33 1.56 12.33 2.7z" fill="#789b6a"/><path d="m243.46 176.46c.36-.4.59-.59.75-.83 4.29-6.54 9.86-11.93 15.43-17.33 12.2-11.83 26.13-21.08 41.55-28.14 7.15-3.27 14.57-5.74 22.25-7.42 9.81-2.15 19.74-2.96 29.77-2.31 5.42.35 10.81 1.09 16.15 2.15 5.39 1.06 10.7 2.4 15.69 4.73 11.07 5.17 20.9 12.04 29.24 21.07 7.73 8.37 13.28 18.02 17.32 28.58 4.73 12.35 7.66 25.14 8.86 38.31.67 7.32.43 14.65-.34 21.96-1.16 11.02-3.31 21.85-6.95 32.31-4.14 11.91-9.59 23.2-16.91 33.53-4.44 6.26-8.89 12.51-13.95 18.29-1.42 1.62-2.85 3.22-4.34 4.77-5.69 5.93-11.33 11.91-17.65 17.18-3.72 3.1-7.51 6.12-11.35 9.08-6.41 4.93-12.92 9.74-19.33 14.67-6.52 5.01-13.44 9.45-20.19 14.14-7.72 5.36-15.42 10.74-23.15 16.09-4.3 2.97-8.72 5.77-12.92 8.87-5.32 3.93-10.49 8.07-15.68 12.16-3.81 3-7.7 5.9-11.29 9.15-3.9 3.53-7.51 7.38-11.22 11.12-2.61 2.63-5.18 5.3-7.76 7.96-.49.51-.94 1.07-1.37 1.64-1.34 1.73-3.72 1.68-5.14.06-1.77-2.02-3.69-3.91-5.55-5.85-.52-.55-1.11-1.04-1.61-1.6-6.85-7.77-14.34-14.84-22.64-21.06-3.67-2.75-7.27-5.61-10.85-8.5-4.73-3.82-9.76-7.21-14.76-10.64-10.32-7.08-20.51-14.35-30.91-21.31-9.71-6.5-19.01-13.54-28.29-20.63-4.45-3.4-8.97-6.72-13.41-10.14-6.25-4.82-12.09-10.11-17.6-15.76-5.44-5.58-10.93-11.13-15.64-17.37-5.08-6.73-10.25-13.4-14.44-20.73-5.03-8.8-9.3-17.96-12.35-27.64-1.72-5.47-3.09-11.03-4.16-16.66-1.47-7.71-2.42-15.48-2.61-23.33-.21-8.33.59-16.57 2.15-24.76 1.54-8.09 3.62-16.02 6.46-23.75 3-8.19 6.83-15.98 12.04-22.99 7.44-10 16.58-18.12 27.48-24.24 4.23-2.37 8.51-4.67 13.17-6.07 3.34-1 6.74-1.83 10.15-2.58 4.65-1.03 9.38-1.61 14.13-2.01 5.93-.49 11.87-.51 17.8.02 6.22.56 12.36 1.62 18.4 3.2 8.47 2.22 16.55 5.45 24.32 9.47 13.27 6.86 25.34 15.37 35.97 25.89 3.65 3.62 7.44 7.1 10.63 11.16 1.27 1.62 2.45 3.32 3.69 4.98.26.33.57.65.96 1.11z" fill="#ff7772"/><path d="m243.83 176.46c.63-1.03 1.19-2.11 1.91-3.07 1.24-1.65 2.49-3.3 3.88-4.81 5.02-5.47 10.31-10.67 15.92-15.53 13-11.24 27.52-19.96 43.62-26.01 7.08-2.66 14.39-4.5 21.88-5.51 3.47-.47 6.98-.48 10.47-.21 4.66.35 9.33.64 13.97 1.12 3.43.36 6.83.99 10.25 1.48 5.88.84 11.69 2.07 17.44 3.54 2.02.52 4.02 1.28 5.9 2.2 6.24 3.03 12.06 6.73 17.31 11.29 2.01 1.75 3.82 3.68 5.44 5.79 1.98 2.57 4.05 5.07 5.98 7.68 1.87 2.54 3.75 5.09 5.38 7.79 2.26 3.75 4.29 7.64 6.42 11.46 2.61 4.71 4.4 9.74 5.83 14.91 2.35 8.51 4.13 17.12 4.94 25.92.65 7.03.57 14.05-.09 21.08-1.08 11.37-3.23 22.53-6.9 33.35-2.79 8.23-6.45 16.09-10.82 23.63-6.58 11.36-14.48 21.72-23.32 31.39-3.3 3.61-6.47 7.33-9.89 10.82-6.23 6.36-13.03 12.09-20.15 17.44-6.57 4.94-13.14 9.87-19.65 14.88-6.72 5.17-13.87 9.72-20.81 14.57-3.14 2.19-6.32 4.34-9.43 6.59-4.85 3.52-10.04 6.5-15.14 9.63-2.08 1.28-4.15 2.58-6.11 4.04-8.27 6.17-16.56 12.33-24.72 18.66-4.16 3.22-8.06 6.77-12.08 10.19-3.13 2.66-5.73 5.81-8.25 9.04-1.97 2.52-4.11 4.91-6.16 7.36-.3.35-.55.74-.82 1.11-.68.92-1.59 1.34-2.73 1.29-1.1-.05-1.37-.29-1.24-1.39.25-2.13.47-4.27.87-6.38 1.51-7.98 4.18-15.61 7.06-23.17 5.18-13.63 11.66-26.61 19.55-38.87 2.94-4.57 5.68-9.27 8.98-13.6 6.88-9.03 14.43-17.48 22.48-25.48 2.51-2.49 4.98-5.03 7.52-7.5 8.14-7.95 16.27-15.91 24.45-23.81 9.99-9.66 18.91-20.26 27.43-31.21 7.2-9.26 13.7-18.99 19.51-29.18 5.37-9.42 9.59-19.3 11.94-29.93 1.51-6.83 2.22-13.72 1.78-20.7-.38-6.06-1.96-11.87-4.01-17.55-3.56-9.87-9.69-17.93-17.33-24.98-9.24-8.53-20.29-13.26-32.47-15.63-4.31-.84-8.68-1.06-13.08-.9-17.5.65-33.52 6.04-48.51 14.88-7.99 4.71-15.79 9.69-23.2 15.29-3.12 2.36-6.43 4.47-9.67 6.67-.39.27-.87.41-1.31.61-.08-.1-.15-.19-.22-.28z" fill="#f5726e"/><path d="m469.6 262.87c-.4 6.6-.8 13.21-1.19 19.81-.36 6.14-.7 12.28-1.05 18.43-.14 2.52-.27 5.05-.44 7.57-.2 3.03-1.48 5.46-3.94 7.31-7.25 5.45-14.79 10.44-22.6 15.06-12.71 7.52-26.41 12.43-40.63 16.07-6 1.54-12.03 2.94-18.18 3.75-6.78.89-13.58 1.31-20.42 1.01-7.09-.31-14.07-1.47-20.99-2.99-11.44-2.53-22.76-5.54-33.78-9.54-5.86-2.13-11.61-4.56-17.36-6.96-8.28-3.46-16.55-6.95-24.76-10.55-7.18-3.15-14.28-6.46-21.41-9.72-8.98-4.1-18.11-7.8-27.68-10.29-6.2-1.62-12.48-2.88-18.8-3.9-5.4-.87-10.83-1.64-16.26-2.28-6.57-.77-13.19-1.16-19.8-.95-19.53.64-38.63 3.73-57.04 10.51-15.12 5.56-28.97 13.37-41.53 23.45-2.43 1.95-4.83 3.93-7.24 5.91-.45.37-.91.77-1.28 1.22-1.65 2-3.69 3.56-5.67 5.2-1.72 1.42-3.3 3-4.97 4.47-1.1.98-2.24 1.91-3.38 2.84-1.4 1.14-2.79 2.31-4.26 3.36-1.3.92-2.64 1.81-4.08 2.48-1.36.64-2.66.1-3.7-.91-1.2-1.17-2.06-2.57-2.33-4.25-.2-1.25-.34-2.5-.49-3.76-.59-4.98-1.16-9.96-1.76-14.93-.56-4.6-1.15-9.19-1.71-13.79-.57-4.68-1.1-9.37-1.66-14.05-.38-3.18-.79-6.35-1.17-9.53-.45-3.72-.88-7.45-1.33-11.17-.44-3.6-.91-7.19-1.35-10.78-.74-6.15-1.45-12.3-2.19-18.44-.27-2.22-.55-4.43-.86-6.64-.27-1.94.16-3.69 1.43-5.2.76-.9 1.49-1.85 2.38-2.62 2.38-2.07 4.74-4.17 7.39-5.92 5.35-3.53 10.61-7.17 15.94-10.72 12.02-8 24.94-14.23 38.41-19.36 14.02-5.35 28.44-9.23 43.31-11.33 5.29-.75 10.62-1.3 15.93-1.85 6.25-.64 12.53-.83 18.81-.74 6.49.1 12.96.56 19.42 1.2 12.25 1.23 24.35 3.43 36.43 5.71 6.49 1.22 12.98 2.52 19.42 4 9.08 2.08 17.96 4.9 26.74 8.01 20.53 7.28 41.22 14.05 62.09 20.3 12.27 3.67 24.58 7.16 37.1 9.9 7.08 1.55 14.21 2.83 21.44 3.45 4.75.41 9.51.45 14.27.31 4.47-.13 8.92-.44 13.35-1.03 7.71-1.03 15.2-2.98 22.56-5.45 9.72-3.25 18.41-8.29 26.19-14.94 2.75-2.35 5.53-4.69 8.29-7.03.48-.41.96-.82 1.49-1.17 2.51-1.68 5.38-.88 6.63 1.87.69 1.52.94 3.15.85 4.81-.19 3.62-.4 7.24-.61 10.85-.39 6.65-.78 13.29-1.17 19.94-.27 4.67-.54 9.34-.81 14.01 0-.02 0-.02.01-.02z" fill="#ffe3c6"/><path d="m248.19 252.39c.8-.97 1.5-1.81 2.19-2.65 4.89-6.02 9.77-12.03 14.66-18.05.32-.39.66-.77.98-1.16 2.33-2.83 6.39-1.65 7.44 1.56.24.75.37 1.57.37 2.36-.04 7.79-.12 15.58-.18 23.38-.11 15.29-.2 30.59-.31 45.88-.01 1.18-.05 2.36-.19 3.53-.2 1.64-1.1 2.82-2.69 3.36-1.63.55-3.08.12-4.31-1.04-1.11-1.05-1.56-2.39-1.56-3.88 0-2.99.04-5.98.06-8.97.03-3.33.07-6.65.1-9.98.04-5.26.08-10.53.11-15.79.02-3.33.01-6.65.04-9.98.03-4.04.09-8.08.13-12.13.01-.75 0-1.51 0-2.32-.61-.02-.75.45-.99.74-3.86 4.74-7.71 9.48-11.56 14.22-.58.72-1.16 1.45-1.79 2.13-1.94 2.06-4.83 1.95-6.6-.26-.42-.52-.74-1.12-1.03-1.73-3.45-7.22-6.88-14.45-10.31-21.68-.51-1.07-1.01-2.13-1.52-3.2-.1-.21-.24-.4-.58-.57-.04.69-.11 1.38-.13 2.07-.32 12.13-.62 24.26-.94 36.39-.11 4.17-.23 8.34-.37 12.51-.02.63-.09 1.27-.28 1.86-.86 2.77-3.98 3.79-6.33 2.09-1.45-1.05-2.07-2.53-2.06-4.27.02-2.36.1-4.71.16-7.07.14-5.22.29-10.44.43-15.66.12-4.59.24-9.18.37-13.77.14-5.26.29-10.53.43-15.79.15-5.64.3-11.28.46-16.92.01-.34.05-.67.1-1 .29-1.74 1.23-2.96 2.94-3.44 1.76-.49 3.28.08 4.41 1.45.64.77 1.17 1.66 1.6 2.56 5.46 11.49 10.89 22.99 16.33 34.49.08.18.2.35.42.73z" fill="#fff"/><path d="m348.76 305.23c.05-.39.14-.78.15-1.18.15-5.81.29-11.62.43-17.43.15-6.02.31-12.04.47-18.06.12-4.63.25-9.26.38-13.89.01-.5.02-1.01.09-1.51.32-2.35 1.94-3.91 4.05-3.94 2.17-.03 4.11 1.63 4.49 3.87.07.41.08.84.07 1.26-.16 6.23-.33 12.47-.49 18.7-.23 8.84-.45 17.69-.68 26.53-.25 9.69-.51 19.37-.8 29.06-.03.9-.22 1.85-.56 2.69-1.22 2.99-5.29 3.05-7.02.54-.45-.65-.82-1.38-1.09-2.13-5.89-16.23-11.76-32.48-17.63-48.72-.67-1.86-1.35-3.72-2.03-5.58-.11-.29-.27-.57-.59-.81-.06.79-.13 1.57-.17 2.36-.31 6.48-.61 12.96-.93 19.44-.39 7.99-.79 15.99-1.19 23.98-.03.55-.08 1.1-.19 1.63-.68 3.29-4.34 4.5-6.85 2.27-1.21-1.08-1.75-2.48-1.67-4.07.48-10.35.99-20.7 1.49-31.05.51-10.43 1.01-20.87 1.52-31.3.11-2.15.18-4.3.39-6.43s1.66-3.58 3.63-3.77c1.75-.17 3.13.57 4.1 2 .4.58.68 1.26.92 1.93 6.24 17.23 12.47 34.46 18.7 51.69.24.66.5 1.31.75 1.97.1-.04.18-.04.26-.05z" fill="#fff"/><path d="m131.24 251.94c1.56.22 3.06.4 4.54.66.78.14 1.56.37 2.31.63 6.99 2.45 10.22 8.92 8 15.98-.96 3.07-2.58 5.78-4.73 8.13-7.12 7.8-15.97 12.2-26.49 13.19-.42.04-.84.04-1.26-.01-2.27-.24-3.92-1.83-4.1-4.1-.44-5.37-.87-10.74-.95-16.14-.06-3.53-.3-7.07-.45-10.6-.12-2.82-.21-5.64-.36-8.46s-.35-5.63-.56-8.44c-.19-2.64-.42-5.29-.63-7.93-.27-3.36-.54-6.71-.8-10.07-.19-2.39-.39-4.78-.56-7.17-.05-.75-.07-1.52-.03-2.27.14-2.22 1.4-3.76 3.54-4.41.48-.15.94-.36 1.43-.5 5.15-1.49 10.25-1.44 15.18.82 6.05 2.78 9.6 7.65 11.25 13.97 1.52 5.8.97 11.53-.85 17.18-.94 2.94-2.26 5.72-3.89 8.34-.18.29-.36.57-.52.86-.05.08-.04.17-.07.34zm-17-33.18c.92 11.71 1.83 23.38 2.76 35.21.47-.36.81-.59 1.12-.86 2.82-2.34 5.11-5.12 6.88-8.33 2.43-4.41 3.74-9.09 3.43-14.16-.18-2.96-1-5.72-2.82-8.11-2.56-3.33-7.3-4.95-11.37-3.75zm3.83 62.29c.59-.12 1.01-.17 1.39-.3 1.28-.42 2.58-.8 3.82-1.32 4.65-1.95 8.76-4.68 11.96-8.64 1.14-1.42 2.08-2.97 2.48-4.78.45-2.05-.18-3.34-2.1-4.16-1.7-.73-3.5-.9-5.32-.81-3.14.16-6.14.94-9.07 2.08-.77.3-1.62.39-2.44.59-.47.11-.93.25-1.47.39.22 5.66.18 11.21.75 16.95z" fill="#fff"/><path d="m382.49 261.99v27.71c.46.03.79.09 1.1.07 2.98-.22 5.96-.47 8.95-.67 1.38-.09 2.79-.23 4.16-.11 3.36.31 4.7 3.48 2.68 6.19-1.15 1.55-2.76 2.31-4.65 2.47-3.86.33-7.72.64-11.58.96-.25.02-.5.06-.89.11-.52 8.13-.75 16.27-1.07 24.56.43-.04.78-.06 1.13-.11 4.11-.67 8.22-1.38 12.34-2.01 2.54-.38 5.1-.66 7.65-.94.75-.08 1.52-.12 2.27-.02 2.12.28 3.29 1.98 2.9 4.09-.19 1.03-.7 1.89-1.41 2.63-1.12 1.18-2.52 1.78-4.12 2.02-5.79.86-11.58 1.69-17.36 2.62-2.11.34-4.18.94-6.29 1.34-1.24.23-2.5.33-3.76.4-2.79.15-4.56-2.69-4.26-4.86.66-4.85.69-9.74.85-14.62.09-2.69.27-5.38.4-8.07.11-2.35.23-4.71.3-7.07.14-4.5.3-9 .34-13.51.05-5.85-.01-11.7 0-17.56.01-3.11.02-6.23.11-9.34.06-2.13 1.91-3.97 4.37-4.41 1.16-.21 2.34-.37 3.51-.42 5.39-.2 10.77-.38 16.16-.49.85-.02 1.77.25 2.54.63 1.86.92 2.51 2.97 1.6 4.84-.96 1.97-2.68 2.88-4.77 3.04-2.06.16-4.12.15-6.18.22-1.98.07-3.96.14-5.93.22-.36.01-.69.06-1.09.09z" fill="#fff"/><path d="m162.35 217.26c.75 9.95 1.49 19.76 2.24 29.65.3.05.62.13.94.15 3.28.22 6.56.42 9.84.66.96.07 1.93.17 2.88.34 1.19.21 2.25.72 3.06 1.64 1.61 1.81 1.32 4.33-.65 5.74-1.16.83-2.47 1.03-3.85.93-3.78-.28-7.56-.58-11.34-.87-.16-.01-.33 0-.62 0 .05 7.16.34 14.28.6 21.46.37.04.65.11.94.11 6.37-.1 12.7.55 19.04 1.07 1.02.08 1.99.35 2.85.94 2.2 1.52 2.09 4.25-.22 5.58-1.15.66-2.4.72-3.68.62-3.78-.28-7.56-.6-11.34-.83-2.56-.15-5.14-.15-7.7-.25-1.43-.06-2.86-.12-4.29-.28-1.66-.18-3.04-.92-4.02-2.34-.49-.72-.71-1.49-.74-2.37-.13-3.83-.29-7.65-.45-11.48-.1-2.4-.23-4.79-.36-7.19-.19-3.45-.37-6.89-.61-10.34-.25-3.65-.53-7.31-.86-10.95-.45-4.9-.96-9.8-1.43-14.71-.39-4.11-.78-8.21-1.12-12.33-.21-2.53 1.21-4.49 3.74-4.9 1.86-.3 3.78-.38 5.66-.32 4.76.14 9.51.4 14.26.65 1 .05 2.02.17 2.99.42 2.51.64 4.17 2.91 3.98 5.31-.19 2.38-2.07 4.37-4.63 4.58-1.66.14-3.36-.05-5.04-.14-3.31-.15-6.63-.35-10.07-.55z" fill="#fff"/><path d="m290.28 278.82c.12-6.23.23-12.47.37-18.7.11-5.14.25-10.27.38-15.41 0-.13.01-.25.02-.38.2-2.23 1.64-3.81 3.67-4.04 1.97-.22 4.04 1.15 4.64 3.17.22.75.34 1.57.33 2.36-.1 5.94-.25 11.88-.38 17.82-.22 10.11-.44 20.22-.66 30.33-.12 5.64-.26 11.29-.39 16.93-.02.76.02 1.52-.02 2.27-.15 2.7-1.84 4.49-4.19 4.46-2.38-.02-4.4-2.05-4.49-4.59-.05-1.3 0-2.61.03-3.92.19-8.55.39-17.1.58-25.64.03-1.56 0-3.11 0-4.67.03.01.07.01.11.01z" fill="#fff"/><path d="m82.95 152.12c-.02-1.51.54-2.78 1.52-3.9 3.76-4.28 8.16-7.79 13.03-10.72 8.2-4.93 17.05-8.01 26.54-9.25 6.09-.8 12.18-.76 18.23.44.86.17 1.72.42 2.54.73 2.79 1.06 3.42 4.03 1.31 6.18-1 1.02-2.27 1.6-3.64 1.93-1.31.31-2.63.62-3.96.79-2.38.29-4.78.42-7.16.69-4.01.46-8.02.98-12.03 1.49-2.8.36-5.56.92-8.26 1.77-4.46 1.41-8.47 3.73-12.36 6.26-2.69 1.74-5.32 3.56-7.74 5.68-.75.66-1.64 1.21-2.55 1.61-2.94 1.29-5.51-.48-5.47-3.7z" fill="#ff9e9a"/><path d="m57.86 188.97c.12-.8.18-1.6.35-2.38 1.41-6.15 4.12-11.73 7.66-16.91.58-.85 1.35-1.63 2.17-2.27 2.23-1.73 5.01-.96 6.15 1.64.73 1.65.86 3.37.33 5.06-.59 1.88-1.28 3.74-2.09 5.54-1.05 2.34-2.27 4.6-3.42 6.9-.95 1.89-2.03 3.68-3.47 5.25-.79.85-1.72 1.47-2.81 1.86-2.05.74-3.95-.19-4.52-2.3-.21-.78-.24-1.59-.35-2.39z" fill="#ff9e9a"/><path d="m312.35 144.04c-1.69-.04-3.4-.4-4.92-1.42-2.26-1.53-3.13-3.7-2.54-6.35.59-2.66 2.15-4.68 4.42-6.06 1.72-1.04 3.55-1.95 5.41-2.71 3.76-1.54 7.73-2.38 11.71-3.06 5.11-.87 10.23-1.62 15.35-2.42.68-.11 1.36-.17 1.86.45.59.73.54 1.78-.25 2.37-3.03 2.26-5.31 5.28-8.06 7.83-5.01 4.65-10.65 8.23-17.17 10.36-1.84.59-3.74.97-5.81 1.01z" fill="#f8d86f"/><path d="m371.16 85.7c-.05 1.96-.58 4.13-1.33 6.24-2.25 6.33-5.78 11.87-10.48 16.66-1.45 1.47-2.96 2.88-4.4 4.36-.97.99-1.87 2.05-2.81 3.07-.25.27-.52.58-.84.73-1.11.5-2.3-.32-2.22-1.55.06-.88.24-1.75.38-2.63.68-4.37 1.31-8.75 2.06-13.1.69-3.99 1.51-7.96 3.04-11.72.74-1.83 1.64-3.6 2.6-5.32.99-1.76 2.44-3.13 4.29-3.98.76-.35 1.58-.62 2.4-.76 2.69-.46 4.94.72 6.27 3.22.74 1.38 1.05 2.9 1.04 4.78z" fill="#f8d86f"/><path d="m371.27 157.4c-.22.95-.38 2.17-.8 3.3-1.28 3.44-4.35 4.89-7.84 3.77-2.4-.77-4.15-2.36-5.48-4.45-1.46-2.29-2.5-4.77-3.32-7.35-1.41-4.43-2.25-8.99-2.97-13.56-.58-3.66-1.11-7.33-1.66-11-.05-.33-.11-.67-.12-1-.02-.65.24-1.15.87-1.4.62-.25 1.24-.29 1.77.21.15.14.28.31.42.47 1.21 1.29 2.35 2.64 3.64 3.85 4.1 3.86 7.85 8 10.67 12.91 1.99 3.45 3.57 7.07 4.38 10.99.2.96.27 1.98.44 3.26z" fill="#f8d86f"/><path d="m312.53 98.38c2.31.09 4.51.61 6.67 1.39 6.24 2.24 11.71 5.72 16.44 10.35 1.57 1.53 3.06 3.13 4.62 4.67.9.88 1.86 1.7 2.8 2.54.16.14.33.26.48.41.56.55.57 1.19.3 1.87-.26.65-.69.94-1.52.84-1.38-.16-2.75-.39-4.12-.61-4.66-.75-9.32-1.42-13.96-2.27-4.36-.8-8.64-1.92-12.6-3.99-1.22-.64-2.42-1.38-3.5-2.24-1.66-1.31-2.77-3.04-3.24-5.14-.61-2.71.28-4.92 2.6-6.44 1.53-1.01 3.25-1.34 5.03-1.38z" fill="#f8d86f"/><path d="m325.52 85.44c.01-1.74.33-3.29 1.15-4.71 1.48-2.58 3.85-3.61 6.74-2.93 2.56.6 4.45 2.14 5.89 4.27 1.81 2.68 2.98 5.66 3.88 8.74 1.43 4.9 2.28 9.93 3.03 14.97.38 2.58.78 5.16 1.17 7.74.09.58.18 1.17.22 1.75.04.64-.19 1.17-.82 1.42-.67.27-1.32.3-1.88-.26-.24-.24-.42-.53-.64-.78-.58-.66-1.14-1.35-1.77-1.98-1.73-1.73-3.51-3.4-5.22-5.15-4.67-4.76-8.17-10.27-10.41-16.55-.76-2.13-1.31-4.34-1.34-6.53z" fill="#f8d86f"/><path d="m384.23 144.04c-2.13-.08-4.02-.47-5.87-1.09-6.55-2.18-12.26-5.74-17.2-10.54-1.6-1.55-3.12-3.19-4.71-4.76-.93-.91-1.95-1.73-2.88-2.64-.37-.36-.78-.83-.87-1.31-.2-1.13.65-1.9 1.87-1.75 1.38.17 2.75.43 4.12.65 4.7.76 9.41 1.44 14.09 2.3 4.4.81 8.7 2.01 12.7 4.12 1.61.85 3.13 1.82 4.32 3.24 1.02 1.22 1.72 2.58 2.04 4.15.5 2.44-.25 4.4-2.19 5.92-1.65 1.29-3.57 1.68-5.42 1.71z" fill="#f8d86f"/><path d="m391.96 105.29c-.09 2.15-1.36 4.35-3.45 6.12-1.46 1.24-3.15 2.09-4.89 2.87-3.91 1.75-8.05 2.77-12.24 3.51-5.35.94-10.73 1.72-16.09 2.57-.33.05-.67.1-1 .11-.64.03-1.17-.18-1.43-.81-.27-.67-.3-1.31.25-1.88.06-.06.12-.12.19-.17 3.1-2.3 5.42-5.41 8.25-8 5.4-4.94 11.46-8.7 18.57-10.63 2.04-.55 4.13-.83 6.25-.37 1.7.37 3.17 1.12 4.32 2.45.87 1.03 1.32 2.22 1.27 4.23z" fill="#f8d86f"/><path d="m325.52 157.08c.05-2.38.59-4.54 1.34-6.65 2.25-6.29 5.75-11.79 10.41-16.55 1.47-1.5 3.01-2.94 4.49-4.45.94-.96 1.82-1.98 2.72-2.98.11-.12.2-.27.32-.39.57-.58 1.22-.68 1.96-.35.68.31.91.87.82 1.55-.27 1.88-.55 3.75-.86 5.62-.83 4.94-1.6 9.9-2.55 14.81-.76 3.94-2.03 7.74-4.01 11.27-.83 1.48-1.81 2.84-3.16 3.91-1.25.99-2.64 1.64-4.22 1.89-2.18.34-3.99-.33-5.4-2.03-1.38-1.67-1.85-3.64-1.86-5.65z" fill="#f8d86f"/><path d="m104.02 344.72c.01-3.02.38-5.99 1.2-8.88.41-1.45.97-2.88 1.65-4.22.81-1.58 2.1-2.72 3.86-3.24 1.58-.47 2.99-.19 4.24.89 1.83 1.57 2.45 3.67 2.51 5.98.05 1.95-.27 3.86-.74 5.74-.91 3.65-2.34 7.11-3.85 10.54-1.22 2.77-2.5 5.52-3.75 8.28-.1.23-.21.46-.33.68-.26.49-.64.77-1.22.69-.64-.1-1.01-.45-1.14-1.16-.23-1.28-.42-2.57-.67-3.85-.37-1.86-.88-3.69-1.16-5.56-.31-1.94-.41-3.92-.6-5.89z" fill="#f8d86f"/><path d="m86.38 367.48c-3.19.02-6.32-.4-9.35-1.36-1.39-.44-2.75-1.08-4-1.83-1.45-.87-2.4-2.21-2.77-3.91-.28-1.28-.04-2.42.73-3.46 1.57-2.11 3.79-2.88 6.3-2.88 2.89 0 5.71.59 8.4 1.6 3.35 1.25 6.65 2.65 9.94 4.03 1.94.81 3.84 1.73 5.75 2.6.34.16.69.31 1.02.49.49.27.73.68.61 1.26-.11.54-.4.94-.96 1.05-3.63.7-7.26 1.44-10.91 2.06-1.55.25-3.17.24-4.76.35z" fill="#f8d86f"/><path d="m84.05 338.79c-.01-4.34 3.33-6.64 7.37-5.07 1.24.48 2.27 1.28 3.21 2.2 1.8 1.75 3.22 3.79 4.47 5.94 2.37 4.09 3.77 8.53 4.64 13.16.32 1.73.78 3.44 1.2 5.16.19.8.07 1.27-.51 1.67-.61.42-1.13.18-1.59-.24-4.73-4.31-9.77-8.29-13.96-13.17-1.54-1.79-2.9-3.71-3.91-5.87-.57-1.2-.9-2.45-.92-3.78z" fill="#f8d86f"/><path d="m109.27 384.68c.07 3.79-.39 7.2-1.5 10.5-.39 1.14-.96 2.24-1.58 3.29-.63 1.07-1.57 1.86-2.71 2.39-1.96.92-3.8.63-5.35-.86-1.51-1.45-2.15-3.29-2.22-5.34-.07-2.21.22-4.4.9-6.48 1.01-3.08 2.1-6.13 3.32-9.13 1.29-3.15 2.77-6.23 4.18-9.33.48-1.07.85-1.34 1.52-1.23.78.14 1.03.57 1.19 1.68.17 1.21.37 2.41.66 3.59 1.16 4.76 1.57 7.47 1.59 10.92z" fill="#f8d86f"/><path d="m132.76 342.1c.82.18 1.67.28 2.44.57 2.29.85 3.39 2.77 3.05 5.19-.25 1.83-1.15 3.32-2.4 4.63-2.23 2.35-4.89 4.11-7.75 5.59-3.93 2.04-8.14 3.16-12.47 3.96-1.4.26-2.78.65-4.17.98-.2.05-.41.11-.62.13-.51.05-.89-.18-1.17-.6-.3-.43-.26-.87.02-1.3.09-.14.19-.28.3-.4 3.9-4.25 7.5-8.77 11.76-12.69 1.86-1.72 3.84-3.28 6.06-4.52 1.55-.81 3.15-1.44 4.95-1.54z" fill="#f8d86f"/><path d="m129.4 390.88c-.13.7-.19 1.42-.4 2.1-.83 2.68-3.07 3.94-5.81 3.34-1.71-.37-3.1-1.29-4.32-2.48-2.26-2.2-3.98-4.79-5.41-7.57-1.96-3.82-3.11-7.9-3.9-12.1-.29-1.57-.71-3.11-1.1-4.66-.2-.79-.08-1.28.49-1.66.6-.41 1.13-.21 1.6.22 4.63 4.23 9.56 8.13 13.71 12.87 1.5 1.71 2.84 3.55 3.89 5.59.7 1.36 1.19 2.78 1.25 4.35z" fill="#f8d86f"/><path d="m126.19 362.28c4.62-.04 8.31.48 11.86 1.84 1.51.58 2.87 1.41 3.9 2.7 2.08 2.61 1.61 5.67-1.18 7.51-1.65 1.09-3.5 1.39-5.43 1.28-3.1-.17-6.08-.93-8.96-2.03-2.56-.97-5.08-2.04-7.59-3.12-2.28-.98-4.53-2.04-6.79-3.07-.34-.16-.69-.31-1.02-.5-.49-.27-.75-.68-.61-1.26.12-.53.4-.97.97-1.04 5.25-.56 10.28-2.7 14.85-2.31z" fill="#f8d86f"/><path d="m80.64 387.46c-5.26-.13-6.51-4.17-4.89-7.72.73-1.6 1.92-2.86 3.25-3.99 4.09-3.47 8.81-5.73 13.96-7.07 2.12-.55 4.29-.88 6.42-1.35.9-.2 1.79-.47 2.67-.74.64-.2 1.15-.12 1.58.42.32.41.39.83.11 1.28-.11.18-.23.36-.37.51-3.88 4.21-7.45 8.71-11.67 12.6-2.08 1.92-4.28 3.67-6.83 4.95-1.62.82-2.8 1.12-4.23 1.11z" fill="#f8d86f"/><path d="m126.37 424.9c-1.06-.23-2.17-.35-3.18-.71-3.33-1.18-4.83-4.14-3.92-7.57.44-1.67 1.26-3.14 2.49-4.34 1.14-1.11 2.33-2.21 3.64-3.11 5.71-3.95 12.05-6.35 18.9-7.38 2.54-.38 5.1-.65 7.64-1.02.95-.14 1.89-.41 2.83-.64.72-.18 1.33-.08 1.81.53.55.69.58 1.23.05 1.94-.12.17-.27.33-.42.47-4.7 4.47-9.35 8.99-14.12 13.38-3.05 2.8-6.42 5.19-10.22 6.92-2.13.98-3.74 1.38-5.5 1.53z" fill="#a2dae4"/><path d="m184.27 396.61c4.42.24 8.74.85 12.93 2.25 2.25.75 4.44 1.63 6.29 3.16 1.93 1.6 3.19 3.57 3.2 6.18.01 1.19-.36 2.23-1.09 3.16-1.7 2.17-4 3.16-6.68 3.34-2.38.16-4.7-.32-6.98-.93-4.42-1.18-8.54-3.12-12.58-5.21-4.26-2.21-8.47-4.53-12.69-6.81-.26-.14-.51-.3-.75-.47-.53-.38-.76-.87-.57-1.54.19-.65.53-1.14 1.25-1.27.08-.01.17-.03.25-.03 3.61.06 7.07-1.06 10.64-1.3 2.26-.15 4.52-.35 6.78-.53z" fill="#a2dae4"/><path d="m187.32 432.74c-.13 1.49-.45 2.87-1.12 4.16-1.21 2.31-3.16 3.3-5.71 3.17-1.78-.09-3.34-.8-4.76-1.85-1.74-1.3-3.11-2.95-4.32-4.74-3.81-5.64-6.15-11.87-7.18-18.58-.35-2.29-.57-4.6-.91-6.89-.18-1.2-.44-2.4-.72-3.58-.17-.72-.14-1.33.45-1.84.69-.6 1.31-.63 2.04-.06.17.13.32.27.47.42 4.19 4.38 8.42 8.73 12.55 13.17 2.44 2.62 4.66 5.45 6.38 8.61.8 1.47 1.52 3.01 2.1 4.58.4 1.08.5 2.28.73 3.43z" fill="#a2dae4"/><path d="m162.49 421.76c-.2 4.51-.89 8.9-2.31 13.18-.69 2.09-1.56 4.09-2.9 5.86-.99 1.3-2.2 2.32-3.72 2.94-2.64 1.08-4.97.55-6.87-1.56-1.41-1.56-2.09-3.44-2.27-5.51-.17-2.08.19-4.12.66-6.13.82-3.51 2.12-6.85 3.73-10.05 2.24-4.44 4.61-8.8 6.93-13.2.65-1.23 1.27-2.47 1.98-3.67.56-.93 1.38-1.05 2.27-.47.47.31.68.75.67 1.28-.07 3.61 1.05 7.08 1.3 10.65.17 2.24.36 4.46.53 6.68z" fill="#a2dae4"/><path d="m159.08 375.5c.15-4.59.79-9.08 2.23-13.44.73-2.21 1.61-4.35 3.07-6.2 1.38-1.74 3.11-2.95 5.37-3.27 1.54-.22 2.92.13 4.14 1.11 1.95 1.57 2.93 3.66 3.21 6.1.27 2.3-.16 4.54-.7 6.75-1.09 4.5-3 8.68-5.12 12.76-2.31 4.45-4.75 8.83-7.14 13.23-.1.18-.21.37-.33.54-.49.68-.93.87-1.6.71-.81-.2-1.26-.66-1.33-1.48-.08-1.01-.04-2.03-.17-3.02-.36-2.67-.83-5.33-1.17-8-.23-1.93-.31-3.86-.46-5.79z" fill="#a2dae4"/><path d="m134.21 364.01c.26-1.1.39-2.24.79-3.29 1.25-3.26 4.02-4.63 7.41-3.79 1.72.43 3.22 1.28 4.45 2.52 1.06 1.08 2.1 2.2 2.96 3.43 3.91 5.57 6.3 11.77 7.42 18.47.38 2.28.6 4.59.94 6.88.2 1.33.47 2.65.77 3.96.16.71.18 1.32-.39 1.86-.65.61-1.32.67-2.04.14-.17-.12-.33-.27-.47-.42-3.65-3.73-7.35-7.41-10.93-11.2-2.75-2.91-5.36-5.95-7.41-9.41-.94-1.59-1.74-3.26-2.51-4.94-.6-1.31-.85-2.72-.99-4.21z" fill="#a2dae4"/><path d="m195.24 372.04c1.45.03 2.84.32 4.13 1.02 2.31 1.25 3.41 3.32 3.12 5.97-.18 1.63-.81 3.09-1.78 4.39-1.17 1.56-2.63 2.8-4.24 3.92-4.59 3.19-9.61 5.43-15.02 6.7-3.19.75-6.47 1.08-9.71 1.61-1.62.27-3.23.53-4.84.86-.71.14-1.33.17-1.85-.41-.6-.66-.65-1.33-.11-2.05.13-.17.27-.32.43-.46 4.78-4.5 9.52-9.05 14.37-13.47 3.03-2.76 6.38-5.1 10.15-6.78 2.02-.91 3.69-1.31 5.35-1.3z" fill="#a2dae4"/><path d="m137.8 399.84c-4.75.07-9.39-.66-13.9-2.18-2.08-.7-4.09-1.59-5.81-2.99-1.83-1.5-3.05-3.35-3.23-5.78-.09-1.24.26-2.33 1-3.31 1.74-2.33 4.17-3.34 6.99-3.49 2.56-.14 5.02.43 7.46 1.15 1.29.38 2.57.81 3.82 1.31 5.17 2.05 10.15 4.5 14.98 7.27 1.79 1.03 3.63 1.96 5.45 2.93.3.16.6.31.88.5.76.5.98.97.8 1.67-.2.8-.76 1.27-1.62 1.33-1.13.09-2.27.1-3.39.24-3.34.43-6.67.94-10.01 1.34-1.14.12-2.29.01-3.42.01z" fill="#a2dae4"/><path d="m439.07 160.47c1.33-.19 2.67-.35 3.99-.57 4.76-.76 9.53-1.06 14.33-.39 3.56.5 7.02 1.37 10.25 3 1.76.88 3.28 2.05 4.27 3.81 1.58 2.79.96 5.6-1.68 7.41-1.89 1.3-4.02 1.64-6.27 1.39-2.7-.3-5.3-1-7.78-2.08-2.81-1.23-5.6-2.54-8.31-3.97-3.46-1.82-6.84-3.8-10.25-5.72-1.14-.65-1.38-1.04-1.18-1.82.22-.85.71-1.14 1.97-1.14h.63c.03.03.03.05.03.08z" fill="#a2dae4"/><path d="m455.24 190.87c.02 1.31-.32 2.65-1.04 3.87-1.24 2.11-3.45 2.97-5.99 2.36-1.87-.45-3.36-1.52-4.64-2.91-2.19-2.38-3.77-5.16-5.1-8.08-2.18-4.81-3.22-9.9-3.73-15.13-.17-1.79-.51-3.57-.77-5.36-.04-.29-.09-.59-.04-.87.18-.98 1.33-1.43 2.15-.85.2.14.39.33.56.51 3.74 4.05 7.52 8.07 11.2 12.17 2.25 2.51 4.21 5.26 5.71 8.3.93 1.85 1.72 3.75 1.69 5.99z" fill="#a2dae4"/><path d="m401.98 183.18c-1.36-.16-2.62-.45-3.8-1.08-2.01-1.06-2.88-2.75-2.76-4.98.08-1.56.68-2.94 1.62-4.18 1.32-1.74 3.03-3.03 4.85-4.18 5.26-3.31 11.01-5.19 17.16-5.91 1.3-.15 2.6-.27 3.89-.45 1.37-.19 2.74-.42 4.1-.67.92-.17 1.43-.01 1.83.69.37.64.33 1.11-.4 1.78-5.1 4.71-9.89 9.77-15.49 13.91-2.31 1.71-4.74 3.23-7.46 4.18-1.15.41-2.36.61-3.54.89z" fill="#a2dae4"/><path d="m425.99 159.97c-1.12.15-2.25.32-3.37.44-3.09.32-6.19.81-9.29.87-5.31.1-10.48-.79-15.37-2.99-1.55-.7-2.98-1.58-4.09-2.89-2.54-2.99-2.79-7.4 2.43-9.54 1.9-.78 3.87-.7 5.85-.36 3.05.51 5.97 1.49 8.73 2.84 3.29 1.61 6.52 3.33 9.75 5.05 2.08 1.11 4.11 2.3 6.17 3.45.37.21.73.42 1.08.65.5.33.75.78.58 1.4s-.52 1.06-1.2 1.13c-.42.04-.84.01-1.26.01 0-.02 0-.04-.01-.06z" fill="#a2dae4"/><path d="m469.52 143.17c-.07 1.52-.64 2.99-1.63 4.3-1.26 1.68-2.88 2.94-4.63 4.05-5.09 3.25-10.65 5.18-16.62 5.95-1.79.23-3.6.38-5.39.61-1.12.15-2.24.38-3.35.6-.93.19-1.44.01-1.85-.66-.3-.49-.3-.96.04-1.41.15-.2.32-.39.51-.56 4.37-4.01 8.7-8.07 13.14-12 2.65-2.35 5.62-4.28 8.92-5.66 1.74-.73 3.53-1.2 5.41-.87.98.17 1.97.48 2.84.95 1.82.98 2.62 2.5 2.61 4.7z" fill="#a2dae4"/><path d="m417.49 192.66c.14-2.86.92-5.74 2.08-8.51 1.06-2.52 2.2-5.01 3.48-7.42 2.03-3.83 4.19-7.59 6.32-11.37.63-1.12 1.08-1.36 1.84-1.13.81.25 1.02.71 1.08 1.89.06 1.22.14 2.44.33 3.64.79 4.97 1.24 9.94.6 14.96-.47 3.66-1.34 7.2-2.98 10.52-.44.9-.97 1.8-1.64 2.53-.76.82-1.66 1.58-2.64 2.1-2.52 1.34-4.98.75-6.74-1.49-1.29-1.63-1.76-3.52-1.73-5.72z" fill="#a2dae4"/><path d="m409.67 129.66c-.01-1.33.29-2.59.93-3.76 1.16-2.1 3.13-3.06 5.51-2.68 1.81.29 3.39 1.11 4.61 2.44 1.19 1.29 2.33 2.67 3.27 4.15 3.14 4.94 4.98 10.37 5.7 16.17.21 1.67.37 3.35.6 5.01.17 1.25.4 2.49.63 3.72.13.65.17 1.25-.4 1.73-.55.47-1.14.51-1.72.08-.17-.12-.32-.27-.47-.42-3.9-4.24-7.85-8.44-11.69-12.74-2.13-2.39-3.95-5.03-5.36-7.93-.89-1.81-1.64-3.68-1.61-5.77z" fill="#a2dae4"/><path d="m447.44 127.4c-.14 3.29-1.02 6.27-2.19 9.17-1.7 4.22-3.88 8.22-6.13 12.17-1.08 1.9-2.14 3.82-3.22 5.72-.25.44-.5.88-.79 1.29-.32.46-.78.63-1.33.47-.56-.16-.99-.46-1.1-1.08-.02-.12-.03-.25-.04-.38-.36-3.3-.76-6.6-1.06-9.9-.59-6.6.14-13.03 2.83-19.15.63-1.44 1.44-2.77 2.61-3.84 3.47-3.18 8.02-2.74 9.94 2.55.17.47.28.97.35 1.47.08.55.1 1.1.13 1.51z" fill="#a2dae4"/><path d="m224.18 234.97c-.05 2.14-.11 4.27-.16 6.41-.28 10.32-.57 20.63-.85 30.95-.12 4.42-.23 8.84-.36 13.27-.02.59-.05 1.18-.16 1.76-.66 3.23-4.27 4.45-6.77 2.31-1.12-.96-1.7-2.21-1.71-3.67-.02-1.81.03-3.62.08-5.43.19-7.49.39-14.99.6-22.48.2-7.37.42-14.73.62-22.1.18-6.48.35-12.97.52-19.45.01-.29.01-.59.05-.88.25-1.78 1.13-3.11 2.89-3.63 1.79-.54 3.35.02 4.53 1.44.59.71 1.1 1.51 1.49 2.34 4.64 9.78 9.26 19.57 13.88 29.36.76 1.6 1.51 3.2 2.28 4.79.18.37.38.73.72 1.37.32-.44.52-.75.75-1.03 5.31-6.54 10.62-13.08 15.94-19.62.4-.49.8-.98 1.23-1.45 1.96-2.12 5.09-1.89 6.73.5.72 1.05.95 2.23.94 3.48-.03 4.97-.05 9.94-.08 14.91-.03 5.27-.07 10.53-.11 15.8-.09 11.63-.19 23.25-.29 34.88-.02 1.98 0 3.96-.06 5.94-.02.71-.09 1.44-.31 2.11-.83 2.55-3.66 3.57-5.96 2.17-1.62-.98-2.36-2.5-2.39-4.34-.03-2.19.01-4.38.03-6.57.03-4.34.04-8.67.08-13.01.04-5.09.11-10.19.15-15.28.03-4.04.04-8.09.07-12.13.03-3.41.07-6.82.1-10.23.01-.7-.05-1.4-.31-2.19-.29.34-.59.67-.87 1.01-4.07 5-8.13 10.01-12.2 15.01-.35.42-.69.85-1.08 1.24-1.81 1.84-4.39 1.86-6.17-.01-.57-.6-1.01-1.35-1.37-2.1-3.51-7.33-6.99-14.68-10.48-22.02-.56-1.17-1.12-2.33-1.68-3.5-.11.01-.21.04-.31.07z" fill="#75544d"/><path d="m321.6 273.49c-.04.36-.1.73-.12 1.09-.38 7.87-.76 15.74-1.13 23.6-.33 6.82-.65 13.63-.98 20.45-.04.71-.1 1.43-.23 2.13-.3 1.62-1.19 2.8-2.79 3.29-1.58.48-3.01.08-4.2-1.05-1.18-1.11-1.62-2.53-1.54-4.12.21-4.29.42-8.58.63-12.87.31-6.48.62-12.96.94-19.44.47-9.59.94-19.18 1.41-28.77.1-2.06.18-4.12.29-6.18.03-.63.09-1.27.23-1.88.74-3.11 4.12-4.27 6.65-2.31.98.76 1.49 1.8 1.89 2.93 2.2 6.1 4.41 12.2 6.62 18.3 4.15 11.49 8.3 22.98 12.46 34.46.12.34.29.67.68.99.05-1.23.12-2.45.15-3.68.17-6.19.33-12.38.49-18.57.17-6.65.33-13.3.5-19.96.07-2.95.13-5.9.24-8.84.03-.71.14-1.44.36-2.11.97-2.97 4.4-3.88 6.73-1.81 1.18 1.04 1.68 2.38 1.64 3.95-.13 4.67-.25 9.35-.38 14.02-.14 5.31-.27 10.61-.41 15.92-.29 11.08-.59 22.15-.89 33.23-.1 3.83-.21 7.66-.31 11.5-.04 1.66-.62 3.02-2 4.02-1.2.87-2.91.94-4.15.12-1.25-.82-2.05-1.95-2.55-3.35-1.41-3.97-2.85-7.93-4.29-11.89-5.1-14.1-10.21-28.2-15.31-42.3-.11-.31-.24-.61-.36-.92-.09.03-.18.04-.27.05z" fill="#75544d"/><path d="m124.68 250.81c.93.09 1.67.17 2.41.25 2.16.2 4.23.73 6.19 1.66 5.53 2.64 8.15 8.21 6.71 14.18-.91 3.79-2.87 7.02-5.51 9.8-6.93 7.32-15.41 11.57-25.47 12.6-.66.07-1.35.11-2.01.02-2.21-.32-3.69-1.78-3.9-4-.31-3.35-.57-6.71-.73-10.07-.27-5.59-.45-11.19-.68-16.79-.17-3.95-.33-7.91-.55-11.86-.14-2.48-.38-4.95-.57-7.43-.21-2.81-.41-5.63-.63-8.44-.19-2.43-.42-4.86-.62-7.3-.07-.8-.1-1.6-.16-2.39-.15-2.14-.38-4.28-.43-6.42-.05-2.24 1.17-4 3.01-4.68.71-.26 1.42-.53 2.15-.73 5.21-1.43 10.35-1.35 15.29 1 5.64 2.69 9.06 7.26 10.78 13.17 1.61 5.54 1.28 11.08-.27 16.58-.95 3.38-2.39 6.56-4.24 9.55-.23.38-.45.77-.77 1.3zm-14.08 2.16c1.35-1.26 2.59-2.27 3.66-3.44 5.23-5.74 8.17-12.38 7.73-20.29-.16-2.92-1.06-5.6-2.84-7.96-2.81-3.72-8.02-4.74-11.31-3.67.9 11.64 1.82 23.32 2.76 35.36zm1.06 26.77c.22.05.31.1.38.08.37-.08.74-.16 1.1-.26 4.64-1.32 8.82-3.51 12.5-6.65 1.77-1.51 3.39-3.18 4.49-5.25.53-.99.95-2.07 1.22-3.16.41-1.66-.19-2.93-1.75-3.63-1.02-.46-2.15-.78-3.25-.91-3.81-.44-7.44.44-10.98 1.76-1.03.39-2.04.75-3.16.8-1.11.05-1.31.31-1.27 1.41.18 4.79.38 9.59.58 14.38.02.51.1.99.14 1.43z" fill="#75544d"/><path d="m376.08 260.82v27.72c.45.02.77.08 1.09.05 3.28-.25 6.55-.53 9.83-.76 1.13-.08 2.28-.14 3.4-.02 3.17.37 4.5 3.32 2.72 5.98-1.19 1.78-2.96 2.56-5.04 2.73-3.78.31-7.56.61-11.34.92-.29.02-.57.1-.97.17-.34 8.13-.68 16.24-1.02 24.45.39 0 .67.05.93-.01 5.55-1.3 11.21-1.87 16.85-2.62 1.25-.17 2.51-.29 3.77-.41.5-.05 1.01-.08 1.51-.03 2.65.23 4.03 2.41 3.04 4.88-.94 2.33-2.8 3.52-5.22 3.87-4 .58-8.02 1.08-12.01 1.71-3.08.49-6.13 1.13-9.19 1.7-1.74.32-3.48.65-5.22.95-2.98.51-5.81-1.97-5.32-5.21.68-4.5.66-9.07.82-13.61.1-2.82.29-5.64.39-8.45.24-6.65.48-13.3.65-19.95.1-4.25.1-8.5.09-12.76 0-3.66-.08-7.33-.09-10.99-.01-1.35.03-2.7.11-4.04.09-1.72 1.07-2.87 2.49-3.72 1.08-.65 2.29-.81 3.51-.94 5.96-.63 11.94-.68 17.92-.66.78 0 1.61.17 2.33.46 2.17.89 2.93 3.19 1.81 5.25-.8 1.47-2.1 2.29-3.68 2.65-.77.17-1.58.23-2.38.26-3.66.12-7.33.22-10.99.33-.24.01-.49.06-.79.1z" fill="#75544d"/><path d="m158.08 245.81c1.67.14 3.18.28 4.69.38 1.93.13 3.87.18 5.8.34 1.3.11 2.61.23 3.86.55.78.2 1.58.65 2.18 1.2 2.04 1.85 1.69 4.78-.66 6.21-1.13.68-2.37.81-3.66.72-3.61-.28-7.22-.55-10.84-.82-.29-.02-.58 0-1.04 0 .14 7.14.34 14.26.63 21.51.89 0 1.68-.04 2.47.01 5 .28 10 .58 15 .89 1.09.07 2.19.14 3.26.34.73.14 1.48.42 2.09.82 2.23 1.47 2.1 4.24-.21 5.56-1.11.63-2.31.75-3.55.66-.97-.07-1.93-.17-2.89-.25-5.41-.44-10.83-.85-16.27-.87-1.39-.01-2.78-.13-4.16-.27-1.38-.13-2.61-.62-3.59-1.66-.91-.97-1.29-2.07-1.3-3.43-.01-2.9-.15-5.81-.29-8.71-.15-3.19-.38-6.39-.55-9.58-.18-3.24-.29-6.48-.53-9.71-.41-5.63-.84-11.25-1.35-16.87-.39-4.32-.94-8.62-1.38-12.93-.3-3.01-.56-6.03-.77-9.06-.14-2.05 1.05-3.83 3.01-4.48.83-.27 1.73-.41 2.6-.44 6.58-.28 13.13.21 19.68.72.86.07 1.75.35 2.53.72 1.91.92 3.05 3 2.83 4.96-.23 2.09-1.71 3.86-3.85 4.35-1.01.23-2.09.26-3.13.21-3.83-.19-7.65-.46-11.48-.69-.41-.02-.82 0-1.39 0 .45 4.98.94 9.86 1.3 14.75.4 4.88.65 9.8.96 14.87z" fill="#75544d"/><path d="m283.85 277.66c.25-11.2.49-22.4.75-33.6.01-.54.06-1.1.17-1.63.68-3.17 4.21-4.38 6.7-2.31 1.38 1.14 1.85 2.68 1.82 4.39-.08 4.42-.18 8.85-.28 13.27-.14 6.44-.29 12.89-.43 19.33-.2 8.8-.41 17.61-.6 26.41-.06 2.65-.07 5.31-.14 7.96-.02.71-.08 1.45-.3 2.11-.89 2.75-4.02 3.75-6.36 2.05-1.4-1.01-2.07-2.43-2.05-4.14.03-2.86.1-5.73.16-8.59.1-4.97.2-9.94.31-14.91.08-3.45.17-6.9.26-10.36 0 .02 0 .02-.01.02z" fill="#75544d"/><path d="m173.33 401.41c-1.27 2.9-3.35 5.02-6.3 6.43.3.57.52 1.06.79 1.52 1.61 2.72 3.23 5.43 4.83 8.15.25.43.47.9.58 1.38.05.22-.13.58-.32.73-.13.1-.53.04-.68-.09-.39-.37-.78-.77-1.06-1.23-1.87-3.05-3.71-6.12-5.56-9.19-.11-.18-.22-.35-.28-.43-1.93 0-3.77 0-5.68 0-.09.24-.18.51-.29.77-1.04 2.66-2.07 5.33-3.13 7.99-.14.34-.35.69-.62.94-.18.17-.6.31-.77.21-.24-.14-.51-.51-.5-.77.02-.44.24-.88.4-1.31.9-2.31 1.82-4.62 2.7-6.94.19-.5.27-1.04.36-1.37-1.73-1.34-3.31-2.57-5.06-3.93-.25.1-.72.25-1.16.47-2.26 1.13-4.5 2.28-6.77 3.41-.44.22-.92.45-1.4.5-.62.07-.94-.49-.59-1.01.25-.36.63-.69 1.02-.9 2.3-1.23 4.62-2.43 6.93-3.64.36-.19.73-.35.94-.45-.47-2.1-.91-4.05-1.37-6.08-2.43-.68-4.98-1.39-7.53-2.11-.69-.19-1.37-.4-2.06-.61-.28-.09-.61-.14-.82-.32-.29-.25-.71-.63-.68-.92.05-.57.64-.59 1.1-.53.41.05.82.18 1.23.28 2.77.72 5.54 1.44 8.31 2.16.24.06.48.1.88.18.55-2.61 1.77-4.82 3.75-6.66-.43-.6-.86-1.11-1.2-1.68-1.98-3.35-3.41-6.95-4.8-10.57-.31-.8-.14-1.39.29-1.59.49-.22.92.13 1.32 1.04 1.28 2.88 2.55 5.78 3.88 8.64.49 1.06 1.18 2.02 1.8 3.06 1.21-.48 2.27-.99 3.39-1.3 1.08-.31 2.22-.41 3.42-.62.04-.14.12-.33.13-.53.24-4.15 1.3-8.14 2.52-12.09.23-.75.46-1.54 1.43-1.82.61.67.33 1.36.17 2.03-.54 2.25-1.13 4.49-1.61 6.75-.29 1.36-.46 2.74-.64 4.12-.07.57-.01 1.16-.01 1.83 3.43.84 6.25 2.53 8.04 5.73.57-.2 1.05-.33 1.5-.53 2.19-.98 4.38-1.96 6.56-2.97 1.07-.49 2.12-1.02 3.18-1.54.11-.05.24-.15.35-.13.35.05.83.03 1 .25.31.39.03.79-.35 1.05s-.77.53-1.18.73c-3.11 1.5-6.22 2.99-9.33 4.48-.26.12-.52.25-.89.42.65 2.17.87 4.37.41 6.69.44.11.79.2 1.14.28 2.83.66 5.66 1.3 8.48 1.97.41.1.84.22 1.17.45.27.19.4.58.59.88-.3.18-.6.47-.92.5-.4.04-.82-.12-1.23-.21-2.96-.62-5.93-1.24-8.89-1.86-.23-.07-.53-.06-.91-.09z" fill="#75544d"/><path d="m344.75 132.18c-.34.58-.67 1.06-.93 1.58-1.97 4.01-3.89 8.04-5.17 12.34-.05.16-.09.33-.16.48-.2.43-.43.92-1 .73-.52-.17-.6-.71-.5-1.17.21-.9.46-1.8.76-2.67 1.45-4.14 3.13-8.18 5.28-12.08-.73-.7-1.5-1.35-2.16-2.09-.63-.72-1.14-1.54-1.76-2.4-.55.18-1.12.33-1.66.54-3.2 1.3-6.39 2.61-9.58 3.92-.57.24-1.13.6-1.8.12-.12-.69.31-1.11.8-1.43.52-.35 1.08-.68 1.66-.91 3.08-1.26 6.17-2.48 9.25-3.72.19-.08.39-.15.72-.28-.51-2.29-.57-4.58.13-6.85-.75-.77-1.69-1.16-2.62-1.51-2.95-1.12-5.92-2.19-8.89-3.27-.75-.27-1.53-.46-2.29-.72-.31-.11-.65-.24-.87-.47-.17-.18-.29-.55-.22-.78.07-.22.39-.48.62-.5.45-.03.93.04 1.36.18 4.54 1.42 9.1 2.79 13.34 5.02.07.04.16.03.43.07.99-1.79 2.44-3.28 4.33-4.41-.22-.48-.4-.85-.56-1.23-1.47-3.54-2.95-7.07-4.38-10.62-.33-.81-.54-1.68.2-2.66.32.32.66.55.85.87.24.39.34.86.52 1.28 1.57 3.63 3.14 7.27 4.72 10.89.08.19.22.35.34.55.19-.01.36.01.51-.04 1.77-.52 3.56-.65 5.37-.28.63.13 1.03-.03 1.37-.57 2-3.07 3.96-6.17 5.26-9.63.26-.69.45-1.46 1.38-1.73.58.48.51 1.13.37 1.72-.18.73-.41 1.47-.76 2.14-1.36 2.56-2.78 5.1-4.18 7.64-.2.37-.45.7-.71 1.1.95.72 1.95 1.34 2.79 2.13.85.8 1.54 1.77 2.39 2.77.7-.28 1.49-.55 2.23-.92 3.67-1.79 7.33-3.6 10.99-5.4.43-.21.87-.65 1.38-.21.3.26.14.93-.44 1.43-.54.46-1.13.89-1.77 1.2-3.59 1.76-7.2 3.48-10.81 5.21-.3.14-.59.28-.99.47.7 2.38.72 4.75-.03 7.19.73.16 1.34.26 1.93.43 3.41.98 6.7 2.28 9.8 4.01.51.29 1 .62 1.46.99.5.4.89.89.84 1.64-.62.43-1.16.07-1.62-.23-3.03-1.99-6.41-3.16-9.81-4.3-.87-.29-1.8-.43-2.7-.61-.38-.08-.74-.04-.99.36-1.08 1.8-2.57 3.21-4.47 4.3.19.58.32 1.11.52 1.6 1.75 4.29 3.51 8.57 5.26 12.86.21.51.46 1 .58 1.53.1.41.02.86.02 1.36-1.14-.25-1.51-1.05-1.85-1.79-.97-2.06-1.92-4.12-2.81-6.22-1.19-2.78-2.31-5.6-3.52-8.54-2.54.72-5.14.71-7.75-.41z" fill="#75544d"/><path d="m454.74 150.45c.09.81-.42 1.15-.95 1.41-.68.33-1.4.57-2.11.85-3.4 1.36-6.8 2.72-10.2 4.1-.62.25-1.21.57-1.78.85.15 1.42.3 2.74.45 4.18 1.39.23 2.84.44 4.27.73 2.31.47 4.61.97 6.9 1.53.58.14 1.13.53 1.62.9.17.13.24.54.18.78-.04.15-.41.31-.62.3-.5-.03-.99-.15-1.48-.24-3.68-.71-7.35-1.43-11.03-2.15-.12-.02-.25.01-.32.02-.85 1.19-1.68 2.34-2.59 3.62.05.08.15.3.28.5 2.53 3.96 4.51 8.18 6.22 12.55.15.39.3.8.33 1.21.02.37-.12.75-.18 1.11-.84.01-1.15-.46-1.4-.94-.22-.41-.38-.85-.55-1.28-1.44-3.56-3.17-6.98-5.07-10.31-.37-.65-.81-1.27-1.15-1.81-1.6.31-3.07.59-4.6.88-.02.1-.07.26-.07.42-.11 4.47-1.23 8.74-2.49 12.99-.13.44-.31.88-.53 1.28-.36.62-.93.89-1.34.64-.57-.35-.39-.87-.21-1.35 1.11-2.89 1.7-5.91 2.25-8.93.29-1.61.37-3.26.53-4.89.04-.44-.06-.82-.55-1.02-1.39-.57-2.52-1.5-3.53-2.78-1.1.63-2.19 1.16-3.19 1.83-2.77 1.85-5.5 3.75-8.25 5.62-.38.26-.77.54-1.2.66-.26.08-.74-.03-.87-.22-.14-.21-.09-.67.05-.92.21-.35.55-.63.89-.87 3.65-2.57 7.19-5.31 11.17-7.38.14-.07.27-.19.32-.23-.21-1.61-.41-3.14-.63-4.83-.51-.2-1.15-.5-1.82-.71-3.53-1.11-7.06-2.25-10.73-2.87-.89-.15-1.33-.51-1.29-.97.04-.51.64-.92 1.52-.77 1.74.3 3.48.65 5.18 1.12 2.59.71 5.15 1.55 7.9 2.38.67-1.61 1.84-2.96 3.48-4.03-.73-1.64-1.3-3.28-2.14-4.77-1.88-3.34-3.88-6.6-5.85-9.89-.38-.64-.89-1.23-.68-2.06.54-.34.96-.1 1.29.22.42.41.81.86 1.13 1.35 2.85 4.28 5.64 8.6 7.46 13.45.11.3.3.58.43.83 1.29-.11 2.5-.22 3.86-.34.22-.93.44-1.95.69-2.96.57-2.37 1.15-4.75 1.74-7.12.13-.53.31-1.05.56-1.54s.61-.93 1.33-.69c.4.68.15 1.36-.01 2.05-.8 3.36-1.6 6.72-2.4 10.08-.06.24-.07.49-.08.55 1.4 1.15 2.69 2.2 4.1 3.36 0 0 .2-.05.38-.13 4.32-2.12 8.85-3.71 13.37-5.34.62-.21 1.27-.43 2.01-.01z" fill="#75544d"/><path d="m108.59 357.55c1.43.62 2.69 1.16 4.07 1.76 1.13-.69 2.37-1.48 3.65-2.21.98-.57 1.99-1.1 3.01-1.59.87-.43 1.49-.38 1.73.03.24.42-.12.86-1.01 1.37-1.83 1.03-3.65 2.09-5.47 3.15-.28.16-.52.41-.86.68 1.12 1.47 1.48 3.14 1.54 5.02 1.34.14 2.62.27 3.91.4.75.07 1.51.13 2.26.21.45.05.88.22.89.72.01.58-.47.77-.95.8-.5.03-1.01-.01-1.51-.05-1.59-.13-3.18-.28-4.71-.42-.86 1.37-1.67 2.68-2.57 4.12.62.99 1.33 2.12 2.03 3.26.36.57.71 1.14 1.04 1.73.26.46.45 1.01-.11 1.34-.56.34-.96-.12-1.24-.54-.5-.73-.94-1.5-1.41-2.24-.56-.88-1.13-1.75-1.6-2.46-1.77.4-3.35.76-5.2 1.18-.14.68-.34 1.62-.53 2.55-.14.7-.22 1.42-.39 2.11-.09.35-.25.73-.48 1-.37.42-.94.28-1.06-.27-.09-.39-.06-.84.01-1.24.27-1.57.58-3.14.86-4.6-1.26-.91-2.44-1.76-3.8-2.75-.22.08-.67.18-1.06.39-1.3.69-2.58 1.42-3.87 2.14-.29.16-.57.43-.88.47-.28.04-.67-.09-.86-.3-.13-.14-.08-.58.05-.79.2-.3.51-.57.83-.76 1.19-.71 2.41-1.39 3.62-2.06.44-.24.9-.43 1.37-.65-.22-1.19-.44-2.33-.67-3.59-1.79-.42-3.66-.6-5.54-.73-.34-.02-.7.04-1-.09-.31-.13-.72-.39-.78-.66-.11-.48.34-.79.77-.81.88-.04 1.77-.02 2.64.06 1.38.13 2.75.33 4.2.52.38-.72.72-1.49 1.17-2.18.43-.66.98-1.25 1.55-1.95-.5-.8-.98-1.63-1.51-2.43-.7-1.05-1.45-2.07-2.14-3.13-.23-.34-.45-.73-.52-1.13-.1-.6.46-.98.97-.66.35.21.64.55.88.88 1.07 1.56 2.12 3.14 3.17 4.72.18.27.37.54.54.79.95-.29 1.82-.59 2.71-.82.53-.14.61-.52.67-.94.34-2.29.67-4.58 1-6.87.04-.29-.03-.62.1-.87.13-.27.42-.62.65-.62.24 0 .63.32.7.57.14.47.17 1 .11 1.49-.25 2-.55 4-.83 6-.03.34-.09.66-.14.95z" fill="#75544d"/><g fill="#fff"><path d="m429.4 160.22c-.06 1.02-.92 1.8-1.94 1.73-1-.06-1.78-.93-1.75-1.95.03-1 .91-1.85 1.88-1.82 1.02.04 1.87 1 1.81 2.04z"/><path d="m158.29 390.32c.98-.03 1.79.71 1.84 1.68.05 1-.77 1.87-1.78 1.87-.96 0-1.75-.78-1.77-1.75-.02-.99.72-1.77 1.71-1.8z"/><path d="m353.5 120.18c-.78 0-1.45-.66-1.45-1.44 0-.88 1.02-1.88 1.89-1.87.74.01 1.36.63 1.37 1.37.02.91-.94 1.94-1.81 1.94z"/><path d="m346.05 121.1c.01.82-.71 1.52-1.55 1.51-.82-.01-1.52-.71-1.55-1.54-.03-.84.66-1.6 1.46-1.6s1.63.82 1.64 1.63z"/><path d="m349.5 125.44c.77.02 1.34.61 1.32 1.37-.02.74-.63 1.35-1.37 1.36-.79.02-1.45-.68-1.39-1.45.06-.74.69-1.3 1.44-1.28z"/><path d="m167.55 392.24c.71.02 1.26.61 1.24 1.33-.02.71-.59 1.28-1.3 1.3-.7.02-1.3-.56-1.31-1.26-.01-.75.63-1.39 1.37-1.37z"/><path d="m160.19 401.85c.02.69-.56 1.31-1.24 1.32-.68.02-1.28-.59-1.27-1.28.01-.65.52-1.19 1.18-1.23.72-.05 1.31.48 1.33 1.19z"/><path d="m164.13 388.53c.61-.02 1.15.45 1.2 1.05.06.67-.55 1.32-1.23 1.31-.6 0-1.11-.51-1.13-1.12-.02-.64.52-1.22 1.16-1.24z"/><path d="m349.22 120.85c.65-.01 1.13.44 1.13 1.08.01.7-.58 1.3-1.26 1.3-.62 0-1.12-.48-1.14-1.1-.03-.68.56-1.27 1.27-1.28z"/><path d="m104.63 365.44c0 .6-.52 1.11-1.14 1.13-.65.02-1.25-.54-1.25-1.17 0-.59.53-1.11 1.14-1.13.67-.01 1.25.54 1.25 1.17z"/><path d="m163.81 403.54c-.02.62-.6 1.21-1.2 1.22-.64.01-1.17-.57-1.12-1.23.05-.64.63-1.17 1.25-1.15.61.02 1.1.55 1.07 1.16z"/><path d="m353.8 125.83c-.62.02-1.12-.47-1.13-1.1 0-.6.49-1.14 1.08-1.19.6-.05 1.15.42 1.19 1.04.04.64-.49 1.23-1.14 1.25z"/><path d="m433.71 159.31c-.57.01-1.02-.45-1.03-1.04-.01-.65.54-1.25 1.15-1.26.57-.01 1.04.45 1.03 1.03.01.64-.56 1.26-1.15 1.27z"/><path d="m431.7 162.58c.69.01 1.15.44 1.13 1.05-.02.64-.6 1.15-1.26 1.11-.61-.04-1.1-.57-1.07-1.16.04-.6.53-1.01 1.2-1z"/><path d="m113 366.89c0 .59-.53 1.13-1.11 1.13-.55-.01-1.03-.47-1.07-1.03-.04-.61.44-1.15 1.04-1.18.61-.03 1.14.47 1.14 1.08z"/><path d="m167.55 401.45c.62-.02 1.14.48 1.13 1.1-.01.57-.48 1.05-1.04 1.07-.61.02-1.14-.49-1.13-1.11.01-.56.47-1.03 1.04-1.06z"/><path d="m348.36 115.51c.62.01 1.12.53 1.08 1.12-.04.61-.57 1.06-1.19 1.02-.58-.04-1.01-.49-1.02-1.06.01-.61.51-1.09 1.13-1.08z"/><path d="m429.73 157.34c-.57.03-1.04-.4-1.09-.97-.05-.62.41-1.13 1.03-1.16.59-.03 1.04.38 1.09.96.04.62-.42 1.14-1.03 1.17z"/><path d="m436.97 162.24c-.01.58-.56 1.1-1.15 1.08-.57-.02-1.01-.5-.97-1.08.04-.54.54-1.01 1.08-1.02.56-.01 1.05.47 1.04 1.02z"/><path d="m105.18 363.11c-.57-.03-.99-.5-.96-1.08.03-.57.51-1 1.08-.97.56.03 1 .52.97 1.08-.04.58-.52 1.01-1.09.97z"/><path d="m107.48 369.14c-.03.56-.53 1-1.09.97-.57-.03-1-.51-.97-1.09s.5-1 1.08-.97c.57.04 1.01.53.98 1.09z"/><path d="m162.65 395.43c.56.01 1.01.46 1.03 1.03.01.57-.42 1.04-.99 1.06-.61.02-1.11-.48-1.09-1.1.02-.56.48-1 1.05-.99z"/><path d="m344.96 125.68c-.02.57-.49 1.02-1.05 1-.57-.02-1.01-.48-1-1.05s.47-1.01 1.05-.99c.57.01 1.01.46 1 1.04z"/><path d="m109.77 365.86c-.03.56-.52 1-1.09.97-.59-.02-1-.48-.97-1.07.03-.58.5-1 1.08-.97.57.02 1.02.5.98 1.07z"/><path d="m156.33 398.65c-.53-.03-1.01-.55-1-1.08.02-.55.51-1 1.08-.98.58.02 1 .48.97 1.06-.02.58-.5 1.03-1.05 1z"/><path d="m108.97 363.25c-.58-.03-1.01-.54-.96-1.11.05-.58.57-.99 1.14-.92.53.06.91.51.9 1.05-.01.57-.49 1.02-1.08.98z"/><path d="m169.71 398.95c-.58 0-1.03-.47-1.01-1.06.02-.53.43-.95.96-.98.58-.03 1.06.41 1.07.99.01.59-.44 1.05-1.02 1.05z"/></g></g></g></svg>