<svg id="Слой_1" enable-background="new 0 0 500 500" height="512" viewBox="0 0 500 500" width="512" xmlns="http://www.w3.org/2000/svg"><g><path d="m488.37 209.79c-.08-.03-.17-.05-.25-.08-.69-.21-1.41-.53-2.14-.95-2.42-1.38-5.12-2.13-8.04-2.23-.27-.01-.55-.01-.83-.01-1.25 0-2.37.1-3.28.18l-.51.04c-1.9.16-3.64.32-5.34.5-.44.05-.89.1-1.35.15 0-.11.06-1.96.08-2.71.7-.07 1.42-.15 2.15-.24 2.44-.3 4.8-.63 7.6-1.03 4.51-.65 8.24-2.57 11.11-5.72 3.69-4.05 5.17-9.37 4.07-14.6-1.1-5.21-4.58-9.47-9.56-11.68-.64-.28-1.29-.53-1.95-.74-.74-.23-1.47-.55-2.17-.94-.44-.25-.89-.48-1.35-.68-2.35-1.06-4.84-1.59-7.42-1.59-.36 0-.73.01-1.09.03.04-.7.08-1.36.11-2.01.07-1.14.14-2.27.21-3.41l.02-.24c.05-.82.1-1.63.15-2.45.05-.77.1-1.53.15-2.3.13-1.98.27-4.02.33-6.15.02-.53.03-1.07.04-1.6.67-.01 1.29-.02 1.9-.03 2.43-.05 4.8-.18 7.1-.3l.54-.03c2.1-.11 5.27-.46 8.48-2.2 5.62-3.06 8.92-8.37 9.03-14.58.12-6.36-3.09-11.8-8.8-14.92-1.34-.73-2.77-1.28-4.29-1.64-.33-.21-.66-.42-1-.61-2.68-1.53-5.6-2.27-8.95-2.27-.54 0-1.07.02-1.64.06l-.96.07c-1.55.11-3.01.21-4.35.22-1.02.01-2.04.02-3.06.03h-.04c-1.45.02-2.96.04-4.4.04-2.69 0-4.83-.07-6.74-.21-.41-.03-.72-.06-.95-.1-1.02-.15-1.99-.23-2.94-.23-2.09 0-4.09.36-5.96 1.08-3.37 1.3-6.2 3.46-8.26 6.28-1.68-1.12-3.55-1.93-5.52-2.39-1.16-.77-2.43-1.39-3.78-1.87-1.87-.66-3.78-.99-5.69-.99-4.06 0-7.89 1.48-11.06 4.29-3.5 3.09-5.46 7.26-5.81 12.4-.04.58-.08 1.16-.12 1.76h-3.43c-1.49-6.15-6.28-10.87-12.38-12.26-2.43-1.64-5.27-2.6-8.27-2.78-.33-.02-.66-.03-.98-.03-6.67 0-12.84 4.27-15.36 10.63-.18.46-.35.93-.49 1.4-1.68-2.03-3.51-3.79-5.51-5.33-2.9-2.23-6.06-3.89-9.38-4.94-2.76-1.53-5.75-2.61-8.89-3.21-1.66-.32-3.32-.48-4.91-.48-.34 0-.67.01-1.01.02-1.87.08-3.82.37-5.8.85-5.54 1.35-10.28 4.01-14.1 7.89-2.26 2.3-4.19 5.01-5.87 8.25h-18.63c-.15 0-.28-.12-.28-.26v-.06c-.01-1.15-.11-2.32-.33-3.68-.43-2.63-1.48-5.09-3.12-7.32-2.33-3.16-5.63-5.3-9.35-6.08-2.57-1.77-5.64-2.73-8.74-2.73-4.42 0-8.67 1.94-11.64 5.32-1.09 1.23-1.78 2.42-2.27 3.32-1.28 2.36-2 4.97-2.14 7.77l-.11 2.09c-.05.91-.79 1.62-1.7 1.62h-11.04c.78-3.11 1.08-6.07.91-8.97-.26-4.37-1.38-8.1-3.43-11.42-2.74-4.42-7.04-7.5-12.02-8.66-.2-.48-.42-.96-.65-1.43-2.77-5.57-8.01-8.9-14.03-8.9-1.24 0-2.51.14-3.77.43-1.47.34-2.91.85-4.49 1.6-2.39-1.4-5.15-2.16-7.98-2.16-3.48 0-6.87 1.13-9.54 3.19-4.96 3.82-8.28 7.82-10.44 12.58-2.92 6.44-4.79 13.15-5.57 19.95-.37 3.25-.45 6.47-.24 9.62-1.27-.29-2.51-.47-3.73-.54l-.84-.72c.28-5.03.08-10.17-.61-15.66-.72-5.7-2.5-10.37-5.46-14.3-3.07-4.07-6.69-6.4-10.79-6.93-3.1-5.52-8.62-8.63-15.48-8.63-.74 0-1.51.04-2.3.11-4.85.44-9.13 2.6-12.51 6.28-.45-.05-.9-.07-1.36-.07-2.16 0-4.33.52-6.47 1.55-3.04 1.47-5.48 3.72-7.24 6.69-1.69 2.84-2.95 5.65-3.82 8.47-1.32-1.5-2.99-3.06-4.96-4.26-2.1-1.29-4.47-1.97-6.84-1.97-3.32 0-6.38 1.31-8.62 3.68-2.27 2.4-3.42 5.61-3.23 9.03.11 1.93.51 3.51.81 4.66.06.24.17.64.18.75.15.97.22 2.04.22 3.18-.01 2.31-.32 4.73-.93 7.21-1.9 7.69-3.96 15.38-6.27 23.91-.12.45-.24.9-.36 1.36-14.25 18.16-28.5 36.33-42.75 54.49-6.03 7.69-12.3 15.74-17.34 22.22l-.09.12c-3.25 4.17-4.61 9.11-3.86 13.95-.09 2.67.09 5.2.27 7.56.52 6.59 1.08 13.22 1.61 19.63l.06.77.63 7.53 1.23 14.9c.5 6 .99 12 1.49 18l.41 4.99c1.02 12.33 2.08 25.09 3.14 37.63.15 1.77.29 3.53.44 5.31.44 5.4.9 10.98 1.46 16.51.66 6.44 3.59 12.11 8.26 15.98.67.64 1.42 1.18 2.24 1.63 3.79 2.42 8.32 3.69 13.12 3.69.23 0 .47 0 .7-.01 2.46-.06 4.76-.29 6.98-.5l.07-.01c6.42-.63 12.95-1.27 19.26-1.9l.61-.06 16.11-1.59c6-.59 11.99-1.17 17.99-1.75 5.58-.54 11.16-1.08 16.74-1.63 6.9-.68 13.8-1.35 20.7-2.03l1.34-.13c6.83-.67 13.67-1.35 20.5-2.01l16.35-1.59.99-.1c5.69-.55 11.38-1.1 17.08-1.66l4.22-.41c12.77-1.25 25.98-2.54 38.97-3.84 1.13-.11 2.26-.22 3.39-.33l.06-.01c4.53-.44 9.22-.89 13.93-1.59 6.5-.97 12.22-4.67 15.72-10.17.36-.52.68-1.07.95-1.64.33-.63.63-1.28.91-1.93.43-1.04 1.45-1.71 2.61-1.71 2.49 0 4.8 1.25 6.2 3.34 2.95 4.41 7.69 7.13 13 7.46.34.02.68.03 1.02.03 1.66 0 3.32-.25 4.92-.75.83-.26 1.57-.43 2.26-.53 5.71-.81 10.46-4.4 12.83-9.55h24.36c2.46 0 4.81 1.11 6.45 3.04 0 0 .04.05.04.05 5.53 6.52 12.42 10.12 20.48 10.7.71.05 1.43.08 2.14.08 2.96 0 5.88-.46 8.71-1.36 2.83-.39 5.59-1.2 8.21-2.42 4.33-2.01 8.26-4.89 12.03-8.84.76-.8 1.83-1.26 2.93-1.26h15.47c2.03 0 3.92.9 5.19 2.48 2.37 2.95 4.99 5.3 8.01 7.21 5.22 3.3 10.27 4.9 15.44 4.9 1.05 0 2.12-.07 3.17-.2 2.19-.28 4.11-.69 5.86-1.26 3.18-.49 5.84-1.3 8.33-2.54 4.02-2 7.61-4.83 11.27-8.91 3.69-4.1 6-8.64 7.42-11.7 2.21-4.77 3.81-9.24 4.88-13.67l.26-1.07c.5-2.06 1.01-4.18 1.47-6.37.4-1.91.67-3.71.93-5.44l.07-.49c.36-2.39.71-4.74 1-7.16.25-2.05.47-4.22.68-6.82.2-2.42.43-5.23.57-8.05.15-2.85.25-5.71.36-8.48l.1-2.72.07-1.86c.28-6.94.56-14.12.31-21.4l-.02-.46c-.04-1.27-.09-2.58-.15-3.91l-.09-1.9c-.16-3.19-.33-6.8-.53-10.28-.07-1.27-.19-2.45-.29-3.59-.06-.68-.13-1.32-.18-1.95-.05-.61-.09-1.23-.13-1.88v-.05c-.07-1.06-.14-2.27-.26-3.51-.19-1.91-.56-3.59-1.14-5.15-.28-.76-.62-1.49-.99-2.2.03 0 .07-.01.1-.01 1.37-.15 2.87-.36 4.55-.87 7.03-2.14 11.93-8.76 11.93-16.08.01-7.29-4.66-13.69-11.62-15.94z" fill="#fff"/><g><path d="m23.04 257.55c-1.66.12-2.9.23-4.15.3-3.06.17-5.64-.77-7.14-3.59-1.49-2.79-1.01-5.48.9-7.93 5.79-7.44 11.59-14.88 17.41-22.31 26.58-33.89 53.17-67.77 79.76-101.66.65-.82 1.28-1.67 2-2.42 2.92-3.04 6.43-3.35 9.89-.9.68.48 1.32 1.04 1.95 1.58 39.96 34.39 79.91 68.77 119.86 103.17.95.82 1.92 1.64 2.76 2.57 3.92 4.34 1.94 10.39-3.79 11.58-1.32.27-2.68.34-4.16.51-.12.7-.27 1.29-.31 1.88-.35 5.65-2.76 10.3-7.08 13.87-3.15 2.6-6.48 4.97-9.79 7.37-11.81 8.55-23.11 17.7-33.82 27.61-7.07 6.54-14.39 12.83-21.77 19.01-2.79 2.33-6.03 4.16-9.17 6.03-8.18 4.86-16.93 5.66-26.08 3.4-8.79-2.17-17.11-5.56-25.25-9.44-8.51-4.05-16.99-8.15-25.5-12.2-8.81-4.19-17.21-9.09-25.39-14.41-6.75-4.4-13.66-8.56-20.6-12.67-4.62-2.72-8.79-5.75-10.53-11.35z" fill="#efccae"/><g><g><path d="m205.47 159.61c-.57 3.18-1.09 6.36-1.72 9.52-1.28 6.38-2.61 12.75-3.46 19.21-1.26 9.62-.76 19.14 1.63 28.54 1.75 6.88 2.65 13.87 2.66 20.96.01 5.35-1.12 10.51-2.68 15.6-2.11 6.93-5.91 12.89-10.33 18.52-2.77 3.53-5.51 7.1-8.12 10.74-2.26 3.15-3.76 6.69-4.44 10.52-.31 1.78-.27 3.62-.51 5.42-.29 2.15-.59 4.3-1.08 6.41-.91 3.94-3.13 7.09-6.31 9.53-2.96 2.27-6.05 4.39-9 6.67-3.16 2.43-6.27 4.93-9.32 7.49-1.91 1.6-4.05 2.62-6.48 3.06-1.44.26-1.79.01-1.92-1.45-.01-.15.03-.33-.04-.44-1.1-1.96-.77-4.05-.41-6.07 1.23-6.9 2.44-13.82 4.87-20.43 1.34-3.64 2.75-7.26 4.14-10.88 1.86-4.85 4.54-9.22 7.69-13.33 1.17-1.52 2.31-3.06 3.5-4.57 3.96-5.02 6.33-10.74 7.69-16.94.72-3.26 1.16-6.56 1.3-9.89.25-5.85.52-11.7.75-17.55.28-6.82 1.61-13.4 4.41-19.66 2.16-4.84 4.52-9.58 7.34-14.08 2.33-3.72 4.52-7.53 6.93-11.2 3.35-5.07 5.73-10.52 7.13-16.43.91-3.83 2.02-7.6 3.04-11.4.07-.24.15-.48.24-.72.23-.64.65-1.07 1.36-.92.66.14 1.05.63 1.05 1.31.01.81-.07 1.61-.11 2.42.06.02.13.03.2.04z" fill="#446c54"/><path d="m191.62 199.52c-.51 2.62-1.16 5.26-1.62 7.95-1.26 7.48-1.96 14.99-1.77 22.59.09 3.72 0 7.47-.3 11.18-.33 4-1.88 7.73-3.3 11.45-1.08 2.82-2.41 5.54-3.68 8.29-1.84 3.98-3.85 7.88-5.06 12.13-.78 2.76-1.63 5.51-2.59 8.22-1.28 3.59-3.07 6.96-5.7 9.73-5.11 5.38-8.52 11.69-10.91 18.65-1.43 4.15-2.87 8.29-3.68 12.62-.12.64-.37 1.26-.63 1.86-.21.5-.62.84-1.2.69-.66-.17-.82-.72-.69-1.32.45-2.12.85-4.26 1.42-6.35 1.37-5.07 3.25-9.97 5.31-14.8 1.67-3.93 3.95-7.52 6.89-10.61 4.43-4.66 7.25-10.17 8.81-16.33 1.42-5.62 3.73-10.86 6.33-16 2.65-5.24 4.77-10.69 6.1-16.41.52-2.24.63-4.59.7-6.9.1-3.38.05-6.76-.04-10.14-.11-4.31.48-8.56.9-12.82.47-4.79 1.75-9.41 2.74-14.1.14-.65.38-1.18 1.14-1.16.63.03 1.01.64.83 1.58z" fill="#2e5f44"/></g><path d="m118.2 335.63c-.29-4.42-1.09-8.82-.64-13.28.06-.55-.02-1.11-.03-1.66-.06-1.8-.31-3.61-.49-5.4-.17-1.61-.22-3.29-.56-4.88-.12-.56-.25-1.12-.37-1.67-.4-1.82-.81-3.63-1.22-5.44-.29-1.28-.57-2.56-.86-3.85-.01-.04-.02-.07-.02-.11-1.11-4.94-1.93-9.94-1.73-15 .21-5.29.69-10.58 1.23-15.85.5-4.92 1.32-9.8 1.82-14.72.98-9.66-.12-19.07-4.12-27.98-2.76-6.17-5.71-12.26-8.77-18.29-2.24-4.42-3.37-9.04-3.5-13.96-.16-6.32.32-12.61.83-18.9.39-4.78.91-9.56.47-14.36-.95-10.23-3.87-19.88-8.63-28.97-1.16-2.21-2.43-4.42-3.78-6.52-1-1.55-2.65-3.52-4.23-4.49-.97-.6-2.23-.57-2.15.86.08 1.46.66 2.9.89 4.36.25 1.6.35 3.23.35 4.85-.01 3.29-.46 6.59-1.25 9.79-1.99 8.08-4.16 16.11-6.33 24.15-.95 3.51-1.71 7.05-2.22 10.66-.92 6.47-.22 12.87.4 19.31.72 7.52 3.1 14.37 7.1 20.69 2.39 3.78 4.18 7.82 5.57 12.06 2.33 7.11 2.94 14.27 1.03 21.6-1.22 4.68-2.21 9.43-3.22 14.17-1.71 8.04-1.98 16.1-.32 24.2 1.77 8.64 4.52 16.96 8.24 24.95 2.27 4.88 3.85 9.96 5.18 15.15.46 1.8 1.03 3.59 1.72 5.32 1.18 2.94 3.2 5.25 5.86 6.95 3.02 1.92 6.68 1.14 8.63-1.84.71-1.09 1.23-2.31 1.82-3.48.19-.38.37-.77.56-1.16.31.86.34 1.69.48 2.5.09.53.27 1.09.57 1.52.18.25.74.42 1.04.32.3-.09.55-.52.71-.86.1-.19-.04-.49-.06-.74z" fill="#446c54"/><path d="m193.35 151.68c-.56-.22-.97.09-1.29.53-.15.2-.26.44-.34.67-1.18 3.22-2.51 6.4-3.48 9.68-1.99 6.68-4.58 13.14-6.83 19.73-1.11 3.24-2 6.56-3.08 9.81-2.35 7.14-4.75 14.26-7.13 21.39-2.3 6.89-4.65 13.76-6.85 20.68-1.22 3.85-2.31 7.73-4.1 11.37-.45.92-1.1 1.85-.52 3 .08.16-.12.47-.18.71-1.3 4.56-2.65 9.1-3.91 13.67-2.25 8.13-5.22 16.01-7.96 23.97-.09.25-.28.47-.45.69-.01.05-.03.1-.04.15-.05.16-.11.32-.17.48-.25.96-.5 1.91-.75 2.87 0 .04.01.07.01.11-.02.04-.05.07-.08.11-.86 2.81-1.73 5.62-2.59 8.43-.09-.03-.18-.05-.28-.08.06-.28.09-.57.17-.84.69-2.2 1.38-4.41 2.11-6.6.11-.33.37-.61.59-.91.01-.05.03-.1.04-.14.01-.03.01-.05.02-.08-.11-1.05.38-1.95.75-2.87.05-.17.09-.35.14-.52.03-.04.05-.07.08-.11.94-3.51 1.95-6.99 2.81-10.51 2.01-8.23 4.13-16.44 5.89-24.73 2.71-12.79 4.53-25.74 6.56-38.65 1.5-9.53 2.48-19.12 3.17-28.74.26-3.62.66-7.24.99-10.85.03-.35.14-.75.02-1.04-.13-.33-.43-.69-.75-.81-.47-.17-.88.11-1.06.6-.09.24-.14.48-.18.73-.22 1.6-.5 3.19-.65 4.8-.56 6.18-.94 12.39-1.64 18.55-.77 6.77-1.73 13.52-2.76 20.25-1.36 8.83-2.9 17.62-4.33 26.44-2.1 12.92-5.39 25.57-8.82 38.18-2.35 8.61-5.23 17.07-7.89 25.59-.05.15-.21.26-.41.49 0-.33-.02-.48-.01-.63.38-6.61.49-13.22.07-19.83-.3-4.7.37-9.26 1.62-13.76 1.04-3.74 3.02-7.02 5.12-10.25 2.36-3.64 4.6-7.35 6.11-11.46 1.92-5.24 3.44-10.56 3.45-16.2 0-2.82-.09-5.65-.17-8.47-.1-3.82-.9-7.5-2.11-11.11-1.17-3.5-1.98-7.09-2.51-10.74-.6-4.21-.85-8.44-.58-12.68.17-2.62.47-5.23.87-7.82.59-3.78.68-7.65 1.94-11.32.34-1 .04-1.7-.63-1.93-.65-.22-1.37.22-1.61 1.22-.65 2.69-2.03 5.05-3.36 7.42-4.14 7.35-7.73 14.97-11.13 22.68-3.02 6.87-4.81 13.99-4.92 21.54-.08 5.1-.44 10.19-.69 15.28-.27 5.58-1.17 11.04-3.25 16.25-.99 2.48-1.98 4.97-2.97 7.45-1.61 4.03-3.24 8.05-4.81 12.09-.45 1.15-.73 2.38-1.08 3.57-.25-.65-.25-1.28-.22-1.91 1.14-24.86 2.22-49.73 3.44-74.59.51-10.33 1.34-20.65 2.03-30.98.35-5.19.71-10.37 1.06-15.56.12-1.76.24-3.53.31-5.29.04-1.07-.3-1.6-.92-1.63-.64-.03-.96.43-1.04 1.55-.64 8.51-1.24 17.02-1.93 25.52-1.01 12.38-1.69 24.78-2.2 37.19-.71 17.4-1.68 34.79-2.43 52.19-.32 7.36 1.35 38.22 1.42 39.27.26 4.08.62 8.15.79 12.23.2 5.01.88 9.95 2.06 14.81.31 1.26.77 2.52 1.39 3.65.82 1.52 2.24 2.09 3.97 1.87 1.44-.18 2.54-.93 3.48-1.96.6-.66 1.17-1.33 1.8-2.04.14.51.13 1.03.38 1.25.58.51.63 1.06.49 1.75-.11.53.04 1.03.65 1.2.66.18 1.08-.19 1.29-.76.25-.66.48-1.33.6-2.02.78-4.64 1.99-9.13 3.78-13.51 2.44-5.97 4.68-12.03 6.85-18.11 1.98-5.56 3.75-11.19 5.62-16.79 2.39-7.18 4.85-14.33 7.14-21.54 1.63-5.14 3.01-10.36 4.53-15.54.52-1.79 1.01-3.59 2.35-5.02.28-.3.46-1.12.27-1.35-.64-.77-.24-1.4.01-2.1.37-1.05.72-2.1 1.06-3.15 3.32-10.22 6.62-20.44 9.95-30.65 2.11-6.47 4.27-12.93 6.41-19.39.51-1.53.98-3.08 1.52-4.6 1.6-4.46 3.26-8.9 4.83-13.37 1.64-4.66 3.19-9.35 4.78-14.03.31-.91.62-1.81.9-2.73.18-.59.01-1.12-.6-1.36z" fill="#446c54"/><g fill="#2e5f44"><path d="m92.45 265.21c.38-2.85 1.1-8.51 1.89-14.16.46-3.3 1.07-6.58 1.55-9.87.67-4.61-.02-9.16-.63-13.71-.56-4.18-1.64-8.21-3.3-12.08-3.81-8.92-6.27-18.2-7.68-27.78-.65-4.38-.45-8.76-.08-13.14.55-6.49 1.09-12.98 1.71-19.46.35-3.61.85-7.21 1.31-10.82.04-.34.13-.75.36-.96.25-.24.73-.46 1.03-.38s.53.51.72.84c.09.14.02.4-.02.59-1.18 6.33-1.19 12.76-1.76 19.14-.31 3.47-.62 6.94-1.02 10.4-.7 6.06-.42 12.05.71 18.07 1.43 7.63 3.54 15.03 6.6 22.14 2.9 6.74 3.93 13.85 4.51 21.06.3 3.76-.41 7.44-.98 11.13-1.32 8.53-2.86 17.03-3.02 25.69-.09 5.03.62 9.96 2.17 14.76 1.88 5.81 4.13 11.5 5.43 17.48 1.03 4.73 1.83 9.51 2.76 14.26.42 2.13.91 4.24 1.37 6.36.05.25.19.53.12.73-.13.35-.33.8-.62.92-.28.11-.9-.03-1.04-.27-.41-.68-.78-1.43-.94-2.19-.64-3.01-1.32-6.02-1.77-9.06-1.31-8.88-3.82-17.43-6.84-25.85-2.47-6.82-3.25-13.83-2.54-23.84z"/><path d="m123.49 290.83c.2-7.66 2.12-14.96 5.18-21.94 2.22-5.09 4.44-10.16 5.85-15.55 1.44-5.46 2.1-10.98 1.78-16.63-.56-9.94.34-19.76 2.69-29.44.85-3.48 1.65-6.97 2.54-10.44.39-1.51.95-2.97 1.43-4.46.17-.54.51-.93 1.09-.82.67.12.84.65.79 1.27-.02.25-.08.5-.14.74-.95 3.76-1.93 7.51-2.86 11.28-1.39 5.64-2.57 11.31-3.1 17.11-.49 5.44-.44 10.89-.19 16.33.27 5.76-.67 11.36-2.25 16.87-1.2 4.17-2.68 8.24-4.55 12.17-2.95 6.19-4.91 12.69-5.89 19.48-.54 3.76-.44 7.55-.3 11.33.22 5.9.43 11.8.61 17.69.06 1.92.01 3.83 0 5.75 0 .4.05.86-.11 1.19-.17.35-.57.8-.88.81-.32.01-.8-.4-.94-.74-.21-.49-.21-1.08-.23-1.63-.26-8.52-.52-17.04-.73-25.56-.05-1.58.13-3.2.21-4.81z"/><path d="m121.44 322.35c-.07 1.36-.13 2.72-.21 4.08-.02.3-.03.66-.2.87-.22.28-.61.63-.9.61-.31-.02-.68-.39-.85-.7-.15-.28-.09-.69-.06-1.04.36-4.7-.24-9.37-.34-14.06-.18-7.96-1.89-15.71-3.1-23.52-1.18-7.67-2.55-15.32-3.61-23.01-.91-6.59-1.69-13.21-1.87-19.87-.01-.5-.04-1.02.05-1.51.07-.38.26-.77.5-1.06.34-.41.82-.6 1.35-.31.55.3.76.74.62 1.38-.14.62-.29 1.28-.24 1.9.33 4.37.68 8.74 1.07 13.11.82 9.2 2.68 18.25 4.09 27.37.85 5.48 1.99 10.92 2.58 16.43.69 6.41.91 12.87 1.34 19.31-.08.01-.15.01-.22.02z"/><path d="m165.21 264.02c-.16.42-.23.72-.38.98-3.6 6.45-6.39 13.26-8.91 20.18-2.7 7.4-5.87 14.59-8.86 21.86-2.05 4.99-3.84 10.08-6.35 14.88-.37.71-.59 1.5-.89 2.25-.13.33-.22.72-.46.94-.26.24-.77.51-1.01.4-.33-.15-.62-.61-.72-.99-.08-.29.12-.68.26-1 .89-2.09 1.83-4.15 2.68-6.25 1.86-4.58 3.51-9.25 5.55-13.74 4.25-9.32 7.4-19.08 11.44-28.48 1.45-3.38 3.09-6.68 4.67-10 .28-.59.63-1.18 1.09-1.62.25-.25.84-.33 1.2-.22.31.07.49.54.69.81z"/></g><g><path d="m135.82 113.88c.89-.42 1.62-.71 2.32-1.09 3.42-1.86 5.05-1.51 7.37 1.57 2.04 2.71 2.95 5.84 3.36 9.13.66 5.22.85 10.47.4 15.71-.42 4.8-1.55 9.44-3.64 13.83-2.31 4.85-4.94 9.48-8.71 13.39-3.04 3.16-6.41 5.84-10.63 7.27-2.28.78-4.67.85-7.02.9-1.55.03-2.84-.96-3.89-2.11-1.85-2.02-3.46-4.21-4.71-6.65-2.83-5.53-4.61-11.41-5.75-17.48-1.57-8.33-1.78-16.75-1.16-25.18.29-3.89 1.68-7.46 3.66-10.8.63-1.06 1.48-1.9 2.62-2.44 1.81-.87 3.08-.55 4.11 1.15.47.77.85 1.61 1.28 2.4.26.47.54.92.83 1.4.99-.36 1.14-1.13 1.34-1.84.58-1.99 1.28-3.93 2.47-5.66 1.59-2.33 3.74-3.92 6.55-4.17 4.34-.39 7.17 1.02 8.23 5.47.29 1.22.41 2.49.62 3.73.07.41.19.83.35 1.47z" fill="#ff7772"/><path d="m119.4 136.34c.14-.4.27-.81.43-1.21.71-1.72 1.34-3.48 2.18-5.14.69-1.36 1.77-2.45 3.14-3.19 1.92-1.04 3.63-.57 4.48 1.45.5 1.18.62 2.52.87 3.8.08.38.03.79.23 1.21.43-2.05.78-4.12 1.31-6.14 1.08-4.04 2.25-8.06 3.4-12.08.19-.67.41-1.4 1.5-1.15-.05.23-.07.47-.15.68-2.17 5.73-3.54 11.67-4.71 17.66-.45 2.33-.85 4.67-1.38 6.98-1.66 7.27-3.42 14.51-5.04 21.78-.88 3.94-1.55 7.91-2.32 11.87-.09.49-.19.97-.3 1.5-.63.06-1.17.12-1.88.19 0-.58-.01-1.06.01-1.55.28-8.8-.5-17.53-1.79-26.23-.13-.85-.22-1.7-.35-2.55-.05-.29-.09-.69-.29-.82-.59-.38-.59-.9-.47-1.45.44-1.92.02-3.81-.21-5.71-.96-7.76-1.94-15.51-3.48-23.18-.04-.19-.01-.39-.02-.63.78.6 1.31 1.52 1.54 2.89.67 4.08 1.34 8.16 1.94 12.25.43 2.89.75 5.79 1.12 8.69.07.05.15.06.24.08zm2.98 34.7c.21-.75.36-1.16.43-1.59 1.2-7.48 3.1-14.81 5.04-22.11 1.39-5.26 1.65-10.53 1.46-15.88-.03-.98-.36-1.99-.77-2.89-.58-1.27-1.49-1.5-2.75-.87s-2.23 1.61-2.85 2.84c-2.01 4.03-3.9 8.1-2.97 12.82.15.79.21 1.6.33 2.4.84 5.64 1.53 11.29 1.78 16.99.13 2.64.2 5.29.3 8.29z" fill="#9e4f40"/></g><g><path d="m114.66 220.92c.58-.81 1.01-1.43 1.46-2.03 1.57-2.09 3.42-3.84 5.82-4.95 2.64-1.23 4.79-.51 5.94 2.17.59 1.37.82 2.88 1.26 4.47.26-.21.59-.45.9-.73 1.66-1.5 3.51-2.7 5.58-3.57 2.31-.97 4.35-.48 6.17 1.12 1.73 1.52 2.73 3.47 3.28 5.68.94 3.79.91 7.63.25 11.43-1.41 8.19-3.84 16.08-7.55 23.54-1.24 2.49-2.72 4.86-4.75 6.79-3.33 3.16-7.39 4.85-11.87 5.56-2.24.35-4.49.58-6.77.05-1.49-.35-2.61-1-3.08-2.55-.09-.31-.34-.62-.59-.82-1.79-1.37-2.85-3.25-3.7-5.26-1.6-3.8-2.45-7.79-2.94-11.86-.6-4.96-1.16-9.92-1.6-14.89-.33-3.72-.4-7.46.1-11.18.33-2.42.98-4.75 2.1-6.91.41-.8.9-1.59 1.48-2.27 1.88-2.23 4.09-2.25 5.81.08.88 1.2 1.44 2.64 2.08 4 .27.58.37 1.24.62 2.13z" fill="#ff7772"/><path d="m118.62 270.76c-.71 0-1.28 0-1.94 0 .33-2.7.72-5.24.92-7.79.33-4.22.66-8.45.76-12.69.11-5-.21-10-.97-14.94-.67-4.33-1.57-8.63-2.37-12.94-.21-1.11-.21-1.11.65-2.02.62 2.8 1.23 5.55 1.91 8.57.4-.58.67-.97.93-1.37.8-1.19 1.77-2.21 3.05-2.88 1.97-1.03 3.66-.44 4.6 1.59.27.59.51 1.19.82 1.94.91-1.92 1.73-3.68 2.57-5.43.48-1 1.02-1.97 1.51-2.97.46-.95 1.17-1.62 2.41-2.08-.28.51-.46.84-.65 1.17-3.88 6.8-6.76 13.99-8.35 21.66-1.59 7.71-3.06 15.44-4.57 23.16-.42 2.26-.82 4.54-1.28 7.02zm.39-8.27c-.01.01-.02.02-.03.03.05-.45.08-.9.16-1.34.97-4.94 1.84-9.9 2.94-14.81 1.06-4.71 2.21-9.41 3.59-14.04.67-2.26.22-4.15-.77-6.06-.5-.96-1.3-1.23-2.31-.83-.6.23-1.24.54-1.66 1-.88.96-1.61 2.04-2.42 3.07-.61.77-.68 1.62-.54 2.57.35 2.34.68 4.68.94 7.03.68 6.17.64 12.37.34 18.56-.07 1.61-.16 3.22-.24 4.82z" fill="#9e4f40"/></g><g><path d="m195.83 111.5c.38-.37.66-.63.92-.9 1.83-1.91 3.85-3.57 6.23-4.75.81-.4 1.66-.77 2.53-.97 2.5-.57 4.49.39 5.64 2.71 1 2.02 1.52 4.16 1.34 6.44-.04.54-.06 1.07-.09 1.76.57-.24 1.03-.42 1.48-.61 3.82-1.58 8.26-.15 10.44 3.38 1.2 1.94 1.69 4.09 1.82 6.33.15 2.56-.32 5.02-1.11 7.44-2.23 6.92-6.24 12.71-11.16 17.98-5.19 5.56-11.52 9.29-18.54 11.93-1.81.68-3.85 1.15-5.75 1.06-2.39-.11-4.6-1.11-5.74-3.56-.3-.64-.67-1.24-1.07-1.82-5.78-8.2-8.03-17.34-6.89-27.24.66-5.78 2.26-11.38 4.67-16.7 1.58-3.49 4.16-6.14 7.17-8.45 2.29-1.76 6.71-1.12 7.5 2.76.2 1.01.39 2.03.61 3.21z" fill="#ff7772"/><path d="m212.39 114.87c.06.86-.15 1.62-.62 2.38-1.72 2.85-3.41 5.71-5.06 8.6-2.04 3.57-4.1 7.14-6.01 10.78-1.92 3.66-3.71 7.39-5.47 11.12-2.19 4.65-4.19 9.38-5.65 14.33-.11.38-.27.75-.43 1.2-.36-.09-.67-.17-.95-.24-.01-.2-.05-.3-.02-.39 1.55-5.18 2.67-10.45 3.21-15.83.67-6.67 1.31-13.34 1.94-20.02.45-4.72.87-9.44 1.32-14.15.12-1.25.32-2.48.6-3.72 1.19 3.65-.31 7.3-.03 11.21.41-.41.69-.67.95-.94.9-.93 1.99-1.54 3.22-1.9 2.49-.73 4.51.16 5.6 2.53.41.91.66 1.9.95 2.86.13.43.19.88.34 1.6 2-3.32 3.88-6.44 5.75-9.55.12.05.24.09.36.13zm-20.6 37.61c.29-.54.46-.82.59-1.12.52-1.15.99-2.31 1.54-3.45 3.38-7.04 6.79-14.06 10.78-20.78.22-.38.41-.84.42-1.26.06-1.99-.3-3.92-1.2-5.71-.63-1.24-1.59-2.06-3.1-2.02-2.65.07-5.79 2.87-6.05 5.49-.48 4.81-.91 9.63-1.36 14.44-.16 1.76-.31 3.51-.51 5.26-.34 2.96-.71 5.9-1.11 9.15z" fill="#9e4f40"/></g><g><path d="m152.66 160.28c.08-.79.11-1.6.26-2.38.24-1.23.44-2.49.87-3.67 1.61-4.41 4.88-5.73 9.48-4.34 1.83.55 3.16 1.72 3.82 3.88.46-.79.75-1.29 1.04-1.79.74-1.28 1.64-2.42 2.89-3.25 1.87-1.24 3.59-1.08 5.22.46 1.02.96 1.64 2.17 2.08 3.47.85 2.46 1.12 5.01.97 7.6-.43 7.5-1.82 14.81-4.35 21.88-1.41 3.94-2.77 7.9-4.42 11.74-1.84 4.29-4.94 7.7-8.38 10.79-.89.8-1.3.73-2.15-.12-.17-.16-.36-.33-.57-.41-1.26-.49-2.54-.94-3.8-1.42-1.86-.72-3.11-2.19-4.38-3.63-.66-.76-1.31-1.53-1.98-2.28-3.09-3.48-4.91-7.63-6.02-12.07-1.36-5.42-1.41-10.88.3-16.27.12-.38.26-.77.41-1.14 1.6-3.92 4.16-6.65 8.71-7.05z" fill="#ff7772"/><path d="m151.94 160.78c.81-.31 1.33-.02 1.66.65.54 1.08 1.07 2.17 1.59 3.26.25.52.48 1.06.83 1.86.31-.79.51-1.29.71-1.8.62-1.57 1.47-2.99 2.87-4 1.79-1.3 3.3-.77 3.88 1.38.21.77.29 1.58.48 2.62.21-.48.37-.75.45-1.05.66-2.54 1.37-5.06 1.92-7.62.34-1.59 1.32-2.75 2.28-3.98-.65 2.37-1.31 4.74-1.95 7.12-2.19 8.2-3.81 16.51-4.53 24.97-.29 3.41-.45 6.84-.43 10.26.02 3.12.37 6.24.56 9.35.07 1.22-.16 1.4-1.61 1.26-.06-1.63-.13-3.28-.17-4.93-.12-5.24-.02-10.49-.74-15.7-.59-4.3-1.55-8.53-2.79-12.69-.14-.45-.49-.84-.73-1.26-.17-.3-.43-.58-.49-.9-.58-2.95-1.93-5.58-3.42-8.15-.12-.22-.24-.43-.37-.65zm9.01 23.19c.29-2.18.6-4.02.77-5.86.32-3.59 1.64-7.07 1.23-10.74-.16-1.45-.18-2.92-.42-4.36-.11-.64-.45-1.49-.94-1.76-.73-.4-1.4.35-1.93.86-1.59 1.53-2.28 3.53-2.75 5.62-.08.35.08.78.19 1.16.65 2.17 1.41 4.31 1.97 6.5.69 2.72 1.21 5.48 1.88 8.58z" fill="#9e4f40"/></g><g><path d="m165.64 243.09c1.57-.85 2.93-1.62 4.32-2.31.76-.38 1.58-.7 2.4-.88 1.86-.42 3.18.51 3.48 2.39.08.49.05 1 .08 1.6.43-.13.8-.25 1.17-.34.88-.22 1.75-.5 2.64-.62 1.71-.23 2.95.54 3.55 2.15.74 1.95.69 3.98.29 5.97-.63 3.18-1.75 6.2-3.26 9.08-2.65 5.05-6.96 7.53-12.5 8.08-1 .1-2.01.1-3.02.11-.4 0-.83-.02-1.19-.16-.46-.18-.9-.44-1.28-.76-1.3-1.08-2.92-1.84-3.33-3.76-1.43-6.77-2.2-13.54-.36-20.36.44-1.62 1.18-3.11 2.23-4.43 1.16-1.46 2.6-1.4 3.5.23.43.78.65 1.68.93 2.54.16.43.22.88.35 1.47z" fill="#ff7772"/><path d="m166.45 243.28c.07 1.14.13 2.28.2 3.44 4.17-1.35 4.73-1.08 5.56 2.88.49-.6.91-1.07 1.28-1.57.77-1.06 1.53-2.13 2.26-3.22.42-.62.9-1.06 1.94-.96-1.2 1.74-2.24 3.43-3.46 4.99-3.02 3.87-5.55 8.04-7.71 12.43-1.06 2.16-1.87 4.45-2.84 6.8-.33-.11-.67-.21-1.01-.32.61-1.76 1.3-3.38 1.72-5.06 1.13-4.57 1.57-9.2 1.08-13.92-.16-1.58 0-3.2.08-4.8.01-.3.36-.57.55-.86.11.05.23.11.35.17zm.03 15.42c1.36-2.23 2.69-4.26 3.84-6.38.67-1.24.86-2.67.5-4.1-.28-1.13-.9-1.52-2.02-1.17-.56.17-1.12.48-1.58.84-.27.21-.5.65-.52 1-.1 3.21-.15 6.42-.22 9.81z" fill="#9e4f40"/></g></g><g><path d="m248.02 229.84c1.73 2.4 1.83 4.96 2.01 7.42 1.92 25.61 3.79 51.22 5.65 76.83 1.13 15.58 2.24 31.15 3.33 46.73.1 1.46.13 2.94-.03 4.39-.62 5.51-4.51 9.81-10.01 10.63-5.59.83-11.24 1.3-16.86 1.86-14.39 1.44-28.78 2.84-43.17 4.25-11.47 1.12-22.94 2.22-34.42 3.35-14.18 1.39-28.36 2.79-42.54 4.18-11.58 1.13-23.15 2.24-34.73 3.38-11.99 1.17-23.98 2.37-35.97 3.55-2.09.2-4.18.41-6.27.46-7.25.18-12.48-4.31-13.22-11.53-.74-7.19-1.28-14.41-1.88-21.61-1.19-14.2-2.37-28.41-3.55-42.61-.91-10.97-1.82-21.94-2.73-32.9-.77-9.3-1.57-18.59-2.3-27.89-.18-2.29-.34-4.61-.22-6.9.18-3.52 1.79-6.36 4.46-8.46 4.62 2.7 8.96 5.42 13.47 7.82 5.45 2.9 11.03 5.53 16.57 8.26 2.81 1.39 5.64 2.73 8.45 4.14 7.75 3.89 15.39 8.47 23.15 12.35 7.48 3.74 14.75 7.39 22.24 11.12 10.38 5.17 20.68 10.33 31.05 15.52 2.99 1.5 6.35 2.42 9.29 4.01 1.75.95 3.38.96 5-.19.77-.55.95-.56 1.7-1.27 3.01-1.39 5.34-3.45 7.41-5.1 2.55-1.51 4.83-3.24 7.18-5.1 3.45-2.72 7.12-5.26 10.66-7.88 4.62-3.42 9.75-7.46 14.36-10.89 3.95-2.94 7.2-5.61 11.12-8.57.9-.68 1.79-1.29 2.78-1.85.36-.21 1.18-.87 1.39-1.16 4.87-3.24 8.52-6.13 12.28-9.27 7.31-6.1 13.81-11.46 21.34-17.3 2.89-2.24 5.69-4.58 8.6-6.8 1.35-1.09 2.87-1.97 4.41-2.97z" fill="#efccae"/><path d="m209.53 338.44c-14.82-9.12-27.71-16.28-38.31-21.28-12.18-5.74-21.37-8.63-27.35-8.6 13.79-6.77 100.43-75.47 104.29-78.53l-.29-.36c-.99.79-99.3 78.73-105.53 78.97h-.01c-.01 0-.02 0-.02 0-6.5 0-125.45-63.25-126.65-63.89l-.22.41c4.72 2.51 111.38 59.21 125.61 63.66-5.98 1.11-15.31 5.91-27.76 14.31-10.68 7.2-23.67 17.05-38.62 29.27-25.46 20.81-48.07 41.56-48.29 41.77l.31.34c.23-.21 22.83-20.95 48.28-41.75 33.65-27.5 56.96-42.6 67.4-43.67s33.58 9.22 66.92 29.74c25.22 15.52 47.59 31.57 47.81 31.73l.27-.38c-.22-.15-22.61-16.21-47.84-31.74z" fill="#75544d"/></g></g><path d="m234.13 203.39c0-4.36-3.53-7.89-7.89-7.89 4.36 0 7.89-3.53 7.89-7.89 0 4.36 3.53 7.89 7.89 7.89-4.36 0-7.89 3.54-7.89 7.89z" fill="#75544d"/><path d="m268.41 332.53c0-4.46-3.62-8.08-8.08-8.08 4.46 0 8.08-3.62 8.08-8.08 0 4.46 3.62 8.08 8.08 8.08-4.47.01-8.08 3.62-8.08 8.08z" fill="#ffe3c6"/><path d="m373.6 230.96c0-3.15-2.56-5.71-5.71-5.71 3.15 0 5.71-2.56 5.71-5.71 0 3.15 2.56 5.71 5.71 5.71-3.16 0-5.71 2.56-5.71 5.71z" fill="#75544d"/><path d="m321.1 343.4c0-4.91-3.98-8.89-8.89-8.89 4.91 0 8.89-3.98 8.89-8.89 0 4.91 3.98 8.89 8.89 8.89-4.92 0-8.89 3.98-8.89 8.89z" fill="#75544d"/><path d="m235.31 172.39c0-8.01-6.5-14.51-14.51-14.51 8.01 0 14.51-6.5 14.51-14.51 0 8.01 6.5 14.51 14.51 14.51-8.01 0-14.51 6.5-14.51 14.51z" fill="#ffe3c6"/><g><g><g fill="#75544d"><path d="m363.25 178.36c.03 4.55-.26 9.08-.65 13.6-.22 2.56-.58 5.11-.94 7.66-.3 2.12-.64 4.25-1.06 6.35-1.24 6.16-3.06 12.12-6.31 17.57-1.15 1.92-2.43 3.74-4.01 5.34-2.5 2.53-5.49 4.11-8.99 4.76-4.12.77-7.9-.13-11.44-2.23-2.86-1.69-5.13-4.02-7.03-6.71-3.42-4.83-5.83-10.14-7.47-15.82-.79-2.76-1.4-5.55-1.75-8.39-.3-2.47-.6-4.95-.83-7.43-.48-5.08-.62-10.17-.43-15.27.07-1.86.14-3.71.27-5.57.11-1.51.29-3.01.46-4.51.19-1.71.36-3.43.59-5.14.18-1.31.42-2.62.66-3.92.24-1.28.47-2.55.79-3.81.51-2.03 1.07-4.04 1.64-6.05.3-1.04.63-2.08 1.05-3.08.31-.72.78-1.38 1.19-2.06.33-.54.73-1.05.99-1.61 1.25-2.69 2.78-5.2 4.91-7.29 2.43-2.38 5.36-3.88 8.64-4.69 1.23-.3 2.5-.49 3.76-.57 1.02-.06 2.07.04 3.09.21 3.12.53 5.91 1.83 8.41 3.76 2.63 2.02 4.67 4.54 6.39 7.35 2.05 3.35 3.59 6.92 4.68 10.68.74 2.57 1.42 5.16 1.97 7.77.49 2.33.75 4.71.95 7.09.34 4 .39 8.01.47 12.01zm-38.93 1.56c.07 5.63.16 10.43.72 15.22.28 2.42.61 4.83 1.09 7.23.68 3.42 1.79 6.7 3.29 9.85 1.18 2.48 2.51 4.86 4.34 6.93.89 1 1.87 1.88 3.14 2.38 1.06.41 2.12.39 3.18 0 1.2-.45 1.98-1.41 2.7-2.39 1.37-1.87 2.42-3.93 3.29-6.07 1.11-2.73 1.91-5.56 2.47-8.45.41-2.11.84-4.21 1.17-6.33.27-1.75.45-3.52.62-5.29.21-2.22.36-4.44.53-6.66.04-.5.08-1.01.09-1.51.08-2.92.27-5.84.19-8.76-.09-3.23-.07-6.48-.51-9.69-.24-1.76-.38-3.53-.74-5.27-.4-1.97-.93-3.91-1.49-5.84-.91-3.18-2.2-6.19-4.03-8.96-1.05-1.59-2.3-2.98-3.98-3.95-1.41-.82-2.89-.94-4.44-.47-1.89.57-3.22 1.78-4.16 3.48-1.03 1.86-1.82 3.82-2.43 5.86-.36 1.21-.87 2.33-1.69 3.3-.23.27-.38.63-.48.98-.21.79-.4 1.59-.54 2.4-.41 2.32-.84 4.64-1.17 6.98-.28 2-.47 4.01-.62 6.02-.22 3.26-.39 6.55-.54 9.01z"/><path d="m405.1 216.18c.15-.27.26-.41.31-.57.51-1.89 1.04-3.78 1.51-5.68.51-2.06.98-4.12 1.43-6.19.47-2.15.9-4.3 1.32-6.46.33-1.66.64-3.33.93-5 .3-1.75.55-3.51.85-5.26.29-1.72.6-3.45.9-5.17.2-1.18.39-2.35.59-3.53.19-1.15.4-2.3.59-3.45.24-1.44.47-2.88.68-4.32.23-1.52.45-3.04.66-4.56.11-.76.2-1.52.29-2.29.2-1.71.39-3.43.61-5.14.2-1.6.44-3.21.65-4.81.13-1 .24-2 .36-3 .1-.84.19-1.69.29-2.53.24-2.06.48-4.11.7-6.17.12-1.11.21-2.22.3-3.33.11-1.45.2-2.91.32-4.37.18-2.1.9-3.93 2.68-5.2 3.57-2.55 8.6-.45 9.24 3.9.15.99.15 2.01.07 3.01-.21 2.89-.48 5.77-.76 8.65-.19 1.93-.44 3.85-.67 5.77-.2 1.71-.39 3.43-.61 5.14-.2 1.61-.44 3.21-.65 4.81-.22 1.68-.41 3.37-.63 5.06-.22 1.68-.44 3.37-.68 5.05-.18 1.31-.38 2.62-.59 3.93-.22 1.36-.46 2.72-.69 4.08-.2 1.18-.39 2.35-.59 3.53-.21 1.23-.44 2.45-.65 3.68-.21 1.2-.4 2.4-.6 3.61-.22 1.33-.44 2.67-.67 4-.19 1.12-.38 2.25-.58 3.37-.28 1.54-.54 3.08-.85 4.61-.35 1.74-.73 3.47-1.13 5.2-.63 2.76-1.27 5.52-1.94 8.27-.95 3.89-2.19 7.69-3.46 11.48-.58 1.74-1.28 3.43-2.22 5.01-.73 1.22-1.58 2.33-2.7 3.22-2.93 2.33-6.75 2.22-9.55-.26-1.07-.95-1.87-2.1-2.53-3.35-1.36-2.59-2.41-5.31-3.21-8.12-1.13-3.97-2.24-7.95-3.28-11.95-.76-2.92-1.41-5.87-2.08-8.81-.76-3.3-1.44-6.62-2.23-9.92-.96-4.02-2.04-8-3.01-12.02-.74-3.09-1.4-6.2-2.06-9.31-.52-2.46-1.02-4.93-1.47-7.4-.36-1.98-.62-3.98-.93-5.97-.33-2.07-.68-4.13-1.01-6.2-.4-2.51-.77-5.03-1.16-7.54-.18-1.21-.41-2.41-.53-3.62-.15-1.48-.18-2.97.24-4.42.71-2.48 3.05-4.26 5.57-4.22 2.58.05 4.77 1.82 5.37 4.41.27 1.16.42 2.35.64 3.52.33 1.82.68 3.64 1 5.47.33 1.88.65 3.76.97 5.64.26 1.57.52 3.14.77 4.71.24 1.52.47 3.04.72 4.55.25 1.49.51 2.97.79 4.46.3 1.59.61 3.17.95 4.75.47 2.2.95 4.4 1.47 6.59.75 3.17 1.55 6.33 2.33 9.49.56 2.26 1.13 4.52 1.66 6.79.49 2.11.93 4.24 1.41 6.36.62 2.71 1.23 5.42 1.9 8.12.75 3.01 1.56 6 2.34 8.99.07.26.18.53.31.91z"/><path d="m458.37 138.38v1.01c-.05 3.74-.05 7.49-.16 11.23-.08 2.71-.3 5.41-.47 8.11-.12 2.04-.26 4.08-.38 6.12-.13 2.17-.24 4.35-.35 6.52-.18 3.47-.34 6.95-.51 10.42-.01.24 0 .47 0 .75.58.21 1.16.09 1.72.04 1.85-.18 3.69-.39 5.54-.59 1.63-.18 3.27-.36 4.9-.56 1.74-.21 3.47-.45 5.21-.65 1.32-.15 2.6.03 3.82.57 3.68 1.63 4.58 6.02 1.86 9.01-1.24 1.36-2.83 2.02-4.61 2.28-2.47.35-4.93.7-7.4 1.01-1.6.2-3.22.34-4.83.48-1.8.16-3.6.28-5.39.42-.39.03-.77.11-1.24.17-.12 9.56-.6 19.04-.59 28.59.25.01.44.06.61.03 2.43-.4 4.86-.8 7.29-1.21 1.85-.31 3.7-.65 5.56-.92 1.97-.29 3.94-.56 5.91-.78 1.74-.2 3.49-.33 5.23-.47.95-.08 1.91-.19 2.86-.17.71.01 1.44.13 2.11.35 2.49.8 4.09 3.04 4.09 5.58 0 2.55-1.73 4.92-4.23 5.68-.83.25-1.71.37-2.58.47-1.98.22-3.96.38-5.94.58-1.42.14-2.85.28-4.27.47-1.6.22-3.2.48-4.79.75-1.8.31-3.59.66-5.39.98-1.17.21-2.35.39-3.53.55-2.21.31-4.45.5-6.67.2-4.58-.61-7.61-3.64-8.23-8.11-.07-.52-.16-1.05-.16-1.58.11-6.77.23-13.54.36-20.32.08-4.28.18-8.55.3-12.82.11-3.77.25-7.54.39-11.31.09-2.36.18-4.72.31-7.08.15-2.76.35-5.51.52-8.26.01-.11.02-.21.02-.32.12-2.23.22-4.45.36-6.68.14-2.17.31-4.34.47-6.51.02-.26.04-.53.05-.8.16-5.87.3-11.74.47-17.6.02-.82.08-1.66.29-2.44.69-2.53 2.24-4.37 4.73-5.3 1.09-.41 2.23-.41 3.38-.22.55.09 1.11.14 1.66.17 1.19.07 2.39.13 3.58.17 1.38.04 2.76.08 4.14.08 1.51 0 3.03-.03 4.54-.06 2.55-.05 5.1-.12 7.64-.19.34-.01.69-.07 1.03-.11 1.59-.18 3.15-.05 4.57.73 2.02 1.1 3.18 2.82 3.14 5.16-.05 2.4-1.29 4.1-3.36 5.23-1.19.65-2.52.83-3.85.9-2.44.13-4.88.26-7.32.31-2.42.05-4.83.03-7.25.01-1.51-.01-3.03-.08-4.54-.12-.16 0-.31.03-.62.05z"/><path d="m274.49 221.74c.76-.1 1.38-.2 2.01-.25 2.56-.22 5.13-.45 7.69-.64 2.75-.2 5.51-.36 8.27-.52 3.66-.22 7.32-.23 10.99-.11 2.25.07 4.51.12 6.76.32 2.36.21 4.1 1.43 4.92 3.71.85 2.35.52 4.57-1.16 6.48-1.14 1.3-2.65 1.77-4.36 1.73-4.27-.1-8.55-.23-12.82-.2-2.86.02-5.72.31-8.58.47-1.33.08-2.65.16-3.98.2-3.3.11-6.56.52-9.81 1.01-1.05.16-2.11.24-3.17.25-4.01.05-6.43-2.55-7.29-5.62-.25-.91-.4-1.89-.37-2.83.09-3.29.29-6.58.44-9.86.12-2.49.27-4.99.34-7.48.19-7.49.41-14.97.49-22.46.12-10.25.15-20.5.18-30.75.01-3.85-.11-7.7-.1-11.55.01-3.74.06-7.49.43-11.22.15-1.47.52-2.87 1.43-4.09 1.97-2.63 5.59-2.62 7.54.02.58.78.98 1.65 1.14 2.6.11.65.19 1.32.19 1.98.03 8.13.09 16.25.07 24.38-.04 11.68-.12 23.37-.25 35.05-.07 5.87-.26 11.73-.46 17.6-.12 3.58-.35 7.16-.53 10.74-.02.3-.01.59-.01 1.04z"/></g><g fill="#ff7772"><path d="m357.69 176.01c.03 4.52-.27 9.03-.65 13.53-.22 2.56-.58 5.11-.94 7.66-.31 2.15-.65 4.3-1.08 6.43-1.27 6.29-3.14 12.38-6.54 17.9-1.47 2.39-3.14 4.61-5.35 6.37-2.18 1.74-4.65 2.82-7.39 3.34-4.92.93-9.23-.48-13.16-3.35-2.88-2.1-5.02-4.87-6.88-7.87-2.76-4.48-4.8-9.27-6.17-14.34-.67-2.48-1.2-5-1.52-7.55-.26-2.02-.54-4.05-.76-6.08-.14-1.26-.19-2.54-.26-3.81-.11-2.04-.25-4.08-.27-6.12-.02-2.79.08-5.57.13-8.36.01-.56.06-1.11.1-1.67.17-2.27.33-4.55.53-6.82.15-1.72.35-3.43.58-5.14.17-1.29.41-2.56.65-3.84.25-1.35.47-2.72.83-4.05.78-2.86 1.61-5.7 2.48-8.54.3-.99.88-1.86 1.54-2.68.33-.4.59-.88.81-1.36 1.2-2.6 2.66-5.02 4.68-7.07 2.49-2.53 5.51-4.12 8.93-4.95 1.2-.29 2.45-.5 3.69-.55 1.13-.05 2.29.06 3.4.27 6 1.15 10.3 4.76 13.65 9.67 2.53 3.72 4.33 7.78 5.58 12.09.74 2.57 1.41 5.16 1.97 7.77.49 2.3.73 4.66.94 7.01.36 4.04.4 8.08.48 12.11zm-38.91 1.32c.03 6.38.2 11.79.91 17.17.37 2.79.81 5.55 1.56 8.27 1.18 4.28 2.94 8.29 5.41 11.98 1.02 1.53 2.2 2.94 3.79 3.93 1.95 1.21 4.32.95 5.83-.82.67-.78 1.3-1.61 1.85-2.49 1.89-3.01 3.16-6.29 4.05-9.72.51-1.97.9-3.98 1.31-5.97.22-1.09.41-2.19.57-3.29.24-1.57.47-3.15.65-4.73.16-1.42.25-2.85.36-4.28.17-2.22.36-4.44.47-6.67.21-4.06-.02-8.12-.07-12.18 0-.16-.03-.32-.04-.48-.12-1.4-.21-2.8-.35-4.2-.13-1.32-.22-2.65-.49-3.94-.5-2.35-1.07-4.7-1.71-7.01-.89-3.21-2.2-6.25-4.05-9.04-1.04-1.57-2.27-2.93-3.92-3.9-1.43-.84-2.93-.97-4.51-.48-1.88.58-3.21 1.8-4.15 3.49-.89 1.61-1.62 3.28-2.16 5.03-.48 1.56-.99 3.08-2.12 4.32-.15.16-.23.42-.29.64-.81 3.11-1.27 6.28-1.71 9.46-.28 2.02-.48 4.06-.63 6.1-.26 3.25-.42 6.51-.56 8.81z"/><path d="m399.66 213.67c.14-.41.32-.81.42-1.23.69-2.77 1.38-5.55 2.05-8.33.4-1.65.79-3.3 1.13-4.96.39-1.87.74-3.74 1.09-5.62.32-1.72.64-3.44.93-5.16s.55-3.45.83-5.18c.2-1.23.43-2.45.65-3.68.2-1.15.39-2.3.59-3.45.22-1.28.46-2.56.67-3.84s.41-2.56.6-3.85c.23-1.57.45-3.15.67-4.72.11-.81.22-1.63.32-2.45.28-2.34.55-4.69.85-7.03.21-1.66.47-3.31.68-4.97.23-1.82.41-3.64.62-5.45.15-1.32.3-2.64.44-3.95.11-1.11.22-2.22.31-3.33.12-1.43.22-2.86.32-4.29.13-1.92.66-3.67 2.15-4.98 1.74-1.54 3.76-1.96 5.94-1.19 2.15.76 3.47 2.33 3.84 4.59.15.96.17 1.96.1 2.93-.22 2.96-.49 5.93-.78 8.89-.19 1.93-.45 3.85-.68 5.77-.2 1.71-.39 3.43-.61 5.14-.2 1.61-.45 3.21-.65 4.81-.21 1.63-.4 3.27-.61 4.9-.22 1.74-.46 3.47-.7 5.2-.19 1.39-.39 2.78-.6 4.17-.19 1.23-.42 2.45-.64 3.68-.21 1.2-.41 2.4-.62 3.6-.2 1.15-.39 2.3-.58 3.45-.23 1.36-.45 2.72-.68 4.08-.21 1.25-.43 2.51-.65 3.76-.2 1.15-.39 2.3-.59 3.45-.27 1.51-.54 3.03-.85 4.53-.35 1.74-.74 3.47-1.12 5.2-.36 1.63-.69 3.26-1.09 4.88-.52 2.11-1.03 4.22-1.64 6.3-1.08 3.71-2.15 7.43-3.62 11.01-.73 1.78-1.66 3.44-2.98 4.86-1.4 1.5-3.1 2.43-5.15 2.57-2.21.16-4.1-.68-5.69-2.21-1.21-1.16-2.03-2.59-2.74-4.07-1.43-2.97-2.46-6.09-3.35-9.26-.91-3.26-1.8-6.54-2.64-9.82-.67-2.62-1.25-5.25-1.86-7.89-.93-4.05-1.83-8.11-2.79-12.15-1.08-4.51-2.26-8.99-3.32-13.5-.76-3.25-1.41-6.52-2.06-9.79-.53-2.7-1.02-5.41-1.47-8.13-.42-2.51-.75-5.03-1.15-7.54-.31-1.99-.67-3.97-.98-5.96-.31-2.02-.66-4.03-.86-6.06-.16-1.55-.17-3.13.43-4.64.94-2.37 3.19-3.9 5.57-3.75 2.59.16 4.64 1.89 5.21 4.5.34 1.52.55 3.08.83 4.61.26 1.43.53 2.86.79 4.3.25 1.38.5 2.76.73 4.15.27 1.59.53 3.19.78 4.78.24 1.52.47 3.04.71 4.55.26 1.59.53 3.19.82 4.77.29 1.59.6 3.17.92 4.76.32 1.58.64 3.17 1.01 4.74.61 2.66 1.24 5.31 1.89 7.96.62 2.52 1.3 5.02 1.91 7.54.5 2.06.94 4.13 1.41 6.19.49 2.17.97 4.34 1.47 6.51.52 2.24 1.04 4.49 1.6 6.72.67 2.64 1.37 5.28 2.07 7.91.06.22.16.43.25.64.05.03.1.03.15.03z"/><path d="m452.86 135.99c-.02.33-.04.64-.05.95-.05 3.74-.05 7.49-.16 11.23-.08 2.76-.32 5.51-.48 8.27-.24 4-.49 8-.7 12.01-.2 3.63-.36 7.27-.53 10.9-.01.26 0 .52 0 .82.64.16 1.24.06 1.83 0 1.77-.18 3.53-.38 5.3-.57 1.66-.18 3.32-.36 4.98-.56 1.76-.21 3.52-.46 5.29-.66 1.32-.15 2.6.04 3.81.58 3.68 1.66 4.55 6.03 1.81 9.02-1.23 1.34-2.79 1.99-4.55 2.25-2.49.36-4.98.73-7.48 1.02-2.37.27-4.75.46-7.13.67-1 .09-2.01.14-3.02.22-.39.03-.78.1-1.28.17-.14 9.55-.6 19.06-.6 28.67.89-.1 1.68-.15 2.45-.28 1.52-.24 3.03-.51 4.54-.78 1.36-.24 2.7-.52 4.06-.75 1.2-.21 2.4-.39 3.61-.56 1.52-.21 3.05-.4 4.58-.56 1.69-.18 3.38-.34 5.07-.48 1.11-.09 2.23-.22 3.34-.18 2.17.08 3.96.96 5.13 2.86 2.02 3.26.35 7.62-3.39 8.76-.85.26-1.77.35-2.66.46-1.21.15-2.43.23-3.64.34-1.64.16-3.27.31-4.91.5-1.29.15-2.58.32-3.86.54-1.78.29-3.54.64-5.32.95-1.54.27-3.07.57-4.62.8-2.65.39-5.32.73-8.01.41-4.09-.48-7.12-2.99-8.12-6.92-.28-1.09-.43-2.18-.41-3.31.12-7.49.13-14.98.48-22.47.15-3.26.1-6.53.19-9.8.1-3.85.25-7.7.39-11.54.09-2.36.18-4.72.31-7.08.15-2.81.35-5.62.52-8.42.13-2.12.23-4.24.36-6.36.14-2.3.31-4.61.47-6.91.02-.34.06-.69.07-1.03.15-5.79.3-11.58.47-17.36.03-.87.07-1.77.29-2.6.67-2.54 2.22-4.38 4.69-5.34 1.08-.42 2.23-.42 3.38-.25.58.09 1.16.14 1.74.18 5.04.38 10.09.2 15.13.17 1.99-.01 3.98-.18 5.96-.31 1.57-.11 3.09.02 4.48.81 1.98 1.13 3.09 2.83 3.04 5.14-.06 2.4-1.31 4.09-3.38 5.21-1.2.64-2.52.82-3.85.88-2.41.12-4.83.26-7.24.31-2.47.05-4.94.03-7.41.01-1.49-.01-2.97-.08-4.46-.11-.13.02-.29.06-.51.08z"/><path d="m268.94 219.29c.38-.02.67 0 .95-.05 2.76-.42 5.53-.65 8.32-.78 2.73-.13 5.46-.35 8.19-.5 2.01-.11 4.03-.21 6.05-.21 3.13 0 6.27.05 9.4.14 1.24.04 2.5.17 3.71.42 2.21.45 3.59 1.89 4.18 4.03.62 2.25.21 4.33-1.41 6.07-1.14 1.22-2.59 1.67-4.25 1.64-4.27-.09-8.55-.23-12.82-.2-2.86.02-5.72.31-8.58.47-1.35.08-2.7.16-4.06.21-3.27.12-6.5.52-9.73 1.01-1.47.22-2.95.42-4.44.18-3.14-.5-5.05-2.44-5.99-5.38-.29-.92-.45-1.93-.42-2.9.08-3.29.28-6.58.43-9.86.11-2.47.27-4.93.34-7.4.17-6 .38-12 .44-18 .13-11.82.18-23.63.23-35.45.02-3.96-.14-7.91-.09-11.87.05-3.61.24-7.22.43-10.82.05-1.09.31-2.16.84-3.13.25-.46.53-.93.88-1.32 1.97-2.24 5.2-2.15 7.09.15 1.12 1.37 1.48 2.98 1.49 4.69.01 1.83-.05 3.66-.04 5.5.01 3.9.06 7.81.06 11.71-.01 11.79.01 23.58-.09 35.37-.07 7.94-.32 15.88-.54 23.81-.11 3.82-.36 7.64-.54 11.46-.04.3-.03.59-.03 1.01z"/></g></g><g><g fill="#75544d"><path d="m402.89 305.22c-.05 2.61-.04 5.85-.2 9.08-.13 2.65-.43 5.29-.73 7.92-.22 1.92-.54 3.83-.88 5.74-.34 1.93-.76 3.84-1.16 5.76-.34 1.61-.69 3.21-1.06 4.81-1.6 6.86-4.01 13.4-7.94 19.31-1.65 2.48-3.35 4.92-5.41 7.07-2.53 2.65-5.36 4.9-8.71 6.46-3.22 1.49-6.6 1.97-10.09 1.51-3.42-.45-6.44-1.89-9.09-4.1-2.7-2.25-4.65-5.07-6.22-8.18-1.57-3.12-2.61-6.43-3.55-9.77-.76-2.7-1.37-5.44-1.77-8.23-.37-2.6-.74-5.19-1.03-7.8-.19-1.71-.25-3.44-.36-5.16-.35-5.12-.36-10.24-.15-15.36.13-3.05.36-6.09.56-9.14.1-1.51.22-3.02.36-4.52.13-1.35.29-2.69.45-4.03.11-.92.2-1.85.33-2.76.42-2.88.81-5.77 1.29-8.65.4-2.43.84-4.86 1.37-7.26 1.43-6.54 3.39-12.91 6.43-18.91.5-.99.87-2.05 1.3-3.07.22-.51.41-1.04.69-1.52 1.4-2.38 2.93-4.67 4.69-6.81 1.33-1.62 3.04-2.71 4.95-3.52 1.75-.74 3.58-1.18 5.47-1.29 1.97-.12 3.85.37 5.66 1.07 2.81 1.09 5.24 2.78 7.4 4.87 3.45 3.34 6.16 7.22 8.47 11.4 1.95 3.52 3.4 7.24 4.65 11.05.96 2.92 1.74 5.89 2.33 8.91.39 1.97.68 3.97.92 5.97.29 2.42.48 4.86.69 7.29.11 1.27.17 2.54.2 3.82.06 2.46.09 4.93.14 8.04zm-46.47 12.83c.11 3.79.2 7.7.36 11.59.08 2.01.21 4.03.44 6.03.27 2.29.62 4.57 1.05 6.83.69 3.67 1.67 7.28 3.02 10.77.72 1.86 1.6 3.64 2.88 5.2 2.12 2.57 5.38 3.15 8.23 1.65 1.7-.89 3.1-2.12 4.42-3.48 1.41-1.46 2.52-3.15 3.65-4.82 3.04-4.49 5.04-9.42 6.31-14.67.36-1.49.71-2.99 1.04-4.49.32-1.45.64-2.9.92-4.35.31-1.64.59-3.28.86-4.93.26-1.62.57-3.24.7-4.88.21-2.78.37-5.56.41-8.35.06-3.93.02-7.86-.02-11.79-.02-1.59-.09-3.18-.21-4.77-.14-1.85-.31-3.7-.53-5.54-.19-1.66-.36-3.33-.7-4.95-.48-2.3-1.04-4.6-1.7-6.86-1.26-4.34-2.94-8.51-5.35-12.37-1.68-2.7-3.58-5.21-6.01-7.28-.83-.71-1.77-1.26-2.82-1.59-.24-.08-.53-.12-.77-.08-.73.12-1.35.44-1.79 1.07-1.25 1.74-2.57 3.44-3.36 5.47-.36.91-.79 1.8-1.22 2.67-1.74 3.52-3.16 7.17-4.22 10.96-1.07 3.83-1.85 7.73-2.54 11.64-.45 2.56-.8 5.13-1.13 7.71-.38 3.05-.78 6.11-1.01 9.18-.38 4.77-.62 9.54-.91 14.43z"/><path d="m430.18 285.37c0 6.45-.03 12.91.01 19.36.03 4.14.11 8.29.28 12.42.17 4.11.43 8.22.73 12.32.19 2.59.47 5.18.8 7.75.66 5.19 2.19 10.13 4.23 14.94.79 1.86 1.68 3.66 2.84 5.32 1.24 1.77 2.86 3.06 4.85 3.85 1.48.59 2.93.33 4.26-.48 2.44-1.5 4.39-3.52 5.78-6.02 1.99-3.58 3.62-7.31 4.69-11.28.6-2.22 1.18-4.45 1.66-6.7.46-2.15.8-4.32 1.13-6.5.37-2.38.69-4.78.99-7.17.16-1.31.25-2.64.37-3.96.16-1.8.32-3.59.48-5.39.03-.34.08-.69.09-1.03.16-4.19.28-8.38.48-12.57.3-6.18.47-12.37.51-18.56.01-2.28-.16-4.56-.25-6.84-.01-.27-.03-.53-.04-.8-.06-1.99-.09-3.98-.18-5.97-.05-1.19-.2-2.38-.29-3.57-.09-1.27-.13-2.54-.23-3.81-.15-1.88-.34-3.75-.52-5.62-.01-.11-.04-.21-.04-.32-.09-1.22-.2-2.43-.25-3.65-.13-3.39 2.12-6.03 5.48-6.38 2.24-.24 5.04.93 6.17 3.97.28.76.42 1.59.5 2.4.17 1.74.24 3.49.38 5.24.14 1.77.35 3.54.45 5.31.23 4.03.42 8.06.62 12.09.07 1.41.11 2.81.16 4.22.26 7.49-.09 14.97-.38 22.46-.14 3.69-.27 7.38-.46 11.06-.13 2.57-.34 5.14-.55 7.71-.18 2.14-.38 4.28-.64 6.42-.28 2.29-.62 4.57-.96 6.85-.27 1.78-.53 3.57-.89 5.33-.5 2.38-1.09 4.75-1.66 7.12-.97 4.03-2.43 7.89-4.17 11.65-1.5 3.24-3.24 6.33-5.64 9-2.32 2.58-4.89 4.88-8.03 6.44-1.87.93-3.88 1.38-5.94 1.64-4.25.54-7.94-.92-11.42-3.12-3.38-2.13-5.85-5.12-7.88-8.51-1.74-2.91-2.98-6.04-4.16-9.19-1.08-2.88-1.99-5.81-2.6-8.83-.37-1.84-.66-3.7-.92-5.56-.29-2.07-.52-4.15-.74-6.24-.12-1.16-.16-2.33-.24-3.49-.1-1.4-.21-2.8-.31-4.21-.08-1.22-.16-2.44-.22-3.65-.07-1.25-.12-2.49-.17-3.74-.06-1.41-.12-2.81-.14-4.22-.05-3.24-.1-6.48-.09-9.72.01-6.37.03-12.75.1-19.12.11-9.85.26-19.7.4-29.56.02-1.27-.01-2.56.18-3.81.34-2.27 1.55-3.95 3.78-4.71 3.28-1.13 6.67.88 7.4 4.32.48 2.25.54 4.53.54 6.81-.02 9.43-.08 18.85-.12 28.28-.07.02-.14.02-.21.02z"/><path d="m297.15 300.76c.35-.62.59-1.05.84-1.48 1.46-2.53 2.88-5.09 3.93-7.81 1.61-4.18 3.14-8.38 4.72-12.58 1.27-3.38 2.18-6.86 3.22-10.31.96-3.17 1.97-6.32 2.88-9.5.66-2.31 1.21-4.66 1.8-7 .29-1.15.42-2.36.84-3.46.8-2.1 2.36-3.44 4.62-3.84 3.84-.68 7.28 2.46 7.01 6.37-.02.29-.05.58-.12.87-.38 1.73-.73 3.47-1.18 5.19-.66 2.54-1.37 5.06-2.1 7.58-1.2 4.12-2.41 8.23-3.68 12.33-.74 2.4-1.56 4.79-2.43 7.14-1.58 4.27-3.15 8.55-4.87 12.77-1.83 4.48-4.14 8.72-6.98 12.65-.63.88-1.4 1.67-2.15 2.45-.32.34-.45.66-.45 1.12-.01 4.65.03 9.3-.08 13.94-.19 7.7-.5 15.4-.75 23.1-.13 4.22-.22 8.44-.38 12.66-.04.97-.16 1.97-.45 2.9-.83 2.62-3.32 4.28-5.97 4.12-2.71-.17-4.89-2.04-5.47-4.76-.13-.59-.19-1.21-.17-1.81.09-4.38.2-8.76.32-13.14.16-5.74.23-11.47.52-17.2.32-6.26.44-12.53.63-18.79.01-.42-.03-.77-.37-1.07-1.16-1.04-1.99-2.34-2.73-3.7-1.49-2.72-3.01-5.43-4.45-8.18-1.83-3.48-3.35-7.09-4.8-10.74-1.45-3.67-3.05-7.29-4.48-10.97-2.14-5.51-4.23-11.04-6.26-16.59-1.25-3.44-2.17-6.98-2.78-10.59-.12-.71-.3-1.41-.34-2.12-.14-2.19 1.04-4.84 3.74-5.81 2.36-.84 4.99.02 6.51 2.09.78 1.07 1.23 2.3 1.53 3.56 1.29 5.38 3.2 10.54 5.21 15.67 1.33 3.38 2.57 6.79 3.92 10.17 1.91 4.77 3.88 9.53 5.84 14.28 1.29 3.12 2.92 6.07 4.58 9.01.22.42.45.86.78 1.48z"/></g><g fill="#b2e5d4"><path d="m398.06 307.18c-.04 2.42-.05 4.83-.13 7.25-.1 2.97-.31 5.94-.77 8.88-.37 2.36-.72 4.72-1.14 7.06-.34 1.88-.75 3.74-1.18 5.6-.57 2.45-1.14 4.9-1.79 7.32-1.48 5.52-3.76 10.69-6.89 15.49-1.63 2.49-3.29 4.96-5.35 7.12-2.81 2.94-5.95 5.45-9.77 6.97-2.55 1.02-5.2 1.42-7.95 1.22-5.35-.39-9.57-2.88-12.98-6.89-2.57-3.02-4.19-6.55-5.5-10.25-1.2-3.4-2.17-6.87-2.85-10.41-.51-2.65-.96-5.32-1.27-8-.31-2.66-.44-5.34-.63-8.01-.38-5.49-.31-10.98-.11-16.48.07-1.96.18-3.93.32-5.88.12-1.72.32-3.43.48-5.15.12-1.35.23-2.7.36-4.04.11-1.11.24-2.21.38-3.32.14-1.13.28-2.26.44-3.39.19-1.37.39-2.73.61-4.09.2-1.26.44-2.51.67-3.76.28-1.51.55-3.02.87-4.52.35-1.63.75-3.25 1.16-4.87 1.06-4.25 2.45-8.39 4.29-12.37.49-1.06 1.03-2.1 1.51-3.16.34-.75.65-1.51.91-2.28.49-1.48 1.37-2.75 2.23-4.03.96-1.43 1.99-2.82 3.02-4.19 1.63-2.16 3.9-3.39 6.4-4.25 1.39-.48 2.83-.74 4.28-.83 1.72-.11 3.38.29 4.99.85 3.16 1.11 5.86 2.95 8.23 5.3 4.68 4.65 8.09 10.15 10.67 16.19 1.39 3.27 2.58 6.62 3.44 10.07.53 2.16 1.03 4.33 1.41 6.51.41 2.35.72 4.72.98 7.08.22 2 .34 4.02.41 6.04.14 3.74.23 7.48.33 11.22-.03 0-.05 0-.08 0zm-46.44 11.9c.11 3.75.2 7.73.34 11.71.13 3.9.61 7.77 1.29 11.61.53 2.97 1.19 5.92 2.15 8.79.67 2.01 1.34 4.03 2.36 5.9.9 1.65 1.99 3.13 3.62 4.15 1.45.91 3.02.94 4.6.6 1.49-.32 2.69-1.24 3.85-2.16 2.11-1.67 3.73-3.75 5.25-5.95 3.09-4.48 5.32-9.34 6.64-14.61.36-1.44.72-2.88 1.05-4.32.41-1.81.81-3.62 1.16-5.44.32-1.66.59-3.34.86-5.01.26-1.6.56-3.19.7-4.8.2-2.38.28-4.77.39-7.15.2-4.62.04-9.24 0-13.86 0-.19-.01-.37-.02-.56-.17-2.3-.31-4.61-.52-6.9-.17-1.9-.37-3.8-.67-5.68-.44-2.75-1.1-5.45-1.91-8.11-1.17-3.9-2.65-7.66-4.71-11.19-1.6-2.74-3.42-5.31-5.7-7.53-1.03-1.01-2.16-1.88-3.55-2.36-1.01-.35-1.98-.15-2.63.7-1.21 1.58-2.44 3.14-3.24 4.99-.62 1.44-1.31 2.84-1.94 4.27-.8 1.82-1.67 3.61-2.36 5.47-1.22 3.31-2.13 6.71-2.81 10.17-.39 1.97-.83 3.94-1.18 5.92-.34 1.93-.61 3.88-.88 5.82-.26 1.81-.52 3.63-.71 5.45-.27 2.59-.52 5.18-.7 7.77-.27 4.01-.48 8.04-.73 12.31z"/><path d="m425.48 286.98c0 8.24-.02 15.33.01 22.42.01 2.79.06 5.58.17 8.36.11 2.76.29 5.51.46 8.27.13 2.15.26 4.29.44 6.43.13 1.58.33 3.16.54 4.74.19 1.39.43 2.77.66 4.16.42 2.57 1.12 5.06 2.02 7.5.89 2.41 1.76 4.84 2.96 7.12.92 1.75 2 3.38 3.5 4.7.89.78 1.89 1.39 2.99 1.79 1.4.51 2.81.31 4.05-.46 2.36-1.47 4.28-3.41 5.68-5.81 1.98-3.4 3.51-7.01 4.67-10.77.9-2.92 1.58-5.88 2.17-8.87.46-2.36.79-4.76 1.15-7.14.26-1.76.5-3.52.72-5.28.15-1.24.24-2.48.35-3.72.16-1.85.32-3.7.48-5.55.02-.19.04-.37.05-.56.13-2.7.31-5.41.39-8.11.23-7.75.47-15.5.62-23.26.05-2.33-.15-4.67-.23-7-.01-.27-.04-.53-.05-.8-.06-1.96-.09-3.93-.18-5.89-.06-1.22-.21-2.43-.3-3.65-.09-1.3-.14-2.6-.24-3.89-.15-1.88-.34-3.75-.52-5.62-.02-.24-.06-.47-.07-.71-.07-.9-.11-1.8-.2-2.69-.3-3.02 1.32-5.66 4.05-6.58 3.44-1.16 7.18.96 7.85 4.55.25 1.32.27 2.69.4 4.03.11 1.13.22 2.27.33 3.4.08.79.19 1.58.23 2.38.25 4.77.47 9.54.74 14.32.5 8.82.13 17.63-.22 26.44-.17 4.27-.29 8.55-.53 12.82-.16 2.94-.46 5.88-.73 8.81-.18 1.98-.41 3.96-.66 5.93-.2 1.58-.45 3.15-.7 4.72s-.5 3.14-.81 4.7c-.42 2.1-.85 4.21-1.35 6.29-.65 2.7-1.41 5.38-2.42 7.97-1.63 4.21-3.39 8.37-6.08 12.04-2.59 3.53-5.72 6.49-9.64 8.52-1.88.98-3.92 1.42-6.01 1.69-4.25.55-7.94-.91-11.42-3.11-3.35-2.12-5.83-5.06-7.84-8.44-1.65-2.77-2.84-5.75-3.98-8.75-1.04-2.75-1.99-5.54-2.6-8.42-.46-2.17-.83-4.37-1.15-6.57-.31-2.07-.52-4.16-.74-6.24-.12-1.13-.16-2.27-.24-3.41-.1-1.4-.2-2.8-.29-4.21-.08-1.16-.16-2.33-.21-3.49-.08-1.86-.13-3.71-.19-5.57-.08-2.81-.16-5.62-.23-8.44-.02-.64-.04-1.27-.04-1.91-.05-12.46.19-24.91.39-37.36.08-4.91.09-9.83.12-14.74.01-1.09.08-2.17.39-3.23.74-2.45 2.84-4.08 5.36-4.13 2.33-.05 4.54 1.53 5.37 3.81.44 1.21.59 2.48.64 3.75.3 7.59.23 15.19.09 22.78-.07 3.71-.13 7.4-.17 9.94z"/><path d="m292.31 301.78c.25-.39.42-.61.56-.85 2.03-3.52 3.87-7.13 5.26-10.96 1.7-4.65 3.39-9.31 5.01-13.99.81-2.32 1.44-4.71 2.15-7.06.96-3.19 1.96-6.38 2.88-9.58.75-2.62 1.38-5.27 1.88-7.96.46-2.47 1.72-4.4 4.22-5.26 4.03-1.4 8.2 1.81 7.91 6.07-.03.47-.14.94-.23 1.41-.26 1.24-.5 2.49-.82 3.72-.59 2.33-1.21 4.66-1.86 6.98-.51 1.84-1.07 3.66-1.63 5.48-.49 1.62-1.01 3.23-1.52 4.85-.73 2.35-1.38 4.73-2.18 7.05-2.05 5.96-4.14 11.92-6.69 17.69-1.76 3.96-3.84 7.75-6.38 11.27-.63.88-1.39 1.68-2.14 2.46-.36.37-.54.73-.51 1.25.25 4.67.06 9.35-.07 14.02-.18 6.69-.45 13.38-.66 20.07-.16 5.04-.28 10.09-.44 15.13-.03.82-.09 1.65-.23 2.46-.51 3.05-3.23 5.24-6.21 5.06-3.11-.19-5.54-2.68-5.66-5.84-.03-.85.03-1.7.06-2.55.19-6.4.38-12.8.56-19.19.07-2.71.09-5.42.18-8.12.11-3.4.28-6.79.4-10.19.11-3.32.18-6.64.28-9.96.01-.43-.09-.76-.42-1.05-1-.9-1.76-1.99-2.4-3.16-1.84-3.35-3.7-6.69-5.45-10.08-1.72-3.32-3.08-6.81-4.46-10.28-1.09-2.73-2.27-5.43-3.35-8.17-1.45-3.67-2.87-7.36-4.26-11.05-1.17-3.1-2.34-6.2-3.4-9.33-.94-2.78-1.65-5.64-2.13-8.55-.09-.55-.2-1.09-.29-1.64-.57-3.54 2.41-7.43 6.78-6.49 1.89.4 3.24 1.59 4.03 3.33.46 1 .81 2.08 1.08 3.15 1.03 4.09 2.35 8.09 3.88 12.01 1.92 4.91 3.81 9.84 5.76 14.74 1.52 3.82 3.1 7.61 4.65 11.42 1.24 3.05 2.69 6 4.33 8.86.5.85.95 1.75 1.53 2.83z"/></g></g></g></g></svg>