<svg id="Слой_1" enable-background="new 0 0 500 500" height="512" viewBox="0 0 500 500" width="512" xmlns="http://www.w3.org/2000/svg"><g><path d="m498.04 264.7c-2.43-13.76-6.69-25.63-13.02-36.31-.78-1.32-1.58-2.61-2.41-3.89 1.18-2.02 2.24-4.1 3.16-6.23 2.69-6.2 4.66-12.89 6.19-21.04 1.15-6.08 2.34-13.25 2.07-21.45-.61-18.28-9.32-34.01-24.52-44.28-.91-.62-1.84-1.2-2.79-1.76-.67-5.08-1.72-10-3.16-14.72-1.28-4.19-2.87-8.15-4.78-11.88 8.25-5.59 13.46-15.01 13.46-25.38 0-11.82-6.77-22.4-17.1-27.48-4.47-11.72-15.76-19.69-28.58-19.71-.01 0-.03 0-.04 0-3.52 0-6.92.6-10.1 1.71-1.42-1.35-2.98-2.56-4.66-3.63-5.28-9.96-15.68-16.27-27.05-16.27-.56 0-1.12.02-1.69.05-8.94.49-16.98 4.83-22.31 11.54-1.54-2.52-3.46-4.83-5.7-6.83-5.64-5.05-12.92-7.8-20.42-7.8-1.14 0-2.28.06-3.42.19l-207.5 23.34c-14.91 1.68-26.31 13.87-27.16 28.67-2.45-.64-5.02-.97-7.66-.98-.01 0-.02 0-.03 0-14.15 0-26.31 9.66-29.7 23.13-6.89 2.31-12.64 6.97-16.35 13-8.89 1.71-16.56 7.28-20.95 15.14-8.75 5.78-14.13 15.82-13.72 26.7.35 9.48 5.03 17.99 12.28 23.41-1.75 3.29-3.24 6.68-4.46 10.15-4.42 12.54-6.53 24.36-6.45 36.11.06 8.18 1.71 16.04 4.89 23.38 2.82 6.48 6.76 11.92 11.75 16.24-3.81 3.89-7.23 8.12-10.22 12.66-6 9.1-10.34 19.51-12.89 30.94-3.16 14.17-3.81 29.26-1.98 46.13 1.05 9.67 2.8 19.55 5.34 30.22 8.02 33.64 25.04 63.21 50.6 87.88 6.93 6.69 14.39 12.48 22.16 17.19 8.34 5.06 17.27 9.03 26.55 11.8 10.43 3.12 19.3 4.9 27.92 5.62 3.11.26 6.21.39 9.2.39 6.28 0 12.45-.58 18.33-1.73 7.31-1.42 13.8-3.66 19.31-5.65 9.65-3.48 18.99-7.92 27.84-13.24 5.55 9.06 15.44 14.63 26.11 14.63.83 0 1.66-.03 2.49-.1 9.83-.8 18.47-6.24 23.51-14.32 4.84 3.17 10.59 5 16.71 5.01h.09c12.84 0 24.16-7.98 28.63-19.72 7.55-3.72 13.2-10.39 15.69-18.33 1.29.36 2.57.7 3.85 1.01 8.27 2.02 16.66 3.14 24.93 3.33 1.54.04 3.06.05 4.53.05 5.55 0 10.67-.25 15.66-.76 8.85-.91 16.14-2.28 22.95-4.3 15.2-4.51 29.54-12.27 42.61-23.08 12.31-10.17 23.62-22.36 33.62-36.21 7.34-10.17 12.7-19.29 16.88-28.72 7.2-16.23 11.59-33.44 13.05-51.15.89-10.87.37-21.87-1.54-32.67z" fill="#fff"/><g><path d="m263.81 75.66c-23.41 2.52-46.6 5.38-69.9 8.02-.05.37-.13.65-.13.93-.06 13.31-.14 26.63-.14 39.94-.01 10.81.19 21.63.09 32.44-.07 7.25-.49 14.51-.8 21.76-.28 6.55-.58 13.1-.95 19.64-1.44 25.21-6.73 49.52-17.37 72.52-4.35 9.41-9.52 18.39-14.85 27.27-1.18 1.97-2.36 3.95-3.57 5.91-.51.82-.84 1.65-1 2.62-.47 2.84-2.72 4.87-5.51 5.09-2.88.23-5.47-1.44-6.45-4.15-.57-1.57-.57-3.16.06-4.7.51-1.24 1.12-2.46 1.81-3.61 4.83-8.01 9.65-16.03 14.07-24.28 8.58-16.06 14.44-33.06 17.75-50.94 1.41-7.63 2.36-15.33 2.82-23.08.57-9.64 1-19.29 1.49-28.94.94-18.21.58-36.43.37-54.65-.11-9.61.1-19.22.16-28.83.01-1.09 0-2.18 0-3.5-18.07 2.03-36.03 4.05-54.07 6.08-.07-.36-.16-.63-.17-.91-.04-2.85-.06-5.71-.11-8.56-.09-5.55-.2-11.11-.3-16.66-.01-.54 0-1.09 0-1.76 69.18-7.78 138.26-15.54 207.51-23.32v27.91c-19.55 2.17-39.15 4.34-58.77 6.52-.03.5-.08.84-.08 1.19.03 5.96-.03 11.92.11 17.87.22 8.76.41 17.52.94 26.26.52 8.64 1.28 17.27 2.25 25.86.89 7.85 1.97 15.69 3.37 23.46 2.77 15.35 7.59 30.04 14.93 43.85 4.35 8.19 9.83 15.57 16.07 22.38 5.78 6.3 11.79 12.4 17.71 18.58.38.4.83.72 1.25 1.08 2.24 1.97 2.75 4.98 1.29 7.48-1.44 2.45-4.43 3.6-7.15 2.59-1.01-.37-2.04-.94-2.79-1.69-10.39-10.35-20.81-20.69-29.4-32.65-7.47-10.41-12.84-21.89-17.01-33.96-3.88-11.24-6.52-22.77-8.23-34.53-1.44-9.91-2.68-19.83-3.45-29.81-.55-7.13-.91-14.29-1.19-21.44-.33-8.65-.51-17.31-.71-25.97-.06-2.6.03-5.21.05-7.81 0-.45 0-.88 0-1.5z" fill="#75544d"/><path d="m159.26 293c.62-.49 1.12-.88 1.62-1.29 7.93-6.51 16.89-10.79 26.99-12.71 15.36-2.91 29.81-.57 43.43 7.18 14.2 8.09 22.58 20.29 25.87 36.14 1.94 9.37 1.83 18.78.4 28.22-1.65 10.88-5.17 21.13-9.88 31.05-6.93 14.59-15.64 27.96-26.9 39.54-14.43 14.84-31.17 26.26-50.75 33.32-4.85 1.75-9.71 3.41-14.78 4.4-6.33 1.23-12.71 1.41-19.12.88-7.41-.62-14.59-2.32-21.7-4.45-13.92-4.16-25.8-11.65-36.2-21.68-21.01-20.28-35.29-44.45-42.08-72.94-2.08-8.72-3.72-17.52-4.68-26.43-1.32-12.11-1.25-24.2 1.42-36.14 3.42-15.33 11.24-27.8 24.51-36.57 6.35-4.2 13.3-6.91 20.78-8.23 16.03-2.83 31.71-1.41 46.89 4.47 8.8 3.4 16.49 8.57 22.79 15.68 2.94 3.32 5.28 7.04 7.25 11 1.36 2.77 2.69 5.57 4.14 8.56z" fill="#ff7772"/><path d="m324.93 256.84c.73-2.68 1.47-5.28 2.15-7.89 2.6-10.04 7.5-18.8 14.49-26.45 4.78-5.23 9.99-9.94 15.96-13.81 6.94-4.49 14.52-6.8 22.74-7.19 18.23-.86 34.99 3.95 50.32 13.57 11.66 7.31 21.03 17.03 28.08 28.93 4.78 8.07 7.58 16.84 9.2 26.03 1.45 8.22 1.85 16.52 1.17 24.83-1.18 14.33-4.68 28.08-10.52 41.24-3.67 8.28-8.43 15.89-13.72 23.21-8.19 11.34-17.51 21.62-28.29 30.53-9.47 7.83-19.97 13.81-31.8 17.32-5.67 1.68-11.5 2.59-17.38 3.19-5.43.56-10.88.68-16.34.56-12.59-.29-24.47-3.45-35.96-8.5-17.38-7.64-29.73-20.45-38.65-36.91-4.53-8.35-7.4-17.26-9-26.6-.79-4.58-1.52-9.18-2.18-13.78-1.59-10.94.22-21.36 4.52-31.52 6.46-15.26 20.72-28.33 34.17-33.3 6.26-2.32 12.71-3.51 19.38-3.47.5.01 1 .01 1.66.01z" fill="#ff7772"/><path d="m141.73 267.61c-.42-2.77-.88-5.37-1.21-8-.69-5.57-.99-11.15-.56-16.76.31-4.14.61-8.27.93-12.41.39-4.98.86-9.96 1.16-14.94.24-3.99.34-7.99.42-11.99.07-3.45.01-6.91.04-10.36.01-.85.09-1.7.24-2.53.17-.95.75-1.64 1.69-1.93.96-.29 1.78.06 2.45.74.35.36.66.76.91 1.19 4.19 7.05 8.53 14.02 12.49 21.2 3.4 6.16 6.62 12.45 9.01 19.12 2.45 6.86 4.29 13.86 4.86 21.13.37 4.74.3 9.5-.26 14.24-.7 5.95-2.18 11.69-4.46 17.22-.86 2.09-1.91 4.07-3.36 5.83-1.57 1.91-3.65 3.11-6.01 3.36-1.82.19-3.77.23-5.59-.52-.48-.2-1.06-.25-1.59-.21-2.74.23-5.46.62-8.2.73-3.12.12-6.17-.42-9.12-1.49-8.85-3.2-15.67-8.72-19.76-17.34-3.52-7.42-6.81-14.94-8.59-22.99-.84-3.8-1.33-7.68-2-11.52-.23-1.33-.54-2.64-.77-3.97-.13-.73-.28-1.49-.23-2.23.14-1.84 2.04-2.75 3.5-1.63.72.56 1.28 1.39 1.76 2.19 1.41 2.36 2.73 4.78 4.13 7.14.74 1.24 1.6 2.42 2.4 3.63 2.76 4.18 6.19 7.72 10.15 10.75 3.61 2.77 7.21 5.56 10.79 8.37 1.59 1.24 3.08 2.56 4.78 3.98z" fill="#8cb57c"/><path d="m334.95 235.46c.17-.17.36-.33.52-.5 4.91-5.14 9.82-10.27 14.71-15.42 1.48-1.56 2.9-3.18 4.32-4.8 3.37-3.84 5.92-8.17 7.75-12.93.9-2.33 1.76-4.68 2.66-7.01.23-.6.47-1.23.85-1.74 1.1-1.51 3.14-1.37 3.88.34.43.98.63 2.13.63 3.2.02 3.3-.09 6.6-.18 9.9-.11 3.9-.21 7.8-.38 11.7-.21 4.84-1.29 9.5-3.19 13.96-2.81 6.59-6.55 12.59-11.43 17.86-3.05 3.29-6.51 6.08-10.44 8.24-4.96 2.72-10.28 3.74-15.92 3.17-1.33-.13-2.69-.01-4.03-.1-1.28-.09-2.57-.25-3.83-.47-.68-.12-1.1-.63-1.36-1.28-.16-.4-.37-.83-.68-1.12-4.44-4.14-7.22-9.25-8.91-15.04-1.83-6.27-2.49-12.66-1.94-19.15.45-5.39 1.7-10.65 3.06-15.88 1.89-7.27 4.45-14.32 6.91-21.4 2.92-8.37 5.19-16.91 7.35-25.5.27-1.06.59-2.12.99-3.14.45-1.17 1.17-2.13 2.57-2.19 1.34-.06 2.19.75 2.69 1.83.9 1.95 1.84 3.9 2.45 5.95 2.45 8.14 4.52 16.38 6.01 24.76.82 4.58 1.48 9.17 1.59 13.84.15 6.05-.52 11.97-2.01 17.82-1.29 5.06-2.76 10.09-4.64 15.1z" fill="#8cb57c"/><path d="m328.89 198.34c1.62-1.54 2.98-2.85 4.37-4.14.44-.4.92-.77 1.43-1.08.54-.34 1.14-.42 1.66.07.45.43.45 1.08-.03 1.78-.22.32-.54.59-.82.87-2.46 2.49-4.93 4.97-7.36 7.49-.37.38-.69.88-.82 1.39-1.07 4.16-2.09 8.34-3.12 12.52-.05.19-.02.39-.05.85 1.19-.97 2.2-1.83 3.25-2.63.55-.42 1.14-.83 1.78-1.07.35-.14 1.03-.08 1.2.16.24.32.33.99.15 1.34-.31.6-.82 1.12-1.34 1.58-1.68 1.5-3.39 2.97-5.1 4.43-.56.48-.83 1.04-.95 1.79-.67 4.3-1.34 8.6-1.46 12.97-.01.4 0 .79 0 1.47.53-.44.9-.73 1.25-1.04 1.02-.89 1.99-1.83 3.05-2.66.83-.66 1.8-.74 2.21-.34.45.44.29 1.52-.5 2.29-1.47 1.43-2.95 2.87-4.54 4.15-1.21.97-1.72 2.01-1.52 3.59.31 2.42.41 4.86.6 7.23 2.96.65 9.72-.58 12.67-2.29-.84-1.19-.14-2.21.41-3.28 1.18-2.31 2.32-4.65 3.49-6.97.18-.35.35-.73.62-1.01.41-.43.93-.58 1.5-.27.56.3.76.79.65 1.38-.05.29-.18.57-.31.84-.98 2.08-1.96 4.16-2.95 6.23-.2.43-.42.85-.68 1.39 2.25-.57 9.54-6.57 12.58-10.17.12-1.34.1-2.43.34-3.47.75-3.26 1.61-6.5 2.42-9.75.25-.98.79-1.46 1.5-1.36.71.11 1.21.76 1.09 1.71-.16 1.24-.41 2.47-.7 3.68-.4 1.7-.88 3.38-1.41 5.38.45-.41.72-.58.88-.83 1.42-2.11 2.95-4.17 4.21-6.38 1.81-3.17 3.43-6.45 5.15-9.67.28-.52.59-1.08 1.05-1.43.33-.25 1.01-.36 1.35-.18s.57.79.6 1.23c.03.41-.21.87-.41 1.26-1.78 3.41-3.48 6.88-5.42 10.21-1.48 2.54-3.27 4.9-4.93 7.34-.27.4-.59.77-1.01 1.31.68.15 1.19.27 1.7.36.34.06.7.06 1.04.12.92.17 1.52.75 1.51 1.41-.01.72-.73 1.35-1.75 1.25-1.53-.14-3.05-.46-4.52-.69-3.7 3.29-7.43 6.61-11.22 9.98.75.3 1.57.6 2.36.95 1.16.51 1.65 1.25 1.39 2.01-.26.75-1.11.93-2.35.51-1.28-.44-2.56-.86-3.82-1.34-.61-.23-1.12-.22-1.7.1-4.21 2.36-8.79 3.18-13.55 3.39-1.43.06-2.51-.55-3.57-1.25-.42-.28-.68-1-.76-1.55-.29-1.93-.47-3.87-.68-5.81-.03-.3-.05-.6-.04-.9.03-1.04-.26-1.87-1.1-2.62-1.61-1.42-3.1-2.97-4.62-4.49-.53-.53-1.05-1.08-1.45-1.71-.53-.82-.39-1.57.24-1.99.59-.39 1.12-.21 1.83.46 1.55 1.48 3.12 2.91 4.79 4.46.44-4.59.86-9.01 1.29-13.56-1.38-.31-1.98-1.61-2.77-2.75-.82-1.19-1.63-2.38-2.95-3.14-.75-.43-.88-1.32-.47-1.96.42-.65 1.3-.92 1.97-.34 1.16 1.01 2.19 2.17 3.24 3.3.4.43.69.95 1.2 1.68.29-.67.57-1.08.64-1.52.82-5.25 2.06-10.4 3.55-15.49.2-.68.15-1.25-.35-1.79-.98-1.06-1.92-2.16-2.9-3.23-.34-.37-.76-.66-1.09-1.03-.59-.66-.64-1.38-.19-1.89.47-.53 1.16-.59 1.88-.02.98.78 1.89 1.63 2.82 2.47.25.23.43.53.88 1.08.31-1.47.57-2.55.77-3.65 1.24-6.81 1.93-13.67 2.12-20.59.04-1.24.47-1.89 1.24-1.93.82-.03 1.5.72 1.46 1.91-.09 2.75-.17 5.51-.46 8.24-.45 4.18-1.07 8.33-1.62 12.5 0 .28 0 .57-.02 1.15z" fill="#6a885e"/><path d="m139.72 279.2c-1.3-.56-2.42-.91-3.4-1.48-3.07-1.78-6.11-3.61-9.12-5.49-.79-.49-1.55-.84-2.48-.9-1.9-.13-3.79-.31-5.68-.46-.25-.02-.5-.01-.75-.05-.65-.13-1.11-.48-1.12-1.2-.01-.7.4-1.17 1.04-1.29.68-.12 1.39-.07 2.09-.08.5-.01.99 0 1.65 0-.25-.34-.4-.63-.63-.84-3.12-2.91-5.34-6.47-7.38-10.16-.05-.09-.1-.17-.14-.26-.44-.92-.34-1.6.27-2 .63-.41 1.32-.23 1.9.62.57.82 1.09 1.68 1.58 2.55 1.83 3.27 4.26 6.04 6.99 8.57.4.37.81.71 1.36 1.19.16-.54.27-.91.37-1.28.11-.44.17-.89.32-1.31.27-.76.81-1.11 1.46-1.01.68.1 1.21.73 1.13 1.54-.09.84-.32 1.67-.49 2.5-.09.44-.17.87-.27 1.41 4.77 3.43 9.75 6.4 15.78 7.9-.14-.69-.25-1.2-.36-1.71-.29-1.37-.59-2.74-.89-4.1-.03-.15-.08-.29-.1-.44-.14-1.03.21-1.81.89-2 .78-.22 1.5.3 1.75 1.42.56 2.43 1.07 4.88 1.6 7.35 2.35 1.02 9 1.77 12.52 1.35-.42-2.85-.83-5.69-1.26-8.62-1.81-.18-3.06-1.27-4.32-2.34-1.33-1.14-2.63-2.32-3.93-3.49-.79-.72-.92-1.34-.44-1.93.49-.6 1.22-.71 2.01-.12 1 .75 1.9 1.62 2.86 2.42.99.82 1.99 1.62 2.99 2.43.08-.06.16-.12.24-.18-.22-1.37-.45-2.73-.66-4.1-.68-4.4-1.37-8.8-2.02-13.2-.1-.71-.37-1.11-1.01-1.49-2.41-1.43-4.75-2.96-7.12-4.45-.59-.37-.8-.91-.55-1.55.25-.65.81-.9 1.46-.77.43.09.86.28 1.23.51 1.32.81 2.63 1.65 3.94 2.47.41.26.82.51 1.46.92-.34-2.26-.61-4.24-.94-6.2-.47-2.86-1.01-5.71-1.47-8.58-.11-.68-.39-1.09-1.01-1.33-1.73-.65-3.43-1.36-5.17-1.97-1.22-.43-1.7-.89-1.49-1.68.22-.82 1.04-1.18 2.24-.85 1.44.39 2.86.88 4.42 1.37 0-.3.05-.57-.01-.83-.85-4.01-1.71-8.02-2.6-12.02-.18-.82-.48-1.62-.78-2.41-.25-.65-.15-1.18.42-1.59.58-.41 1.23-.34 1.63.16.45.57.84 1.26 1.01 1.96.68 2.71 1.28 5.45 1.89 8.18.45 2 .86 4 1.63 6.3.15-.3.28-.62.46-.9 1.03-1.54 2.04-3.09 3.12-4.59.34-.47.78-.94 1.28-1.21.9-.5 1.78.11 1.64 1.13-.07.52-.34 1.05-.63 1.49-1.65 2.45-3.32 4.88-5.03 7.29-.33.47-.37.89-.28 1.39.63 3.7 1.26 7.4 1.88 11.09.19 1.12.35 2.25.55 3.56.38-.32.67-.49.87-.73.86-1.04 1.7-2.1 2.54-3.16.25-.31.45-.67.73-.95.48-.47 1.02-.85 1.73-.45.6.34.76 1.03.4 1.85-.2.45-.45.91-.77 1.28-1.45 1.72-2.9 3.44-4.42 5.09-.41.45-.65.82-.55 1.43.84 5.28 1.67 10.57 2.5 15.86.01.08.11.15.24.31 1.16-.78 1.97-1.91 2.9-2.91.41-.44.8-.9 1.26-1.27.45-.36 1.03-.47 1.53-.08.49.38.58.94.32 1.49-.23.49-.49 1-.86 1.39-1.29 1.4-2.58 2.79-3.97 4.09-.59.55-.78 1.04-.66 1.82.39 2.42.78 4.84 1.02 7.28.11 1.11-.01 2.27-.2 3.38-.14.83-.92.99-1.66.96-1.75-.06-3.5-.17-5.25-.21-3.27-.07-6.44-.83-9.63-1.45-.61-.12-1.3-.11-1.89.07-1.53.45-3.02 1.05-4.54 1.55-.95.31-1.91.6-2.89.8-1.09.22-1.76-.15-1.91-.92-.14-.69.31-1.28 1.26-1.6 1.09-.37 2.19-.69 3.28-1.05.31-.1.57-.25 1.09-.48z" fill="#6a885e"/><path d="m111.66 314.73c-5.38.04-10.18 1.75-14.45 5.01-.4.3-.79.63-1.23.85-.83.42-1.73.24-2.33-.41-.61-.66-.7-1.71-.17-2.49.19-.28.44-.55.71-.76 7.52-5.77 15.82-7.99 25.05-5.09 5.18 1.63 8.94 4.99 10.67 10.31.92 2.84.83 5.71.13 8.57-.11.47-.35.95-.66 1.32-.52.6-1.21.87-2.02.59-.83-.28-1.38-.83-1.44-1.73-.03-.44.07-.89.17-1.32 1.28-5.3-.75-10.02-5.51-12.72-2.76-1.56-5.75-2.21-8.92-2.13z" fill="#75544d"/><path d="m192.46 333.48c3.15.02 5.97 1.02 8.54 2.82 1.99 1.39 3.62 3.14 5.04 5.09 1.86 2.56 3.27 5.37 4.38 8.34.58 1.56.2 2.73-.97 3.17-1.2.45-2.13-.18-2.85-1.71-1.02-2.17-1.98-4.38-3.24-6.4-.96-1.55-2.21-2.99-3.57-4.21-3.73-3.34-7.96-3.9-12.51-1.77-2.48 1.16-4.54 2.88-6.42 4.85-.34.36-.66.76-1.05 1.07-.82.67-1.88.67-2.62.06-.81-.68-.95-1.72-.35-2.7.05-.09.11-.17.17-.24 3.77-4.26 8.11-7.56 13.96-8.33.15-.02.3-.03.45-.04z" fill="#75544d"/><path d="m320.47 320.51c.05 2.2.67 4.23 1.83 6.1.26.42.57.83.76 1.29.35.85.09 1.74-.61 2.29-.7.56-1.6.6-2.36.06-.28-.2-.54-.46-.74-.74-4.9-6.86-3.66-16.12 2.86-20.87 6.32-4.61 14.86-3.14 19.91 2.55.38.42.65 1.03.73 1.59.11.73-.27 1.36-.93 1.75-.65.39-1.36.44-1.99.03-.49-.32-.91-.77-1.34-1.18-3.12-2.9-6.73-4.08-10.9-2.94-4.39 1.22-7.32 5.38-7.22 10.07z" fill="#75544d"/><path d="m376.28 268.36c.04-4.41 1.85-8.03 5.05-10.98 5.01-4.63 12.5-5.73 18.26-2.71.88.46 1.73 1.02 2.49 1.65 1.11.91 1.23 2.1.45 3.03-.75.88-1.84.99-2.95.14-1.88-1.45-3.98-2.27-6.35-2.41-5.38-.3-10.67 3.14-12.33 8.05-1.14 3.38-.65 6.5 1.66 9.29.25.31.52.62.7.97.44.84.28 1.7-.36 2.34-.62.61-1.58.77-2.35.3-.46-.28-.87-.68-1.21-1.1-2.05-2.48-3.14-5.31-3.06-8.57z" fill="#75544d"/><path d="m149.87 361.23c-2.86-.22-5.23-1.27-7.06-3.38-2.62-3.03-3.47-6.68-3.39-10.59.02-1.12.87-1.91 1.88-1.97 1.07-.06 1.91.71 2.08 1.92.19 1.33.24 2.7.58 3.99.3 1.14.77 2.28 1.41 3.27 1.42 2.18 3.64 2.9 6.15 2.2 2.09-.58 3.77-1.81 5.25-3.33.76-.79 1.41-1.68 2.11-2.53.29-.34.54-.73.88-1.01.68-.56 1.52-.59 2.24-.16.76.46 1.13 1.28.92 2.19-.06.29-.18.58-.34.82-2.17 3.2-4.79 5.91-8.42 7.42-1.35.56-2.85.78-4.29 1.16z" fill="#75544d"/><path d="m367.53 322.42c-.97-.21-1.97-.32-2.9-.64-1.22-.42-1.76-1.54-1.4-2.6.36-1.07 1.45-1.7 2.66-1.27 2.96 1.05 7.21-1.14 8.73-3.31.75-1.07.75-1.47-.02-2.5-.74-.99-.74-1.92-.01-2.71.72-.78 1.91-.87 2.86-.21 1.5 1.05 2.31 3.16 1.75 5.06-.31 1.03-.8 2.06-1.43 2.93-2.19 3.02-6.47 5.11-10.24 5.25z" fill="#75544d"/><path d="m147.32 323.72c9.53-2.51 17.4.23 24.11 7.28.17-.48.33-.87.45-1.27 1-3.35 2.03-6.69 3.83-9.75.86-1.46 1.96-2.59 3.54-3.05 1.76-.52 3.58-1.04 5.4-1.13 7.57-.38 15.15-.01 22.46 2.06 8.47 2.4 16.79 5.31 24.03 10.59 1.83 1.33 3.55 2.76 5.03 4.48 2.68 3.09 4 6.75 4.52 10.76.68 5.23-.34 10.26-1.66 15.26-.69 2.61-1.49 5.19-2.31 7.76-1.41 4.43-3.63 8.45-6.35 12.19-3.27 4.5-7.81 6.98-13.15 8.3-5.69 1.41-11.31 1.05-16.94-.17-6.81-1.47-13.15-4.19-19.06-7.82-5.09-3.14-9.02-7.38-11.28-13.06-1.1-2.75-2.25-5.43-2.57-8.42-.42-3.98-.02-7.89.73-11.78.54-2.85 1.14-5.69 1.79-8.51.18-.76.06-1.34-.35-1.96-3.08-4.62-7.38-7.38-12.81-8.37-3.34-.61-6.57-.22-9.65 1.25-.9.43-1.51 1-1.86 2-1.19 3.41-2.86 6.6-4.66 9.73-2.01 3.48-4.67 6.36-7.99 8.62-6.9 4.7-14.47 7.67-22.77 8.65-5.44.64-10.64-.54-15.69-2.49-5.5-2.12-10.09-5.63-14.56-9.37-5.79-4.84-8.27-11.22-9.16-18.46-1.09-8.86.62-17.2 4.34-25.23 1.72-3.72 3.43-7.45 5.62-10.92.38-.6.99-1.15 1.62-1.49 1.63-.87 3.36-1.54 4.99-2.4 5.7-3.03 11.76-3.19 17.97-2.4 5.64.71 10.87 2.58 15.82 5.32 4.29 2.37 8.65 4.63 12.81 7.21 5.2 3.23 9.16 7.68 11.95 13.18 1.93 3.8 2.32 7.81 1.9 11.97-.03.3-.09.59-.11.89-.03.12 0 .27.02.55zm-49.27-35.45c-2.15-.18-5.19.51-8.09 1.89-1.08.51-2.17 1.03-3.3 1.45-1.97.72-3.4 2.14-4.31 3.89-1.82 3.5-3.5 7.09-5.05 10.72-3.2 7.48-3.92 15.26-2.4 23.23.7 3.67 1.84 7.25 4.43 10.04 4.61 4.96 9.9 9.04 16.24 11.58 4.77 1.91 9.71 2.82 14.83 2.09 6.88-.98 13.22-3.46 19.04-7.27 2.41-1.58 4.6-3.39 6.22-5.8 3.32-4.93 5.9-10.24 7.25-16.05 1.05-4.51.75-8.92-1.67-13.06s-5.48-7.72-9.56-10.18c-5.18-3.12-10.52-5.97-15.89-8.76-5.19-2.72-10.85-3.64-17.74-3.77zm91.27 31.35c-.01.08-.01.16-.02.24-1.05 0-2.1-.05-3.14.01-1.24.07-2.49.19-3.72.35-1.81.24-3.19 1.15-3.89 2.88-.66 1.62-1.33 3.24-1.86 4.9-1.64 5.15-2.95 10.39-3.89 15.71-.52 2.9-1.14 5.79-1.43 8.72-.42 4.27.6 8.27 2.33 12.22 2.08 4.73 5.29 8.39 9.59 11.03 5.74 3.52 11.88 6.2 18.54 7.47 2.69.51 5.44.88 8.17.92 2.69.04 5.35-.58 7.96-1.33 3.95-1.14 7.12-3.34 9.46-6.73s4.34-6.97 5.52-10.94c.99-3.3 1.97-6.61 2.81-9.95.71-2.81 1.09-5.69 1.05-8.61-.08-5.59-2.08-10.24-6.6-13.66-2.76-2.08-5.61-4.06-8.8-5.4-3.68-1.55-7.45-2.89-11.16-4.36-2.9-1.15-5.91-1.9-8.98-2.28-3.98-.5-7.96-.81-11.94-1.19z" fill="#f4fafa"/><path d="m351.09 292.95c1.05-2.46 2.38-4.61 4.33-6.33 1.92-1.7 4.16-2.72 6.76-3.09-.83-1.74-1.56-3.38-2.37-4.98-1.48-2.93-2.34-6.06-2.78-9.29-.13-.96.01-2.01.27-2.95 1.17-4.3 2.67-8.45 4.95-12.34 3.12-5.33 7.37-9.44 12.59-12.6 5.84-3.54 12.15-5.63 19.05-5.49 3.4.07 6.77.58 10.04 1.59 4.29 1.32 7.8 3.82 10.54 7.36 4.07 5.27 6.45 11.23 6.99 17.9.65 7.97-1.61 15.03-6.55 21.24-6.81 8.57-15.76 13.75-26.34 16.11-6.88 1.53-12.88-.54-17.85-5.43-1.92-1.89-3.57-4.04-5.28-6.13-.46-.56-.89-.78-1.61-.84-2.61-.19-4.67.84-6.4 2.69-1.43 1.53-2.32 3.36-2.92 5.35-.22.73-.07 1.33.36 1.96 3.8 5.54 5.15 11.76 4.89 18.37-.11 2.66-.79 5.25-1.88 7.68-1.1 2.46-2.19 4.95-3.52 7.29-3.32 5.86-8.1 10.36-14.03 13.39-6.9 3.52-13.93 3.49-20.78-.48-7.31-4.23-12.04-10.52-14.93-18.34-1.38-3.74-2.03-7.63-2.32-11.58-.1-1.33-.05-2.69.11-4.02.1-.87.37-1.8.81-2.54 2.55-4.24 5.08-8.5 8.5-12.15 4.41-4.7 9.69-7.89 15.97-9.27 7.99-1.77 15.14.24 21.51 5.27.6.5 1.18 1.04 1.89 1.65zm42.11-53.01c-.79.04-1.69.03-2.58.15-1.33.18-2.68.35-3.98.71-9.08 2.52-16.46 7.36-21.14 15.78-2.07 3.72-3.81 7.5-4.01 11.9-.09 1.97.07 3.8.84 5.55 1.19 2.7 2.43 5.38 3.79 7.99 1.84 3.53 4.3 6.63 7.12 9.43 4.29 4.26 9.36 6.02 15.34 4.47 9.52-2.48 17.61-7.23 23.65-15.16 3.05-4 4.84-8.54 5.17-13.54.5-7.39-1.67-14.03-6.17-19.89-2.29-2.98-5.25-5.06-8.89-6.07-2.95-.82-5.97-1.22-9.14-1.32zm-37.5 74.8c-.1-8.23-2.86-14.75-8.63-19.82-4.97-4.36-10.81-6.19-17.39-5.08-5.86 1-10.78 3.82-14.86 8.15-2.49 2.64-4.48 5.63-6.37 8.7-.8 1.31-1.76 2.51-1.74 4.19.01 1.34-.35 2.69-.25 4.01.22 2.95.79 5.84 1.76 8.65 2.46 7.09 6.58 12.86 13.14 16.75 5.67 3.36 11.48 3.41 17.18.46 5.14-2.66 9.32-6.57 12.22-11.66 1.24-2.17 2.28-4.45 3.27-6.75 1.12-2.59 1.77-5.31 1.67-7.6z" fill="#f4fafa"/><g fill="#f8d86f"><path d="m450.81 212.46c.27-.53.43-1.13.8-1.55 3.02-3.4 4.45-7.56 5.65-11.81 2.06-7.25 3.56-14.62 3.41-22.17-.16-8.39-4.17-14.68-11.48-18.76-3.63-2.03-7.56-2.46-11.64-1.72-1.51.28-1.5.27-1.75 1.73-.65 3.81-1.61 7.53-3.07 11.11-.93 2.28-2.03 4.46-3.53 6.43-1.04 1.36-2.22 2.58-3.76 3.39-3.87 2.04-7.75.09-8.4-4.21-.27-1.78.09-3.49.6-5.17.98-3.22 2.74-5.99 5.11-8.37 2.75-2.77 5.94-4.9 9.61-6.25.93-.34 1.28-.8 1.39-1.8.88-8.07.66-16.09-.95-24.05-.92-4.54-2.41-8.88-4.8-12.87-.54-.9-1.13-1.77-1.73-2.63-2.87-4.09-6.77-6.36-11.77-6.89-3.42-.37-6.77-.12-10.27.59.17.87.33 1.64.48 2.41 1.86 9.92 1.15 19.62-2.53 29.06-1.03 2.63-2.36 5.09-4.29 7.17-3.17 3.41-7.02 4.86-11.65 3.87-3.58-.77-6.1-2.88-7.52-6.26-1.61-3.84-1.73-7.82-.7-11.78 2.13-8.16 6.41-15.05 12.65-20.7 2.51-2.27 5.45-3.89 8.6-5.11.46-.18.92-.36 1.4-.55-.02-.25.01-.46-.05-.64-3.06-10.21-9.21-17.79-19.09-22.03-7.79-3.34-15.34-2.55-22.49 1.96-3.47 2.19-6.25 5.14-8.8 8.31-2.24 2.77-4.22 5.71-5.69 8.96.08.18.13.31.2.44.56.99.51 1.61-.18 2.08-.7.48-1.8.39-2.28-.36-.33-.51-.54-1.21-.49-1.8.07-.77.34-1.57.7-2.27 3.53-6.93 8.2-12.98 14.69-17.34 8.39-5.63 17.34-6.31 26.51-1.99 9.52 4.48 15.79 11.88 19.08 21.86.22.66.46 1.31.71 2.01 1.54-.22 3.01-.45 4.49-.63 3.26-.38 6.49-.2 9.69.54 3.78.87 6.92 2.81 9.43 5.77 3.39 3.99 5.67 8.59 7.19 13.56 1.78 5.83 2.58 11.83 2.67 17.9.06 3.89-.19 7.79-.3 11.81.21 0 .54.05.85-.01 5.39-.9 10.38.17 14.88 3.21 7.03 4.75 10.77 11.41 11.05 19.91.17 4.98-.64 9.88-1.56 14.75-.94 4.97-2.18 9.87-4.2 14.53-.67 1.55-1.5 3.06-2.44 4.46-.53.8-1.39 1.42-2.2 1.97-.62.39-1.38.62-2.23-.07zm-49.17-104.27c-3.47 1.09-6.39 2.62-8.89 4.83-5.94 5.23-9.98 11.69-12.04 19.34-.9 3.35-.87 6.74.4 10.04 1.03 2.68 2.96 4.35 5.78 4.92 3.23.65 6.04-.19 8.41-2.48 2.06-1.99 3.38-4.46 4.41-7.08 2.97-7.62 3.78-15.51 2.89-23.6-.21-1.94-.61-3.85-.96-5.97zm31.44 49.64c-.48.15-.77.21-1.04.33-3.41 1.56-6.37 3.74-8.74 6.66-1.57 1.92-2.75 4.07-3.25 6.51-.24 1.2-.32 2.49-.17 3.7.2 1.62 1.64 2.53 3.19 2.05.92-.28 1.9-.78 2.54-1.47 1.17-1.28 2.26-2.68 3.1-4.19 2.3-4.17 3.5-8.7 4.37-13.59z"/><path d="m86.95 170.54c.36-.71.61-1.19.84-1.67 4.06-8.3 9.34-15.73 15.9-22.24 3.19-3.15 6.72-5.83 10.84-7.68 2.91-1.3 5.94-2.08 9.15-2.03.24 0 .49-.02.8-.04.27-.6.55-1.18.8-1.77 3.23-7.57 7-14.84 11.77-21.56 2.23-3.15 4.58-6.21 7.59-8.67 1.08-.88 2.3-1.59 3.48-2.33.4-.25.9-.35 1.35-.51.08.08.16.16.24.24-.27.43-.48.89-.81 1.27-.99 1.13-1.97 2.27-3.03 3.33-4.32 4.31-7.79 9.25-10.87 14.49-2.76 4.71-5.12 9.62-7.24 14.65-.17.4-.29.82-.45 1.29.32.13.54.24.77.32 3.75 1.26 6.18 3.89 7.3 7.59 2.19 7.22 1.13 14.06-2.94 20.39-.69 1.06-1.69 2-2.72 2.75-2.59 1.86-5.61 1.59-7.95-.62-2.23-2.1-3.23-4.76-3.35-7.79-.12-3.04.53-5.98 1.34-8.87.94-3.32 2.06-6.58 3.1-9.87.15-.46.3-.92.49-1.51-1.86-.12-3.46.27-5.03.73-2.77.8-5.3 2.12-7.59 3.84-1.76 1.32-3.5 2.69-5.06 4.23-7.12 7.04-12.73 15.14-16.73 24.34-.42.97-.49 1.84-.22 2.87 1.9 7.3 1.7 14.56-.61 21.75-.32.99-.77 1.96-1.26 2.88-.48.91-1.19 1.65-2.35 1.59-1.24-.06-1.86-.95-2.19-1.98-.37-1.13-.68-2.31-.81-3.49-.42-3.98.2-7.9 1.05-11.76.69-3.17 1.64-6.28 2.56-9.4.23-.77.26-1.41-.05-2.16-1.39-3.37-3.44-6.21-6.44-8.3-4.59-3.19-9.48-3.78-14.65-1.59-3.86 1.64-6.98 4.26-9.63 7.47-2.89 3.51-5.11 7.42-6.71 11.66-2.77 7.35-4.34 14.98-4.81 22.82-.23 3.83.19 7.61 1.44 11.25.49 1.41 1.15 2.78 1.91 4.06.99 1.67 2.44 2.9 4.27 3.63 2.51 1 4.96.88 7.1-.8 1.32-1.04 2.53-2.28 3.58-3.6 2.81-3.55 4.46-7.67 5.46-12.07 1.67-7.31 1.66-14.59-.43-21.82-.37-1.29-.94-2.53-1.52-3.74-.34-.7-.78-1.38-1.85-1.12-.58.14-1.02-.3-1.22-.89-.2-.61.02-1.1.47-1.47.67-.55 1.43-.64 2.25-.33 1.19.45 2.09 1.28 2.6 2.37.79 1.66 1.56 3.37 2.05 5.13 2.49 9.05 2.01 18.03-.99 26.88-1.29 3.83-3.26 7.31-5.99 10.31-.67.74-1.39 1.45-2.17 2.07-3.8 3.04-8.33 3.22-12.39.52-2.33-1.55-3.88-3.73-4.97-6.26-1.58-3.63-2.33-7.46-2.36-11.39-.06-8.86 1.77-17.39 4.7-25.7 1.4-3.99 3.37-7.69 5.83-11.13 2.56-3.58 5.62-6.63 9.41-8.92 11.32-6.84 21.41-.83 25.85 6.53.35.54.64 1.06 1.1 1.83zm39.38-30.55c-.17.33-.38.66-.5 1.02-1.28 4.1-2.65 8.17-3.76 12.31-.55 2.05-.78 4.23-.87 6.36-.1 2.32.71 4.43 2.46 6.07 1.38 1.29 3.01 1.51 4.49.39.94-.71 1.77-1.62 2.44-2.59 1.47-2.12 2.26-4.56 2.74-7.08.71-3.75.67-7.46-.74-11.07-1.12-2.84-3.12-4.69-6.26-5.41zm-41.56 58.23c2.52-5.9 2.93-12.02 2.04-18.65-.27.48-.4.62-.45.79-1.03 3.81-1.8 7.68-2.12 11.61-.17 2.08-.27 4.19.53 6.25z"/><path d="m108.83 112.74c-11.43 2.85-17.59 10.51-19.99 21.35-2.4-10.82-8.56-18.49-19.98-21.35 5.42-.75 9.7-3.58 13.3-7.56 3.61-3.98 5.87-8.63 6.66-13.98 1.7 11.73 11.47 20.64 20.01 21.54z"/><path d="m411.46 77.78c8.36-2.41 13.07-8.14 15.07-16.55 1.98 8.41 6.69 14.12 15.09 16.55-8.37 2.43-13.06 8.11-15.08 16.53-.14-.44-.26-.76-.34-1.08-1.46-6.2-5-10.83-10.57-13.85-1.29-.7-2.75-1.07-4.17-1.6z"/><path d="m223.88 157.32c8.56-2.27 13.26-8.07 15.31-16.46 2.04 8.46 6.78 14.19 15.16 16.42-8.4 2.21-13.16 8-15.17 16.55-.13-.5-.24-.91-.35-1.33-1.56-6.28-5.2-10.93-10.96-13.89-.62-.32-1.29-.53-1.96-.75-.66-.2-1.33-.36-2.03-.54z"/><path d="m277.17 411.5c1.89 8.29 6.55 14.13 15.08 16.55-8.5 2.42-13.18 8.24-15.08 16.56-1.85-8.34-6.54-14.07-14.97-16.55 8.39-2.45 13.13-8.19 14.97-16.56z"/><path d="m254.13 222.24c.8-.05 1.44-.14 2.08-.13 2.48.04 4.42 1.11 5.77 3.2 1.52 2.36 2.32 4.96 2.68 7.72.41 3.15.1 6.3-.08 9.44-.17 2.99-.53 5.98-.83 8.96-.06.59-.16 1.2-.35 1.76-.15.46-.41.92-.73 1.28-.42.46-.99.72-1.62.4-.65-.34-.66-.94-.5-1.57 1.08-4.2 1.11-8.52 1.38-12.8.14-2.29.12-4.6.01-6.89-.1-2.22-.8-4.32-1.89-6.26-1.31-2.32-3.32-3.04-5.87-2.22-.58.19-.9.51-1.11 1.08-.28.8-.6 1.6-1.05 2.31-.39.62-.92 1.19-1.51 1.62-.85.63-1.83.58-2.5.01-.73-.61-.95-1.44-.65-2.3.26-.74.67-1.44 1.1-2.11.26-.41.62-.85 1.04-1.06 1.51-.76 1.76-2.13 1.96-3.6.58-4.29.82-8.58-.04-12.84-.37-1.84-1.1-3.62-1.73-5.4-.19-.55-.55-1.07-.9-1.55-1.68-2.37-3.5-2.73-5.89-1.06-2.15 1.5-4.08 3.22-5.09 5.76-.24.61-.71.98-1.41.86-.62-.1-1.13-.74-1.03-1.45.07-.58.26-1.19.55-1.69 1.66-2.76 3.87-4.98 6.72-6.48 2.55-1.34 5.13-.98 7.14 1.11.99 1.03 1.81 2.27 2.46 3.55 1.86 3.64 2.42 7.61 2.44 11.64.01 2.44-.29 4.89-.45 7.33-.02.39-.06.79-.1 1.38z"/><path d="m227.59 262.21c-1.8-7.1-5.81-11.96-12.88-13.92 7.13-1.95 11.1-6.84 12.88-13.94 1.77 7.05 5.73 11.98 12.85 13.93-7.82 3.07-10.01 5.44-12.85 13.93z"/><path d="m373.98 54.51c5.87-1.73 9.17-5.66 10.74-11.47.55 1.41.93 2.71 1.56 3.88.63 1.18 1.39 2.32 2.3 3.3.94 1.01 2.04 1.93 3.2 2.67 1.12.71 2.42 1.13 3.59 1.66-5.65 1.66-8.99 5.61-10.59 11.61-1.61-5.94-4.89-9.94-10.8-11.65z"/><path d="m107.4 202.37c4.71-1.4 7.23-4.53 8.63-9.14 1.4 4.59 3.91 7.72 8.56 9.11-4.53 1.47-7.21 4.5-8.52 9.22-1.41-4.57-3.94-7.75-8.67-9.19z"/><path d="m358.65 149.69c1.32 4.69 3.93 7.73 8.32 9.2-4.94 2.27-6.61 4.08-8.32 9.12-1.39-4.41-3.84-7.6-8.53-9.05 4.57-1.52 7.2-4.59 8.53-9.27z"/></g><path d="m206.78 111.69c8.48-2.36 13.15-8.07 15.21-16.53.14.48.26.81.34 1.15 1.49 6.19 5.04 10.82 10.63 13.83 1.3.7 2.79 1.06 4.18 1.57-8.36 2.28-13.11 8.05-15.15 16.53-2.01-8.44-6.75-14.19-15.21-16.55z" fill="#b2e5d4"/><path d="m48.53 147.99c-.63-2.72-1.68-4.9-3.34-6.75-1.67-1.85-3.65-3.2-6.48-3.86 5.46-1.7 8.43-5.31 9.85-10.61 1.41 5.37 4.4 8.94 9.69 10.56-5.35 1.64-8.3 5.22-9.72 10.66z" fill="#b2e5d4"/><path d="m243.7 443.92c-4.9 1.47-7.89 5.01-9.31 10.1-.71-1.54-1.22-3.08-2.09-4.39s-1.96-2.56-3.2-3.53c-1.27-.99-2.83-1.62-4.16-2.34 5.54-2.41 7.6-4.62 9.26-10.12.7 1.51 1.22 3.06 2.09 4.39.87 1.31 1.96 2.56 3.2 3.52 1.27 1 2.84 1.62 4.21 2.37z" fill="#b2e5d4"/></g></g></svg>