<svg id="Layer_1" enable-background="new 0 0 512 512" height="512" viewBox="0 0 512 512" width="512" xmlns="http://www.w3.org/2000/svg"><g><path d="m191.4561 149.0767c2.776-4.5128 5.0885-8.9724 8.0518-12.9467 6.6348-8.8982 16.1777-13.2705 26.5013-16.4675 36.7219-11.3721 73.4421 5.1996 93.567 34.6462 11.9324 17.4594 19.6444 36.786 25.3961 57.0077 6.0519 21.2772 8.8225 43.0019 9.3927 65.0706.583 22.5661-1.0153 45.0153-3.3019 67.4347-.4523 4.4346-1.01 8.8584-1.5204 13.2982 5.7232 1.085 11.231 2.1292 16.7388 3.1733-.0498.2732-.0995.5464-.1493.8195-5.6061-.3015-11.2121-.6029-16.9649-.9123-1.803 12.9374-3.6299 25.6585-5.3342 38.3961-1.3944 10.4215-2.6443 20.8623-3.9553 31.2949-1.9717 15.6913-2.4907 31.4371-1.6898 47.2254.1798 3.5439.2722 3.5088-3.3907 3.6931-10.4992.5283-20.9931 1.1826-31.4965 1.6038-14.2227.5703-28.3633-.7157-42.4834-2.2346-19.8873-2.1393-39.5632-5.411-58.8334-10.9025-35.6187-10.1505-68.6866-25.4948-98.4079-47.8158-28.7141-21.5645-50.2506-48.7338-64.467-81.7022-7.1307-16.5363-10.9595-33.9286-13.3203-51.6996-1.6098-12.1174-2.0257-24.2287-.6625-36.4209 1.4285-12.776 5.2274-24.8235 10.5341-36.4315 12.6641-27.7017 31.4591-49.9462 58.341-64.8591 18.6011-10.3191 38.3807-16.1409 59.8428-14.6866 13.3201.9025 25.2892 6.0102 36.6071 12.811.3634.2185.7262.4372 1.0048.6048zm139.6772 212.4435c-5.8975.603-11.7985 1.1741-17.6919 1.8149-16.9608 1.8444-33.7114 4.8625-50.1838 9.3134-21.8328 5.8992-42.6279 14.3724-61.9833 26.0976-5.7073 3.4574-10.7852 7.954-16.1515 11.9743-.6786.5101-1.4372.9423-2.0223 1.5434-3.0935 3.1783-6.0684 6.4773-9.269 9.5415-.6687.6402-2.6477.997-3.0863.555-.7904-.7964-1.4063-2.4416-1.1253-3.4663.4142-1.5107 1.5759-2.8702 2.6007-4.1487 2.2097-2.7567 4.535-5.4207 6.8129-8.1227.8313-.4563 1.7919-.7703 2.4742-1.3905 9.3949-8.5399 20.071-15.1234 31.3133-20.9149 14.6557-7.5499 29.8271-13.784 45.6991-18.234 15.0622-4.2229 30.2973-7.7524 45.9423-8.8638 8.8694-.6301 17.7877-.5713 26.684-.8228 1.9248.0667 3.8514.1021 5.7739.2104 1.4314.0807 2.0542-.5489 2.174-1.9612.3328-3.9218.8037-7.8325 1.1063-11.7563 1.1963-15.512 2.8503-31.0096 3.3996-46.5455.8088-22.8715-.5427-45.6131-5.4376-68.1236-4.7463-21.8271-11.6125-42.772-23.2601-61.9133-14.1177-23.2006-33.7947-38.0324-61.7647-39.9177-9.5446-.6434-18.8254.5982-27.8312 3.8437-7.6662 2.3859-14.5718 5.9539-19.5216 12.5614-2.1955 3.0428-4.3731 6.0988-6.595 9.1223-.9239 1.2572-.9144 2.2065.314 3.3672 2.2209 2.0985 4.4666 4.2304 6.3325 6.635 9.4605 12.1918 14.9938 25.8695 15.2227 41.4713-.9141 1.8486-1.8283 3.6972-2.7424 5.5458-.3785-.0213-.7569-.0427-1.1354-.064-.7864-1.5529-1.663-3.0682-2.3305-4.6706-.5276-1.2665-.7984-2.6399-1.1832-3.9658-1.044-3.4948-1.9489-7.0385-3.159-10.4748-3.2597-9.2571-7.5-18.1071-14.8194-24.7929-15.1825-13.8682-32.9085-21.3267-53.8432-19.5306-8.9205.7654-17.6107 2.6965-25.9982 5.8891-3.0151 1.3627-6.0253 2.7363-9.0462 4.0859-8.5469 3.8183-16.5646 8.4913-23.6838 14.621-2.8229 2.3238-5.8091 4.4779-8.4374 7.0042-7.0852 6.8103-13.3698 14.3114-18.8564 22.4867-10.8026 16.0964-18.0374 33.5947-20.5191 52.8747-1.1367 8.8303-.8502 17.7213-.1123 26.6119.9045 10.8977 2.3795 21.6486 5.2528 32.2423 4.073 15.0169 9.6768 29.3089 17.2296 42.9658 13.1659 23.8065 31.3303 43.0111 52.7625 59.3946 10.3896 7.942 21.527 14.705 32.9632 21.003 11.1249 6.1265 22.4073 11.9304 34.5077 15.9164 8.3849 2.7621 16.8463 5.2921 25.2761 7.9178 15.8778 4.9455 32.0011 8.9093 48.3506 11.9327 16.3306 3.02 32.7389 5.2343 49.4182 4.1495 8.1059-.5271 16.2094-1.0908 24.3174-1.5833 1.6862-.1025 2.2639-.8047 2.1631-2.4887-.2665-4.4546-.3976-8.9172-.5826-13.3767.0247-.7809.0096-1.5655.0803-2.3422.809-8.8913 1.6311-17.7815 2.4496-26.6719 2.9046-22.3719 5.8092-44.7437 8.7424-67.3356-2.6701.3-4.8302.5428-6.9903.7856z" fill="#3e0e10"/><path d="m360.816 124.6398c-5.9885 2.4204-11.546 5.0186-17.341 6.8757-3.4322 1.0999-7.2292 1.263-10.8806 1.4214-3.83.1661-5.5562-1.8295-4.9951-5.6302.4961-3.3613 1.1872-6.734 2.2126-9.9684 2.0109-6.3429 4.317-12.5921 6.4933-18.8826.3356-.9698.6312-1.9535 1.0603-3.2887-6.6515.4768-12.4368-1.1909-17.7974-4.458-11.9043-7.2553-15.2654-23.8614-6.5421-34.5714 8.5597-10.5092 19.8062-14.6351 33.2396-11.9388 3.234.6491 6.3524 1.8743 9.559 2.8452 4.8929-13.47 16.5375-15.0374 28.4216-15.1584 9.3963-.0957 18.1572 2.5788 24.8463 9.9517 7.5261 8.2955 9.8014 22.2684 3.1779 31.8482-.2357.3408-.3671.7537-.5504 1.1398 2.9832 1.4796 5.9589 2.7481 8.7293 4.3679 8.6453 5.0545 13.2502 12.8656 14.2916 22.6337.9183 8.6134-4.3242 14.1283-10.8303 18.4479-5.5059 3.6556-11.7416 4.3769-18.162 2.7563-2.046-.5164-3.2142-.1155-4.3354 1.8949-2.3132 4.1478-5.2325 7.9148-9.4369 10.3836-9.4037 5.5219-23.8391 1.5245-29.7486-8.1921-.5354-.8805-1.0215-1.7907-1.4117-2.4777zm5.8587-67.8856.1515-.0243-.1443.0523c2.319 5.3248 2.4778 6.7133.9155 8.9967-1.5576-6.171-5.9254-9.4597-11.5561-11.1653-4.0052-1.2132-8.1314-2.1092-12.2605-2.8137-9.2248-1.5741-17.1218 1.1448-23.5708 7.9255-2.3621 2.4836-3.7852 5.426-3.7629 8.9442.3572 2.6508.1551 5.5418 1.1715 7.9097 3.7869 8.8222 11.5276 11.2446 20.2998 11.8633 2.5507.1799 4.4154-.3757 5.4828-2.7806.2766-.6231.4297-1.3011.6395-1.9538.5239.3559 1.0478.7118 1.5716 1.0676-2.1126 9.3292-4.2252 18.6585-6.3759 28.1563 3.0543-3.7747 5.9051-7.5382 9.038-11.0501 1.2269-1.3753 2.9591-2.528 4.6884-3.1722 2.4481-.9119 4.5363 1.1439 3.7278 3.622-.6379 1.9556-1.622 3.9019-2.8688 5.5342-2.8682 3.755-6.0182 7.2934-8.9983 10.9648-1.6714 2.059-3.232 4.2079-5.3248 6.9475 1.7402-.4392 2.7402-.5003 3.5482-.9259 6.2573-3.2955 12.4461-6.7222 18.7281-9.9689 1.9096-.9869 4.0013-1.7372 6.0972-2.1937.8878-.1934 2.4569.3798 2.8838 1.0988.4219.7108.0475 2.1851-.4403 3.0692-.5707 1.0345-1.5281 1.9614-2.5219 2.6324-1.5639 1.0558-1.3486 2.0813-.5855 3.5251 4.2031 7.9529 16.5212 10.0192 23.1636 3.7167 1.8216-1.7284 3.6643-3.6753 4.7502-5.8885 2.2636-4.6139 4.0278-9.4728 5.9986-14.2304.7165-1.7296 1.437-3.4574 2.1556-5.1861.2841-.0222.5682-.0443.8522-.0665.4682.9268 1.1172 1.8064 1.3734 2.7884 1.1286 4.3259 1.289 8.6519-.3266 12.9296-.2841.7523-.3923 1.571-.6567 2.6706 2.9053-.8789 5.3318-1.6096 7.7541-2.3538.1563-.048.2805-.2002.4197-.3039 5.7124-1.1293 10.4276-3.9715 13.8959-8.6134.9228-1.235 1.4898-3.088 1.4455-4.6351-.2545-8.8817-3.9969-15.7392-12.1914-19.7901-.809-.4311-1.6179-.8621-2.4268-1.2932-4.6934-3.1545-5.8999-3.0351-9.874.8475-2.2037 2.1531-4.7868 3.195-7.9701 2.7231 1.8814-1.5437 3.8353-2.7235 5.2381-4.3721 5.7006-6.6998 7.4004-14.7324 6.9451-23.2628-.528-9.8918-9.2828-17.9886-19.3026-18.1467-2.9696-.1616-5.9398-.4675-8.9085-.4528-5.1887.0257-10.0574 1.2655-14.2164 4.56-3.64 2.8833-3.9094 6.1704-.834 9.5274.5851.6387 1.1968 1.2532 1.7962 1.8789.1284.2308.2569.4615.3853.6921z" fill="#401213"/><path d="m404.6973 184.393c.4218-1.8164.7372-3.5392 1.2251-5.2116 1.9565-6.7058 6.1755-11.6458 12.8777-13.4402 15.4396-4.1339 29.7663-2.1306 41.713 9.4556 6.0002 5.8192 8.7672 12.8078 6.4569 21.2019-.4791 1.7408.5167 2.3492 1.6208 3.1156 5.4883 3.8098 10.7923 7.8042 14.1101 13.8395 3.4894 6.3476 5.0596 13.1512 3.557 20.2264-.6382 3.0047-2.3365 6.1633-4.4533 8.3998-5.2032 5.4973-11.4989 9.1502-19.7131 8.2608-.3784 1.0056-.7219 1.9682-1.1005 2.9167-3.0609 7.6688-10.6694 10.9542-18.2796 7.7288-2.565-1.0871-5.0215-2.4981-7.3705-4.0057-1.8566-1.1916-3.3247-1.2784-5.2397-.0204-6.6223 4.3502-13.8148 6.2936-21.7332 4.4181-5.1051-1.2092-9.3843-3.8612-12.8107-7.7849-3.3931-3.8855-3.7429-9.4819-1.1018-14.2584.4138-.7485.8433-1.4883 1.1994-2.1155-7.8648-3.2691-15.6585-6.3458-23.2977-9.7675-2.8913-1.295-5.6529-3.1227-8.0555-5.1929-2.1384-1.8426-1.6817-3.2565.9062-4.5915 8.7014-4.4889 17.4196-8.9454 26.3995-13.5518-2.2296-4.926-4.1675-10.036-1.4783-15.2621 3.1781-6.1764 9.1888-4.0292 14.5682-4.3607zm27.5836 63.2683c2.1594-1.5586 4.3188-3.1172 6.4782-4.6759 1.7062-2.2767 3.4125-4.5534 5.5135-7.357v5.1443c-2.1523 3.7853-4.3046 7.5705-6.7324 11.8404 3.1215 1.1569 5.961 2.5587 8.9639 3.2389 4.304.9749 8.2174-2.0561 8.9039-6.4577.1571-1.0076.1285-2.0443.1885-3.1222.9982-.2605 1.9242-.5042 2.8514-.7437 5.7751-1.4917 11.5002-3.087 16.3864-6.7552 3.6993-2.7771 5.7067-6.2897 5.2354-11.0505-.9758-9.8557-6.4636-16.7187-14.3664-22.0801-1.9614-1.3306-3.4236-1.4415-4.6369.7895-3.2165 2.0941-6.2842 4.5862-10.527 3.9343 1.8656-1.4933 4.2505-2.643 5.5053-4.5402 4.9925-7.5484 6.0359-17.0844-.8054-24.6918-7.9355-8.8241-24.5368-11.7217-34.5489-7.9082-4.2337 1.6126-7.9908 4.0794-8.8748 9.134v9.0415c-2.0763-.2142-3.6274-.4166-5.185-.5231-1.5727-.1075-3.1523-.1118-4.7284-.1754-7.092-.2862-7.3687.1174-6.1009 7.1011.5073 2.7946 1.1835 4.8394 4.7069 4.6261 1.0163-.0615 2.1147 1.2346 3.1755 1.9083-.7566.752-1.3838 1.7649-2.2904 2.2147-7.1313 3.5386-14.3177 6.966-21.4802 10.442-.4619.2242-.866.5676-1.8767 1.2427 2.9266 0 5.1132-.0431 7.2975.009 4.4538.1062 8.9256.0609 13.3517.4812 2.3894.2269 4.721 1.2573 5.6884 4.0326-2.6686 2.7213-6.025 1.4374-9.0295 1.7589-3.0506.3264-6.127.412-9.192.603 3.4529 1.6036 7.0348 2.6762 10.4555 4.1284 2.5479 1.0817 5.0233 2.464 7.2751 4.071 1.7046 1.2164 1.5257 3.1527-.3286 3.6973-3.3573.9859-3.8154 3.7102-4.6199 6.3495-1.087 2.3978-.2888 4.414 1.3584 6.1794 3.7707 4.0417 8.3691 6.1965 13.9786 5.9429 7.2144.176 12.6307-3.7836 18.0093-7.83z" fill="#401214"/><path d="m205.785 142.7945c4.9497-6.6076 11.8553-10.1755 19.5217-12.5614 2.1726.5264 4.3255 1.1602 6.5209 1.5613 11.5548 2.1108 22.8173 5.2455 33.4262 10.3103 13.7973 6.587 24.4466 16.9307 33.4622 29.0805 7.6985 10.3748 13.7446 21.6799 18.1215 33.801 3.372 9.3382 6.6089 18.767 9.1367 28.3582 3.4872 13.2313 5.2209 26.8199 6.1237 40.4691.4958 7.4971.5665 15.0331.5488 22.5509-.0258 10.9374-.2276 21.876-.499 32.8106-.2253 9.0765-.6595 18.1479-1.0011 27.2216-8.8963.2515-17.8146.1927-26.684.8228-15.645 1.1115-30.88 4.6409-45.9423 8.8638-15.8721 4.45-31.0434 10.6841-45.6991 18.234-11.2424 5.7914-21.9184 12.375-31.3133 20.9149-.6823.6202-1.643.9342-2.4744 1.3903-5.4589-3.4467-10.8934-6.9324-16.3812-10.3319-12.4985-7.7423-24.4536-16.2561-35.1395-26.3538-6.7306-6.36-12.9968-13.2404-19.1602-20.1642-7.2705-8.1675-13.4254-17.1967-18.4886-26.8853-3.7874-7.2475-7.1285-14.7302-10.602-22.1393-4.748-10.1278-7.8572-20.8226-8.5393-31.9233-.7986-12.9968-.55-26.1033 1.6065-38.9758 2.4724-14.7583 5.782-29.3747 8.5671-44.0831.9842-5.1979 1.4949-10.4855 2.2218-15.7322 7.1192-6.1297 15.1369-10.8027 23.6838-14.621 3.0209-1.3496 6.0311-2.7232 9.0463-4.086.6501.1448 1.3264.4875 1.9461.405 8.9393-1.1909 17.7781-.2622 26.5271 1.4708 8.3163 1.6473 15.8487 5.3183 23.2476 9.4059 10.098 5.5788 19.2244 12.401 27.5301 20.3439 4.8164 4.606 9.4076 9.4467 14.1928 14.0863 1.2845 1.2454 2.9081 2.1411 4.376 3.1974.3848 1.3259.6556 2.6994 1.1832 3.9658.6675 1.6024 1.5441 3.1177 2.3305 4.6706.3785.0213.7569.0427 1.1354.064.9141-1.8486 1.8282-3.6972 2.7428-5.5458.4973-.6238 1.1934-1.1732 1.4593-1.8835 1.935-5.1685 2.9633-10.3314 2.4221-16.0469-.9774-10.322-3.2487-20.1644-8.2626-29.2358-2.8092-5.0825-5.7748-10.1633-10.8936-13.4297zm64.3531 112.8055c3.1305-7.0336 6.4862-13.9778 9.3245-21.1274 2.5597-6.4479 3.9621-13.1829 3.3881-20.2563-.3077-3.792-.0547-7.6296-.0547-12.2195 2.7841 1.7419 5.1498 3.1671 7.459 4.6787 4.175 2.7329 8.2543 5.6176 12.4963 8.2403 2.3131 1.43 5.6323.8147 6.6922-.864 1.1315-1.7919.6024-4.3472-1.2546-5.9007-9.0446-7.567-19.1243-13.5609-29.4256-19.1928-3.8047-2.0801-7.5047-.2808-8.406 3.9762-.2806 1.3253-.1846 2.7924.0312 4.1481.5063 3.1796 1.4317 6.3068 1.7517 9.4989.7371 7.352.9767 14.8488-1.98 21.7304-5.2141 12.1357-10.781 24.1332-16.6378 35.972-1.9385 3.9184-5.2227 7.1712-7.8947 10.7261-.439.5841-.8937 1.1565-1.3412 1.7343.1314.2855.2628.5709.3942.8564 1.5853-.3421 3.1706-.6841 4.7559-1.0262-1.4264 5.0624-2.4394 10.1325-2.1333 15.4853 1.2761 22.3111 22.869 38.2824 44.6698 33.0807 18.2169-4.3466 29.6526-21.9843 27.7366-39.8012-1.771-16.4688-16.9974-31.5817-33.5262-31.7694-5.34-.0608-10.6964 1.3127-16.0454 2.0301zm-102.617 16.6719c-.7334.2616-1.4533.5728-2.2022.7777-19.2656 5.2707-33.4668 23.5894-33.5229 43.2177-.072 25.2163 20.0734 46.7115 46.6238 46.1881 34.0543-.6713 55.5249-37.6714 38.8636-67.4156-3.2386-5.7817-8.0061-10.1236-12.5208-14.7475.7289-1.6432.054-2.6622-1.4551-3.3452-4.5403-2.0549-9.179-3.9229-13.5928-6.2218-16.8487-8.7759-33.718-17.5209-50.3808-26.6405-6.6572-3.6435-12.7568-8.2954-19.1899-12.3622-4.0848-2.5822-7.8074-2.0538-11.1602 1.4079-1.9474 2.0106-3.8977 4.0466-5.5983 6.2619-2.9772 3.8782-5.9218 7.801-8.5689 11.9058-1.5461 2.3975-.3558 5.0522 2.453 5.285 1.6088.1333 3.6913-.8889 4.959-2.0486 3.9398-3.6039 7.6297-7.486 11.336-11.3376 1.3276-1.3797 2.4754-1.6288 4.0681-.4197 10.4947 7.9671 21.7715 14.6663 33.4916 20.6616 5.5259 2.8266 10.9349 5.8815 16.3968 8.833z" fill="#d5362f"/><path d="m83.1179 170.0334c-.7269 5.2467-1.2376 10.5343-2.2218 15.7322-2.7851 14.7085-6.0946 29.3249-8.5671 44.0831-2.1565 12.8725-2.4051 25.979-1.6065 38.9758.6821 11.1007 3.7913 21.7954 8.5393 31.9233 3.4734 7.4091 6.8146 14.8918 10.602 22.1393 5.0631 9.6887 11.2181 18.7179 18.4886 26.8853 6.1634 6.9239 12.4297 13.8042 19.1602 20.1642 10.6859 10.0977 22.641 18.6115 35.1395 26.3538 5.4879 3.3995 10.9223 6.8852 16.3812 10.3319-2.2778 2.7022-4.6031 5.3662-6.8128 8.1229-1.0248 1.2785-2.1864 2.638-2.6007 4.1487-.281 1.0247.3349 2.6699 1.1253 3.4663.4387.442 2.4176.0852 3.0863-.555 3.2007-3.0642 6.1756-6.3633 9.269-9.5415.5851-.6011 1.3437-1.0333 2.0234-1.5433 2.2571.8529 4.5965 1.5352 6.7544 2.5889 8.1813 3.9952 16.2633 8.1946 24.4572 12.1631 15.1398 7.3326 30.8385 13.2386 46.963 18.0146 5.3556 1.5863 10.6752 3.3596 16.1165 4.5766 10.7037 2.394 21.4666 4.5327 32.2343 6.6266 5.0322.9785 10.1324 1.6069 15.2018 2.394.185 4.4594.3161 8.9221.5826 13.3767.1007 1.6841-.4769 2.3862-2.1631 2.4887-8.108.4926-16.2115 1.0562-24.3174 1.5833-16.6792 1.0847-33.0876-1.1296-49.4182-4.1495-16.3494-3.0234-32.4728-6.9872-48.3506-11.9327-8.4297-2.6256-16.8912-5.1557-25.2761-7.9178-12.1004-3.986-23.3828-9.7899-34.5077-15.9164-11.4362-6.298-22.5737-13.0609-32.9632-21.003-21.4322-16.3834-39.5966-35.5881-52.7625-59.3946-7.5528-13.6569-13.1566-27.9489-17.2296-42.9658-2.8733-10.5938-4.3484-21.3447-5.2528-32.2423-.7379-8.8907-1.0244-17.7816.1123-26.6119 2.4818-19.28 9.7166-36.7784 20.5192-52.8748 5.4865-8.1752 11.7712-15.6763 18.8564-22.4867 2.6285-2.5262 5.6146-4.6802 8.4376-7.004z" fill="#c5292f"/><path d="m326.8513 457.0842c-5.0694-.787-10.1697-1.4154-15.2019-2.394-10.7676-2.0939-21.5306-4.2326-32.2343-6.6266-5.4413-1.217-10.761-2.9903-16.1165-4.5766-16.1245-4.776-31.8232-10.6821-46.963-18.0146-8.194-3.9685-16.2759-8.1678-24.4572-12.1631-2.1579-1.0537-4.4973-1.736-6.7544-2.5889 5.3652-4.0204 10.443-8.517 16.1504-11.9744 19.3553-11.7252 40.1504-20.1984 61.9833-26.0976 16.4724-4.4508 33.223-7.469 50.1838-9.3134 5.8934-.6408 11.7944-1.2119 17.6919-1.8153-.3526 5.1238-.8009 10.2436-1.0373 15.3731-.43 9.3301-.7335 18.6661-1.0921 27.9995-.0369.9605-.147 1.9216-.1254 2.8802.1532 6.7662.332 13.5317.5026 20.2975-.8185 8.8904-1.6406 17.7806-2.4496 26.6719-.0707.7769-.0556 1.5614-.0803 2.3423z" fill="#d5362f"/><path d="m331.1464 356.3966c.3416-9.0737.7758-18.1451 1.0011-27.2216.2714-10.9345.4732-21.8732.499-32.8106.0178-7.5178-.0529-15.0538-.5488-22.5509-.9027-13.6492-2.6365-27.2379-6.1237-40.4691-2.5278-9.5912-5.7647-19.02-9.1367-28.3582-4.3769-12.1211-10.423-23.4262-18.1215-33.801-9.0156-12.1498-19.6648-22.4935-33.4622-29.0805-10.6089-5.0648-21.8714-8.1995-33.4262-10.3103-2.1954-.4011-4.3482-1.0349-6.5209-1.5613 9.0057-3.2455 18.2865-4.487 27.8311-3.8437 27.97 1.8853 47.647 16.7171 61.7647 39.9177 11.6476 19.1413 18.5137 40.0862 23.2601 61.9133 4.895 22.5105 6.2464 45.2521 5.4376 68.1236-.5493 15.536-2.2033 31.0336-3.3996 46.5455-.3026 3.9238-.7735 7.8344-1.1063 11.7563-.1198 1.4124-.7426 2.0419-2.174 1.9612-1.9223-.1083-3.8489-.1437-5.7737-.2104z" fill="#e45142"/><path d="m213.6677 200.2356c-1.4679-1.0562-3.0916-1.952-4.376-3.1974-4.7851-4.6396-9.3764-9.4803-14.1928-14.0863-8.3058-7.9429-17.4321-14.7652-27.5301-20.3439-7.3989-4.0876-14.9312-7.7586-23.2476-9.4059-8.749-1.733-17.5878-2.6617-26.5271-1.4708-.6197.0825-1.296-.2601-1.9461-.405 8.3874-3.1925 17.0775-5.1237 25.9981-5.889 20.9348-1.7961 38.6607 5.6624 53.8432 19.5306 7.3194 6.6858 11.5597 15.5358 14.8194 24.7929 1.2101 3.4363 2.1149 6.9801 3.159 10.4748z" fill="#e35142"/><path d="m205.785 142.7945c5.1188 3.2663 8.0844 8.3472 10.8935 13.4296 5.0138 9.0714 7.2852 18.9138 8.2626 29.2358.5412 5.7155-.4872 10.8784-2.4221 16.0469-.2659.7103-.962 1.2597-1.4593 1.8835-.2293-15.6019-5.7626-29.2796-15.2231-41.4713-1.8659-2.4046-4.1116-4.5365-6.3325-6.635-1.2284-1.1607-1.2379-2.11-.314-3.3672 2.2218-3.0234 4.3994-6.0794 6.5949-9.1223z" fill="#c4292e"/><path d="m329.3812 428.0701c-.1706-6.7657-.3494-13.5313-.5026-20.2975-.0217-.9586.0885-1.9198.1254-2.8802.3586-9.3334.6621-18.6694 1.0921-27.9995.2364-5.1295.6847-10.2493 1.0373-15.3731 2.1601-.2423 4.3202-.4851 6.9903-.7852-2.9333 22.5918-5.8379 44.9636-8.7425 67.3355z" fill="#e14f40"/><path d="m413.4157 82.7598c.809.4311 1.6179.8621 2.4268 1.2932 1.0717 4.3757 1.9952 8.7945 3.2514 13.1167 1.6958 5.8346 1.6245 11.1146-3.2759 15.5696-1.2925 1.175-2.0969 2.887-3.1255 4.3524-.1392.1037-.2634.2559-.4197.3039-2.4223.7442-4.8488 1.4748-7.7541 2.3538.2643-1.0995.3726-1.9183.6567-2.6706 1.6156-4.2778 1.4552-8.6037.3266-12.9296-.2562-.9821-.9052-1.8617-1.3734-2.7884-.2841.0222-.5681.0443-.8522.0665-.7187 1.7286-1.4392 3.4565-2.1556 5.1861-1.9708 4.7576-3.735 9.6165-5.9986 14.2304-1.0858 2.2132-2.9285 4.1601-4.7502 5.8885-6.6424 6.3026-18.9605 4.2362-23.1636-3.7167-.7631-1.4438-.9784-2.4693.5855-3.5251.9939-.671 1.9512-1.5979 2.5219-2.6324.4878-.8841.8622-2.3584.4403-3.0692-.4268-.719-1.9959-1.2922-2.8838-1.0988-2.0959.4565-4.1876 1.2068-6.0972 2.1937-6.282 3.2467-12.4708 6.6734-18.7281 9.9689-.808.4256-1.808.4867-3.5482.9259 2.0928-2.7396 3.6534-4.8885 5.3248-6.9475 2.9801-3.6714 6.1302-7.2098 8.9983-10.9648 1.2468-1.6323 2.2309-3.5787 2.8688-5.5342.8084-2.4781-1.2798-4.534-3.7278-3.622-1.7292.6442-3.4615 1.7969-4.6884 3.1722-3.1329 3.5119-5.9837 7.2754-9.038 11.0501 2.1508-9.4978 4.2633-18.827 6.3759-28.1563-.5238-.3559-1.0477-.7117-1.5716-1.0676-.2098.6528-.3629 1.3307-.6395 1.9538-1.0674 2.4048-2.9321 2.9604-5.4828 2.7806-8.7722-.6187-16.513-3.0411-20.2998-11.8633-1.0164-2.3679-.8143-5.2589-1.1715-7.9097.8446-.1757 1.7582-.2006 2.5233-.5503 7.8067-3.568 15.8827-4.9075 24.4645-3.7389 4.7742.6501 9.0261 1.8673 12.1299 5.8084.7002.8891 1.5899 1.6308 2.4063 2.4261 2.403 2.341 5.2936 3.963 8.4979 2.4265 3.2519-1.5593 5.8322-4.2661 5.0945-8.3203-.5509-3.0277-1.7144-5.96-2.8059-8.8591-.2046-.5434-1.3593-.729-2.0756-1.0797 0 0 .1443-.0523.1443-.0523s-.1515.0243-.1512.0238c-.1283-.2308-.257-.4611-.3857-.6914-.5995-.6257-1.2111-1.2401-1.7963-1.8789-3.0754-3.357-2.806-6.6441.834-9.5274 4.159-3.2944 9.0278-4.5343 14.2164-4.56 2.9687-.0147 5.9389.2912 8.9085.4528 1.1635 1.8382 2.2008 3.7725 3.5146 5.4963 3.7202 4.8815 6.3221 10.0667 6.6115 16.4245.2653 5.8281-2.173 10.8896-3.426 16.2996-.7614 3.2878-.5227 6.8783-.2809 10.3009.1462 2.0697 1.7329 3.3218 4.0336 3.2742 5.6202-.1163 9.8411-2.5995 12.7592-7.3899.4831-.7933 1.1628-1.4665 1.7516-2.195z" fill="#fdfdfd"/><path d="m366.682 56.7822c.7162.3507 1.871.5363 2.0756 1.0797 1.0916 2.8991 2.255 5.8314 2.8059 8.8591.7377 4.0543-1.8426 6.761-5.0945 8.3203-3.2043 1.5365-6.0949-.0855-8.4979-2.4265-.8163-.7953-1.7061-1.537-2.4063-2.4261-3.1038-3.9411-7.3557-5.1583-12.1299-5.8084-8.5818-1.1686-16.6578.1709-24.4645 3.7389-.7651.3497-1.6786.3746-2.5233.5503-.0222-3.5182 1.4008-6.4606 3.7629-8.9442 6.449-6.7807 14.346-9.4996 23.5708-7.9255 4.1291.7046 8.2553 1.6005 12.2605 2.8137 5.6307 1.7056 9.9985 4.9943 11.5561 11.1653 1.5624-2.2832 1.4036-3.6717-.9154-8.9966z" fill="#dbedf5"/><path d="m413.4157 82.7598c-.5888.7285-1.2685 1.4017-1.7515 2.1946-2.9182 4.7904-7.139 7.2736-12.7592 7.3899-2.3007.0476-3.8874-1.2045-4.0336-3.2742-.2419-3.4226-.4806-7.0131.2809-10.3009 1.2529-5.41 3.6912-10.4715 3.426-16.2996-.2894-6.3579-2.8913-11.543-6.6115-16.4245-1.3137-1.7237-2.351-3.6581-3.5146-5.4963 10.0198.1581 18.7746 8.2548 19.3026 18.1467.4554 8.5305-1.2445 16.563-6.9451 23.2628-1.4028 1.6487-3.3568 2.8284-5.2381 4.3721 3.1833.4718 5.7664-.5701 7.9701-2.7231 3.9741-3.8827 5.1806-4.002 9.874-.8475z" fill="#daecf4"/><path d="m412.6926 117.0917c1.0286-1.4654 1.8329-3.1774 3.1255-4.3524 4.9004-4.455 4.9717-9.735 3.2759-15.5696-1.2562-4.3221-2.1797-8.741-3.2514-13.1167 8.1945 4.051 11.9369 10.9085 12.1914 19.7902.0443 1.5471-.5227 3.4001-1.4455 4.6351-3.4683 4.6419-8.1836 7.4841-13.8959 8.6134z" fill="#d9ecf3"/><path d="m366.2894 56.0623c.1287.2303.2574.4606.3857.6914-.1288-.2301-.2573-.4608-.3857-.6914z" fill="#dbedf5"/><path d="m444.2726 240.7727c0-1.5038 0-3.0075 0-5.1443-2.1011 2.8036-3.8073 5.0803-5.5136 7.357-5.3818.2879-10.7665.529-16.1444.8776-4.8191.3124-9.6306 1.0222-14.4453 1.0207-3.0784-.001-6.1565-.9763-9.2347-1.5148.8046-2.6394 1.2626-5.3636 4.6199-6.3495 1.8542-.5445 2.0331-2.4809.3286-3.6973-2.2519-1.607-4.7272-2.9893-7.2751-4.071-3.4207-1.4522-7.0026-2.5248-10.4555-4.1284 3.0651-.191 6.1414-.2766 9.192-.603 3.0045-.3215 6.3609.9624 9.0295-1.7589-.9675-2.7753-3.299-3.8057-5.6884-4.0326-4.4261-.4203-8.8979-.375-13.3517-.4812-2.1843-.052-4.3709-.009-7.2975-.009 1.0107-.6752 1.4148-1.0185 1.8767-1.2427 7.1625-3.476 14.3489-6.9033 21.4802-10.442.9066-.4498 1.5338-1.4627 2.2904-2.2147-1.0608-.6737-2.1593-1.9698-3.1755-1.9082-3.5234.2133-4.1996-1.8315-4.7069-4.6261-1.2678-6.9836-.9911-7.3873 6.1009-7.1011 1.576.0636 3.1556.0679 4.7284.1754 1.5576.1065 3.1087.3089 5.185.5231 0-3.1595 0-6.1005 0-9.0414 6.4373-.7398 12.7885-.2126 19.141 1.0077 7.7977 1.4979 12.7331 6.0509 13.8874 12.6339.7174 4.0915 1.8881 8.1197 3.1277 12.0913.2915.9339 1.6826 1.5246 2.5677 2.2732 4.2428.6519 7.3105-1.8402 10.5272-3.9345.1207.7714.1423 1.5747.3779 2.3094 1.4908 4.6497 2.9909 9.2973 4.5652 13.9192 1.0257 3.0115.3912 5.2565-2.2838 7.0496-2.8976 1.9423-5.7588 3.9628-8.7912 5.6738-3.4647 1.9547-7.1006 3.6058-10.6621 5.3888z" fill="#fdfdfd"/><path d="m444.2726 240.7727c3.5615-1.783 7.1973-3.4341 10.6619-5.3888 3.0324-1.711 5.8936-3.7315 8.7912-5.6738 2.675-1.7931 3.3095-4.0381 2.2838-7.0496-1.5742-4.6219-3.0743-9.2695-4.5652-13.9192-.2356-.7347-.2572-1.538-.3779-2.3094 1.2132-2.2308 2.6754-2.1199 4.6368-.7893 7.9028 5.3613 13.3906 12.2244 14.3664 22.0801.4714 4.7608-1.5361 8.2734-5.2354 11.0505-4.8862 3.6682-10.6113 5.2634-16.3864 6.7552-.9272.2395-1.8532.4832-2.8514.7437-.06 1.0779-.0314 2.1146-.1885 3.1222-.6865 4.4016-4.5999 7.4326-8.9039 6.4577-3.0029-.6802-5.8424-2.082-8.9639-3.2389 2.4279-4.2699 4.5802-8.0551 6.7325-11.8404z" fill="#daedf5"/><path d="m450.5394 210.3664c-.8852-.7486-2.2762-1.3392-2.5677-2.2732-1.2396-3.9716-2.4103-7.9998-3.1277-12.0913-1.1544-6.583-6.0897-11.1359-13.8874-12.6339-6.3524-1.2202-12.7037-1.7475-19.141-1.0077.8841-5.0547 4.6411-7.5215 8.8748-9.1341 10.0121-3.8136 26.6134-.916 34.5489 7.9082 6.8413 7.6074 5.7979 17.1434.8054 24.6918-1.2548 1.8972-3.6397 3.047-5.5053 4.5402z" fill="#dbedf5"/><path d="m398.9346 243.3689c3.0782.5385 6.1563 1.5138 9.2347 1.5148 4.8147.0015 9.6263-.7083 14.4453-1.0207 5.3778-.3486 10.7626-.5897 16.1444-.8776-2.1593 1.5587-4.3187 3.1173-6.4781 4.6759-6.3003 1.9265-12.7071 3.608-18.0093 7.83-5.6094.2536-10.2079-1.9013-13.9786-5.9429-1.6472-1.7655-2.4454-3.7817-1.3584-6.1795z" fill="#dbedf5"/><path d="m414.2716 255.4913c5.3022-4.222 11.709-5.9035 18.0093-7.83-5.3786 4.0464-10.7949 8.006-18.0093 7.83z" fill="#c0d7e4"/><path d="m204.7626 280.2923c4.5146 4.6239 9.2821 8.9658 12.5208 14.7475 16.6613 29.7443-4.8093 66.7444-38.8636 67.4156-26.5504.5234-46.6958-20.9718-46.6238-46.1881.056-19.6282 14.2573-37.947 33.5229-43.2177.7489-.2049 1.4688-.5161 2.2016-.7776 1.4616.5222 2.9315 1.0243 4.3849 1.5703 5.9334 2.2289 11.7656 4.7924 17.8224 6.6074 4.8902 1.4654 10.0549 2.367 15.0348-.1574zm-21.4851 60.6416c4.1957.0891 7.4256-2.0203 9.1262-5.8537 1.5841-3.5706.896-7.0424-.3689-10.477-2.9601-8.0375-5.812-16.1208-9.0308-24.0544-1.494-3.6826-3.3506-7.3562-5.7418-10.5028-3.2545-4.2826-9.1371-3.7351-12.3297.6258-2.7796 3.7966-2.6113 8.0815-1.9753 12.3739 1.6036 10.821 5.1969 21.0461 9.7418 30.9384 2.0286 4.415 5.6308 6.8019 10.5785 6.9498z" fill="#fcfcfc"/><path d="m270.1381 255.6c5.349-.7174 10.7054-2.0908 16.0456-2.0302 16.5287.1877 31.7551 15.3006 33.5262 31.7694 1.916 17.8169-9.5197 35.4546-27.7366 39.8012-21.8008 5.2017-43.3937-10.7696-44.6698-33.0807-.3062-5.3528.7069-10.4229 2.1334-15.4856 8.3483-5.5625 15.267-12.5357 20.7012-20.9741zm-.3244 19.8465c-.1816.0397-.3632.0795-.5448.1192.9352 4.3364 1.4574 8.8156 2.8959 12.978 2.5909 7.4969 5.6274 14.8473 8.6898 22.1702 1.2995 3.1074 3.6835 5.2924 7.225 5.8676 8.5308 1.3854 14.7951-5.9402 11.6804-14.2464-4.0804-10.8813-8.657-21.5803-13.183-32.2888-1.6274-3.8506-5.4999-5.6614-9.4977-4.9787-3.7934.6478-6.5468 3.6385-7.1005 7.7602-.1161.8647-.1132 1.7454-.1651 2.6187z" fill="#fcfbfb"/><path d="m204.7626 280.2923c-4.9799 2.5244-10.1446 1.6228-15.0349.1573-6.0568-1.8151-11.8889-4.3786-17.8224-6.6074-1.4534-.546-2.9233-1.048-4.3849-1.5703-5.4612-2.9515-10.8703-6.0065-16.3961-8.8332-11.7201-5.9953-22.9969-12.6945-33.4916-20.6616-1.5927-1.2091-2.7404-.96-4.0681.4197-3.7063 3.8516-7.3962 7.7337-11.336 11.3376-1.2677 1.1596-3.3502 2.1819-4.959 2.0486-2.8088-.2327-3.9991-2.8875-2.453-5.285 2.6471-4.1048 5.5916-8.0276 8.5689-11.9058 1.7006-2.2153 3.6509-4.2513 5.5983-6.2619 3.3527-3.4616 7.0754-3.9901 11.1602-1.4079 6.4332 4.0667 12.5328 8.7187 19.1899 12.3622 16.6628 9.1197 33.5321 17.8647 50.3808 26.6405 4.4138 2.299 9.0524 4.1669 13.5928 6.2218 1.5091.6832 2.184 1.7021 1.4551 3.3454z" fill="#3e0d0f"/><path d="m270.1381 255.6c-5.4341 8.4385-12.3528 15.4117-20.7013 20.9741-1.5854.3424-3.1707.6844-4.756 1.0265-.1314-.2855-.2628-.571-.3942-.8564.4474-.5778.9021-1.1501 1.3412-1.7343 2.672-3.5549 5.9563-6.8078 7.8947-10.7261 5.8568-11.8388 11.4236-23.8363 16.6378-35.972 2.9567-6.8816 2.717-14.3784 1.98-21.7304-.32-3.1921-1.2454-6.3193-1.7517-9.4989-.2158-1.3557-.3118-2.8229-.0312-4.1481.9013-4.257 4.6013-6.0563 8.406-3.9762 10.3013 5.632 20.3809 11.6258 29.4256 19.1928 1.8569 1.5536 2.386 4.1088 1.2546 5.9007-1.0599 1.6787-4.3791 2.294-6.6922.864-4.2421-2.6227-8.3214-5.5074-12.4963-8.2403-2.3092-1.5116-4.6749-2.9368-7.459-4.6787 0 4.5899-.2531 8.4275.0547 12.2195.574 7.0735-.8284 13.8085-3.3881 20.2563-2.8384 7.1497-6.1942 14.0938-9.3246 21.1275z" fill="#3e0d0f"/><g fill="#3d0e10"><path d="m183.2775 340.9339c-4.9477-.1479-8.5499-2.5348-10.5783-6.9498-4.5449-9.8923-8.1382-20.1174-9.7418-30.9384-.6361-4.2924-.8043-8.5772 1.9753-12.3739 3.1926-4.3609 9.0752-4.9084 12.3297-.6258 2.3911 3.1466 4.2478 6.8203 5.7418 10.5028 3.2188 7.9336 6.0707 16.0169 9.0308 24.0544 1.2649 3.4346 1.953 6.9063.3689 10.477-1.7008 3.8334-4.9307 5.9428-9.1264 5.8537z"/><path d="m269.8137 275.4465c.0519-.8733.049-1.754.1651-2.6187.5537-4.1217 3.3071-7.1124 7.1005-7.7602 3.9978-.6827 7.8702 1.1281 9.4977 4.9787 4.526 10.7085 9.1027 21.4075 13.183 32.2888 3.1147 8.3062-3.1495 15.6318-11.6804 14.2464-3.5415-.5751-5.9255-2.7602-7.225-5.8676-3.0623-7.3229-6.0989-14.6733-8.6898-22.1702-1.4385-4.1625-1.9608-8.6416-2.8959-12.978.1816-.0398.3632-.0795.5448-.1192z"/></g></g></svg>