<svg id="Layer_1" enable-background="new 0 0 512 512" height="512" viewBox="0 0 512 512" width="512" xmlns="http://www.w3.org/2000/svg"><g><path d="m114.9001 341.9185c-16.8821.5687-33.0968 1.1672-49.3153 1.634-5.9759.172-11.6306-1.239-16.805-4.3385-7.6426-4.5778-8.5803-11.0875-2.2712-17.3317 7.5784-7.5004 16.9598-12.1669 26.7182-16.0319 11.6084-4.5977 23.8531-6.6723 36.8351-8.5071-1.7-1.4018-3.0718-2.4963-4.4035-3.6375-5.3717-4.603-5.231-9.4584.3271-13.8557 7.3151-5.7873 16.1013-8.3412 24.7776-10.9009 21.809-6.4341 44.13-10.2345 66.7977-11.9684 8.1762-.6255 16.3477-1.6698 24.5499-.0512 5.8574 1.1559 8.776 3.7975 9.9799 9.5715.7098 3.4046 1.3369 6.8264 2.1393 10.9501 40.5208-53.3622 81.5114-105.5237 126.0096-155.2947-3.0477-1.0731-5.8601-2.0324-8.6511-3.0508-24.0233-8.7656-33.2371-32.2553-21.3028-54.9146 8.1122-15.4023 20.3933-26.9351 35.3714-35.4608 20.902-11.8976 43.478-18.1598 67.5685-19.0633 9.3728-.3515 18.5164.7009 27.624 2.7367 1.977.4419 2.7607 1.4016 3.1452 3.2337 6.7276 32.0563 9.2206 64.4179 6.9821 97.1121-.6353 9.2789-2.0158 18.4239-4.9361 27.3262-8.2608 25.183-29.1727 33.0271-52.4198 24.723-9.8011-3.5011-17.4281-9.8873-23.3936-18.3369-.7726-1.0942-1.5296-2.1994-2.2978-3.3053-8.2302 6.4958-111.8612 150.4501-116.2995 161.6678 4.19-.7301 8.151-1.4534 12.1238-2.1049 6.0044-.9846 10.4527.6774 12.7836 6.3032 3.4217 8.2581 6.4463 16.7574 8.7327 25.3942 5.8639 22.1506 9.8458 44.6517 10.3166 67.6396.128 6.2504-.2623 12.5119-.442 18.7675-.0223.7769-.1766 1.5564-.3315 2.3222-1.8858 9.3228-7.7229 11.8615-15.8203 6.8896-.8232-.5054-1.6476-1.0089-3.0147-1.8457.7885 4.4497 1.5261 8.3846 2.1785 12.3336 2.7727 16.7828 3.1634 33.4745-2.1051 49.9149-.684 2.1343-1.4388 4.2708-2.4176 6.2812-3.3318 6.8443-9.6052 8.3647-15.7487 3.8784-5.2458-3.8308-8.6401-9.056-10.6107-15.1224-4.612-14.198-9.0329-28.458-13.53-42.6933-.3729-1.1805-.7366-2.3639-1.1859-3.8069-2.4154 7.974-4.2659 15.754-7.1623 23.1227-2.3681 6.0244-5.6048 11.8108-9.1977 17.2093-1.9652 2.9528-5.2239 5.2815-8.3326 7.1835-5.2297 3.1998-10.3393 2.013-14.3312-2.8003-4.5751-5.5166-6.4555-12.1812-7.874-19.0229-4.1132-19.8377-3.9771-39.8313-2.1061-59.873.8816-9.4433 1.9457-18.8699 2.9834-28.2979.1926-1.7498-.2944-2.7897-2.0943-3.2093-5.4226-1.2643-10.3019-3.6919-14.4958-7.3391-1.6349-1.4217-2.9549-.8329-4.5294-.1191-13.9515 6.3249-27.7397 13.0587-41.9328 18.7884-14.528 5.8648-29.6911 9.881-45.4549 10.6071-4.2872.1975-8.8066-.5522-12.9282-1.8166-6.1165-1.8764-8.7436-7.1215-7.6472-13.4029 1.052-6.0269 4.3691-10.8097 8.3836-15.1826 7.5934-8.2713 16.2315-15.2603 25.936-20.9228.8996-.5251 1.7615-1.1144 3.1249-1.9815zm257.7885-210.0674c-4.6101-3.6593-8.7781-3.088-10.2346 1.5896 2.1052.8824 4.2332 1.7744 6.3612 2.6664 2.2804 2.4724 4.5609 4.9448 6.8396 7.4154 4.666-4.3536 4.6856-4.8474.3349-8.8799-1.0557-.9787-2.1983-1.8635-3.3011-2.7915zm.241-4.8597c3.3023 2.4821 6.6047 4.9641 10.1557 7.6331 2.7245-4.0555-.2287-8.2107-.2864-12.672-2.9065.2956-5.4931.5586-8.0797.8216-2.7793-.4163-5.2567-.2131-6.4096 3.2505 1.6169.3384 3.1185.6526 4.62.9668zm-7.0065 12.6523c-6.7177-3.8915-9.6017-2.8472-13.5303 5.0863 2.3494.6691 4.6604 1.3273 6.9713 1.9854 2.5332 2.7505 5.0664 5.501 7.763 8.4289 1.2554-1.6529 2.87-3.5782 4.2229-5.6725.4549-.7042.5822-1.9694.2778-2.7523-1.1377-2.927-2.5816-5.7071-5.7047-7.0758zm-9.3903 9.9911c-5.2253-3.0866-10.6417-.9833-12.2975 4.9314 2.1367 1.0361 4.3044 2.0873 6.472 3.1384 2.4226 3.0064 4.8452 6.0128 7.4708 9.2711 1.8382-2.4696 3.4972-4.5116 4.9132-6.7102.4477-.6951.5689-1.9246.2861-2.7103-1.2535-3.4816-3.1203-6.5308-6.8446-7.9204zm-165.5233 208.99c6.4333 7.4618 15.1377 9.192 24.2935 9.9894 1.49-9.4852-6.365-19.8921-15.5802-21.0553-2.8087.1765-5.6454.1671-8.4176.5851-2.4744.373-3.9237 2.1992-3.2625 4.6365.5599 2.0645 1.9462 3.9047 2.9668 5.8443zm36.9225-42.1203c-3.6954-.7402-7.3786-1.554-11.0951-2.1663-.8757-.1443-2.2169.0761-2.7405.6652-2.8071 3.1583-5.4232 6.4862-8.3508 10.0547 4.5438.7882 8.4758 1.4702 12.4077 2.1523 8.5932 3.2204 14.541 9.1942 17.9858 17.9396 1.8602-2.5909 3.7208-4.6447 4.9143-7.032.8091-1.6183 1.3634-3.9183.855-5.5458-2.2845-7.3128-6.1773-13.4505-13.9764-16.0677zm-16.4414 14.0645c-8.0029-2.1253-14.6987 1.7725-17.8105 10.512 3.5327.2767 7.0151.5494 10.4975.8222 10.786 3.8454 16.2553 12.0728 18.4066 23.7181 3.1837-4.7934 5.9832-8.6631 8.3549-12.7794.761-1.3208.8832-3.4302.4599-4.9447-2.8163-10.0767-9.8036-15.5351-19.9084-17.3282zm-74.6 7.9882c-.4381.1967-.8762.3933-1.3143.59-3.2155 1.5981-6.4771 3.1105-9.6381 4.8099-11.1125 5.9744-21.6057 12.8052-30.1645 22.2493-2.5527 3.1688-5.3472 6.1792-7.566 9.5666-1.2997 1.9842-1.6817 4.5694-2.4766 6.8842-.4625 2.8949 1.8982 3.1084 3.6363 3.4629 5.4901 1.1196 10.9865.9221 16.4095-.5866 1.9226-.295 3.8701-.4786 5.764-.902 24.5204-5.4824 47.0355-16.0284 69.1471-27.5539.9233-.4813 1.754-1.8356 1.9363-2.9015.4095-2.3941.3838-4.8628.5353-7.3011 1.4075-2.7617 2.4419-5.8057 4.2825-8.24 13.0838-17.3045 26.3459-34.4741 39.4942-51.7301.7629-1.0012 1.5918-2.464 1.4292-3.5708-.7507-5.1106-1.6447-10.2223-2.9419-15.2155-.3474-1.337-2.1594-2.9537-3.5397-3.2271-3.03-.6001-6.2438-.7695-9.3293-.5016-10.5975.9201-21.1965 1.909-31.75 3.2309-18.5416 2.3224-36.6814 6.5222-54.4265 12.3982-5.545 1.2477-10.719 3.3289-15.6673 6.8482 1.0687.7878 1.8288 1.5934 2.7626 1.9962 5.4518 2.3517 10.8782 4.7881 16.4437 6.8423 4.5493 1.6791 9.281 2.8643 13.9319 4.2684-1.0083.9944-1.8652 2.5184-3.0601 2.8598-1.811.5175-3.8574.2639-5.8029.2462-3.6025-.0328-7.2817-.6417-10.7924-.1095-11.1917 1.6967-22.3584 3.617-33.4612 5.8214-8.1437 1.6169-16.0339 4.1808-23.145 8.6821-4.9736 3.2419-10.0496 6.34-14.8822 9.78-2.8596 2.0356-2.5054 3.5333.7179 5.0049 6.0052 2.7416 12.4265 3.6942 18.8876 3.3601 16.8863-.873 33.7526-2.1278 50.6294-3.1893 11.4164-.7181 22.8363-1.3802 34.2567-2.0322 1.7749-.1013 3.5605-.0142 5.3412-.0142.024.3721.0479.7441.0719 1.1162-4.6933 1.2209-9.3993 2.3956-14.076 3.6769-3.9151 1.0728-7.7961 2.2702-11.6922 3.4124zm312.4107-319.5017c-7.1277.2051-14.2654.236-21.3811.6481-21.1152 1.2228-40.9659 6.8141-59.1484 17.7906-13.8389 8.3543-25.2654 19.0311-32.0293 34.0685-7.2028 16.0131.6259 33.6007 17.3286 38.9033 4.808 1.9496 9.7788 2.9802 14.9946 2.9146 5.242-.0659 10.4867.0824 15.7289.0265 1.807-.0193 3.2711.2681 3.9755 2.1404 1.2313 5.6946 1.8742 11.5983 3.8089 17.0429 4.9761 14.0042 15.348 22.0756 29.7434 25.1772 9.5953 2.375 18.4039 1.2814 25.8406-5.8602 4.7195-3.4879 7.0312-8.576 8.76-13.8784 4.659-14.2902 5.6373-29.1366 5.7047-44.0059.1068-23.5918-2.235-47.0188-5.7154-70.3367-.7292-4.8856-1.195-5.2132-6.1664-4.4984-.4657.0668-.9624-.0832-1.4446-.1325zm-221.9513 291.912c9.0022 2.6533 14.1672 9.647 19.0593 17.4346 4.6335-6.1388 8.6581-12.1039 12.5289-18.1672 21.5056-33.6866 43.4994-67.0403 67.1496-99.2771 8.727-11.8955 17.3705-23.8531 25.9367-35.8646.9928-1.3921 2.0042-3.4708 1.6946-4.958-.8567-4.1156-3.1785-7.5024-7.0702-9.5481-5.3239-3.2546-5.9512-3.1966-9.7281 1.3435-11.5594 13.8953-23.3004 27.6459-34.5973 41.7518-26.6882 33.3245-53.163 66.82-79.7127 100.2554-1.3509 1.7013-2.5953 3.4872-4.1678 5.6096 3.3737.5379 6.1403.979 8.907 1.4201zm52.9184 87.0576c.6258-.4095 1.2515-.819 1.8907-1.2373 7.1586 9.7029 13.029 20.3664 23.8432 27.4548.2262-3.6859.4151-6.7642.604-9.8425.1238-2.0428.381-4.0874.351-6.1279-.3444-23.4422-3.9399-46.4586-9.513-69.168-2.1551-8.7816-5.0035-17.3951-7.6122-26.0623-.8889-2.953-2.9922-4.2159-6.0848-3.7092-3.1632.5182-6.3271 1.0323-9.4907 1.5481-1.0648.1168-2.1463.4147-3.1913.3182-4.0389-.373-5.9405 2.1776-7.951 5.1189-11.2984 16.5293-22.7374 32.9625-34.1308 49.4268-2.1526 3.1106-4.6323 6.0775-8.4395 6.8712-3.1298.6525-3.9821 2.2982-4.2784 5.1441-1.2028 11.5553-2.8453 23.0704-3.8148 34.6432-1.34 15.9958-1.3925 32.0221 1.5747 47.8777 1.1208 5.989 1.8036 12.2041 5.5743 17.4082 1.8392 2.5385 3.2536 2.9185 5.8409 1.1098.8603-.6014 1.573-1.4138 2.3532-2.1298 1.824-2.4046 3.9415-4.6418 5.4238-7.2413 8.8184-15.4644 12.9974-32.3032 14.3979-49.9261.1584-2.4992.6047-5.0199.4202-7.4936-.5225-7.005-1.3114-13.9899-1.9665-20.9854-.0518-.5536.1186-1.1281.1857-1.6928 1.3637 1.9087 2.3318 3.8283 2.9183 5.8582 3.7318 12.9157 7.5094 25.8206 11.0222 38.7967 4.506 16.6445 8.6254 33.4143 15.409 49.3222 1.4436 3.3854 4.1866 6.2168 6.3309 9.3034 2.4277 2.9683 3.5686 2.9238 4.9806-.6008 2.9942-7.4742 4.5351-15.304 5.0325-23.3269.7349-11.855-.5139-23.5768-2.6559-35.2134-1.849-10.0456-3.3964-20.168-8.0368-29.487-.8578-1.7226-.6847-3.9583-.9874-5.9572z" fill="#452c0e"/><path d="m388.7701 115.5474c-.7043-1.8723-2.1684-2.1597-3.9754-2.1404-5.2422.056-10.4869-.0924-15.7289-.0265-5.2158.0656-10.1866-.965-14.9944-2.9148-.0941-.5697-.1328-1.1553-.2911-1.7066-2.3907-8.3278-3.4716-16.762-1.9288-25.3774 1.6121-9.0024 5.0984-17.2118 11.2882-24.0039 8.1533-8.9466 18.256-15.2337 29.4593-19.5062 11.4518-4.3672 23.1356-8.136 34.7672-12.0184 7.2873-2.4324 14.666-4.5911 22.0037-6.8726.1295.1418.3329.2634.3782.4284 4.4149 16.0696 7.6625 32.2899 6.68 49.1045-.6811 11.6555-.9645 23.3394-1.8915 34.9735-.6618 8.3063-2.0536 16.5571-3.1998 24.8215-.9996 7.2076-2.1112 14.3996-3.1733 21.5985-7.437 7.1417-16.2456 8.2353-25.841 5.8604-1.9757-1.8634-3.9349-3.7446-5.9296-5.5872-8.8966-8.2185-14.4146-18.5444-18.4887-29.7477-1.9344-5.3188-3.5286-6.6092-9.1341-6.8851z" fill="#fea294"/><path d="m247.6156 419.5017c-1.4005 17.6229-5.5795 34.4616-14.3979 49.9261-1.4823 2.5994-3.5998 4.8367-5.4234 7.2408-.7207-1.2924-1.7704-2.5049-2.105-3.8902-1.3235-5.4802-2.3186-11.0394-3.6282-16.5233-2.4211-10.1382-4.8215-20.2767-4.6742-30.7895.0984-7.0243.2793-14.0504.5979-21.0677.2692-5.9298.6436-11.8638 1.2756-17.7633.2307-2.1543.8412-4.601 2.1272-6.254 7.2962-9.3781 14.789-18.6059 22.3313-27.7893 8.7793-10.6895 17.7606-21.214 26.4693-31.96 2.2282-2.7495 4.4631-5.7758 4.0685-9.7505 3.1636-.5159 6.3275-1.0299 9.4907-1.5481 3.0926-.5066 5.196.7562 6.0848 3.7092 2.6088 8.6671 5.4572 17.2806 7.6122 26.0623 5.5731 22.7094 9.1686 45.7259 9.513 69.168.0299 2.0405-.2272 4.0852-.351 6.1279-3.3303-4.0239-6.7921-7.9475-9.9583-12.0966-4.1213-5.4008-7.9918-10.9925-12.0047-16.4768-1.366-1.8669-3.3929-2.6447-5.3879-1.6179-1.1455.5897-2.6122 2.4808-2.3975 3.4431.7888 3.5354 2.2207 6.9274 3.4105 10.3733.3027 1.9989.1296 4.2346.9873 5.9572 4.6404 9.319 6.1877 19.4414 8.0368 29.487 2.1419 11.6367 3.3907 23.3584 2.6559 35.2134-.4973 8.0229-2.0382 15.8527-5.0325 23.3269-1.412 3.5246-2.5529 3.5692-4.9807.6006-.2543-1.1306-.4308-2.2854-.7753-3.3876-2.4395-7.8068-5.2412-15.5168-7.3134-23.4187-5.694-21.7129-10.9882-43.5305-16.6649-65.2481-1.4895-5.6983-2.5889-11.6711-6.4704-16.4642-.9766-1.2059-1.8161-3.4929-3.7422-2.3631-1.3925.8168-2.1882 2.7423-3.0783 4.2733-.3006.5169-.156 1.3502-.0757 2.0222 1.2532 10.4941 2.5295 20.9855 3.8005 31.4776z" fill="#f9f9f9"/><path d="m67.5874 317.474c7.1112-4.5013 15.0014-7.0652 23.145-8.6821 11.1028-2.2045 22.2695-4.1247 33.4612-5.8214 3.5106-.5323 7.1898.0766 10.7924.1095 1.9455.0177 3.9919.2713 5.8029-.2462 1.1949-.3414 2.0518-1.8654 3.0596-2.8602 1.7585-.505 3.598-.8302 5.2506-1.5718 1.289-.5784 1.9804-1.894.5401-3.0211-3.8112-2.9828-7.6033-6.0186-11.6337-8.6847-3.7202-2.461-7.7398-4.4695-11.6275-6.6772 17.7451-5.8759 35.8849-10.0758 54.4265-12.3982 10.5535-1.3218 21.1525-2.3108 31.75-3.2309 3.0855-.2679 6.2993-.0985 9.3293.5016 1.3803.2734 3.1924 1.89 3.5397 3.2271 1.2972 4.9932 2.1913 10.1049 2.9419 15.2155.1626 1.1068-.6663 2.5696-1.4292 3.5708-13.1483 17.256-26.4104 34.4256-39.4942 51.7301-1.8406 2.4344-2.875 5.4783-4.2825 8.2398-5.6924 1.6938-11.3945 3.3559-17.0753 5.0878-18.2236 5.5557-35.7715 13.5857-55.076 15.1751-5.0976.4197-10.2647 1.1176-15.2348-.9312 8.5588-9.4441 19.052-16.2749 30.1645-22.2493 3.161-1.6994 6.4226-3.2118 9.638-4.8098.4381-.1966.8763-.3933 1.3144-.59 0 0-.0488.0317-.0487.0318 1.6569-.0298 3.3755.2167 4.9598-.1374 7.022-1.5694 14.0127-3.2825 20.9934-5.0289.8218-.2055 2.1501-.9662 2.1287-1.4166-.0425-.8948-.6506-2.1689-1.3993-2.5492-2.4049-1.2215-4.9086-2.3704-7.5024-3.0766-11.0797-3.0168-22.1366-6.1553-33.8108-5.9481-8.9986.1597-18.003.1147-27.0033.0174-6.0454-.0654-12.1079-.1542-18.1242-.6771-3.2075-.2788-6.3333-1.5017-9.4961-2.2985z" fill="#f9f9f9"/><path d="m346.649 160.5871c3.8917 2.0457 6.2135 5.4324 7.0702 9.5481.3095 1.4872-.7018 3.5659-1.6946 4.958-8.5662 12.0116-17.2097 23.9691-25.9367 35.8646-23.6502 32.2368-45.644 65.5905-67.1496 99.2771-3.8708 6.0633-7.8954 12.0284-12.5289 18.1672-4.8921-7.7876-10.0571-14.7813-19.0592-17.4345 8.3139-10.1696 16.6365-20.332 24.9391-30.5109 8.4238-10.3276 16.8143-20.6825 25.2443-31.005 8.9859-11.0033 18.1654-21.8531 26.9623-33.0051 11.2073-14.2077 22.1569-28.6197 33.1264-43.0132 3.1698-4.1594 6.0264-8.5575 9.0267-12.8463z" fill="#cd893b"/><path d="m449.3697 20.9808c-7.3376 2.2815-14.7163 4.4402-22.0036 6.8726-11.6317 3.8825-23.3154 7.6513-34.7672 12.0184-11.2033 4.2724-21.306 10.5595-29.4593 19.5062-6.1897 6.792-9.6761 15.0014-11.2882 24.0039-1.5428 8.6154-.4619 17.0496 1.9288 25.3774.1583.5513.1969 1.1369.2911 1.7066-16.7029-5.3025-24.5316-22.8901-17.3288-38.9031 6.7639-15.0374 18.1904-25.7142 32.0293-34.0685 18.1825-10.9765 38.0332-16.5678 59.1484-17.7906 7.1157-.4121 14.2534-.443 21.3807-.6474.0227.6419.0457 1.2832.0688 1.9245z" fill="#fd816f"/><path d="m346.649 160.5871c-3.0003 4.2887-5.8569 8.6869-9.0268 12.8463-10.9695 14.3934-21.9191 28.8055-33.1264 43.0132-8.7969 11.152-17.9763 22.0018-26.9623 33.0051-8.43 10.3226-16.8205 20.6774-25.2443 31.005-8.3026 10.1788-16.6252 20.3413-24.9391 30.5109-2.7668-.4412-5.5334-.8823-8.9069-1.4202 1.5725-2.1224 2.8168-3.9083 4.1678-5.6096 26.5497-33.4354 53.0245-66.9308 79.7127-100.2554 11.2969-14.106 23.0379-27.8566 34.5973-41.7518 3.7768-4.5401 4.4041-4.5981 9.728-1.3435z" fill="#d9a45b"/><path d="m95.7737 366.2064c4.9701 2.0488 10.1372 1.351 15.2348.9312 19.3045-1.5894 36.8524-9.6194 55.076-15.1751 5.6808-1.7319 11.383-3.394 17.0753-5.0878-.1515 2.4385-.1258 4.9071-.5354 7.3013-.1823 1.0659-1.013 2.4203-1.9363 2.9015-22.1116 11.5256-44.6268 22.0716-69.1471 27.5539-1.8939.4234-3.8414.607-5.764.902-.3461-.155-.7029-.4652-1.0365-.442-6.5012.4512-12.7612-.9387-19.0093-2.4342.7948-2.3148 1.1769-4.9001 2.4766-6.8842 2.2187-3.3874 5.0132-6.3979 7.5659-9.5666z" fill="#c3e5f2"/><path d="m67.5874 317.474c3.1628.7968 6.2885 2.0197 9.4964 2.2985 6.0162.5229 12.0787.6117 18.1242.6771 9.0003.0974 18.0047.1423 27.0033-.0174 11.6742-.2072 22.7311 2.9313 33.8108 5.9481 2.5938.7062 5.0975 1.8551 7.5024 3.0766.7487.3803 1.3569 1.6544 1.3993 2.5492.0214.4504-1.3069 1.2111-2.1287 1.4166-6.9807 1.7464-13.9714 3.4595-20.9934 5.0289-1.5843.3541-3.3029.1075-4.9598.1374 3.8959-1.1423 7.7769-2.3397 11.692-3.4125 4.6768-1.2814 9.3827-2.4561 14.076-3.6769-.024-.3721-.0479-.7441-.0719-1.1162-1.7807 0-3.5663-.0871-5.3412.0142-11.4203.6519-22.8403 1.3141-34.2567 2.0322-16.8768 1.0616-33.7431 2.3164-50.6294 3.1893-6.461.334-12.8824-.6185-18.8876-3.3601-3.2233-1.4716-3.5775-2.9693-.7179-5.0049 4.8326-3.4401 9.9086-6.5382 14.8822-9.7801z" fill="#c3e4f0"/><path d="m274.2565 310.8807c.3946 3.9747-1.8403 7.0011-4.0685 9.7505-8.7086 10.746-17.6899 21.2705-26.4693 31.96-7.5423 9.1833-15.0351 18.4112-22.3313 27.7893-1.286 1.653-1.8965 4.0997-2.1272 6.254-.6319 5.8996-1.0063 11.8336-1.2756 17.7633-.3186 7.0173-.4995 14.0434-.5979 21.0677-.1473 10.5128 2.2531 20.6514 4.6742 30.7895 1.3096 5.4839 2.3047 11.0431 3.6282 16.5233.3346 1.3853 1.3843 2.5978 2.105 3.8902-.7806.7165-1.4933 1.5289-2.3536 2.1303-2.5873 1.8086-4.0016 1.4286-5.8409-1.1098-3.7707-5.2041-4.4535-11.4192-5.5743-17.4082-2.9672-15.8557-2.9147-31.882-1.5747-47.8777.9695-11.5727 2.612-23.0878 3.8148-34.6432.2963-2.8459 1.1486-4.4916 4.2784-5.1441 3.8071-.7937 6.2869-3.7606 8.4395-6.8712 11.3934-16.4644 22.8323-32.8976 34.1308-49.4268 2.0106-2.9413 3.9121-5.4919 7.951-5.1189 1.0452.0965 2.1267-.2014 3.1914-.3182z" fill="#c1e1ed"/><path d="m449.3697 20.9808c-.023-.6413-.0461-1.2826-.0688-1.9246.4826.0486.9794.1986 1.4449.1317 4.9714-.7148 5.4372-.3872 6.1664 4.4984 3.4804 23.3179 5.8223 46.7449 5.7154 70.3367-.0674 14.8693-1.0456 29.7157-5.7047 44.0059-1.7288 5.3024-4.0405 10.3905-8.7598 13.8784 1.0623-7.199 2.1739-14.391 3.1735-21.5986 1.1462-8.2644 2.538-16.5152 3.1998-24.8215.927-11.6341 1.2104-23.318 1.8915-34.9735.9825-16.8146-2.2651-33.0349-6.68-49.1045-.0453-.165-.2486-.2866-.3782-.4284z" fill="#f7cac3"/><path d="m247.6156 419.5017c-1.271-10.492-2.5472-20.9835-3.8006-31.4776-.0803-.6721-.2249-1.5053.0757-2.0222.8901-1.5309 1.6859-3.4565 3.0783-4.2733 1.9261-1.1298 2.7656 1.1571 3.7422 2.3631 3.8815 4.7931 4.981 10.7659 6.4704 16.4642 5.6767 21.7176 10.9709 43.5352 16.6649 65.2481 2.0722 7.9019 4.8739 15.6119 7.3134 23.4187.3445 1.1022.5209 2.2569.7753 3.3876-2.1442-3.0864-4.8872-5.9178-6.3308-9.3032-6.7835-15.9078-10.903-32.6777-15.409-49.3222-3.5128-12.9761-7.2904-25.881-11.0222-38.7967-.5865-2.0298-1.5546-3.9495-2.9183-5.8582-.0671.5648-.2375 1.1392-.1857 1.6928.6552 6.9955 1.4441 13.9804 1.9665 20.9854.1845 2.4736-.2618 4.9943-.4201 7.4935z" fill="#c1e0e9"/><path d="m211.4906 330.569c10.1048 1.7931 17.0921 7.2515 19.9085 17.3282.4233 1.5145.3011 3.6239-.4599 4.9447-2.3716 4.1163-5.1712 7.986-8.3549 12.7794-2.1513-11.6452-7.6207-19.8727-18.4055-23.7196 2.4381-3.7786 4.875-7.5557 7.3118-11.3327z" fill="#c9873a"/><path d="m280.2684 398.0251c-1.1898-3.4459-2.6217-6.8379-3.4105-10.3733-.2147-.9623 1.252-2.8534 2.3975-3.4431 1.995-1.0269 4.0219-.249 5.3879 1.6179 4.0129 5.4843 7.8834 11.076 12.0047 16.4768 3.1662 4.1491 6.628 8.0728 9.9583 12.0966-.1889 3.0783-.3778 6.1567-.604 9.8425-10.8143-7.0884-16.6847-17.752-23.8432-27.4548-.6392.4184-1.2649.8279-1.8907 1.2374z" fill="#c3e4f0"/><path d="m126.3782 280.0187c3.8877 2.2078 7.9073 4.2162 11.6275 6.6772 4.0303 2.6661 7.8224 5.7019 11.6337 8.6847 1.4403 1.1272.7489 2.4427-.5401 3.0211-1.6526.7416-3.4921 1.0668-5.2506 1.5718-4.6504-1.4038-9.382-2.5889-13.9314-4.268-5.5655-2.0542-10.9919-4.4906-16.4437-6.8423-.9339-.4028-1.694-1.2084-2.7626-1.9962 4.9482-3.5194 10.1221-5.6006 15.6672-6.8483z" fill="#c2e3f0"/><path d="m388.7701 115.5474c5.6055.2759 7.1997 1.5663 9.1339 6.8852 4.0741 11.2032 9.5921 21.5291 18.4887 29.7477 1.9947 1.8427 3.9539 3.7238 5.9296 5.5872-14.3953-3.1016-24.7672-11.173-29.7433-25.1772-1.9347-5.4447-2.5776-11.3483-3.8089-17.0429z" fill="#fc816e"/><path d="m227.932 316.5045c7.7992 2.6172 11.6919 8.7549 13.9765 16.0677.5084 1.6275-.0459 3.9275-.855 5.5458-1.1935 2.3873-3.0542 4.4411-4.9143 7.032-3.4447-8.7454-9.3926-14.7192-17.9841-17.9409 3.2601-3.5689 6.5185-7.1368 9.7769-10.7046z" fill="#f6b300"/><path d="m199.7228 347.5589c9.2153 1.1632 17.0703 11.5701 15.5802 21.0553-9.1558-.7975-17.8602-2.5276-24.2937-9.9896.5723-.3064 1.3457-.4687 1.685-.9421 2.3928-3.3387 4.6964-6.7414 7.0285-10.1236z" fill="#c9873a"/><path d="m227.932 316.5045c-3.2584 3.5678-6.5168 7.1357-9.7769 10.7047-3.9337-.6808-7.8656-1.3629-12.4094-2.1511 2.9276-3.5686 5.5437-6.8965 8.3508-10.0547.5235-.5891 1.8647-.8094 2.7405-.6652 3.7163.6124 7.3996 1.4261 11.095 2.1663z" fill="#f6ce00"/><path d="m211.4906 330.569c-2.4369 3.777-4.8737 7.5541-7.3118 11.3327-3.4836-.2712-6.966-.544-10.4987-.8207 3.1119-8.7395 9.8076-12.6373 17.8105-10.512z" fill="#d39f59"/><path d="m356.5328 149.6348c3.7243 1.3896 5.5911 4.4388 6.8445 7.9205.2828.7857.1617 2.0152-.2861 2.7103-1.4161 2.1985-3.075 4.2406-4.9132 6.7102-2.6256-3.2583-5.0482-6.2647-7.4707-9.2711 1.9419-2.6899 3.8837-5.3799 5.8255-8.0699z" fill="#f5b200"/><path d="m365.9231 139.6437c3.1231 1.3687 4.567 4.1488 5.7048 7.0759.3044.7829.1771 2.0481-.2778 2.7523-1.3529 2.0943-2.9675 4.0195-4.2229 5.6725-2.6966-2.9279-5.2298-5.6784-7.763-8.4289 2.1863-2.3574 4.3726-4.7146 6.5589-7.0718z" fill="#f3b100"/><path d="m374.7193 122.7741c2.5866-.263 5.1732-.5261 8.0797-.8216.0577 4.4613 3.011 8.6166.2864 12.672-3.551-2.669-6.8534-5.151-10.1557-7.634.5965-1.406 1.193-2.8112 1.7896-4.2164z" fill="#c6853a"/><path d="m199.7228 347.5589c-2.3321 3.3822-4.6357 6.7849-7.0285 10.1236-.3393.4734-1.1127.6357-1.685.9421-1.0204-1.9394-2.4067-3.7796-2.9667-5.8441-.6611-2.4374.7881-4.2635 3.2625-4.6365 2.7723-.418 5.609-.4086 8.4177-.5851z" fill="#d39f59"/><path d="m365.9231 139.6437c-2.1863 2.3572-4.3726 4.7144-6.5589 7.0717-2.3109-.6581-4.6219-1.3162-6.9713-1.9854 3.9285-7.9335 6.8125-8.9778 13.5302-5.0863z" fill="#f3cb00"/><path d="m356.5328 149.6348c-1.9418 2.69-3.8836 5.38-5.8255 8.0699-2.1677-1.0512-4.3353-2.1024-6.472-3.1385 1.6558-5.9147 7.0722-8.018 12.2975-4.9314z" fill="#f2ca00"/><path d="m372.6886 131.8511c1.1027.928 2.2454 1.8128 3.3012 2.7914 4.3506 4.0325 4.3311 4.5263-.3349 8.8799-2.2788-2.4706-4.5592-4.943-6.8396-7.4154 1.2911-1.4186 2.5822-2.8373 3.8733-4.2559z" fill="#f2b000"/><path d="m372.6886 131.8511c-1.2911 1.4186-2.5822 2.8373-3.8734 4.2559-2.128-.892-4.256-1.784-6.3612-2.6664 1.4565-4.6775 5.6245-5.2488 10.2346-1.5895z" fill="#f1c900"/><path d="m85.7311 382.6572c6.2482 1.4955 12.5081 2.8854 19.0093 2.4342.3337-.0232.6905.287 1.0365.442-5.423 1.5087-10.9194 1.7062-16.4095.5866-1.7381-.3544-4.0988-.5679-3.6363-3.4628z" fill="#eff0ef"/><path d="m374.7193 122.7741c-.5965 1.4052-1.1931 2.8103-1.7896 4.2164-1.5015-.3133-3.0031-.6276-4.62-.966 1.1529-3.4635 3.6302-3.6666 6.4096-3.2504z" fill="#d39f59"/><path d="m136.8906 338.5572c-.4382.1967-.8764.3934-1.3144.59.4382-.1967.8763-.3933 1.3144-.59z" fill="#c3e4f0"/></g></svg>