<svg id="Layer_1" enable-background="new 0 0 512 512" height="512" viewBox="0 0 512 512" width="512" xmlns="http://www.w3.org/2000/svg"><g><path d="m255.4403 351.2613c-2.7262 1.4218-5.4023 2.826-8.0872 4.2133-1.0112.5224-2.0222 1.0537-3.0687 1.4977-3.066 1.3007-5.0477.7489-6.7309-2.188-5.961-10.4011-11.8362-20.8515-17.7436-31.2834-.2186-.386-.4335-.774-.7341-1.3112-2.3975 1.5903-4.7117 3.1254-7.1857 4.7664 14.6766 27.5974 27.2575 55.785 30.8357 87.2344-2.2084-5.7602-4.4224-11.5182-6.6235-17.2812-2.2453-5.8789-4.4315-11.7809-6.7294-17.639-2.2719-5.7917-4.5861-11.5688-7.0015-17.3018-2.428-5.7627-5.0037-11.4631-7.7306-17.124.8613 23.214 4.2363 46.3269.7704 69.5494-4.9046-23.3478-4.4515-47.2688-7.2726-70.8394-.1844-.0023-.3689-.0045-.5534-.0068-1.3926 24.0861-2.7853 48.1722-4.1779 72.2583-.2183.0247-.4367.0494-.655.0742-.3952-2.6896-.8535-5.3716-1.1756-8.0699-2.2104-18.5153-1.1205-37.0187.2387-55.5207.5235-7.1254 1.0176-14.253 1.5153-21.3803.0407-.5832.0054-1.1717.0054-1.7038-2.5606-.155-4.9639-.2978-7.3666-.4491-.3025-.019-.6108-.0509-.9018-.1303-3.3241-.9069-6.4986-2.1569-7.5382-5.8486-1.0369-3.6821 1.1021-6.218 3.6495-8.4642 1.1898-1.0491 2.411-2.0627 4.0008-3.419-2.9111-3.5526-5.6354-7.0881-8.5788-10.4307-10.0934-11.4624-20.2151-22.9008-30.4172-34.2665-12.1661-13.5536-19.2502-29.3558-21.1751-47.4398-.328-3.0814-.0182-6.2268-.1407-9.3372-.0255-.6462-.5031-1.5797-1.0404-1.8521-4.0063-2.0309-4.2927-2.59-3.0011-6.9044.2161-.722.4308-1.4444.7243-2.429-3.755.2113-7.3441.4115-10.9331.6154-15.2018.8641-30.2057.3227-44.6955-5.22-16.4921-6.3086-30.1676-16.3613-40.5308-30.5988-9.5123-13.0685-10.0443-27.4992-4.7855-42.3283 7.5466-21.2804 23.2172-33.8953 44.1303-40.773.2154-.0708.4378-.133.6617-.1639 3.4058-.4688 4.6795-2.3854 5.3841-5.8306 3.3904-16.5779 12.9749-29.0053 26.8004-38.3897 11.8934-8.0729 24.8539-13.5432 39.2314-14.7847 25.5492-2.2062 48.1863 4.3312 66.2428 23.4454 1.7558 1.8587 3.5277 2.264 5.8922 1.8322 17.1237-3.1274 33.9643-2.3686 50.0627 4.7198 25.711 11.3209 41.1856 30.9204 44.277 58.9105 3.0147 27.2962-7.4618 48.9284-30.5297 64.2518-10.9145 7.2502-22.3961 13.1697-35.4602 15.3082-6.8104 1.1148-13.7026 1.7298-21.1822 2.6471 1.3316.8872 2.4467 1.37 3.1986 2.1872 1.4033 1.5252 3.084 3.065 3.7669 4.923 1.1721 3.189-1.5551 6.2164-5.4428 6.4391-2.1848.1251-4.3826.0225-7.2557.0225-3.0751 34.0237-7.4646 68.2587-13.7746 102.7185 1.4115-.4348 2.2343-.6923 3.0595-.942 6.2471-1.8903 11.1114 1.4029 11.8805 7.8551.1649 1.3831.9048 2.7833 1.6662 3.9957 4.5571 7.2568 9.2104 14.4531 13.8041 21.687 1.7078 2.6893 3.3641 5.4122 4.9992 8.1465.6811 1.1389 1.3829 1.3432 2.5901.6495 2.3572-1.3546 4.8086-2.5454 7.4758-3.9369-1.491-2.8155-2.9465-5.5295-4.371-8.2598-7.2763-13.9467-12.8972-28.4829-15.3716-44.0923-2.0745-13.0865-2.2328-26.1264 2.919-38.6149 8.8048-21.3436 24.4717-33.7823 47.8452-35.4284 20.2904-1.429 38.7467 3.9218 54.72 16.6041 4.7009 3.7324 8.4386 8.6791 12.6072 13.0793.4622.4879.8548 1.0418 1.3967 1.7092.4207-.4483.7827-.7856 1.0891-1.1675 13.5803-16.9291 31.0206-27.2822 52.5764-30.1211 14.7251-1.9392 28.8651-.0525 41.281 8.9703 10.4543 7.5973 16.921 18.1391 21.3719 30.0138 6.914 18.4458 6.3923 37.1991 2.0247 56.081-2.8775 12.4397-7.3708 24.2364-13.8919 35.2295-.8741 1.4735-.7258 2.552.3656 3.8689 7.1747 8.6572 12.4826 18.2737 14.8601 29.3753.1598.7461.6077 1.7067 1.2118 2.0375 4.7208 2.5854 5.3727 6.8844 4.9498 11.5728-.7346 8.1442-9.0529 15.2635-17.2069 14.8528-2.7818-.1401-5.1615-1.1757-7.081-3.2061-1.9589-2.0722-2.5227-4.4339-1.4405-7.1334 2.5919-6.4655 6.0912-12.1039 13.3724-14.3695-2.1016-10.8799-6.7511-20.3131-13.62-29.0643-.6082.8004-1.0823 1.361-1.4879 1.9675-12.8815 19.2617-29.0623 35.4291-46.9341 50.0023-5.6515 4.6085-5.0409 3.849-3.2338 9.9511 3.1006 10.4702 3.4508 21.2484 3.2996 32.0714-.0656 4.6945-.011 9.3907-.011 14.2152 3.3857.2551 7.0927.4383 10.7772.8326 7.0747.7572 13.7009 2.6472 19.0335 7.7684 5.1028 4.9004 3.9327 10.1839-2.8304 12.4185-4.7229 1.5605-9.4969.7896-14.2269.1491-7.0612-.9563-13.7293-3.2958-20.0419-6.5343-1.6044-.823-2.9616-2.3306-4.1109-3.7787-1.0618-1.3379-.8881-2.6666 1.1027-3.3096.5265-.17 1.1881-.9309 1.2252-1.46 1.0271-14.6363 2.2015-29.2804-.0693-43.909-.4073-2.6241-.9803-5.2229-1.4984-7.8291-.0879-.442-.2852-.8622-.5286-1.576-1.0065.6778-1.9115 1.3144-2.8427 1.9099-9.5898 6.1337-19.2063 12.2259-28.7577 18.4188-1.9265 1.2491-3.611 1.173-5.4842.0734-10.1412-5.9527-20.298-11.879-30.4472-17.8182-.6503-.3806-1.2823-.7926-2.2525-1.3946-.0949 1.4814-.2167 2.7159-.2465 3.9526-.268 11.1276.5384 22.1768 3.1782 32.9996.8336 3.4176 2.4941 6.6626 4.0059 9.8787 2.159 4.5925 1.5235 8.5864-2.4268 11.5889-8.9832 6.8279-18.9821 11.0437-30.4188 11.3709-5.309.1519-9.1512-2.3299-9.6674-6.9598-.2314-2.0758.4131-4.591 1.4984-6.4054 2.8505-4.7651 7.2958-7.9315 12.3356-10.0764 5.3673-2.2843 10.8808-4.2251 16.3294-6.3186.2715-.1043.533-.235.7862-.3477-2.7901-10.7868-3.9953-21.6789-3.8116-32.7173.0466-2.8017.278-5.6358.799-8.3841.5037-2.6567-.3503-4.2623-2.3614-6.0402-9.615-8.4999-19.3215-16.9282-28.4657-25.9206-10.361-10.1891-19.6642-21.349-27.3546-33.7596-.2709-.437-.6644-.7984-1.1125-1.3268zm99.7282-84.8838c-.7077-.5351-1.684-.9205-2.0793-1.6297-2.4742-4.439-5.4312-8.4483-8.6507-12.4281-7.7811-9.6188-17.2929-16.4559-28.8101-20.6871-8.9461-4.3139-18.4476-5.3306-28.2177-4.7532-16.4364-.3939-29.0013 6.6827-38.202 20.0172-8.6059 12.4724-10.0356 26.4525-8.2518 41.0518 2.0401 16.6971 7.9674 32.0812 15.7912 46.8242 1.1613 2.1883 2.4154 4.3273 3.6994 6.619 3.3848-2.0074 6.5133-3.8629 9.6419-5.7184 3.623-1.5062 7.2319-3.0477 10.8761-4.5006 1.4125-.5631 3.0601-.2923 3.4537 1.1354.2456.8908-.7932 2.2145-1.4309 3.2342-.2851.4558-1.006.6341-1.5207.952-2.6287 1.624-5.2547 3.2525-7.8816 4.8794-3.2497 1.704-6.4994 3.4081-9.8812 5.1814.9349 1.5228 1.6206 2.6981 2.3613 3.8376 8.1078 12.4737 17.9798 23.4588 28.6266 33.7771 2.5876 2.5078 5.3571 4.8278 8.0429 7.2341l.0309-.1217c.1855.3412.3709.6823.5563 1.0234 4.9696 4.4225 9.9391 8.8449 14.7409 13.118 2.4705-2.1475 4.5231-4.2998 6.9309-5.9265 2.667-1.8018 5.6284-2.3111 8.5417.4237-.7156 1.0136-1.3492 2.1317-2.1929 3.0586-1.5697 1.7244-3.2416 3.3578-4.9086 4.9908-1.6301 1.5969-1.2496 2.8038.5103 4.0244 1.9936 1.3828 3.8522 2.9584 5.8038 4.4041 3.7079 2.7466 7.4402 5.4604 11.1623 8.1878 3.349 2.071 6.7715 4.0341 10.0225 6.2491 2.3607 1.6084 4.3439 1.5204 6.623-.1593 8.9865-6.623 18.0327-13.1656 27.0945-19.6855 1.3849-.9965 1.7614-2.0338 1.2879-3.6867-.6052-2.1126-1.0233-4.3011.2008-6.4104 1.2596-2.1706 2.8126-2.243 4.0689-.0734.703 1.2141 1.2097 2.5419 1.9247 4.0753 19.101-16.4166 36.5511-33.8735 49.5096-55.5656-4.5608-3.8545-8.9008-7.5226-13.2409-11.1907-.7319-1.8259-.2725-3.184 1.5706-3.9986 3.4832.3431 5.8758 2.6937 8.4594 4.6556 2.1395 1.6247 4.1855 3.3724 6.5767 5.312 1.6778-3.5869 3.2968-6.7629 4.6736-10.0408 5.8077-13.8278 9.7888-28.0869 10.0445-43.2173.2682-15.8675-2.8822-30.7848-11.9946-44.0979-6.8664-10.0318-15.9842-16.4816-28.2878-17.9145-4.1205-.1312-8.2411-.2624-12.3614-.3939-4.744.8477-9.6777 1.1288-14.1988 2.6424-18.351 6.1439-33.145 16.6089-40.7159 35.2913zm-284.1438-178.6651c-14.9567 6.1413-26.2864 16.1545-32.9443 31.0688-5.393 12.0808-5.7737 24.3037-.2469 36.4182 3.552 7.7857 9.6311 13.5527 16.2311 18.7908 13.5586 11.657 29.2434 18.2728 47.0551 19.8453 1.8842.2033 3.7663.5585 5.6529.5837 8.2893.1107 16.5808.0699 24.8695.2067 2.8549.0471 4.7684-1.1553 6.1192-3.547 1.7194-3.0443 3.5298-6.0387 5.1919-9.1135 2.9498-5.457 5.8176-10.9584 8.8256-16.6413-1.7398-.7419-3.1339-1.3001-4.498-1.9239-7.5931-3.4728-15.3754-6.5987-22.702-10.5655-5.3745-2.9099-10.1479-6.9299-15.1892-10.4551-.8897-.9324-1.748-1.8972-2.6741-2.7919-6.8878-6.6543-12.7963-14.125-16.8804-22.7589-3.4913-7.3809-6.1376-15.1615-9.1576-22.7653-.3245-3.0419-.6491-6.0838-1.0201-9.5608-2.9289 1.1485-5.365 2.1038-7.8011 3.0591-.1536-.0118-.299.0172-.4359.0873-.1437-.053-.2756-.0319-.3957.0633zm211.3044-20.5608c-4.6356-2.9106-9.2711-5.8213-13.9066-8.7319-.7818-.4404-1.5291-.9624-2.3505-1.309-11.1116-4.6899-22.7505-6.3848-34.7298-5.8784-3.6376.1537-7.2576.7235-11.3958 1.1561 1.3941 1.8067 2.3602 3.0588 3.3264 4.3108.1846.4127.3234.8539.5605 1.2339 5.2625 8.4374 8.5086 17.598 9.8782 27.4364 1.6046 11.5273.7521 22.7752-4.187 33.4526-6.9131 14.945-17.7471 26.5529-31.1085 35.9389-2.8275 1.9862-5.7166 3.8848-8.765 5.951.7855.8509 1.2926 1.5078 1.904 2.0464 9.7478 8.5882 19.4752 17.2005 29.323 25.6727.911.7837 2.6075.6545 3.9392.9492 1.0365-.1688 2.1115-.2152 3.1029-.5271 5.0703-1.595 10.1263-3.236 15.1737-4.9023 12.6631-4.1804 24.9046-9.2612 35.9959-16.8177 17.3233-11.8023 26.308-28.2178 26.9392-49.1127.4078-13.4985-3.8252-25.7219-11.076-36.9687-3.4316-5.3229-7.2918-10.2881-12.6238-13.9002zm-168.6034 69.9153c5.2395 5.7207 11.2819 10.3575 18.3924 13.5264 10.7493 4.7906 21.5113 9.5528 32.2679 14.3271 2.5231 1.9335 4.0148 1.9203 7.3937-.3795 4.7096-3.2054 9.3835-6.4653 14.0175-9.779 10.2885-7.3568 20.1153-15.2337 27.9632-25.2934 9.577-12.2761 14.5649-26.0734 12.2597-41.6688-4.4455-30.0756-22.2442-48.9015-50.6589-58.2278-8.5178-2.7957-17.4056-2.8327-26.1949-1.8614-5.2982.5855-10.4855 2.1743-15.7227 3.3122-2.467.9185-4.9744 1.743-7.3906 2.7798-2.8878 1.2392-5.6977 2.6601-8.5413 4.0022-12.5101 6.4559-21.5124 16.2499-27.1481 29.0653-3.2854 7.4709-4.3131 15.387-2.7356 23.4403 3.6046 18.4013 12.4053 33.958 26.0977 46.7566zm25.2422 56.4544c2.6464.2008 4.7687.269 6.8628.5484 1.8739.25 3.1545 1.3394 3.7448 3.22.6012 1.9153.0042 3.4853-1.3818 4.7288-.9503.8526-2.0496 1.6063-3.2012 2.154-2.744 1.3049-4.3297 3.1055-3.8191 6.4038.2516 1.6251-.0998 3.3337-.0302 4.9982.5192 12.4143 4.5991 23.7296 10.5981 34.4759 4.9164 8.807 12.0694 15.7643 18.7323 23.1495 9.6631 10.7106 20.035 20.8114 28.3714 32.6765.1408.2003.4393.2898.6643.431.1911-.0732.3822-.1463.5734-.2195-.921-4.8105-1.4703-9.7287-2.8283-14.4125-5.513-19.0148-11.2562-37.9631-16.9503-56.9252-3.9454-13.1387-6.9974-26.4261-7.011-40.246-.0043-4.3795-.0007-8.759-.0007-12.7192-4.4244-.64-8.6319-.8428-12.5926-1.9378-3.824-1.0572-4.5529-4.6991-1.9588-7.7437 1.0059-1.1806 2.2856-2.1279 3.4669-3.2054-3.3401-1.7332-3.6491-1.6662-5.2049 1.5191-3.024 6.191-6.8043 11.8248-11.8042 16.6194-2.0588 1.9738-3.9608 4.1112-6.2309 6.4847zm64.807 101.1194c.2357.0222.4714.0445.7071.0667 1.5968-12.4983 3.3257-24.9814 4.7579-37.4985 1.9251-16.8249 3.5551-33.6836 5.4861-50.5077.2935-2.5573.0819-4.216-2.4812-5.3258-1.8543-.8029-2.8731-2.4856-2.7256-4.6066.1579-2.2701 1.4284-3.7687 3.5152-4.6133 1.2184-.4931 2.4293-1.0045 3.6501-1.5104-.1514-.3136-.1792-.5034-.2856-.5729-11.6084-7.5802-22.4897-16.0429-32.0384-26.1545-.477-.5051-1.7232-.7633-2.3938-.5249-3.3083 1.1761-6.5434 2.5586-9.3082 3.669 2.4939 1.6275 5.2366 3.179 7.6906 5.0995 1.7392 1.3611 1.9329 3.7778.4701 5.3067-1.5469 1.6168-1.8555 3.3299-1.6709 5.3946.1552 1.7362.0807 3.493.1059 5.2408.1764 12.226.3952 24.4478 3.8768 36.3204 4.6728 15.9348 9.3464 31.8693 14.0275 47.8016 2.196 7.4745 4.4103 14.9437 6.6164 22.4153zm93.978 188.8013c.0665-.1021.1331-.2043.1996-.3065 1.1928-.1738 2.3993-.2829 3.5763-.5318 7.246-1.5327 13.4078-5.5548 19.9211-8.7611 1.4403-.709 1.9945-2.0249 1.6085-3.646-.263-1.1042-.4893-2.2197-.8108-3.3068-.5435-1.8382-1.6098-2.6754-3.5826-1.8172-4.0315 1.7538-8.2412 3.1729-12.0796 5.2742-3.891 2.1301-7.5295 4.7787-11.0438 7.503-1.0022.7769-1.1863 2.6089-1.7456 3.9572 1.319.5451 2.638 1.09 3.9569 1.635zm131.2679-2.9353c.1146-.3052.2293-.6105.3439-.9157-1.6868-1.2781-3.215-2.8949-5.0894-3.772-6.1389-2.8724-12.8401-3.4277-19.4683-4.1562-1.7034-.1873-3.0892.5181-3.9288 2.1465-.5967 1.1573-.5685 1.9074.829 2.4438 7.5512 2.8981 15.2316 5.1721 23.4292 4.9393 1.3003-.0371 2.5899-.4477 3.8844-.6857zm37.3049-90.3825c-4.4471 3.1532-6.5322 7.8882-8.472 12.6469-.6119 1.5012.7111 2.4221 2.1164 2.6099 3.8692.5168 6.8047-1.2562 9.0571-4.1905 2.2827-2.9738 3.1297-6.2728 1.6613-9.9883-2.5732 1.5272-2.5732 1.5272-4.3628-1.078zm-254.7179-77.2848c-.0515.1056-.1031.2112-.1546.3167-.6006.0569-1.2051.0873-1.8011.1756-2.0904.3097-4.5912 2.7706-4.887 4.7866-.2328 1.587 1.4074 3.4653 2.8271 2.8666 2.1541-.9083 4.238-2.1552 6.0399-3.6374.6698-.5509.8213-2.2795.522-3.2616-.188-.6169-1.6538-.8443-2.5463-1.2465zm15.7934-112.9491c-1.8594-2.5613-2.0101-6.1111-5.5014-6.7531-3.0323-.5576-4.9847 1.4617-6.963 3.8055 3.933 2.1298 7.6978 3.5491 12.4644 2.9476zm-65.0687-24.0163c3.243 0 5.7942.0008 8.3454-.0009.3786-.0002.94.144 1.1028-.0468.5878-.6885 1.5545-1.5646 1.4586-2.239-.4602-3.2349-5.1408-4.8422-7.4673-2.5527-1.2426 1.2229-2.0679 2.8698-3.4395 4.8394zm-18.0209 23.5373c-.0837-.3051-.1675-.6101-.2513-.9152-.956-.3945-1.9047-.8078-2.8692-1.1801-3.8722-1.4946-6.2209-.0475-6.3999 4.0578-.0196.4493 1.0356 1.4262 1.294 1.3329 2.7766-1.0029 5.4933-2.1718 8.2264-3.2954zm58.0881 123.3515c.1046-.2606.2091-.5211.3137-.7817-1.3791-1.7429-2.7582-3.4859-4.2023-5.311-.7131.5878-1.2394 1.008-1.7498 1.4467-.4026.346-.819.685-1.1713 1.079-1.2346 1.3809-.9939 2.5972.8405 2.9934 1.9405.4191 3.9755.4008 5.9692.5736z" fill="#321b17"/><path d="m410.0827 228.4442c4.1206.1312 8.2411.2625 12.3619.3937 2.3155 3.2551 4.5429 6.5771 6.9638 9.7515 5.282 6.9263 9.7791 14.2338 11.9405 22.7924 2.3186 9.1813 2.4434 18.5052 2.2075 27.9019-.1722 6.8585-1.0597 13.6008-2.8763 20.154-2.303 8.3082-5.115 16.4753-7.7075 24.7032-1.843.8146-2.3024 2.1726-1.571 3.9991-.9364 1.6013-1.964 3.1562-2.7938 4.8102-6.5174 12.9902-15.2539 24.4219-25.1171 34.9655-5.5382 5.9203-11.5216 11.4663-17.6493 16.7834-10.4904 9.1026-22.0356 16.794-33.7466 24.2324-2.7968 1.7765-5.4594 3.7644-8.1837 5.6552-3.7221-2.7274-7.4544-5.4412-11.1623-8.1878-1.9516-1.4456-3.8102-3.0213-5.8038-4.4041-1.7599-1.2206-2.1404-2.4275-.5103-4.0244 1.6669-1.633 3.3389-3.2664 4.9086-4.9908.8437-.9268 1.4773-2.045 2.1929-3.0586-2.9133-2.7348-5.8747-2.2255-8.5417-.4237-2.4078 1.6267-4.4605 3.779-6.9309 5.9265-4.8018-4.2731-9.7713-8.6956-14.7411-13.1185-.1855-.3413-.3708-.6821-.5561-1.0229 0 0-.0309.1217-.0292.1202-.09-.4225-.0765-.9079-.2887-1.2555-6.9333-11.3597-13.9579-22.6644-20.8069-34.0746-2.8733-4.7867-5.3815-9.7925-8.0557-14.6987 2.6269-1.6269 5.2529-3.2554 7.8816-4.8794.5146-.318 1.2356-.4962 1.5207-.952.6378-1.0197 1.6766-2.3434 1.4309-3.2342-.3936-1.4277-2.0412-1.6986-3.4537-1.1354-3.6442 1.453-7.2531 2.9945-10.8761 4.5005-4.159-8.7735-8.4631-17.4818-12.4358-26.3387-3.9478-8.8013-5.6327-18.1607-5.8872-27.7807-.1901-7.1873 1.0273-14.1924 3.3354-20.9512 2.7401-8.0238 6.6545-15.4154 12.867-21.4053 4.5271-4.3649 9.5961-7.8522 15.47-10.1681 1.3904-.5482 2.6514-1.4245 3.9719-2.1499 9.7701-.5774 19.2716.4393 28.2179 4.7531 1.9375 2.3981 3.8545 4.8132 5.816 7.1917 7.1128 8.6246 14.1677 17.2985 21.3877 25.8326 4.958 5.8603 7.1468 6.3918 12.5292 3.3299 1.6864.093 3.2711.1399 4.4855-1.4804 3.5347-4.7161 7.2257-9.315 10.7541-14.0357 6.2669-8.3844 14.1371-14.7535 23.8353-18.6678 5.1049-2.0605 10.424-3.5896 15.6464-5.3586zm5.4874 90.176c.0262-.0955.0523-.191.0785-.2864 1.649-.1895 3.2985-.3751 4.9469-.5692 2.2154-.2609 4.6427-2.3471 5.0396-4.324.5346-2.6627-.5492-5.6283-2.8242-6.6435-1.4616-.6522-3.1848-.8562-4.8118-.9764-7.7097-.5696-15.4269-.9793-23.0894.5365-2.342.4633-4.2729 2.5691-4.3593 4.6519-.08 1.9287 1.3486 4.0831 3.7681 4.4952 7.0561 1.2018 14.164 2.0992 21.2516 3.1159zm-119.8552-13.7419c-4.8347.8004-9.697 1.4664-14.4948 2.4472-3.3582.6866-4.9969 4.4818-3.2484 7.0809 1.2368 1.8385 2.9858 3.0495 5.2391 3.292 2.1812.2347 4.3762.3388 6.564.5131 3.3161.2643 6.6335.515 9.946.8183 2.5767.236 5.6317-1.6816 6.6797-4.2656 1.2082-2.9788.3932-5.946-1.844-7.8348-2.6728-2.2569-5.7901-1.2808-8.8416-2.0511zm90.7927 26.1213c-.2137-.1508-.4273-.3015-.6411-.4522-.6794.4416-1.3673.8706-2.0369 1.3267-6.5307 4.4483-13.0124 8.9707-19.6034 13.3277-4.2286 2.7953-8.9221 3.42-13.7617 1.8902-8.6211-2.7251-15.6649-7.6129-20.5304-15.3907-.5125-.8193-1.2078-1.5242-1.8183-2.2822-.2468.1407-.4936.2813-.7404.422.4912 1.3723.8352 2.8207 1.498 4.1044 3.9195 7.5912 9.977 12.9397 17.7052 16.416 4.3987 1.9787 9.0012 2.8019 13.7776 1.5642 9.1208-2.3635 16.7462-7.1312 22.56-14.5673 1.4826-1.8963 2.4093-4.2274 3.5914-6.3588zm21.4314-45.5442c.0441-.0072.0881-.0143.1322-.0215-.1982-1.6486-.3347-3.3076-.6099-4.9433-.3582-2.1293-1.8588-3.1272-3.8572-3.1877-2.0783-.0628-3.4797 1.1126-3.8484 3.1568-.4693 2.6017-.8745 5.2299-1.0597 7.864-.2156 3.0686 1.0881 4.6396 3.7426 4.97 2.5815.3213 4.8358-1.4226 5.2841-4.2085.1917-1.1907.1513-2.4187.2163-3.6298zm-102.3596 2.285c.1023-.0419.2047-.0837.307-.1256-.5939-2.1593-1.0418-4.3727-1.8177-6.4645-1.0124-2.7292-2.6482-2.9153-4.4204-.5526-2.3572 3.1426-2.6299 6.8673-2.607 10.6086.0134 2.1947 1.5478 3.7602 3.6249 3.9535 2.1554.2006 4.0323-1.1633 4.4474-3.363.2517-1.334.3169-2.7031.4658-4.0564z" fill="#fb6c5e"/><path d="m117.5117 37.8048c2.8436-1.3422 5.6535-2.763 8.5413-4.0022 2.4162-1.0368 4.9236-1.8613 7.3906-2.7797 1.1779.8244 2.3091 1.7272 3.5411 2.4607 9.0441 5.3845 18.0611 10.8172 27.18 16.0728 8.5474 4.9262 16.9787 9.9385 23.4961 17.5846 3.6878 4.3265 6.4871 9.1369 8.3707 14.4639 2.2023 6.2282 3.4051 12.6253 3.796 19.2724.4554 7.7439.6961 15.447-.6126 23.0973-.8625 5.0422-1.1307 10.497-4.7067 14.5004-3.2425 3.63-7.1197 6.7068-10.8138 9.9162-5.5396 4.8129-11.1651 9.5269-16.7504 14.2873-.8628.7354-1.7059 1.494-2.558 2.242-10.7566-4.7743-21.5186-9.5365-32.2679-14.3271-7.1105-3.1689-13.1529-7.8056-18.3924-13.5264.1303-.3006.4564-.7024.3613-.8865-1.2519-2.4228-2.648-4.7735-3.8436-7.2224-3.5165-7.2029-7.5704-14.2207-10.2826-21.7202-3.7322-10.3199-4.4259-21.211-3.4277-32.1735.5809-6.38 2.846-12.1756 5.9278-17.6928 3.5798-6.4087 8.46-11.779 13.6358-16.9166.6793-.6743.9534-1.7568 1.415-2.6502z" fill="#fbcb00"/><path d="m224.8171 189.3802c-1.3317-.2947-3.0282-.1655-3.9392-.9492-9.8479-8.4722-19.5752-17.0845-29.323-25.6727-.6113-.5386-1.1185-1.1955-1.904-2.0464 3.0484-2.0662 5.9375-3.9648 8.765-5.951 13.3615-9.3859 24.1954-20.9938 31.1085-35.9389 4.9391-10.6774 5.7916-21.9253 4.187-33.4526-1.3695-9.8384-4.6157-18.999-9.8782-27.4364-.237-.38-.3759-.8212-.56-1.2338 1.3425-.1722 2.6802-.3964 4.0272-.5057 2.632-.2136 5.2697-.5157 7.9042-.5081 6.1723.0177 12.3653-.0774 18.5096.3965 4.9335.3805 9.8077 1.5297 14.7083 2.3377 4.6355 2.9106 9.2711 5.8213 13.9066 8.7319.2295.6213.3763 1.2899.7005 1.8569 6.1575 10.767 8.9954 22.4693 9.2564 34.7501.1053 4.9505-.5752 9.9615-1.3361 14.8771-1.3748 8.8815-4.1647 17.4531-10.0322 24.3109-5.8378 6.823-12.1543 13.4115-19.1049 19.0652-9.8427 8.0061-20.4679 15.0492-30.7389 22.531-2.1299 1.5516-4.1734 3.2219-6.2568 4.8375z" fill="#7ba4ce"/><path d="m101.1198 193.8354c-17.8117-1.5725-33.4964-8.1883-47.0552-19.8454-.0899-.6678-.0343-1.399-.2935-1.9927-1.3959-3.1964-3.0583-6.288-4.2821-9.5459-3.796-10.1056-4.7267-20.5459-3.6653-31.2771.967-9.7779 4.5414-18.44 10.1001-26.4189 3.854-5.5319 8.5691-10.1661 14.002-14.1336.7378-.5388 1.019-1.7031 1.5115-2.5777-.0084-.1317-.0141-.2634-.0172-.3953.1372-.07.2826-.0991.4365-.087 2.9405 2.1673 5.8807 4.3344 8.8209 6.5015 3.02 7.6038 5.6663 15.3844 9.1576 22.7653 4.0841 8.6339 9.9925 16.1046 16.8804 22.7589.9261.8947 1.7844 1.8595 2.6739 2.7919.1297 2.2623.2541 4.5249.3903 6.7868.6933 11.5164-1.3025 22.6041-5.1729 33.4252-1.3203 3.6916-2.3335 7.4929-3.487 11.244z" fill="#acc957"/><path d="m164.386 164.9204c.8522-.7479 1.6952-1.5066 2.558-2.242 5.5853-4.7604 11.2108-9.4744 16.7504-14.2873 3.694-3.2095 7.5713-6.2863 10.8138-9.9162 3.5761-4.0034 3.8442-9.4582 4.7067-14.5004 1.3087-7.6503 1.068-15.3534.6126-23.0973-.3909-6.647-1.5937-13.0441-3.796-19.2724-1.8836-5.327-4.6829-10.1373-8.3707-14.4639-6.5174-7.6461-14.9487-12.6584-23.4961-17.5846-9.1189-5.2556-18.1359-10.6882-27.18-16.0728-1.232-.7335-2.3632-1.6362-3.5411-2.4607 5.2371-1.138 10.4245-2.7268 15.7227-3.3123 8.7893-.9713 17.6771-.9343 26.1949 1.8614 28.4147 9.3263 46.2133 28.1523 50.6589 58.2278 2.3052 15.5954-2.6827 29.3927-12.2597 41.6688-7.8479 10.0596-17.6747 17.9365-27.9632 25.2934-4.6341 3.3136-9.308 6.5736-14.0175 9.779-3.3789 2.2997-4.8706 2.313-7.3937.3795z" fill="#f8b701"/><path d="m432.9726 334.1408c2.5925-8.2279 5.4045-16.395 7.7075-24.7032 1.8166-6.5532 2.704-13.2955 2.8763-20.154.2359-9.3966.1111-18.7206-2.2075-27.9019-2.1613-8.5585-6.6585-15.8661-11.9405-22.7924-2.4209-3.1745-4.6483-6.4965-6.9638-9.7515 12.3033 1.4329 21.4211 7.8828 28.2875 17.9146 9.1125 13.3131 12.2628 28.2304 11.9946 44.0979-.2557 15.1303-4.2368 29.3895-10.0445 43.2173-1.3767 3.2779-2.9957 6.4539-4.6736 10.0408-2.3911-1.9396-4.4372-3.6873-6.5767-5.312-2.5835-1.9619-4.9761-4.3125-8.4593-4.6556z" fill="#f54937"/><path d="m224.8171 189.3802c2.0834-1.6156 4.1269-3.2859 6.2569-4.8375 10.271-7.4818 20.8962-14.5248 30.7389-22.531 6.9507-5.6537 13.2671-12.2422 19.1049-19.0652 5.8676-6.8578 8.6574-15.4294 10.0322-24.3109.7609-4.9156 1.4414-9.9266 1.3361-14.8771-.2611-12.2807-3.0989-23.9831-9.2564-34.7501-.3243-.567-.4711-1.2356-.7005-1.8569 5.3319 3.6121 9.1922 8.5773 12.6237 13.9 7.2508 11.2468 11.4838 23.4702 11.076 36.9687-.6312 20.8949-9.6159 37.3104-26.9392 49.1127-11.0913 7.5565-23.3328 12.6373-35.9959 16.8177-5.0474 1.6663-10.1035 3.3073-15.1737 4.9023-.9916.3121-2.0666.3585-3.103.5273z" fill="#5f8cbb"/><path d="m343.9112 424.5866c2.7243-1.8907 5.3868-3.8787 8.1837-5.6552 11.7111-7.4384 23.2562-15.1298 33.7466-24.2324 6.1277-5.3171 12.1111-10.8631 17.6493-16.7834 9.8632-10.5435 18.5996-21.9753 25.1171-34.9655.8298-1.654 1.8575-3.2088 2.7938-4.8102 4.3405 3.6675 8.6806 7.3356 13.2413 11.1901-12.9584 21.6921-30.4085 39.149-49.5096 55.5656-.7149-1.5334-1.2216-2.8612-1.9247-4.0753-1.2563-2.1696-2.8093-2.0972-4.0689.0734-1.2241 2.1093-.806 4.2978-.2008 6.4104.4735 1.6529.0971 2.6902-1.2879 3.6867-9.0618 6.52-18.1079 13.0625-27.0945 19.6855-2.2791 1.6797-4.2624 1.7677-6.623.1593-3.2509-2.2148-6.6734-4.178-10.0224-6.249z" fill="#f44837"/><path d="m101.1198 193.8354c1.1536-3.7511 2.1668-7.5525 3.4871-11.244 3.8703-10.821 5.8661-21.9088 5.1729-33.4252-.1362-2.2619-.2606-4.5244-.3903-6.7868 5.0415 3.5251 9.8149 7.5451 15.1894 10.455 7.3265 3.9668 15.1089 7.0927 22.702 10.5655 1.3641.6239 2.7582 1.1821 4.498 1.9239-3.008 5.6829-5.8757 11.1843-8.8256 16.6413-1.6621 3.0748-3.4725 6.0692-5.1919 9.1135-1.3508 2.3917-3.2643 3.5941-6.1192 3.547-8.2887-.1368-16.5802-.096-24.8695-.2067-1.8866-.025-3.7688-.3801-5.6529-.5835z" fill="#8cb132"/><path d="m287.4106 226.8794c-1.3205.7254-2.5815 1.6017-3.9719 2.1499-5.874 2.3159-10.943 5.8032-15.47 10.1681-6.2125 5.9899-10.1269 13.3815-12.867 21.4053-2.3081 6.7588-3.5256 13.7639-3.3354 20.9512.2545 9.6199 1.9394 18.9793 5.8872 27.7807 3.9727 8.8569 8.2769 17.5652 12.4358 26.3387-3.1285 1.8556-6.257 3.7111-9.6418 5.7186-1.284-2.2917-2.5381-4.4308-3.6994-6.619-7.8238-14.743-13.7512-30.1271-15.7912-46.8242-1.7838-14.5994-.3541-28.5794 8.2518-41.0518 9.2007-13.3347 21.7655-20.4113 38.2019-20.0175z" fill="#f49b88"/><path d="m71.4373 88.0442c-.4926.8747-.7737 2.0389-1.5115 2.5777-5.4329 3.9675-10.148 8.6016-14.002 14.1336-5.5587 7.9789-9.1331 16.6411-10.1001 26.4189-1.0613 10.7311-.1307 21.1715 3.6653 31.2771 1.2238 3.2579 2.8862 6.3495 4.2821 9.5459.2593.5937.2037 1.3249.2935 1.9927-6.5998-5.2381-12.679-11.005-16.231-18.7907-5.5268-12.1145-5.1461-24.3373.2469-36.4182 6.6578-14.9143 17.9876-24.9275 32.9437-31.0688.1372.1107.2752.2212.4131.3318z" fill="#cad87e"/><path d="m117.5117 37.8048c-.4617.8934-.7357 1.9758-1.4149 2.6501-5.1758 5.1377-10.0561 10.5079-13.6358 16.9166-3.0817 5.5171-5.3468 11.3128-5.9278 17.6928-.9982 10.9626-.3045 21.8537 3.4277 32.1735 2.7122 7.4994 6.7661 14.5173 10.2826 21.7202 1.1956 2.449 2.5917 4.7997 3.8436 7.2224.0951.1841-.231.5858-.3613.8865-13.6925-12.7986-22.4932-28.3552-26.0978-46.7566-1.5775-8.0532-.5498-15.9693 2.7356-23.4403 5.6357-12.8154 14.638-22.6094 27.1481-29.0652z" fill="#f6d802"/><path d="m273.5859 341.3737c2.6742 4.9062 5.1824 9.912 8.0557 14.6987 6.849 11.4102 13.8736 22.7148 20.8069 34.0746.2122.3476.1987.833.2887 1.2555-2.6875-2.4049-5.4571-4.7249-8.0446-7.2327-10.6467-10.3183-20.5187-21.3034-28.6266-33.7771-.7407-1.1395-1.4265-2.3148-2.3613-3.8376 3.3818-1.7733 6.6315-3.4773 9.8812-5.1814z" fill="#f19986"/><path d="m355.3615 267.9866c-5.3824 3.0619-7.5713 2.5304-12.5292-3.3299-7.22-8.5341-14.2749-17.2079-21.3877-25.8326-1.9615-2.3784-3.8785-4.7935-5.816-7.1917 11.517 4.2313 21.0288 11.0684 28.8099 20.6873 3.2195 3.9798 6.1766 7.9892 8.6507 12.4281.3953.7092 1.3716 1.0946 2.0797 1.631.0644.5368.1285 1.0723.1926 1.6078z" fill="#f24938"/><path d="m297.7529 483.442c-1.3189-.545-2.6379-1.09-3.9568-1.635.5593-1.3482.7434-3.1802 1.7456-3.9572 3.5143-2.7244 7.1528-5.373 11.0438-7.503 3.8384-2.1013 8.0482-3.5204 12.0796-5.2742 1.9727-.8582 3.0391-.0209 3.5826 1.8172.3214 1.0872.5478 2.2026.8108 3.3068.3861 1.621-.1682 2.937-1.6085 3.646-6.5133 3.2063-12.6751 7.2284-19.9211 8.7611-1.177.2489-2.3835.3581-3.5763.5318-.0666.1023-.1332.2044-.1997.3065z" fill="#e6ce9d"/><path d="m355.3615 267.9866c-.0641-.5355-.1281-1.0709-.1926-1.6077 7.5706-18.6838 22.3646-29.1488 40.7153-35.2924 4.5211-1.5136 9.4548-1.7947 14.1986-2.6423-5.2225 1.7691-10.5417 3.2982-15.6464 5.3585-9.6982 3.9143-17.5685 10.2834-23.8353 18.6678-3.5284 4.7206-7.2195 9.3196-10.7541 14.0357-1.2145 1.6202-2.7991 1.5733-4.4855 1.4804z" fill="#ee9683"/><path d="m429.0208 480.5067c-1.2945.2379-2.5841.6486-3.8844.6856-8.1975.2328-15.878-2.0412-23.4292-4.9393-1.3975-.5363-1.4258-1.2864-.829-2.4438.8396-1.6284 2.2254-2.3337 3.9288-2.1465 6.6282.7285 13.3294 1.2838 19.4683 4.1562 1.8744.877 3.4026 2.4939 5.0894 3.772-.1146.3053-.2293.6106-.3439.9158z" fill="#e0c89a"/><path d="m268.4225 58.4197c-4.9005-.8081-9.7747-1.9572-14.7083-2.3377-6.1443-.4739-12.3373-.3788-18.5096-.3965-2.6346-.0076-5.2722.2946-7.9042.5081-1.3471.1093-2.6848.3336-4.0272.5057-.9666-1.2522-1.9328-2.5043-3.3269-4.311 4.1382-.4326 7.7582-1.0024 11.3958-1.1561 11.9793-.5063 23.6182 1.1885 34.7298 5.8784.8215.3467 1.5688.8686 2.3506 1.3091z" fill="#abbed1"/><path d="m466.3257 390.1242c1.7897 2.6052 1.7897 2.6052 4.3628 1.078 1.4683 3.7155.6214 7.0144-1.6613 9.9883-2.2524 2.9343-5.1879 4.7074-9.0571 4.1905-1.4053-.1877-2.7283-1.1087-2.1164-2.6099 1.9398-4.7587 4.0248-9.4936 8.472-12.6469z" fill="#e0c89a"/><path d="m211.6078 312.8394c.8925.4022 2.3583.6296 2.5463 1.2465.2993.9821.1478 2.7107-.522 3.2616-1.8019 1.4822-3.8858 2.7291-6.0399 3.6374-1.4197.5987-3.06-1.2796-2.8271-2.8666.2958-2.016 2.7966-4.4768 4.887-4.7866.5959-.0883 1.2005-.1186 1.8011-.1756.0516-.1055.1031-.2111.1546-.3167z" fill="#e0c89a"/><path d="m227.4012 199.8903c-4.7666.6015-8.5314-.8178-12.4644-2.9476 1.9783-2.3439 3.9308-4.3631 6.963-3.8055 3.4913.6421 3.642 4.1918 5.5014 6.7531z" fill="#5d88b6"/><path d="m162.3325 175.874c1.3716-1.9696 2.1969-3.6165 3.4395-4.8394 2.3265-2.2896 7.0071-.6822 7.4673 2.5527.0959.6744-.8708 1.5505-1.4586 2.239-.1628.1907-.7243.0465-1.1028.0468-2.5512.0017-5.1023.0009-8.3454.0009z" fill="#e4ad06"/><path d="m80.6775 94.0634c-2.9402-2.1671-5.8804-4.3342-8.8209-6.5015 2.4358-.9555 4.872-1.9108 7.8008-3.0593.3711 3.477.6956 6.5189 1.0201 9.5608z" fill="#8cb132"/><path d="m144.3116 199.4113c-2.7331 1.1235-5.4497 2.2925-8.2264 3.2954-.2585.0934-1.3136-.8836-1.294-1.3329.179-4.1053 2.5277-5.5524 6.3999-4.0578.9645.3723 1.9132.7856 2.8692 1.1801.0838.3051.1675.6102.2513.9152z" fill="#a2bd50"/><path d="m202.3997 322.7628c-1.9937-.1728-4.0287-.1545-5.9692-.5736-1.8344-.3962-2.0751-1.6125-.8405-2.9934.3522-.394.7687-.7329 1.1713-1.079.5104-.4387 1.0366-.8589 1.7498-1.4467 1.4442 1.8252 2.8232 3.5681 4.2023 5.311-.1045.2606-.2091.5211-.3137.7817z" fill="#d9c195"/><path d="m302.7664 391.2823c.1853.3408.3706.6816.5561 1.0229-.1852-.3406-.3706-.6817-.5561-1.0229z" fill="#f19986"/><path d="m71.4373 88.0442c-.1379-.1106-.2758-.2211-.4132-.3317.1207-.0952.2526-.1164.3962-.0636.0029.1319.0086.2636.017.3953z" fill="#8cb132"/><path d="m415.5701 318.6202c-7.0876-1.0167-14.1955-1.9141-21.2515-3.1158-2.4194-.4121-3.8481-2.5665-3.7681-4.4952.0864-2.0829 2.0173-4.1887 4.3593-4.6519 7.6625-1.5158 15.3797-1.1061 23.0894-.5365 1.627.1202 3.3502.3242 4.8118.9764 2.275 1.0151 3.3587 3.9807 2.8242 6.6435-.3969 1.9768-2.8242 4.063-5.0396 4.324-1.6484.1942-3.2979.3798-4.9469.5692-.0263.0953-.0524.1908-.0786.2863z" fill="#ff3651"/><path d="m295.7149 304.8783c3.0515.7702 6.1688-.2058 8.8418 2.051 2.2372 1.8889 3.0521 4.856 1.844 7.8348-1.0481 2.584-4.103 4.5016-6.6797 4.2656-3.3126-.3033-6.6299-.554-9.946-.8183-2.1879-.1743-4.3829-.2784-6.564-.5131-2.2534-.2424-4.0023-1.4535-5.2391-3.292-1.7485-2.5991-.1098-6.3943 3.2484-7.0809 4.7977-.9807 9.6599-1.6466 14.4946-2.4471z" fill="#ff3651"/><path d="m386.5076 330.9996c-1.1821 2.1313-2.1087 4.4624-3.5914 6.3588-5.8138 7.436-13.4392 12.2038-22.56 14.5673-4.7764 1.2377-9.3789.4145-13.7776-1.5642-7.7282-3.4763-13.7857-8.8249-17.7052-16.416-.6628-1.2838-1.0067-2.7321-1.498-4.1044.2468-.1407.4936-.2813.7404-.422.6105.758 1.3058 1.463 1.8183 2.2822 4.8655 7.7777 11.9093 12.6656 20.5304 15.3907 4.8397 1.5298 9.5332.9051 13.7617-1.8902 6.591-4.357 13.0727-8.8794 19.6034-13.3277.6696-.4561 1.3575-.8851 2.0369-1.3267.2137.1508.4274.3015.6411.4522z" fill="#361b18"/><path d="m407.939 285.4554c-.065 1.2111-.0247 2.4391-.2162 3.6298-.4483 2.7859-2.7025 4.5298-5.2841 4.2085-2.6545-.3304-3.9582-1.9014-3.7426-4.97.1851-2.6342.5904-5.2623 1.0597-7.864.3687-2.0441 1.7701-3.2196 3.8484-3.1568 1.9984.0604 3.499 1.0583 3.8572 3.1877.2752 1.6357.4117 3.2947.6099 4.9433-.0441.0072-.0882.0144-.1323.0215z" fill="#321915"/><path d="m305.5794 287.7404c-.149 1.3533-.2141 2.7225-.4658 4.0564-.4151 2.1997-2.292 3.5636-4.4474 3.363-2.0771-.1934-3.6115-1.7588-3.6249-3.9535-.0229-3.7414.2498-7.4661 2.607-10.6086 1.7722-2.3627 3.4081-2.1765 4.4204.5526.7759 2.0918 1.2239 4.3052 1.8177 6.4645-.1023.0418-.2047.0837-.307.1256z" fill="#351a16"/></g></svg>