<svg id="Layer_1" enable-background="new 0 0 512 512" height="512" viewBox="0 0 512 512" width="512" xmlns="http://www.w3.org/2000/svg"><g><path d="m160.7968 349.9582c-5.4472 5.7182-11.4908 10.908-18.4436 14.9361-9.7374 5.6414-20.1496 8.7074-31.2362 5.3606-18.6029-5.6158-25.1286-24.6145-18.5347-39.2285 1.14-2.5266 2.9609-4.7461 4.5048-7.1663-1.4014-2.3281-2.9283-4.6053-4.1714-7.0282-.7352-1.433-1.5331-1.445-2.899-1.1067-7.6935 1.9056-14.856.9073-20.8494-4.624-6.5733-6.0665-7.6673-13.7483-5.616-22.0137 2.7471-11.0688 9.7962-18.9888 19.0305-25.244 9.6281-6.5219 20.2926-10.2086 31.7323-11.8489.4516-.0647.9064-.1127 1.3537-.1993.3666-.0709.7243-.1878 1.0185-.2663 0-4.8906-.4058-9.7614.0792-14.5419 1.2491-12.3107 2.889-24.5819 4.3793-36.8681 2.0504-16.9034 4.2814-33.7872 6.1135-50.7142 1.9876-18.3638 3.1736-36.8248 5.5954-55.1261.9906-7.4858-1.7878-12.0718-6.3394-17.3375-8.7552-10.129-13.5038-22.1443-12.4747-35.8588 1.0418-13.8836 13.3491-26.6712 26.2117-27.4741 14.2283-.888 27.4446 10.175 28.5612 24.3967.3439 4.3798-.4821 8.892-1.1089 13.2957-.5729 4.0246-1.6009 7.9845-2.5275 12.4507 5.2074-2.2312 10.0295-3.6713 15.1484-1.5462 5.2514 2.1801 7.5612 6.2987 7.7489 12.0639 4.2114.1857 8.2966.5377 12.3795.5133 11.7821-.0705 23.5784-.7466 35.3415-.355 20.5318.6835 39.9071 5.837 57.4952 16.8378 16.0219 10.0212 25.5245 24.7717 30.9854 42.5049 3.1243 10.1455 4.7875 20.549 5.8602 31.0754.4314 4.2331.9294 8.4607 1.5001 12.6768.0804.5941.6868 1.5272 1.1554 1.5972 7.0995 1.062 10.9315 5.4459 12.554 12.3904 5.4575-2.4406 10.768-4.8155 16.2296-7.2579-1.1959-2.3548-2.5687-4.5488-3.4712-6.9218-4.1571-10.9303-.1249-21.3282 10.6718-27.75 8.7188-5.1859 18.2087-5.9128 27.9961-4.6411 10.8397 1.4084 20.1622 6.5051 29.1436 12.3065 2.7252 1.7603 5.1874 3.9306 7.7497 5.9392 3.2731 2.5658 4.0572 6.1168 3.7262 9.9971-1.163 13.6339-4.1324 26.7356-11.8885 38.3125-6.366 9.5018-14.5541 16.4533-26.2552 18.4433-11.1161 1.8905-20.6887-3.9555-23.9816-14.7917-.7726-2.5426-1.4995-5.0991-2.3124-7.8704-3.6232 1.4948-7.1701 2.977-10.7319 4.4224-3.5091 1.424-7.0332 2.8107-10.7535 4.2947.9358.8877 1.6904 1.6117 2.4538 2.3262 6.322 5.917 8.1255 13.5518 5.1007 21.6033-1.2126 3.2278-1.2045 3.2168 1.4988 5.2031 8.101 5.9523 16.1072 12.0254 22.2894 20.092 15.1805 19.8077 19.2875 41.6243 11.93 65.5719-3.1817 10.3559-8.4928 19.6569-14.0927 28.7785-7.6318 12.4314-15.5432 24.6941-23.5001 36.9214-2.6045 4.0022-5.8477 7.5832-8.5814 11.5083-4.193 6.0205-6.9035 12.6396-6.9915 20.0978-.0471 3.9941-1.4605 7.4083-3.8718 10.491-.603.7709-1.2145 1.5353-1.7599 2.2242 4.7583 2.4488 9.5189 4.6199 14.0006 7.2637 9.104 5.3708 13.696 13.4546 13.0175 24.0837-.8484 13.2901-13.2364 25.1411-26.5284 26.1696-14.2343 1.1014-24.0318-5.9183-31.8606-16.7381-7.0861-9.7935-10.1064-20.8109-9.3333-32.8531.1345-2.0944-.7989-3.5158-2.3373-4.6253-5.0483-3.6407-10.1662-7.1851-15.2039-10.8401-15.747-11.4252-31.3141-23.106-47.2408-34.2744-20.2186-14.178-40.745-27.9164-61.0753-41.9362-2.9722-2.0491-5.5935-4.6066-8.5844-7.102zm214.716 2.1772-.0275.0745c.3103-.6329.6206-1.2658.931-1.8987 0 0-.041.0421-.0413.0416 4.1999-7.7916 8.5727-15.524 10.9154-24.1328 1.5521-5.7035 2.7555-11.503 2.2741-17.4948-.4519-3.9679-.9038-7.9359-1.3557-11.9037-.1717-1.0411-.2561-2.1056-.5291-3.1194-1.8436-6.8467-4.3528-13.3829-9.0279-18.8789-3.0105-5.281-7.0936-9.6272-11.5756-13.6888-4.8342-4.3808-9.4693-8.9813-14.3807-13.6667-1.2475.9831-2.5983 2.0477-3.9492 3.1123-5.1638 2.2706-10.3277 4.5411-15.4915 6.8117-5.4357 1.606-10.8714 3.2121-16.8094 4.9666 1.2519 3.7375 2.1383 7.7 3.8592 11.2592 4.1267 8.535 8.6199 16.8937 13.0121 25.299 5.662 10.8351 9.3773 22.1919 9.9377 34.5199.5084 11.1839.0728 22.2527-3.9817 32.8152-5.449 14.1957-13.0362 27.2702-21.6414 39.7701-.5725.8316-1.1677 1.6477-1.6942 2.3892 4.0078.4492 7.7519.8687 11.4961 1.2883 3.3465 1.9545 6.6931 3.909 9.9946 5.8372.8553-1.8459 1.7157-4.3053 3.0464-6.4763 8.0418-13.1197 16.1917-26.1732 24.3047-39.2493 3.3949-5.4716 6.7877-10.9445 10.1814-16.4169.184-.4196.3683-.839.5525-1.2585zm-76.3564-134.213c.1549-.1792.3098-.3583.4646-.5374-.1751-.0482-.3503-.0963-.5254-.1445-1.1443.3714-2.2885.7429-3.4327 1.1143.082.2303.164.4606.246.6909 1.0825-.3745 2.165-.7489 3.2475-1.1233zm11.8044 206.021c2.7454.2919 5.4907.5838 8.2361.8758 5.1243 2.4942 9.6095 5.7894 13.0327 10.611 1.2213-1.4429 2.3996-2.702.7761-4.4327-3.7008-3.9451-7.8397-7.2004-13.3081-8.3246-2.2988-.3257-4.5975-.6514-6.8963-.9771-1.9351.2938-3.8907.4929-5.7991.9093-1.7454.3807-2.9812 1.3447-2.7555 3.4426 2.3159-.7259 4.515-1.4151 6.7141-2.1043zm-141.0913-332.5589c3.5424-2.0026 6.2431-4.8298 8.2083-8.3777 2.7548-3.3987 4.9659-6.9618 3.2948-11.7361-1.6193 3.5751-3.2386 7.1502-4.8579 10.7252-2.3923 2.6108-4.7847 5.2215-7.177 7.8323-2.6441 1.5715-5.2883 3.143-7.9324 4.7145 3.443.3144 6.2024-.8306 8.4642-3.1582zm-5.0937-5.6567c-2.9074 2.3129-5.8148 4.6259-8.9699 7.1359 3.3873.7403 7.1812-.9154 10.3966-4.2053 2.4977-2.5919 4.9953-5.1838 7.493-7.7757 3.204-3.6406 4.6421-7.9945 5.3909-12.7561-1.0483-.3308-1.8757-.5919-2.1552-.6802-2.3503 4.1624-4.5265 8.0164-6.7026 11.8704-1.8176 2.137-3.6352 4.274-5.4528 6.411zm-1.7837-1.8013c1.5494-1.7691 3.0987-3.5383 4.6481-5.3074 2.7339-3.287 5.6313-6.4945 5.6607-11.2269-3.4049.3978-4.7943 1.1974-6.2434 3.7953-.881 1.5794-1.5626 3.27-2.3336 4.9101-1.5322 1.6478-3.0643 3.2957-4.5965 4.9435-3.7439 2.3939-6.0181 5.5984-5.8159 10.578.773-.5921 1.3245-.9561 1.8081-1.3949 2.301-2.0881 4.5834-4.1965 6.8725-6.2977zm165.9911 340.2652c.2241.1501.4482.3001.6722.4502-.0891-.2984-.1782-.5968-.2673-.8952-3.7393-4.2352-8.5581-6.4308-14.0602-7-2.4796-.2565-4.7812.6893-6.7715 3.071 7.8413-1.9066 14.3237.4034 20.4268 4.374zm-11.5756 5.4492c3.1599 1.1724 6.3199 2.3448 10.1221 3.7556-3.2144-3.2108-6.1698-5.5739-10.1222-6.3918-5.3637-2.3874-13.2238.0219-13.9452 3.8295 4.5701-.3911 9.2577-.7922 13.9453-1.1933zm-218.25-130.181c-4.4326-2.1302-8.8652-4.2603-13.2978-6.3905-2.4928-1.3157-4.9856-2.6313-7.4784-3.947-2.1632-1.1688-4.3265-2.3376-6.5856-3.5582-1.4572 3.5176-1.9454 6.7844-1.8415 10.2857.1073 3.6148 1.3323 4.0009 4.3459 3.5945 6.4031 1.5117 12.8061 3.0233 19.2092 4.5349.6117.006 1.2233.012 1.835.018 2.4335-.9348 4.8669-1.8697 7.3004-2.8045-.0462-.1717-.0925-.3434-.1387-.5151-1.1162-.406-2.2324-.8119-3.3485-1.2178zm228.3937 145.3195c-1.2643-1.2765-3.0784-2.3402-3.6726-3.8759-1.0701-2.7656-3.2776-3.1964-5.5581-3.8347l.0214-.0308c-1.6769-.2897-3.3537-.5794-5.0306-.8692-2.6316.3553-5.2708.6667-7.8861 1.1162-.3662.0629-.7694.7629-.8953 1.237-.9496 3.5772-2.6082 7.1722-2.6057 10.7607.0115 16.0992 5.7387 29.3333 20.0185 38.1645 6.8493 4.2358 13.5458 3.9876 20.5315.8602 6.34-2.0512 9.3259-7.205 11.5866-12.8629 1.29-3.2286 1.279-6.6634.163-10.0249-.4407-.9074-.8814-1.8149-1.3221-2.7223-.2405-.3321-.4811-.6641-.7216-.9961l.0264.0221c-1.4592-2.9151-3.5437-5.2663-6.3986-6.8599-6.0769-3.392-12.1782-6.7404-18.2695-10.1066zm-49.4114-350.9507s.0495.0466.0495.0466c-3.9469-1.6685-7.8938-3.3369-11.8407-5.0054-1.6312-.5867-3.2324-1.2823-4.8985-1.7423-9.9883-2.7575-20.2046-4.0761-30.532-4.4486-4.2222-.1523-8.4623.1902-12.6943.3076-2.4309.0159-4.8618.0319-7.2928.0478-7.7629-.7279-15.5228-1.4938-23.294-2.1191-.6989-.0562-1.7365.6191-2.1613 1.2577-1.5451 2.3231-2.8965 4.7751-4.321 7.1785-.6011.6204-1.2023 1.2407-1.8034 1.8611-1.6484 1.5734-3.2968 3.1467-5.269 5.0293 8.9886.9405 17.4519 1.7309 25.8904 2.7302 14.0962 1.6692 27.1363 5.9873 38.698 14.6406 7.557 5.656 13.5423 12.4831 18.5454 20.3793 5.7658 9.1001 9.7133 19.0608 14.0406 28.8444 4.7199 10.6712 9.3517 21.3813 14.1208 32.3008 1.9762-.9747 3.5099-1.7702 5.0758-2.4962 4.8781-2.2616 9.7684-4.4968 14.654-6.7423 3.7952-1.432 7.5905-2.864 11.3856-4.2959 1.6701-.4735 3.3403-.9471 5.0104-1.4206.8616-.1734 1.7233-.3469 2.5569-.5147.0367-.4014.1063-.6317.0703-.8442-1.6692-9.8542-3.3201-19.7115-5.0337-29.558-1.3547-7.7845-3.9307-15.1974-7.0212-22.4443-.1909-.3174-.3817-.6348-.5727-.9521l.0251-.0063c-1.5251-2.7008-3.0703-5.3904-4.5718-8.1042-6.1388-11.0949-15.4558-18.476-27.0548-23.1995-.1426-.025-.2851-.0501-.4277-.0751-.1362-.0572-.2781-.0849-.4258-.083-.3027-.191-.6054-.3816-.9081-.5721zm5.8314 116.9005c.2954 1.4985.7706 3.0592 2.7183 2.2504 4.6455-1.9292 9.2111-4.0506 13.809-6.0945 1.3456-.4851 2.7286-.8866 4.0308-1.469 8.7245-3.9015 17.4317-7.8414 26.1446-11.7689 2.782-.7884 5.5639-1.5768 8.3756-2.3737-2.2863-5.7421-3.2981-5.273-7.1448-3.4219-.2031.0977-.4356.1327-.6451.2194-12.1006 5.0094-24.2003 10.0212-36.2999 15.0327-4.253 1.6141-8.5059 3.2281-12.9593 4.9182.8264 1.1352 1.3985 1.9212 1.9708 2.7073zm27.0249 23.0508c-2.4989.9086-4.7499 2.1634-6.3416 4.3694.7568-.0141 1.3923-.2137 1.9827-.5049 1.6182-.7981 3.2173-1.6347 4.824-2.4561.298-.0563.622-.0553.8902-.1771 10.1615-4.6162 20.3198-9.2395 30.4692-13.8821.5006-.229.9183-.6395 1.3745-.9655-12.1422 2.055-22.422 8.4314-33.199 13.6163zm-231.7412 53.7176c1.6875.8589 3.3749 1.7179 5.0624 2.5768 5.914 3.0316 11.8281 6.0632 17.7421 9.0948.9579.3139 2.0855 1.1194 2.8446.8574 3.481-1.2016 6.8589-2.7019 10.6524-4.2493-.9938-.4742-1.5261-.7283-2.0584-.9823-8.7751-6.5096-18.5204-11.3313-28.2247-16.2245-2.0376-1.0848-4.0752-2.1696-6.2221-3.3126-2.2858 3.1523-4.4645 6.157-6.747 9.3048 2.524 1.0657 4.7373 2.0003 6.9507 2.9349zm102.3218 10.26c-.2544-1.8275-.5088-3.6551-.7711-5.5396-6.1481 2.3106-6.5584 2.8691-5.9433 7.8242v18.287c.3126-.3989.5998-.6391.7261-.9456 1.9052-4.6234 3.9453-9.2009 5.5967-13.9142.6084-1.7365.2882-3.7983.3916-5.7118zm-21.3408-24.6991c-2.4427-1.6705-4.8855-3.341-7.3282-5.0114-2.9198-2.0355-5.8396-4.071-8.7593-6.1064.1374-.2166.2747-.4331.4121-.6497 5.0617 3.1631 10.1235 6.3262 15.1852 9.4893 1.0686.7091 2.1372 1.4182 3.2057 2.1273 1.996-.7166 3.992-1.4332 5.988-2.1498 1.1045-.462 2.209-.9239 3.7171-1.5547-2.2102-1.3593-4.0283-2.5138-5.9004-3.5727-.1869-.1057-.7025.3699-1.0656.5757-.3533-.0655-.756-.0434-1.0523-.2102-2.6122-1.4705-5.1008-3.2109-7.8267-4.4184-5.3476-2.3689-10.9477-3.9233-17.127-4.1573.3065.425.51.6247.6101.867.1232.2982.1603.632.2577 1.0494-5.2885-3.162-10.749-3.0736-16.5304-1.6092 5.2787 3.3206 10.5574 6.6411 15.8361 9.9616 1.0905.791 2.1542 1.6225 3.2765 2.3654 3.5567 2.3543 7.1353 4.6756 10.7055 7.0096 3.0622.226 5.4855-1.1949 8.2202-2.9551-.8473-.4878-1.3358-.7691-1.8243-1.0504zm75.3258-25.2315c-.3697.1679-.7395.3358-1.1092.5038-.2942.0713-.607.1-.8798.2198-16.3246 7.1691-32.6961 14.2346-48.9485 21.564-9.4632 4.2676-18.7353 8.9592-28.0934 13.46-8.3693 3.8094-16.7387 7.6189-25.108 11.4283-.3584.1343-.7168.2686-1.0751.403-.2647.1359-.5294.2719-.7941.4077-2.7157 1.1202-5.442 2.2153-8.1449 3.3654-7.0844 3.0145-14.1612 6.0467-21.2331 9.0904-.7692.3311-2.0134.5655-.7444 1.7893.6341 1.3757 1.2682 2.7515 1.9023 4.1272.8373 2.3089 1.6746 4.6178 2.6001 7.17 10.3869-4.7805 20.548-9.3871 30.6482-14.1235 12.5148-5.8686 24.8974-12.0251 37.487-17.7263 14.1075-6.3885 28.447-12.2637 42.5699-18.6192 22.8546-10.2848 45.5829-20.8503 68.4408-31.1278 4.8032-2.1597 9.9387-3.579 14.9153-5.3556 1.1884-.4242 2.4078-.8104 3.5178-1.395 2.0119-1.0595 3.866-2.451 5.9365-3.3617 13.264-5.8339 26.547-11.6262 39.8694-17.3254 7.1191-3.0455 14.3174-5.9076 21.503-8.7951 4.7398-1.9047 4.0016-1.5033 3.8149-5.8511.6615-2.7292-.394-4.6078-2.8402-5.8406-.593-.2989-1.1132-.7421-1.6669-1.119-2.8569-2.6896-2.8215-2.6176-6.3878-.8657-3.9497 1.9402-7.9339 3.8215-11.9755 5.5601-3.5777 1.5391-6.8276 3.3353-8.257 7.2635-1.3274 1.4299-2.4454 3.1655-4.0154 4.2413-12.3597 8.4694-25.7546 14.6233-40.5084 17.6198-.8147.1655-1.6274.3411-2.441.5121-.844-.125-1.6989-.3985-2.5291-.3372-1.0179.0751-2.0152.43-3.0214.664-11.6301 4.8414-23.2693 9.6613-34.8868 14.5329-6.2166 2.6068-12.3958 5.3026-18.5919 7.9583zm84.5751.1229c-5.8409 2.3169-11.6819 4.6338-17.5228 6.9507.0628.3571.1257.7142.1885 1.0713 2.0667.1846 4.3427 1.0142 6.1581.4249 4.298-1.3952 8.3772-3.4643 12.5449-5.261.2941-.0675.609-.0884.8794-.2091 9.0041-4.0188 18.0041-8.0471 27.0045-12.074.724-.1797 1.4411-.3964 2.1733-.532 2.0099-.3723 2.6638-1.6238 2.434-3.8267-1.655.7259-3.1431 1.3786-4.6313 2.0313-.3012.0173-.6335-.0431-.8992.0631-9.447 3.7775-18.8878 7.5706-28.3294 11.3615zm-16.8525-35.4009 26.5245-11.571c2.1291-.8005 4.3022-1.5027 6.3755-2.4283 2.2329-.9968 2.9922-2.8986 2.3445-5.6291-3.1205 1.4525-6.1993 2.8856-9.2782 4.3187-9.1562 3.9146-18.3124 7.8293-27.4686 11.7439-5.1727 1.9434-10.3455 3.8868-15.5182 5.8302.0414.2262.0829.4525.1243.6787 1.8416.8568 2.8689 3.6043 5.6047 2.367 3.7893-1.7138 7.53-3.5349 11.2915-5.3101zm11.873 27.0151c2.7566-1.026 5.5413-1.9831 8.2646-3.091 7.7598-3.1568 15.4947-6.375 23.2393-9.569 1.7264-.5822 3.4528-1.1644 5.2736-1.7784-2.8126-4.2169-3.7068-4.4856-7.8291-2.5825-.6126.2828-1.1803.6629-1.7689.998-9.3735 4.363-18.747 8.7261-28.1205 13.0891-4.3868 1.8433-8.7731 3.6879-13.1607 5.5292-1.8681.784-2.7816 2.154-2.6917 4.5559 5.7312-2.4406 11.2623-4.7959 16.7934-7.1513zm-28.7669-35.2127c14.8788-6.2959 29.7575-12.5918 44.6362-18.8877-.0474-.2442-.0948-.4883-.1422-.7325-2.4897.3175-5.1152.2365-7.4431 1.0294-6.2328 2.123-12.431 4.4062-18.4689 7.0269-6.652 2.8873-13.1101 6.2212-19.6527 9.3606-1.0312.4408-2.045.9299-3.0976 1.3116-1.782.6462-1.6622 1.6157-.3908 3.0724 1.491-.7131 3.025-1.447 4.5591-2.1807zm30.574 37.3391c-6.3306 2.3656-12.6612 4.7312-19.1203 7.1448.626 1.3163 1.0921 2.2631 1.5287 3.2233.4828 1.0616 1.1093 1.4629 2.321.9303 5.6759-2.4949 11.3818-4.9217 17.0769-7.3729 10.2261-4.0601 20.4523-8.1202 30.6784-12.1802 1.6476-.4008 3.2953-.8015 4.9954-1.2151-.4604-1.9427-.8389-3.5393-1.2847-5.4203-1.8912.9809-3.6099 1.8724-5.3286 2.7638-1.0123.2802-2.0628.4657-3.031.8553-9.2865 3.7374-18.5592 7.5092-27.8358 11.271zm-205.307 88.0534c.5567-2.2953 1.1134-4.5907 1.717-7.0794-5.1004 1.2515-6.3631 2.166-7.4824 5.0673-2.4777 6.4224-4.9603 12.8431-7.4768 19.2504-1.6079 4.0939 1.8977 10.6588 6.424 11.7537 1.0589-4.9573 2.1173-9.9124 3.1756-14.8676 1.2143-4.7081 2.4285-9.4162 3.6426-14.1244zm10.6964-5.973c.401-1.7027.8019-3.4055 1.2644-5.3694-1.9658.7572-3.5302 1.5927-5.1973 1.9522-3.2305.6967-4.1125 2.7975-3.9376 5.7271-1.6775 6.2392-3.355 12.4785-5.0324 18.7177-1.0519 4.5729-2.125 9.1412-3.1422 13.7219-.2907 1.309.0487 2.4977 1.4341 2.98 3.2651 1.1367 6.5454 2.238 9.8646 3.1982.3625.1049 1.4389-.7746 1.4738-1.2495.3665-4.9957.5884-10.0019.8503-15.0052.8074-8.2244 1.6148-16.4487 2.4223-24.673zm28.7494-46.4499c-5.6127-3.7113-11.2254-7.4227-16.8382-11.134-3.833-2.7007-7.6471-5.4291-11.5177-8.0748-.6433-.4397-1.5772-.821-2.3019-.7154-4.6668.68-9.3128 1.503-13.9657 2.279-.0222.2018-.0445.4035-.0667.6053 3.4365 2.0231 6.873 4.0461 10.3096 6.0692 5.9483 3.7737 11.8789 7.5758 17.8532 11.3078 2.5516 1.594 5.1946 3.0417 7.796 4.5559.7848-.0008 1.6721.2387 2.3365-.0446 2.6764-1.1413 5.2839-2.4442 8.1957-3.819-.7887-.4508-1.2947-.7401-1.8008-1.0294zm11.7964 28.6667c.0437 9.8195.0874 19.6389.131 29.4584.2368.0073.4736.0146.7103.0218 2.2727-3.2096 4.811-6.2697 6.7298-9.6785 1.4105-2.5058 2.6205-5.4207 2.8388-8.237.4021-5.1893.0093-10.4402-.0522-15.6653 0-2.0874 0-4.1748 0-6.5152-2.3401 1.0387-4.481 1.9643-6.6011 2.9352-4.1028 1.8791-4.6705 3.0614-3.7566 7.6806zm-28.2345 12.769c.144-1.6313.2879-3.2626.4649-5.2679-2.5112 1.0787-4.6186 2.0648-6.7856 2.8955-3.0638 1.1745-3.6597 1.9237-3.6946 5.1359-.4095 3.2289-.9016 6.4498-1.2106 9.6883-.5767 6.0428-1.0471 12.0958-1.5618 18.1445-.427 5.0226-.8541 10.0452-1.3026 15.3196 4.939-.2797 9.1968-1.46 13.2198-3.4534.507-.2513.9227-1.2107.9336-1.8496.0489-2.8755-.0634-5.7537-.1176-8.6309.0182-10.6606.0364-21.3213.0545-31.982zm-22.4126-53.0254c-1.3806-1.0447-2.7923-2.0512-4.1346-3.1431-1.9753-1.6069-4.2238-2.2688-6.5819-1.3549-2.5249.9786-4.9102 2.3221-7.3388 3.5415-.7347.369-1.4107.8549-2.4558 1.4977 3.0093 1.4113 5.5377 2.5971 8.0661 3.7829 9.8633 5.9935 19.7223 11.994 29.6026 17.9592.4784.2888 1.2596.5374 1.7041.3472 3.3543-1.4349 6.6595-2.9844 10.2627-4.6269-10.0157-6.1914-19.5701-12.0975-29.1244-18.0036zm-15.1459 5.0575c-1.737-1.0456-3.4164-2.2121-5.2381-3.0798-.7708-.3671-2.0952-.4886-2.7315-.0654-3.0456 2.0257-5.9416 4.2764-9.2905 6.7413 2.7298 1.0855 4.9498 1.9683 7.1698 2.8511 2.4962 1.4199 5.012 2.8064 7.4848 4.2659 7.108 4.1955 14.1987 8.4205 21.2961 12.6339.6377.1543 1.4023.6164 1.8931.4141 3.9239-1.617 7.7959-3.3597 12.0088-5.2064-1.034-.4579-1.71-.7571-2.3859-1.0564-10.0689-5.8327-20.1377-11.6655-30.2066-17.4983zm39.4235 46.1834c-.0358 11.2618-.0715 22.5236-.1073 33.7854v9.6795c3.6342-2.5298 6.9077-4.7343 10.0761-7.0807.5883-.4357.7537-1.4426 1.1143-2.1859.0597-12.6275.1195-25.2549.1792-37.8823 0-1.8644 0-3.7288 0-5.9247-2.8247 1.3515-5.4719 2.5815-8.0862 3.8778-3.473 1.7219-3.5277 1.8628-3.1761 5.7309zm24.684-10.1136c.1106-1.9111.2212-3.8223.3548-6.1309-3.3473 1.5952-6.2541 2.9898-9.1691 4.3672-3.9335 1.8587-4.222 2.4729-3.1501 6.8366-.155 1.03-.4434 2.0599-.4441 3.0901-.0067 9.5102.0144 19.0205.0805 28.5305.0164 2.3626.2255 4.7239.346 7.0858.2713.1508.5426.3017.814.4525 2.4609-2.6766 4.7966-5.4837 7.4143-7.9969 3.3081-3.176 4.801-6.5564 4.3736-11.4308-.7212-8.2229-.4651-16.5315-.6199-24.8041zm-2.7812-237.0399c1.2189-1.0028 2.4378-2.0056 3.7293-3.0682-2.9097-2.7044-3.7836-5.5866-3.6005-8.7138.1542-2.633.7671-5.2357 1.0691-7.8643.4042-3.5188 1.1096-7.066.9679-10.572-.3313-8.1984-7.1479-15.8926-14.5698-16.9876-3.4163-.8464-6.7536-.5539-10.0245.6956-4.7265 1.8972-7.8835 5.4861-10.5039 9.6794-3.9454 6.3137-3.1906 13.2042-1.9396 19.9071.7052 3.7786 2.6562 7.367 4.311 10.9176 3.922 8.4155 9.8544 15.0484 18.0277 19.5836 3.7778 2.0962 3.8255 2.0852 5.4631-1.8459.2892-.6942.4755-1.4313.7093-2.1487 2.1203-3.1942 4.2406-6.3885 6.3609-9.5828zm271.3288 108.218c.4135-2.2385.9457-4.465 1.1729-6.7222.0748-.7438-.4378-1.7876-1.0225-2.3203-7.1624-6.5259-15.3059-11.521-24.4034-14.8196-9.5009-3.4448-19.235-4.6539-29.0141-1.2409-4.7599 1.6612-9.2563 3.9649-11.3851 9.0747-3.0433 4.3674-3.1937 9-1.1595 13.7735 2.0483 4.8067 4.5534 9.2455 9.92 11.107.8461.7576 1.7977 1.4293 2.5052 2.2996.5786.7116 1.1425 1.6317 1.2321 2.5086.3085 3.0186.2027 6.0881.6339 9.0836.582 4.0425 1.0725 8.1861 2.3858 12.0178 3.1917 9.312 10.3374 12.8451 19.8123 10.2995 6.4239-1.726 11.3426-5.7406 15.6282-10.5745 3.5338-3.9859 6.4817-8.3917 8.1923-13.5143.0638-.3686.0262-.7987.2065-1.0968 3.699-6.1135 4.4842-12.9973 5.2954-19.8757zm-265.346 168.704c45.1081 29.6111 90.1503 59.4406 132.1192 93.7461 1.2226-2.7688 2.1641-5.6215 1.5581-8.8788-.9682-5.2036.1987-9.9922 3.5024-14.1447 3.1982-4.0197 7.0762-7.4088 9.4945-12.1529 5.2361-10.2721 11.0749-20.2359 16.36-30.4843 10.3637-20.0962 11.2271-41.0535 3.7703-62.0844-3.011-8.4922-8.1106-16.2567-12.3913-24.2822-4.1252-7.7341-8.1154-15.4806-8.8583-24.4429-.0443-.5339-.9128-1.2264-1.538-1.4463-2.8589-1.0053-5.8701-1.6328-8.636-2.8349-4.7561-2.0671-7.2865-5.8119-7.186-11.1154.0393-2.0739.1884-4.1457.2953-6.3847-.8936.3016-1.6317.4832-2.313.7904-32.1004 14.4734-64.1941 28.9615-96.2969 43.4295-1.6297.7345-2.3993 1.9019-2.6181 3.664-1.5286 12.3104-5.5374 23.8254-12.0276 34.3399-4.5805 7.4208-9.8296 14.429-15.2346 22.2816zm115.6237-148.3167c-1.4712-2.2881-3.0843-4.2632-4.1261-6.5038-6.6538-14.3113-13.0336-28.7514-19.801-43.008-4.9288-10.3831-11.4963-19.6613-20.3089-27.2084-8.2368-7.054-18.0113-11.0849-28.3729-13.3928-10.6575-2.3738-21.5016-3.9397-32.2974-5.6491-4.7669-.7548-9.6113-1.0462-14.4291-1.4461-3.8584-.3203-7.2422-1.7848-9.3411-4.9634-3.1459-4.7642-8.4851-5.457-12.9944-8.1769-.0901.691-.1398.9746-.1625 1.2603-1.0519 13.255-2.0404 26.5154-3.1681 39.7639-1.1794 13.8554-2.2241 27.7303-3.8094 41.5413-2.4089 20.9859-5.2858 41.9177-7.8474 62.8867-.7053 5.7731-.9968 11.5969-1.4876 17.5103.7022 0 1.2231.0492 1.7323-.0073 9.8143-1.0886 19.48-.1556 28.8142 2.9143 9.0746 2.9844 17.9839 6.4757 26.9358 9.8248 1.7561.657 3.2359.7869 4.962-.1968 2.5643-1.4615 5.2494-2.7421 7.9706-3.8927 24.1142-10.1965 48.2423-20.36 72.3792-30.5028 6.3391-2.6638 12.7227-5.2215 18.7321-7.683-2.6484-5.243-5.2255-10.2895-7.7494-15.3625-1.4801-2.975-1.0436-4.239 1.8433-5.9789.8422-.5078 1.6273-1.1101 2.5258-1.7291zm-209.1881 101.7798c1.5932 5.2111 4.9122 7.9516 9.6391 8.4356 4.2544.4357 8.5886.0919 12.8718.0919.4163-3.4115.4166-3.4128-2.5272-4.0595-1.1855-.2605-2.3745-.5052-3.5588-.7712-5.3162-1.1937-10.6313-2.3924-16.4249-3.6968zm34.4043 26.0175c-6.5952-.7742-11.4888 13.8499-8.0607 21.6765 2.7814-7.4795 5.4116-14.5527 8.0607-21.6765zm225.7209-122.736c-10.0858 4.0077-20.1909 7.9728-29.6303 13.3996 10.7326-2.5875 20.3591-7.6036 29.6303-13.3996zm19.2481 38.6163c-.1083-.2444-.2166-.4888-.3248-.7332-9.8837 4.3347-19.7673 8.6694-29.651 13.0042.1375.3104.275.6209.4125.9313 10.013-4.0434 20.4846-7.0533 29.5633-13.2023zm-15.5455 183.8632c.461-4.7932-8.6179-11.3889-12.5662-10.1087 4.0411 3.2508 8.3221 6.6945 12.5662 10.1087zm-150.0733-135.6041c-2.9373 1.7535-3.2515 3.9524-1.3376 8.1771.4667-2.8536.8715-5.3277 1.3376-8.1771z" fill="#381513"/><path d="m327.433 409.6991c-3.7441-.4196-7.4883-.8392-11.4961-1.2883.5266-.7415 1.1217-1.5576 1.6942-2.3892 8.6052-12.4998 16.1924-25.5744 21.6414-39.7701 4.0545-10.5626 4.4901-21.6313 3.9817-32.8152-.5604-12.3281-4.2757-23.6849-9.9377-34.5199-4.3922-8.4053-8.8855-16.764-13.0121-25.299-1.7209-3.5592-2.6073-7.5217-3.8592-11.2592 5.938-1.7545 11.3737-3.3605 16.81-4.9664 1.7286 1.7408 3.5681 3.3858 5.1607 5.2426 2.9531 3.4432 5.6296 7.1296 8.6648 10.4951 3.7303 4.1364 6.5393 8.7986 8.6701 13.8871 1.5165 3.6214 2.9727 7.2794 4.2155 11.0013 1.4785 4.4277 3.0514 8.8725 3.945 13.4349 1.1572 5.908 1.8807 11.9219 2.4176 17.9236.4062 4.5415.5572 9.1613.2007 13.6974-.2668 3.3948-1.2122 6.8281-2.4109 10.0366-1.8317 4.903-3.9904 9.7016-6.2983 14.4033-1.8176 3.7029-3.9894 7.2418-6.149 10.7645-2.6736 4.3611-5.4472 8.6635-8.2782 12.9245-1.2936 1.9471-2.757 3.7945-4.2711 5.5789-1.9409 2.2875-4.0083 4.4678-6.0251 6.6908-1.8851 2.078-3.7757 4.1513-5.664 6.2267z" fill="#e68e00"/><path d="m316.4931 181.6026c-3.7952 1.432-7.5905 2.864-11.3861 4.2961-.3383-1.8551-.5119-3.7591-1.0465-5.5558-1.3223-4.4443-2.5231-8.959-4.3009-13.2253-2.4243-5.8176-5.0217-11.6115-8.1342-17.0801-3.0012-5.273-6.556-10.2683-10.2341-15.107-2.948-3.8782-6.0032-7.9066-9.7963-10.8593-6.5832-5.1246-13.7448-9.5129-20.7286-14.1115-1.8211-1.1991-3.8149-2.2039-5.8456-3.0027-4.3363-1.7058-8.7246-3.2894-13.1376-4.7875-3.4253-1.1628-6.8923-2.2276-10.3917-3.141-4.2254-1.1028-8.4721-2.183-12.7679-2.9433-6.6007-1.1683-13.2572-2.018-19.8779-3.0783-3.179-.5091-6.3303-1.1908-9.4942-1.7944.6011-.6203 1.2023-1.2407 1.8033-1.8609 3.221.1644 6.4421.3287 9.6631.4929.737.1477 1.4704.4017 2.2115.426 5.5097.1807 11.021.3157 16.5317.4651 1.6796.1379 3.3591.2759 5.0387.4138 2.3932.3199 4.779.8317 7.1808.9233 6.89.263 13.7865.3558 20.6805.5155 3.1159.1501 6.2377.2256 9.3457.4743 2.3771.1902 4.7367.5994 7.104.9111 0 0 .2075.0063.2075.0063l.2075-.0054c.1633.1347.3266.2694.4899.4041 4.5108.6191 8.8497 1.7672 12.7852 4.156.3077.1517.6153.3034.923.455l-.0074-.0032c1.8178 1.2196 3.6356 2.4392 5.4534 3.6588.9322.7549 1.7778 1.6653 2.8102 2.2402 9.1434 5.0918 14.8857 13.2669 20.0656 21.9653.1539.4608.3079.9215.4619 1.3823l-.0056-.0038c1.1529 3.1644 1.9688 6.5062 3.5239 9.4587 4.1034 7.7907 5.8798 16.2688 7.869 24.6981.4485 1.9003.6794 3.855.9537 5.7927.6334 4.4722 1.232 8.949 1.8445 13.4239z" fill="#f9ac30"/><path d="m373.8702 186.8889c-5.3666-1.8615-7.8717-6.3002-9.92-11.107-2.0342-4.7736-1.8839-9.4062 1.16-13.7736 1.9209-.3763 3.891-.5897 5.7533-1.1569 8.3981-2.5579 16.9374-3.027 25.5716-1.771 9.5187 1.3847 16.9666 6.9131 24.3863 12.466 2.948 2.2063 5.9584 4.3293 8.9404 6.4902-.8112 6.8784-1.5964 13.7622-5.2952 19.8755-.1804.2981-.1427.7282-.2064 1.0972-.6118.5164-1.2859.975-1.8253 1.5581-2.7597 2.9827-5.1152 6.502-8.3286 8.8554-3.0468 2.2315-6.9598 3.3005-10.5292 4.7916-2.7247 1.1382-5.5458.9236-8.1617-.2306-2.3463-1.0353-4.572-2.3856-6.7429-3.7666-2.9165-1.8554-4.6519-4.466-4.6943-8.0733-.031-2.634-.2256-5.2658-.3308-7.8993-.2074-5.1949-5.5905-9.2493-9.7772-7.3557z" fill="#d62d3d"/><path d="m327.433 409.6991c1.8883-2.0754 3.7788-4.1487 5.6642-6.2267 2.0168-2.223 4.0841-4.4033 6.0251-6.6908 1.514-1.7844 2.9774-3.6318 4.2711-5.5789 2.831-4.2609 5.6046-8.5633 8.2782-12.9245 2.1596-3.5227 4.3314-7.0616 6.149-10.7645 2.3078-4.7016 4.4666-9.5002 6.2983-14.4033 1.1987-3.2086 2.1441-6.6418 2.4109-10.0366.3564-4.5361.2054-9.1559-.2007-13.6974-.5368-6.0017-1.2604-12.0156-2.4176-17.9236-.8936-4.5624-2.4666-9.0071-3.945-13.4349-1.2428-3.7219-2.699-7.3799-4.2155-11.0013-2.1308-5.0884-4.9398-9.7506-8.6701-13.8871-3.0352-3.3655-5.7116-7.0519-8.6648-10.4951-1.5926-1.8568-3.4321-3.5019-5.1607-5.2426 5.1633-2.2707 10.3271-4.5412 15.4907-6.8112.7914.6914 1.6185 1.346 2.3689 2.0791 4.3066 4.2074 8.5951 8.4333 12.8896 12.653 1.7266 1.8186 3.5837 3.5329 5.1438 5.4846 1.6259 2.0341 2.9652 4.2972 4.4297 6.4601-.0041.1252.0031.2497.0217.3735.1491.1611.2982.3222.4474.4833l-.015-.0124c.0017.1479.0172.2944.0466.4393 1.0495 2.1513 2.099 4.3025 3.1485 6.4538 1.2411 3.4799 2.4823 6.9599 3.7234 10.4398 1.0486 2.9051 2.0973 5.8102 3.1459 8.7153.1489 1.4185.5479 2.8639.3982 4.2502-.3951 3.6592-1.0401 7.2909-1.5635 10.9368-.6941 4.8357-1.3672 9.6743-2.0494 14.5117-1.2098 4.1145-2.4197 8.2291-3.6295 12.3436-.2923 1.387-.5847 2.774-.877 4.161 0 0 .041-.0421.0406-.042-.3104.633-.6205 1.2658-.9306 1.8986 0 0 .0275-.0745.0273-.0741-.1843.4196-.3683.8388-.5523 1.258-3.3938 5.4724-6.7866 10.9453-10.1815 16.4169-8.113 13.0761-16.2628 26.1297-24.3047 39.2493-1.3308 2.171-2.1912 4.6304-3.0464 6.4763-3.3017-1.9282-6.6482-3.8827-9.9948-5.8372z" fill="#f8ac30"/><path d="m179.3516 91.2124c3.1638.6036 6.3152 1.2853 9.4942 1.7944 6.6207 1.0603 13.2772 1.91 19.8779 3.0783 4.2958.7603 8.5425 1.8405 12.7679 2.9433 3.4994.9133 6.9664 1.9782 10.3917 3.141 4.413 1.4981 8.8013 3.0817 13.1376 4.7875 2.0306.7988 4.0245 1.8036 5.8456 3.0027 6.9838 4.5987 14.1454 8.9869 20.7286 14.1115 3.7931 2.9527 6.8483 6.9811 9.7963 10.8593 3.6781 4.8387 7.2329 9.834 10.2341 15.107 3.1125 5.4686 5.71 11.2624 8.1342 17.0801 1.7778 4.2663 2.9786 8.781 4.3009 13.2253.5346 1.7967.7082 3.7007 1.0465 5.5558-4.8851 2.2453-9.7755 4.4806-14.6536 6.7422-1.5659.726-3.0996 1.5215-5.0758 2.4962-4.7691-10.9196-9.4009-21.6297-14.1208-32.3008-4.3273-9.7836-8.2748-19.7443-14.0406-28.8444-5.0031-7.8962-10.9883-14.7233-18.5454-20.3793-11.5617-8.6532-24.6017-12.9713-38.698-14.6406-8.4385-.9993-16.9017-1.7897-25.8904-2.7302 1.9723-1.8825 3.6207-3.4559 5.2691-5.0293z" fill="#e58e00"/><path d="m372.6363 197.6751c.1868 4.3478.9249 3.9464-3.8149 5.8511-7.1856 2.8875-14.3839 5.7496-21.503 8.7951-13.3224 5.6992-26.6054 11.4915-39.8694 17.3254-2.0705.9106-3.9246 2.3022-5.9365 3.3617-1.1099.5845-2.3294.9707-3.5178 1.395-4.9766 1.7766-10.1121 3.1959-14.9153 5.3556-22.8579 10.2774-45.5862 20.8429-68.4408 31.1278-14.1229 6.3555-28.4625 12.2307-42.5699 18.6192-12.5896 5.7012-24.9722 11.8577-37.487 17.7263-10.1002 4.7363-20.2613 9.3429-30.6482 14.1235-.9255-2.5522-1.7628-4.8611-2.6001-7.17 4.2926-1.6956 8.6376-3.2711 12.8644-5.1173 5.12-2.2364 10.1084-4.7724 15.2112-7.0502 6.5986-2.9456 13.2894-5.6855 19.8735-8.6623 5.1919-2.3474 10.2614-4.964 15.4242-7.378 4.8479-2.2668 9.7515-4.4144 14.6217-6.6339 3.8326-1.7466 7.6147-3.6095 11.4859-5.265 5.3884-2.3043 10.8397-4.4616 16.2629-6.6848 4.5759-1.8759 9.14-3.7812 13.728-5.6274 4.4487-1.7902 8.9622-3.4249 13.3728-5.3029 5.7276-2.4388 11.3556-5.1108 17.0744-7.571 5.8085-2.4987 11.707-4.7885 17.508-7.3041 6.3629-2.7592 12.6583-5.6737 18.9848-8.5169 5.9083-2.6552 11.827-5.2878 17.7259-7.9637 5.004-2.2699 9.9315-4.7178 14.9915-6.853 7.4323-3.1362 14.945-6.0825 22.4389-9.071 2.8651-1.1426 5.7558-2.2269 8.6657-3.2497 3.0369-1.0673 6.1683-1.8844 9.1549-3.0713 4.0232-1.5989 7.9474-3.447 11.9142-5.1882z" fill="#e48d01"/><path d="m372.6363 197.6751c-3.9667 1.7412-7.891 3.5893-11.9142 5.1882-2.9866 1.1869-6.118 2.004-9.1549 3.0713-2.91 1.0228-5.8006 2.1071-8.6657 3.2497-7.4939 2.9885-15.0067 5.9348-22.4389 9.071-5.06 2.1352-9.9875 4.5831-14.9915 6.853-5.8989 2.6759-11.8176 5.3085-17.7259 7.9637-6.3265 2.8432-12.622 5.7577-18.9848 8.5169-5.8009 2.5155-11.6995 4.8053-17.508 7.3041-5.7188 2.4602-11.3468 5.1322-17.0744 7.571-4.4105 1.878-8.924 3.5128-13.3728 5.3029-4.5879 1.8462-9.152 3.7514-13.728 5.6274-5.4232 2.2232-10.8745 4.3805-16.2629 6.6848-3.8712 1.6555-7.6533 3.5183-11.4859 5.265-4.8702 2.2195-9.7737 4.3671-14.6217 6.6339-5.1627 2.414-10.2322 5.0306-15.4242 7.378-6.5841 2.9768-13.2749 5.7167-19.8735 8.6623-5.1028 2.2778-10.0912 4.8138-15.2112 7.0502-4.2268 1.8463-8.5718 3.4218-12.8644 5.1173-.6341-1.3757-1.2682-2.7514-1.9022-4.127.9122-.3012 1.804-.7312 2.7404-.8791 2.5285-.3995 5.187.0984 7.5036-1.6326 1.1012-.8228 2.6093-1.1011 3.9331-1.626.3071-.2837.6141-.5673.9212-.8509 0 0-.0073.007-.0073.007.1522.0007.3041-.005.4558-.0172.3022-.14.6043-.2801.9065-.4202 3.9024-1.7498 8.4077-1.9887 11.9048-4.7725.5247-.4177 1.1893-.6701 1.8087-.9565 9.6316-4.4536 19.287-8.8566 28.8902-13.3707 3.6889-1.734 7.2607-3.7175 10.8858-5.5874.4456-.1628.8912-.3254 1.3368-.4881.6149-.3001 1.2299-.6003 1.8448-.9005l2.2707-.9276c.1659-.1483.3318-.2965.4977-.4448l.2086.0017s.2081-.0136.2081-.0137c.1638-.1488.3276-.2977.4913-.4465.7828-.2498 1.5924-.437 2.3442-.7592 7.6515-3.2789 15.2933-6.5806 22.9383-9.8745 6.4629-2.7846 12.9642-5.4837 19.3809-8.371 9.5181-4.2829 18.979-8.693 28.4591-13.06 4.8693-2.2431 9.7276-4.5102 14.5908-6.7665.3015-.1483.603-.2965.9045-.4448.6196-.308 1.2392-.6159 1.8588-.9238.8471-.2838 1.7159-.5158 2.5378-.8599 4.9347-2.0658 9.813-4.2777 14.8116-6.1732 1.6939-.6424 3.7023-.4052 5.5307-.7577 1.6771-.3234 3.3053-.8998 4.9551-1.3647 0-.777 0-1.554.0001-2.331.8136-.1709 1.6263-.3465 2.441-.5119 14.7538-2.9965 28.1487-9.1504 40.5084-17.6198 1.57-1.0759 2.688-2.8114 4.0154-4.2413 8.131-3.0521 16.2846-6.0472 24.3634-9.2319.9611-.3789 1.5145-1.7922 2.2568-2.7261.5537.3768 1.0739.8201 1.6669 1.119 2.4464 1.2324 3.5019 3.1111 2.8405 5.8402z" fill="#f8ac2f"/><path d="m313.3114 436.1689c1.6768.2897 3.3537.5795 5.0307.8693-.5979 1.374-1.312 2.713-1.7397 4.138-.1842.6136.0263 1.5431.4047 2.088.8552 1.2314 1.7643 2.5269 2.9391 3.4164 3.9536 2.9932 7.9922 5.8799 12.087 8.6776 1.3865.9473 3.0367 1.5088 4.5664 2.2466 1.0245.2267 2.0716.3818 3.0683.6965 1.5789.4985 3.1241 1.1037 4.6836 1.6638l-.0107-.0075c.3071.1494.6142.2988.9214.4482 2.9874 1.6714 5.9748 3.3429 8.9622 5.0143 1.1154 3.3612 1.1264 6.796-.1636 10.0246-2.2607 5.6579-5.2466 10.8118-11.586 12.8627-3.5948-1.3629-7.3311-2.4459-10.7469-4.1653-3.554-1.789-6.7606-4.2621-8.8763-7.787-1.7386-2.8965-3.5354-5.7856-4.9455-8.8444-1.4613-3.1699-2.8969-6.4551-3.6007-9.8443-.8555-4.1192-1.0846-8.3922-1.2973-12.6132-.1486-2.949.1851-5.922.3033-8.8843z" fill="#f8ac30"/><path d="m214.5999 91.1494c-1.6796-.1379-3.3591-.2759-5.0388-.4136-.9253-.4494-1.8198-1.1974-2.7813-1.2967-4.0556-.4189-8.1298-.6664-12.2003-.9287-1.4155-.0912-2.9649-.3932-3.7616 1.334-3.2211-.1642-6.4422-.3285-9.6632-.4929 1.4245-2.4035 2.776-4.8555 4.3211-7.1786.4247-.6386 1.4624-1.3139 2.1613-1.2577 7.7712.6254 15.531 1.3912 23.294 2.1191 5.1561 2.2714 10.4486 3.7206 16.1738 2.6172-2.9603-.8883-5.9207-1.7766-8.8811-2.665 4.2319-.1174 8.472-.4599 12.6943-.3076 10.3274.3726 20.5437 1.6911 30.532 4.4486 1.6662.46 3.2673 1.1556 4.8984 1.7423-4.4888-.5234-8.9797-1.0284-13.4654-1.5762-3.4518-.4216-6.8971-.897-10.3453-1.3485-.0387.2135-.0774.427-.1161.6404.467.1695.922.3918 1.4027.5004 6.6971 1.5129 13.376 3.1184 20.1051 4.4744 4.7172.9506 9.5041 1.5555 14.2599 2.3148 0 0-.0495-.0466-.0494-.0461.3027.1908.6054.381.9081.5712.1477-.0019.2896.0257.4258.083.1426.025.2851.0501.4276.0751 11.599 4.7235 20.916 12.1046 27.0548 23.1995 1.5016 2.7138 3.0467 5.4034 4.5717 8.1042-.5664-.0596-1.1327-.1191-1.8329-.1928.0398.4618.0068.767.0974 1.0296 2.2418 6.5001 4.5557 12.9761 6.7238 19.5006 1.0418 3.1353 2.0958 6.313 2.6408 9.5561.8357 4.9722 1.3032 10.0108 1.7974 15.034.3069 3.1186.3743 6.2607.5491 9.3922-1.6701.4735-3.3403.9471-5.0104 1.4206-.6125-4.4749-1.211-8.9517-1.8443-13.4236-.2744-1.9377-.5052-3.8924-.9537-5.7927-1.9893-8.4293-3.7656-16.9074-7.869-24.6981-1.5551-2.9525-2.371-6.2943-3.5238-9.4587.6912.926 1.588 1.7623 2.0374 2.7936 1.8782 4.3103 3.7612 8.6284 5.375 13.0413 1.5266 4.1744 2.9108 8.422 4.0123 12.7257 1.5909 6.2162 2.8548 12.5156 4.3013 18.7696.1866.8065.6303 1.5535.9549 2.328.1926-.0458.3852-.0916.5778-.1375 0-1.166.1812-2.3671-.0362-3.4911-.5162-2.6695-1.0964-5.3397-1.8708-7.9441-3.815-12.8295-6.1609-26.1322-12.1451-38.2662-2.9328-5.9466-5.189-12.2577-10.6267-16.7252-4.7958-3.9401-9.5543-7.7086-15.912-8.6783-1.8178-1.2196-3.6356-2.4392-5.4533-3.6589 4.7947 1.7871 9.8418 3.0996 14.3207 5.4807 5.7036 3.0321 10.9513 7.0685 14.1331 12.875 2.7565 5.0303 4.8558 10.4241 7.1827 15.6851 1.2674 2.8656 2.404 5.7892 3.5995 8.6866.2114-.0766.4228-.1532.6342-.2298-.3273-1.0383-.62-2.089-.9879-3.1127-1.6149-4.4931-3.1573-9.0157-4.9111-13.4545-1.3285-3.3624-2.7322-6.7261-4.4637-9.8917-3.3939-6.2048-9.1892-9.9522-14.8715-13.7326-4.3611-2.9014-8.7885-5.669-14.1816-6.3791-3.8142-.5022-7.6236-1.1353-11.3788-1.9649-3.5429-.7827-6.9886-1.9986-10.5222-2.8329-2.3797-.5619-4.8379-.7915-7.261-1.1698.4155.5987.9053.7519 1.3935.9101 4.2363 1.3721 8.4723 2.745 12.7084 4.1176-2.3673-.3118-4.7269-.7209-7.104-.9111-3.108-.2487-6.2298-.3243-9.3458-.4743-.7574-.3063-1.4989-.6614-2.2744-.9111-7.1519-2.3033-14.6747-1.067-21.9461-2.2729-1.4271-.2367-2.8935-.236-4.5296-.3588.3768.893.6326 1.4987.8885 2.1044zm1.9321-3.767c-3.4612-1.6514-7.0544-2.3555-10.8407-1.6672 3.3336 2.37 6.9915 2.6466 10.8407 1.6672zm96.7155 56.6975c1.3061 4.8429 2.6121 9.6857 4.0152 14.8882 1.0832-3.13-.9376-11.2722-4.0152-14.8882zm-119.884-57.6479c-.0178.2494-.0356.4988-.0535.7482h9.806c-3.3721-2.0638-6.5495-1.6113-9.7525-.7482z" fill="#f1e53c"/><path d="m136.0045 23.3085c3.2709-1.2495 6.6082-1.5421 10.0245-.6955.9274 2.4635 1.8548 4.9268 2.7822 7.3902.1411.1523.2822.3046.4233.4569l-.0155-.0126c.2992 1.9619.5983 3.9238.8975 5.8858-.2325.2389-.6773.4886-.6658.715.2095 4.1268.3775 8.26.7713 12.371.1712 1.7871.8304 3.5274 1.268 5.289.3256 1.1981.6511 2.3962.9767 3.5943 2.0547 3.8046 2.6853 8.347 5.9664 11.5162-2.1203 3.1943-4.2406 6.3886-6.361 9.5828-2.7852-2.5591-6.0242-4.7829-8.23-7.7698-2.2773-3.0838-3.9953-6.7711-5.1381-10.4492-1.1703-3.7664-1.6385-7.8232-1.8878-11.786-.3493-5.5541-.467-11.1517-.1844-16.7054.1629-3.2031.5301-6.3122-.6273-9.3827z" fill="#f8ac30"/><path d="m136.0045 23.3085c1.1574 3.0705.7903 6.1796.6273 9.3826-.2826 5.5536-.1649 11.1513.1844 16.7054.2493 3.9628.7175 8.0196 1.8878 11.786 1.1428 3.678 2.8608 7.3654 5.1381 10.4492 2.2058 2.9869 5.4448 5.2107 8.23 7.7698-.2339.7174-.4202 1.4545-.7094 2.1488-1.6376 3.9311-1.6853 3.9421-5.4631 1.8459-8.1733-4.5352-14.1057-11.1681-18.0277-19.5836-1.6547-3.5506-3.6058-7.139-4.311-10.9176-1.251-6.703-2.0058-13.5934 1.9396-19.9071 2.6205-4.1933 5.7775-7.7822 10.504-9.6794z" fill="#e48d01"/><path d="m313.3114 436.1689c-.1182 2.9623-.4519 5.9354-.3033 8.8842.2127 4.221.4419 8.494 1.2973 12.6132.7038 3.3892 2.1393 6.6744 3.6007 9.8443 1.4101 3.0588 3.2069 5.9478 4.9455 8.8444 2.1157 3.5249 5.3223 5.998 8.8763 7.787 3.4159 1.7194 7.1521 2.8024 10.7469 4.1653-6.9863 3.1277-13.6829 3.3759-20.5321-.86-14.2798-8.8311-20.007-22.0653-20.0185-38.1645-.0026-3.5884 1.6561-7.1835 2.6057-10.7607.1259-.4741.5291-1.1741.8953-1.237 2.6154-.4496 5.2546-.7609 7.8862-1.1162z" fill="#e58e00"/><path d="m429.7618 178.0367c-2.982-2.1609-5.9924-4.2839-8.9404-6.4902-7.4197-5.5529-14.8676-11.0813-24.3863-12.466-8.6342-1.2561-17.1735-.7869-25.5716 1.771-1.8623.5672-3.8324.7805-5.7533 1.1569 2.1284-5.1097 6.6247-7.4134 11.3846-9.0746 9.7791-3.413 19.5132-2.2038 29.0141 1.2409 9.0974 3.2985 17.2409 8.2937 24.4034 14.8196.5847.5327 1.0973 1.5765 1.0225 2.3203-.2273 2.2571-.7596 4.4836-1.173 6.7221z" fill="#e65270"/><path d="m373.8702 186.8889c4.1867-1.8936 9.5698 2.1608 9.7773 7.3557.1052 2.6335.2998 5.2653.3308 7.8993.0424 3.6073 1.7778 6.2179 4.6943 8.0733 2.1709 1.3811 4.3966 2.7313 6.7429 3.7666 2.6159 1.1543 5.437 1.3688 8.1617.2306 3.5693-1.491 7.4824-2.5601 10.5292-4.7916 3.2133-2.3534 5.5689-5.8727 8.3286-8.8554.5395-.5831 1.2135-1.0417 1.8253-1.5581-1.7108 5.1223-4.6586 9.5281-8.1925 13.514-4.2856 4.8339-9.2043 8.8486-15.6282 10.5745-9.4749 2.5457-16.6205-.9875-19.8123-10.2995-1.3133-3.8317-1.8039-7.9753-2.3858-12.0178-.4313-2.9955-.3254-6.065-.6339-9.0836-.0896-.8768-.6535-1.7969-1.2321-2.5086-.7076-.8701-1.6592-1.5418-2.5053-2.2994z" fill="#b71a1c"/><path d="m161.2142 306.8586c.1548 8.2726-.1013 16.5812.6198 24.8041.4275 4.8744-1.0655 8.2548-4.3736 11.4308-2.6178 2.5132-4.9534 5.3203-7.4143 7.9969-.2713-.1508-.5426-.3017-.814-.4525-.1205-2.3619-.3295-4.7231-.346-7.0858-.0661-9.51-.0872-19.0203-.0805-28.5305.0007-1.0302.2891-2.0601.4441-3.0903.8427-.2843 1.7119-.508 2.5236-.863 3.1569-1.3806 6.2955-2.8029 9.4409-4.2097z" fill="#f3e1af"/><path d="m136.4228 350.7576c.0358-11.2618.0715-22.5236.1073-33.7856 1.0685-.3326 2.142-.6497 3.2046-1.0001 2.6885-.8866 5.3721-1.7882 8.0576-2.6838-.0597 12.6274-.1195 25.2549-.1792 37.8824-.4275.1471-.8662.4472-1.2807.417-3.3057-.2413-6.6069-.5452-9.9096-.8299z" fill="#f5e3b1"/><path d="m115.7973 294.1359c-7.0975-4.2134-14.1881-8.4384-21.2961-12.6339-2.4728-1.4595-4.9886-2.846-7.4848-4.2659 3.3634-2.1491 6.7269-4.2981 10.0903-6.4472 10.0689 5.8328 20.1377 11.6656 30.2063 17.4983-.7063.5354-1.3465 1.2098-2.1301 1.5818-3.1041 1.4737-6.2532 2.8528-9.3856 4.2669z" fill="#f3e1af"/><path d="m112.2526 265.7313c9.5544 5.9061 19.1087 11.8122 29.1245 18.0036-3.6032 1.6425-6.9084 3.192-10.2627 4.6269-.4445.1902-1.2258-.0583-1.7041-.3472-9.8803-5.9652-19.7393-11.9657-29.6024-17.9591 2.1373-.9746 4.2214-2.0996 6.4276-2.8788 1.9345-.6833 4.006-.9787 6.0171-1.4454z" fill="#f3e1af"/><path d="m121.8776 349.3531c.5146-6.0487.985-12.1017 1.5618-18.1445.3091-3.2385.8011-6.4594 1.2106-9.6883 1.1645-.2991 2.3345-.5785 3.4923-.9014 2.178-.6075 4.349-1.2401 6.5229-1.8622-.0182 10.6607-.0363 21.3214-.0545 31.9822-4.2444-.4618-8.4888-.9238-12.7331-1.3858z" fill="#f5e3b1"/><path d="m159.7458 270.7802c-5.0617-3.1631-10.1235-6.3262-15.1852-9.4893-.1374.2166-.2747.4331-.4121.6497 2.9198 2.0355 5.8396 4.071 8.7592 6.1064-.7791.1527-1.5679.474-2.3354.4295-3.5746-.2071-7.1433-.5154-10.7141-.7874-5.2787-3.3205-10.5574-6.6411-15.8361-9.9616 5.7814-1.4644 11.2419-1.5528 16.5304 1.6092-.0974-.4174-.1345-.7512-.2577-1.0494-.1001-.2423-.3036-.442-.6101-.867 6.1793.2339 11.7794 1.7883 17.127 4.1573 2.7258 1.2075 5.2144 2.9479 7.8267 4.4184.2963.1668.699.1447 1.0522.2102 1.0829 1.5172 2.1659 3.0344 3.2489 4.5516-1.996.7166-3.992 1.4332-5.9878 2.1498.6652-.5875 1.3301-1.175 2.4081-2.1273-2.2234-.0001-3.9187-.0001-5.614-.0001z" fill="#f3ead8"/><path d="m263.9455 237.9018c-4.8632 2.2563-9.7215 4.5235-14.5908 6.7665-9.4801 4.3671-18.941 8.7771-28.4591 13.06-6.4167 2.8873-12.918 5.5864-19.3809 8.371-7.6451 3.294-15.2868 6.5956-22.9383 9.8745-.7518.3222-1.5614.5093-2.3445.7592-.1639.1488-.3274.2977-.491.4466 0 0-.2081.0136-.2081.0136s-.2086-.0017-.209-.0017c-.166.1483-.3317.2965-.4973.4448-.7569.3092-1.5138.6184-2.2709.9275-.615.3002-1.2298.6004-1.8447.9006-.4456.1627-.8912.3254-1.3372.4879-.6673.0126-1.3828-.1285-1.9932.0638-3.63 1.1434-7.2357 2.3638-10.8496 3.5584 9.3581-4.5008 18.6302-9.1923 28.0934-13.46 16.2524-7.3294 32.6239-14.3949 48.9485-21.564.2728-.1198.5856-.1486.8803-.2199.3699-.168.7393-.3358 1.1088-.5037 0 0-.0469.0376-.0465.0379.6645-.0688 1.3842.0049 1.9843-.2287 7.301-2.8411 14.5725-5.7585 21.8826-8.5755 1.454-.5603 3.0387-.7813 4.5632-1.1588z" fill="#efd748"/><path d="m85.2734 278.5705c9.7042 4.8932 19.4496 9.7148 28.2245 16.2245-3.8129 1.4581-7.6257 2.9162-11.4384 4.3742-5.914-3.0316-11.8281-6.0632-17.7422-9.0948.0116-2.9454.0232-5.8908.0349-8.8362.307-.8893.6141-1.7785.9212-2.6677z" fill="#f3e1af"/><path d="m173.2575 301.8871c.0615 5.2252.4543 10.4761.0522 15.6653-.2182 2.8163-1.4283 5.7312-2.8388 8.237-1.9189 3.4088-4.4572 6.4689-6.7298 9.6785-.2368-.0073-.4736-.0146-.7103-.0218-.0437-9.8195-.0873-19.6389-.131-29.4584 3.4525-1.3669 6.9051-2.7338 10.3577-4.1006z" fill="#f3e1af"/><path d="m142.3719 282.214c-2.6014-1.5142-5.2444-2.962-7.796-4.556-5.9743-3.732-11.9049-7.5341-17.853-11.3077.7704-.1921 1.5434-.5607 2.3102-.5482 5.0781.0826 10.1548.247 15.232.3848 5.6127 3.7113 11.2254 7.4227 16.8378 11.1338-.844.5623-1.6515 1.1914-2.5387 1.6738-2.0434 1.1111-4.1257 2.1509-6.1923 3.2195z" fill="#f3e1af"/><path d="m364.0045 265.3127c-4.2946-4.2197-8.583-8.4456-12.8896-12.653-.7504-.7331-1.5775-1.3877-2.3689-2.0791 1.3512-1.0652 2.702-2.1298 3.9495-3.1129 4.9113 4.6853 9.5464 9.2859 14.3807 13.6667 4.4821 4.0616 8.5652 8.4078 11.5756 13.6887.0531.5999.0298 1.2186.1711 1.797 1.7215 7.045 3.572 14.0608 5.1406 21.1392.4521 2.0399.1107 4.2557.1331 6.3908-1.0486-2.9051-2.0973-5.8102-3.1464-8.7149.1361-.8669.5433-1.7966.3605-2.5903-.6574-2.8537-1.4659-5.6761-2.3154-8.4805-.4361-1.4398-1.0799-2.8168-1.6299-4.2221-.1978.0656-.3957.1311-.5936.1967.1518 1.552.3036 3.104.4554 4.656-1.0495-2.1513-2.099-4.3025-3.1488-6.4536.055-.0458.1642-.1191.1569-.1335-.0548-.1085-.1326-.2054-.2032-.306 0 0 .015.0124.015.0123-.1491-.1611-.2982-.3221-.4473-.4832-.0186-.1238-.0258-.2484-.0216-.3743-.0018-.3809.0743-.781-.0175-1.138-1.2742-4.954-3.8498-9.1877-7.35-12.8553-.4651-.4874-1.4431-.4853-2.3928-.7733.0876 1.3255.1371 2.0741.1866 2.8226z" fill="#f1e53c"/><path d="m109.4509 344.7984c1.6775-6.2392 3.355-12.4785 5.0325-18.7178.7934-.1638 1.6058-.266 2.3764-.5037 1.8418-.568 3.664-1.1999 5.494-1.8061-.8074 8.2243-1.6149 16.4486-2.4223 24.6731-3.4935-1.215-6.9871-2.4303-10.4806-3.6455z" fill="#f3e1af"/><path d="m108.015 343.8683c-1.0584 4.9551-2.1168 9.9102-3.1756 14.8676-4.5263-1.0949-8.0319-7.6598-6.424-11.7537 2.5165-6.4073 4.9991-12.828 7.4768-19.2504 1.1193-2.9013 2.382-3.8158 7.4824-5.0673-.6036 2.4887-1.1603 4.7841-1.717 7.0794-2.6665.2206-4.166 2.0822-4.651 4.2951-.7207 3.2877-2.2687 6.8713 1.0084 9.8293z" fill="#edca87"/><path d="m109.4509 344.7984c3.4935 1.2152 6.9871 2.4305 10.4806 3.6455-.2618 5.0031-.4837 10.0094-.8503 15.0051-.0349.475-1.1113 1.3544-1.4738 1.2495-3.3192-.9601-6.5995-2.0615-9.8646-3.1982-1.3854-.4823-1.7248-1.6711-1.4341-2.98 1.0172-4.5806 2.0903-9.1489 3.1422-13.7219z" fill="#efcc89"/><path d="m158.433 69.8187c-3.2811-3.1692-3.9118-7.7116-5.9667-11.516.1414-.3353.3622-.6594.4125-1.0081.4715-3.2649.7061-6.5794 1.4078-9.7925 1.4586-6.6789-1.0271-12.0704-5.0677-17.0548 0 0 .0155.0126.0155.0125-.1411-.1523-.2822-.3045-.4232-.4568-.9274-2.4634-1.8548-4.9267-2.7822-7.3902 7.422 1.095 14.2386 8.7892 14.5699 16.9875.1417 3.506-.5637 7.0531-.9679 10.572-.302 2.6285-.9149 5.2313-1.0691 7.8643-.1831 3.1272.6908 6.0094 3.6005 8.7138-1.2916 1.0627-2.5105 2.0655-3.7294 3.0683zm-1.7232-24.5936c-.2251.0391-.4502.0783-.6753.1174-2.4547 5.7602-1.569 21.1267 2.1271 21.7834-.0786-1.4105-.214-2.8207-.225-4.2317-.0313-4.0198.1127-8.0456-.0674-12.0575-.0845-1.8841-.7547-3.7419-1.1594-5.6116zm-1.8699-8.3976c1.0436-4.4403-2.7214-10.5879-6.5733-11.5895 2.2555 3.9767 4.4144 7.7831 6.5733 11.5895zm3.1499-.695c-2.1358 2.621-1.8779 6.4689.5844 8.7176 1.3079-2.0672.9879-6.8403-.5844-8.7176z" fill="#f1e53c"/><path d="m121.8776 349.3531c4.2444.462 8.4888.924 12.7332 1.3858.0542 2.8771.1666 5.7553.1176 8.6307-.0109.6389-.4265 1.5984-.9336 1.8496-4.023 1.9934-8.2808 3.1737-13.2198 3.4534.4485-5.2743.8755-10.2969 1.3026-15.3195z" fill="#efcc89"/><path d="m384.0965 304.1501c-.0224-2.1351.319-4.3509-.1331-6.3908-1.5686-7.0784-3.4191-14.0942-5.1406-21.1392-.1413-.5784-.118-1.1971-.1711-1.797 4.6752 5.496 7.1844 12.0322 9.028 18.8789.273 1.0138.3574 2.0783.5291 3.1195-.3021 1.3699-.8215 2.7327-.8653 4.1107-.1276 4.0107.635 8.1856-.2283 12.0076-1.5988 7.0779-4.105 13.9507-6.2333 20.9089.6821-4.8374 1.3552-9.6761 2.0493-14.5117.5233-3.6458 1.1684-7.2776 1.5635-10.9368.1496-1.3862-.2493-2.8316-.3982-4.2501z" fill="#f5e457"/><path d="m349.4492 233.4358c-10.2262 4.0601-20.4523 8.1202-30.6785 12.1803-.6021-1.3085-1.2042-2.617-1.8063-3.9255 9.2766-3.7619 18.5493-7.5337 27.8358-11.271.9683-.3897 2.0187-.5751 3.0307-.8548.5392 1.2908 1.0788 2.5809 1.6183 3.871z" fill="#77bdc9"/><path d="m285.3199 202.1481c6.5426-3.1394 13.0007-6.4734 19.6527-9.3606 6.0379-2.6207 12.2361-4.9039 18.4689-7.0269 2.3278-.7929 4.9533-.7119 7.4431-1.0294.0474.2442.0948.4883.1422.7325-14.8788 6.2959-29.7575 12.5918-44.6365 18.8878-.3571-.7345-.7138-1.469-1.0704-2.2034z" fill="#bad6dc"/><path d="m134.2652 266.187c-5.0772-.1378-10.1539-.3022-15.232-.3848-.7668-.0125-1.5398.3561-2.3102.5482-3.4368-2.0232-6.8733-4.0462-10.3098-6.0693.0222-.2018.0445-.4035.0667-.6053 4.6528-.776 9.2988-1.5991 13.9657-2.279.7247-.1056 1.6586.2757 2.3019.7154 3.8706 2.6456 7.6847 5.374 11.5177 8.0748z" fill="#f3ead8"/><path d="m93.5093 303.9793c-6.4031-1.5116-12.8061-3.0233-19.2094-4.5349-.5018-4.177 1.3909-7.4072 4.0814-10.3221 2.4928 1.3157 4.9856 2.6313 7.4785 3.9471-.1367.4527-.4374.9255-.3845 1.3547.4173 3.3875 2.7873 4.6601 5.773 5.4236 3.2781.8383 3.2535.9346 2.261 4.1316z" fill="#efcc89"/><path d="m346.6613 226.9041c-7.7447 3.194-15.4795 6.4122-23.2393 9.569-2.7233 1.1078-5.5079 2.065-8.2646 3.0907-.3137-.978-.6274-1.9558-.9411-2.9336 9.3735-4.363 18.747-8.7261 28.1211-13.0892 1.4416 1.121 2.8827 2.2421 4.3239 3.3631z" fill="#77bdc9"/><path d="m156.5309 283.5745c3.6139-1.1946 7.2196-2.4151 10.8496-3.5584.6105-.1923 1.3259-.0511 1.9932-.0638-3.6248 1.8701-7.1965 3.8536-10.8854 5.5876-9.6032 4.5141-19.2586 8.9171-28.8902 13.3707-.6195.2864-1.2841.5388-1.8087.9565-3.4971 2.7838-8.0024 3.0227-11.9047 4.7721.3019-.3915.5221-.9274.9184-1.1507 3.2149-1.8116 6.4873-3.522 9.6871-5.359 1.1014-.6323 2.0468-1.5362 3.0635-2.3159.2647-.1359.5294-.2719.7944-.4077.3585-.1343.7166-.2687 1.0748-.403 8.3693-3.8095 16.7386-7.619 25.108-11.4284z" fill="#f1e53c"/><path d="m336.5996 457.6047c-1.5297-.7378-3.1799-1.2993-4.5664-2.2466-4.0948-2.7976-8.1334-5.6844-12.087-8.6776-1.1748-.8895-2.084-2.185-2.9391-3.4164-.3784-.5449-.5889-1.4744-.4047-2.088.4278-1.425 1.1419-2.764 1.7397-4.138-.0002-.0001-.0215.0307-.0215.0307 1.9091 1.8904 3.747 3.8613 5.7576 5.6367.9934.8772 2.3053 1.3939 3.4731 2.0738 0 0-.0128-.0227-.013-.0223.2635.492.4026 1.1578.8098 1.449 5.5449 3.9655 11.0713 7.9619 16.7276 11.7641 2.2164 1.4899 4.7446 2.5158 7.1309 3.753 0 0-.0264-.0221-.0266-.0218.2405.3321.4811.664.7218.9958.4407.9074.8814 1.8149 1.3224 2.7225-2.9871-1.6713-5.9745-3.3427-8.9619-5.0141-.3071-.1494-.6143-.2988-.9214-.4482 0 0 .0107.0075.0106.0075-.478-.4716-.9052-1.0133-1.4428-1.4022-2.2726-1.644-4.6228-3.1831-6.8627-4.8694-5.721-4.3066-11.3983-8.6715-17.093-13.013.0236.6043.2307 1.1299.585 1.5226 4.5834 5.0794 9.5686 9.7003 15.3107 13.4722.7029.4618 1.173 1.2779 1.7509 1.9297z" fill="#f1e53c"/><path d="m330.6739 193.6472c-8.7128 3.9275-17.4201 7.8674-26.1446 11.7689-1.3022.5823-2.6852.9838-4.0309 1.4689-.4657-1.2119-.9314-2.4237-1.397-3.6356.0974-.1138.1721-.2832.2953-.3334 8.6963-3.5423 17.3807-7.1147 26.1087-10.5773 1.8969-.7524 3.8875-.8627 5.1685 1.3085z" fill="#77bdc9"/><path d="m329.809 200.978c-8.8415 3.857-17.683 7.714-26.5245 11.5707-.5008-1.1887-1.0015-2.3771-1.5022-3.5655 9.1562-3.9146 18.3124-7.8293 27.4688-11.744.1861 1.2462.372 2.4925.5579 3.7388z" fill="#77bdc9"/><path d="m368.1292 190.7156c-.7424.9339-1.2957 2.3472-2.2568 2.7261-8.0788 3.1847-16.2323 6.1798-24.3634 9.2319 1.4294-3.9283 4.6792-5.7245 8.257-7.2636 4.0416-1.7386 8.0258-3.6199 11.9755-5.5601 3.5661-1.7519 3.5308-1.8239 6.3877.8657z" fill="#efd748"/><path d="m70.8514 300.2038c5.7935 1.3045 11.1087 2.5031 16.4249 3.6967 1.1843.2659 2.3733.5107 3.5588.7712 2.9438.6467 2.9435.648 2.5272 4.0595-4.2832 0-8.6174.3438-12.8718-.0919-4.7269-.4839-8.0459-3.2244-9.6391-8.4355z" fill="#ebc886"/><path d="m330.6739 193.6472c-1.281-2.1712-3.2716-2.061-5.1685-1.3084-8.728 3.4626-17.4124 7.035-26.1087 10.5773-.1232.0502-.1979.2196-.2951.3326-1.3625.2735-2.7251.5478-4.0878.8221-.0181-.3223-.0361-.6446-.0542-.9669 12.0997-5.0116 24.1994-10.0234 36.3-15.0328.2095-.0867.442-.1217.6451-.2194 3.8467-1.8511 4.8585-2.3202 7.1448 3.4219-2.8116.7968-5.5936 1.5852-8.3756 2.3736z" fill="#bad6dc"/><path d="m321.5034 180.182c-.1749-3.1315-.2423-6.2737-.5491-9.3922-.4941-5.0232-.9617-10.0619-1.7974-15.034-.545-3.2431-1.599-6.4208-2.6408-9.5561-2.1681-6.5245-4.4819-13.0005-6.7238-19.5006-.0906-.2626-.0576-.5678-.0974-1.0296.7003.0737 1.2666.1332 1.8329.1928.0002 0-.0249.0064-.0251.0067.1909.3175.3818.6347.5728.9518 3.0905 7.2469 5.6665 14.6598 7.0212 22.4443 1.7137 9.8465 3.3645 19.7038 5.0337 29.558.0359.2125-.0336.4428-.0703.8442-.8334.1677-1.695.3412-2.5567.5147z" fill="#ed5"/><path d="m316.9645 241.6905c.6021 1.3085 1.2041 2.617 1.8063 3.9255-5.6951 2.4511-11.401 4.878-17.0769 7.3729-1.2116.5326-1.8382.1312-2.321-.9303-.4367-.9602-.9027-1.907-1.5287-3.2233 6.4591-2.4136 12.7897-4.7792 19.1203-7.1448z" fill="#65a0b1"/><path d="m112.2526 265.7313c-2.011.4667-4.0826.7621-6.0171 1.4454-2.2062.7792-4.2902 1.9042-6.4276 2.8788-2.5286-1.1859-5.057-2.3717-8.0663-3.7831 1.0451-.6428 1.7211-1.1288 2.4558-1.4977 2.4286-1.2194 4.8139-2.563 7.3388-3.5415 2.358-.9139 4.6065-.252 6.5819 1.3549 1.3421 1.092 2.7538 2.0985 4.1345 3.1432z" fill="#f3ead8"/><path d="m349.3895 238.8527c-9.0005 4.0269-18.0004 8.0552-27.0045 12.074-.2704.1207-.5853.1416-.8795.2091-.4562-1.062-.9124-2.124-1.3686-3.1859 9.4416-3.7909 18.8824-7.584 28.3294-11.3615.2657-.1062.598-.0458.8993-.0631.0081.7758.016 1.5516.0239 2.3274z" fill="#76bbc6"/><path d="m263.9455 237.9018c-1.5244.3775-3.1092.5986-4.5632 1.1589-7.3101 2.817-14.5816 5.7344-21.8826 8.5755-.6001.2336-1.3198.1599-1.9843.2287 6.1957-2.656 12.3749-5.3518 18.5915-7.9586 11.6175-4.8716 23.2567-9.6915 34.887-14.533.6433.6425 1.1863 1.6187 1.9532 1.8486 1.1144.3342 2.3901.1301 3.597.1556-1.6497.465-3.278 1.0414-4.9551 1.3647-1.8284.3526-3.8368.1153-5.5307.7577-4.9986 1.8956-9.8769 4.1075-14.8116 6.1732-.8219.344-1.6907.5761-2.5382.8597-.6197.3079-1.2391.616-1.8584.924-.3016.1484-.6031.2967-.9046.445z" fill="#eadb3a"/><path d="m139.8582 267.689c3.5708.2721 7.1395.5803 10.7141.7874.7676.0445 1.5563-.2768 2.3354-.4295 2.4428 1.6706 4.8856 3.3411 7.3283 5.0115-2.1319 1.3352-4.2639 2.6704-6.3958 4.0056-3.5701-2.334-7.1488-4.6553-10.7055-7.0096-1.1223-.7429-2.186-1.5744-3.2765-2.3654z" fill="#f3e1af"/><path d="m181.5768 297.7576c-.1034 1.9135.2168 3.9753-.3917 5.7118-1.6515 4.7133-3.6915 9.2908-5.5967 13.9142-.1263.3065-.4135.5466-.7261.9456 0-6.246 0-12.2665 0-18.287 2.2382-.7617 4.4764-1.5231 6.7145-2.2846z" fill="#f3e1af"/><path d="m97.1067 270.7888c-3.3634 2.1491-6.7269 4.2982-10.0903 6.4472-2.22-.8828-4.44-1.7656-7.1698-2.8511 3.3489-2.4649 6.2449-4.7156 9.2905-6.7413.6363-.4232 1.9607-.3017 2.7315.0654 1.8217.8677 3.5011 2.0342 5.2381 3.0798z" fill="#f3ead8"/><path d="m85.2734 278.5704c-.3071.8893-.6141 1.7785-.9212 2.6683-1.6991 2.0867-3.3982 4.1727-5.0972 6.2588-2.2134-.9346-4.4267-1.8692-6.9507-2.9349 2.2825-3.1478 4.4612-6.1525 6.747-9.3048 2.1469 1.1431 4.1845 2.2279 6.2221 3.3126z" fill="#f3ead8"/><path d="m105.2557 326.2213c-2.6491 7.1237-5.2793 14.1969-8.0607 21.6765-3.4281-7.8265 1.4655-22.4506 8.0607-21.6765z" fill="#ebc886"/><path d="m380.8818 333.8488c2.1283-6.9582 4.6346-13.831 6.2333-20.9089.8633-3.8221.1008-7.9969.2283-12.0076.0438-1.378.5632-2.7408.8653-4.1107.4519 3.9677.9037 7.9357 1.3557 11.9035-.3985 1.8878-.7138 3.7981-1.2128 5.6591-1.0746 4.0073-2.3157 7.9705-3.3574 11.9859-1.5916 6.1352-2.9759 12.3346-6.3194 17.8425-.4204.6926-.9458 1.3214-1.4226 1.9798 1.21-4.1146 2.4198-8.2291 3.6296-12.3436z" fill="#f1e53c"/><path d="m310.9962 233.78c10.777-5.1849 21.0569-11.5613 33.1991-13.6164-.4563.326-.8739.7365-1.3745.9655-10.1494 4.6426-20.3078 9.2659-30.4692 13.8821-.2682.1218-.5922.1209-.8903.1771-.1551-.4694-.3101-.9389-.4651-1.4083z" fill="#73b4c0"/><path d="m301.7822 208.9832c.5007 1.1884 1.0014 2.3768 1.5022 3.5655-3.7615 1.7755-7.5022 3.5966-11.2914 5.3104-2.7358 1.2374-3.7631-1.5102-5.6047-2.367-.0414-.2262-.0829-.4525-.1243-.6787 5.1727-1.9433 10.3455-3.8867 15.5182-5.8302z" fill="#65a0b1"/><path d="m161.2142 306.8586c-3.1454 1.4068-6.284 2.8291-9.4409 4.2097-.8117.355-1.6808.5787-2.5236.863-1.0719-4.3635-.7833-4.9777 3.1502-6.8364 2.915-1.3774 5.8218-2.772 9.1691-4.3672-.1337 2.3087-.2442 4.2198-.3548 6.1309z" fill="#ebc886"/><path d="m78.3814 289.1223c-2.6905 2.9149-4.5832 6.1451-4.0814 10.3221-3.0134.4064-4.2383.0202-4.3457-3.5945-.104-3.5013.3843-6.7681 1.8415-10.2857 2.2591 1.2206 4.4223 2.3894 6.5856 3.5581z" fill="#f3ead8"/><path d="m295.0139 204.0708c1.3627-.2743 2.7253-.5486 4.0878-.8221.4655 1.2126.9311 2.4245 1.3968 3.6364-4.5978 2.0438-9.1634 4.1653-13.8089 6.0945-1.9478.8089-2.4229-.7519-2.7181-2.2509.7828-.5414 1.536-1.1319 2.3532-1.614 2.8845-1.7014 5.791-3.3656 8.6892-5.0439z" fill="#65a0b1"/><path d="m320.1369 247.9499c.4562 1.062.9124 2.124 1.3686 3.1859-4.1676 1.7967-8.2468 3.8657-12.5448 5.261-1.8154.5893-4.0914-.2403-6.1581-.4249-.0628-.3571-.1257-.7142-.1885-1.0713 5.8409-2.3168 11.6819-4.6337 17.5228-6.9507z" fill="#65a0b1"/><path d="m129.5536 295.8135c-1.0167.7798-1.9621 1.6837-3.0635 2.316-3.1999 1.8371-6.4723 3.5474-9.6871 5.359-.3963.2234-.6165.7592-.9184 1.1507-.3022.1405-.6044.2805-.9066.4206-.152.0057-.3038.0114-.4557.0172 0 0 .0073-.007.0072-.0071-.3071.2836-.6141.5673-.9211.851-1.3238.5249-2.8319.8032-3.9331 1.626-2.3166 1.731-4.9751 1.2332-7.5036 1.6326-.9364.1479-1.8281.5779-2.7404.8791-1.269-1.2239-.0249-1.4583.7443-1.7894 7.0719-3.0436 14.1487-6.0759 21.2331-9.0904 2.7029-1.15 5.4292-2.2451 8.1449-3.3653z" fill="#efd748"/><path d="m278.1894 93.8753c-4.7558-.7593-9.5427-1.3643-14.2599-2.3148-6.7291-1.356-13.4079-2.9615-20.1051-4.4744-.4807-.1086-.9357-.331-1.4027-.5004.0387-.2135.0774-.4269.1161-.6404 3.4482.4515 6.8935.9269 10.3453 1.3485 4.4857.5478 8.9766 1.0528 13.4654 1.5762 3.9471 1.6684 7.894 3.3368 11.8409 5.0053z" fill="#f5e457"/><path d="m173.2575 301.8871c-3.4526 1.3669-6.9052 2.7337-10.3578 4.1006-.9139-4.6192-.3462-5.8015 3.7567-7.6806 2.1201-.9709 4.261-1.8965 6.6011-2.9352z" fill="#ebc886"/><path d="m352.2066 461.7232c-2.3863-1.2372-4.9145-2.2631-7.1309-3.753-5.6563-3.8022-11.1827-7.7986-16.7276-11.7641-.4071-.2912-.5462-.957-.8098-1.449 6.0915 3.3659 12.1928 6.7143 18.2697 10.1063 2.8549 1.5935 4.9394 3.9447 6.3986 6.8598z" fill="#ed5"/><path d="m377.2523 346.1924c.4768-.6584 1.0022-1.2872 1.4226-1.9798 3.3435-5.5079 4.7278-11.7073 6.3194-17.8425 1.0417-4.0154 2.2828-7.9786 3.3574-11.9859.499-1.861.8142-3.7713 1.2128-5.6591.4814 5.9919-.7221 11.7914-2.2741 17.4949-2.3427 8.6088-6.7155 16.3412-10.9153 24.1331.2925-1.3868.5849-2.7738.8772-4.1607z" fill="#ed5"/><path d="m136.4228 350.7576c3.3026.2847 6.6039.5886 9.9097.8299.4146.0302.8532-.2699 1.2807-.417-.3606.7433-.5259 1.7502-1.1143 2.1859-3.1684 2.3464-6.4419 4.5509-10.0761 7.0807 0-3.4397 0-6.5596 0-9.6795z" fill="#ebc886"/><path d="m330.9766 203.4853c-9.2712 5.796-18.8977 10.812-29.6303 13.3996 9.4394-5.4268 19.5445-9.3919 29.6303-13.3996z" fill="#73b4c0"/><path d="m147.7924 313.2881c-2.6856.8956-5.3691 1.7971-8.0576 2.6838-1.0626.3504-2.1361.6675-3.2046 1.0001-.3515-3.8679-.2969-4.0088 3.176-5.7307 2.6143-1.2963 5.2615-2.5263 8.0862-3.8778z" fill="#ebc886"/><path d="m314.2163 236.6303c.3137.9778.6274 1.9556.9411 2.9336-5.5311 2.3556-11.0622 4.711-16.7934 7.1515-.09-2.4019.8236-3.7719 2.6917-4.5559 4.3875-1.8414 8.7738-3.6859 13.1606-5.5292z" fill="#65a0b1"/><path d="m319.6975 422.6729c5.4684 1.1242 9.6073 4.3795 13.3081 8.3246 1.6235 1.7307.4452 2.9898-.7761 4.4327-3.4232-4.8216-7.9084-8.1168-13.0327-10.611.1669-.7155.3338-1.4309.5007-2.1463z" fill="#76bbc6"/><path d="m93.5094 303.9793c.9924-3.1969 1.0171-3.2932-2.261-4.1315-2.9857-.7635-5.3557-2.0361-5.773-5.4236-.0529-.4292.2477-.902.3845-1.3547 4.4325 2.1301 8.8651 4.2603 13.2979 6.3906-2.3271.6248-3.8621 1.9154-3.8134 4.5372-.6117-.0061-1.2234-.0121-1.835-.018z" fill="#f3e1af"/><path d="m350.2247 242.1016c-9.0787 6.149-19.5503 9.1589-29.5633 13.2022-.1375-.3104-.275-.6209-.4125-.9313 9.8837-4.3347 19.7673-8.6694 29.651-13.0042.1082.2445.2165.4889.3248.7333z" fill="#73b4c0"/><path d="m164.7237 76.0981c.7712-1.6406 1.4529-3.3312 2.3338-4.9106 1.4491-2.5979 2.8385-3.3975 6.2434-3.7953-.0294 4.7324-2.9268 7.9399-5.6613 11.2272-.9723-.8402-1.9441-1.6808-2.9159-2.5213z" fill="#bad6dc"/><path d="m170.2285 79.3168c2.1761-3.854 4.3523-7.708 6.7026-11.8704.2795.0882 1.1069.3493 2.1552.6802-.7488 4.7616-2.1869 9.1155-5.391 12.7561-1.1556-.5219-2.3112-1.0439-3.4668-1.5659z" fill="#bad6dc"/><path d="m317.4076 429.6409c-4.6876.4011-9.3751.8021-13.9453 1.1931.7213-3.8076 8.5814-6.2168 13.9452-3.8295-.0001.8789 0 1.7576.0001 2.6364z" fill="#65a0b1"/><path d="m134.6652 318.7567c-2.1739.6221-4.3449 1.2547-6.5229 1.8622-1.1578.3229-2.3278.6023-3.4923.9014.0349-3.2122.6308-3.9615 3.6946-5.1359 2.167-.8307 4.2744-1.8168 6.7856-2.8955-.177 2.0052-.321 3.6365-.465 5.2678z" fill="#ebc886"/><path d="m328.983 424.1921c-6.103-3.971-12.5853-6.2809-20.4266-4.3743 1.9903-2.3817 4.2919-3.3275 6.7715-3.071 5.5021.5692 10.3209 2.7648 14.0602 7-.135.1484-.2701.2968-.4051.4453z" fill="#b3ccd2"/><path d="m329.809 200.978c-.1859-1.2463-.3718-2.4926-.5579-3.7388 3.0786-1.433 6.1575-2.8661 9.278-4.3186.6477 2.7305-.1116 4.6323-2.3445 5.6291-2.0734.9256-4.2465 1.6278-6.3756 2.4283z" fill="#bad6dc"/><path d="m108.015 343.8683c-3.2771-2.958-1.7291-6.5417-1.0085-9.8293.485-2.2129 1.9845-4.0744 4.651-4.2951-1.2141 4.7082-2.4283 9.4163-3.6425 14.1244z" fill="#f3e1af"/><path d="m162.9921 83.9265c-2.289 2.1012-4.5715 4.2097-6.8724 6.2977-.4836.4388-1.0351.8028-1.8081 1.3949-.2022-4.9795 2.072-8.184 5.8159-10.5779.9549.9618 1.9097 1.9235 2.8646 2.8853z" fill="#65a0b1"/><path d="m122.3539 323.7709c-1.8301.6061-3.6522 1.238-5.494 1.8061-.7706.2377-1.583.3398-2.3764.5037-.1749-2.9294.7071-5.0302 3.9376-5.727 1.6671-.3595 3.2315-1.195 5.1973-1.9522-.4626 1.9639-.8636 3.6666-1.2645 5.3694z" fill="#ebc886"/><path d="m170.2285 79.3168c1.1556.522 2.3112 1.0439 3.4669 1.5659-2.4976 2.5919-4.9952 5.1838-7.493 7.7754-.4756-.9769-.9511-1.9536-1.4266-2.9303 1.8176-2.137 3.6352-4.274 5.4527-6.411z" fill="#76bbc6"/><path d="m334.6792 425.9648c-4.2441-3.4141-8.5251-6.8578-12.5662-10.1087 3.9483-1.2803 13.0272 5.3155 12.5662 10.1087z" fill="#b3ccd2"/><path d="m181.5768 297.7576c-2.2381.7615-4.4763 1.5229-6.7144 2.2845-.6151-4.955-.2048-5.5135 5.9433-7.8241.2623 1.8845.5167 3.7121.7711 5.5396z" fill="#edca87"/><path d="m346.6613 226.9041c-1.4411-1.1211-2.8823-2.2422-4.3239-3.3631.588-.335 1.1557-.715 1.7683-.9978 4.1224-1.903 5.0165-1.6344 7.8291 2.5825-1.8208.614-3.5472 1.1962-5.2735 1.7784z" fill="#bad6dc"/><path d="m164.7758 85.7278c.4755.9767.951 1.9534 1.4266 2.9303-3.2153 3.2902-7.0092 4.9459-10.3965 4.2056 3.1551-2.51 6.0625-4.8229 8.9699-7.1359z" fill="#65a0b1"/><path d="m162.9921 83.9265c-.9548-.9617-1.9097-1.9235-2.8645-2.8853 1.5321-1.6479 3.0643-3.2957 4.5963-4.9433.9717.8408 1.9435 1.6813 2.9158 2.5215-1.5489 1.7688-3.0983 3.5379-4.6476 5.3071z" fill="#76bbc6"/><path d="m295.0139 204.0708c-2.8982 1.6783-5.8046 3.3425-8.6892 5.0439-.8172.482-1.5704 1.0726-2.3532 1.614-.5724-.7855-1.1446-1.5715-1.9709-2.7066 4.4533-1.6901 8.7063-3.3042 12.9592-4.9182.0179.3222.036.6446.0541.9669z" fill="#76bbc6"/><path d="m176.5147 81.9959c1.6193-3.5751 3.2386-7.1501 4.8579-10.7252 1.6711 4.7744-.54 8.3374-3.2949 11.7362-.5211-.337-1.0421-.674-1.563-1.011z" fill="#b3ccd2"/><path d="m349.4492 233.4358c-.5396-1.2901-1.0791-2.5802-1.6183-3.8709 1.7191-.8921 3.4378-1.7835 5.329-2.7644.4458 1.8811.8242 3.4776 1.2847 5.4203-1.7001.4135-3.3477.8142-4.9954 1.215z" fill="#bad6dc"/><path d="m218.2239 82.9865c2.9604.8883 5.9207 1.7766 8.8811 2.665-5.7252 1.1034-11.0176-.3458-16.1738-2.6172 2.4309-.0159 4.8618-.0318 7.2927-.0478z" fill="#f5e457"/><path d="m176.5147 81.9959c.521.337 1.0419.6741 1.563 1.011-1.9651 3.5478-4.6658 6.375-8.2083 8.3775-.1773-.5188-.3545-1.0375-.5317-1.5562 2.3923-2.6108 4.7847-5.2216 7.177-7.8323z" fill="#76bbc6"/><path d="m79.255 287.4976c1.6991-2.0861 3.3982-4.1721 5.0972-6.2588-.0117 2.9448-.0233 5.8902-.0349 8.8356-1.6874-.8589-3.3749-1.7179-5.0623-2.5768z" fill="#efcc89"/><path d="m102.0595 299.1692c3.8127-1.4581 7.6255-2.9161 11.4384-4.3742.5325.254 1.0648.5081 2.0586.9823-3.7935 1.5474-7.1714 3.0477-10.6524 4.2493-.7591.262-1.8867-.5436-2.8446-.8574z" fill="#f3ead8"/><path d="m319.6975 422.6729c-.1669.7154-.3338 1.4308-.5007 2.1463-2.7454-.2919-5.4907-.5838-8.236-.8758.6135-.7493 1.227-1.4985 1.8405-2.2477 2.2987.3257 4.5975.6514 6.8962.9772z" fill="#65a0b1"/><path d="m317.4076 429.6409c-.0001-.8788-.0001-1.7575-.0001-2.6363 3.9524.818 6.9078 3.181 10.1222 6.3918-3.8023-1.4107-6.9622-2.5831-10.1221-3.7555z" fill="#73b4c0"/><path d="m115.7973 294.1359c3.1324-1.4141 6.2814-2.7932 9.3855-4.2669.7837-.372 1.4238-1.0464 2.1301-1.5818.6762.2994 1.3521.5987 2.3862 1.0565-4.2129 1.8466-8.0849 3.5894-12.0088 5.2064-.4907.2022-1.2553-.2599-1.893-.4142z" fill="#f3ead8"/><path d="m95.3444 303.9972c-.0487-2.6218 1.4863-3.9124 3.8134-4.5372 1.116.4058 2.2322.8117 3.3484 1.2176.0462.1717.0925.3434.1387.5151-2.4336.9348-4.8671 1.8697-7.3005 2.8045z" fill="#f3ead8"/><path d="m312.8013 421.6957c-.6135.7492-1.2269 1.4984-1.8405 2.2477-2.1991.6892-4.3982 1.3784-6.7141 2.1042-.2258-2.0979 1.0101-3.0619 2.7555-3.4426 1.9083-.4164 3.864-.6155 5.7991-.9093z" fill="#76bbc6"/><path d="m169.3377 89.8282c.1772.5187.3544 1.0374.5317 1.5562-2.2617 2.3277-5.0211 3.4727-8.4641 3.1583 2.6441-1.5715 5.2883-3.143 7.9324-4.7145z" fill="#65a0b1"/><path d="m327.5513 444.7794c-1.1678-.6798-2.4797-1.1965-3.4731-2.0738-2.0106-1.7755-3.8485-3.7464-5.7576-5.6367 2.2805.6382 4.4879 1.069 5.5581 3.8346.5942 1.5357 2.4083 2.5994 3.6726 3.8759z" fill="#ed5"/><path d="m168.9396 270.7577c-1.083-1.5172-2.166-3.0344-3.2489-4.5516.3631-.2058.8788-.6815 1.0656-.5757 1.8721 1.0589 3.6902 2.2133 5.9004 3.5727-1.5081.6307-2.6126 1.0926-3.7171 1.5546z" fill="#ebc886"/><path d="m142.372 282.214c2.0665-1.0686 4.1488-2.1084 6.1923-3.2194.8872-.4824 1.6947-1.1115 2.5387-1.6738.5064.2895 1.0124.5788 1.8011 1.0297-2.9118 1.3748-5.5193 2.6776-8.1957 3.819-.6643.2832-1.5516.0437-2.3364.0445z" fill="#f3ead8"/><path d="m285.3199 202.1481c.3567.7345.7133 1.4689 1.0703 2.2033-1.5338.7337-3.0678 1.4676-4.5587 2.1807-1.2714-1.4567-1.3913-2.4262.3908-3.0724 1.0526-.3817 2.0663-.8708 3.0976-1.3116z" fill="#76bbc6"/><path d="m349.3895 238.8527c-.0079-.7758-.0158-1.5517-.0239-2.3275 1.488-.6527 2.9762-1.3054 4.6312-2.0313.2298 2.2029-.424 3.4544-2.434 3.8267-.7322.1357-1.4493.3524-2.1733.5321z" fill="#bad6dc"/><path d="m294.544 227.3775c-1.2069-.0255-2.4826.1786-3.597-.1556-.7668-.2299-1.3099-1.2061-1.9532-1.8486 1.006-.2339 2.0033-.5888 3.0212-.6639.8302-.0612 1.6851.2122 2.5291.3372-.0001.7769-.0001 1.5539-.0001 2.3309z" fill="#f9ac30"/><path d="m310.9962 233.78c.155.4695.31.9389.4651 1.4084-1.6066.8214-3.2058 1.658-4.8239 2.4561-.5904.2912-1.2259.4908-1.9827.5049 1.5915-2.206 3.8426-3.4608 6.3415-4.3694z" fill="#65a0b1"/><path d="m184.6059 290.3607c-.4661 2.8494-.8708 5.3235-1.3376 8.1771-1.9139-4.2247-1.5997-6.4236 1.3376-8.1771z" fill="#ebc886"/><path d="m153.8402 277.0641c2.1319-1.3352 4.2639-2.6704 6.3958-4.0056.4885.2812.977.5626 1.8244 1.0505-2.7347 1.7602-5.158 3.1811-8.2202 2.9551z" fill="#f3ead8"/><path d="m159.7458 270.7802h5.614c-1.078.9523-1.7429 1.5398-2.4081 2.1273-1.0687-.7091-2.1373-1.4182-3.2059-2.1273z" fill="#f3e1af"/><path d="m299.1564 217.9224c-1.0825.3744-2.165.7488-3.2475 1.1232-.082-.2303-.164-.4606-.246-.6909 1.1442-.3714 2.2885-.7429 3.4328-1.114.0202.2274.0405.4546.0607.6817z" fill="#65a0b1"/><path d="m375.4853 352.2099c.3101-.6328.6201-1.2657.9306-1.8986-.31.6328-.6203 1.2657-.9306 1.8986z" fill="#ed5"/><path d="m352.9018 462.6972c-.2407-.3318-.4813-.6637-.7218-.9958.2407.3317.4813.6638.7218.9958z" fill="#ed5"/><path d="m374.9602 353.3938c.1841-.4192.368-.8384.5523-1.258-.1839.4191-.3682.8385-.5523 1.258z" fill="#ed5"/><path d="m279.048 94.4004c-.3026-.1902-.6053-.3804-.9081-.5712.3027.19.6054.3806.9081.5712z" fill="#f5e457"/><path d="m329.3881 423.7468c.0891.2984.1782.5968.2673.8952-.2241-.1501-.4482-.3002-.6723-.4501.1349-.1483.27-.2967.405-.4451z" fill="#b3ccd2"/><path d="m312.0757 126.8207c-.1909-.3172-.3819-.6344-.5728-.9518.191.3171.3819.6345.5728.9518z" fill="#f1e53c"/><path d="m235.5618 247.827c-.3694.1679-.7389.3358-1.1088.5037.3693-.1679.739-.3358 1.1088-.5037z" fill="#eadb3a"/><path d="m131.4228 295.0028c-.3582.1343-.7164.2686-1.0748.403.3581-.1343.7164-.2687 1.0748-.403z" fill="#efd748"/><path d="m279.9015 94.5585c-.1425-.025-.2851-.0501-.4276-.0751.1425.025.285.0501.4276.0751z" fill="#f5e457"/><path d="m299.1564 217.9224c-.0202-.2271-.0405-.4542-.0607-.6816.1751.0479.3502.096.5254.1442-.1549.1791-.3098.3582-.4647.5374z" fill="#73b4c0"/><path d="m258.9109 93.9737c-4.2361-1.3727-8.4721-2.7456-12.7084-4.1176-.4882-.1581-.978-.3113-1.3935-.9101 2.4231.3783 4.8812.6079 7.261 1.1698 3.5336.8343 6.9793 2.0502 10.5222 2.8329 3.7552.8296 7.5645 1.4627 11.3788 1.9649 5.393.7101 9.8205 3.4777 14.1816 6.3791 5.6823 3.7804 11.4776 7.5279 14.8715 13.7326 1.7315 3.1656 3.1353 6.5293 4.4637 9.8917 1.7538 4.4388 3.2962 8.9613 4.9111 13.4545.3679 1.0237.6606 2.0744.9879 3.1127-.2114.0766-.4228.1532-.6342.2298-1.1956-2.8974-2.3321-5.821-3.5995-8.6866-2.3269-5.261-4.4262-10.6548-7.1827-15.6851-3.1817-5.8065-8.4295-9.8429-14.1331-12.875-4.4789-2.3811-9.526-3.6936-14.3207-5.4807-.0001 0 .0074.0032.0073.0032-.3076-.1517-.6153-.3033-.923-.455-3.9355-2.3888-8.2744-3.5368-12.7852-4.1557-.1633-.1346-.3266-.2695-.49-.4044l-.2075.0054z" fill="#f5e457"/><path d="m278.9701 102.6454c6.3576.9697 11.1162 4.7382 15.912 8.6783 5.4377 4.4675 7.6939 10.7785 10.6267 16.7252 5.9842 12.1339 8.3301 25.4367 12.1451 38.2662.7744 2.6044 1.3547 5.2746 1.8708 7.9441.2173 1.124.0362 2.3251.0362 3.4911-.1926.0458-.3852.0916-.5778.1375-.3246-.7746-.7683-1.5215-.9549-2.328-1.4465-6.2539-2.7104-12.5534-4.3013-18.7696-1.1015-4.3038-2.4857-8.5513-4.0123-12.7257-1.6138-4.413-3.4968-8.731-5.375-13.0413-.4494-1.0313-1.3462-1.8676-2.0374-2.7936-.0001 0 .0055.0038.0055.0038-.1539-.4608-.3079-.9215-.4619-1.3822-5.1798-8.6984-10.9222-16.8736-20.0656-21.9653-1.0323-.5752-1.8779-1.4856-2.8101-2.2405z" fill="#f5e457"/><path d="m214.5999 91.1494c-.2559-.6057-.5117-1.2114-.8887-2.1041 1.636.1229 3.1025.1222 4.5296.3588 7.2713 1.2059 14.7942-.0304 21.9461 2.2729.7755.2497 1.517.6049 2.2744.9111-6.8939-.1597-13.7904-.2525-20.6804-.5155-2.402-.0915-4.7879-.6033-7.181-.9232z" fill="#f5e457"/><path d="m190.818 89.8445c.7967-1.7272 2.346-1.4252 3.7616-1.334 4.0705.2623 8.1447.5098 12.2003.9287.9615.0993 1.8559.8473 2.7813 1.2967-5.5107-.1496-11.0219-.2847-16.5317-.4653-.741-.0244-1.4745-.2785-2.2115-.4261z" fill="#efd748"/><path d="m301.8458 126.851c.154.4607.308.9214.4619 1.3822-.154-.4607-.3079-.9214-.4619-1.3822z" fill="#f1e53c"/><path d="m272.6011 98.5347c.3076.1516.6153.3033.923.455-.3077-.1516-.6153-.3033-.923-.455z" fill="#f1e53c"/><path d="m259.3259 93.9747c.1634.1349.3267.2698.49.4044-.1633-.135-.3267-.2697-.49-.4044z" fill="#f1e53c"/><path d="m364.0045 265.3127c-.0495-.7485-.099-1.4971-.1866-2.8227.9496.2881 1.9276.2859 2.3928.7733 3.5003 3.6676 6.0758 7.9013 7.35 12.8553.0918.357.0156.7571.0175 1.138-1.4647-2.1621-2.804-4.4253-4.4298-6.4593-1.5601-1.9517-3.4173-3.666-5.1439-5.4846z" fill="#f5e457"/><path d="m377.2272 284.9949c-.1518-1.552-.3036-3.104-.4554-4.656.1979-.0656.3957-.1312.5936-.1967.55 1.4053 1.1938 2.7823 1.6299 4.2221.8495 2.8045 1.658 5.6269 2.3154 8.4805.1828.7937-.2244 1.7234-.3605 2.5903-1.2408-3.4803-2.4819-6.9602-3.723-10.4402z" fill="#f5e457"/><path d="m374.0321 278.1019c.0706.1005.1484.1974.2032.306.0073.0144-.1019.0877-.1569.1335-.0291-.1452-.0446-.2916-.0463-.4395z" fill="#f5e457"/><path d="m373.5997 277.631c.1491.161.2982.3221.4473.4832-.1491-.161-.2981-.3221-.4473-.4832z" fill="#f5e457"/><path d="m170.7109 279.4644c.6148-.3002 1.2297-.6005 1.8446-.9006-.6148.3003-1.2297.6005-1.8446.9006z" fill="#f1e53c"/><path d="m264.85 237.4569c.6193-.308 1.2387-.6161 1.8584-.924-.6192.3081-1.2388.6161-1.8584.924z" fill="#efd748"/><path d="m113.6083 305.9209c.307-.2837.614-.5674.9211-.851-.307.2837-.614.5673-.9211.851z" fill="#f1e53c"/><path d="m114.5222 305.077c.1519-.0057.3037-.0115.4557-.0172-.1516.0122-.3035.0179-.4557.0172z" fill="#f1e53c"/><path d="m174.8264 277.6363c.1656-.1483.3313-.2966.4973-.4448-.1655.1482-.3314.2965-.4973.4448z" fill="#f1e53c"/><path d="m175.7408 277.1795c.1636-.1488.3271-.2977.491-.4465-.1635.1488-.3273.2977-.491.4465z" fill="#f1e53c"/><g fill="#f5e457"><path d="m336.5996 457.6047c-.578-.6518-1.0481-1.4679-1.7509-1.9296-5.7421-3.772-10.7273-8.3928-15.3107-13.4722-.3543-.3927-.5614-.9182-.585-1.5226 5.6947 4.3416 11.3719 8.7064 17.093 13.013 2.2399 1.6862 4.5901 3.2253 6.8627 4.8694.5377.3889.9648.9306 1.4428 1.4022-1.5594-.56-3.1047-1.1653-4.6836-1.6637-.9967-.3147-2.0438-.4698-3.0683-.6965z"/><path d="m344.3409 459.9574c.3071.1494.6143.2989.9214.4482-.3072-.1494-.6143-.2988-.9214-.4482z"/><path d="m216.532 87.3824c-3.8492.9793-7.5071.7028-10.8407-1.6672 3.7863-.6883 7.3795.0158 10.8407 1.6672z"/><path d="m313.2475 144.0799c3.0777 3.6159 5.0984 11.7581 4.0152 14.8882-1.4031-5.2024-2.7092-10.0453-4.0152-14.8882z"/><path d="m193.3635 86.432c3.203-.8631 6.3804-1.3156 9.7525.7482-3.513 0-6.6595 0-9.806 0 .0178-.2494.0356-.4988.0535-.7482z"/><path d="m149.2189 30.4474c4.0407 4.9844 6.5263 10.3759 5.0677 17.0548-.7017 3.2131-.9363 6.5276-1.4078 9.7925-.0504.3487-.2711.6728-.4125 1.0081-.3253-1.1983-.6509-2.3964-.9761-3.595.0119-4.169.1708-8.3445-.0293-12.5028-.095-1.9743-.8749-3.9155-1.3445-5.8718-.2992-1.9619-.5983-3.9239-.8975-5.8858z"/></g><path d="m150.1164 36.3332c.4696 1.9562 1.2495 3.8975 1.3445 5.8718.2001 4.1583.0412 8.3339.0293 12.5028-.4379-1.7611-1.0972-3.5014-1.2684-5.2885-.3938-4.1111-.5618-8.2443-.7713-12.371-.0114-.2266.4335-.4762.6659-.7151z" fill="#f1e53c"/><path d="m148.8112 30.0031c.1411.1522.2822.3044.4232.4568-.1411-.1522-.2821-.3045-.4232-.4568z" fill="#f5e457"/><path d="m156.7098 45.2251c.4047 1.8697 1.0748 3.7275 1.1594 5.6116.18 4.012.0361 8.0378.0674 12.0575.011 1.4111.1464 2.8212.2219 4.2318-3.693-.6567-4.5788-16.0233-2.124-21.7835.2251-.0391.4502-.0783.6753-.1174z" fill="#f5e457"/><path d="m154.8399 36.8275c-2.1589-3.8064-4.3179-7.6129-6.5733-11.5895 3.8519 1.0016 7.6169 7.1492 6.5733 11.5895z" fill="#f5e457"/><path d="m157.9898 36.1325c1.5723 1.8773 1.8923 6.6504.5844 8.7176-2.4623-2.2486-2.7202-6.0966-.5844-8.7176z" fill="#f5e457"/></g></svg>