<svg id="Layer_1" enable-background="new 0 0 512 512" height="512" viewBox="0 0 512 512" width="512" xmlns="http://www.w3.org/2000/svg"><g><path d="m225.3409 436.1142c1.3551-3.6538 2.5012-7.0452 3.8589-10.3497 4.7115-11.4673 9.4255-22.9347 14.2881-34.3382 1.9614-4.5999 3.9968-9.2239 6.5741-13.4891 2.3194-3.8384.7301-7.2076-.3322-10.6109-2.4805-7.947-5.4153-15.7536-7.8251-23.7202-.5361-1.7722-.2599-4.3106.6595-5.9123 3.9457-6.8736 8.2413-13.5481 12.4665-20.2592 4.5824-7.2784 9.3431-14.4472 13.794-21.8043 1.9944-3.2965 1.6048-6.7891-.2401-10.2657-5.1388-9.6844-10.0926-19.4668-15.1696-29.1843-2.0454-3.915-1.7753-6.2689 1.3601-9.4216 9.2747-9.3258 18.6547-18.5493 27.8083-27.9924 7.7186-7.9627 15.1307-16.2218 22.7884-24.2448 1.7444-1.8276.5049-3.3836.0298-4.9333-3.1891-10.4037-6.6494-20.7262-9.7164-31.1648-2.2678-7.7184-4.0539-15.5778-6.1048-23.3611-.3261-1.2377-1.1544-2.3739-1.3201-3.6146-.1726-1.2921-.278-2.9579.375-3.9326 2.8879-4.3104 5.8349-8.6238 9.2097-12.5501 2.1313-2.4796 4.9737-4.3876 7.6373-6.363 10.0109-7.4241 20.7148-13.6932 32.3841-18.0962 10.0923-3.808 20.4393-6.4736 31.309-7.5433 14.387-1.4158 28.5243-.5857 42.5473 2.4767 16.7655 3.6613 32.7936 9.3224 46.8109 19.5437 10.6418 7.7599 19.0591 17.5298 25.3632 29.1605 6.925 12.7763 11.5822 26.3495 13.5114 40.6703 1.5365 11.4057 2.5794 22.9683 2.5653 34.4597-.0089 7.2309-1.7321 14.651-3.8306 21.6428-3.0927 10.3045-6.7263 20.5098-10.9932 30.3841-6.7851 15.7021-15.8328 30.1103-26.6845 43.4044-10.7304 13.1453-22.8875 24.84-36.0439 35.4323-11.3311 9.1226-22.8339 18.1552-35.0195 26.0574-11.5604 7.4968-23.9068 13.8777-36.2834 19.9879-9.2203 4.5519-19.054 7.8556-28.5894 11.7763-11.1006 4.5643-22.2433 9.0362-33.242 13.8361-15.0968 6.5883-30.0032 13.6156-45.1416 20.104-5.775 2.4755-11.8679 4.4387-18.8045 4.2155zm69.4065-222.781c-.1942.1884-.3884.3768-.582.5657-.0787.0964-.1575.1929-.2362.2893l.2766-.2487c.1872-.1955.3743-.3909.5612-.5866.0893-.0902.1786-.1803.2679-.2705-.0959.0835-.1917.1671-.2875.2508zm-45.1294 141.0962c-.0724-.2273-.1447-.4545-.217-.6818-.0567.0593-.1685.1631-.1619.1713.1323.1638.2783.3166.4215.4716.7 2.7414 1.4001 5.4828 2.1001 8.2241 2.2821 6.2674 3.7283 12.5408.821 19.0651-2.2389 5.0245-4.3233 10.1185-6.4363 15.1982-.9893 2.3784-1.8841 4.7963-2.8217 7.1962 2.143-2.0723 3.6297-4.4914 5.4016-6.6797 5.3695-6.6314 10.8728-13.1546 16.2515-19.7787.5592-.6887 1.1753-2.1682.8515-2.6077-3.3054-4.4856-6.8-8.8317-10.2417-13.2168-1.9896-2.4538-3.9792-4.9077-5.9686-7.3618zm64.558-190.2027c-.2792-1.6651-.2923-3.4317-.8818-4.9785-3.2382-8.4969-6.5738-16.9577-9.969-25.3934-1.4554-3.616-3.1357-7.1414-4.8931-11.1133-1.5995 2.0017-2.696 3.6781-4.0919 5.0498-2.0946 2.0581-2.009 4.1865-1.0714 6.739 1.597 4.3479 3.0347 8.7606 4.3697 13.1972 2.3396 7.775 4.5508 15.5887 6.8158 23.3861 1.9831 6.8153 4.1033 13.5957 5.8477 20.4716.4084 1.6097.099 3.9446-.8445 5.2472-2.3689 3.2704-5.2932 6.1381-7.9873 9.1738-1.298 1.4625-2.5792 2.9398-3.868 4.4104.7792.3816 1.0714.3165 1.2657.1422 7.9242-7.1014 16.2781-13.6255 25.5534-18.8921 1.5966-.9065 1.0706-1.8875.5162-3.0855-1.9055-4.1179-3.7825-8.2496-5.6147-12.4006-1.7518-3.9687-3.4341-7.968-5.1468-11.9539zm-75.3987 260.985c1.7864-.8716 3.5571-1.7772 5.3617-2.6094 14.8321-6.8394 29.5939-13.8381 44.5298-20.4433 13.279-5.8724 26.6433-11.5849 40.1671-16.863 19.4439-7.5887 38.3539-16.2328 55.5325-28.1354 11.2195-7.7738 21.9899-16.2253 32.6766-24.7311 13.024-10.3661 24.8569-22.038 35.3584-34.9594 13.2967-16.3609 22.8345-34.839 30.3057-54.5078 6.0952-16.0462 9.1064-32.5213 7.8213-49.6202-.4774-6.3529-2.1303-12.6175-3.2472-18.9224-.0989-.9404-.1179-1.8973-.3091-2.8185-1.9929-9.6008-4.928-18.8632-9.2795-27.702-7.0106-14.2401-17.0246-25.6621-30.5877-33.9854-11.1309-6.8307-23.289-10.986-35.8509-14.1542-14.0133-3.6068-28.1642-4.8219-42.601-3.0911-22.9102 2.7467-43.6953 10.7275-62.3117 24.3848-1.858 1.363-2.2817 2.5134-1.1786 4.7159 10.0929 20.1516 17.6871 41.3117 25.0044 62.5785 2.0903 6.0752.7132 11.3682-4.2068 15.3521-14.3132 11.5901-28.7498 23.0284-43.1815 34.4713-6.9836 5.5373-14.0646 10.9517-21.2531 16.5396 1.2893.9614 2.3893 1.8286 3.5356 2.6294 13.4473 9.3943 25.7701 19.9948 35.9393 32.9793 4.0471 5.1677 4.3468 6.6502-.2403 10.7519-13.5872 12.1492-27.3203 24.1358-41.0448 36.1307-3.6239 3.1672-7.4228 6.1342-11.3437 9.3595 2.8183 2.9446 5.4277 5.6709 8.0371 8.3972 2.4894 3.2753 4.9789 6.5506 7.4683 9.826 2.4195 3.6335 4.7776 7.3098 7.2764 10.8879 2.3402 3.351 2.4523 4.1587.1479 7.347-8.7271 12.0743-17.5168 24.1036-26.1831 36.2214-2.2895 3.2013-4.2201 6.6591-6.3159 9.999-.093.0646-.186.1292-.279.1938.0513-.0067.1228.0049.1494-.0243.0482-.0531.0697-.1305.1024-.1978zm19.3822-102.1109c.2175.1634.4351.3268.6526.4901 11.1879-9.8709 22.3757-19.7419 33.5635-29.6128-5.6442-.6745-10.8521-.6212-16.0581-.6989-2.3081-.0345-4.2229.0129-3.9479 3.205.0715.8301-.6127 1.7692-1.0671 2.5936-3.1593 5.7329-6.3633 11.4412-9.5229 17.1739-1.2463 2.2612-2.4157 4.5648-3.6201 6.8491zm33.9424-34.9353c.1497-.5212.2994-1.0424.4492-1.5635-10.0919-9.2215-20.1839-18.443-30.8073-28.1501 0 1.317-.09 1.6313.013 1.858 3.915 8.6236 7.783 17.2701 11.8654 25.8141.4747.9936 2.0972 1.8707 3.2785 2.0056 2.5267.2884 5.113.048 7.6749.0381 2.5086-.0098 5.0175-.0022 7.5263-.0022z" fill="#340d0d"/><path d="m206.3961 227.1935c4.7822 6.995 9.3888 13.7067 13.9662 20.4382 2.9238 4.2997 6.2265 8.4144 8.5633 13.0162 1.6999 3.3476 2.3174 7.3156 3.015 11.0815.7057 3.8101.7944 7.7303 1.3741 11.569.7375 4.8835-1.4949 7.9606-5.3514 10.6213-10.2139 7.0471-20.272 14.3201-30.3845 21.5138-.4508.3207-.8279.7449-1.4182 1.2844 7.7093 8.438 15.3366 16.7929 22.9728 25.1397 1.9752 2.1591 3.9629 4.307 5.9733 6.4332 1.3086 1.384 2.2448 3.1892 4.7525 2.9713.7672-.0667 1.8155 1.2352 2.4745 2.1073 3.1814 4.2106 6.3368 8.4449 9.3377 12.784.5137.7429.6527 2.2433.2562 3.0418-5.131 10.3337-9.9749 20.8434-15.7315 30.8239-6.0348 10.463-12.9687 20.4079-19.5368 30.5616-.5088.7865-1.2323 1.4341-2.05 2.3677-5.8422-3.8654-11.7343-7.6064-17.4625-11.5836-16.7436-11.6254-32.5229-24.4765-47.6783-38.0889-13.9638-12.5421-28.2129-24.8041-41.6003-37.9397-12.7911-12.5506-23.1225-27.2425-33.0787-42.136-9.7535-14.5902-18.3269-29.8502-25.7289-45.7447-9.629-20.6768-18.073-41.8356-22.6332-64.2648-1.4445-7.1049-1.1316-14.5546-1.832-21.8263-.958-9.945.581-19.668 2.2536-29.3931 3.6025-20.9456 11.6481-40.0951 23.857-57.4198 10.4283-14.798 23.2019-27.2362 39.2141-35.9603 11.5542-6.2952 23.9667-10.102 37.0445-11.799 15.0599-1.9541 30.0418-1.9075 44.861 1.6533 8.9616 2.1533 17.5141 5.4629 25.5912 9.9898 12.9888 7.2798 23.7668 17.0482 33.1466 28.5406 12.0231 14.731 20.2956 31.4347 26.193 49.3561 3.6344 11.0445 6.7782 22.2523 10.047 33.4146 1.5361 5.2454.4575 6.6273-3.6427 10.3885-3.1998 2.9353-5.6859 6.7779-8.0045 10.5177-4.983 8.0373-9.3032 16.5058-14.5995 24.3201-2.6396 3.8945-6.7714 6.8035-10.3371 10.0382-4.4716 4.057-9.0547 7.9903-13.8235 12.1824zm22.3866 138.5184c-2.4157 15.4171-8.9412 29.4467-15.4359 43.9695.7668-.2867.9036-.2941.9368-.3565 7.3058-13.7285 14.6131-27.4563 21.8904-41.2.7995-1.5099.363-2.7377-1.2188-3.4913-1.7321-1.9615-3.4641-3.9229-5.1962-5.8843-.212.1662-.424.3323-.636.4985-.1134 2.1546-.2268 4.3093-.3403 6.4641zm-22.5429-73.5698c-4.12 2.2985-8.276 4.5353-12.3491 6.9142-3.5667 2.0832-7.0402 4.3259-10.952 6.7437 3.216 2.7172 6.0706 5.1292 9.2704 7.8329 4.6171-4.1596 9.0883-8.1878 13.5595-12.2161.1791-.0619.3773-.0929.5346-.19 7.2207-4.4589 14.4451-8.9121 21.6388-13.4143.4655-.2913 1.0482-1.031.9713-1.4516-.5688-3.1136-1.2911-6.1993-1.9825-9.3735-7.039 5.1555-13.865 10.1551-20.691 15.1547zm2.193-88.0477c-3.8865 2.7065-7.7374 5.4663-11.6776 8.0922-1.4934.9952-1.621 1.9358-.5011 3.21 1.9361 2.2029 3.7769 4.5029 5.8675 6.5475.5337.522 2.2046.6786 2.7497.2448 1.7645-1.4039 3.2484-3.1604 4.8404-4.781 3.9209-3.114 7.9213-6.1346 11.7298-9.3806 1.9771-1.6852 3.8172-3.621 5.3455-5.7161 1.3752-1.8853 2.229-4.1486 3.3323-6.2348 1.9169-3.6243 3.8488-7.2405 5.7744-10.8602-.166-.1652-.3321-.3305-.4981-.4957-1.2872.8386-2.6137 1.6231-3.8551 2.5247-7.7132 5.6018-15.4073 11.2298-23.1077 16.8492zm-150.7872 70.9546c.4125.9377.7178 1.9424 1.2554 2.8018 3.0217 4.8303 6.1626 9.5866 9.1468 14.4395 11.8875 19.3317 25.5587 37.2844 41.7646 53.1926 7.1092 6.9786 14.6815 13.495 22.1809 20.0644 8.2118 7.1935 16.5348 14.2622 24.8951 21.2832 10.8965 9.151 21.875 18.2045 32.8233 27.2939 3.5491 2.9465 7.114 5.874 11.1928 9.2402 7.211-19.3159 14.2387-38.1408 21.2665-56.9658 3.2265-4.8339 2.1609-8.9355-2.0065-12.6439-1.2638-1.1245-2.1491-2.6627-3.3323-3.8914-11.3386-11.7744-22.7293-23.4986-34.0453-35.2945-3.1921-3.3275-6.1882-6.843-9.6596-10.7006 17.9424-11.9047 35.4574-23.5258 53.1099-35.2381-7.9971-11.4533-16.1518-23.1346-24.3091-34.814-4.6272-6.6251-9.3104-13.2096-11.8828-21.0086-.5468-1.6577-.4219-2.8537.9983-4.0072 5.0091-4.0686 9.815-8.3998 14.9529-12.2951 13.7738-10.4425 27.6727-20.7201 41.5406-31.0381 2.0405-1.5182 2.9315-3.1453 1.9878-5.8197-2.9051-8.2336-5.5278-16.5663-8.3867-24.8167-7.0027-20.2088-15.9446-39.3608-30.2196-55.6452-10.0083-11.4171-21.9551-20.0566-35.9829-25.8352-.8253-.4399-1.6106-.9914-2.4817-1.3033-16.5654-5.9316-33.5311-8.9459-51.1588-6.7272-29.5479 3.7192-52.8955 18.2899-71.2872 41.2333-9.5549 11.9197-15.902 25.5685-20.5728 40.061-8.443 26.1971-9.1518 52.4547-1.4183 78.9785 4.6385 15.9089 11.179 31.0462 17.8909 46.1149 3.5396 7.9467 7.8018 15.5713 11.7378 23.3413z" fill="#340d0d"/><path d="m299.1576 53.4893c-2.3274 2.9214-4.2707 5.6939-6.5526 8.1522-4.1248 4.4435-8.3734 8.7811-12.7472 12.9786-1.1594 1.1127-2.8945 1.8357-4.4904 2.2278-1.8027.4429-3.2158-.6062-3.4233-2.5056-.9876-9.0396-2.0023-18.0794-2.7558-27.14-.4308-5.1799 2.1762-6.8143 6.8293-4.5664 5.3671 2.5928 10.6813 5.2953 16.0529 7.8787 2.0326.9775 4.1613 1.7554 7.0871 2.9747zm-17.4676-1.8321c-2.306-1.1821-4.612-2.3641-7.5606-3.8756.7334 3.7541 1.3063 6.6865 1.8792 9.619.4298 3.216.8596 6.432 1.3945 10.4348 5.0119-4.6281 9.4614-8.7369 14.3646-13.2646-3.7866-1.0948-6.9322-2.0042-10.0777-2.9136z" fill="#371111"/><path d="m198.3738 27.4736c3.2398-1.9017 5.8788-2.0342 8.6543-.7284 7.9936 3.7608 15.6566 8.0225 22.3387 13.9067 1.8316 1.6129 2.9041 3.3943 2.8662 5.8543-.0884 5.7462-.0486 11.4964-.2725 17.2368-.0458 1.1748-1.018 2.3136-1.5632 3.469-1.1051-.5944-2.5314-.9266-3.2645-1.8247-5.9236-7.2576-11.7188-14.6201-17.5491-21.9538-2.8262-3.5549-5.7281-7.0544-8.4251-10.7051-1.1273-1.5259-1.8109-3.3797-2.7848-5.2548zm21.5453 22.0436c2.4609 3.9183 4.9219 7.8367 7.3828 11.755.2538-.12.5076-.2401.7614-.3601-.2448-5.186-.345-10.3858-.8364-15.5483-.1226-1.2881-1.2896-2.7195-2.3689-3.609-1.2018-.9904-2.8514-1.4373-4.3061-2.1208-4.3862-2.6696-8.7725-5.3393-13.1587-8.0089-.1777.2086-.3554.4172-.5331.6257 1.1478 1.545 2.2826 3.0999 3.4458 4.6332 3.198 4.2158 6.408 8.4227 9.6132 12.6332z" fill="#391111"/><path d="m245.8189 442.9217c4.6452 1.0363 8.0438 2.6061 10.6718 6.2354 4.0403 5.5797 8.6815 10.7274 13.1234 16.0117 1.7878 2.1268 1.4778 3.8253-.5423 5.606-3.1941 2.8157-6.2669 5.7691-9.3912 8.6639-2.2749 2.1078-4.9297 1.8483-6.1978-1.0319-1.5521-3.5254-2.9078-7.2047-3.7725-10.9504-1.5269-6.6139-2.6643-13.32-3.8544-20.0073-.2541-1.4279-.037-2.9397-.037-4.5274zm13.0516 30.4225c2.1213-1.7297 4.3314-3.367 6.3007-5.2552.4835-.4635.5943-2.181.1727-2.5822-2.6534-2.5248-5.5056-4.8409-8.2921-7.2259-1.2994-1.7063-2.5987-3.4125-3.8981-5.1188-.2404.1433-.4808.2865-.7212.4298 1.3836 7.3892 2.7672 14.7784 4.2576 22.7379.9808-1.343 1.5806-2.1643 2.1804-2.9856z" fill="#381111"/><path d="m305.7675 85.6147c-2.5274-.0088-4.1323-2.6997-2.5802-5.1534 2.2506-3.558 4.9148-6.8842 7.6528-10.096 3.0022-3.5217 6.3408-6.7544 9.4312-10.2042 1.7707-1.9767 3.4956-2.1749 5.2665-.217 3.9007 4.3128 6.9772 9.1262 8.8081 14.7029.7096 2.1614.0208 3.7416-1.9862 4.2805-8.5546 2.297-17.1573 4.4147-25.7443 6.591-.273.0691-.565.0632-.8479.0962zm10.0901-8.1998c4.5161-.8053 9.0322-1.6105 14.1975-2.5316-1.9497-2.3469-3.4898-4.2009-5.0299-6.0549-.706-1.3855-1.412-2.7711-2.2782-4.4712-4.1658 5.0136-7.7917 9.3773-11.4176 13.7411.1125.1951.225.3902.3376.5852 1.3968-.4228 2.7938-.8457 4.1906-1.2686z" fill="#371111"/><path d="m204.5535 466.8025c.8528-6.2108 1.5246-11.7408 2.4143-17.2356.3108-1.9192 1.692-3.0088 3.7667-2.3406 7.0066 2.2567 14.014 4.5152 20.9759 6.9045 2.5344.8698 2.9884 2.5794.995 4.5017-1.929 1.8601-4.2161 3.4692-6.5924 4.7202-4.9963 2.6304-10.105 5.0642-15.2632 7.3642-3.3805 1.5075-6.4605-.8903-6.2963-3.9144zm10.2642-4.9491c3.4962-1.2603 6.9923-2.5205 10.4885-3.7808-.0656-.3621-.1311-.7242-.1966-1.0863-2.6669-.7038-5.3338-1.4076-8.0006-2.1114-1.305-.4193-2.6101-.8386-4.207-1.3516-.9647 3.6117-1.8485 6.9207-2.7323 10.2297.2258.2296.4516.4592.6774.6888 1.3234-.8629 2.6469-1.7256 3.9706-2.5884z" fill="#381111"/><path d="m69.9134 421.6249c5.6257-5.1232 12.6424-7.1319 19.098-10.1905.7657-.3627 1.5692-.6458 2.3566-.9624 1.903-.7654 3.1633-.0939 3.7015 1.8113 1.6948 5.9989 3.3891 11.9989 4.9803 18.0258.9672 3.6633-.2729 5.2371-3.9737 4.4653-2.8946-.6037-5.6912-1.921-8.375-3.2393-5.0736-2.4921-10.0483-5.1877-15.0311-7.8604-.9717-.5212-1.793-1.3226-2.7566-2.0498zm19.2139 4.1784c.1915.1964.3829.3927.5743.589 1.2812 1.0399 2.5624 2.0799 3.8436 3.1198.199-.2357.398-.4714.5971-.7071-1.2156-3.5356-2.3598-7.0982-3.6864-10.5916-.4478-1.1793-1.2585-2.8401-2.4901-.3972-2.8466 1.0844-5.6932 2.1689-8.5398 3.2534-.0159.2821-.0318.5642-.0477.8463 3.2532 1.3117 6.5065 2.6234 9.7597 3.9351 0-.0001-.0107-.0477-.0107-.0477z" fill="#391111"/><path d="m262.7876 206.0316c-2.8873 4.8519-5.7515 9.7178-8.6676 14.5524-3.8616 6.4021-7.7124 12.8121-11.7034 19.1331-.6053.9586-2.0921 2.1537-2.9032 1.981-.9346-.199-1.963-1.6883-2.2675-2.8037-1.094-4.0073-1.9216-8.0885-2.8085-12.1508-.8913-4.0821.7182-7.2995 4.4523-9.3895 6.362-3.5607 12.6549-7.2456 19.0374-10.7685 1.3228-.7301 2.9099-.9812 4.3753-1.453.1617.2997.3235.5993.4852.899zm-22.0566 28.3748c4.1959-6.8324 7.9065-12.8745 11.9014-19.3796-.8805.2875-1.3128.3591-1.6755.5578-3.3851 1.8549-6.8152 3.6387-10.1004 5.6578-.9983.6135-2.328 1.9766-2.2302 2.8541.3602 3.2312 1.2556 6.4026 2.1047 10.3099z" fill="#381212"/><path d="m314.348 461.4143c-5.2711 4.4742-10.203 8.6532-15.126 12.8425-2.0253 1.7235-4.026 1.3974-5.8586-.2069-5.2861-4.6278-9.4209-10.1099-11.7605-16.7878-1.125-3.2112 1.0241-6.0011 4.2891-5.2456 8.7152 2.0165 17.6416 3.4094 25.7095 7.6259.7247.3787 1.3824.8857 2.7465 1.7719zm-12.1036 4.381c1.3398-1.0455 2.6795-2.091 4.706-3.6724-3.5513-.5946-6.1715-1.0332-8.7918-1.472-3.1472-.8707-6.2944-1.7415-9.4417-2.6122-.1815.2513-.3631.5025-.5446.7537 2.5486 4.2995 5.0973 8.599 7.9312 13.3797 2.3553-2.4457 4.2481-4.4112 6.1409-6.3768z" fill="#371111"/><path d="m329.2351 436.8636c-9.5094 5.9273-19.4943 4.0364-29.4442 2.0205-2.924-.5924-4.9429-5.2037-3.4469-7.8151 1.9224-3.3557 4.0268-6.6208 6.2582-9.7798 1.0662-1.5094 3.0215-1.8838 4.1496-.3107 5.5187 7.6961 14.1504 10.8847 21.8297 15.459.2409.1436.4706.3063.6536.4261zm-19.1655-5.1997c-1.1027-1.2929-2.1208-2.6755-3.3499-3.8343-.4875-.4595-1.9548-.7758-2.1062-.5567-1.4482 2.0967-2.7097 4.3223-4.2815 6.9379 3.6198.4554 6.4137.8069 9.2076 1.1584h5.4265c.0412-.1992.0823-.3984.1235-.5977-1.6732-1.0358-3.3466-2.0717-5.02-3.1076z" fill="#371111"/><path d="m176.2748 439.7561c-.5778 5.0678-1.1161 9.7163-1.6342 14.367-.2191 1.9668-.3267 3.9483-.6094 5.9052-.3326 2.3023-1.5573 3.7576-4.0445 3.987-6.4595.5956-12.9039 1.4176-19.375 1.7927-2.5217.1461-3.3683-1.4594-1.8266-3.4809 2.3235-3.0466 4.9082-6.0217 7.8693-8.4273 5.7757-4.692 11.8857-8.9728 17.8708-13.4057.3469-.2571.8143-.3515 1.7496-.738zm-11.8683 21.1679c1.2998.2173 2.5957.5559 3.9012.5981.5999.0194 1.7051-.4783 1.7542-.8506.5324-4.038.9004-8.0977 1.3132-12.1516-.2371-.1414-.4741-.2829-.7112-.4244-2.0501 1.99-4.1002 3.98-6.1503 5.97-3.1695 2.3329-6.339 4.6658-9.5084 6.9987.1622.301.3244.602.4867.903 2.9715-.3478 5.9431-.6955 8.9146-1.0432z" fill="#391212"/><path d="m250.7169 87.384c3.6184 2.7829 6.5859 5.0301 9.5125 7.3294 1.7116 1.3448 3.5829 2.5867 4.9466 4.2353.7782.9409 1.3172 2.8842.8734 3.8995-2.7234 6.2301-5.7376 12.334-8.7106 18.4528-.4708.9689-1.2232 1.801-2.2575 3.2893-4.6112-12.1755-4.4823-24.1632-4.3644-37.2063zm4.4173 10.6693c.3419 5.0893.6341 9.4376.9262 13.7858.2297.044.4594.0881.6891.1321 1.7261-3.4824 3.4523-6.9648 5.2683-10.6285-2.2343-1.0676-4.0733-1.9464-6.8836-3.2894z" fill="#381212"/><path d="m237.5937 312.9812c-.6188 9.3051-1.1629 18.1299-1.8472 26.9439-.0832 1.0716-.9216 2.0844-1.41 3.1245-.894-.5574-1.9506-.9597-2.6544-1.6983-3.5829-3.7602-7.0635-7.6176-10.6031-11.4194-1.5623-1.678-1.5331-3.3346-.1056-5.0574 3.7291-4.5005 7.3482-9.0995 11.2545-13.4401.8881-.9868 2.752-1.3637 4.1884-1.4149.3976-.0142.8729 2.1538 1.1774 2.9617zm-10.283 11.0615c-1.2999 1.0191-2.5999 2.0382-3.9457 3.0933 3.1341 2.9123 5.5631 5.1693 8.5885 7.9805 0-2.7407 0-4.5718 0-6.4029.2472-3.1117.4943-6.2234.7415-9.3352-.3333-.1183-.6667-.2366-1-.3549-1.4614 1.6731-2.9228 3.3462-4.3843 5.0192z" fill="#381111"/><path d="m285.4692 175.7097c-.7527.7975-1.503 2.132-2.6374 2.7018-5.0628 2.5425-10.1972 4.9562-15.4088 7.1742-.7909.3366-2.4666-.2983-3.1169-1.0308-.7415-.8352-1.4249-2.563-1.045-3.4208 3.2802-7.4062 6.7464-14.733 10.325-22.0007.5174-1.0507 1.9267-1.6623 2.9233-2.4772.7262.8994 1.6869 1.695 2.1388 2.7159 2.2067 4.9842 4.2785 10.028 6.3937 15.0526.11.2608.1808.538.4273 1.285zm-14.7543 2.7931c1.2491-.3739 2.5101-.7123 3.7453-1.1277 7.2633-2.4422 7.3259-2.631 3.2576-9.2027-.4515-1.4642-.9029-2.9285-1.5605-5.0613-2.5359 5.2702-4.6314 9.5959-6.6868 13.9406-.2181.461-.2001 1.0337-.2917 1.5546.5121-.0345 1.0241-.069 1.5361-.1035z" fill="#3a1212"/><path d="m263.8791 360.7849c-2.4895-3.2754-4.9789-6.5507-7.4675-9.8256 2.3231-2.0845 4.7553-4.0603 6.9505-6.2715 18.8078-18.9445 38.6386-36.8904 55.937-57.3141 1.3227-1.5616 1.2906-2.4098-.141-3.6914-7.0009-6.2669-13.9406-12.6021-20.9226-18.8901-4.0746-3.6695-8.1882-7.2957-12.4505-11.0894 2.7403-3.005 5.2651-5.8185 7.8387-8.5866 4.9819-5.3585 10.1478-10.5549 14.9543-16.0655 8.173-9.3702 16.048-19 24.2069-28.3828 3.8903-4.4738 6.0566-8.7068 4.3263-15.213-4.8961-18.411-8.9312-37.0503-13.4081-55.5748-.4265-1.765-.1444-2.8085 1.2422-3.9112 2.3015-1.8302 4.3871-3.931 6.6794-5.7737 9.9975-8.0363 20.6296-15.1626 33.3601-17.8082 10.7344-2.2308 21.6851-3.4337 32.5528-5.0036 4.5559-.6581 9.1446-1.0893 13.7184-1.6237 12.5619 3.1682 24.72 7.3235 35.8509 14.1542 13.5631 8.3233 23.5771 19.7454 30.5877 33.9854 4.3515 8.8388 7.2867 18.1011 9.2795 27.702.1912.9212.2102 1.8782.3089 2.8191-.5625 5.5509-.4578 11.2721-1.8275 16.6154-2.7512 10.7324-6.1634 21.3051-9.5881 31.8511-1.8671 5.7494-3.49 11.8318-6.6607 16.8569-9.7907 15.5168-21.4871 29.5752-34.8388 42.2334-11.2525 10.6681-23.1542 20.5717-36.3183 28.7147-11.9373 7.3842-24.2145 14.3073-36.767 20.5832-11.7814 5.8904-23.8542 11.4387-36.2881 15.7147-12.1286 4.1711-24.8273 6.7563-37.3705 9.6231-7.8243 1.7883-15.824 2.8076-23.7449 4.172z" fill="#de3e48"/><path d="m263.8791 360.7849c7.9209-1.3644 15.9207-2.3838 23.7448-4.172 12.5432-2.8668 25.242-5.4521 37.3705-9.6231 12.4339-4.276 24.5067-9.8243 36.2881-15.7147 12.5525-6.2759 24.8297-13.1989 36.767-20.5832 13.1641-8.143 25.0658-18.0466 36.3183-28.7147 13.3517-12.6582 25.048-26.7166 34.8388-42.2334 3.1707-5.0251 4.7936-11.1075 6.6607-16.8569 3.4247-10.546 6.8369-21.1188 9.5881-31.8511 1.3698-5.3433 1.265-11.0646 1.8275-16.6154 1.1171 6.3043 2.77 12.5689 3.2474 18.9219 1.2851 17.0989-1.7261 33.574-7.8213 49.6202-7.4712 19.6688-17.0089 38.1468-30.3057 54.5078-10.5014 12.9214-22.3344 24.5933-35.3584 34.9594-10.6868 8.5058-21.4571 16.9573-32.6766 24.7311-17.1786 11.9026-36.0887 20.5466-55.5325 28.1354-13.5237 5.2781-26.8881 10.9906-40.1671 16.863-14.9359 6.6051-29.6977 13.6039-44.5298 20.4433-1.8046.8322-3.5753 1.7378-5.3617 2.6094l.0274.0287c2.0954-3.3401 4.0261-6.7979 6.3156-9.9992 8.6662-12.1177 17.456-24.1471 26.1831-36.2214 2.3044-3.1883 2.1924-3.9959-.1479-7.347-2.4988-3.5782-4.8568-7.2546-7.2763-10.8881z" fill="#b31418"/><path d="m411.256 95.7598c-4.5738.5344-9.1624.9656-13.7184 1.6237-10.8677 1.5699-21.8184 2.7728-32.5528 5.0036-12.7305 2.6456-23.3626 9.7719-33.3601 17.8082-2.2924 1.8427-4.378 3.9435-6.6794 5.7737-1.3866 1.1026-1.6687 2.1462-1.2422 3.9112 4.4769 18.5245 8.512 37.1638 13.4081 55.5748 1.7303 6.5063-.436 10.7392-4.3263 15.213-8.1589 9.3828-16.034 19.0125-24.2069 28.3828-4.8064 5.5106-9.9724 10.707-14.9543 16.0655-2.5736 2.7681-5.0985 5.5816-7.8387 8.5866 4.2623 3.7936 8.3759 7.4198 12.4505 11.0894 6.9821 6.288 13.9218 12.6232 20.9226 18.8901 1.4317 1.2816 1.4637 2.1298.141 3.6914-17.2985 20.4237-37.1292 38.3697-55.937 57.3141-2.1952 2.2112-4.6274 4.187-6.9505 6.2715-2.6102-2.7267-5.2196-5.4531-8.0379-8.3977 3.9209-3.2253 7.7198-6.1924 11.3437-9.3595 13.7245-11.9948 27.4576-23.9814 41.0448-36.1307 4.5871-4.1016 4.2875-5.5842.2403-10.7519-10.1692-12.9845-22.492-23.585-35.9393-32.9793-1.1463-.8008-2.2463-1.668-3.5356-2.6294 7.1885-5.5879 14.2695-11.0023 21.2531-16.5396 14.4317-11.4429 28.8683-22.8813 43.1815-34.4713 4.9199-3.9839 6.2971-9.2769 4.2068-15.3521-7.3173-21.2668-14.9114-42.4269-25.0044-62.5785-1.1031-2.2025-.6795-3.3528 1.1786-4.7159 18.6164-13.6573 39.4016-21.6381 62.3117-24.3848 14.4369-1.7308 28.5878-.5157 42.6011 3.0911z" fill="#f698ad"/><path d="m304.4542 171.1136c-2.265-7.7975-4.4763-15.6111-6.8159-23.3861-1.335-4.4365-2.7727-8.8492-4.3697-13.1972-.9375-2.5525-1.0232-4.6809 1.0714-6.739 1.396-1.3716 2.4925-3.048 4.0919-5.0498 1.7575 3.9719 3.4377 7.4973 4.8931 11.1133 3.3952 8.4357 6.7308 16.8965 9.969 25.3934.5895 1.5469.6026 3.3134.8818 4.9786-3.2404 2.2956-6.481 4.5912-9.7216 6.8868z" fill="#ad1417"/><path d="m304.4542 171.1136c3.2406-2.2956 6.4812-4.5912 9.7218-6.8868 1.7127 3.9858 3.395 7.9852 5.1466 11.9538 1.8322 4.151 3.7092 8.2827 5.6147 12.4006.5544 1.198 1.0804 2.179-.5162 3.0855-9.2753 5.2666-17.6292 11.7906-25.5534 18.8921-.1944.1742-.4865.2393-1.2657-.1422 1.2888-1.4706 2.57-2.9479 3.868-4.4104 2.6942-3.0357 5.6184-5.9034 7.9873-9.1738.9435-1.3027 1.2529-3.6375.8445-5.2472-1.7443-6.8759-3.8646-13.6564-5.8476-20.4716z" fill="#860e10"/><path d="m258.1595 323.1008c1.2044-2.2843 2.3739-4.5879 3.6201-6.8491 3.1596-5.7327 6.3636-11.441 9.5229-17.1739.4543-.8245 1.1385-1.7635 1.0671-2.5936-.2749-3.192 1.6398-3.2395 3.9479-3.205 5.2059.0778 10.4138.0244 16.0581.6989-11.1878 9.8709-22.3757 19.7419-33.5635 29.6128-.2176-.1633-.4351-.3267-.6526-.4901z" fill="#860e10"/><path d="m292.1019 288.1655c-2.5088 0-5.0177-.0076-7.5264.0021-2.5619.0099-5.1482.2503-7.6749-.0381-1.1813-.1349-2.8038-1.012-3.2785-2.0056-4.0824-8.544-7.9504-17.1905-11.8654-25.8141-.1029-.2267-.013-.541-.013-1.858 10.6234 9.7071 20.7154 18.9286 30.8073 28.1501-.1497.5212-.2994 1.0424-.4491 1.5636z" fill="#ac1417"/><path d="m255.5867 361.7912c3.4417 4.3851 6.9364 8.7312 10.2417 13.2168.3238.4395-.2923 1.919-.8515 2.6077-5.3788 6.6241-10.882 13.1472-16.2515 19.7787-1.7719 2.1883-3.2586 4.6074-5.4016 6.6797.9376-2.3999 1.8323-4.8178 2.8217-7.1962 2.113-5.0797 4.1974-10.1737 6.4363-15.1982 2.9073-6.5243 1.4611-12.7977-.8205-19.0659 1.2754-.2749 2.5504-.5487 3.8254-.8226z" fill="#ac1417"/><path d="m255.5867 361.7912c-1.275.2738-2.55.5477-3.8255.8224-.7005-2.7405-1.4006-5.4819-2.1006-8.2232l-.0428.0392c1.9896 2.4539 3.9792 4.9078 5.9689 7.3616z" fill="#d53b44"/><path d="m249.6606 354.3904c-.1432-.155-.2892-.3078-.4215-.4716-.0066-.0081.1052-.112.1619-.1713.0723.2273.1447.4546.2169.682-.0001.0001.0427-.0391.0427-.0391z" fill="#d53b44"/><g fill="#860e10"><path d="m294.7673 213.3531c-.1872.1954-.3743.3909-.5615.5864l-.041-.041c.1942-.1884.3884-.3768.5826-.5652z"/><path d="m294.2058 213.9394c-.0922.0829-.1844.1658-.2766.2488.0787-.0964.1575-.1929.2359-.2895-.0002-.0003.0407.0407.0407.0407z"/><path d="m294.7474 213.3332c.0958-.0836.1916-.1673.2875-.2509-.0893.0902-.1786.1804-.2677.2706.0001.0002-.0198-.0197-.0198-.0197z"/></g><path d="m238.7773 425.2117c-.0327.0673-.0543.1447-.1026.1979-.0266.0292-.0981.0176-.1494.0243.093-.0646.186-.1292.2792-.1936.0002.0001-.0272-.0286-.0272-.0286z" fill="#b31418"/><path d="m174.9355 53.3492c14.0279 5.7801 25.9747 14.4196 35.983 25.8367 14.275 16.2843 23.2168 35.4363 30.2196 55.6452 2.8589 8.2504 5.4816 16.5831 8.3867 24.8167.9437 2.6744.0527 4.3015-1.9878 5.8197-13.8679 10.318-27.7668 20.5956-41.5406 31.0381-5.138 3.8953-9.9438 8.2265-14.9529 12.2951-1.4202 1.1535-1.545 2.3495-.9983 4.0072 2.5724 7.799 7.2556 14.3835 11.8828 21.0086 8.1573 11.6794 16.312 23.3607 24.3091 34.814-17.6525 11.7123-35.1675 23.3334-53.1099 35.2381 3.4714 3.8576 6.4674 7.3731 9.6596 10.7006 11.3161 11.7959 22.7067 23.5201 34.0453 35.2945 1.1832 1.2287 2.0685 2.7668 3.3323 3.8914 4.1675 3.7083 5.233 7.81 2.0068 12.6436-3.2899.1916-6.5818.3581-9.8698.5814-5.0054.3399-10.0055.763-15.0128 1.0687-4.3582.2661-8.5391.4816-12.2584-2.9294-4.0348-3.7004-8.6912-6.7156-13.0018-10.1241-11.5967-9.1698-23.494-17.9984-34.6387-27.6906-13.4637-11.709-26.3574-24.0806-39.3378-36.335-7.0266-6.6336-13.8334-13.5114-20.5296-20.4803-5.7847-6.0203-11.213-12.3816-16.9145-18.4841-3.6092-3.863-7.4305-7.5277-11.1567-11.2813-1.0356-3.022-2.2221-6.0025-3.0687-9.0766-1.0562-3.8349-1.6544-7.7987-2.7649-11.6153-2.6403-9.0741-4.4266-18.2581-3.9727-27.7487.5092-10.6448 2.6356-21.0268 4.9445-31.4155 4.6114-20.7487 10.983-40.6624 24.2637-57.7639 4.5918-5.9129 8.3885-12.4779 13.2603-18.1316 9.7903-11.3615 22.9235-18.3226 35.7483-25.5463 8.5142-4.7957 17.9395-6.6579 27.6042-7.0603 6.7137-.2796 13.4505-.1728 20.1721-.0226 3.1051.0689 6.1987.6544 9.2976 1.006z" fill="#de3e48"/><path d="m49.451 240.7237c3.7262 3.7536 7.5475 7.4184 11.1567 11.2813 5.7015 6.1025 11.1297 12.4638 16.9145 18.4841 6.6963 6.969 13.503 13.8467 20.5296 20.4803 12.9804 12.2544 25.8742 24.626 39.3378 36.335 11.1447 9.6923 23.0421 18.5208 34.6387 27.6906 4.3107 3.4085 8.967 6.4238 13.0018 10.1241 3.7193 3.411 7.9002 3.1956 12.2584 2.9294 5.0073-.3058 10.0074-.7288 15.0128-1.0687 3.288-.2233 6.5798-.3897 9.8698-.5814-7.028 18.8253-14.0557 37.6502-21.2667 56.9661-4.0788-3.3662-7.6437-6.2937-11.1928-9.2402-10.9482-9.0894-21.9267-18.1429-32.8233-27.2939-8.3603-7.021-16.6833-14.0898-24.8951-21.2832-7.4994-6.5694-15.0717-13.0858-22.1809-20.0644-16.2058-15.9081-29.8771-33.8609-41.7646-53.1926-2.9842-4.8529-6.1251-9.6093-9.1468-14.4395-.5376-.8594-.8428-1.8641-1.2543-2.8018-.0484-1.0091.0697-2.0606-.1732-3.0208-2.6415-10.443-5.3397-20.8718-8.0224-31.3044z" fill="#b31418"/><path d="m49.451 240.7237c2.6827 10.4327 5.3809 20.8615 8.0225 31.3046.2429.9602.1248 2.0117.1732 3.0208-3.937-7.77-8.1993-15.3946-11.7388-23.3412-6.7119-15.0687-13.2524-30.206-17.8909-46.1149-7.7335-26.5238-7.0247-52.7814 1.4183-78.9785 4.6707-14.4925 11.0178-28.1413 20.5728-40.061 18.3916-22.9434 41.7393-37.5141 71.2872-41.2333 17.6277-2.2188 34.5934.7956 51.1588 6.7272.8711.3119 1.6564.8633 2.4816 1.3025-3.0989-.3522-6.1925-.9378-9.2977-1.0071-6.7216-.1502-13.4584-.257-20.1721.0226-9.6647.4025-19.09 2.2647-27.6042 7.0603-12.8248 7.2237-25.958 14.1847-35.7483 25.5463-4.8718 5.6537-8.6685 12.2186-13.2603 18.1316-13.2807 17.1015-19.6524 37.0152-24.2637 57.7639-2.3089 10.3888-4.4354 20.7708-4.9445 31.4155-.454 9.4906 1.3323 18.6747 3.9727 27.7487 1.1105 3.8166 1.7088 7.7804 2.7649 11.6153.8464 3.0741 2.0328 6.0546 3.0685 9.0767z" fill="#f799b2"/><path d="m208.4328 204.0944c7.7004-5.6193 15.3945-11.2474 23.1077-16.8492 1.2414-.9016 2.5679-1.6861 3.8551-2.5247.166.1653.3321.3305.4981.4957-1.9256 3.6196-3.8575 7.2359-5.7744 10.8602-1.1034 2.0862-1.9572 4.3495-3.3323 6.2348-1.5283 2.0952-3.3684 4.031-5.3455 5.7161-3.8084 3.246-7.8089 6.2666-11.7301 9.3802-.2109-3.7615-.395-7.5245-.6558-11.2821-.0478-.6881-.4072-1.3546-.6228-2.031z" fill="#860e10"/><path d="m205.7686 301.4167c-4.4712 4.0282-8.9424 8.0564-13.5595 12.2161-3.1998-2.7036-6.0545-5.1156-9.2704-7.8329 3.9119-2.4178 7.3853-4.6605 10.952-6.7437 4.0731-2.3788 8.2291-4.6156 12.3491-6.914-.1571 3.0916-.3141 6.183-.4712 9.2745z" fill="#ac1417"/><path d="m205.7686 301.4167c.157-3.0915.3141-6.1829.4712-9.2745 6.826-4.9997 13.652-9.9994 20.691-15.155.6914 3.1743 1.4137 6.2599 1.9825 9.3735.0768.4206-.5059 1.1603-.9713 1.4516-7.1937 4.5022-14.4181 8.9554-21.6388 13.4143-.1573.0972-.3555.1282-.5346.1901z" fill="#860e10"/><path d="m234.9552 364.6335c1.5818.7537 2.0183 1.9814 1.2188 3.4913-7.2773 13.7437-14.5847 27.4714-21.8904 41.2-.0332.0624-.17.0697-.9368.3565 6.4948-14.5227 13.0202-28.5524 15.4346-43.969 2.0571-.3593 4.1154-.7191 6.1738-1.0788z" fill="#a91416"/><path d="m208.4328 204.0944c.2156.6764.575 1.3429.6228 2.031.2608 3.7576.4449 7.5206.6558 11.2821-1.5917 1.621-3.0756 3.3775-4.8401 4.7814-.5451.4337-2.216.2772-2.7497-.2448-2.0906-2.0447-3.9314-4.3446-5.8675-6.5475-1.1199-1.2742-.9923-2.2148.5011-3.21 3.9402-2.6259 7.7911-5.3858 11.6776-8.0922z" fill="#ad1417"/><path d="m234.9552 364.6335c-2.0584.3597-4.1167.7195-6.1738 1.0788.1148-2.1552.2282-4.3099.3416-6.4646.212-.1662.424-.3323.636-.4985 1.7321 1.9614 3.4641 3.9229 5.1962 5.8843z" fill="#d83c45"/><path d="m281.69 51.6572c3.1455.9094 6.2911 1.8188 10.0777 2.9136-4.9032 4.5277-9.3527 8.6365-14.3646 13.2646-.5349-4.0028-.9647-7.2188-1.3947-10.4349 1.8937-1.9146 3.7877-3.829 5.6816-5.7433z" fill="#ac1417"/><path d="m281.69 51.6572c-1.894 1.9144-3.7879 3.8287-5.6816 5.7432-.5727-2.9323-1.1456-5.8648-1.879-9.6188 2.9486 1.5115 5.2546 2.6935 7.5606 3.8756z" fill="#d63b45"/><path d="m220.5519 39.6339c1.4547.6835 3.1043 1.1304 4.3061 2.1208 1.0793.8895 2.2463 2.3209 2.3689 3.609.4914 5.1625.5915 10.3623.8364 15.5483-.2538.12-.5076.2401-.7614.3601-2.4609-3.9183-4.9219-7.8367-7.3826-11.7553.2109-3.2945.4217-6.5887.6326-9.8829z" fill="#ac1417"/><path d="m220.5519 39.6339c-.2108 3.2942-.4217 6.5884-.6326 9.8829-3.2054-4.2101-6.4153-8.417-9.6134-12.6329-1.1631-1.5334-2.298-3.0882-3.4458-4.6332.1777-.2086.3554-.4172.5331-.6257 4.3862 2.6696 8.7724 5.3393 13.1587 8.0089z" fill="#d63b45"/><path d="m257.0518 458.2809c2.7865 2.385 5.6386 4.701 8.2921 7.2259.4217.4013.3108 2.1187-.1727 2.5822-1.9694 1.8882-4.1794 3.5255-6.3011 5.2543-.6063-5.0213-1.2123-10.0419-1.8183-15.0624z" fill="#af1418"/><path d="m257.0518 458.2809c.606 5.0205 1.212 10.0411 1.8183 15.0624-.5995.8222-1.1993 1.6435-2.1801 2.9864-1.4904-7.9595-2.874-15.3487-4.2576-22.7379.2404-.1433.4808-.2865.7212-.4298 1.2995 1.7063 2.5989 3.4126 3.8982 5.1189z" fill="#d63b45"/><path d="m315.8576 77.4149c-1.3969.4229-2.7938.8458-4.1907 1.2687-.1125-.1951-.225-.3902-.3376-.5852 3.6259-4.3638 7.2518-8.7275 11.4176-13.7411.8663 1.7001 1.5722 3.0857 2.2783 4.4715-1.3087 4.3644-4.4566 6.7121-8.6523 7.9376-.2164.0632-.3455.4254-.5153.6485z" fill="#d83c46"/><path d="m315.8576 77.4149c.1698-.223.2989-.5853.5153-.6485 4.1957-1.2255 7.3436-3.5733 8.6523-7.9376 1.5401 1.8537 3.0802 3.7076 5.0299 6.0546-5.1653.9209-9.6814 1.7262-14.1975 2.5315z" fill="#ac1417"/><path d="m214.8177 461.8534c-1.3236.8628-2.6472 1.7255-3.9708 2.5883-.2258-.2296-.4516-.4592-.6774-.6888.8838-3.309 1.7677-6.618 2.7323-10.2297 1.5969.5131 2.902.9324 4.207 1.3518-.7637 2.3263-1.5274 4.6524-2.2911 6.9784z" fill="#d53b44"/><path d="m214.8177 461.8534c.7637-2.326 1.5275-4.6521 2.2912-6.9783 2.6669.7036 5.3338 1.4074 8.0006 2.1112.0656.3621.1311.7242.1966 1.0863-3.4961 1.2603-6.9923 2.5205-10.4884 3.7808z" fill="#a91416"/><path d="m89.138 425.8509c-3.2532-1.3117-6.5065-2.6234-9.7597-3.9351.0159-.2821.0318-.5642.0477-.8463 2.8466-1.0844 5.6932-2.1689 8.5404-3.2537.3909 2.6782.7813 5.3566 1.1716 8.0351z" fill="#d83c46"/><path d="m89.138 425.8509c-.3904-2.6785-.7807-5.3569-1.1716-8.035 1.2309-2.4426 2.0416-.7818 2.4895.3976 1.3266 3.4933 2.4709 7.056 3.6864 10.5916-.199.2357-.398.4714-.5971.7071-1.2812-1.0399-2.5624-2.0799-3.8433-3.1198-.1914-.1964-.383-.3927-.5746-.589z" fill="#a71417"/><path d="m89.1273 425.8033c.1916.1963.3833.3926.5746.589-.1917-.1963-.3832-.3926-.5746-.589z" fill="#d83c46"/><path d="m240.731 234.4064c-.8491-3.9073-1.7445-7.0787-2.1046-10.3098-.0978-.8776 1.2319-2.2406 2.2302-2.8541 3.2851-2.0191 6.7153-3.803 10.1004-5.6578.3627-.1987.795-.2704 1.6755-.5578-3.995 6.505-7.7056 12.5472-11.9015 19.3795z" fill="#a91416"/><path d="m302.2444 465.7953c-1.8928 1.9656-3.7856 3.9311-6.1409 6.3769-2.8339-4.7808-5.3825-9.0803-7.9312-13.3797.1815-.2513.363-.5025.5446-.7537 3.1472.8707 6.2944 1.7415 9.4419 2.6122 1.362 1.7147 2.7238 3.4294 4.0856 5.1443z" fill="#d83c46"/><path d="m302.2444 465.7953c-1.3618-1.7148-2.7236-3.4296-4.0856-5.1443 2.6201.4387 5.2403.8774 8.7916 1.472-2.0265 1.5813-3.3663 2.6268-4.706 3.6723z" fill="#a71417"/><path d="m309.5396 435.3693c-2.7939-.3515-5.5878-.703-9.2076-1.1584 1.5717-2.6156 2.8333-4.8412 4.2815-6.9379.1514-.2192 1.6187.0971 2.1062.5567 1.2291 1.1588 2.2472 2.5414 3.3505 3.8338-.1766 1.2349-.3536 2.4704-.5306 3.7058z" fill="#d83c45"/><path d="m309.5396 435.3693c.177-1.2354.354-2.4709.5305-3.7058 1.6728 1.0363 3.3462 2.0722 5.0195 3.1081-.0412.1992-.0823.3984-.1235.5977-1.8088 0-3.6177 0-5.4265 0z" fill="#a71417"/><path d="m164.5136 454.0654c2.0501-1.99 4.1002-3.98 6.1503-5.97.237.1415.4741.283.7112.4244-.4129 4.0538-.7809 8.1135-1.3132 12.1516-.0491.3723-1.1542.87-1.7542.8506-1.3055-.0422-2.6014-.3807-3.9005-.5967.036-2.2856.0712-4.5728.1064-6.8599z" fill="#a91416"/><path d="m164.5136 454.0654c-.0352 2.2871-.0704 4.5742-.1064 6.8599-2.9723.3463-5.9438.694-8.9153 1.0418-.1622-.301-.3244-.602-.4867-.903 3.1695-2.3329 6.339-4.6658 9.5084-6.9987z" fill="#d53b44"/><path d="m255.1342 98.0533c2.8103 1.3429 4.6493 2.2217 6.8836 3.2894-1.816 3.6637-3.5421 7.1461-5.2683 10.6285-.2297-.044-.4594-.0881-.6891-.1321-.2921-4.3482-.5843-8.6965-.9262-13.7858z" fill="#ac1417"/><path d="m231.9535 328.7136v6.4029c-3.0254-2.8112-5.4544-5.0682-8.5885-7.9805 1.3459-1.0551 2.6458-2.0742 3.9458-3.0929 1.5476 1.5571 3.0952 3.1138 4.6427 4.6705z" fill="#d83c46"/><path d="m231.9535 328.7136c-1.5476-1.5567-3.0951-3.1134-4.6427-4.6705 1.4614-1.6735 2.9228-3.3466 4.3842-5.0197.3333.1183.6667.2366 1 .3549-.2472 3.1118-.4943 6.2236-.7415 9.3353z" fill="#ac1417"/><path d="m277.7178 168.1725c4.0683 6.5716 4.0057 6.7605-3.2576 9.2027-1.2352.4153-2.4962.7537-3.7447 1.1275 2.3345-3.4435 4.6684-6.8869 7.0023-10.3302z" fill="#af1418"/><path d="m277.7178 168.1725c-2.334 3.4433-4.6678 6.8867-7.0023 10.3302-.5126.0347-1.0246.0692-1.5367.1037.0916-.5209.0736-1.0936.2917-1.5546 2.0554-4.3447 4.1509-8.6703 6.6868-13.9406.6576 2.1328 1.1091 3.597 1.5605 5.0613z" fill="#d53b44"/></g></svg>