<svg id="Layer_1" enable-background="new 0 0 512 512" height="512" viewBox="0 0 512 512" width="512" xmlns="http://www.w3.org/2000/svg"><g><path d="m38.2194 400.4553c-.0054-.1199.0391-.2965-.0235-.3517-3.2553-2.8702-3.6142-4.1029-1.8188-8.1679 3.5335-8.0002 7.1473-15.9654 10.7788-23.9219 5.3066-11.6267 10.656-23.2339 15.9916-34.8473 1.1722-2.5514.6963-4.8943-.65-7.2643-5.6013-9.8605-10.1918-20.1729-13.5145-31.026-5.6246-18.3719-7.203-37.0692-4.7043-56.1476 2.7683-21.1375 9.9586-40.5654 22.1692-58.0477 12.5143-17.9172 28.2642-32.4012 47.0603-43.561 14.5104-8.6152 30.0934-14.3687 46.6941-17.3358 21.1242-3.7756 41.7998-1.9724 61.9904 5.2616 1.9022.6815 3.3066.4727 4.9501-.7707 17.6699-13.3678 37.6972-20.7205 59.6129-23.3104 25.9554-3.0673 50.5173 1.9349 74.1178 12.581 17.8566 8.055 33.8029 18.86 46.8742 33.5651 18.5536 20.8726 29.6579 45.2206 33.2339 72.9289 2.0406 15.812.7597 31.4688-2.7064 46.9848-.7168 3.209-1.3199 6.4433-2.0168 9.657-.3246 1.4969-.0471 2.6908.9821 3.9337 13.857 16.735 27.6694 33.5069 41.4569 50.2992.931 1.1339 1.804 2.4203 2.3022 3.7828 1.0364 2.8343-.5359 5.4591-3.5434 5.6427-2.6342.1608-5.3324-.0793-7.9543-.4669-19.3573-2.8615-38.7649-5.1521-58.3344-5.9861-4.4721-.1906-7.9772.4074-11.4194 4.0072-13.9796 14.6193-30.3862 25.8779-49.183 33.5233-16.7404 6.8089-34.2083 10.2065-52.2122 11.0653-10.8284.5165-21.5909-.1073-32.3236-1.6321-1.6053-.2281-3.5258.0906-4.9899.7986-15.2067 7.3542-31.1462 12.3148-47.8305 14.8517-30.0384 4.5674-58.9234.8018-86.4136-12.3633-5.1923-2.4866-10.1507-5.4692-15.1665-8.3122-1.462-.8287-2.7672-1.0196-4.3989-.4785-21.2173 7.0352-42.2861 14.4574-62.7245 23.567-1.5318.6827-3.1941 1.0725-4.7958 1.5984-.4966-.0191-.9934-.038-1.4902-.0569zm190.1602-231.995c-6.0807.5231-11.2217 2.8911-15.1188 7.701-1.5588 1.9816-3.391 3.8075-4.625 5.9742-3.6375 6.3868-4.3797 13.3719-3.3966 20.5386 1.6072 11.7167 6.3485 22.2593 12.5884 32.1606 5.4539 8.6541 12.2779 16.1812 19.6177 23.2759 7.3295 7.0847 15.1408 13.5897 23.5291 19.3512 7.0009 4.8087 14.1902 9.3553 21.4299 13.7999 4.5427 2.7888 9.3178 5.2026 14.0243 7.718.9821.5249 2.1637 1.3013 3.1214-.1332 1.2022-1.801 2.3729-3.623 3.5573-5.436.7592-.9657 1.6068-1.8752 2.2635-2.9062 4.4586-6.9997 8.9216-13.9973 13.2878-21.0547 1.9483-3.1491 3.6755-6.435 5.503-9.6588 3.4868-6.912 7.309-13.678 10.3931-20.7652 7.1494-16.429 10.8063-33.6179 9.9774-51.6258-.4341-9.4304-2.895-18.1301-9.4391-25.2756-3.3796-3.6902-7.0164-7.0428-12.1116-8.2266-.2345-.065-.469-.1299-.7035-.1949-.5688-.2194-1.1214-.5061-1.7089-.648-8.9031-2.1507-16.3875.5491-22.7312 6.831-5.8248 5.7682-9.9813 12.6558-12.7516 20.3221-1.4464 4.0027-2.3828 8.1897-3.5495 12.2934-.4855.14-.971.2801-1.4565.4201-2.0621-2.085-4.1572-4.1385-6.1807-6.2603-8.6975-9.1201-19.4362-14.6147-31.5228-17.6289-4.5918-1.1452-9.2844-1.5416-13.9971-.5718zm39.8318 4.1412c.01.0801.0201.1601.0301.2402.0152-.0296.0509-.0703.0419-.0869-.0267-.0495-.0708-.0895-.1082-.1332-.3862-.771-.7162-1.5767-1.1668-2.308-9.6738-15.6981-22.8241-27.513-39.6842-35.0191-18.1776-8.0926-37.2328-11.0372-57.0345-9.0756-14.3545 1.422-27.8817 5.6721-40.7844 12.0285-.9762.3767-1.9955.6689-2.9221 1.1425-20.5108 10.4829-37.9974 24.5738-51.455 43.4043-18.9114 26.4616-26.5434 55.9168-22.6798 88.1791 2.3347 19.4958 8.9418 37.605 19.4062 54.2585.9122 1.4517 1.082 2.8447.4124 4.4014-1.5201 3.5341-3.0049 7.0833-4.5201 10.6195-4.252 9.9234-8.5122 19.8434-12.7692 29.7646-2.8913 6.3164-5.7826 12.6328-8.674 18.9491.1671.1156.3343.2311.5014.3467.6283-.2306 1.2657-.439 1.8833-.6953 4.9883-2.0702 9.9965-4.0947 14.9541-6.2361 15.1354-6.5379 30.9017-11.2313 46.6235-16.0621 1.5396-.4731 2.7023-.0757 3.9236.9141 1.7763 1.4394 3.6048 2.8713 5.5907 3.9863 21.3866 12.0068 44.2554 18.8568 68.8813 18.7416 8.4581-.0396 16.9686-.9402 25.353-2.1534 18.0054-2.6055 34.8801-8.6705 50.6181-17.8421 9.5661-5.5748 18.2257-12.2526 25.3233-20.8199 8.337-10.0633 12.0994-21.7636 12.4253-34.7155.1392-5.5314.1485-5.6231-5.3783-6.5036-.4254-.2521-.8391-.5269-1.2779-.753-8.5972-4.4309-17.1974-8.8561-25.797-13.2824-.4866-.3753-.9577-.773-1.4621-1.1225-4.6951-3.2528-9.4608-6.4078-14.0835-9.7603-16.5575-12.0079-31.3578-25.7976-42.6008-43.0465-8.4389-12.947-14.2081-26.8397-14.4729-42.6205-.1214-7.2359 1.5181-13.9305 5.486-19.9546 1.8678-2.8358 4.1526-5.397 6.2484-8.0826 9.4579-7.6536 20.1034-10.1243 31.963-7.3487 3.1919.747 6.397 1.4378 9.596 2.1544 5.4191 2.7436 10.8347 5.4943 16.2646 8.2162.3956.1982.8959.1873 1.3446.2749zm31.8486 201.2481c.372-.0133.744-.0267 1.116-.04.1212-.004.2425-.008.3637-.012 3.8213-.3348 7.6698-.4832 11.459-1.0371 15.3185-2.2394 30.0498-6.4397 43.9538-13.3829 9.326-4.6571 17.7373-10.6648 25.8959-17.0803 5.3787-4.2296 10.618-8.6063 14.5427-14.285 1.2182-1.7626 2.6234-2.3498 4.7017-2.2059 6.1832.4281 12.3785.6778 18.5657 1.0536 7.7368.4699 15.4756.9268 23.203 1.5245 4.3805.3388 8.7401.9482 13.109 1.4358 4.0243.7285 8.0487 1.4569 12.0731 2.1854-6.0524-8.1919-12.2441-15.9412-18.4647-23.6671-6.8138-8.4626-13.6248-16.9278-20.5007-25.3398-2.1362-2.6135-2.9089-5.3671-1.8922-8.6489 4.7433-15.3115 6.0204-31.0194 5.1194-46.9395-1.0017-17.6992-6.0245-34.2764-14.2916-49.9066-7.489-14.1592-17.272-26.4697-29.5978-36.7413-8.8766-7.3972-18.6878-13.3132-29.0233-18.3908-18.5955-9.1355-38.1532-14.3489-58.9822-14.298-14.0245.0342-27.6947 2.2397-40.9541 6.8157-5.8093 2.0049-11.492 4.3335-16.6138 7.8244-3.6284 2.1931-7.2568 4.3862-11.118 6.7201 10.3748 5.6116 19.7565 12.0325 27.7508 20.3482 8.0408 8.3641 14.0075 18.0268 18.0415 28.9757.3184-.2845.4492-.3466.4888-.4454.3236-.8059.6383-1.6157.9407-2.4298 2.5673-6.9124 5.9283-13.3694 10.6588-19.0854 10.1542-12.2695 25.8477-16.0865 39.1521-9.0848 11.274 5.9332 18.369 15.3819 21.3738 27.7433 3.0957 12.7353 2.2888 25.5345-.1005 38.2653-3.5328 18.8239-10.7571 36.3011-20.422 52.71-6.2295 10.5764-13.2454 20.692-20.0015 30.9532-1.0562 1.6041-1.2325 3.0999-.9568 4.91 1.4847 9.7451 1.4236 19.504-1.3255 28.9887-1.5238 5.2574-4.0824 10.2147-6.1743 15.3073-.7871 1.0241-1.5653 2.0552-2.3628 3.0711-4.1931 5.3414-8.2441 10.808-13.5362 15.172-2.0932 1.726-4.1472 3.4995-6.2191 5.2513-1.444.9217-2.888 1.8433-4.332 2.765.077.2126.1541.4251.2311.6377 6.5835.2505 13.166.5335 19.7512.7263 1.4543.0425 2.9179-.2343 4.3773-.364z" fill="#452520"/><path d="m54.9777 370.0174c4.257-9.9213 8.5172-19.8412 12.7692-29.7646 1.5152-3.5362 2.9999-7.0855 4.5201-10.6195.6696-1.5567.4998-2.9497-.4124-4.4014-10.4644-16.6534-17.0715-34.7627-19.4062-54.2585-3.8636-32.2623 3.7684-61.7175 22.6798-88.1791 13.4576-18.8305 30.9442-32.9214 51.455-43.4043.9266-.4736 1.9459-.7658 2.9221-1.1425 1.474-.1165 3.0105-.0051 4.4115-.3885 6.5092-1.7813 13.0124-3.5736 19.7702-4.1195 5.1073-.4126 10.2355-1.1106 15.3332-.9611 6.3538.1863 12.7146.9043 19.0202 1.7723 8.0359 1.1061 15.8606 3.2099 23.5253 5.8931 10.541 3.6902 20.3725 8.7541 29.4444 15.2557 3.4624 2.4814 7.0774 4.8306 9.5922 8.4109-3.199-.7166-6.4041-1.4074-9.596-2.1544-11.8596-2.7756-22.5052-.3049-31.9632 7.3487-1.3681.3496-2.8013.5412-4.0929 1.0752-7.0573 2.9179-11.4191 8.6-14.6966 15.1236-2.5803 5.1359-4.2247 10.6059-5.0223 16.3937-.9886 7.1734-.406 14.1719 1.1696 21.1334 2.5255 11.1585 8.2734 20.6821 15.8465 29.0234 4.597 5.0632 9.7543 9.6649 14.9742 14.1045 8.32 7.0763 17.4572 12.998 27.4125 17.5418 7.7625 3.5429 15.625 6.8674 23.466 10.2358.5091.2187 1.2141-.019 1.8281-.0443 8.5995 4.4263 17.1997 8.8515 25.797 13.2824.4388.2261.8525.5009 1.2776.7537-.1973.7143-.348 1.4446-.5985 2.139-3.1659 8.7767-7.7663 16.7398-14.311 23.3869-4.935 5.0123-9.9651 10.0558-15.5783 14.248-9.793 7.3139-21.3847 11.1343-32.853 14.9012-7.3684 2.4203-14.9936 4.0721-22.8022 4.5479-6.0283.3673-12.0622 1.1364-18.082 1.0352-9.7292-.1635-19.4597-.7463-29.1685-1.4451-5.4644-.3933-10.9149-1.2078-16.3207-2.1308-7.1025-1.2126-14.2074-2.4989-21.2109-4.1736-4.9042-1.1727-9.6332-3.0709-14.4545-4.6006-2.3866-.7572-4.7642-1.6613-7.2173-2.0662-5.5537-.9165-10.6447 1.192-15.6269 3.1394-10.8434 4.2383-21.5784 8.7536-32.3707 13.1237-.4078.1653-.9507-.0027-1.4306-.0155z" fill="#93c3d8"/><path d="m302.1503 346.5901c2.0922-5.0926 4.6508-10.05 6.1746-15.3073 2.7491-9.4847 2.8102-19.2436 1.3255-28.9887-.2758-1.8101-.0995-3.3059.9568-4.91 6.7561-10.2612 13.7719-20.3769 20.0015-30.9532 9.6649-16.4089 16.8892-33.886 20.422-52.71 2.3893-12.7308 3.1962-25.53.1005-38.2653-3.0048-12.3614-10.0998-21.8101-21.3738-27.7433-13.3044-7.0018-28.9979-3.1847-39.1521 9.0848-4.7305 5.7159-8.0916 12.1729-10.6588 19.0854-.3024.8141-.6171 1.6239-.9407 2.4298-.0397.0988-.1705.1609-.4888.4454-4.0339-10.9489-10.0007-20.6116-18.0415-28.9757-7.9943-8.3158-17.3761-14.7367-27.7508-20.3482 3.8613-2.3339 7.4896-4.527 11.1182-6.7202.5539.1119 1.1399.4026 1.6566.3093 9.5291-1.7198 19.0143-3.7234 28.5855-5.1546 6.0194-.9001 12.1738-1.4055 18.252-1.2864 9.1569.1795 18.3802-.1076 27.4448 1.6818 6.1705 1.2181 12.3763 2.3262 18.4613 3.8912 8.5465 2.1981 16.5935 5.699 24.153 10.2986 11.4476 6.9654 21.8839 15.1003 30.4436 25.5294 5.7742 7.0352 10.5149 14.687 14.347 22.9124 2.717 5.832 5.1381 11.8072 8.0001 17.5651 4.4486 8.9501 7.4811 18.3558 9.4284 28.1058 1.7462 8.743.422 17.5345-.2509 26.2803-.5257 6.8317-1.4467 13.6332-2.2092 20.4462-.3709 3.3144-.5724 6.6667-1.2325 9.9245-.6436 3.1763.1759 5.7447 2.2633 8.0107 6.8602 7.4473 13.7938 14.8276 20.6029 22.321 1.7283 1.902 3.0996 4.1284 4.6349 6.2057-.9718-.1476-1.9437-.2947-2.9154-.4429-3.896-.5941-7.7928-1.1836-11.6877-1.7843-3.5915-.5539-7.1809-1.1215-10.7717-1.6801-3.8329-.5963-7.6594-1.2405-11.5017-1.7689-3.6944-.5081-7.3955-1.0989-11.1119-1.2817-4.3964-.2163-7.8608 2.1348-10.6705 5.1831-4.2524 4.6134-9.1754 8.3336-14.6819 11.1545-4.9991 2.561-10.2957 4.5475-15.4872 6.7252-7.3122 3.0672-14.8362 5.55-22.6069 7.0876-7.5521 1.4943-15.1747 2.6578-22.795 3.7699-3.4636.5054-6.9946.5767-10.4999.7378-.5004.0227-1.0285-.5615-1.5436-.8647z" fill="#fad3a6"/><path d="m322.2779 153.7026c.2345.065.469.1299.7036.1948.853 1.191 1.5217 2.5892 2.5894 3.5385 5.6035 4.9815 9.4668 10.9751 10.7686 18.4056 1.6188 9.2396 2.1832 18.5459.7998 27.8729-.8143 5.4895-1.5529 11.0157-2.8338 16.4046-1.9286 8.1138-4.363 16.1061-6.4648 24.1807-1.3366 5.135-2.4601 10.3254-3.6792 15.491-1.8275 3.2238-3.5547 6.5097-5.503 9.6588-4.3661 7.0574-8.8292 14.055-13.2878 21.0547-.6567 1.031-1.5043 1.9405-2.2634 2.9057-.5489-.2492-1.1544-.418-1.6378-.7597-3.0799-2.177-6.1826-4.3265-9.1859-6.6062-12.2596-9.3059-23.7054-19.4862-33.5323-31.3966-5.2353-6.3453-10.7419-12.4823-15.706-19.0317-5.5953-7.3821-9.8606-15.6022-13.244-24.2282-2.6961-6.8736-4.3133-14.0472-5.1355-21.3837-.5999-5.3529-1.0422-10.7171.5154-16.0082.2496-.1134.499-.2268.7485-.3401.6198-.0043 1.2596.0909 1.8563-.0287 4.328-.8674 8.6552-.5276 12.9082.2914 7.1994 1.3863 13.7166 4.4929 19.7631 8.5827 5.7392 3.882 11.4216 7.8478 17.1523 11.7425.5212.3542 1.2118.459 1.8238.6796.2155-.6673.4311-1.3347.6466-2.002.4855-.14.971-.2801 1.4564-.42 1.0746.9236 2.1415 1.3972 3.7155 1.0645 3.363-.7108 4.8485-3.1538 6.1823-5.8941 2.1118-4.3387 3.9945-8.82 6.4679-12.9449 4.3093-7.1869 10.366-12.7169 17.5869-16.9675 2.272-1.337 4.5265-2.7034 6.7889-4.0564z" fill="#ea8d82"/><path d="m54.9777 370.0174c.48.0128 1.0229.1808 1.4308.0156 10.7923-4.3701 21.5273-8.8855 32.3707-13.1237 4.9822-1.9474 10.0732-4.0559 15.6269-3.1394 2.4531.4048 4.8307 1.309 7.2173 2.0662 4.8213 1.5297 9.5503 3.4279 14.4545 4.6006 7.0034 1.6748 14.1084 2.9611 21.2109 4.1736 5.4058.9229 10.8563 1.7375 16.3207 2.1308 9.7088.6988 19.4393 1.2816 29.1685 1.4451 6.0198.1011 12.0537-.6679 18.082-1.0352 7.8085-.4758 15.4338-2.1277 22.8022-4.5479 11.4683-3.7669 23.06-7.5873 32.853-14.9012 5.6132-4.1922 10.6432-9.2357 15.5783-14.248 6.5447-6.6471 11.1451-14.6102 14.311-23.3869.2505-.6944.4012-1.4247.5985-2.139 5.5271.8798 5.5178.9715 5.3786 6.5029-.3259 12.9519-4.0883 24.6522-12.4253 34.7155-7.0976 8.5673-15.7572 15.2451-25.3233 20.8199-15.738 9.1715-32.6126 15.2366-50.6181 17.8421-8.3844 1.2133-16.895 2.1139-25.353 2.1534-24.6259.1151-47.4947-6.7348-68.8813-18.7416-1.986-1.115-3.8144-2.5469-5.5907-3.9863-1.2213-.9898-2.384-1.3871-3.9236-.9141-15.7217 4.8307-31.4881 9.5242-46.6235 16.0621-4.9576 2.1415-9.9658 4.1659-14.9541 6.2361-.6176.2563-1.255.4647-1.8833.6953-.1671-.1156-.3343-.2311-.5014-.3467 2.891-6.3165 5.7823-12.6328 8.6737-18.9492z" fill="#7cb3c8"/><path d="m448.4235 319.7545c-1.5354-2.0773-2.9066-4.3037-4.6349-6.2057-6.8091-7.4934-13.7427-14.8737-20.6029-22.321-2.0874-2.266-2.9069-4.8344-2.2633-8.0107.6601-3.2578.8616-6.6101 1.2325-9.9245.7625-6.813 1.6835-13.6146 2.2092-20.4462.6729-8.7458 1.9971-17.5373.2509-26.2803-1.9473-9.75-4.9798-19.1557-9.4284-28.1058-2.8619-5.7579-5.2831-11.7331-8.0001-17.5651-3.8321-8.2254-8.5729-15.8772-14.347-22.9124-8.5598-10.4291-18.996-18.564-30.4436-25.5294-7.5594-4.5996-15.6065-8.1005-24.153-10.2986-6.0851-1.565-12.2909-2.6732-18.4613-3.8912-9.0645-1.7894-18.2879-1.5023-27.4448-1.6818-6.0782-.1192-12.2325.3863-18.252 1.2864-9.5711 1.4312-19.0564 3.4349-28.5855 5.1546-.5167.0933-1.1027-.1974-1.6566-.3093 5.1216-3.4908 10.8043-5.8194 16.6136-7.8243 13.2594-4.576 26.9297-6.7814 40.9541-6.8157 20.829-.0509 40.3867 5.1625 58.9822 14.298 10.3355 5.0776 20.1468 10.9936 29.0233 18.3908 12.3258 10.2716 22.1087 22.5822 29.5978 36.7413 8.2671 15.6303 13.2899 32.2075 14.2916 49.9066.9009 15.9201-.3761 31.6281-5.1194 46.9395-1.0166 3.2818-.2439 6.0354 1.8922 8.6489 6.8759 8.4121 13.6869 16.8772 20.5007 25.3398 6.2206 7.7259 12.4123 15.4752 18.4647 23.6671-4.0244-.7285-8.0487-1.4569-12.0732-2.1855-1.6354-2.0786-3.2249-4.1955-4.9219-6.2222-1.1288-1.3476-2.4113-2.5666-3.6249-3.8433z" fill="#f8e8d5"/><path d="m448.4235 319.7545c1.2136 1.2767 2.4961 2.4958 3.6248 3.8436 1.6971 2.0267 3.2865 4.1436 4.9219 6.2222-4.3688-.4875-8.7284-1.097-13.1089-1.4358-7.7274-.5977-15.4662-1.0546-23.203-1.5245-6.1872-.3758-12.3825-.6255-18.5657-1.0536-2.0783-.1439-3.4835.4433-4.7017 2.2059-3.9247 5.6787-9.164 10.0554-14.5427 14.285-8.1586 6.4156-16.5699 12.4232-25.8959 17.0803-13.904 6.9431-28.6353 11.1434-43.9538 13.3829-3.7892.554-7.6377.7023-11.459 1.0371-.1212.004-.2425.008-.3637.012-.372.0133-.744.0267-1.1161.04-1.4169-.301-2.8213-.6978-4.253-.8837-3.4076-.4426-6.8478-.6649-10.2358-1.2161-1.8866-.307-3.6951-1.0945-5.5388-1.6654 2.0719-1.7519 4.1259-3.5253 6.2191-5.2513 5.2921-4.3639 9.3431-9.8306 13.5362-15.172.7975-1.0159 1.5757-2.047 2.3626-3.071.515.3032 1.0431.8874 1.5432.8644 3.5053-.1611 7.0363-.2324 10.4999-.7378 7.6203-1.1121 15.243-2.2755 22.795-3.7699 7.7706-1.5376 15.2947-4.0204 22.6069-7.0876 5.1915-2.1777 10.4881-4.1642 15.4872-6.7252 5.5065-2.8209 10.4296-6.5411 14.6819-11.1545 2.8097-3.0482 6.274-5.3994 10.6705-5.1831 3.7164.1828 7.4175.7737 11.1119 1.2817 3.8423.5284 7.6688 1.1725 11.5017 1.7689 3.5908.5586 7.1802 1.1263 10.7717 1.6801 3.895.6007 7.7917 1.1902 11.6877 1.7843.9723.1484 1.9441.2955 2.9159.4431z" fill="#f5c18f"/><path d="m225.1813 173.9958c-1.5575 5.291-1.1152 10.6553-.5153 16.0081.8222 7.3364 2.4394 14.5101 5.1355 21.3837 3.3835 8.6261 7.6487 16.8461 13.244 24.2282 4.9641 6.5494 10.4707 12.6864 15.706 19.0317 9.8269 11.9104 21.2727 22.0907 33.5323 31.3966 3.0033 2.2797 6.106 4.4292 9.1859 6.6062.4833.3417 1.0889.5105 1.6378.7597-1.1845 1.8134-2.3552 3.6355-3.5574 5.4365-.9577 1.4346-2.1393.6581-3.1214.1332-4.7064-2.5154-9.4816-4.9292-14.0243-7.718-7.2397-4.4445-14.429-8.9912-21.4299-13.7999-8.3883-5.7615-16.1996-12.2665-23.5291-19.3512-7.3398-7.0947-14.1638-14.6218-19.6177-23.2759-6.2399-9.9013-10.9812-20.4439-12.5884-32.1606-.9831-7.1667-.241-14.1518 3.3966-20.5386 1.234-2.1666 3.0661-3.9926 4.6247-5.9742 1.8047-.3535 3.6058-.7279 5.4155-1.0549 2.1645-.3914 4.3365-.7422 6.5052-1.1106z" fill="#e06154"/><path d="m269.9282 293.8918c-.6139.0253-1.319.263-1.8281.0443-7.841-3.3684-15.7035-6.6929-23.466-10.2358-9.9553-4.5437-19.0925-10.4655-27.4125-17.5418-5.2198-4.4396-10.3772-9.0413-14.9742-14.1045-7.5731-8.3412-13.321-17.8649-15.8465-29.0234-1.5756-6.9615-2.1582-13.96-1.1696-21.1334.7976-5.7878 2.442-11.2578 5.0223-16.3937 3.2775-6.5236 7.6392-12.2056 14.6966-15.1236 1.2916-.534 2.7249-.7256 4.0929-1.0752-2.0956 2.6856-4.3803 5.2468-6.2482 8.0826-3.9679 6.0241-5.6074 12.7188-5.486 19.9546.2648 15.7808 6.0339 29.6734 14.4729 42.6205 11.243 17.2489 26.0433 31.0386 42.6008 43.0465 4.6226 3.3525 9.3884 6.5075 14.0835 9.7603.5044.3495.9755.7472 1.4621 1.1226z" fill="#7cb2c8"/><path d="m250.6023 164.1104c-2.5148-3.5804-6.1298-5.9296-9.5922-8.4109-9.072-6.5016-18.9034-11.5655-29.4444-15.2557-7.6647-2.6832-15.4895-4.787-23.5253-5.8931-6.3056-.868-12.6664-1.586-19.0202-1.7723-5.0977-.1495-10.2259.5486-15.3332.9611-6.7579.5459-13.2611 2.3382-19.7702 4.1195-1.401.3834-2.9374.272-4.4115.3885 12.9027-6.3564 26.43-10.6065 40.7844-12.0285 19.8017-1.9616 38.8569.9829 57.0345 9.0756 16.8602 7.5061 30.0104 19.321 39.6842 35.0191.4507.7313.7806 1.537 1.1668 2.308l.0391-.0215c-.4515-.0863-.9519-.0754-1.3474-.2736-5.43-2.7219-10.8455-5.4726-16.2646-8.2162z" fill="#cce1eb"/><path d="m324.1616 259.7907c1.2191-5.1656 2.3426-10.356 3.6792-15.491 2.1017-8.0746 4.5362-16.0668 6.4648-24.1807 1.2809-5.3889 2.0195-10.9151 2.8338-16.4046 1.3834-9.327.819-18.6332-.7998-27.8729-1.3018-7.4305-5.1652-13.4241-10.7686-18.4056-1.0677-.9492-1.7364-2.3474-2.5894-3.5385 5.095 1.1838 8.7318 4.5364 12.1115 8.2266 6.5441 7.1455 9.005 15.8452 9.4391 25.2756.8289 18.0079-2.828 35.1968-9.9774 51.6258-3.0842 7.0873-6.9063 13.8533-10.3932 20.7653z" fill="#f3c4c0"/><path d="m322.2779 153.7026c-2.2624 1.353-4.5169 2.7193-6.7885 4.0566-7.2209 4.2507-13.2776 9.7807-17.5869 16.9675-2.4734 4.1249-4.356 8.6062-6.4679 12.9449-1.3338 2.7403-2.8193 5.1833-6.1823 5.8941-1.574.3327-2.6409-.1409-3.7155-1.0645 1.1668-4.1039 2.1031-8.2909 3.5495-12.2935 2.7703-7.6662 6.9268-14.5539 12.7516-20.3221 6.3436-6.2819 13.828-8.9817 22.7312-6.831.5874.1419 1.14.4287 1.7088.648z" fill="#df6154"/><path d="m280.0803 192.9212c-.2155.6673-.4311 1.3346-.6466 2.002-.6119-.2206-1.3026-.3254-1.8238-.6796-5.7307-3.8947-11.4131-7.8605-17.1523-11.7425-6.0465-4.0898-12.5638-7.1964-19.7631-8.5827-4.253-.819-8.5802-1.1588-12.9082-.2914-.5967.1196-1.2365.0245-1.856.0286.8166-1.7318 1.633-3.4635 2.4494-5.1952 4.7127-.9698 9.4053-.5734 13.9972.5717 12.0867 3.0141 22.8253 8.5087 31.5228 17.6289 2.0234 2.1216 4.1184 4.1752 6.1806 6.2602z" fill="#f2c4c0"/><path d="m228.3796 168.4603c-.8164 1.7317-1.6328 3.4634-2.4494 5.1952-.2497.1135-.4991.2268-.7487.3402-2.1689.3684-4.3408.7193-6.5055 1.1105-1.8097.3271-3.6108.7015-5.4155 1.055 3.8974-4.8099 9.0384-7.1778 15.1191-7.7009z" fill="#ea9682"/><path d="m280.0324 370.0845c1.8437.5709 3.6522 1.3584 5.5388 1.6654 3.388.5512 6.8282.7735 10.2358 1.2161 1.4317.1859 2.8361.5827 4.253.8837-1.4593.1297-2.9229.4065-4.3773.3639-6.5851-.1928-13.1677-.4758-19.7512-.7263-.077-.2126-.1541-.4251-.2311-.6377 1.444-.9218 2.888-1.8435 4.332-2.7651z" fill="#e0ba94"/><path d="m268.1752 172.6217c.0374.0437.0815.0837.1082.1332.009.0166-.0267.0572-.0419.0869-.01-.0801-.0201-.1601-.0286-.2409.0014-.0007-.0377.0208-.0377.0208z" fill="#cce1eb"/><path d="m301.176 373.8096c.1212-.004.2424-.008.3637-.012-.1212.004-.2425.008-.3637.012z" fill="#e0ba94"/></g></svg>