<svg id="Layer_1" enable-background="new 0 0 512 512" height="512" viewBox="0 0 512 512" width="512" xmlns="http://www.w3.org/2000/svg"><g><path d="m181.8882 21.6651c7.2199 9.9711 13.9273 20.0946 21.5116 29.5119 12.0512 14.9638 27.1555 26.5632 43.1441 37.054 21.6777 14.2237 43.5734 28.1338 64.9108 42.8521 23.1341 15.9576 44.1298 34.4631 62.6458 55.7222 25.3527 29.1088 43.9548 61.8597 53.4344 99.4097 10.1112 40.0518 7.2747 79.0124-11.7557 116.1215-10.5347 20.5424-26.1067 36.8142-44.7274 50.271-22.7896 16.4695-48.3137 26.3699-75.7755 31.6924-18.776 3.6391-37.7006 5.4159-56.7903 4.031-36.185-2.6251-68.9684-14.1596-96.5728-38.3603-18.4005-16.1317-31.1284-36.2127-39.5614-59.0664-5.6595-15.3375-7.4845-31.2557-6.6912-47.5259 1.307-26.8062 9.3686-51.8344 20.571-75.9046 12.3525-26.5416 25.3399-52.7871 37.8471-79.2577 13.9802-29.5881 23.2929-60.6495 28.3107-92.9701 2.805-18.0674 2.906-36.2055.756-54.3824-.7532-6.3682-.8578-12.8131-1.2572-19.1984zm24.6439 47.9524c-4.7444-5.344-9.4888-10.688-14.2332-16.0319-.4992 1.3596-.5723 2.4127-.4882 3.4531 1.1064 13.6873.4895 27.326-1.5997 40.8663-5.3603 34.741-15.8184 67.9462-30.8575 99.6846-10.4812 22.1193-21.3593 44.0502-31.9264 66.1294-11.0496 23.0875-19.9551 46.8657-22.5929 72.587-1.6314 15.9075-.6191 31.6599 4.1687 46.9019 10.9016 34.7054 32.9223 60.4139 64.6589 77.8781 22.4967 12.3797 46.8991 17.3139 72.3446 17.984 17.2595.4545 34.349-.7528 51.1283-5.0512 5.4074-1.3852 10.7662-2.9603 16.1472-4.4485 1.4151-.3047 2.8663-.4961 4.2397-.9322 11.4352-3.6308 22.3833-8.3854 32.8406-14.2778 34.8458-19.6346 58.4128-48.1635 68.3024-87.2521 1.9813-7.8311 2.7456-15.9701 4.071-23.9671 1.6584-18.1261.1678-36.0082-4.3086-53.6324-8.4544-33.2856-24.1263-62.8688-45.8502-89.3683-19.8737-24.2426-43.268-44.6242-68.9286-62.4075-15.4469-10.705-31.4685-20.5772-47.1291-30.9784-11.3729-7.5535-22.5775-15.3604-33.8571-23.0543-5.3766-4.6942-10.7533-9.3884-16.1299-14.0827z" fill="#0f3040"/><path d="m422.7356 343.1411c-1.3254 7.997-2.0897 16.136-4.071 23.9671-9.8896 39.0886-33.4566 67.6175-68.3024 87.2521-10.4574 5.8924-21.4055 10.647-32.8406 14.2778-1.3734.4361-2.8246.6274-4.2406.9318-.9202-.0412-1.8442-.1618-2.7582-.1094-4.8805.2796-9.7555.7914-14.6381.8694-8.9869.1436-17.978.0762-26.9669.0177-2.4398-.0158-4.9135-.1075-7.3099-.5212-8.1079-1.3999-16.2392-2.7298-24.2674-4.511-13.1962-2.9279-25.4885-8.2063-36.8701-15.4816-9.6658-6.1786-18.1227-13.7217-25.4649-22.608-7.7249-9.3494-14.9499-18.9623-19.8942-30.1214-5.797-13.0834-8.8025-26.8286-9.4038-41.0726-.2288-5.4196-.0173-10.8922.4654-16.2985.5618-6.2921 1.3697-12.5908 2.5774-18.7879 1.0641-5.4602 2.6756-10.8306 4.3117-16.1588 3.2321-10.526 6.414-21.0774 10.0497-31.4668 4.245-12.1307 9.1087-24.0441 13.4137-36.1549 3.9898-11.2244 7.583-22.5894 11.3762-33.884 3.9517-11.7664 6.5424-23.8494 8.4672-36.0898 1.2785-8.1305 2.6532-16.2475 3.7982-24.3968.8798-6.2617 1.5089-12.5601 2.1714-18.8504.4076-3.8702.6435-7.7582 1.0007-11.6341.5737-6.226 1.3144-12.4398 1.7386-18.6754.3532-5.1922.2764-10.4124.5401-15.6126.1425-2.8096.5992-5.6032.9142-8.4041 5.3766 4.6943 10.7533 9.3885 16.1299 14.0827.3275 1.1437.4504 2.4021 1.0166 3.4121 3.0849 5.503 7.8959 9.3032 13.0367 12.6968 15.6543 10.3338 31.4576 20.4467 46.9715 30.9863 6.0513 4.111 11.5766 9.0227 17.1774 13.7635 6.541 5.5366 12.9243 11.2605 19.3366 16.9477 8.4178 7.466 16.9642 14.7987 25.1357 22.5267 5.7288 5.4179 10.9744 11.3533 16.3452 17.1416 8.5571 9.2223 16.449 19.0039 22.8162 29.8628 4.7232 8.0553 9.3465 16.2467 13.0879 24.7834 7.0169 16.0109 12.0018 32.7466 15.9054 49.792 2.0289 8.8592 4.0237 17.7267 6.1443 26.564.8856 3.6899 2.0581 7.3113 3.1002 10.9638zm-177.6945-80.0779c-.4426-.2109-.6712-.271-.8365-.4076-.5317-.4395-1.0354-.9128-1.5581-1.3635-13.8304-11.9234-29.2996-15.7245-46.6172-8.8931-13.418 5.2932-21.1312 15.902-25.4769 29.1717-4.0065 12.2338-2.828 24.551.2074 36.7864 3.756 15.14 10.8905 28.6207 20.3006 40.973 23.187 30.4369 53.2801 50.4006 90.4448 59.6059.9877.2447 2.4401.0777 3.2009-.511 1.9887-1.5386 3.9555-3.2271 5.5065-5.191 15.1594-19.1957 27.5901-40.0372 37.3393-62.4732 8.294-19.087 13.5647-38.7968 12.1702-59.8485-.6843-10.3302-3.3571-20.1417-9.9238-28.257-14.4406-17.8461-32.8996-26.4506-56.1383-22.7509-13.8307 2.202-24.2631 8.8505-28.6189 23.1588zm77.2756-82.7108c-1.3283.7107-2.7297 1.1664-3.7412 2.0622-2.1908 1.9402-2.583 4.5489-2.238 7.3707.5464 4.4701 2.557 8.3188 4.9704 11.988 6.9738 10.6025 15.6103 19.6562 25.6584 27.3859 4.6553 3.5812 9.73 6.4041 15.2383 8.4262 3.2031 1.1759 5.5376-.7222 5.1001-4.0938-.1472-1.1344-.3503-2.2679-.6222-3.3788-1.7769-7.2598-5.251-13.6968-9.5506-19.7461-7.9368-11.1664-16.8201-21.3204-29.3336-27.6113-1.6871-.8479-3.461-1.5229-5.4816-2.403zm-46.2409-35.0211c.081.3419.1958 1.3452.5541 2.2523 1.9491 4.9346 4.8939 9.2026 9.036 12.5296 3.3097 2.6585 6.9646 4.7974 11.3386 5.0325 2.6397.1419 3.9582-1.4334 3.336-3.9482-2.3466-9.4844-8.0074-16.382-16.802-20.5624-3.5535-1.6892-7.4569.6073-7.4627 4.6962z" fill="#92ceeb"/><path d="m206.5321 69.6175c-.315 2.8008-.7718 5.5945-.9142 8.4041-.2637 5.2002-.1869 10.4203-.5401 15.6126-.4242 6.2357-1.1649 12.4494-1.7386 18.6754-.3572 3.8759-.593 7.7639-1.0007 11.6341-.6625 6.2903-1.2917 12.5887-2.1714 18.8504-1.145 8.1493-2.5197 16.2663-3.7982 24.3968-1.9247 12.2404-4.5155 24.3233-8.4672 36.0898-3.7932 11.2946-7.3864 22.6597-11.3762 33.884-4.3049 12.1109-9.1687 24.0242-13.4137 36.1549-3.6356 10.3894-6.8176 20.9408-10.0497 31.4668-1.6361 5.3283-3.2476 10.6986-4.3117 16.1588-1.2078 6.1971-2.0156 12.4958-2.5774 18.7879-.4827 5.4063-.6942 10.8789-.4654 16.2985.6013 14.244 3.6068 27.9892 9.4038 41.0726 4.9443 11.1591 12.1692 20.772 19.8942 30.1214 7.3422 8.8862 15.7991 16.4294 25.4649 22.608 11.3816 7.2754 23.674 12.5538 36.8701 15.4816 8.0282 1.7812 16.1595 3.1111 24.2674 4.511 2.3965.4138 4.8702.5054 7.3099.5212 8.9888.0585 17.9799.1259 26.9669-.0177 4.8826-.078 9.7575-.5898 14.6381-.8694.914-.0523 1.838.0682 2.7582.1094-5.3801 1.4886-10.7389 3.0637-16.1463 4.4489-16.7793 4.2984-33.8688 5.5057-51.1283 5.0512-25.4456-.6701-49.8479-5.6043-72.3446-17.984-31.7366-17.4642-53.7573-43.1727-64.6589-77.8781-4.7878-15.2421-5.8001-30.9944-4.1687-46.9019 2.6378-25.7213 11.5433-49.4995 22.5929-72.587 10.567-22.0791 21.4451-44.0101 31.9264-66.1294 15.0392-31.7384 25.4972-64.9436 30.8575-99.6846 2.0892-13.5404 2.706-27.179 1.5997-40.8663-.0841-1.0404-.0111-2.0935.4882-3.4531 4.7443 5.3441 9.4887 10.6881 14.2331 16.0321z" fill="#76bfe2"/><path d="m422.7356 343.1411c-1.0421-3.6526-2.2147-7.2739-3.1002-10.9641-2.1206-8.8373-4.1154-17.7048-6.1443-26.564-3.9036-17.0454-8.8885-33.7811-15.9054-49.792-3.7413-8.5368-8.3646-16.7282-13.0879-24.7834-6.3672-10.8589-14.2591-20.6405-22.8162-29.8628-5.3708-5.7883-10.6164-11.7238-16.3452-17.1416-8.1715-7.728-16.7179-15.0607-25.1357-22.5267-6.4122-5.6872-12.7956-11.4111-19.3366-16.9477-5.6008-4.7408-11.1261-9.6525-17.1774-13.7635-15.5139-10.5396-31.3172-20.6524-46.9715-30.9863-5.1408-3.3936-9.9518-7.1938-13.0367-12.6968-.5662-1.01-.6891-2.2684-1.0166-3.4121 11.2797 7.694 22.4842 15.5009 33.8572 23.0543 15.6606 10.4012 31.6822 20.2734 47.1291 30.9784 25.6606 17.7833 49.0548 38.1649 68.9286 62.4075 21.7239 26.4994 37.3958 56.0827 45.8502 89.3683 4.4765 17.6243 5.9671 35.5065 4.3086 53.6325z" fill="#c2dfed"/><path d="m245.0411 263.0632c4.3558-14.3083 14.7882-20.9568 28.619-23.1587 23.2387-3.6997 41.6977 4.9048 56.1383 22.7509 6.5667 8.1153 9.2395 17.9268 9.9238 28.257 1.3945 21.0518-3.8763 40.7615-12.1702 59.8485-9.7492 22.436-22.1799 43.2775-37.3393 62.4732-1.551 1.964-3.5178 3.6525-5.5065 5.191-.7609.5887-2.2132.7556-3.2009.511-37.1647-9.2053-67.2578-29.169-90.4448-59.6059-9.4101-12.3523-16.5446-25.8329-20.3006-40.973-3.0354-12.2355-4.2139-24.5527-.2074-36.7864 4.3457-13.2696 12.0589-23.8785 25.4769-29.1717 17.3175-6.8315 32.7867-3.0304 46.6172 8.8931.5227.4507 1.0264.9239 1.5581 1.3635.1652.1365.3938.1966.8364.4075zm60.5137 112.3105s.0322-.042.0321-.042c4.3613-8.5175 8.943-16.9305 13.038-25.5741 8.581-18.1128 13.8845-37.0271 12.7766-57.3188-.4731-8.6635-2.6862-16.8532-7.8721-23.9292-10.9754-14.9755-26.0511-21.5888-44.3926-21.1021-4.4269.1175-8.8982.454-12.7863 3.0336-5.4655 1.8753-9.8672 5.1011-12.8531 10.1243-1.0861 2.1739-2.3832 4.2752-3.1671 6.5531-.3776 1.0972-.1224 2.6948.4204 3.7781 2.5902 5.1689 5.3774 10.2392 8.0945 15.3445.0864.9685.1562 1.9388.2631 2.9051.159 1.4368-.3511 2.3357-1.8906 2.4528-.9661-1.2762-2.0423-2.4847-2.8771-3.8418-2.2068-3.5872-4.2321-7.2868-6.4679-10.8551-5.7541-9.1839-13.3109-16.2005-23.9842-19.232-8.2536-2.3442-16.4391-2.6812-24.33 1.456-5.3813 1.6068-9.7491 4.7622-13.4044 8.9324-9.5438 10.8884-11.7253 23.8942-10.2774 37.706 1.588 15.1485 7.8048 28.666 16.0315 41.246 12.6587 19.3574 29.3372 34.5642 49.1894 46.3185 12.0072 7.1094 24.7985 12.4485 38.1671 16.4162 1.4039.4167 2.841.8944 3.9509-.6647 3.7351-5.2469 7.4859-10.4826 11.2307-15.7226 3.5763-5.8557 7.1526-11.7113 10.7288-17.5669.1266-.1391.2531-.2782.3797-.4173z" fill="#0f3040"/><path d="m322.3167 180.3524c2.0207.8802 3.7946 1.5552 5.4815 2.4032 12.5135 6.2908 21.3968 16.4449 29.3336 27.6113 4.2996 6.0492 7.7738 12.4863 9.5506 19.7461.2719 1.1108.475 2.2444.6222 3.3788.4375 3.3716-1.897 5.2697-5.1001 4.0938-5.5083-2.0222-10.5829-4.845-15.2383-8.4262-10.0481-7.7297-18.6846-16.7834-25.6584-27.3859-2.4134-3.6692-4.4239-7.5179-4.9704-11.988-.345-2.8219.0472-5.4305 2.238-7.3707 1.0116-.896 2.413-1.3517 3.7413-2.0624z" fill="#f8fbfb"/><path d="m276.0758 145.3313c.0058-4.0889 3.9092-6.3854 7.4627-4.6963 8.7946 4.1804 14.4554 11.0779 16.802 20.5624.6222 2.5148-.6963 4.0901-3.336 3.9482-4.374-.2351-8.0289-2.374-11.3386-5.0325-4.1421-3.327-7.0869-7.595-9.036-12.5296-.3583-.907-.4731-1.9102-.5541-2.2522z" fill="#f8fbfb"/><path d="m257.218 291.5991c1.5393-.1172 2.0494-1.0161 1.8904-2.4529-.1069-.9662-.1767-1.9366-.2617-2.9057.6682-2.4895 2.0144-5.0181 1.8717-7.4597-.3956-6.7693-3.0027-12.8599-7.2209-18.2154 2.9859-5.0232 7.3876-8.249 12.8532-10.1244 2.1315.1607 4.264.3087 6.394.4857 2.2824.1895 4.5715.3357 6.842.6242 6.6451.8445 12.9462 2.9348 19.1827 5.3004 8.6555 3.2831 15.8991 8.2647 20.2134 16.7152 3.6228 7.0961 4.8463 14.8748 4.933 22.6633.0717 6.4448-.6934 12.9708-1.7956 19.3383-1.3635 7.8775-3.1161 15.7269-5.3251 23.4088-2.6619 9.257-6.0329 18.3082-8.9826 27.4852-.9308 2.8958-1.494 5.9097-2.2254 8.8695 0 0-.0322.042-.0322.042-.1266.1391-.2531.2782-.3797.4173-3.5763 5.8557-7.1525 11.7113-10.7287 17.5667-5.3933-1.9321-10.8296-3.7531-16.1718-5.8177-13.7059-5.297-26.605-12.1093-38.4631-20.8353-7.4614-5.4905-14.4845-11.4508-20.8684-18.2031-6.7527-7.1423-11.8367-15.3932-16.5717-23.8855-3.238-5.8073-5.1639-12.1228-5.5302-18.7794-.3407-6.192-.5474-12.4082-.4086-18.6048.1322-5.9033 1.2911-11.6876 3.7447-17.128 1.553-3.4434 2.9409-6.9117 2.5949-10.8044 3.0953.4388 6.2211.726 9.2809 1.3414 18.055 3.6312 31.7864 13.4417 41.329 29.1595.9613 1.5835 1.8765 3.195 3.0698 5.2316.3401-1.5245.5531-2.4786.766-3.4328zm50.4176-14.9194c-.5797-3.9242-1.7276-6.85-4.1111-9.2236-2.5092-2.4989-5.2734-2.9785-8.3262-1.3899-3.1184 1.6227-3.8339 5.2589-1.3275 7.6195 2.0525 1.9332 4.1758 3.9125 6.6005 5.2822 1.3859.7829 3.5367.7811 5.1514.3734.9501-.2398 1.5246-1.9666 2.0129-2.6616z" fill="#fe988b"/><path d="m202.7722 259.2996c.346 3.8927-1.0419 7.361-2.5949 10.8044-2.4536 5.4404-3.6125 11.2247-3.7447 17.128-.1388 6.1965.0679 12.4128.4086 18.6048.3663 6.6567 2.2922 12.9722 5.5302 18.7794 4.735 8.4922 9.819 16.7432 16.5717 23.8855 6.384 6.7523 13.407 12.7126 20.8684 18.2031 11.8581 8.726 24.7571 15.5384 38.4631 20.8353 5.3422 2.0646 10.7785 3.8856 16.1718 5.8177-3.7449 5.2402-7.4958 10.4759-11.2308 15.7228-1.1099 1.5591-2.547 1.0814-3.9509.6647-13.3686-3.9677-26.1598-9.3068-38.1671-16.4162-19.8522-11.7543-36.5307-26.9611-49.1894-46.3185-8.2267-12.58-14.4435-26.0975-16.0315-41.246-1.4479-13.8118.7336-26.8176 10.2774-37.706 3.6553-4.1702 8.0231-7.3256 13.4038-8.9318 1.071.058 2.1426.1154 3.2143.1728z" fill="#fd7c6d"/><path d="m305.587 375.3318c.7314-2.9598 1.2946-5.9738 2.2254-8.8695 2.9497-9.177 6.3207-18.2283 8.9826-27.4852 2.209-7.6819 3.9616-15.5313 5.3251-23.4088 1.1022-6.3676 1.8673-12.8936 1.7956-19.3383-.0867-7.7885-1.3101-15.5672-4.933-22.6633-4.3143-8.4505-11.5579-13.4321-20.2134-16.7152-6.2365-2.3656-12.5376-4.4559-19.1827-5.3004-2.2705-.2885-4.5596-.4347-6.842-.6242-2.13-.1769-4.2625-.325-6.394-.4857 3.8879-2.5794 8.3592-2.916 12.7861-3.0335 18.3415-.4868 33.4172 6.1266 44.3926 21.1021 5.1859 7.076 7.399 15.2657 7.8721 23.9292 1.108 20.2917-4.1955 39.2061-12.7766 57.3188-4.0948 8.6435-8.6766 17.0565-13.0378 25.574z" fill="#f6c4bf"/><path d="m202.7722 259.2996c-1.0716-.0574-2.1432-.1147-3.2142-.1728 7.8915-4.1379 16.077-3.8009 24.3306-1.4567 10.6733 3.0315 18.2301 10.0481 23.9842 19.232 2.2357 3.5684 4.2611 7.268 6.4679 10.8551.8348 1.357 1.911 2.5655 2.8773 3.8418-.2128.9542-.4258 1.9083-.766 3.433-1.1933-2.0366-2.1084-3.6481-3.0698-5.2316-9.5426-15.7179-23.2741-25.5283-41.329-29.1595-3.0599-.6153-6.1857-.9024-9.281-1.3413z" fill="#f2c1bc"/><path d="m253.4975 260.5655c4.2183 5.3555 6.8253 11.4461 7.2209 18.2154.1427 2.4416-1.2035 4.9702-1.8717 7.4597-2.7185-5.1047-5.5058-10.1749-8.0959-15.3438-.5428-1.0833-.798-2.6809-.4204-3.7781.7839-2.278 2.0809-4.3793 3.1671-6.5532z" fill="#f97867"/><path d="m305.1751 375.7911c.1266-.1391.2531-.2781.3797-.4173-.1266.139-.2531.2781-.3797.4173z" fill="#f6c4bf"/><path d="m307.6356 276.6797c-.4883.695-1.0629 2.4218-2.0129 2.6617-1.6147.4077-3.7655.4095-5.1514-.3734-2.4247-1.3697-4.548-3.3491-6.6005-5.2822-2.5063-2.3606-1.7909-5.9968 1.3275-7.6195 3.0528-1.5886 5.817-1.109 8.3262 1.3899 2.3835 2.3735 3.5314 5.2993 4.1111 9.2235z" fill="#fec8c1"/></g></svg>