<svg id="Layer_1" enable-background="new 0 0 512 512" height="512" viewBox="0 0 512 512" width="512" xmlns="http://www.w3.org/2000/svg"><g><path d="m351.4203 402.8556c-4.4208 3.7284-9.0002 7.581-13.5689 11.4463-5.2645 4.4539-10.5007 8.9414-15.7913 13.364-1.3978 1.1685-1.874 2.3161-1.3881 4.2273 2.4078 9.4713 4.6355 18.9883 6.9748 28.6885 2.6137-.9758 5.1509-1.9081 7.6772-2.8692 5.6783-2.1603 11.5045-2.7619 17.4705-1.5716 2.7688.5524 5.0934 1.8781 5.7385 4.8625.6236 2.8849-.881 5.0009-3.0679 6.6701-2.9633 2.2618-6.4664 2.9218-10.0583 3.0359-5.7716.1833-11.4393-.4081-17.1954-1.2708-4.9138-.7364-5.7455-3.3289-6.5856-7.0164-2.1875-9.6008-4.489-19.1757-6.8256-29.1031-.7641.5774-1.3967 1.0129-1.9823 1.5046-5.5089 4.6245-11.0137 9.2538-16.5108 13.8922-2.0923 1.7654-2.7615 1.7426-4.9918-.0165-1.8936-1.4935-3.8542-2.902-5.7852-4.3482-.1991.1301-.3982.2601-.5973.3901.4401 2.5709.8814 5.1416 1.3201 7.7126.7214 4.2272 1.6833 8.4313 2.0947 12.6886.4266 4.4154-1.5256 7.9927-5.3427 10.2821-7.8718 4.7213-16.32 6.4822-25.3849 4.3968-2.3088-.5312-4.0769-1.793-4.5224-4.3263-.4432-2.5208.7538-4.297 2.722-5.6539 5.1701-3.5639 11.0774-5.2232 17.1086-6.536 2.6721-.5816 5.3591-1.0948 8.3143-1.6949-.3567-2.5045-.7036-4.9579-1.0559-7.4106-.5799-4.036-1.1779-8.0695-1.7392-12.108-.2966-2.1335-1.4124-3.6302-3.2004-4.8167-9.1935-6.1013-18.5465-11.9871-27.4783-18.4532-20.9878-15.194-38.7482-33.4988-52.4282-55.6385-7.8453-12.6967-13.5983-26.2579-17.6575-40.5977-.5317-1.8785-1.7745-3.7729-3.1862-5.1487-7.3813-7.1927-16.1301-12.4853-25.0345-17.539-1.6045-.9107-3.1148-1.9874-4.6697-2.9857-.3734-.2398-.7626-.6896-1.1251-.6707-1.4664.0765-2.972.1514-4.3475.5898-.2776.0885-.2602 1.8118-.0279 2.6884 8.2709 31.2136 16.8497 62.3483 24.8132 93.6397 7.4894 29.4285 14.3361 59.0207 21.4606 88.542.1544.6397.2486 1.294-.0701 2.2301-.6667-.869-1.551-1.6457-1.9641-2.622-2.3599-5.5773-5.1236-11.052-6.8066-16.8362-8.6054-29.5745-17.0585-59.1951-25.2981-88.8736-6.9934-25.1897-13.6322-50.4778-20.3959-75.731-.4463-1.6664-1.3891-2.6319-2.9511-3.3048-1.8908-.8146-3.8557-1.6452-5.4663-2.8869-4.8158-3.7129-4.6604-10.3919.3401-13.7961 1.8199-1.2389 2.0999-2.475 1.6091-4.4723-9.9708-40.5707-19.9778-81.1329-29.7695-121.747-3.4884-14.469-6.4076-29.0749-9.6321-43.6082-.994-4.4801.0917-8.2941 3.0841-11.7396 3.3024-3.8024 6.2971-7.8793 9.6963-11.5888 10.3749-11.322 23.6405-17.3044 38.4322-20.3263 12.7612-2.6071 25.7007-3.7103 38.685-3.991 33.0351-.7141 65.3669-5.7911 97.1063-14.9071 18.7189-5.3763 37.5215-10.4627 56.2207-15.9052 6.238-1.8156 12.2722-4.332 18.5582-6.5849 1.0616 4.1209.7756 8.1651-.0401 12.1569-4.8399 23.6854-11.3661 46.8866-20.2121 69.4054-.6912 1.7596-.4941 2.9388.9707 4.2537 22.5644 20.2546 45.08 40.5636 67.614 60.852.985.8869 2.0385 1.6976 3.4967 2.9053-3.8904 2.4442-7.4526 4.9249-11.2308 7.0154-19.6323 10.8631-40.3682 18.7924-62.4305 23.1092-12.0608 2.3598-24.2554 3.2426-36.5222 3.0229-23.5771-.4223-47.1515-1.2713-70.7287-1.3345-21.2286-.0568-41.4713 4.652-60.106 15.1882-11.6952 6.6125-21.632 15.2762-29.6585 26.0961-1.1187 1.508-1.3569 3.0255-.8936 4.8041 1.8105 6.9504 3.6013 13.9063 5.3256 20.8785.4592 1.8567 1.3431 3.0967 3.1364 3.9713 3.8938 1.8989 6.8953 4.9914 9.0795 8.6102 1.022 1.6933.8016 4.1365 1.2283 6.7556 10.4913 3.6736 19.8835 10.6129 29.2416 18.0898 0-2.2479.0387-4.1861-.0059-6.1224-.5103-22.1353 7.8749-40.3652 24.1523-55.1508 15.6104-14.1797 33.9195-20.7878 54.9883-19.5113 9.506.5759 18.6315 2.5581 26.6678 8.0852 5.4683 3.7608 9.4209 8.7329 12.0316 14.8059.3112.7239.628 1.4455.7864 1.81 3.4655-3.891 6.535-8.1433 10.3819-11.5064 11.8653-10.3731 25.8021-13.7509 41.2317-10.9065 20.8264 3.8392 35.4303 16.2463 46.1472 33.8773 6.2187 10.2309 10.7059 21.1199 12.2416 33.0924 1.2027 9.3765.5278 18.6371-1.8905 27.7539-.6004 2.2635-.3829 3.9933 1.1572 5.9064 9.6118 11.9403 8.5322 28.9815-2.408 39.8628-10.7504 10.6925-23.35 18.3646-37.7678 23.0547-.6863.2232-1.3621.4791-2.3516.829 5.1555 3.0715 7.6198 7.6835 8.5021 13.1476.7094 4.3937.0133 8.6051-2.9966 12.1205-2.0712 2.4192-4.7314 3.6589-7.925 2.8622-3.1557-.7872-5.3169-2.9799-5.683-6.1518-.6004-5.199-.723-10.4532-1.0538-15.7937zm16.3642-15.496c1.9465-1.0455 3.8877-2.1012 5.8405-3.1349 7.5021-3.9712 14.5763-8.5641 20.5899-14.6104 5.8604-5.8923 9.9831-12.5603 8.5272-21.3795-.5958-3.6093-1.8437-6.9899-4.0534-10.2879-4.3984 12.0293-10.4023 22.8054-17.9012 32.7109-4.2401 5.6009-8.8639 10.9114-13.3147 16.3528-.0737.1337-.1474.2674-.2211.4011.1775-.0173.3552-.0347.5328-.0521zm-28.2039-348.938c.0923-.1745.1846-.349.277-.5234.5999-2.445 1.1999-4.8899 1.8658-7.6036-6.5677 2.9181-12.6764 5.7744-18.8941 8.3696-25.0353 10.4495-50.9059 18.2356-77.3982 23.9917-20.8569 4.5316-41.973 6.9362-63.2975 7.6216-14.9029.479-29.7995 1.1115-44.5242 3.7059-17.9731 3.1669-32.7858 11.6833-44.0479 26.1775-1.5728 2.0241-2.0314 4.1187-1.437 6.6496 5.6252 23.9507 11.1412 47.9271 16.7888 71.8725 2.2097 9.369 4.6734 18.6782 7.0214 28.0146 1.6316 6.391 3.2632 12.7819 4.8947 19.1729 1.3468 5.7 2.6936 11.4 4.062 17.1914 3.6052-4.3672 6.7098-8.7556 10.4367-12.5295 13.2743-13.4421 29.5751-21.6626 47.6555-26.4611 20.2411-5.372 40.9515-5.3375 61.6696-4.7523 14.3083.4041 28.6089 1.0801 42.9175 1.4712 21.0592.5756 41.5331-2.8454 61.4366-9.6278 11.4286-3.8945 22.7586-8.0779 34.1331-12.1313 1.721-.6796 3.442-1.3592 5.5331-2.185-1.3614-1.1235-2.3122-1.9081-3.263-2.6927-.2376-.2751-.4499-.578-.7164-.8214-8.2706-7.5524-16.6069-15.0339-24.8074-22.6616-12.4353-11.5667-24.7726-23.2385-37.1633-34.8532-1.4121-1.3237-2.5934-2.7897-2.2391-4.8256.7735-4.4449 1.3861-8.949 2.5935-13.2814 3.759-13.4883 7.826-26.8904 11.6473-40.3618 1.775-6.2575 3.2586-12.5977 4.8742-18.9004-.0002-.0003-.0187-.0264-.0187-.0264zm-76.1857 381.1985c4.3825 3.1908 8.765 6.3816 13.3227 9.6999.9991-2.8325-.0727-5.9514 3.2219-7.764.5898.949 1.4257 1.8185 1.707 2.8406.6843 2.4861 1.1334 5.0387 1.6332 7.5732.2935 1.4881.8966 2.6609 2.5309 2.988 1.8947 1.5406 3.8449 3.0188 5.6674 4.6407 1.598 1.4221 2.8898 1.2757 4.4448-.1338 4.4492-4.0329 8.9468-8.0165 13.5308-11.8949 2.1218-1.7951 3.8474-3.5225 2.4569-6.57-.1978-.4335-.1904-1.0786-.0253-1.5342.3083-.8509.6836-2.1936 1.2468-2.313.8096-.1715 1.9209.4144 2.6998.965.6773.4789 1.0723 1.3573 1.7686 2.2977 3.8006-3.2166 7.6301-6.1424 11.0963-9.4491 11.1596-10.6458 22.3352-21.2825 33.2233-32.2032 12.6306-12.6684 22.1446-27.4167 28.1577-44.3419 1.3148-3.7007 1.1003-4.4691-2.0896-6.6698-2.8676-1.9782-5.7721-3.9098-8.5435-6.0156-.6306-.4792-1.2664-1.8037-1.0247-2.356.2803-.6404 1.4924-1.04 2.3633-1.2001.6614-.1216 1.4618.2019 2.1306.4896 1.9058.8199 3.7776 1.7191 5.6596 2.5938 1.4398.6692 2.8748 1.3486 4.5405 2.1308 1.9324-8.3684 2.4545-16.3465.9746-24.3835-2.8262-15.348-9.6845-28.7059-20.1729-40.2104-10.0661-11.0414-22.4688-17.2031-37.5192-17.7291-8.6075-.864-16.6574 1.059-23.6432 5.9937-5.5406 3.9138-10.5323 8.6168-15.6819 13.0686-4.5305 3.9165-5.8455 3.6213-7.9002-1.9293-2.1278-5.7481-5.6867-10.4708-10.9748-13.5853-12.3284-7.261-25.6266-8.0281-39.3533-5.4132-.8049.0432-1.6436-.0459-2.4099.1492-15.2876 3.8919-28.5086 11.1294-38.5247 23.6525-10.6201 13.2784-15.6836 28.315-14.1729 45.3049 1.3007 14.6287 6.2855 28.1429 13.3459 40.9337 9.6847 17.545 21.9189 33.1123 36.5208 46.8169 9.2614 8.6921 19.0113 16.7809 29.7927 23.5576zm17.7505 49.1239c-5.8822.0774-15.6327 2.8737-18.7173 5.3968 6.8714.2794 13.1381-.5478 18.7173-5.3968zm77.0779-64.9397c.1291 4.9569-.8257 9.5974 1.4982 13.9546 3.7205-2.2273 3.1767-10.3153-1.4982-13.9546zm-7.0576 58.8447c-5.5282-1.1742-11.507-.4836-14.1948 1.5072 4.6831.5219 9.2869.8445 14.1948-1.5072zm-215.6415-177.5668c.3144 1.2585.557 2.2462.8086 3.2318.2596 1.0168.528 2.0314.8183 3.1459 3.4697-2.3275 3.0204-4.0403-1.6269-6.3777zm-7.1039 4.9632c-.566-2.1136-1.1035-4.1206-1.6858-6.295-2.7824 2.978-2.0982 5.4107 1.6858 6.295z" fill="#411e19"/><path d="m120.8292 225.8704c-1.6316-6.3909-3.2632-12.7819-4.8947-19.1729.2845-.9749.8234-1.9523.8136-2.9243-.0817-8.0737.0763-16.1712-.5097-24.2126-.6307-8.6553-1.958-17.2614-3.0366-25.8821-.9871-7.8884-1.9479-15.7822-3.1024-23.6469-1.3471-9.1765-2.8849-18.3251-4.3556-27.4834-.3694-2.3004-.0903-4.2149 2.304-5.3965 5.4184-2.6738 10.6456-5.7901 16.2123-8.0943 7.1949-2.9781 14.8969-4.1596 22.6418-4.8298 4.4098-.3815 8.836-.5741 13.2464-.95 8.0759-.6883 16.1464-1.4416 24.2177-2.1827 6.2356-.5726 12.4943-.9775 18.6979-1.7962 10.2907-1.3581 20.5899-2.7401 30.8047-4.5647 14.3194-2.5578 28.4254-6.0698 42.3094-10.466 15.9729-5.0576 31.42-11.4259 46.6985-18.253 3.2177-1.4378 6.6196-2.4633 9.9366-3.6788-.1005.5015-.1443 1.0227-.3104 1.5013-1.5524 4.4721-3.1938 8.9144-4.6783 13.4086-2.8017 8.4816-5.5499 16.9814-8.2569 25.4938-2.08 6.5407-4.2448 13.0634-6.0212 19.6882-1.0931 4.0765-.4427 8.0749 2.4296 11.4881 2.8513 3.3883 5.548 6.9096 8.4642 10.2398 5.9377 6.7808 11.8431 13.5991 18.025 20.1538 3.7981 4.0271 7.9683 7.7289 12.1758 11.3385 6.9448 5.9579 14.0405 11.7406 21.1066 17.5559 1.6055 1.3213 3.3502 2.4737 5.4803 4.0327-5.1542 1.5781-9.6772 3.1727-14.3092 4.3315-6.7912 1.6991-13.6144 3.3589-20.5103 4.5241-6.0158 1.0165-12.1455 1.3882-18.2351 1.9311-7.2668.6479-14.55 1.7054-21.8162 1.6302-10.9885-.1136-21.9702-1.0223-32.9513-1.6526-6.7012-.3846-13.3917-.9633-20.0946-1.3071-10.1822-.5224-20.3683-1.1833-30.5578-1.2847-8.938-.089-17.8958.307-26.8203.8746-6.4565.4106-12.9504 1.0573-19.2899 2.3007-11.1716 2.1911-21.6606 6.3409-31.3194 12.477-5.8616 3.7238-10.8167 8.4616-15.3351 13.6608-2.3162 2.6651-4.3053 5.6122-6.5045 8.3824-.7911.9964-1.7646 1.8479-2.6549 2.7655z" fill="#f8d500"/><path d="m285.809 434.9607c-1.6327-.33-2.2358-1.5028-2.5293-2.9909-.4998-2.5345-.9489-5.0871-1.6332-7.5732-.2813-1.0221-1.1171-1.8917-1.707-2.8406-3.2946 1.8127-2.2227 4.9315-3.2219 7.764-4.5577-3.3183-8.9402-6.5091-13.3236-9.7003-.3566-.7007-.5799-1.522-1.0905-2.081-2.498-2.7344-5.1205-5.3553-7.6111-8.0961-8.4608-9.3106-16.9764-18.5739-25.2984-28.0075-9.5035-10.7729-17.2471-22.6954-23.1692-35.8354-5.4636-12.1226-9.0353-24.7286-10.0404-37.9533-.7706-10.1399.2975-20.2223 2.3664-30.1978 2.7281-13.1539 10.5429-22.4844 21.9309-28.9636 5.9533-3.3871 12.2305-6.2049 18.3615-9.2799 13.7267-2.6149 27.0249-1.8478 39.3533 5.4132 5.2881 3.1145 8.847 7.8372 10.9748 13.5853 2.0547 5.5506 3.3697 5.8458 7.9002 1.9293 5.1497-4.4518 10.1413-9.1548 15.6819-13.0686 6.9858-4.9347 15.0356-6.8577 23.643-5.9938-.3333 3.6169.4973 6.928 2.7211 9.8194 2.8376 3.6895 5.5394 7.5085 8.6423 10.964 6.8228 7.5981 12.6175 15.833 16.7637 25.1903 2.9324 6.618 4.9675 13.4502 4.8101 20.7743-.0683 3.1767-.1955 6.3573-.4523 9.5234-.2739 3.3766-.5346 6.7755-1.1612 10.0967-.7648 4.0534-1.9046 8.0361-2.8823 12.0493-2.5486-2.2273-5.4604-3.4215-8.8987-3.2002-.5768.0371-1.1649-.163-1.751-.1964-4.0487-.231-8.0984-.618-12.1475-.6133-3.2352.0038-4.9963 1.9207-4.7992 4.5193.1631 2.1498 1.8927 2.7181 3.4384 3.315 6.7909 2.622 13.7738 4.3566 21.125 4.1918-.6204 1.6542-1.1449 3.3521-1.8759 4.9559-7.9815 17.5121-19.3149 32.7184-32.5987 46.4792-5.8517 6.0619-12.1378 11.7368-18.5258 17.2403-7.4951 6.4576-15.3158 12.5375-22.9954 18.7812zm73.3604-124.826c-.0714-10.5592-8.3705-18.8659-18.777-18.7942-10.2418.0706-18.6063 8.427-18.5705 18.5523.0376 10.6405 8.2641 18.9441 18.6691 18.8441 10.4979-.1007 18.748-8.3172 18.6784-18.6022zm-110.9364-30.8245c-10.3794-.109-18.6474 8.006-18.7933 18.4452-.1459 10.441 8.0552 18.8291 18.5477 18.9708 9.9414.1343 18.7899-8.3125 18.9029-18.0446.125-10.7591-8.0627-19.2602-18.6573-19.3714zm23.7085 44.8847c0 2.2979-.1374 4.2951.0232 6.268.8113 9.9693 1.4926 19.9558 2.6187 29.8911 1.1836 10.443 2.7917 20.8387 4.2797 31.2457.3037 2.124 1.0593 4.1015 3.6154 4.4636 2.3968.3396 3.8666-.5254 5.1148-3.3432 1.9792-4.468 4.2169-8.8828 5.6029-13.541 4.202-14.1234 8.0913-28.3409 12.0024-42.5492 1.0143-3.6846 1.6624-7.4701 2.4787-11.2093-1.1849.1888-1.9455.6022-2.5792 1.1599-6.8034 5.9875-14.2473 7.156-22.4135 3.0416-3.4952-1.7611-6.9869-3.5294-10.7431-5.4272zm-45.0494-2.458c-.0148.1104-.0295.2207-.0443.331-1.2619 0-2.5253-.0385-3.7855.008-2.6877.0992-5.0139 1.9634-5.5 4.3555-.3975 1.956.7847 4.3304 3.2419 5.269 4.1176 1.5728 8.3039 3.0944 12.5916 4.0574 4.4324.9956 7.5486-1.3219 8.4262-5.4963.6708-3.1904-1.8508-6.4099-5.9649-7.2482-2.9525-.6016-5.9742-.8631-8.965-1.2764z" fill="#f56351"/><path d="m120.8292 225.8704c.8902-.9176 1.8637-1.7692 2.6547-2.7655 2.1992-2.7702 4.1883-5.7173 6.5045-8.3824 4.5184-5.1992 9.4735-9.937 15.3351-13.6608 9.6588-6.1361 20.1478-10.2859 31.3194-12.477 6.3395-1.2434 12.8334-1.89 19.2899-2.3007 8.9245-.5676 17.8823-.9635 26.8203-.8746 10.1894.1014 20.3756.7623 30.5578 1.2847 6.7029.3439 13.3934.9226 20.0946 1.3071 10.9811.6302 21.9628 1.539 32.9513 1.6526 7.2662.0752 14.5494-.9823 21.8162-1.6302 6.0895-.543 12.2193-.9147 18.2351-1.9311 6.8959-1.1652 13.7191-2.8251 20.5103-4.5241 4.632-1.1588 9.155-2.7534 14.3092-4.3315-2.13-1.5591-3.8747-2.7114-5.4803-4.0327-7.0661-5.8152-14.1618-11.598-21.1066-17.5559-4.2076-3.6096-8.3777-7.3113-12.1758-11.3385-6.1818-6.5547-12.0872-13.3729-18.025-20.1538-2.9161-3.3302-5.6129-6.8515-8.4642-10.2398-2.8723-3.4132-3.5227-7.4116-2.4296-11.4881 1.7764-6.6248 3.9412-13.1475 6.0212-19.6882 2.7069-8.5124 5.4551-17.0121 8.2569-25.4938 1.4846-4.4942 3.1259-8.9365 4.6783-13.4086.1661-.4787.2099-.9999.3105-1.5013 2.2621-1.2962 4.524-2.5924 6.7859-3.8887-1.6157 6.3027-3.0992 12.6429-4.8742 18.9004-3.8214 13.4713-7.8883 26.8735-11.6473 40.3618-1.2074 4.3325-1.8201 8.8365-2.5935 13.2814-.3543 2.0359.827 3.502 2.2391 4.8256 12.3907 11.6147 24.7281 23.2865 37.1633 34.8532 8.2004 7.6277 16.5368 15.1092 24.8074 22.6616.2666.2434.4789.5462.7163.8213-.6456.7218-1.1736 1.6323-1.9625 2.124-1.4117.8799-1.2585 1.7191-.3075 2.7538-11.3744 4.0534-22.7045 8.2369-34.1331 12.1313-19.9035 6.7825-40.3775 10.2034-61.4366 9.6278-14.3086-.3911-28.6092-1.0671-42.9175-1.4712-20.718-.5851-41.4285-.6197-61.6696 4.7523-18.0803 4.7985-34.3811 13.019-47.6555 26.4611-3.7269 3.774-6.8315 8.1624-10.4367 12.5295-1.3682-5.791-2.715-11.491-4.0618-17.191z" fill="#fdb600"/><path d="m364.8378 339.488c.9776-4.0133 2.1175-7.9959 2.8823-12.0493.6266-3.3212.8873-6.7202 1.1612-10.0967.2568-3.1661.384-6.3467.4523-9.5234.1574-7.3241-1.8777-14.1563-4.8101-20.7743-4.1462-9.3573-9.9409-17.5921-16.7637-25.1903-3.1029-3.4555-5.8046-7.2745-8.6423-10.964-2.2238-2.8914-3.0544-6.2025-2.7211-9.8194 15.0505.5261 27.4532 6.6878 37.5194 17.7292 10.4884 11.5045 17.3466 24.8624 20.1729 40.2104 1.4799 8.037.9578 16.0152-.9746 24.3835-1.6656-.7822-3.1007-1.4616-4.5405-2.1308-1.882-.8747-3.7538-1.774-5.6596-2.5938-.6688-.2877-1.4692-.6112-2.1306-.4896-.8709.1601-2.083.5598-2.3633 1.2001-.2418.5523.394 1.8768 1.0247 2.356 2.7715 2.1058 5.676 4.0373 8.5435 6.0156 3.1899 2.2007 3.4044 2.9691 2.0896 6.6698-6.0132 16.9252-15.5272 31.6735-28.1577 44.3419-10.8881 10.9207-22.0637 21.5575-33.2233 32.2032-3.4662 3.3067-7.2957 6.2325-11.0963 9.4491-.6964-.9404-1.0913-1.8188-1.7686-2.2977-.7789-.5506-1.8901-1.1366-2.6998-.965-.5632.1194-.9385 1.4621-1.2468 2.313-.1651.4556-.1725 1.1007.0253 1.5342 1.3905 3.0475-.3351 4.7749-2.4569 6.57-4.584 3.8784-9.0816 7.862-13.5308 11.8949-1.555 1.4095-2.8468 1.556-4.4448.1338-1.8224-1.6219-3.7727-3.1001-5.6682-4.6392 7.6788-6.2422 15.4995-12.3221 22.9948-18.7796 6.388-5.5034 12.674-11.1784 18.5258-17.2403 13.2838-13.7609 24.6172-28.9671 32.5987-46.4792.731-1.6038 1.2555-3.3017 1.8758-4.9561 3.276-1.9574 3.9173-3.6521 3.0327-8.016z" fill="#f13a29"/><path d="m339.5991 38.4477c-2.2619 1.2962-4.5239 2.5925-6.7859 3.8887-3.3172 1.2154-6.719 2.2409-9.9367 3.6788-15.2785 6.8272-30.7257 13.1954-46.6985 18.253-13.8839 4.3962-27.9899 7.9082-42.3094 10.466-10.2148 1.8246-20.5139 3.2066-30.8047 4.5647-6.2036.8187-12.4623 1.2236-18.6979 1.7962-8.0714.7411-16.1418 1.4944-24.2177 2.1827-4.4104.3759-8.8365.5684-13.2464.95-7.745.6701-15.4469 1.8516-22.6418 4.8298-5.5667 2.3041-10.794 5.4204-16.2123 8.0943-2.3943 1.1815-2.6735 3.0961-2.304 5.3965 1.4707 9.1582 3.0085 18.3068 4.3556 27.4834 1.1545 7.8647 2.1154 15.7585 3.1024 23.6469 1.0787 8.6207 2.4059 17.2268 3.0366 25.8821.586 8.0414.428 16.1389.5097 24.2126.0098.9719-.529 1.9494-.8136 2.9243-2.348-9.3364-4.8117-18.6455-7.0214-28.0146-5.6476-23.9454-11.1635-47.9218-16.7888-71.8725-.5944-2.5308-.1357-4.6255 1.437-6.6496 11.2621-14.4942 26.0748-23.0106 44.0479-26.1775 14.7247-2.5945 29.6213-3.227 44.5242-3.7059 21.3245-.6854 42.4406-3.0899 63.2975-7.6216 26.4923-5.7561 52.3629-13.5422 77.3982-23.9917 6.2177-2.5952 12.3264-5.4516 18.8941-8.3696-.6659 2.7136-1.2658 5.1586-1.8657 7.6035-.0923.1744-.1847.349-.277.5235.0001-.0001.0186.026.0186.026z" fill="#fcec00"/><path d="m238.8431 239.2053c-6.1309 3.0749-12.4082 5.8927-18.3615 9.2799-11.3879 6.4792-19.2027 15.8097-21.9309 28.9636-2.069 9.9755-3.1371 20.0578-2.3664 30.1978 1.0051 13.2247 4.5769 25.8307 10.0404 37.9533 5.9221 13.14 13.6658 25.0624 23.1692 35.8354 8.322 9.4336 16.8376 18.6969 25.2984 28.0075 2.4907 2.7408 5.1132 5.3617 7.6111 8.0961.5106.5589.7339 1.3802 1.0905 2.081-10.7806-6.7763-20.5304-14.8651-29.7917-23.5573-14.6018-13.7046-26.8361-29.2719-36.5208-46.8169-7.0604-12.7907-12.0452-26.305-13.3459-40.9337-1.5107-16.9899 3.5528-32.0265 14.1729-45.3049 10.0161-12.5231 23.2371-19.7606 38.5247-23.6525.7665-.1952 1.6051-.1061 2.41-.1493z" fill="#f99f88"/><path d="m281.1454 468.744c-5.5792 4.849-11.8459 5.6762-18.7173 5.3968 3.0846-2.5231 12.8351-5.3194 18.7173-5.3968z" fill="#dfc492"/><path d="m358.2233 403.8043c4.6749 3.6393 5.2187 11.7273 1.4982 13.9546-2.3239-4.3571-1.3691-8.9977-1.4982-13.9546z" fill="#e1c694"/><path d="m351.1657 462.649c-4.9079 2.3517-9.5117 2.0291-14.1948 1.5072 2.6878-1.9908 8.6666-2.6814 14.1948-1.5072z" fill="#d3b58a"/><path d="m383.1402 179.0308c-.951-1.0346-1.1042-1.8738.3075-2.7538.7889-.4917 1.3169-1.4023 1.9625-2.124.9509.7847 1.9017 1.5693 3.2631 2.6928-2.0911.8258-3.8121 1.5054-5.5331 2.185z" fill="#f39701"/><path d="m135.5242 285.0822c4.6473 2.3374 5.0966 4.0502 1.6269 6.3776-.2903-1.1145-.5587-2.1291-.8183-3.1459-.2516-.9855-.4942-1.9733-.8086-3.2317z" fill="#d5b88c"/><path d="m128.4203 290.0454c-3.7841-.8843-4.4683-3.317-1.6858-6.295.5823 2.1744 1.1198 4.1814 1.6858 6.295z" fill="#d2b58a"/><path d="m339.5806 38.4216c.0924-.1745.1848-.3491.277-.5235-.0924.1745-.1847.349-.277.5235z" fill="#fdb600"/><path d="m359.1694 310.1347c.0696 10.2849-8.1805 18.5014-18.6783 18.6023-10.4051.0999-18.6315-8.2037-18.6691-18.8441-.0358-10.1253 8.3287-18.4817 18.5705-18.5523 10.4064-.0718 18.7055 8.2349 18.7769 18.7941zm-14.1775 1.0539c-.1362-.0384-.2723-.0769-.4085-.1154-.0354-.664-.0457-1.3305-.1107-1.9916-.2255-2.2918-1.5042-3.8039-3.4164-4.0705-2.1171-.2952-3.8031.6927-4.5595 2.985-.7146 2.1654-1.3034 4.3922-1.7051 6.6353-.4211 2.3515.9069 4.2882 3.0975 4.9844 2.1557.6851 4.4068-.1837 5.319-2.3935.7959-1.928 1.2042-4.0162 1.7837-6.0337z" fill="#fbfafa"/><path d="m248.233 279.3102c10.5946.1112 18.7823 8.6123 18.6573 19.3714-.113 9.7321-8.9615 18.1789-18.9029 18.0446-10.4925-.1417-18.6936-8.5298-18.5477-18.9708.1459-10.4393 8.414-18.5543 18.7933-18.4452zm4.5748 16.5653c-.0454-.006-.0908-.012-.1362-.018.0209-.2949.0453-.5896.0621-.8846.1079-1.8928-.1254-3.574-2.3647-4.1492-2.3229-.5966-3.4706.7277-4.2039 2.5979-1.0489 2.6752-2.104 5.3553-2.9736 8.0915-.9694 3.05.2704 5.3739 3.0137 6.0565 2.636.6559 4.995-.9916 5.5379-4.0343.4525-2.5358.717-5.1052 1.0647-7.6598z" fill="#fbfafa"/><path d="m271.9415 324.1949c3.7562 1.8978 7.2478 3.666 10.7431 5.4271 8.1661 4.1144 15.6101 2.9459 22.4135-3.0416.6336-.5576 1.3942-.9711 2.5792-1.1599-.8163 3.7392-1.4644 7.5246-2.4787 11.2093-3.9111 14.2084-7.8004 28.4258-12.0024 42.5492-1.3859 4.6582-3.6237 9.0729-5.6029 13.541-1.2482 2.8178-2.718 3.6828-5.1148 3.3432-2.5561-.3622-3.3118-2.3396-3.6154-4.4636-1.488-10.407-3.0961-20.8027-4.2797-31.2457-1.1261-9.9352-1.8074-19.9218-2.6187-29.8911-.1606-1.9728-.0232-3.9699-.0232-6.2679zm6.0962 36.2117c.0225 1.554-.0965 3.1253.0914 4.659.9619 7.8519 1.9413 15.7029 3.0687 23.532.2248 1.5607 1.1215 3.0246 1.7084 4.5331l.816.0177c.9446-1.3653 2.1116-2.6278 2.7982-4.1124 4.964-10.7331 7.6344-22.2083 10.6932-33.5558 2.2682-8.2177 4.5365-16.4355 6.8119-24.6792-2.7956 1.3345-5.2044 2.8907-7.8427 3.6604-5.7499 1.6776-10.9362-.2941-15.8364-3.2455-1.7271-1.0402-3.458-2.0741-5.3637-3.2167.6702 7.4301 1.2944 14.5071 1.9525 21.581.3361 3.6116.733 7.2177 1.1025 10.8264z" fill="#47201c"/><path d="m226.8921 321.7369c2.9908.4132 6.0125.6747 8.965 1.2764 4.1141.8383 6.6356 4.0577 5.9649 7.2482-.8776 4.1744-3.9939 6.4919-8.4262 5.4963-4.2877-.963-8.474-2.4846-12.5916-4.0574-2.4571-.9385-3.6394-3.313-3.2419-5.269.4861-2.3921 2.8123-4.2563 5.5-4.3555 1.2602-.0465 2.5236-.008 3.7855-.008.0148-.1103.0295-.2206.0443-.331z" fill="#f99a8d"/><path d="m364.8378 339.488c.8846 4.3639.2434 6.0586-3.033 8.016-7.3511.165-14.334-1.5695-21.1249-4.1916-1.5457-.5968-3.2753-1.1651-3.4384-3.315-.1971-2.5986 1.564-4.5155 4.7992-4.5193 4.049-.0048 8.0988.3823 12.1475.6133.5861.0334 1.1742.2335 1.751.1964 3.4381-.2213 6.3499.973 8.8986 3.2002z" fill="#f99a8d"/><path d="m344.9919 311.1886c-.5796 2.0175-.9878 4.1057-1.7837 6.0338-.9122 2.2099-3.1633 3.0786-5.319 2.3935-2.1906-.6962-3.5186-2.6329-3.0975-4.9844.4017-2.2432.9905-4.47 1.7051-6.6353.7564-2.2924 2.4424-3.2802 4.5595-2.985 1.9122.2666 3.1909 1.7786 3.4164 4.0705.065.6611.0753 1.3276.1107 1.9916.1362.0384.2723.0768.4085.1153z" fill="#42211e"/><path d="m252.8078 295.8755c-.3477 2.5545-.6122 5.124-1.0647 7.6598-.5429 3.0427-2.9019 4.6902-5.5379 4.0343-2.7432-.6826-3.9831-3.0066-3.0137-6.0565.8697-2.7361 1.9247-5.4163 2.9736-8.0915.7333-1.8702 1.881-3.1945 4.2039-2.5979 2.2393.5752 2.4726 2.2564 2.3647 4.1492-.0168.2951-.0412.5898-.0621.8846.0454.0061.0908.012.1362.018z" fill="#42211e"/><path d="m278.0377 360.4066c-.3695-3.6086-.7664-7.2147-1.1025-10.8264-.6581-7.0738-1.2823-14.1508-1.9525-21.581 1.9056 1.1426 3.6366 2.1765 5.3637 3.2167 4.9002 2.9514 10.0865 4.923 15.8364 3.2455 2.6383-.7697 5.0471-2.3259 7.8427-3.6604-2.2754 8.2437-4.5436 16.4614-6.812 24.6792-.6507.0912-1.319.1158-1.9491.284-5.746 1.5332-11.4853 3.0914-17.2267 4.6424z" fill="#f79a8c"/><path d="m278.0377 360.4066c5.7414-1.5509 11.4807-3.1092 17.2268-4.6424.6301-.1681 1.2984-.1927 1.9491-.284-3.0587 11.3474-5.7291 22.8227-10.6931 33.5558-.6867 1.4846-1.8536 2.7471-2.7982 4.1124-.272-.0059-.544-.0118-.816-.0177-.5869-1.5085-1.4836-2.9724-1.7084-4.5331-1.1274-7.8292-2.1068-15.6802-3.0687-23.532-.188-1.5338-.069-3.1051-.0915-4.659z" fill="#f36250"/></g></svg>