<svg id="Layer_1" enable-background="new 0 0 512 512" height="512" viewBox="0 0 512 512" width="512" xmlns="http://www.w3.org/2000/svg"><g><path d="m175.3027 438.0397c-10.7513 1.8219-21.1723 3.5698-31.5858 5.3618-3.7811.6507-4.9057-.1364-5.7484-3.8704-2.1803-9.6613-.7355-19.37-.2642-29.0291.8651-17.7294 1.9675-35.4526 3.3282-53.1508 1.4054-18.2794 3.2357-36.5261 4.8809-54.787.695-7.7142 1.9996-15.4349 1.9146-23.1404-.0826-7.4928-1.453-14.9887-2.4937-22.4504-3.5742-25.6272-7.1897-51.249-10.9154-76.8546-1.9332-13.2865-4.098-26.5398-6.2398-39.7949-.3859-2.3886-.0662-4.3421 1.5394-6.2686 4.1439-4.9724 8.2112-10.0146 12.1449-15.1546 3.3652-4.3971 7.6552-7.3739 12.5657-9.8721 18.7637-9.5462 37.368-19.4051 56.0986-29.0171 33.8201-17.3554 68.764-32.2435 103.769-46.986 9.8283-4.1392 19.7546-8.0461 29.6416-12.0456.9012-.3646 1.8438-.627 3.2716-1.1061 1.0004 6.4396 2.1014 12.6687 2.9198 18.9348 5.395 41.3082 10.5917 82.6427 16.1242 123.9324 4.8942 36.5259 10.1718 73.0002 15.2204 109.5055 3.8938 28.1555 7.7252 56.3197 11.5223 84.4884 1.4794 10.9752 2.7433 21.9794 4.2131 32.956.3033 2.2653-.6445 3.4314-2.4696 4.4289-13.9225 7.6101-27.8627 15.1896-41.7168 22.923-42.3077 23.6161-84.6368 47.1953-126.8052 71.0583-6.6182 3.7452-11.764 5.3379-18.3462-.5018-7.8884-6.9985-16.9671-12.6449-25.3822-19.0709-1.3111-1.0012-2.318-2.9405-2.6404-4.6058-1.6564-8.5557-3.0432-17.1636-4.5466-25.8829zm-19.0644-6.7702c5.6722-1.3299 11.3444-2.6597 17.1713-4.0258-6.2779-36.8715-12.482-73.3095-18.6862-109.7476-1.1333 7.321-1.5411 14.5435-2.0114 21.7619-.4007 6.1509-.8565 12.2984-1.3182 18.4451-.6807 9.0634-1.3881 18.1247-2.0842 27.187-.8264 16.1858-1.6529 32.3715-2.4996 48.9541 3.4398-.9394 6.4341-1.7571 9.4283-2.5747zm48.9499 31.3515c-1.4432-12.0326-2.7335-24.086-4.3695-36.0923-1.9267-14.14-4.081-28.2503-6.2688-42.353-2.3828-15.36-4.8303-30.711-7.4095-46.039-2.7255-16.1968-5.6459-32.3608-8.4696-48.5411-3.0584-17.5252-6.1157-35.0506-9.151-52.5798-3.0517-17.624-6.2784-35.2209-9.0555-52.8882-2.8385-18.0585-5.2146-36.1896-7.8212-54.2849-.2902-2.0148-.764-4.0032-1.3091-6.8092-3.487 4.4556-6.3764 8.1475-9.2658 11.8393-.5716.6149-1.1432 1.2298-1.7148 1.8447-2.9195 1.776-2.5975 4.5396-2.1574 7.2876.4758 2.9707 1.017 5.9323 1.5975 8.8844.949 4.8263 1.9529 9.6419 2.9337 14.462.0901.9721.1355 1.9508.2773 2.9153 1.0652 7.2456 2.1744 14.4847 3.2218 21.7329 1.6622 11.5022 3.2143 23.0208 4.946 34.5123 2.2116 14.6766 4.5249 29.3382 6.8511 43.9972 2.2044 13.891 4.4203 27.7808 6.7448 41.652 2.3887 14.2542 4.9381 28.4812 7.375 42.7274 2.6677 15.5959 5.2735 31.2024 7.9312 46.7999 3.0515 17.9084 6.3025 35.7853 9.0972 53.7335.8934 5.7379 2.4071 10.4026 8.1 13.0879 2.9741 1.4028 5.5292 3.6899 8.2892 5.5544.5007.3383 1.0775.564 2.1229 1.0999-.9045-4.5467-1.7-8.545-2.4955-12.5432zm166.7451-178.5827c-.0052-.4904.0436-.9882-.0234-1.47-2.199-15.8195-4.472-31.629-6.6031-47.4576-3.3336-24.7604-6.628-49.5265-9.8335-74.3038-2.502-19.3395-4.9429-38.688-7.2286-58.0541-2.251-19.0723-4.2685-38.1722-6.3982-57.2588-.4187-3.7524-.8821-7.4998-1.3693-11.6252-1.594.601-2.7708 1.0052-3.9171 1.4829-12.6621 5.2776-25.283 10.656-37.9846 15.8366-46.9751 19.1597-92.615 41.1069-137.0599 65.5488-1.0302.5665-1.6241 1.9264-2.4214 2.9162 1.1949 8.0348 2.2593 16.0916 3.608 24.1004 4.9264 29.2525 9.8444 58.5071 14.9629 87.7264 4.9162 28.0644 10.3136 56.0459 15.0681 84.1368 5.4241 32.0467 10.5182 64.1514 15.4688 96.2751 2.8331 18.3839 5.0849 36.8573 7.6226 55.287.6494 4.7164 1.3907 9.4202 2.1673 14.6523 1.7459-1.0215 3.0777-1.7705 4.3799-2.5677 7.2772-4.4554 14.4106-9.1654 21.8421-13.3456 46.0654-25.9125 92.1883-51.7227 138.3314-77.4967 2.4681-1.3786 3.2515-2.9733 2.7702-5.7079-.8649-4.9144-1.4768-9.8745-2.1443-14.8222-1.7153-12.7129-3.3995-25.4299-5.1029-38.1443-2.0413-15.2367-4.0897-30.4725-6.135-45.7086z" fill="#3d2712"/><path d="m371.9333 284.0383c2.0453 15.2361 4.0937 30.4719 6.135 45.7086 1.7034 12.7144 3.3877 25.4315 5.1029 38.1443.6676 4.9477 1.2795 9.9078 2.1443 14.8222.4813 2.7346-.3021 4.3293-2.7702 5.7079-46.1431 25.774-92.2661 51.5842-138.3314 77.4967-7.4315 4.1803-14.5649 8.8903-21.8421 13.3456-1.3022.7972-2.634 1.5462-4.3799 2.5677-.7766-5.232-1.5179-9.9358-2.1673-14.6523-2.5377-18.4297-4.7895-36.9031-7.6226-55.287-4.9506-32.1237-10.0447-64.2284-15.4688-96.2751-4.7545-28.0909-10.1519-56.0724-15.0681-84.1368-5.1185-29.2193-10.0365-58.4739-14.9629-87.7264-1.3488-8.0089-2.4131-16.0656-3.6074-24.1006 7.6121-3.0983 15.2786-6.0686 22.8231-9.322 14.298-6.1655 28.5499-12.4397 42.776-18.7698 12.6208-5.6158 25.1119-11.5274 37.7834-17.0244 19.6715-8.5336 39.4443-16.8338 59.183-25.2121 2.8304-1.2014 5.7101-2.2867 9.0059-3.6007 1.4367 9.6224 2.7893 18.7695 4.1713 27.9122 1.2385 8.1932 2.417 16.3969 3.7875 24.5682 1.9997 11.9228 4.1974 23.8123 6.2176 35.7318 1.9066 11.2493 3.6819 22.5209 5.5349 33.7794 2.0739 12.6001 4.1127 25.2063 6.274 37.7915 2.0132 11.7234 4.1503 23.4256 6.2644 35.1315 1.8197 10.076 3.5811 20.1645 5.5755 30.2062.8839 4.4502 2.279 8.7987 3.4419 13.1934zm-138.9051 166.1471c1.2026-.6233 2.0899-1.033 2.9287-1.5255 9.5546-5.6106 19.1219-11.1999 28.6468-16.8606 20.9064-12.4247 41.7735-24.9156 62.6898-37.3237 12.3978-7.3547 24.8489-14.6198 37.3013-21.8819 1.8736-1.0927 2.978-2.3653 2.6385-4.7161-1.6647-11.5303-3.2114-23.0777-4.8819-34.6071-2.8358-19.5729-5.7696-39.1317-8.5957-58.706-3.6377-25.1956-7.1619-50.4075-10.8251-75.5994-3.015-20.7343-6.1085-41.4575-9.2636-62.1709-3.5089-23.0356-7.1169-46.0561-10.7151-69.078-.3168-2.0268-.881-4.015-1.3716-6.2057-1.3438.4842-2.2025.7059-2.9825 1.0882-7.304 3.5804-14.6334 7.1121-21.8821 10.8019-27.355 13.9244-54.692 27.8845-82.0157 41.8703-10.1267 5.1834-20.2057 10.4605-30.2878 15.7305-1.7117.8947-2.9292 1.9817-2.5747 4.3833 2.3451 15.883 4.5063 31.793 6.8119 47.682 2.629 18.1183 5.2196 36.2437 8.0588 54.3296 3.0814 19.6291 6.4041 39.2206 9.6687 58.8207 3.4102 20.4747 6.8252 40.9489 10.3326 61.4072 3.5729 20.8407 7.2439 41.6646 10.9056 62.4899 1.7451 9.9254 3.5682 19.8369 5.4131 30.0713z" fill="#d6953b"/><path d="m140.3536 136.7174c.5716-.6149 1.1432-1.2298 1.7151-1.8443 1.0655 4.6451 2.1711 9.281 3.1868 13.9365 1.7236 7.8998 3.5359 15.7842 5.048 23.7252 2.4042 12.626 4.6088 25.2902 6.8669 37.9438 2.0699 11.5994 4.1084 23.2044 6.1432 34.81 2.1019 11.9881 4.1676 23.9825 6.2779 35.9691 1.4184 8.0569 2.9142 16.1002 4.3265 24.1581 2.2357 12.7565 4.2767 25.5493 6.6894 38.2718 2.0679 10.9044 4.5923 21.7213 6.8232 32.5957 3.1319 15.2657 6.1961 30.5453 9.2561 45.8256 1.893 9.4527 3.6746 18.928 5.607 28.3726.8335 4.0735 1.922 8.0947 2.8947 12.1396.7955 3.9982 1.591 7.9965 2.4956 12.5432-1.0454-.5359-1.6222-.7617-2.1229-1.0999-2.76-1.8646-5.315-4.1516-8.2892-5.5544-5.6929-2.6852-7.2065-7.35-8.1-13.0879-2.7947-17.9482-6.0458-35.8251-9.0972-53.7335-2.6577-15.5976-5.2634-31.204-7.9312-46.7999-2.4369-14.2462-4.9863-28.4732-7.375-42.7274-2.3246-13.8712-4.5405-27.761-6.7448-41.652-2.3262-14.659-4.6395-29.3206-6.8511-43.9972-1.7317-11.4916-3.2838-23.0101-4.946-34.5123-1.0474-7.2481-2.1566-14.4873-3.2218-21.7329-.1418-.9645-.1873-1.9432-.2775-2.9153-.0722-3.4403.0404-6.8965-.2555-10.3174-.5869-6.7828-1.3992-13.5458-2.1182-20.3168z" fill="#b55d0e"/><path d="m371.9333 284.0383c-1.163-4.3947-2.558-8.7432-3.4418-13.1933-1.9944-10.0418-3.7558-20.1302-5.5755-30.2062-2.1141-11.7059-4.2512-23.4081-6.2644-35.1315-2.1612-12.5852-4.2-25.1914-6.274-37.7915-1.8531-11.2585-3.6283-22.53-5.5349-33.7794-2.0202-11.9195-4.218-23.809-6.2176-35.7318-1.3705-8.1713-2.5491-16.375-3.7875-24.5682-1.3819-9.1427-2.7346-18.2898-4.1713-27.9122-3.2957 1.314-6.1755 2.3993-9.0059 3.6007-19.7387 8.3783-39.5115 16.6785-59.183 25.2121-12.6715 5.497-25.1626 11.4086-37.7834 17.0244-14.2261 6.3301-28.478 12.6043-42.776 18.7698-7.5445 3.2533-15.211 6.2237-22.8231 9.322.7967-.9896 1.3906-2.3495 2.4208-2.916 44.4449-24.4419 90.0848-46.3891 137.0599-65.5488 12.7016-5.1806 25.3225-10.559 37.9846-15.8366 1.1462-.4777 2.3231-.8819 3.9171-1.4829.4872 4.1254.9506 7.8728 1.3693 11.6252 2.1298 19.0867 4.1472 38.1865 6.3982 57.2588 2.2857 19.3661 4.7266 38.7146 7.2286 58.0541 3.2055 24.7773 6.4999 49.5433 9.8335 74.3038 2.1311 15.8286 4.4041 31.6381 6.6031 47.4576.0669.4817.0181.9795.0233 1.4699z" fill="#e5bf5f"/><path d="m205.1882 462.621c-.9727-4.045-2.0612-8.0662-2.8947-12.1396-1.9324-9.4445-3.714-18.9198-5.607-28.3726-3.06-15.2803-6.1242-30.56-9.2561-45.8256-2.231-10.8744-4.7554-21.6913-6.8232-32.5957-2.4127-12.7225-4.4536-25.5153-6.6894-38.2718-1.4122-8.0579-2.9081-16.1012-4.3265-24.1581-2.1103-11.9866-4.176-23.981-6.2779-35.9691-2.0348-11.6056-4.0733-23.2106-6.1432-34.81-2.258-12.6536-4.4627-25.3178-6.8669-37.9438-1.5121-7.941-3.3244-15.8254-5.048-23.7252-1.0157-4.6555-2.1213-9.2915-3.1868-13.9365 2.8891-3.6922 5.7784-7.3841 9.2655-11.8397.5451 2.806 1.0189 4.7944 1.3091 6.8092 2.6066 18.0953 4.9827 36.2264 7.8212 54.2849 2.7771 17.6674 6.0038 35.2643 9.0555 52.8882 3.0353 17.5292 6.0926 35.0546 9.151 52.5798 2.8237 16.1803 5.7441 32.3444 8.4696 48.5411 2.5793 15.328 5.0267 30.679 7.4095 46.039 2.1878 14.1026 4.342 28.213 6.2688 42.353 1.636 12.0065 2.9263 24.0599 4.3695 36.0925z" fill="#c47420"/><path d="m149.3097 384.89c.696-9.0622 1.4035-18.1236 2.0841-27.187.4616-6.1467.9174-12.2942 1.3182-18.4451.4703-7.2184.8781-14.4409 2.0114-21.7619 6.2041 36.4381 12.4082 72.8761 18.6862 109.7476-5.8269 1.3661-11.4991 2.696-17.1712 4.0263.0027-.2937.0434-.5933.0026-.8813-1.5686-11.0739-3.1044-22.1527-4.7406-33.2166-.6081-4.1121-1.4535-8.189-2.1907-12.282z" fill="#b45c0f"/><path d="m149.3097 384.89c.7372 4.093 1.5826 8.1699 2.1907 12.282 1.6362 11.0639 3.172 22.1427 4.7406 33.2166.0408.288.0002.5876-.0026.8813-2.9943.8172-5.9886 1.6349-9.4283 2.5742.8467-16.5826 1.6732-32.7683 2.4996-48.9541z" fill="#c17320"/><path d="m140.3536 136.7174c.7191 6.7711 1.5313 13.5341 2.1181 20.3166.2959 3.4209.1833 6.8772.2555 10.3174-.9806-4.8201-1.9846-9.6356-2.9336-14.462-.5805-2.9522-1.1217-5.9138-1.5975-8.8844-.4401-2.7481-.762-5.5116 2.1575-7.2876z" fill="#9d4a0a"/><path d="m233.0282 450.1854c-1.8449-10.2345-3.6679-20.1459-5.4131-30.0711-3.6617-20.8253-7.3327-41.6493-10.9056-62.4899-3.5074-20.4583-6.9224-40.9325-10.3326-61.4072-3.2646-19.6001-6.5872-39.1916-9.6687-58.8207-2.8392-18.0859-5.4298-36.2113-8.0588-54.3296-2.3055-15.889-4.4668-31.799-6.8119-47.682-.3546-2.4016.8629-3.4886 2.5747-4.3833 10.0821-5.27 20.161-10.5471 30.2878-15.7305 27.3237-13.9858 54.6606-27.946 82.0157-41.8703 7.2487-3.6898 14.5781-7.2215 21.8821-10.8019.78-.3823 1.6387-.6041 2.9825-1.0882.4906 2.1907 1.0548 4.1789 1.3716 6.2057 3.5983 23.0219 7.2063 46.0424 10.7151 69.078 3.1552 20.7134 6.2486 41.4366 9.2636 62.1709 3.6632 25.1918 7.1874 50.4038 10.8251 75.5994 2.8261 19.5743 5.7599 39.1331 8.5957 58.706 1.6705 11.5294 3.2171 23.0768 4.8819 34.6071.3394 2.3508-.7649 3.6234-2.6385 4.7161-12.4524 7.262-24.9035 14.5271-37.3013 21.8819-20.9163 12.4081-41.7834 24.899-62.6898 37.3237-9.5249 5.6607-19.0922 11.25-28.6468 16.8606-.8388.4923-1.7262.9021-2.9287 1.5253zm-41.2855-299.3223c.4775 3.3569.9551 6.7139 1.4326 10.0708 2.4492 16.2793 4.8984 32.5586 7.3476 48.8379 2.2253 13.7969 4.4505 27.5938 6.6755 41.3898.9984 6.1093 1.9969 12.2186 2.9953 18.3279 2.1816 12.9348 4.3633 25.8696 6.5449 38.8044 3.4606 20.3995 6.9213 40.799 10.3819 61.1985.3465 2.2162.6439 4.4413 1.048 6.6469 1.9711 10.7606 3.9708 21.5161 5.9604 32.2729.7344 4.7521 1.4688 9.5041 2.2713 14.6962 3.8588-2.3504 7.2425-4.4113 10.6261-6.4723 10.4172-5.9084 20.8344-11.8169 31.2516-17.7253.2501-.1427.5002-.2854.7503-.428 0 0-.0318.0964-.0318.0964 5.8948-3.2705 11.8312-6.4686 17.676-9.8262 13.1348-7.5458 26.2242-15.1707 39.3321-22.7634 9.5517-4.8033 8.13-2.9767 6.3634-12.4104-1.5558-9.8273-3.1116-19.6546-4.6673-29.4819-.1389-.6747-.2779-1.3494-.4169-2.024-.0257-.2922-.0513-.5845-.077-.8767-.2512-2.1574-.5024-4.3148-.7536-6.4722-1.8427-12.1073-3.6855-24.2146-5.5282-36.3219-.854-5.7838-1.7079-11.5675-2.562-17.3513-2.4607-16.3304-4.9214-32.6608-7.3821-48.9913-2.3022-15.291-4.6043-30.582-6.9065-45.873-2.3647-16.7277-4.7294-33.4553-7.0941-50.183-.1993-1.5508-.3985-3.1016-.5978-4.6525-1.3911-10.6234-2.7823-21.2469-4.2568-32.5068-9.7955 5.0582-19.1988 9.9137-28.6021 14.7693-1.5982.7189-3.2288 1.3742-4.7896 2.1667-14.1137 7.1664-28.2152 14.3569-42.3206 21.5404-11.6334 5.7694-23.2579 11.5569-34.9108 17.2866-1.5838.7788-2.0652 1.7924-1.762 3.5145.7454 4.2333 1.3444 8.4923 2.0022 12.741zm166.6081 212.0261c-13.7944-97.135-27.5496-193.9941-41.3628-291.2616-2.81 1.3515-5.3238 2.4163-7.6629 3.7808-.6346.3702-1.1446 1.7033-1.0308 2.4968 2.2782 15.8766 4.7024 31.7322 7.0027 47.6058 2.8613 19.7454 5.5476 39.5164 8.4795 59.2511 2.1412 14.4123 4.6451 28.7705 6.8301 43.1766 3.4759 22.9168 6.7569 45.8632 10.2406 68.7788 2.9983 19.723 6.1829 39.4176 9.2454 59.1309.9426 6.0675 1.4343 6.5736 8.2582 7.0408zm-1.4395 5.3021c-3.8063-1.3203-6.846-2.5417-10.214-.5715-10.4942 6.1386-21.0214 12.2238-31.615 18.1891-25.0439 14.1024-50.1386 28.1146-75.1829 42.2162-.8523.4799-2.0111 1.5773-1.9545 2.3032.2136 2.7376.871 5.4406 1.4394 8.5829 39.3803-23.6964 78.1822-47.0448 117.527-70.7199z" fill="#3d2712"/><path d="m207.1987 251.1625c-2.2253-13.7969-4.4505-27.5938-6.6757-41.3907.8869-1.0175 1.9691-1.9228 2.6283-3.071 3.7039-6.4517 7.0848-13.0981 10.9837-19.4268 12.3622-20.0666 24.9056-40.0216 37.3767-60.0211 1.4675-2.3533 2.921-4.7153 4.381-7.0732-1.3288-.119-2.198.208-3.0189.6291-7.0659 3.6239-14.1007 7.3091-21.189 10.8883-7.2544 3.6631-14.5586 7.2275-21.841 10.8351.1977-.6396.2429-1.3909.6168-1.9013 3.4641-4.7285 7.0918-9.3406 10.4492-14.1422 2.0376-2.914 3.6826-6.1025 5.5039-9.1677 14.1051-7.1834 28.2065-14.3739 42.3202-21.5403 1.5608-.7925 3.1914-1.4478 4.7896-2.1667-.2594.7291-.3804 1.5518-.8001 2.1723-3.1218 4.6146-6.33 9.1707-9.4539 13.784-1.5764 2.328-3.0335 4.7367-4.5446 7.1089.2206.1758.4411.3515.6617.5273 8.8027-4.5614 17.6055-9.1227 26.7231-13.8472 2.0298 8.7654 3.9439 17.031 6.0287 26.0337 2.2456-3.077 3.9841-5.6415 5.9113-8.0555 2.7041-3.3873 5.5484-6.6627 8.3328-9.9859.1993 1.5508.3985 3.1016.5978 4.6525-.5249.3953-1.1809.6943-1.5528 1.2016-2.0705 2.8243-3.9927 5.7598-6.1206 8.5387-1.9697 2.5723-4.1343 4.9952-6.2141 7.4835-.3608-.9608-.7206-1.9212-1.1919-3.1793-.599.6257-.9615.9228-1.2245 1.291-8.2163 11.5056-16.3919 23.0405-24.6559 34.5118-1.7425 2.4188-3.8036 4.608-5.7178 6.9031-.3066-1.425-.6102-2.8507-.9203-4.2749-1.5154-6.9606-3.0487-13.9173-4.5387-20.8833-.4069-1.9024-1.5826-3.2785-3.4009-2.7893-1.2167.3273-2.3622 1.7691-3.035 2.9903-.5098.9254-.3329 2.2956-.2695 3.4574.1599 2.9287.3105 5.8663.6754 8.7739 1.1427 9.1069 2.3825 18.2016 3.5847 27.301-1.2231 1.0408-2.6783 1.9057-3.6253 3.1555-2.765 3.649-5.4656 7.3636-7.9242 11.2227-1.8988 2.9805-3.3945 6.2178-5.0694 9.3409-6.0861 3.5624-8.9164 9.3156-10.6406 15.8132-.8367.7311-1.8744 1.3261-2.4772 2.2157-3.6496 5.3858-7.1477 10.8745-10.81 16.2514-1.3964 2.0496-3.0932 3.8949-4.653 5.8335z" fill="#c9e9f6"/><path d="m328.363 261.051c.854 5.7837 1.7079 11.5675 2.5611 17.3518-1.0198.9159-2.0387 1.8311-3.0587 2.746-1.3136-4.6777-2.6262-9.355-4.0587-14.4597-8.0864 11.4087-15.7929 22.2814-23.4994 33.1541-1.38-1.8931-2.6611-3.8714-4.1847-5.6408-.6862-.7969-2.1874-1.8597-2.7335-1.5949-.9429.4572-1.8077 1.7842-2.0168 2.8779-.3042 1.5913-.0978 3.3095.0681 4.9557.4009 3.979.9044 7.9476 1.3666 11.9204-2.3638 3.464-4.7791 6.8941-7.0777 10.4008-2.6077 3.9783-5.1108 8.0253-7.6594 12.0424-4.8111-5.9097-6.1131-13.2089-8.0184-20.2675-.7131-2.642-1.16-5.3891-2.1951-7.8955-.4483-1.0855-2.1167-2.37-3.1595-2.3105-1.0542.0601-2.1373 1.5782-2.9757 2.6407-.4301.545-.52 1.4987-.4788 2.2522.2292 4.196.2381 8.4361.896 12.5698 1.3822 8.6845 5.5645 16.2292 10.3349 23.4718-2.0144 3.078-4.1438 6.0877-6.0233 9.246-8.0309 13.4953-15.9596 27.0514-23.9882 40.548-2.6816 4.508-5.55 8.9051-8.333 13.3528-1.9896-10.7573-3.9892-21.5128-5.9604-32.2734-.4041-2.2057-.7014-4.4308-1.048-6.6473.6114-.745 1.3962-1.4046 1.8082-2.2467 6.6647-13.6216 12.9993-27.4135 19.9955-40.8616 6.088-11.7024 12.9445-23.0037 19.3953-34.5193 3.2442-5.7912 6.3415-11.6647 9.5047-17.5013 1.2695.0977 2.5378.2348 3.8096.2868 4.1808.1708 4.4475-.0379 5.8256-4.1361 2.5818-7.6778 5.1726-15.3526 7.7597-23.0286.468-.337 1.0731-.5788 1.3829-1.0255 3.4954-5.0401 6.8677-10.1673 10.4382-15.1528 2.0006-2.7934 4.3095-5.366 6.4796-8.0381 1.9986 8.0247 4.0281 16.0418 5.9856 24.0765 1.4633 6.0061 2.8339 12.0348 4.2645 18.1335 1.6863-1.6253 3.1397-3.0264 4.5932-4.4276z" fill="#c9e9f6"/><path d="m277.8247 274.3633c-3.1637 5.8363-6.261 11.7098-9.5052 17.501-6.4508 11.5155-13.3073 22.8168-19.3953 34.5193-6.9961 13.4481-13.3308 27.2399-19.9955 40.8616-.412.8421-1.1969 1.5017-1.8082 2.2467-3.4606-20.3991-6.9212-40.7986-10.382-61.1984.8863-.8795 1.9687-1.6321 2.6297-2.6567 9.4442-14.6388 18.8316-29.3143 28.2327-43.981 9.5963 5.3737 19.4329 10.1753 30.2238 12.7075z" fill="#f9f9f9"/><path d="m336.4531 314.7242c.2512 2.1574.5024 4.3148.7536 6.4719-.5799-1.1602-1.1597-2.32-1.8812-3.7633-1.0711 1.1582-2.0468 1.9941-2.7564 3.015-5.9758 8.5974-11.8909 17.237-17.8478 25.8476-6.4539 9.3289-12.8787 18.6789-19.4192 27.9469-4.8981 6.9408-9.9953 13.741-14.9091 20.6711-.7323 1.0328-.944 2.4347-1.3965 3.6658 0 0 .0318-.0964.0309-.0962-.2504.1427-.4999.2853-.7494.4279-10.4172 5.9084-20.8344 11.8169-31.2517 17.7253.7565-2.2883 1.136-4.7986 2.3302-6.8297 8.6009-14.6277 17.3937-29.1425 26.0636-43.7299 2.4351-4.0972 4.6631-8.3175 6.9861-12.4814 3.0309.4635 6.1698 1.668 9.0713 1.2448 7.3007-1.0649 10.9523-6.6276 11.8894-13.1606 1.0989-7.661.7887-15.5242 1.0896-23.2997.7527-.5468 1.7529-.9357 2.2186-1.6656 3.5739-5.6023 6.9693-11.3189 10.5677-16.9049 3.4257-5.3179 7.0296-10.521 10.5551-15.7746 1.9536 7.9275 3.7977 15.8846 5.9276 23.7644.6386 2.3627.0082 5.3461 2.7276 6.9252z" fill="#c9e9f7"/><path d="m358.3508 362.8892c-6.8239-.4672-7.3156-.9733-8.2582-7.0407-3.0625-19.7133-6.2471-39.4079-9.2454-59.1309-3.4836-22.9156-6.7646-45.862-10.2406-68.7788-2.185-14.4061-4.6889-28.7643-6.8301-43.1766-2.9319-19.7347-5.6182-39.5058-8.4795-59.2511-2.3003-15.8735-4.7244-31.7292-7.0027-47.6058-.1139-.7934.3961-2.1266 1.0308-2.4968 2.3391-1.3645 4.8529-2.4293 7.6629-3.7808 13.8132 97.2674 27.5684 194.1265 41.3628 291.2615z" fill="#c17320"/><path d="m314.0744 166.1868c2.3022 15.291 4.6043 30.582 6.9062 45.8731-.9448.9231-1.9604 1.7849-2.8185 2.7822-1.5573 1.8098-3.0209 3.7003-4.5239 5.557-.2978-.596-.7252-1.1614-.8734-1.7924-2.0966-8.9246-4.1399-17.8617-6.2305-26.7877-.8802-3.7584-1.8408-7.4979-2.8485-11.5852-.8713.7431-1.4998 1.088-1.8601 1.6159-3.638 5.3296-7.2162 10.7001-10.8562 16.0283-.5267.771-1.2914 1.3795-1.946 2.0632-.6553-.1575-1.3297-.2603-1.9631-.4808-9.6137-3.3468-20.2007 2.0109-23.2148 11.7724-.3059.9905-.5359 2.0045-.8634 3.2429-5.6353-3.3946-11.4852-5.1191-17.7312-5.5094.5952-1.2068 1.1372-2.4438 1.7954-3.6155 2.9241-5.2057 5.8816-10.3927 8.8269-15.5864 4.061-.7214 5.345-2.1012 5.4578-5.9113.0289-.976-.0142-1.9541-.0242-2.9312.4826-.2967 1.135-.479 1.423-.9068 6.6709-9.9071 13.2368-19.8855 19.9691-29.7505 3.2902-4.8212 6.8763-9.4405 10.3284-14.1512.3207.698.7734 1.3657.9423 2.0987 2.4473 10.6194 4.8412 21.251 7.2851 31.8712.6507 2.8279 1.4263 5.6271 2.2093 8.6932 3.8779-4.6014 7.2441-8.5955 10.6103-12.5897z" fill="#c9e9f6"/><path d="m209.8438 142.5321c7.2824-3.6076 14.5867-7.172 21.841-10.8351 7.0883-3.5793 14.1231-7.2644 21.189-10.8883.821-.4211 1.6902-.7481 3.0189-.6291-1.46 2.358-2.9136 4.7199-4.381 7.0732-12.4711 19.9995-25.0145 39.9545-37.3767 60.0211-3.8989 6.3288-7.2798 12.9752-10.9837 19.4268-.6592 1.1482-1.7414 2.0535-2.6283 3.071-2.4492-16.2793-4.8984-32.5586-7.3476-48.838 1.4081-1.4578 2.9436-2.8143 4.1983-4.3938 2.867-3.6088 5.5966-7.3266 8.382-11.0002 1.3627-1.0025 2.7254-2.005 4.0881-3.0076z" fill="#f8fcf9"/><path d="m278.9964 398.5791c.4525-1.2311.6642-2.633 1.3965-3.6658 4.9138-6.93 10.011-13.7302 14.9091-20.6711 6.5405-9.268 12.9653-18.618 19.4192-27.9469 5.9569-8.6106 11.872-17.2501 17.8478-25.8476.7096-1.0208 1.6852-1.8568 2.7564-3.015.7215 1.4433 1.3014 2.6032 1.8812 3.7633.0257.2925.0513.5848.0771.8775.139.6748.2779 1.3492.4168 2.0235 1.5558 9.8273 3.1115 19.6546 4.6673 29.482-2.1211 4.1369-4.2422 8.2736-6.3634 12.4103-13.1079 7.5927-26.1973 15.2176-39.3321 22.7634-5.8447 3.3578-11.7811 6.5559-17.6759 9.8264z" fill="#f9f9f9"/><path d="m247.6009 261.6558c-9.401 14.6667-18.7884 29.3422-28.2326 43.981-.661 1.0245-1.7434 1.7772-2.6297 2.6567-2.1815-12.9344-4.3631-25.8692-6.5448-38.8045 1.0123-1.148 2.2834-2.1552 2.9944-3.4662 4.1658-7.6815 8.1703-15.4505 12.324-23.1387.4432-.8203 1.5-1.3091 2.2721-1.9518 3.5569 6.2598 7.9135 11.8269 13.7992 16.0985 2.0466 1.4854 4.0139 3.0802 6.0174 4.625z" fill="#c9e8f6"/><path d="m282.4061 353.5951c-2.323 4.1638-4.551 8.3842-6.9861 12.4814-8.6699 14.5875-17.4626 29.1022-26.0636 43.7299-1.1942 2.0311-1.5737 4.5413-2.3302 6.8297-3.3835 2.0609-6.7672 4.1219-10.626 6.4723-.8024-5.1921-1.5368-9.9442-2.2713-14.696 2.783-4.4475 5.6513-8.8445 8.333-13.3526 8.0286-13.4967 15.9573-27.0528 23.9882-40.548 1.8795-3.1583 4.0089-6.168 6.0234-9.2459 3.311 2.7764 6.6218 5.5528 9.9326 8.3292z" fill="#f9f9f9"/><path d="m306.3825 111.3514c-2.7844 3.3232-5.6287 6.5986-8.3328 9.9859-1.9271 2.414-3.6656 4.9786-5.9113 8.0555-2.0848-9.0027-3.9989-17.2683-6.0287-26.0337-9.1176 4.7245-17.9203 9.2859-26.7231 13.8472-.2206-.1758-.4411-.3515-.6617-.5273 1.511-2.3722 2.9682-4.7809 4.5446-7.1089 3.1238-4.6133 6.3321-9.1694 9.4539-13.784.4198-.6205.5407-1.4432.8001-2.1723 9.4033-4.8556 18.8065-9.7112 28.6021-14.7694 1.4746 11.2601 2.8658 21.8835 4.2569 32.507z" fill="#a4d9f3"/><path d="m356.9113 368.1913c-39.3448 23.6751-78.1467 47.0235-117.5269 70.7198-.5684-3.1424-1.2258-5.8453-1.4394-8.5829-.0566-.7259 1.1021-1.8232 1.9545-2.3032 25.0443-14.1016 50.139-28.1138 75.1829-42.2162 10.5936-5.9653 21.1208-12.0505 31.615-18.1891 3.3679-1.9701 6.4076-.7487 10.2139.5716z" fill="#d0923a"/><path d="m314.0744 166.1868c-3.3661 3.9942-6.7323 7.9883-10.6103 12.5897-.7831-3.0661-1.5586-5.8653-2.2093-8.6932-2.4438-10.6202-4.8378-21.2518-7.2851-31.8712-.1689-.733-.6216-1.4007-.9427-2.0986.022-.9618.0444-1.9236.0668-2.8854 2.0788-2.4887 4.2434-4.9117 6.2131-7.4839 2.1279-2.7788 4.05-5.7144 6.1206-8.5387.3719-.5073 1.0279-.8063 1.5528-1.2016 2.3647 16.7276 4.7294 33.4552 7.0941 50.1829z" fill="#a4d9f3"/><path d="m209.8438 142.5321c-1.3627 1.0026-2.7254 2.0051-4.088 3.0078-1.0281.2379-2.1084.3463-3.0751.7364-3.666 1.4795-7.2951 3.0502-10.938 4.5868-.6578-4.2487-1.2568-8.5077-2.0021-12.741-.3032-1.7221.1782-2.7357 1.762-3.5145 11.6529-5.7297 23.2774-11.5173 34.911-17.2867-1.8212 3.0651-3.4662 6.2536-5.5037 9.1676-3.3574 4.8017-6.9852 9.4138-10.4492 14.1422-.374.5105-.4192 1.2618-.6169 1.9014z" fill="#a4d9f1"/><path d="m227.7842 240.9323c-.7721.6426-1.8289 1.1314-2.2721 1.9518-4.1537 7.6882-8.1582 15.4572-12.324 23.1387-.711 1.311-1.9821 2.3182-2.9944 3.4662-.9984-6.1088-1.9968-12.218-2.9951-18.3269 1.5599-1.9381 3.2567-3.7834 4.653-5.8334 3.6623-5.3769 7.1604-10.8656 10.81-16.2514.6028-.8896 1.6405-1.4846 2.4772-2.2154.8818 4.6903 1.7636 9.3803 2.6454 14.0704z" fill="#f7f7f7"/><path d="m313.6385 220.3992c1.5027-1.8568 2.9663-3.7473 4.5236-5.5571.8581-.9973 1.8737-1.8591 2.8185-2.7822 2.4609 16.3302 4.9217 32.6607 7.3824 48.9911-1.4535 1.4012-2.907 2.8023-4.5931 4.4277-1.4306-6.0987-2.8012-12.1274-4.2645-18.1335-1.9576-8.0347-3.9871-16.0518-5.9846-24.0759.0399-.9562.0788-1.9131.1177-2.8701z" fill="#a4d9f0"/><path d="m336.4531 314.7242c-2.7194-1.5791-2.089-4.5625-2.7277-6.9254-2.1299-7.8798-3.974-15.8369-5.928-23.7643.0228-.9617.0459-1.9235.069-2.8853 1.0189-.9153 2.0378-1.8305 3.0576-2.7464 1.8436 12.1068 3.6864 24.2141 5.5291 36.3214z" fill="#a3d5eb"/><path d="m191.7427 150.8631c3.6429-1.5366 7.2721-3.1073 10.938-4.5868.9667-.3901 2.047-.4986 3.0751-.7364-2.7855 3.6735-5.5152 7.3913-8.3821 11.0001-1.2548 1.5795-2.7903 2.936-4.1983 4.3938-.4776-3.3568-.9552-6.7138-1.4327-10.0707z" fill="#c9e8f6"/><path d="m336.0045 365.9895c2.1211-4.1367 4.2422-8.2734 6.3634-12.4103 1.7666 9.4337 3.1883 7.607-6.3634 12.4103z" fill="#c9e8f6"/><path d="m337.7006 324.0972c-.1389-.6743-.2778-1.3487-.4168-2.0235.1388.6741.2778 1.3488.4168 2.0235z" fill="#c9e9f7"/><path d="m278.2779 398.9107c.2495-.1426.4989-.2851.7493-.4279-.2491.1425-.4992.2852-.7493.4279z" fill="#f9f9f9"/><path d="m227.7842 240.9323c-.8818-4.69-1.7636-9.3801-2.6454-14.0704 1.7242-6.4978 4.5545-12.251 10.641-15.8135 3.1574-.6941 6.3144-1.388 9.4715-2.082 6.2458.3904 12.0957 2.1148 17.731 5.5094.3274-1.2383.5575-2.2523.8634-3.2429 3.0141-9.7614 13.6011-15.1192 23.2148-11.7724.6334.2205 1.3078.3232 1.964.4791 10.5045 6.7755 12.5897 16.7597 10.4804 28.1613-1.2031 6.5031-2.8427 12.9254-4.2857 19.3841-2.5871 7.676-5.178 15.3508-7.7597 23.0286-1.3781 4.0982-1.6447 4.3069-5.8256 4.1361-1.2718-.052-2.5401-.189-3.8096-.2868-10.7904-2.5318-20.627-7.3335-30.2233-12.7072-2.0036-1.5448-3.9709-3.1396-6.0175-4.625-5.8858-4.2715-10.2424-9.8386-13.7993-16.0984zm53.4738 16.0326c4.4946-10.7865 7.9305-21.8716 9.2393-33.5286.458-4.0792-.0379-8.0461-2.4392-11.5413-2.8044-4.082-7.6679-5.2854-11.2139-2.2492-4.3663 3.7385-8.7893 7.6825-8.1448 14.4194.1958 2.0461-.5066 3.8349-2.5386 4.6271-2.3996-2.7922-4.2796-6.135-7.1299-7.9747-2.9106-1.8786-6.7738-2.2813-10.22-3.3302-8.6004-2.4682-16.0742 4.7007-14.5868 13.9224.8585 5.3227 3.3896 9.7546 7.0194 13.6016 10.3398 10.9585 24.0547 15.6304 38.0726 20.4789.6795-2.9482 1.3107-5.6868 1.9419-8.4254z" fill="#4c3017"/><path d="m261.3069 180.9219c.01.9771.0531 1.9552.0242 2.9312-.1128 3.81-1.3968 5.1898-5.458 5.9112-1.1584-.8117-2.3166-1.6234-3.4747-2.435-1.2022-9.0994-2.442-18.1941-3.5847-27.301-.3648-2.9076-.5154-5.8452-.6754-8.7739-.0635-1.1618-.2404-2.532.2695-3.4574.6728-1.2211 1.8184-2.6629 3.035-2.9903 1.8183-.4892 2.994.8869 3.4009 2.7893 1.49 6.966 3.0232 13.9227 4.5387 20.8833.3101 1.4242.6137 2.8499.9203 4.2746.3347 2.7225.6695 5.4453 1.0042 8.168z" fill="#4c3219"/><path d="m261.3069 180.9219c-.3347-2.7227-.6695-5.4455-1.0043-8.1679 1.9142-2.2947 3.9753-4.484 5.7178-6.9028 8.264-11.4712 16.4396-23.0061 24.6559-34.5118.2629-.3682.6255-.6653 1.2245-1.291.4713 1.258.8311 2.2184 1.1919 3.1793-.0213.9622-.0437 1.9241-.0657 2.8858-3.4518 4.7106-7.0378 9.3299-10.328 14.1512-6.7322 9.865-13.2982 19.8434-19.9691 29.7505-.2879.4277-.9403.6101-1.423.9067z" fill="#f8fcf9"/><path d="m252.3983 187.3293c1.1582.8116 2.3164 1.6233 3.4747 2.435-2.9452 5.1939-5.9026 10.3808-8.8267 15.5865-.6582 1.1717-1.2001 2.4087-1.7954 3.6155-3.1568.6939-6.3139 1.3879-9.4713 2.082 1.6746-3.123 3.1703-6.3604 5.0691-9.3408 2.4586-3.8591 5.1592-7.5737 7.9242-11.2227.9472-1.2498 2.4024-2.1147 3.6254-3.1555z" fill="#f7f7f7"/><path d="m282.4061 353.5951c-3.3108-2.7764-6.6216-5.5528-9.9326-8.3293-4.7705-7.2427-8.9528-14.7874-10.335-23.4719-.6579-4.1337-.6668-8.3738-.896-12.5698-.0412-.7535.0487-1.7072.4788-2.2522.8384-1.0625 1.9216-2.5806 2.9757-2.6407 1.0427-.0595 2.7112 1.225 3.1595 2.3105 1.0351 2.5064 1.4819 5.2535 2.1951 7.8955 1.9053 7.0586 3.2073 14.3579 8.0183 20.2674 2.4768 2.8629 4.6406 6.1019 7.511 8.4925 3.4753 2.8943 5.9655 1.8229 7.4659-2.4952.2242-.6454.3763-1.3174.536-1.9833 2.1315-8.8885 1.1053-17.6855-.7757-26.4569-.4622-3.9728-.9657-7.9415-1.3666-11.9204-.1659-1.6462-.3723-3.3644-.0681-4.9557.2091-1.0937 1.0739-2.4206 2.0168-2.8779.5461-.2648 2.0472.7979 2.7335 1.5949 1.5236 1.7694 2.8047 3.7477 4.185 5.6409 1.3831 6.1788 2.766 12.3575 4.1488 18.5363-.3009 7.7755.0093 15.6386-1.0896 23.2997-.9371 6.533-4.5887 12.0957-11.8894 13.1606-2.9016.423-6.0405-.7815-9.0714-1.245z" fill="#4c3219"/><path d="m295.2191 247.485c1.4431-6.4587 3.0826-12.881 4.2857-19.3841 2.1093-11.4016.0241-21.3858-10.4804-28.1613.6537-.6821 1.4183-1.2905 1.9451-2.0616 3.6401-5.3282 7.2182-10.6987 10.8562-16.0283.3604-.5279.9888-.8728 1.8601-1.6159 1.0077 4.0873 1.9682 7.8268 2.8485 11.5852 2.0906 8.926 4.1339 17.8631 6.2305 26.7877.1482.631.5756 1.1964.8734 1.7924-.0386.957-.0775 1.9139-.1175 2.8702-2.171 2.6714-4.4799 5.244-6.4806 8.0374-3.5706 4.9855-6.9428 10.1127-10.4382 15.1528-.3097.4467-.9148.6886-1.3828 1.0255z" fill="#f7f7f7"/><path d="m304.4564 318.3796c-1.3828-6.1787-2.7657-12.3575-4.1488-18.5363 7.7062-10.8727 15.4127-21.7454 23.4991-33.1541 1.4325 5.1047 2.745 9.782 4.0587 14.4597-.0221.9622-.0452 1.9239-.068 2.8857-3.5251 5.2535-7.1291 10.4566-10.5547 15.7745-3.5984 5.586-6.9938 11.3026-10.5677 16.9049-.4656.7299-1.4659 1.1188-2.2186 1.6656z" fill="#f9f9f9"/><path d="m292.8071 312.3616c1.881 8.7715 2.9072 17.5684.7757 26.4569-.1597.6659-.3117 1.338-.536 1.9833-1.5004 4.3181-3.9906 5.3896-7.4659 2.4952-2.8704-2.3906-5.0342-5.6296-7.511-8.4925 2.5487-4.017 5.0518-8.0639 7.6595-12.0422 2.2985-3.5066 4.7139-6.9367 7.0777-10.4007z" fill="#f1f4f4"/><path d="m248.8109 217.3875c3.4462 1.0488 7.3094 1.4516 10.22 3.3302 2.8503 1.8396 4.7303 5.1825 7.1299 7.9747 2.032-.7922 2.7344-2.581 2.5386-4.6271-.6445-6.737 3.7786-10.681 8.1448-14.4194 3.546-3.0361 8.4095-1.8327 11.2139 2.2492 2.4012 3.4951 2.8972 7.4621 2.4392 11.5413-1.3089 11.657-4.7448 22.742-9.2393 33.5286-12.0426-6.693-21.2105-16.2444-27.6964-28.3239-1.9178-3.5718-3.1852-7.4927-4.7507-11.2536z" fill="#fd998a"/><path d="m248.8109 217.3875c1.5655 3.7609 2.8329 7.6817 4.7507 11.2535 6.4859 12.0795 15.6539 21.6309 27.6964 28.3239-.6312 2.7386-1.2624 5.4772-1.9419 8.4254-14.0179-4.8484-27.7328-9.5203-38.0726-20.4789-3.6298-3.847-6.1609-8.2789-7.0194-13.6016-1.4874-9.2216 5.9864-16.3905 14.5868-13.9223z" fill="#fd7e6c"/></g></svg>