<svg id="Layer_1" enable-background="new 0 0 512 512" height="512" viewBox="0 0 512 512" width="512" xmlns="http://www.w3.org/2000/svg"><g><path d="m272.8176 47.8915c7.1551-8.0721 16.5498-13.4743 27.2244-16.6646 12.6091-3.7684 25.099-2.6398 37.4112 1.5257 21.3202 7.2131 38.8576 19.5665 51.4464 38.4252 9.3378 13.9886 15.0733 29.513 18.2797 45.9276 6.7816 34.7179 2.5851 68.4804-9.8671 101.3086-9.0391 23.83-22.137 45.3541-38.3831 64.9847-1.5364 1.8565-3.221 2.6038-5.5748 2.6289-13.9364.1489-27.7978-.7545-41.5935-2.712-.6027-.0855-1.1982-.2244-1.8018-.3007-4.0805-.5154-4.1527-.3973-6.0287 3.2177-5.5923 10.7763-10.8929 21.7253-16.9727 32.2215-6.563 11.3303-16.2757 19.0637-29.1814 22.4255-4.475 1.1657-8.942 1.1514-13.4487.3768-3.9703-.6824-4.4017-.5356-6.1228 2.9831-14.5239 29.6922-29.0108 59.4024-43.5382 89.0929-7.97 16.2887-18.5476 30.6002-32.7643 41.9771-6.8867 5.5111-14.6327 9.5021-23.7269 9.5894-10.2909.0988-17.6917-6.2449-17.9616-15.6463-.1434-4.9938-.11-10.2918 1.3649-14.9733 3.5632-11.3102 7.3924-22.621 12.2464-33.4228 10.348-23.0278 21.3482-45.7644 32.2183-68.5549 4.5561-9.5524 9.4199-18.9594 14.25-28.3781.7265-1.4167.2954-2.0203-.6236-3.0552-5.7592-6.4857-12.0265-12.637-16.9706-19.7067-12.0639-17.2505-14.5208-36.4182-9.592-56.7209 2.5304-10.4231 6.2341-20.4104 10.8599-30.0586 1.0483-2.1864.8933-3.77-.7182-5.6228-13.2155-15.1939-23.3723-32.1692-28.9943-51.5978-6.4949-22.4452-8.7269-45.2526-1.1635-67.7477 10.6023-31.5332 32.6834-50.4117 65.6909-56.0429 17.5989-3.0024 35.055-2.5822 51.8757 3.8629 7.4952 2.8719 14.5307 6.9432 22.16 10.6577zm-35.7622 240.9106c-.2199-.0771-.4398-.1543-.6597-.2314-4.7028-3.2854-6.1499-7.85-5.2067-13.3329.2475-1.4384.5845-2.8613.8805-4.2914 1.524-3.264 3.0479-6.5281 4.5647-9.7767-4.5543-2.6842-4.5509-2.6813-7.8782 1.1868-.9024 1.049-1.7788 2.128-2.7575 3.1024-5.2275 5.2047-10.6476 10.0441-18.8367 9.1879-3.9448-1.5548-5.5914-4.5664-4.9289-8.6147.704-4.3018 1.787-8.5414 2.7045-12.8083 1.1363-2.3967 2.2727-4.7935 3.4598-7.2973-1.6866-1.054-3.2113-2.0068-4.7359-2.9596.2795.3731.559.7462.8385 1.1193-3.7276 2.9615-7.5978 5.7631-11.145 8.9268-4.0278 3.5924-8.4032 5.37-13.7846 4.049-4.0776-1.9083-5.6737-5.3258-5.9313-9.6123-.4389-7.3044 1.1451-14.2514 3.6287-21.0444.585-1.6002 1.2245-3.168-.8462-4.2153-1.6696-1.599-3.3391-3.1981-5.1642-4.946-.4133.7102-.7614 1.1921-.9936 1.7245-3.9615 9.0827-7.2914 18.3603-9.5059 28.0565-3.6226 15.8619-1.7118 30.8676 6.223 45.093 5.6207 10.0769 13.0015 18.6458 21.9867 25.8657.9799.7874 2.225 1.3126 1.2401 3.2944-8.1885 16.4758-16.2799 33.0008-24.2736 49.5722-11.5793 24.0045-23.0173 48.0748-32.1419 73.1607-2.7451 7.547-5 15.1816-4.9327 23.3235.0439 5.3078 2.1576 7.8968 7.3583 8.6648 3.8948.5751 7.591-.0361 10.93-2.2605 3.5625-2.129 7.4118-3.8961 10.6368-6.4511 12.3469-9.7823 21.1927-22.3249 28.1005-36.3864 15.2591-31.0616 30.6566-62.0552 45.9305-93.1095 1.1175-2.272 2.4241-3.1194 5.0394-2.9077 19.374 1.5684 34.5251-5.7454 44.5821-22.4362 5.4062-8.9722 9.9409-18.4695 14.8689-27.7299.6343-1.139 1.2687-2.278 1.9594-3.5182-1.6718-.3373-2.9804-.4814-4.2084-.8761-2.0397-.6557-3.5376-.2316-4.573 1.7212-.4451.8394-1.0119 1.6239-1.5925 2.3802-4.7419 6.1763-9.5667 12.2533-17.9051 13.7486-6.3353-1.2902-9.5628-4.9464-9.3747-11.0078.0794-2.559.6849-5.1016 1.0513-7.6517 1.0412-2.3384 2.0824-4.6769 3.1807-7.1436-.5811-.2323-1.1364-.4395-1.68-.6739-4.4006-1.8977-3.7093-1.2765-6.017 1.9871-2.8288 4.0005-5.8484 7.8896-9.0585 11.59-2.8685 3.3067-6.6856 4.4536-11.0374 3.5199l-.1634.1239zm149.9233-69.2366c7.5967-17.638 11.7851-36.1558 13.6674-55.1748 1.8921-19.1173.087-37.9817-5.0041-56.5378-6.841-24.9344-20.4485-44.9185-42.6652-58.6115-11.2133-6.9112-23.2548-11.3708-36.6072-11.6208-15.2308-1.2016-27.595 5.0422-39.1205 15.0092 1.607 1.5634 3.054 2.9341 4.4601 4.3454 6.1146 6.1373 9.3549 13.5976 10.5708 22.13.3964 2.7815-.3958 4.6313-2.588 6.4398-.6107-1.0536-1.2645-1.9614-1.6932-2.9654-1.0173-2.382-1.928-4.8095-2.8818-7.2186-1.7248-3.1626-2.9578-6.7478-5.2537-9.4195-15.7124-18.2846-36.2658-25.3808-59.8198-25.2224-7.5692.5891-15.2121.7216-22.6819 1.9269-5.0313.8118-9.818 3.1391-14.7142 4.7885-1.4199.6273-2.86 1.2127-4.2566 1.8882-16.2872 7.8788-27.9439 20.1284-34.5346 37.013-5.1949 13.3088-7.1182 27.063-5.8329 41.3775 1.2065 13.4372 4.0567 26.4155 9.2781 38.8229 8.8802 21.1021 22.6775 38.5558 40.1869 53.1494 14.153 11.7961 29.3806 21.8889 46.2327 29.5177 12.7484 5.7711 25.3262 12.0128 38.8342 15.7793 13.5298 3.7726 27.1904 7.1469 40.9211 10.1043 10.4207 2.2445 21.003 4.1742 31.7749 2.9223 2.6506-.308 6.0265-.5635 7.6544-2.2273 3.6667-3.7476 6.4481-8.3613 9.5897-12.6226.5694-.6411 1.2486-1.2148 1.6909-1.9341 3.6346-5.9107 7.468-11.717 10.7682-17.811 4.2378-7.8251 8.0365-15.8881 12.0243-23.8486zm-202.8858 9.4794c-1.9127 5.944-3.1946 11.5906-2.8121 17.4797.2074 3.193 1.4251 3.8815 4.2038 2.391 4.592-2.4631 7.9545-6.245 11.1129-10.5221-4.1702-3.1177-8.179-6.1147-12.5046-9.3486zm99.0582 48.8554c-3.5445-1.0825-6.8223-2.1468-10.1465-3.0381-.5705-.153-1.6577.2272-1.965.7075-2.3815 3.7221-4.0862 7.6677-3.2021 12.263.5159 2.6819 1.575 3.2604 4.0115 1.9719 5.0284-2.6593 8.0811-7.195 11.3021-11.9043zm-73.7058-10.6938c6.9392-1.7476 10.7555-6.9705 15.1026-11.9633-3.4103-1.8785-6.6351-3.6548-10.087-5.5562-2.1674 5.792-4.8854 11.131-5.0156 17.5195zm42.4968.3458c-2.5411-1.0387-4.7436-2.054-7.0327-2.8055-.6997-.2298-2.1389-.0007-2.3875.4691-2.2277 4.2095-4.666 8.4213-4.065 13.4657.1103.926.6145 2.1042 1.3242 2.5515.4522.2849 1.7551-.3888 2.4415-.9305 4.2393-3.3454 7.0016-7.8391 9.7195-12.7503z" fill="#3b120f"/><path d="m78.4884 74.3915c12.3773 1.0924 21.4063 6.0352 29.2388 13.4097 2.1294 2.0049 2.0878 4.7547.1654 7.2878-3.8164 5.0288-9.2506 7.2108-15.2046 8.1126-9.6357 1.4594-18.5984-.2282-25.7774-7.2782-7.2489-7.1187-5.3239-16.1596 4.1458-19.8511 2.7586-1.0754 5.835-1.3355 7.432-1.6808zm-4.9713 8.4113c-4.7332 2.6135-4.9829 5.2134-.8328 8.6915.1324.111.2827.2004.4241.3007 7.6715 5.4438 15.8716 5.8708 24.348 2.312 1.6537-.6943 2.953-2.2328 4.4158-3.3819.3655-.4171.7309-.8342 1.1019-1.2577-5.2884-4.1559-11.594-6.6788-19.9908-8.0722-3.3094-.5492-6.5597-.7359-9.4662 1.4076z" fill="#3c1512"/><path d="m431.775 113.8231c-1.546.0097-3.0924.0047-4.638.0333-1.5584.0289-2.5331-.5821-2.4905-2.2652.2441-9.6514 7.7682-27.6361 21.9893-31.2764 7.7857-1.993 14.2743 1.6643 15.6033 9.3555.3602 2.0847.0374 4.5826-.8053 6.5303-4.3362 10.0213-18.8173 18.5526-29.6588 17.6225zm5.7732-7.8461c6.247-1.8753 11.6314-5.1216 15.869-10.126 1.2847-1.5172 2.3753-3.181 1.52-5.3493-.9946-3.7651-2.2327-4.6612-5.9171-3.977-1.5135.2811-3.062.722-4.422 1.4245-8.7971 4.5442-11.9482 12.9652-15.146 22.1795 3.0864-1.5828 5.5913-2.8673 8.0961-4.1517z" fill="#3c1412"/><path d="m454.0143 160.6897c-5.3387-.1452-11.0494-4.5827-15.8328-10.3266-4.1522-4.9859-6.4351-10.8852-6.8518-17.4278-.282-4.4271 1.6581-6.6908 6.0476-7.0727 12.0504-1.0484 24.1347 6.6242 29.277 18.5026 1.2747 2.9445 2.1391 5.9098 1.2438 9.0879-1.3967 4.9584-5.3823 7.5076-13.8838 7.2366zm-9.1504-28.2263c-2.5572-.5656-5.1144-1.1313-7.941-1.7565.595 2.2579 1.0899 3.9994 1.5114 5.7585 2.0246 8.4499 9.0834 15.5824 16.6139 16.7593.4758.1981.9344.4789 1.43.5811 4.0148.8284 6.0714-1.4155 4.8381-5.2697-.2097-.6554-.4962-1.2892-.783-1.9165-3.1873-6.9703-8.4414-11.6567-15.6694-14.1562z" fill="#3c1512"/><path d="m110.0409 66.4759c-9.863-.2395-17.9987-3.9814-23.9725-11.9715-5.102-6.824-3.8846-14.65 2.8751-18.3818 3.389-1.871 7.0198-2.0504 10.5501-.4744 8.9391 3.9908 15.2353 10.6097 18.2802 19.907.9102 2.7793.6144 6.0271.4418 9.0356-.043.7493-1.6858 1.8402-2.7153 2.0031-1.7693.28-3.6345-.0462-5.4594-.118zm2.1809-7.6946c-.2208-.9134-.3007-1.8912-.6846-2.7299-3.054-6.6705-8.4625-10.8421-14.9114-13.8828-2.0905-.9169-3.8539-.4807-5.3521 1.2346-1.5198 1.7401-1.158 3.5163-.1428 5.2947.4282.7501.9242 1.4712 1.4629 2.1469 4.5858 5.7515 10.9152 8.0074 17.9265 8.8013.5277.0598 1.1325-.5606 1.7015-.8648z" fill="#3c1412"/><path d="m285.1169 75.361c.9538 2.4091 1.8645 4.8366 2.8818 7.2186.4288 1.0039 1.0826 1.9118 1.6932 2.9654 2.1922-1.8085 2.9843-3.6583 2.588-6.4398-1.2158-8.5324-4.4562-15.9927-10.5708-22.13-1.4061-1.4114-2.8531-2.7821-4.4601-4.3454 11.5255-9.9669 23.8897-16.2108 39.1206-15.0093.9617.5181 1.8841 1.1339 2.8914 1.5385 5.868 2.3568 11.9577 4.2597 17.5949 7.0725 11.5643 5.7703 21.1003 14.1097 29.3259 24.1068 5.0033 6.0808 9.4288 12.4925 12.7206 19.5779 5.9734 12.8573 10.6071 26.2506 13.1635 40.1981 1.646 8.9804 2.6728 18.1377 3.1139 27.2574.425 8.7876.4432 17.7153-.6297 26.425-1.4135 11.4743-3.9214 22.8286-7.678 33.8388-.1929.5654.0608 1.2832.1065 1.93-3.9878 7.9605-7.7865 16.0235-12.0242 23.8488-3.3002 6.094-7.1337 11.9003-10.7682 17.811-.4423.7193-1.1215 1.2929-1.6916 1.9336-1.4969-.431-2.9673-1.0352-4.4938-1.2633-8.4545-1.2629-16.9759-2.1483-25.373-3.7084-10.8535-2.0163-21.7486-4.0529-32.3698-7.0026-9.4776-2.6322-18.6679-6.3595-27.8749-9.8905-11.6771-4.4784-22.9417-9.8478-33.538-16.5548-16.9629-10.7367-32.2158-23.3715-44.6326-39.301-9.0206-11.5726-16.3395-24.0514-21.4249-37.8277-3.7216-10.0818-5.7785-20.4484-5.4171-31.2333.1443-4.3054.1104-8.6333.5648-12.9076.5561-5.2307 1.0837-10.5381 2.4383-15.594 2.4153-9.0149 5.4599-17.8605 8.2057-26.7879 1.396-4.5387 2.7144-9.1013 4.0678-13.6532 4.8961-1.6494 9.6829-3.9767 14.7142-4.7885 7.4698-1.2053 15.1127-1.3378 22.682-1.9272.1928.2636.3341.6875.5856.7683 7.7293 2.4816 15.5299 4.7575 23.1851 7.4475 4.5505 1.599 8.9075 3.7712 13.2932 5.8112 6.5702 3.0562 11.1843 8.637 16.6822 13.0824 3.8875 3.1434 7.2334 6.6709 9.4952 11.1598.5081 1.0084 1.0085 2.0208 1.5125 3.0313.1926-.0779.3851-.1558.5777-.2337-.0859-2.1417-.1719-4.2832-.2579-6.4247zm94.7839 102.1624c.2291-.1627.4583-.3255.6874-.4882-.6779-1.3436-1.0735-2.9691-2.0839-3.9805-3.8015-3.8053-7.54-7.7531-11.7858-11.0185-8.4782-6.5205-20.5362-3.3621-24.6135 6.5312-2.904 7.0464-4.996 14.4281-7.4342 21.6656-1.631 4.8417-3.4108 5.5643-7.6078 2.6834-5.1585-3.541-10.2462-7.1939-15.2441-10.9584-8.0612-6.0718-14.2117-4.2332-17.517 5.3746-1.4406 4.1876-2.7913 8.4087-4.342 12.5551-1.3966 3.7342-4.1297 5.3769-8.1253 5.1759-4.2616-.2144-7.822-2.2204-11.1851-4.5777-3.7731-2.6446-7.3892-5.5129-11.1571-8.1652-3.1443-2.2132-6.3142-1.7908-8.8338 1.1045-2.7732 3.1868-3.8007 7.0079-3.4347 11.1432.1595 1.8018.6387 3.6688 2.5826 4.5452.3363-2.5553.448-5.0036 1.007-7.3453 1.5768-6.6059 4.1212-7.1792 9.2935-2.9495 4.6184 3.7767 9.506 7.3367 14.6725 10.2987 5.0533 2.8971 10.7966 3.7016 15.6421-.4341 2.5352-2.1638 4.559-5.2437 6.0017-8.2939 1.9944-4.2166 3.1564-8.8205 4.8044-13.2099.9607-2.5588 2.2831-2.9429 4.6746-1.5716 1.0529.6038 2.0331 1.3364 3.0347 2.0273 5.3656 3.701 10.6664 7.5003 16.1067 11.088 6.5985 4.3515 12.1274 2.7096 14.8766-4.7028 2.501-6.7435 4.3965-13.7099 6.6254-20.5564 2.2836-7.0148 8.2048-10.434 13.9832-7.8097 4.5765 2.0785 9.0096 4.5137 13.3456 7.0638 2.1926 1.2895 4.029 3.1841 6.0263 4.8052zm-137.7035-54.9696c3.1499-4.7854 6.0749-9.1949 8.9608-13.6298 1.1807-1.8145 2.2374-3.7083.0636-5.5587-2.183-1.8582-3.9579-.6506-5.3767 1.0294-2.9679 3.5143-5.8469 7.1087-8.6425 10.762-2.3936 3.1279-2.2983 3.146-5.8229 1.1908-6.308-3.4991-12.6078-7.0175-19.0116-10.3339-.8897-.4607-2.3506.1816-3.5471.3133.2934 1.2668.4805 2.5737.9342 3.7803.1744.4639.9537.7034 1.4619 1.0382 5.6597 3.7287 11.3297 7.4419 16.9767 11.1898 2.7291 1.8113 2.6274 1.8433.837 4.6532-2.2396 3.5148-4.3588 7.11-6.4209 10.7325-.7674 1.3481-1.477 2.8266-1.7461 4.3292-.2067 1.1541-.0747 3.0894.6146 3.5061.9182.555 2.766.3844 3.7774-.2136 1.595-.9431 3.0668-2.3265 4.1628-3.8345 2.4505-3.3717 4.7011-6.8954 6.9057-10.4365 1.2202-1.9598 2.3591-2.2771 4.4293-.9928 4.7986 2.9769 9.7028 5.8028 14.703 8.4254 1.937 1.0159 4.2216 1.6027 6.4026 1.8103.9346.089 2.4347-1.0904 2.8847-2.0612.3587-.7738-.2072-2.3362-.866-3.1318-.8509-1.0275-2.1467-1.7403-3.3486-2.4143-5.9816-3.3544-11.9952-6.6514-18.3319-10.1534zm93.8321 1.7667c1.8814 1.0702 3.5199 2.016 5.1711 2.9389 4.3055 2.4066 8.4479 5.2469 13.7517 4.8865 2.1698-.1474 2.8691-1.1114 1.4862-2.7432-1.713-2.0213-3.6772-3.9411-5.8584-5.4268-2.9332-1.9979-6.1288-3.6354-9.3062-5.2407-1.9219-.971-2.1638-1.9325-1.1559-3.8539 2.3375-4.4555 4.517-9.0042 6.5012-13.6265.4404-1.0258.2538-2.8833-.4298-3.7008-1.0997-1.3151-2.8626-1.1116-4.2079.0806-.9646.8548-1.9679 1.7539-2.6458 2.8278-2.0374 3.2275-4.0794 6.4708-5.8126 9.8648-1.0943 2.143-2.1041 2.3353-4.0032 1.0421-4.0919-2.7863-8.2553-5.4721-12.4597-8.0861-1.4112-.8774-3.0241-1.044-4.1711.5746-1.2114 1.7095-.2666 2.8681 1.108 3.9302 4.1224 3.1851 8.1543 6.4917 12.3515 9.5739 1.9779 1.4525 2.3324 2.8772 1.3408 5.0929-1.5585 3.4823-3.0037 7.0342-4.197 10.6555-1.0858 3.2953-1.1632 6.7161-.1367 10.3769 3.5508-2.327 5.9595-5.2195 7.6859-8.6756 1.6944-3.3916 3.2618-6.8465 4.9879-10.4911z" fill="#d23327"/><path d="m261.6625 279.5139c-.3664 2.5501-.9718 5.0927-1.0513 7.6517-.1881 6.0615 3.0394 9.7177 9.3749 11.0078.8987.437 1.9343 1.4045 2.6706 1.2142 2.4611-.636 5.1435-1.2297 7.1446-2.669 4.7705-3.4311 9.1738-7.3694 13.7946-11.0153.7164-.5653 1.7974-.6685 2.7097-.9854-4.9279 9.2604-9.4627 18.7577-14.8689 27.7299-10.057 16.6908-25.2081 24.0045-44.5821 22.4362-2.6153-.2117-3.9219.6357-5.0394 2.9077-15.274 31.0543-30.6714 62.0479-45.9305 93.1095-6.9078 14.0615-15.7536 26.6041-28.1005 36.3864-3.225 2.5551-7.0742 4.3222-10.6367 6.4511-1.0455-2.0593-2.3313-4.0336-3.0943-6.1927-2.9786-8.4279-2.4465-16.9272-.213-25.4343.5607-2.1358.896-4.3308 1.3348-6.4987.09-.2271.1799-.4541.2699-.6812.1558-.4103.3117-.8207.4675-1.2311 1.5649-4.2327 3.1298-8.4655 4.6947-12.6982.1816-.4182.3632-.8365.5447-1.2548-.0526-.1244-.0183-.2165.1028-.2762.1675-.3754.335-.7507.5025-1.1261l-.0254.0349c.2118-.5188.4235-1.0375.6353-1.5562l-.0118.0027c.5-.5562 1.1539-1.0352 1.4769-1.6801 4.8565-9.6949 9.7268-19.3835 14.4805-29.1289 10.0034-20.5075 19.8787-41.0776 29.941-61.556 3.1154-6.3404 2.354-11.9493-1.8112-17.4888-8.8615-11.7852-17.2768-23.8747-24.4321-36.8017-3.1596-5.7083-4.7805-11.973-4.0062-18.2472.8721-7.0668 3.0471-13.9925 4.9229-20.9069.8233-3.035 2.3092-5.8903 3.4942-8.8272 2.0707 1.0473 1.4312 2.6151.8462 4.2153-2.4836 6.793-4.0676 13.74-3.6287 21.0444.2576 4.2865 1.8537 7.704 5.9315 9.6124.9564 1.2202 1.6752 2.8231 2.9122 3.5905 4.0852 2.5342 8.0855.9732 11.8146-1.0291 3.6421-1.9556 7.1009-4.2525 10.6401-6.3997-.9175 4.2668-2.0005 8.5065-2.7045 12.8083-.6625 4.0482.9841 7.0598 4.9291 8.6147 1.0269 3.9362 5.0327 6.3578 8.7723 4.717 4.4564-1.9552 8.6428-4.5247 12.9524-6.8163 1.0484-.5574 2.1213-1.0687 3.1829-1.6012-.2959 1.4301-.633 2.853-.8805 4.2914-.9432 5.4829.5039 10.0475 5.2067 13.333.2199.0771.4398.1543.6596.2314l-.1683.1153s.1634-.1239.1633-.1236c.9146.7916 1.7163 2.037 2.763 2.2972 5.1049 1.2691 10.4851-.1534 14.457-4.5098 2.2917-2.5131 4.9173-4.7216 7.3924-7.0673z" fill="#f9f9f9"/><path d="m182.6474 47.4344c-1.3535 4.5518-2.6718 9.1144-4.0678 13.6532-2.7458 8.9274-5.7904 17.773-8.2057 26.7879-1.3546 5.056-1.8823 10.3634-2.4383 15.594-.4544 4.2744-.4205 8.6022-.5648 12.9076-.3614 10.7849 1.6955 21.1515 5.4171 31.2333 5.0854 13.7763 12.4043 26.2552 21.4249 37.8277 12.4168 15.9295 27.6696 28.5642 44.6326 39.301 10.5963 6.707 21.8609 12.0764 33.538 16.5548 9.207 3.531 18.3973 7.2583 27.8749 9.8905 10.6212 2.9498 21.5163 4.9863 32.3698 7.0026 8.3971 1.56 16.9185 2.4455 25.373 3.7084 1.5265.228 2.9969.8323 4.4938 1.2633-3.141 4.2617-5.9224 8.8754-9.5891 12.623-1.6278 1.6638-5.0038 1.9193-7.6544 2.2273-10.7719 1.2519-21.3542-.6778-31.7749-2.9223-13.7307-2.9575-27.3914-6.3317-40.9211-10.1043-13.508-3.7665-26.0859-10.0082-38.8342-15.7793-16.8521-7.6288-32.0797-17.7216-46.2327-29.5177-17.5094-14.5936-31.3067-32.0473-40.1869-53.1494-5.2213-12.4074-8.0715-25.3857-9.2781-38.8229-1.2853-14.3144.6379-28.0687 5.8329-41.3775 6.5907-16.8846 18.2474-29.1342 34.5346-37.013 1.3964-.6755 2.8365-1.2609 4.2564-1.8882z" fill="#c12215"/><path d="m176.4213 222.19c-1.185 2.9369-2.6708 5.7922-3.4942 8.8272-1.8758 6.9145-4.0508 13.8401-4.9229 20.9069-.7743 6.2742.8466 12.5389 4.0062 18.2472 7.1553 12.927 15.5706 25.0164 24.4321 36.8017 4.1652 5.5396 4.9266 11.1485 1.8112 17.4888-10.0623 20.4784-19.9377 41.0485-29.941 61.556-4.7538 9.7454-9.6241 19.4341-14.4805 29.1289-.323.6448-.9769 1.1239-1.4768 1.68 3.6922-8.793 7.0179-17.7625 11.1514-26.3429 9.1203-18.9319 18.6808-37.6514 27.9665-56.5045 1.1504-2.3357 1.7224-4.9561 2.5625-7.4447-.2434-.0978-.4868-.1957-.7302-.2935-.341.5514-.7189 1.0836-1.0176 1.657-4.2903 8.2351-8.5115 16.5067-12.8625 24.7096-17.6083 33.1966-33.0331 67.3354-44.5166 103.1685-.8643 2.6968-1.3061 5.5857-1.5189 8.4173-.1818 2.4185.8295 4.5409 3.2512 5.7929-.648-12.4246 5.0243-23.1297 8.534-34.3735-.4389 2.1678-.7741 4.3629-1.3348 6.4987-2.2335 8.5071-2.7656 17.0064.213 25.4343.7631 2.1591 2.0488 4.1334 3.0943 6.1927-3.339 2.2245-7.0353 2.8357-10.9301 2.2605-5.2007-.7679-7.3144-3.357-7.3583-8.6648-.0673-8.1419 2.1876-15.7765 4.9327-23.3235 9.1246-25.086 20.5626-49.1563 32.1419-73.1607 7.9937-16.5714 16.0851-33.0965 24.2736-49.5722.985-1.9818-.2601-2.507-1.2401-3.2944-8.9852-7.2199-16.3659-15.7888-21.9867-25.8657-7.9348-14.2254-9.8455-29.2311-6.223-45.093 2.2144-9.6962 5.5444-18.9738 9.5059-28.0565.2322-.5324.5803-1.0143.9936-1.7245 1.825 1.7482 3.4946 3.3472 5.1641 4.9462zm20.6185 93.2042c-.6646-.5032-1.3279-1.0081-1.994-1.5093-6.4163-4.8275-12.6414-9.8476-16.644-17.0279-3.85-6.9063-7.6644-13.8325-11.5055-20.7437-.3246-.584-.7332-1.1213-1.1029-1.6803-.2481.1054-.4961.2108-.7442.3162.2469 1.3171.2857 2.7188.7798 3.9355 1.467 3.6123 2.8416 7.3047 4.7456 10.6881 4.0957 7.2778 8.4456 14.444 14.6411 20.1941 3.2821 3.0463 6.6804 6.0933 11.8241 5.8273z" fill="#c5dce6"/><path d="m386.9787 219.5655c-.0457-.6468-.2994-1.3646-.1065-1.93 3.7566-11.0102 6.2645-22.3645 7.678-33.8388 1.0729-8.7097 1.0547-17.6374.6297-26.425-.4411-9.1198-1.4679-18.277-3.1139-27.2574-2.5563-13.9475-7.1901-27.3408-13.1635-40.1981-3.2918-7.0854-7.7174-13.4971-12.7206-19.5779-8.2256-9.9972-17.7616-18.3366-29.3259-24.1068-5.6372-2.8128-11.7269-4.7157-17.5949-7.0725-1.0073-.4045-1.9297-1.0204-2.8914-1.5385 13.3523.2501 25.3939 4.7098 36.6071 11.621 22.2167 13.693 35.8242 33.6771 42.6652 58.6115 5.0911 18.5561 6.8962 37.4205 5.0041 56.5378-1.8822 19.0188-6.0707 37.5367-13.6674 55.1747z" fill="#e85043"/><path d="m285.1169 75.361c.086 2.1415.172 4.283.258 6.4245-.1926.0779-.3851.1558-.5777.2337-.504-1.0105-1.0043-2.0229-1.5125-3.0313-2.2618-4.489-5.6077-8.0165-9.4952-11.1598-5.4978-4.4454-10.1119-10.0262-16.6822-13.0824-4.3856-2.04-8.7427-4.2122-13.2932-5.8112-7.6552-2.69-15.4558-4.966-23.1851-7.4475-.2515-.0808-.3928-.5047-.5856-.7683 23.5539-.1581 44.1073 6.9381 59.8197 25.2228 2.2961 2.6718 3.5291 6.257 5.2538 9.4195z" fill="#e74f42"/><path d="m232.0695 270.9463c-1.0616.5325-2.1346 1.0438-3.1829 1.6012-4.3096 2.2916-8.496 4.8611-12.9524 6.8163-3.7396 1.6407-7.7453-.7809-8.7723-4.717 8.189.8562 13.6091-3.9832 18.8366-9.1879.9787-.9745 1.8552-2.0534 2.7575-3.1024 3.3273-3.8681 3.3239-3.871 7.8782-1.1868-1.5168 3.2485-3.0408 6.5126-4.5647 9.7766z" fill="#c6deea"/><path d="m204.9373 253.2238c-3.5392 2.1471-6.998 4.4441-10.6401 6.3997-3.7291 2.0023-7.7294 3.5633-11.8146 1.0291-1.237-.7674-1.9558-2.3702-2.9122-3.5905 5.3811 1.321 9.7565-.4567 13.7843-4.0491 3.5472-3.1638 7.4174-5.9653 11.145-8.9268-.2795-.3731-.559-.7462-.8385-1.1193 1.5246.9528 3.0493 1.9056 4.7359 2.9596-1.1871 2.5038-2.3235 4.9006-3.4598 7.2973z" fill="#c6dee9"/><path d="m261.6626 279.5139c-2.4752 2.3456-5.1008 4.5541-7.3922 7.0673-3.9719 4.3564-9.3521 5.7789-14.457 4.5098-1.0466-.2602-1.8484-1.5056-2.763-2.2972 4.3519.9335 8.1689-.2135 11.0374-3.5202 3.2101-3.7004 6.2297-7.5895 9.0585-11.59 2.3076-3.2635 1.6163-3.8848 6.017-1.9871.5436.2344 1.0989.4416 1.68.6739-1.0983 2.4667-2.1395 4.8051-3.1807 7.1435z" fill="#c5dce6"/><path d="m296.3056 284.7179c-.9124.3169-1.9933.4201-2.7097.9854-4.6208 3.6459-9.0241 7.5842-13.7946 11.0153-2.0011 1.4393-4.6835 2.033-7.1446 2.669-.7363.1903-1.7719-.7772-2.6706-1.2142 8.3382-1.4953 13.163-7.5723 17.9049-13.7486.5807-.7563 1.1475-1.5408 1.5925-2.3802 1.0354-1.9528 2.5333-2.3769 4.573-1.7212 1.228.3948 2.5365.5388 4.2084.8761-.6906 1.2404-1.3249 2.3794-1.9593 3.5184z" fill="#c5dae3"/><path d="m237.0554 288.8021c-.2199-.0771-.4397-.1543-.6596-.2314.2198.0771.4397.1542.6596.2314z" fill="#c5dce6"/><path d="m73.5171 82.8028c2.9065-2.1435 6.1568-1.9568 9.4662-1.4076 8.3969 1.3934 14.7025 3.9164 19.9908 8.0722-.371.4234-.7365.8405-1.102 1.2578-1.7301.0403-3.4607.0631-5.1899.1236-5.6129.1965-11.2328.681-16.8357.5282-4.8141-.1313-6.536-2.4505-6.3674-7.2708.0152-.4343.0255-.8689.038-1.3034z" fill="#f6f4f4"/><path d="m73.5171 82.8028c-.0126.4345-.0228.8691-.038 1.3035-.1686 4.8203 1.5533 7.1395 6.3674 7.2708 5.6029.1528 11.2228-.3318 16.8357-.5282 1.7293-.0605 3.4598-.0834 5.1899-.1236-1.4627 1.149-2.762 2.6875-4.4157 3.3818-8.4764 3.5588-16.6765 3.1318-24.348-2.312-.1414-.1003-.2917-.1898-.4241-.3007-4.1501-3.4782-3.9004-6.0781.8328-8.6916z" fill="#c5dce8"/><path d="m437.5482 105.977c-2.5048 1.2844-5.0096 2.5689-8.0961 4.1516 3.1978-9.2142 6.3489-17.6353 15.146-22.1795 1.36-.7025 2.9085-1.1435 4.422-1.4245 3.6844-.6842 4.9225.2119 5.9172 3.9771-1.6008.2971-3.5183.1308-4.7478.9711-5.436 3.715-10.731 7.6705-12.6413 14.5042z" fill="#c5dde9"/><path d="m437.5482 105.977c1.9103-6.8337 7.2053-10.7891 12.6413-14.5042 1.2295-.8403 3.147-.674 4.7478-.9711.8553 2.1683-.2353 3.8321-1.52 5.3493-4.2377 5.0044-9.6221 8.2506-15.8691 10.126z" fill="#f5f3f3"/><path d="m444.8639 132.4634c7.228 2.4995 12.4821 7.1858 15.6693 14.1561.2868.6274.5733 1.2611.783 1.9165 1.2332 3.8542-.8234 6.0981-4.8381 5.2697-.4955-.1022-.9542-.383-1.4302-.5811-.3633-.3572-.7124-.7301-1.0917-1.0692-5.8747-5.2519-8.5137-11.9958-9.0923-19.692z" fill="#f6f4f4"/><path d="m444.8639 132.4634c.5786 7.6962 3.2175 14.4401 9.0923 19.692.3793.3391.7283.712 1.0917 1.0692-7.5303-1.1768-14.5891-8.3093-16.6136-16.7592-.4214-1.759-.9164-3.5005-1.5114-5.7585 2.8266.6253 5.3838 1.1909 7.941 1.7565z" fill="#c5dce8"/><path d="m96.6258 42.1686c6.4489 3.0407 11.8574 7.2123 14.9114 13.8828.384.8386.4638 1.8165.6846 2.7298-4.3424-2.1126-8.7809-4.0521-12.9965-6.393-3.3204-1.8438-3.9755-4.189-2.9973-7.9308.1952-.7465.2683-1.525.3978-2.2888z" fill="#f5f3f3"/><path d="m96.6258 42.1686c-.1294.7638-.2026 1.5423-.3978 2.2889-.9782 3.7418-.3231 6.087 2.9973 7.9308 4.2156 2.3409 8.6541 4.2804 12.9965 6.393-.569.3042-1.1737.9246-1.7015.8649-7.0113-.7939-13.3407-3.0498-17.9265-8.8013-.5387-.6757-1.0347-1.3968-1.4629-2.1469-1.0152-1.7784-1.377-3.5546.1428-5.2947 1.4982-1.7154 3.2615-2.1516 5.3521-1.2347z" fill="#c4dbe5"/><path d="m379.9008 177.5234c-1.9973-1.621-3.8338-3.5157-6.0262-4.8051-4.336-2.5501-8.7691-4.9854-13.3456-7.0638-5.7785-2.6243-11.6997.7949-13.9832 7.8097-2.2288 6.8465-4.1244 13.8129-6.6254 20.5564-2.7491 7.4124-8.2781 9.0543-14.8766 4.7028-5.4403-3.5878-10.741-7.387-16.1067-11.088-1.0016-.6909-1.9818-1.4236-3.0347-2.0273-2.3914-1.3713-3.7139-.9872-4.6746 1.5716-1.648 4.3894-2.81 8.9933-4.8044 13.2099-1.4427 3.0503-3.4665 6.1301-6.0017 8.2939-4.8455 4.1357-10.5888 3.3312-15.6421.4341-5.1665-2.962-10.0541-6.522-14.6725-10.2987-5.1723-4.2297-7.7167-3.6564-9.2935 2.9495-.5589 2.3416-.6706 4.79-1.007 7.3453-1.944-.8764-2.4232-2.7434-2.5826-4.5452-.366-4.1353.6615-7.9564 3.4347-11.1432 2.5196-2.8953 5.6894-3.3178 8.8338-1.1045 3.768 2.6523 7.384 5.5206 11.1571 8.1652 3.3631 2.3572 6.9235 4.3633 11.1851 4.5777 3.9955.201 6.7287-1.4417 8.1253-5.1759 1.5508-4.1464 2.9014-8.3675 4.342-12.5551 3.3053-9.6079 9.4558-11.4465 17.517-5.3746 4.9979 3.7645 10.0855 7.4174 15.2441 10.9584 4.197 2.8809 5.9768 2.1584 7.6078-2.6834 2.4382-7.2375 4.5302-14.6192 7.4342-21.6656 4.0773-9.8933 16.1353-13.0517 24.6135-6.5312 4.2458 3.2654 7.9842 7.2132 11.7858 11.0185 1.0103 1.0114 1.406 2.637 2.0839 3.9805-.2292.1626-.4583.3253-.6875.4881z" fill="#3c100c"/><path d="m242.1973 122.5538c6.3367 3.502 12.3503 6.7991 18.3318 10.1533 1.2019.674 2.4977 1.3868 3.3486 2.4143.6588.7956 1.2247 2.358.866 3.1318-.45.9708-1.95 2.1502-2.8847 2.0612-2.181-.2077-4.4656-.7944-6.4026-1.8103-5.0002-2.6225-9.9045-5.4485-14.703-8.4254-2.0703-1.2843-3.2092-.9671-4.4293.9928-2.2046 3.5411-4.4552 7.0648-6.9057 10.4365-1.096 1.508-2.5678 2.8914-4.1628 3.8345-1.0115.598-2.8592.7686-3.7774.2136-.6893-.4167-.8213-2.352-.6146-3.5061.2692-1.5026.9787-2.9811 1.7461-4.3292 2.0622-3.6225 4.1814-7.2176 6.4209-10.7325 1.7904-2.8099 1.8921-2.8419-.837-4.6532-5.647-3.7479-11.3169-7.4611-16.9767-11.1898-.5082-.3348-1.2874-.5743-1.4619-1.0382-.4537-1.2066-.6408-2.5134-.9342-3.7803 1.1965-.1317 2.6574-.7741 3.5471-.3133 6.4037 3.3163 12.7036 6.8348 19.0116 10.3339 3.5247 1.9551 3.4293 1.9371 5.8229-1.1908 2.7956-3.6533 5.6746-7.2477 8.6425-10.762 1.4188-1.68 3.1937-2.8876 5.3767-1.0294 2.1739 1.8504 1.1171 3.7442-.0636 5.5587-2.8858 4.435-5.8108 8.8444-8.9607 13.6299z" fill="#3b100c"/><path d="m336.0294 124.3205c-1.7261 3.6446-3.2936 7.0995-4.9878 10.4912-1.7264 3.4561-4.1351 6.3486-7.6859 8.6756-1.0265-3.6608-.9491-7.0817.1367-10.3769 1.1933-3.6213 2.6385-7.1732 4.197-10.6555.9916-2.2157.6371-3.6404-1.3408-5.0929-4.1972-3.0823-8.2291-6.3888-12.3515-9.5739-1.3747-1.0621-2.3194-2.2207-1.108-3.9302 1.147-1.6186 2.7599-1.452 4.1711-.5746 4.2043 2.6141 8.3678 5.2998 12.4597 8.0861 1.8991 1.2932 2.9089 1.1008 4.0032-1.0421 1.7332-3.3939 3.7753-6.6373 5.8126-9.8648.6779-1.0739 1.6812-1.973 2.6458-2.8278 1.3453-1.1923 3.1082-1.3957 4.2079-.0806.6836.8175.8702 2.675.4298 3.7008-1.9842 4.6223-4.1638 9.1711-6.5012 13.6265-1.008 1.9213-.7661 2.8829 1.1559 3.8539 3.1774 1.6053 6.373 3.2427 9.3062 5.2407 2.1812 1.4857 4.1454 3.4055 5.8584 5.4268 1.3829 1.6318.6836 2.5958-1.4862 2.7432-5.3039.3604-9.4463-2.4798-13.7517-4.8865-1.6513-.9231-3.2897-1.8688-5.1712-2.939z" fill="#3b100c"/><path d="m145.175 435.6131c-3.5097 11.2438-9.182 21.9489-8.534 34.3735-2.4217-1.2521-3.433-3.3744-3.2512-5.7929.2128-2.8316.6547-5.7205 1.5189-8.4173 11.4835-35.8331 26.9083-69.9719 44.5166-103.1685 4.351-8.2028 8.5721-16.4745 12.8625-24.7096.2987-.5734.6766-1.1056 1.0176-1.657.2434.0978.4868.1956.7302.2935-.84 2.4886-1.4121 5.109-2.5625 7.4447-9.2857 18.8531-18.8462 37.5726-27.9665 56.5045-4.1335 8.5804-7.4592 17.5499-11.1514 26.3429-.0001 0 .0118-.0027.0119-.0025-.2118.5188-.4236 1.0374-.6354 1.5561 0 0 .0254-.0349.0255-.0348-.1675.3755-.335.7507-.5025 1.1259-.1211.0598-.1554.1518-.1029.2767-.1816.4184-.3631.8364-.5447 1.2543-1.5649 4.2327-3.1298 8.4655-4.6947 12.6984-.1559.4105-.3117.8207-.4675 1.2309-.0899.2271-.1799.4541-.2699.6812z" fill="#5f2a26"/><g fill="#c5dce6"><path d="m151.7318 418.3805c.2118-.5187.4236-1.0374.6354-1.5561-.2119.5186-.4236 1.0373-.6354 1.5561z"/><path d="m151.2547 419.4716c.1676-.3753.3351-.7505.5025-1.1259-.1675.3752-.335.7506-.5025 1.1259z"/><path d="m150.6072 421.0026c.1815-.4179.3631-.8359.5447-1.2543-.1816.4178-.3632.8361-.5447 1.2543z"/><path d="m145.4449 434.9319c.1558-.4102.3116-.8204.4675-1.2309-.1558.4101-.3116.8205-.4675 1.2309z"/></g><path d="m197.0398 315.3942c-5.1437.266-8.5419-2.781-11.824-5.8272-6.1954-5.7502-10.5454-12.9164-14.6411-20.1941-1.9041-3.3835-3.2786-7.0759-4.7456-10.6881-.4941-1.2167-.5329-2.6184-.7798-3.9355.2481-.1054.4961-.2108.7442-.3162.3696.559.7783 1.0963 1.1029 1.6803 3.8411 6.9113 7.6555 13.8374 11.5055 20.7437 4.0026 7.1802 10.2277 12.2003 16.644 17.0279.666.5011 1.3293 1.006 1.9939 1.5092z" fill="#5f2a26"/></g></svg>