<svg id="Layer_1" enable-background="new 0 0 512 512" height="512" viewBox="0 0 512 512" width="512" xmlns="http://www.w3.org/2000/svg"><g><path d="m190.5989 181.4297c1.851-6.9687 5.4376-12.8045 10.5278-17.7225 4.6808-4.5224 10.1356-7.9366 15.9232-10.8183 15.6815-7.8082 32.2959-10.0937 49.5999-8.2809 16.9605 1.7769 33.1008 6.4345 48.4839 13.741 14.7031 6.9835 28.1363 15.9256 40.3936 26.6151 3.6442 3.178 7.1701 6.513 10.5267 9.9917 2.1421 2.2201 4.7024 3.0479 7.5636 3.6049 19.9496 3.8841 39.6408 8.7467 58.6148 16.1486 13.5577 5.2889 26.699 11.429 38.4427 20.1848 6.7479 5.0311 12.8437 10.7524 17.4444 17.8606 9.1935 14.2041 8.7802 30.4628-1.0348 44.225-6.8879 9.658-15.8229 17.0745-25.8179 23.2874-14.665 9.1157-30.4234 15.8591-46.7557 21.3169-18.7076 6.2516-37.8544 10.7911-57.2354 14.3503-19.9292 3.6599-40.0099 6.2456-60.2352 7.4548-14.9319.8927-29.8867 1.6397-44.8404 1.8768-22.291.3534-44.5475-.6911-66.7421-2.9292-15.7778-1.591-31.4797-3.692-47.0486-6.7143-23.4397-4.5502-46.3778-10.8169-68.2739-20.493-12.7929-5.6533-24.8158-12.6044-35.2092-22.09-6.5675-5.9939-11.7309-13.0092-14.5381-21.536-3.7347-11.3436-1.6522-21.9201 4.5349-31.88 6.546-10.5378 15.7925-18.2354 26.1269-24.7762 15.6803-9.9243 32.5782-17.1941 50.2329-22.7292 8.1794-2.5644 16.4855-4.7241 24.7271-7.0919 3.2801-.9423 6.2928-2.4837 8.6707-4.9287 6.8446-7.0374 15.3792-11.0287 24.5072-14.0846 10.1414-3.395 20.5863-4.5672 31.411-4.5831zm-48.8132 93.9225c.0427.217.0854.434.1282.651.0383.2309.0766.4618.1149.6927.3117 2.165.5979 4.3341.9404 6.4943.6733 4.2469.6752 4.2933 4.8585 5.2464 4.107.9357 8.2396 1.7591 12.361 2.6317.3509.0872.7018.1745 1.0527.2617.2253.0385.4506.0769.6759.1154 4.8216.7529 9.6308 1.5999 14.4678 2.235 6.0467.7939 12.1142 1.4321 18.1767 2.1014 3.7086.4094 7.4247.7509 11.1374 1.123 5.4174.2762 10.8319.6418 16.2526.8112 14.2852.4466 28.5712.9618 42.8607 1.1386 7.1871.0889 14.3825-.4986 21.5742-.7801.9879.0362 1.9854.1798 2.962.0917 8.0992-.7312 16.2404-1.1859 24.2802-2.3416 11.8462-1.703 23.6505-3.7492 35.4119-5.9709 7.2771-1.3746 14.4415-3.3454 21.6565-5.0486 4.3058-.1259 4.9191-.7332 5.17-4.8081.5881-9.5485 1.2393-19.093 1.8138-28.6423.2435-4.0484.3585-8.1046.5341-12.2107-.1006.0101-.4843-.0067-.8355.0921-3.7038 1.0419-7.3953 2.128-11.1041 3.1519-7.5746 2.0913-15.1415 4.2137-22.7439 6.1999-4.028 1.0524-8.1236 1.8461-12.1888 2.7566-.2196.0009-.4419-.0204-.6583.006-7.5737.925-15.1405 1.9112-22.722 2.767-7.3648.8313-14.7448 1.5294-22.118 2.2861-.5486-.0253-1.0974-.0749-1.6459-.0722-8.2365.0409-16.4732.1495-24.7093.1169-7.4692-.0295-14.939-.1627-22.4063-.3424-4.9374-.1189-9.8817-.2607-14.8036-.6423-7.3379-.569-14.6586-1.3587-21.9866-2.0546-3.7275-.6194-7.4671-1.1749-11.1799-1.8725-6.2436-1.173-12.4853-2.3651-18.6982-3.6883-3.7433-.7972-7.4306-1.8573-11.1431-2.7993-1.1098-.4516-2.2336-.872-3.3271-1.3601-4.7403-2.1157-9.4718-4.2512-14.2064-6.3794-1.9105-1.3122-3.821-2.6244-5.9887-4.1132.0751 1.2327.0718 2.051.1822 2.8536 1.1573 8.4159 2.2893 16.8357 3.5205 25.241.6884 4.7003 1.5499 9.3752 2.3335 14.0614zm65.7549-106.3852c-.1164.1076-.2328.2152-.3493.3228-3.8729 2.7585-6.0048 6.9343-8.6108 10.7048-1.4632 2.117-.8467 3.0981 1.6598 3.9075 2.0758.6703 4.0649 1.6267 6.0503 2.5471.5051.2342.8504.8131 1.2691 1.2337-.0596.1578-.1192.3157-.1788.4735-2.3822.2068-4.7615.4601-7.1472.6121-8.6556.5516-17.3403.8006-25.9634 1.668-10.6754 1.0739-20.4766 4.8497-29.358 10.9231-7.4898 3.854-10.9797 10.1759-11.289 18.4163-.0544 1.4482.2441 2.8288 1.5845 3.7856 7.941 5.6684 16.4704 10.164 25.7864 13.1388 13.6547 4.3603 27.7623 6.2779 41.9407 7.787 6.6114.7037 13.2331 1.3582 19.8658 1.7997 6.3522.4229 12.7248.5409 19.0884.7929 2.0801.0987 4.1614.3003 6.2402.2781 8.4056-.0898 16.815-.1203 25.2144-.4157 9.6656-.3399 19.346-.6626 28.9756-1.5018 8.9109-.7767 17.804-1.9786 26.6319-3.4358 13.6862-2.2592 27.0601-5.9017 40.3046-9.9991 2.965-.9173 5.882-1.9895 9.0206-3.0583-.8385-1.3911-1.4569-2.4172-2.0754-3.4433-.6268-.9951-1.2535-1.9901-1.8802-2.9852-.3762-.4885-.7524-.977-1.1286-1.4655-.9802-1.6522-1.8217-3.4077-2.9637-4.9392-6.0708-8.1417-12.9107-15.6003-20.3861-22.4695-10.2218-9.3929-21.4639-17.3533-33.7335-23.8548-13.2888-7.0415-27.1252-12.6271-41.9706-15.3853-16.5802-3.0806-32.9651-2.5621-48.9247 3.3656-6.6624 2.4745-12.7766 5.9225-17.6895 11.2105.0001-.0001.0165-.0136.0165-.0136zm174.0943 122.6149c-1.1745.2291-2.3741.371-3.5198.7001-20.1769 5.7956-40.7356 9.7158-61.534 12.3953-16.9258 2.1806-33.9281 3.3691-51.0047 3.1646-13.637-.1633-27.28-.2284-40.9071-.7092-14.4575-.5102-28.8578-1.8775-43.1947-3.8971-15.2596-2.1497-30.3678-5.0289-45.3099-8.8053-1.7808-.4501-2.631-1.3547-2.8436-3.1015-.3253-2.6736-.679-5.345-1.0901-8.0066-.881-5.7049-1.8064-11.403-2.7136-17.1039-.5099-4.3657-1.0148-8.7321-1.5315-13.097-.3275-2.7666-.6726-5.5311-1.0051-8.2583-.2704-.0116-.3933-.0552-.4747-.0148-9.2279 4.5761-17.9567 9.8229-24.6965 17.8624-8.0427 9.5935-8.2885 19.4687-.4224 29.2007 5.0648 6.2663 11.6697 10.6682 18.6497 14.5038 9.4422 5.1888 19.5161 8.8597 29.7866 11.9944 23.382 7.1366 47.4372 10.4323 71.7246 12.2303 17.7955 1.3174 35.6307 1.5659 53.4368.3725 12.6078-.845 25.2166-1.9526 37.7523-3.5229 14.9566-1.8736 29.7084-4.991 44.2416-9.0459 12.3203-3.4374 24.3018-7.7675 35.6417-13.7526 8.1707-4.3125 15.8873-9.2001 21.9744-16.3512 8.4065-9.8759 8.4675-20.4094.018-30.2356-4.7735-5.5513-10.683-9.6375-17.034-13.1298-3.0628-1.6842-6.2105-3.2143-9.5701-4.943-.0372.8687-.0596 1.4116-.0837 1.9544-.3156 7.12-.6336 14.2398-.9464 21.3599-.3125 7.1139-.7689 14.226-.8656 21.343-.0469 3.4433-.6817 6.084-4.4782 6.8933zm2.6519-73.627c2.0362 4.2021 4.1879 8.3262 3.8965 13.2688-.1003 1.7003 1.3652 2.7729 2.9543 3.4093 1.3226.5297 2.6554 1.0481 3.9314 1.6777 9.1341 4.5068 17.5749 9.9377 24.4827 17.5967 9.1357 10.1293 10.4035 23.1821 3.0022 34.5033-4.7302 7.2353-11.2373 12.6433-18.478 17.1857-16.0187 10.0493-33.6403 16.1397-51.8461 20.7328-12.1548 3.0665-24.415 5.6664-36.8632 7.1786-10.9652 1.3321-21.9532 2.5905-32.9673 3.3716-9.5378.6765-19.1249.7119-28.6928.8978-15.7464.306-31.4528-.4884-47.1212-2.0345-14.7409-1.4546-29.338-3.8101-43.7545-7.2264-15.4542-3.6623-30.5885-8.2555-44.6671-15.8026-7.994-4.2854-15.5075-9.2015-21.4377-16.2467-8.7461-10.3904-9.8573-22.2468-2.998-33.7661 3.7242-6.2543 9.1223-10.8341 15.1726-14.6702 5.1579-3.2702 10.4566-6.3177 15.6377-9.5524.688-.4295 1.5436-1.4254 1.4845-2.084-.4508-5.0293-1.1093-10.0399-1.7032-15.0563.5559-2.1611 1.1117-4.3222 1.7511-6.8077-1.0275.2301-1.7652.3438-2.4707.5617-4.5669 1.4106-9.1243 2.8522-13.6896 4.2683-13.869 4.3019-27.5857 8.9956-40.6006 15.5343-10.9773 5.515-21.2191 12.0525-29.6733 21.1088-2.3478 2.885-4.9979 5.5768-6.9875 8.6907-6.2597 9.7968-6.7095 19.8737-.8003 30.0808 2.7614 4.7699 6.3212 8.8444 10.4223 12.484 10.2934 9.1351 22.2213 15.554 34.8017 20.8588 19.8403 8.3661 40.4596 14.1377 61.5608 18.2584 17.8233 3.4806 35.781 6.1068 53.8801 7.5318 13.9805 1.1008 27.9948 2.0247 42.0101 2.3607 13.2408.3175 26.5095-.0264 39.7527-.4704 10.4366-.3499 20.8664-1.1385 31.2759-2.0105 16.3329-1.3682 32.5506-3.6692 48.6824-6.5754 22.4937-4.0522 44.6416-9.3999 66.0608-17.5045 12.78-4.8356 25.3054-10.2132 36.8123-17.6822 7.9291-5.1466 15.316-10.9572 21.1696-18.4833 2.4392-3.1362 4.5362-6.4893 5.434-10.446 1.6724-2.7774 2.0305-5.8798 2.046-9.0091.038-7.6529-3.3631-14.0025-7.8717-19.8543-5.5308-7.1784-12.7626-12.358-20.4167-16.9999-12.3366-7.4817-25.7034-12.7583-39.2359-17.4748-9.937-3.4633-20.2434-5.8749-30.409-8.6686-2.8819-.792-5.8474-1.28-8.7745-1.9074-.0714.1312-.1428.2624-.2142.3936 1.8172 2.7932 3.6344 5.5861 5.4514 8.3791z" fill="#2e1a19"/><path d="m483.7116 283.0966c-.8978 3.9567-2.9948 7.3098-5.434 10.446-5.8536 7.5261-13.2405 13.3367-21.1696 18.4833-11.507 7.469-24.0324 12.8466-36.8123 17.6822-21.4192 8.1046-43.5671 13.4523-66.0608 17.5045-16.1319 2.9062-32.3495 5.2072-48.6824 6.5754-10.4095.872-20.8393 1.6606-31.2759 2.0105-13.2433.444-26.5119.7879-39.7527.4704-14.0153-.336-28.0295-1.2599-42.0101-2.3607-18.099-1.425-36.0567-4.0512-53.8801-7.5318-21.1012-4.1207-41.7205-9.8922-61.5608-18.2584-12.5804-5.3048-24.5083-11.7237-34.8017-20.8588-4.1011-3.6396-7.6609-7.7141-10.4223-12.484-5.9092-10.2071-5.4594-20.284.8003-30.0808 1.9896-3.1139 4.6396-5.8057 6.9875-8.6907.5116-.0545 1.1278.0568 1.5185-.1895 3.3805-2.1314 6.626-4.4929 10.094-6.4656 5.5245-3.1426 11.1192-6.1802 16.8132-9.0019 6.284-3.1141 12.6042-6.2067 19.1064-8.8157 8.4962-3.4091 17.2505-6.1352 26.213-8.0942 3.6256-.7925 7.2908-1.4044 10.938-2.0984.5939 5.0164 1.2524 10.027 1.7032 15.0563.059.6586-.7965 1.6545-1.4845 2.084-5.1811 3.2346-10.4798 6.2822-15.6377 9.5524-6.0503 3.8361-11.4484 8.4159-15.1726 14.6702-6.8593 11.5193-5.7481 23.3757 2.998 33.7661 5.9302 7.0452 13.4436 11.9613 21.4377 16.2467 14.0786 7.5472 29.2129 12.1404 44.6671 15.8026 14.4165 3.4164 29.0137 5.7718 43.7545 7.2264 15.6684 1.5461 31.3749 2.3405 47.1212 2.0345 9.5679-.1859 19.155-.2214 28.6928-.8978 11.0141-.7812 22.0021-2.0396 32.9673-3.3716 12.4482-1.5122 24.7083-4.1121 36.8632-7.1786 18.2058-4.5931 35.8274-10.6835 51.8461-20.7328 7.2407-4.5424 13.7478-9.9504 18.478-17.1857 7.4014-11.3212 6.1335-24.3741-3.0022-34.5033-6.9077-7.659-15.3486-13.0899-24.4827-17.5967-1.276-.6295-2.6088-1.148-3.9314-1.6777-1.5891-.6364-3.0546-1.7091-2.9543-3.4093.2913-4.9426-1.8604-9.0667-3.8965-13.2688.7693.0245 1.5478-.0186 2.3061.0855 3.0835.4235 6.1584.9091 9.2409 1.3399 3.7346.5219 7.576.6297 11.1888 1.5977 6.7525 1.8093 13.5117 3.7579 20.0071 6.3123 5.6406 2.2182 11.0534 5.1226 16.3187 8.1548 4.3476 2.5038 8.4397 5.4964 12.4424 8.5391 3.0412 2.3118 5.8923 4.9143 8.5944 7.6208 3.0567 3.0617 6.1323 6.1765 8.6997 9.6389 4.4772 6.0378 7.5208 12.851 9.5631 20.1012.1782.6329.7007 1.1695 1.0634 1.7511z" fill="#d3e6f0"/><path d="m144.9124 201.3596c8.8814-6.0733 18.6825-9.8492 29.358-10.9231 8.623-.8674 17.3078-1.1164 25.9634-1.668 2.3857-.152 4.765-.4053 7.1472-.6121.0596-.1578.1192-.3157.1788-.4735-.4187-.4205-.764-.9995-1.2691-1.2337-1.9854-.9204-3.9745-1.8768-6.0503-2.5471-2.5065-.8094-3.123-1.7905-1.6598-3.9075 2.606-3.7705 4.7379-7.9463 8.6107-10.7048.1164-.1076.2328-.2152.3493-.3228 0 0-.0164.0135-.0163.0135.8941-.2399 1.8009-.4409 2.68-.7267 2.8111-.9142 5.5498-2.2238 8.43-2.715 5.4362-.927 10.9397-1.5252 16.4374-2.0051 4.7935-.4184 9.6161-.6056 14.4289-.6693 3.6051-.0477 7.2218.1719 10.821.4387 4.0991.3038 8.2318.5305 12.2656 1.2579 7.2086 1.2999 14.3906 2.7957 21.5175 4.4882 12.3942 2.9434 24.2245 7.4601 35.3549 13.6724 7.0556 3.9381 13.5294 8.7373 19.8044 13.8419 5.4146 4.4047 9.8604 9.688 14.4435 14.8622 2.4016 2.7114 4.6317 5.5753 7.0502 8.2708.5868.654 1.6115.915 2.4349 1.3567.3762.4885.7524.977 1.1285 1.4653-.0798 2.4709.0992 2.7551 1.8804 2.9855.6185 1.0261 1.2369 2.0522 2.0754 3.4433-3.1386 1.0688-6.0556 2.141-9.0206 3.0583-13.2445 4.0974-26.6185 7.7399-40.3046 9.9991-8.8279 1.4572-17.7209 2.6591-26.6319 3.4358-9.6296.8393-19.3101 1.1619-28.9756 1.5018-8.3994.2954-16.8088.3258-25.2144.4157-2.0789.0222-4.1601-.1794-6.2402-.2779-.6113-.2023-1.2092-.4987-1.8367-.5892-1.6791-.2422-3.3763-.3569-5.0566-.5921-6.5502-.9166-13.1123-1.7629-19.6396-2.8226-5.8746-.9537-11.7599-1.9383-17.5473-3.304-5.6378-1.3304-11.1888-3.0615-16.7224-4.794-10.1106-3.1655-19.778-7.2636-28.1713-13.9341-3.5646-2.8329-6.6432-6.0714-7.4573-10.692-.5181-2.9383-.3864-5.991-.546-8.9925z" fill="#fa574a"/><path d="m381.6349 291.5819c3.7965-.8093 4.4313-3.4501 4.4781-6.8931.0967-7.1169.553-14.229.8656-21.343.3129-7.1201.6309-14.2399.9464-21.3599.0241-.5428.0465-1.0857.0837-1.9544 3.3596 1.7287 6.5072 3.2588 9.5701 4.943 6.351 3.4923 12.2605 7.5785 17.034 13.1298 8.4495 9.8261 8.3885 20.3596-.018 30.2356-6.0871 7.1511-13.8036 12.0387-21.9744 16.3512-11.3399 5.9852-23.3214 10.3152-35.6417 13.7526-14.5333 4.0549-29.285 7.1723-44.2416 9.0459-12.5357 1.5703-25.1445 2.6779-37.7523 3.5229-17.806 1.1934-35.6413.9449-53.4368-.3725-24.2874-1.7981-48.3425-5.0938-71.7246-12.2303-10.2705-3.1347-20.3443-6.8057-29.7866-11.9944-6.98-3.8357-13.5849-8.2376-18.6497-14.5038-7.8661-9.7321-7.6203-19.6072.4224-29.2007 6.7399-8.0394 15.4686-13.2863 24.6965-17.8624.0814-.0404.2044.0033.4747.0148.3325 2.7272.6776 5.4917 1.0051 8.2583.5167 4.3649 1.0216 8.7312 1.5315 13.097-.7431.3381-1.5551.5756-2.218 1.0304-4.2824 2.9382-6.5974 7.2205-8.0122 12.0616-2.6281 8.9928 1.5881 18.2217 9.3908 22.9359 7.0058 4.2327 14.8449 5.7955 22.7901 6.9207 4.5515.6446 9.1299 1.1116 13.7044 1.5778 6.3803.6503 12.7677 1.2317 19.1532 1.8299 4.5308.4245 9.0618.8488 13.5958 1.2361 5.7406.4904 11.4853.9327 17.2266 1.4153 4.9185.4134 9.833.8746 14.7523 1.2776 6.2361.5109 12.4675 1.184 18.7149 1.4269 9.2762.3606 18.564.4751 27.8481.5558 4.9252.0428 9.8557-.1385 14.7787-.342 5.6269-.2326 11.2674-.4076 16.8669-.9622 6.7938-.6729 13.5805-1.5368 20.3157-2.6486 7.13-1.1769 14.199-2.7267 21.289-4.1416 10.2583-2.0472 19.7447-5.8898 28.002-12.4132 2.0198-1.5955 3.6506-3.6306 3.9193-6.397z" fill="#beddeb"/><path d="m370.6972 284.805c-7.215 1.7032-14.3794 3.674-21.6564 5.0486-11.7614 2.2216-23.5657 4.2679-35.4119 5.9709-8.0398 1.1558-16.181 1.6105-24.2802 2.3416-.9766.0882-1.9742-.0555-2.962-.0917-.1102-2.5082-.263-5.0154-.3224-7.5247-.1656-6.9956-.3497-13.9916-.4139-20.9884-.0403-4.3849.1226-8.7717.1942-13.1576 7.3733-.7566 14.7532-1.4547 22.118-2.2861 7.5815-.8558 15.1483-1.842 22.722-2.767.2165-.0264.4388-.0051.6585-.0059 1.8513-.1313 3.7129-.1793 5.5518-.4091 6.7274-.8409 13.4546-1.6902 20.1674-2.6392 4.4774-.6329 8.9301-1.4402 13.6991-2.2192-.0217 13.0799-.043 25.9038-.0642 38.7278z" fill="#f7574a"/><path d="m285.8445 256.4036c-.0717 4.3859-.2345 8.7727-.1942 13.1576.0643 6.9969.2483 13.9928.4139 20.9884.0594 2.5094.2122 5.0166.3224 7.5247-7.1917.2816-14.3871.869-21.5742.7801-14.2895-.1768-28.5755-.692-42.8607-1.1386-5.4207-.1695-10.8353-.5351-16.2526-.8111-.3861-3.8452-.7727-7.6905-1.1582-11.5359-.4996-4.9835-.9856-9.9683-1.5015-14.9501-.4206-4.0612-.7863-8.1316-1.3606-12.1718-.2334-1.6417.2447-3.5688-1.3859-4.8379 7.328.6958 14.6487 1.4855 21.9866 2.0546 4.9218.3817 9.8662.5235 14.8036.6423 7.4673.1797 14.9371.313 22.4063.3424 8.2361.0325 16.4728-.076 24.7093-.1169.5484-.0027 1.0972.047 1.6458.0722z" fill="#f63c2d"/><path d="m381.6349 291.5819c-.2687 2.7663-1.8996 4.8015-3.919 6.3968-8.2574 6.5233-17.7437 10.366-28.002 12.4132-7.0901 1.4149-14.159 2.9647-21.289 4.1416-6.7352 1.1118-13.5219 1.9757-20.3157 2.6486-5.5995.5546-11.24.7296-16.8669.9622-4.923.2035-9.8535.3848-14.7787.342-9.2841-.0807-18.5719-.1952-27.8481-.5558-6.2474-.2429-12.4788-.916-18.7149-1.4269-4.9193-.403-9.8338-.8643-14.7523-1.2776-5.7413-.4825-11.486-.9249-17.2266-1.4153-4.5341-.3873-9.065-.8116-13.5958-1.2361-6.3855-.5982-12.7729-1.1797-19.1532-1.8299-4.5745-.4662-9.153-.9332-13.7044-1.5778-7.9451-1.1252-15.7843-2.6879-22.7901-6.9207-7.8026-4.7142-12.0189-13.9431-9.3908-22.9359 1.4148-4.8411 3.7298-9.1234 8.0122-12.0616.6629-.4548 1.475-.6924 2.218-1.0304.9072 5.7008 1.8326 11.3989 2.7136 17.1038.411 2.6616.7647 5.333 1.0901 8.0066.2125 1.7468 1.0628 2.6514 2.8436 3.1015 14.942 3.7765 30.0503 6.6557 45.3099 8.8053 14.3369 2.0197 28.7372 3.3869 43.1947 3.8971 13.6272.4809 27.2701.5459 40.9071.7092 17.0766.2046 34.0789-.9839 51.0047-3.1646 20.7984-2.6795 41.3571-6.5998 61.534-12.3953 1.1456-.329 2.3451-.4709 3.5196-.7z" fill="#9ec9df"/><path d="m200.2929 253.4091c1.6306 1.2691 1.1525 3.1962 1.3859 4.8379.5743 4.0401.94 8.1105 1.3606 12.1718.5159 4.9818 1.0019 9.9666 1.5015 14.9501.3855 3.8454.7721 7.6907 1.1582 11.5359-3.7127-.3721-7.4288-.7137-11.1374-1.123-6.0625-.6693-12.13-1.3075-18.1767-2.1014-4.837-.6351-9.6462-1.4821-14.4677-2.235-.0726-1.472-.1035-2.9474-.2258-4.4152-.3304-3.9647-.7633-7.9218-1.0368-11.8901-.3226-4.6806-.5529-9.3682-.7639-14.0555-.2405-5.3437-.4156-10.6903-.6192-16.0356 3.7125.942 7.3998 2.0021 11.1431 2.7993 6.2129 1.3231 12.4546 2.5152 18.6982 3.6883 3.7129.6975 7.4524 1.2531 11.18 1.8725z" fill="#f62b1b"/><path d="m373.1924 221.0533c-.8234-.4417-1.8481-.7027-2.4349-1.3567-2.4184-2.6955-4.6485-5.5594-7.0502-8.2708-4.5831-5.1742-9.0288-10.4576-14.4435-14.8622-6.275-5.1046-12.7487-9.9038-19.8044-13.8419-11.1303-6.2124-22.9607-10.729-35.3549-13.6724-7.1269-1.6925-14.3089-3.1883-21.5175-4.4882-4.0338-.7274-8.1664-.9541-12.2656-1.2579-3.5992-.2668-7.2158-.4864-10.821-.4387-4.8128.0637-9.6353.2508-14.4289.6693-5.4978.4799-11.0013 1.078-16.4374 2.0051-2.8802.4912-5.6189 1.8008-8.43 2.715-.8791.2859-1.7859.4868-2.68.7267 4.9129-5.288 11.0271-8.7359 17.6895-11.2105 15.9597-5.9277 32.3445-6.4462 48.9247-3.3656 14.8453 2.7582 28.6818 8.3438 41.9706 15.3853 12.2697 6.5015 23.5117 14.462 33.7335 23.8548 7.4754 6.8692 14.3153 14.3278 20.3861 22.4695 1.1421 1.5315 1.9837 3.287 2.9639 4.9392z" fill="#ef8872"/><path d="m159.2716 245.049c.2036 5.3453.3786 10.692.6192 16.0356.211 4.6873.4413 9.3749.7639 14.0555.2735 3.9683.7065 7.9254 1.0368 11.8901.1223 1.4678.1533 2.9432.2258 4.4152-.2254-.0385-.4507-.0769-.6759-.1152-.3509-.0872-.7019-.1746-1.0528-.2619-4.1214-.8727-8.254-1.696-12.361-2.6317-4.1833-.9531-4.1852-.9995-4.8585-5.2464-.3425-2.1602-.6287-4.3292-.9404-6.4943-.0383-.2309-.0766-.4618-.1149-.6926-.0427-.217-.0855-.434-.1282-.6511.1206-.732.3842-1.473.3392-2.1946-.3595-5.7628-.8711-11.5175-1.1497-17.2837-.2475-5.124-.144-10.266-.4433-15.3856-.0831-1.4212.1577-2.3601 1.2063-3.1788 4.7347 2.1283 9.4662 4.2637 14.2064 6.3794 1.0936.4881 2.2173.9085 3.3271 1.3601z" fill="#f61c08"/><path d="m144.9124 201.3596c.1596 3.0015.0279 6.0543.5456 8.9926.8142 4.6207 3.8927 7.8591 7.4573 10.692 8.3933 6.6705 18.0607 10.7686 28.1713 13.9341 5.5336 1.7325 11.0845 3.4636 16.7224 4.794 5.7874 1.3657 11.6728 2.3503 17.5473 3.304 6.5273 1.0597 13.0895 1.906 19.6396 2.8226 1.6803.2352 3.3775.3499 5.0566.5921.6275.0905 1.2254.3869 1.8367.5892-6.3636-.2522-12.7362-.3702-19.0884-.7931-6.6327-.4415-13.2544-1.096-19.8658-1.7997-14.1784-1.5091-28.286-3.4267-41.9407-7.787-9.316-2.9749-17.8454-7.4705-25.7864-13.1388-1.3404-.9568-1.6389-2.3374-1.5845-3.7856.3093-8.2405 3.7992-14.5624 11.289-18.4164z" fill="#ec3d2e"/><path d="m483.7116 283.0966c-.3627-.5816-.8853-1.1181-1.0637-1.7516-2.0423-7.2502-5.0859-14.0634-9.5631-20.1012-2.5674-3.4624-5.643-6.5771-8.6997-9.6389-2.7021-2.7064-5.5532-5.309-8.5944-7.6208-4.0027-3.0426-8.0948-6.0353-12.4424-8.5391-5.2652-3.0322-10.6781-5.9366-16.3187-8.1548-6.4954-2.5544-13.2546-4.5029-20.0071-6.3123-3.6127-.968-7.4541-1.0758-11.1888-1.5977-3.0825-.4308-6.1574-.9164-9.2409-1.3399-.7583-.1042-1.5368-.061-2.3061-.0855-1.8172-2.7929-3.6343-5.5859-5.4514-8.3788.0714-.1312.1428-.2624.2142-.3936 2.9272.6274 5.8926 1.1154 8.7745 1.9074 10.1656 2.7937 20.472 5.2053 30.409 8.6686 13.5326 4.7165 26.8994 9.9931 39.2359 17.4748 7.6541 4.6419 14.8859 9.8215 20.4167 16.9999 4.5086 5.8518 7.9097 12.2014 7.8717 19.8543-.0152 3.1294-.3733 6.2318-2.0457 9.0092z" fill="#e3ebf1"/><path d="m124.3195 221.3382c-3.6472.6941-7.3123 1.3059-10.938 2.0984-8.9625 1.959-17.7168 4.6851-26.213 8.0942-6.5022 2.609-12.8225 5.7016-19.1064 8.8157-5.694 2.8217-11.2887 5.8593-16.8132 9.0019-3.4679 1.9727-6.7135 4.3343-10.094 6.4656-.3907.2463-1.0068.135-1.5185.1895 8.4542-9.0563 18.696-15.5938 29.6732-21.1088 13.0149-6.5388 26.7316-11.2324 40.6006-15.5343 4.5653-1.4161 9.1226-2.8577 13.6896-4.2683.7055-.2179 1.4432-.3316 2.4707-.5617-.6392 2.4857-1.1951 4.6467-1.751 6.8078z" fill="#e2eaf0"/><path d="m370.6972 284.805c.0212-12.8239.0425-25.6479.0641-38.7278-4.7689.7791-9.2217 1.5863-13.6991 2.2192-6.7128.9489-13.44 1.7983-20.1674 2.6392-1.8389.2298-3.7004.2778-5.5518.4091 4.065-.9106 8.1606-1.7043 12.1886-2.7567 7.6024-1.9862 15.1693-4.1087 22.7439-6.1999 3.7087-1.024 7.4002-2.1101 11.1041-3.1519.3513-.0988.735-.0821.8355-.0921-.1757 4.1061-.2906 8.1623-.5341 12.2107-.5744 9.5492-1.2257 19.0938-1.8138 28.6423-.2509 4.0746-.8642 4.6819-5.17 4.8079z" fill="#e98470"/><path d="m141.7381 237.3095c-1.0486.8187-1.2893 1.7576-1.2063 3.1788.2993 5.1196.1958 10.2616.4433 15.3856.2785 5.7662.7901 11.5208 1.1497 17.2837.045.7217-.2186 1.4626-.3392 2.1947-.7835-4.6863-1.6451-9.3612-2.3336-14.0614-1.2312-8.4052-2.3631-16.825-3.5205-25.241-.1104-.8026-.107-1.6208-.1822-2.8536 2.1678 1.4888 4.0783 2.801 5.9888 4.1132z" fill="#db2314"/><path d="m376.2012 225.504c-1.7812-.2304-1.9602-.5146-1.8804-2.9855.6269.9954 1.2536 1.9905 1.8804 2.9855z" fill="#e07d6a"/><path d="m141.9138 276.0033c.0383.2309.0766.4617.1149.6926-.0383-.2309-.0766-.4618-.1149-.6926z" fill="#db2314"/><path d="m160.1886 291.0683c.351.0873.7019.1747 1.0528.2619-.351-.0874-.7019-.1747-1.0528-.2619z" fill="#f62b1b"/><path d="m207.5406 168.967c-.1164.1076-.2329.2152-.3493.3228.1164-.1076.2328-.2152.3493-.3228z" fill="#ef8872"/></g></svg>