<svg id="Layer_1" enable-background="new 0 0 512 512" height="512" viewBox="0 0 512 512" width="512" xmlns="http://www.w3.org/2000/svg"><g><path d="m281.378 284.3547c6.5318-3.0162 13.1664-5.2311 20.2054-6.0394 22.5934-2.5943 40.3709 5.2217 52.8027 24.5146 4.7251 7.3329 8.0022 15.3239 10.612 23.6116.2546.8086.5298 1.611.8145 2.4095.0786.2205.2257.4166.3885.7083 5.0084-5.2106 9.6048-10.647 13.1852-16.8864.6625-1.1545 1.3878-2.2755 2.1309-3.3806.8842-1.3151.7765-2.406-.4191-3.522-3.1593-2.9488-5.5921-6.3838-6.5204-10.6906-1.1654-5.4069 2.9708-10.3531 8.2562-9.2967-1.1441 3.2174-3.1678 6.3917-1.9492 9.8954.7466 2.1465 2.3524 3.9941 3.8338 6.4008 1.881-3.5064 3.4689-6.4665 5.0922-9.4925 1.5488.4719 1.9599 1.7654 1.9701 2.975.0207 2.4677-.0681 4.9656-.4551 7.3965-.2336 1.4668.1438 2.1382 1.4275 2.583 3.8573 1.3365 7.4171.8699 10.5538-1.8106 1.1469-.9801 2.1236-2.1575 3.1985-3.2242 1.0313-1.0233 1.8397-.9036 2.6113.3509 1.0454 1.6996.9348 3.6482-.5422 5.3885-3.2163 3.7899-7.5067 4.7427-12.169 4.0336-2.0992-.3192-4.0986-1.2956-6.503-2.0932-1.1452 1.8113-2.5832 3.9408-3.8748 6.1556-3.9911 6.8439-9.4047 12.4388-15.2975 17.6245-.0455.04-.0874.0853-.1369.1197-2.641 1.838-3.1747 4.0737-2.4774 7.3372 2.3347 10.9286 3.113 22.0558 3.303 33.2216.0098.5771.0945 1.1528.4882 1.8105 1.2171-2.4557 2.3994-4.9294 3.6618-7.3616 1.1223-2.1622 2.2538-4.5031 5.0688-4.6826 1.4524-.0926 3.0273.2399 4.4063.7558 5.2701 1.9713 10.4828 4.0959 15.7177 6.1612.5487.2165 1.1025.4197 1.7971.6834.1929-2.3769.2169-4.6117.5796-6.7901 1.2412-7.4544 7.9879-11.0856 14.8622-7.8484 2.1895 1.0311 4.2987 2.584 5.9331 4.3669 3.0286 3.3039 2.3315 8.0294-1.37 10.5923-4.6988 3.2534-9.8265 5.5079-15.6508 5.6388-1.4894.0335-3.0612-.165-4.4715-.631-6.3129-2.0858-12.6016-4.2505-18.8504-6.5205-1.47-.5339-2.3016-.4517-3.1217.9604-2.6458 4.5555-5.4572 9.0155-8.0627 13.5932-.6893 1.2112-1.1555 2.697-1.2357 4.0849-1.0423 18.04-5.1564 35.4332-10.8058 52.5232-.64 1.9361-1.8217 2.9912-3.6695 3.6313-6.7324 2.3323-13.7105 3.466-20.7391 4.3667-15.5311 1.9904-31.1154 3.0592-46.7809 2.5539-4.2992-.1387-8.5926-.4538-12.8903-.6555-.6046-.0284-1.218.1287-1.2341-.1123 3.3297 3.661 6.6124 7.3665 10.0093 10.9642 1.6602 1.7584 3.5227 3.3272 5.3129 4.9608 1.2656 1.1548 1.9687 2.4536 1.2563 4.1891-.7073 1.7233-2.1257 2.1789-3.8257 2.1778-9.3288-.0062-18.6576-.0029-28.1524-.0029.2527.3201.4964.6021.711.9048 1.8763 2.6472 4.0204 5.1508 5.5492 7.986 1.7939 3.3268 1.5903 6.8331-.9789 9.8442-2.7243 3.1928-6.2153 4.6071-10.389 3.693-7.2014-1.5775-10.5657-6.3026-9.6838-13.6146.3256-2.6999 1.041-5.3511 1.4145-8.0473.3814-2.7526 2.0586-3.9462 4.5966-4.2977 4.6211-.6401 9.2318-1.3778 13.8678-1.8824 4.9634-.5402 9.951-.8583 15.0872-1.2866-3.0669-3.6491-6.1068-7.3049-9.1891-10.9247-4.8047-5.6424-4.8234-5.5876-12.7338-6.7599-13.1496-1.9487-26.096-4.7892-38.5204-9.6033-15.4802-5.9982-29.8789-13.8373-41.8824-25.5515-1.5079-1.4716-3.3745-1.5146-5.2186-1.7281-6.4905-.7513-12.9327-.8071-19.1973 1.4728-7.157 2.6047-12.987 7.9106-16.3967 15.0329 1.8659.9307 3.8096 1.7451 5.596 2.8207 5.0857 3.0621 9.8673 6.4968 11.9803 12.403.5197 1.4525.5434 3.0825.7951 4.6309-.2363.1016-.4726.2032-.7089.3048-1.6774-1.511-3.3435-3.0346-5.0345-4.5303-3.3483-2.9614-6.6426-5.9904-10.1042-8.8136-1.1754-.9586-2.7873-1.3821-4.317-2.1056-2.0091 3.0822-1.9751 6.3118-1.544 9.5727.3331 2.5193.8263 5.0173 1.2281 7.528.0858.5364.2641 1.1569.0846 1.6152-.3279.8376-.8476 2.1945-1.3659 2.2315-.9034.0643-2.3515-.4643-2.7106-1.1777-.9622-1.9114-1.6868-4.0085-2.1102-6.1114-.8709-4.3255-1.4839-8.7029-2.2354-13.255-3.1949 1.0904-5.4557 3.0244-6.8862 5.8997-2.3763 4.7762-2.0955 9.8781-1.6946 14.9734.1464 1.8613.4407 3.711.7543 6.2758-1.609-.8325-2.9712-1.2673-3.9932-2.1133-4.1652-3.4474-4.5025-8.231-3.6904-12.9887 1.4761-8.648 6.5943-14.3736 15.0606-16.8893 1.7302-.5141 2.8044-1.4881 3.6382-2.9952 3.7589-6.795 8.5677-12.5962 15.5669-16.3152 5.3288-2.8314 11.0243-3.9058 17.0116-3.7491 2.5796.0676 5.1624.0113 7.6353.0113-1.9286-3.0488-4.0688-6.1939-5.9668-9.479-4.859-8.4102-7.8332-17.4094-8.1273-27.2003-.3325-11.0699 2.9124-21.1508 8.4984-30.5609 4.6555-7.8426 10.3615-14.75 18.097-19.7912 9.3408-6.0874 19.6658-8.3461 30.6496-7.472 5.5871.4446 11.1248 1.5101 17.2133 2.3695-1.0968-.9206-2.0555-1.6588-2.9365-2.4803-1.3532-1.2616-1.6868-2.7995-1.3683-4.6369 2.1101-12.1747 4.1662-24.3588 6.2203-36.5432.2012-1.1933.2528-2.4112.4083-3.6132.0528-.4079.0809-.9675.3438-1.1757 1.6848-1.3344 1.1459-2.9403.8203-4.6487-1.7232-9.039-3.3787-18.091-5.0332-27.143-3.1019-16.9713-6.2883-33.9281-9.2521-50.9236-3.3388-19.1458-6.4962-38.3234-9.6852-57.4951-2.9007-17.439-5.8344-34.8733-8.5753-52.3377-2.5914-16.5124-4.9521-33.061-7.4096-49.5944-.1593-1.0716-.2787-2.1491-.438-3.39 9.9239-1.3996 19.7303-2.7827 29.772-4.199.6637 3.8039 1.3312 7.4772 1.9426 11.1598 2.4789 14.9319 4.9329 29.8679 7.4106 44.8 2.5079 15.1137 5.0331 30.2246 7.5508 45.3367 3.3434 20.0683 6.6781 40.1381 10.0326 60.2045 3.7639 22.5153 7.5935 45.0199 11.2816 67.5476.7816 4.774 1.0635 9.6293 1.6077 14.4435.0653.5777.1985 1.2297.5266 1.6836 5.9927 8.2905 12.0198 16.5558 18.1509 24.9792zm-40.1078-47.5464c4.2354-1.1582 8.4709-2.3164 12.8083-3.5026-.2538-.803-.4268-1.3508-.6507-2.0594-4.1622 1.3418-8.1813 2.6375-12.2004 3.9332-1.348.2773-2.7032.5236-4.0422.8389-2.2331.5258-2.2824.6673-1.2084 2.9743 1.7601-.7263 3.5267-1.4553 5.2934-2.1844zm3.9619 23.8442c4.5918-.3147 9.164-.7681 13.7024-1.4606-.0148-.235-.0295-.4701-.0443-.7051-4.5531-.3608-9.1061-.7216-13.6592-1.0824-2.3848-.1224-4.7696-.2448-7.2886-.3742.1941 1.6972.3613 3.1599.5508 4.8179 2.3799-.4222 4.5594-.8089 6.7389-1.1956zm-2.8979-16.2084h13.3029c.448-1.8168-.4589-2.3252-1.9015-2.3913-3.7997-.174-7.5991-.3553-11.3986-.5337-2.0707 0-4.1413 0-6.3984 0 .2177 1.3791.3806 2.4115.571 3.6177 2.0459-.2433 3.9352-.468 5.8246-.6927zm175.5043 117.6855c-3.2172-3.3331-6.674-3.3194-9.1875.0365-2.2874 2.8105-1.4244 5.7032-.2949 8.9644 3.3221-1.6211 6.4893-3.0721 9.5638-4.6981 2.3033-1.2181 2.2177-2.8085-.0814-4.3028zm-138.4097-29.8311c4.9789.0018 9.9579.0035 14.9368.0053.5268.1359 1.051.283 1.5808.4061 7.2608 1.6871 14.1568 4.1761 19.9224 9.1206.9146.7843 1.7537 1.6566 2.6277 2.4883-.1028.1339-.2057.2678-.3085.4016-1.0315-.455-2.0533-.9337-3.096-1.3614-7.0874-2.907-14.446-4.7673-22.0487-5.6826-1.0572-.1915-2.1127-.5376-3.1719-.549-6.4698-.0704-12.735 1.1245-18.8523 3.19-8.2723 2.7932-15.7129 6.9073-21.5334 13.5713-1.27 1.454-2.2954 3.1299-3.6258 4.5193-.58.6057-1.6452.7469-2.4901 1.0991-.1894-.8826-.6892-1.8428-.4926-2.6288.2675-1.0694.9875-2.063 1.6544-2.9875 1.5315-2.123 3.1484-4.1845 4.7306-6.2709-.075-.166-.15-.3319-.225-.4979-4.1887.299-8.3775.5979-12.5662.8969-.3606-.7462-.7213-1.4925-1.0819-2.2387 1.7066-1.7437 3.7276-2.8354 6.1985-3.0104 3.2448-.2299 6.489-.4673 9.7332-.7056.5751-.0422 1.1486-.1044 1.7229-.1574-6.2161-3.459-13.1368-3.8769-19.8089-5.267-1.891-.4792-3.782-.9583-5.673-1.4375.0161-.1642.0321-.3284.0482-.4925 2.23-.3199 4.4601-.6398 6.6901-.9597 5.3507.6308 10.7014 1.2616 16.0521 1.8924.1195-.217.239-.434.3585-.651-4.0147-3.545-8.0294-7.0899-12.044-10.6348-.3551-.1468-.7102-.2935-1.0653-.4403-2.5338-1.1234-5.0049-2.4254-7.6121-3.3394-11.8598-4.1579-23.8123-4.6107-35.6917-.1807-8.0973 3.0197-14.5559 8.2509-19.357 15.4749-1.5584 2.5739-3.1168 5.1478-4.6753 7.7218-.487.83-1.0425 1.6277-1.4508 2.4948-5.2738 11.2-5.7342 22.8458-2.3363 34.5251 2.7057 9.3002 8.318 17.0692 15.0938 23.8877 12.2703 12.3477 27.0709 20.6655 43.3477 26.4838 12.5339 4.4803 25.5335 6.9233 38.683 8.7668 10.9827 1.5398 22.0185 2.4985 33.0782 2.2914 9.3536-.1751 18.7072-1.0653 28.0301-1.9592 9.0215-.865 17.9993-2.1767 27.0066-3.2022 1.9222-.2189 3.0166-1.2029 3.4999-2.9069.6586-2.3224 1.1687-4.6871 1.7424-7.0336.3136-1.7204.7105-3.4304.9272-5.163 1.3959-11.1586 3.211-22.2907 3.9778-33.4939.6219-9.0866.1382-18.2661-.1652-27.394-.3184-9.5807-1.9769-18.9913-4.5396-28.2342-2.1448-9.301-5.8681-17.928-11.0213-25.9551-3.4827-5.425-7.7317-10.1016-13.2462-13.5057-14.132-8.7237-28.9174-8.3441-44.0109-2.9928-.4719.1673-1.095.9269-1.0561 1.3569.3514 3.8821-.4868 7.5847-1.4832 11.2757-1.8419 5.5766-3.6838 11.1533-5.5258 16.7299-.7381 1.7172-1.4762 3.4343-2.2143 5.1514.1858.1522.3716.3044.5574.4565 3.4481-3.778 7.6649-6.0372 12.6406-6.7976.7733.5922 2.5209-.9017 2.5856 1.2076-.8856.6248-1.8343 1.1772-2.646 1.8865-4.1152 3.5951-8.1948 7.2309-12.287 10.8525-.0249.0427-.0498.0853-.0747.128.0168-.0506.0337-.1008.0506-.1509zm-24.7271-66.5422c-3.3919.4026-6.7838.8051-10.1757 1.2077-1.3269.069-2.6535.1438-3.9807.2056-2.0049.0933-2.6927.6965-2.9821 2.6757-.9722 6.6465-1.8626 13.306-2.932 19.9367-.7016 4.3502-1.4272 8.7229-2.5944 12.961-.6168 2.2394-.44 3.7596 1.2081 5.3472 3.5753 3.4439 7.0583 6.9843 10.5573 10.5068 5.7618 5.8004 11.4984 11.6257 17.2623 17.424 2.1944 2.2075 3.4744 2.3316 5.6371.653 1.9426.0128 2.4672-1.3802 2.9356-2.8926 2.2315-7.2054 4.4878-14.4031 6.7343-21.6039 1.2736-4.0822 2.5455-8.1649 3.8182-12.2475 1.5593-3.0218.7762-5.6256-1.3544-8.0479-.7132-.8108-1.2583-1.7705-1.8709-2.6685-4.6293-6.786-9.2667-13.5667-13.88-20.3636-2.4974-3.679-4.7527-4.5326-8.3827-3.0937zm-15.9789-85.3785c.3199.4972.8272.9583.9309 1.4972 1.1555 6.0021 2.2528 12.0154 3.3576 18.0273 1.5651 8.517 3.1141 17.0369 4.7075 25.5486.0951.5081.465 1.3123.8044 1.3663 1.3836.22 2.8051.2016 4.3813.2793-.6003-3.3655-1.1231-6.4046-1.6861-9.4361-3.062-16.486-6.212-32.9562-9.1804-49.459-2.9902-16.6241-5.8741-33.2682-8.6741-49.9255-2.7999-16.6573-5.5993-33.3176-8.0938-50.0222-1.8326-12.2724-3.1192-24.6255-4.766-36.927-.4857-3.6283-1.3697-7.2032-2.0948-10.9236-3.0076.531-5.7378 1.0131-8.4681 1.4951-.6237.0808-1.2475.1616-1.8712.2423-2.8742.2839-5.7484.5678-8.8663.8757 11.5203 68.645 23.003 137.0658 34.5226 205.7067 2.6285-.426 5.0607-.8202 7.493-1.2144h5.5939c-.2199-1.0555-.3285-1.6328-.4613-2.2044-.6019-2.5907-1.3367-5.1578-1.7943-7.7735-1.7196-9.8288-3.38-19.6683-4.9923-29.5153-.4135-2.5241-.5687-5.0905-.8425-7.6375zm13.1814 295.8048c-.295 2.2623-.7447 4.4006-.8146 6.5512-.1066 3.2802 3.1459 5.8926 6.3565 5.3111 1.8458-.3344 3.0516-1.6742 2.9897-3.3221-.1295-3.4469-4.7195-8.1534-8.5316-8.5402zm6.2565-220.5723c-.4759-2.1054-.8941-3.9555-1.3252-5.8628-.4202.0929-.6483.1383-.8739.194-3.8124.941-7.631 1.8583-11.4299 2.8509-.6047.158-1.1206.6554-1.6776.9959.5817.2584 1.1461.5738 1.7507.7565.4525.1367.9563.1068 1.4378.1435 3.9573.302 7.9147.6024 12.1181.922zm-9.6622-7.2764c-.03-.0927-.06-.1854-.0899-.2781-3.8048 0-7.6096 0-11.5544 0 .1787 1.4757.328 2.7091.5 4.1295 3.8256-1.3221 7.485-2.5868 11.1443-3.8514zm-3.8688-9.5941c.0235.1768.047.3537.0705.5306 3.4355.2718 6.871.5437 10.4993.8307-.2731-1.4817-.4965-2.6936-.7602-4.1239-3.4029.9584-6.6063 1.8605-9.8096 2.7626zm-9.5654-3.8789c3.2175-1.0327 6.257-2.0084 9.2966-2.984-.0314-.1651-.0628-.3301-.0942-.4952-3.18.2102-6.3599.4203-9.7204.6425.1966 1.0765.3429 1.8777.518 2.8367z" fill="#331513"/><path d="m116.61 383.3659c-.6046 0-1.2112.0318-1.8136-.0049-5.8276-.3556-9.2868-3.3429-9.9803-8.6037-.6772-5.1372 2.4752-9.8622 7.6783-11.5102 4.5389-1.4375 8.8718-.287 13.1247 1.185 3.402 1.1775 6.4403 3.0591 9.0054 5.6157 1.717 1.7114 1.6605 2.9128.4865 4.9788-2.986 5.2544-8.1728 6.6431-13.4591 7.8513-1.6385.3745-3.3492.4326-5.0268.6356-.0051-.0491-.0101-.0984-.0151-.1476zm15.6982-10.7814c-4.0484-1.7309-7.5651-3.347-11.1685-4.7389-2.7987-1.0811-5.6947-1.1244-8.476.2146-2.4564 1.1825-3.6943 3.8202-3.2203 6.7093.3682 2.2439 1.9146 3.6147 4.7973 3.8809 6.7107.6196 12.2647-2.2909 18.0675-6.0659z" fill="#381b19"/><path d="m340.2068 265.5443c-.1893-1.0082-.2987-1.5911-.4337-2.3096-3.0535.2454-4.51-1.6779-5.3488-4.3044-.8439-2.6425-1.9318-5.2526-2.3856-7.9651-1.1729-7.0108 6.4395-13.7512 13.1942-11.844 3.1018.8758 5.1418 2.9753 5.4232 6.1389.626 7.0387-.9862 13.3751-6.8358 18.002-1.0289.814-2.2262 1.4154-3.6135 2.2822zm1.4388-5.0439c1.101-3.7448 2.202-7.3286 3.1977-10.9414.5273-1.9131-.1067-4.0885-1.174-4.6487-1.1703-.6143-3.8335-.0048-4.9984 1.343-.6899.7983-1.2825 1.7928-1.5789 2.7991-1.1873 4.0294.7119 8.8788 4.5536 11.448z" fill="#361817"/><path d="m355.6004 279.2415c-.4814.0479-.9622.1279-1.4445.1382-1.9514.0417-2.3234-.3397-2.2903-2.2876.0052-.3026.0625-.6247-.0175-.9055-1.6468-5.7871 1.6055-9.9083 4.9916-13.769 3.7168-4.2377 8.3544-4.848 12.9301-2.2365 4.2658 2.4346 5.229 7.3403 2.08 11.1282-4.2098 5.0643-9.6315 7.7552-16.2494 7.9322zm.2161-3.159c2.7483-1.4779 5.3644-2.727 7.8064-4.2545 1.5674-.9805 3.0011-2.2558 4.2713-3.6088 1.4184-1.5109 1.0604-3.3265-.8983-3.8522-1.6474-.4421-3.6887-.603-5.2281-.0215-3.5391 1.3371-6.7084 7.9624-5.9513 11.737z" fill="#381b19"/><path d="m143.6525 387.7536c.0308 2.8542-.5154 5.1766-2.0176 7.1981-2.5905 3.486-5.0045 7.143-9.6412 8.3148-3.8326.9684-7.4776-.7465-8.6955-4.577-.4683-1.4731-.6377-3.2918-.2251-4.7498 1.5771-5.5738 5.1581-9.3093 10.9106-10.744 1.2295-.3066 2.452-.6411 3.6786-.9594 3.3724-.8751 5.2396.3011 5.8462 3.7214.1257.7088.1177 1.4414.144 1.7959zm-4.5909.7068c.0207-1.8265-.3681-2.4122-1.631-2.4569-4.1554-.1472-9.626 4.8195-9.8638 8.9553-.1603 2.7872 1.8381 4.2686 4.4721 3.315 3.5708-1.2927 6.9802-6.0568 7.0227-9.8134z" fill="#381b19"/><path d="m213.5191 456.5394c-.0053 5.349-4.8473 12.2478-9.9032 14.1278-4.6656 1.735-9.3688-1.3469-9.6992-6.4008-.5184-7.9304 5.3475-13.7911 12.6768-15.3236 3.222-.6737 6.6259 2.8043 6.9226 6.6896.0229.3007.003.6046.003.907zm-8.7251-3.5517c-.4073.2072-1.2684.5104-1.9715 1.0281-2.2234 1.6371-3.4711 3.9731-4.4032 6.5031-.4982 1.3524.4065 4.7293 1.4082 5.2994 1.1354.6462 3.7666-.121 4.819-1.676 1.4141-2.0895 2.7451-4.2612 3.8526-6.5244 1.0254-2.0953-.8959-4.6957-3.7051-4.6302z" fill="#381b19"/><path d="m189.8702 302.0391c1.614-3.8905 2.4034-7.9042.4596-11.7816-1.7987-3.588-4.153-6.8973-6.2463-10.3026 6.4502 1.7169 13.1589 2.6651 18.7978-2.6624 5.0353-4.7573 9.1789-10.0529 8.4888-17.8625.2816.3492.6435.6598.8326 1.0534 2.1835 4.5443 1.4441 8.9714-.6758 13.284-3.8495 7.8308-10.2594 11.6546-18.9003 11.9157-.4006.0121-.7998.0717-1.2498.114 1.5374 5.6943 4.8754 11.4653-1.5066 16.242z" fill="#3c1f1d"/><path d="m304.1255 251.3477c-.6046 2.0488-1.1285 3.7031-1.579 5.3772-.8672 3.2228-.2599 4.9535 2.44 6.9297 3.606 2.6394 7.6227 4.159 12.2304 4.2341-6.4106 5.3479-17.3293.1349-19.4608-9.278-1.5652.9447-3.0784 1.8887-4.6206 2.7826-3.2711 1.8961-6.7372 2.9514-10.582 2.5398-4.3907-.4701-7.4357-3.2945-7.8972-7.7335 1.4889.7876 2.8936 1.392 4.1495 2.2215 3.4355 2.2689 6.9767 2.2468 10.5263.4998 4.8218-2.3731 9.5721-4.8912 14.7934-7.5732z" fill="#3b1e1c"/><path d="m389.2976 398.5176c6.368.3914 12.6364 5.8104 13.4914 11.9615.4614 3.3189-.7636 5.9903-3.5643 7.7985-2.9336 1.894-5.9987 1.7251-8.9319-.0205-3.4244-2.0378-5.0459-5.2827-5.6262-9.1003-.3174-2.0879-.6347-4.1928-.682-6.2961-.0186-.8286.4766-1.9992 1.1271-2.442 1.2483-.8496 2.7748-1.2906 4.1859-1.9011zm-3.0412 4.4026c.9583 3.0684 1.5724 5.7894 2.6817 8.2909.6211 1.4007 1.899 2.6646 3.1738 3.5841 1.8297 1.3197 4.1152 1.0331 5.5443-.2759 1.3969-1.2794 1.5826-3.1385.5238-5.3374-2.2824-4.7394-6.5542-5.8019-11.9236-6.2617z" fill="#381b19"/><path d="m235.3891 345.7802c.3606.7462.7213 1.4925 1.082 2.2385-.9135 1.8219-1.8602 3.6283-2.733 5.4697-1.3359 2.8184-1.8669 5.8225-.8197 8.7716.5132 1.4451 1.8679 2.5914 2.8417 3.873-2.8776-.3772-5.7553-.7535-8.6327-1.1321-.8841-.1163-1.2542-.5256-1.0433-1.4867.4276-1.9489.8764-3.9045 1.111-5.8817.2905-2.4476 1.4429-4.98-.34-7.3489-2.4318 1.089-2.8867 1.6083-3.4559 4.2572-.6945 3.2324-1.3314 6.4771-2.0326 9.9096-6.5426-1.851-13.0294-.8658-19.4879-.7722-.8895.0129-1.8159.2014-2.6524.5077-1.2176.4459-1.5961 1.4883-1.2353 2.672.3646 1.196 1.306 1.1921 2.3728.9583 1.295-.284 2.6369-.6676 3.9315-.5854 5.3519.3401 10.6936.8401 16.2599 1.2996-.5406 7.4758-3.7685 14.3168-1.7378 22.0488 2.2135-3.5021 3.5609-6.7591 4.2168-10.298.6469-3.4901 1.2613-6.9862 1.9206-10.6497 4.2511.6198 8.2518 1.2162 12.2568 1.783 3.587.5076 7.1674 1.3603 10.8098.5248.8209-.1883 1.5809-.6425 2.3689-.9744-.0434-.1971-.0869-.3943-.1303-.5914-2.5245-.9719-5.0489-1.9438-7.5734-2.9157.4707-.4155.8816-.9478 1.4232-1.2251 1.8216-.9326 3.8165-1.5797 5.5164-2.687 5.1516-3.3557 10.1873-6.8888 15.2848-10.3279 3.599-2.4281 7.071-5.1017 10.8756-7.1543 5.6241-3.0343 11.4932-5.6145 17.2579-8.3881 7.6013.9163 14.9599 2.7767 22.0473 5.6836 1.0427.4277 2.0645.9063 3.096 1.3614.1028-.1339.2057-.2678.3085-.4016-.874-.8316-1.7131-1.7039-2.6277-2.4883-5.7656-4.9445-12.6616-7.4335-19.9224-9.1206-.5298-.1231-1.054-.2701-1.5808-.406.2017-.4918.3297-1.0321.6165-1.468 2.573-3.9094 2.6762-7.6567-.5963-11.2538-.0647-2.1093-1.8124-.6154-2.5856-1.2073-1.4983-.9474-3.0592-1.2556-4.8011-.6769-2.0422.6784-4.1202 1.249-6.1827 1.8663 1.8419-5.5766 3.6839-11.1532 5.5258-16.7299.8435-.2831 1.7132-.5056 2.5258-.8595 3.8088-1.6585 7.4857-3.7422 11.4344-4.9218 3.6987-1.105 7.6652-1.5571 11.5406-1.746 2.8364-.1382 5.765.3948 8.5674 1.0136 7.5762 1.673 14.7518 3.8495 20.0469 10.3975 6.08 7.5187 11.3786 15.4018 15.185 24.29.2771.647 1.0012 1.1026 1.5175 1.6472 2.5627 9.2429 4.2212 18.6536 4.5396 28.2342.3034 9.128.7871 18.3074.1652 27.394-.7668 11.2032-2.5818 22.3353-3.9778 33.4939-.2167 1.7325-.6136 3.4425-.9272 5.163-10.0511-.1201-20.1027-.2182-30.1534-.3694-5.14-.0772-10.2861-.1183-15.4157-.4142-5.5881-.3223-11.1608-.9156-16.7393-1.4011-2.8799-.2506-5.7618-.4856-8.6356-.7951-5.2022-.5603-10.399-1.1711-15.598-1.7608.5626-1.7243 1.0674-3.4703 1.7001-5.1684 1.253-3.3622 3.2043-4.026 6.3984-2.4237 2.2671 1.1372 4.5724 2.239 6.9547 3.0949 2.6124.9387 5.2805.8143 7.6989-.7285 3.1515-2.0104 3.8576-5.2055 4.1349-8.645.2377-2.9484.5374-5.903 1.0386-8.8155.3808-2.2131 1.6175-2.9482 3.7908-2.4776 5.2032 1.1266 10.3815 2.368 15.5849 3.4933 5.5548 1.2014 9.2624-.7725 10.3487-5.476.2571-1.1131.5298-2.2999.4071-3.4099-.5309-4.8015-1.174-9.5915-1.8391-14.3769-.4613-3.3193.2759-4.8181 3.5452-5.6288 2.9224-.7248 5.9437-1.0901 8.9395-1.4712 4.4677-.5683 8.9514-1.0112 13.9843-1.5691-1.0613-.4262-1.5862-.73-2.15-.8488-5.3053-1.118-10.6935-1.7578-16.0693-1.0797-3.0649.3866-6.0729 1.498-9.0049 2.563-1.7864.6489-2.9938 2.2917-3.1219 4.1796-.1657 2.4415.0367 4.9211.2376 7.3714.3402 4.1495.99 8.2818 1.1497 12.4352.1078 2.8038-1.258 3.8324-3.9054 3.2697-5.1479-1.0941-10.2635-2.3417-15.3848-3.558-6.1036-1.4496-10.1776 1.0862-11.2268 7.2055-.4383 2.5562-.5905 5.17-.742 7.7652-.3144 5.3839-1.7932 6.5268-6.8839 4.9338-2.4219-.7579-4.7509-1.8108-7.1276-2.7155-3.0508-1.1613-5.7096-.5674-7.9365 1.8338-2.4919 2.6872-3.84 5.8422-3.8496 9.5346-1.9592-.3092-3.9365-.5331-5.874-.9448-4.5955-.9764-9.1744-2.0316-13.7557-3.0735-10.2631-2.334-20.3825-5.1721-29.9863-9.529-11.2797-5.1172-21.4149-11.9163-29.9469-21.0103-4.6145-4.9185-8.1301-10.4726-10.4055-16.8029-1.9781-5.5033-2.4935-11.2706-2.8564-17.0503-.2104-3.3515-.3309-6.7086-.5028-10.2909-1.305.3013-2.4008.5542-3.4967.8072 1.5584-2.5739 3.1168-5.1478 4.6754-7.7215.0001 1.1522.0001 2.3041.0001 3.4561 1.1508-.7744 1.8235-1.6195 2.5499-2.4157 4.595-5.0363 10.1839-8.6707 16.3436-11.4728 5.4442-2.4766 11.1979-3.7408 17.1495-4.0273 7.2744-.3503 14.3887 1.0896 21.5407 2.0946 1.6783.2359 3.3838.2786 5.0767.4102.3551.1468.7102.2935 1.0653.4401-.1644.4448-.2958.9056-.4988 1.3323-1.2804 2.6913-2.5767 5.3751-3.8678 8.0613-2.23.3199-4.4601.6398-6.6901.9597-.0161.1642-.0321.3283-.0482.4925 1.891.4792 3.782.9583 5.673 1.4376-.0045 1.3771-.1125 2.7635.0119 4.1287.1715 1.8742.1593 3.8877 2.1432 5.0117zm85.2933-20.2688c-1.5937 5.416-4.4394 10.0135-2.745 15.6108 2.3026-1.5952 3.7734-3.6009 4.769-5.9714.9377-2.2325 1.8126-4.4916 2.7019-6.7442.3312-.839.7225-1.1315 1.7681-.9 4.0627.8997 8.1528 1.6926 12.2594 2.362.7934.1293 1.7063-.4753 2.5641-.7413-.4788-.7542-.7871-1.8934-1.4665-2.1941-2.5836-1.1435-5.2733-2.0566-7.9512-2.9747-1.569-.5379-3.1906-.9222-4.8805-1.4017.275-.933.452-1.5685.6495-2.1977.762-2.4268 1.6036-4.8316 2.2744-7.2833.5729-2.0941-.7863-3.8393-2.4876-3.2171-.7349.2688-1.4448 1.1133-1.7822 1.8679-1.0614 2.3736-1.9689 4.8181-2.8821 7.2553-.8042 2.1461-1.4537 2.5511-3.6522 2.1372-4.9565-.9331-9.9358-1.5294-14.9728-.7664-.4769.0723-.8893.5708-1.3317.8713.3372.3499.6172.8988 1.0216 1.0152 1.7973.5172 3.6173.9769 5.4532 1.3341 3.4784.677 6.9733 1.2694 10.6906 1.9381z" fill="#db3629"/><path d="m270.4177 422.1999c5.199.5897 10.3958 1.2005 15.598 1.7608 2.8738.3095 5.7557.5444 8.6356.7951 5.5785.4855 11.1511 1.0789 16.7393 1.4011 5.1296.2959 10.2757.3369 15.4157.4142 10.0507.1512 20.1022.2493 30.1534.3694-.5738 2.3465-1.0838 4.7112-1.7425 7.0336-.4833 1.704-1.5777 2.688-3.4999 2.9069-9.0072 1.0256-17.9851 2.3372-27.0066 3.2022-9.3229.8939-18.6765 1.784-28.0301 1.9592-11.0597.2071-22.0955-.7516-33.0782-2.2914-13.1495-1.8435-26.1491-4.2865-38.683-8.7668-16.2768-5.8182-31.0774-14.1361-43.3477-26.4838-6.7758-6.8185-12.388-14.5875-15.0938-23.8877-3.3979-11.6794-2.9375-23.3251 2.3363-34.5251.4083-.8671.9637-1.6648 1.4508-2.4948 1.0959-.2531 2.1918-.506 3.4967-.8073.1719 3.5823.2923 6.9394.5028 10.2909.3629 5.7796.8783 11.547 2.8564 17.0503 2.2753 6.3304 5.7909 11.8845 10.4055 16.8029 8.532 9.094 18.6672 15.8931 29.9469 21.0103 9.6039 4.3569 19.7233 7.1951 29.9863 9.529 4.5814 1.0419 9.1603 2.097 13.7557 3.0735 1.9374.4117 3.9148.6356 5.8738.9448.2946 1.2879.4122 2.659.9606 3.828.2656.5661 1.3396.7529 2.0476 1.1115.1532-.6315.3954-1.2572.4368-1.896.0503-.7711-.0699-1.5533-.1164-2.3308z" fill="#cc2416"/><path d="m241.2191 227.5085c-2.4322.3942-4.8644.7884-7.493 1.2144-11.5196-68.6409-23.0023-137.0617-34.5226-205.7067 3.1179-.308 5.9921-.5919 8.8665-.8755.4956 3.5169.9519 7.0397 1.495 10.5491 1.0311 6.6617 2.0816 13.3207 3.1809 19.9714 1.0901 6.5948 2.2646 13.1756 3.3754 19.7671 1.0802 6.4099 2.1371 12.8238 3.1838 19.2393.6495 3.9812 1.3064 7.9621 1.8784 11.9548.811 5.6607 1.5063 11.3381 2.328 16.9972.6226 4.2874 1.3926 8.5531 2.0487 12.8358 1.0391 6.7829 1.9911 13.5794 3.0672 20.3563.9816 6.1818 2.0752 12.3459 3.1267 18.5166 1.274 7.4768 2.5532 14.9527 3.8349 22.4282.9056 5.2818 1.8206 10.5621 2.7286 15.8435.969 5.6359 1.9345 11.2723 2.9015 16.9085z" fill="#c58b3a"/><path d="m241.2191 227.5085c-.967-5.6362-1.9325-11.2726-2.9014-16.9085-.9079-5.2814-1.823-10.5616-2.7286-15.8435-1.2817-7.4755-2.5609-14.9514-3.8349-22.4282-1.0515-6.1707-2.145-12.3348-3.1267-18.5166-1.0761-6.7769-2.0282-13.5734-3.0672-20.3563-.6561-4.2828-1.4261-8.5485-2.0487-12.8358-.8218-5.6591-1.517-11.3365-2.328-16.9972-.572-3.9927-1.2289-7.9736-1.8784-11.9548-1.0467-6.4155-2.1036-12.8294-3.1838-19.2393-1.1108-6.5914-2.2853-13.1723-3.3754-19.7671-1.0993-6.6507-2.1498-13.3097-3.1809-19.9714-.5432-3.5093-.9994-7.0321-1.495-10.5491.6236-.081 1.2473-.1618 1.8711-.2426.8241 2.1828 1.9174 4.3044 2.4292 6.5581 3.6939 16.2668 7.3343 32.5464 10.854 48.8516 1.5488 7.175 2.8804 14.4017 4.1171 21.6379 1.0331 6.0452 1.7673 12.1412 2.6652 18.21.8006 5.4116 1.7101 10.8079 2.4498 16.2276.7158 5.2445 1.2898 10.5087 1.9016 15.767.848 7.2885 1.6615 14.5811 2.5179 21.8686.1669 1.4199.4622 2.8247.6983 4.2368.0211.1905.0422.3807.0634.571.3542 1.5134.7083 3.0267 1.0625 4.5401 0 0 .0228.011.0228.011.2738 2.547.429 5.1133.8423 7.6375 1.6123 9.847 3.2727 19.6865 4.9923 29.5153.4576 2.6157 1.1925 5.1827 1.7943 7.7735.1328.5716.2414 1.1489.4613 2.2044-2.0316 0-3.8129 0-5.5941 0z" fill="#d7ab59"/><path d="m238.7228 180.3778s-.0228-.011-.0228-.011c.1801-.0924.5269-.2204.5159-.2718-.3057-1.4286-.6478-2.8494-.9838-4.2716-.2193-.1893-.4386-.3786-.6579-.5679-.2361-1.4118-.5314-2.8166-.6983-4.2365-.8564-7.2875-1.6699-14.58-2.5179-21.8686-.6118-5.2583-1.1858-10.5225-1.9016-15.767-.7397-5.4197-1.6492-10.8159-2.4498-16.2276-.8979-6.0688-1.6321-12.1648-2.6652-18.21-1.2366-7.2363-2.5682-14.4629-4.1171-21.6379-3.5197-16.3053-7.1601-32.5849-10.854-48.8516-.5118-2.2537-1.6051-4.3754-2.4292-6.5581 2.7303-.4821 5.4606-.9641 8.4681-1.4951.7251 3.7204 1.6091 7.2953 2.0948 10.9236 1.6468 12.3015 2.9334 24.6546 4.766 36.927 2.4945 16.7046 5.2939 33.365 8.0938 50.0222 2.7999 16.6573 5.6839 33.3014 8.6741 49.9255 2.9684 16.5028 6.1184 32.9729 9.1804 49.459.5631 3.0316 1.0859 6.0706 1.6861 9.4361-1.5762-.0777-2.9977-.0593-4.3813-.2793-.3394-.054-.7093-.8581-.8044-1.3663-1.5934-8.5116-3.1423-17.0316-4.7075-25.5486-1.1048-6.0118-2.2021-12.0252-3.3576-18.0273-.1037-.5388-.611-1-.9308-1.4972zm-20.9919-141.2535c.4262-.274.6053-.3354.6052-.3967-.0013-5.2179-.7525-10.3149-2.5609-15.2254-.109-.2959-.6052-.4491-.9212-.6687-.1394.1014-.2787.2029-.4181.3043 1.0887 5.2816 2.1772 10.5633 3.295 15.9865z" fill="#e0c77f"/><path d="m280.1896 299.9301c-1.2727 4.0825-2.5446 8.1653-3.8182 12.2475-2.2466 7.2007-4.5028 14.3985-6.7343 21.6039-.4684 1.5125-.993 2.9054-2.9356 2.8926-.7665-1.0966-1.533-2.1932-2.2994-3.2898-.2847-1.9701-.4653-3.9619-.8708-5.9068-3.2041-15.369-6.4469-30.7299-9.689-46.0908-.5312-2.5167-.2635-4.7949 1.7612-6.6187 1.3652 1.2958 2.8343 2.4996 4.077 3.9039 4.6324 5.2352 9.086 10.6328 13.8271 15.7658 1.938 2.098 4.4378 3.6771 6.682 5.4924z" fill="#b2b3bc"/><path d="m235.7601 366.133c-.9738-1.2816-2.3285-2.4279-2.8417-3.873-1.0472-2.9491-.5163-5.9532.8197-8.7716.8728-1.8414 1.8195-3.6478 2.733-5.4697 4.1887-.2988 8.3774-.5977 12.5661-.8967.075.166.15.3319.225.4979-1.5822 2.0865-3.199 4.1479-4.7306 6.2709-.6669.9244-1.3869 1.9181-1.6544 2.9875-.1966.786.3031 1.7462.4926 2.6288.8448-.3522 1.91-.4934 2.4901-1.0991 1.3304-1.3895 2.3558-3.0653 3.6258-4.5193 5.8205-6.664 13.2612-10.7781 21.5334-13.5713 6.1173-2.0655 12.3825-3.2604 18.8523-3.19 1.0591.0115 2.1147.3576 3.1726.5485-5.7641 2.7731-11.6332 5.3533-17.2573 8.3876-3.8046 2.0526-7.2766 4.7262-10.8756 7.1543-5.0976 3.4391-10.1332 6.9723-15.2848 10.3279-1.7 1.1073-3.6948 1.7545-5.5164 2.687-.5415.2773-.9524.8096-1.4231 1.2256-2.3089-.4415-4.6178-.8834-6.9267-1.3253z" fill="#cb2416"/><path d="m357.1599 332.6553c-.5163-.5446-1.2404-1.0002-1.5175-1.6472-3.8064-8.8882-9.1049-16.7713-15.185-24.29-5.2951-6.548-12.4707-8.7245-20.0469-10.3975-2.8025-.6189-5.731-1.1519-8.5674-1.0136-3.8755.1889-7.8419.6411-11.5406 1.746-3.9487 1.1796-7.6255 3.2633-11.4344 4.9218-.8126.3539-1.6823.5764-2.5258.8595.9964-3.691 1.8346-7.3936 1.4832-11.2757-.0389-.43.5842-1.1896 1.0561-1.3569 15.0935-5.3513 29.8789-5.7309 44.0109 2.9928 5.5145 3.4041 9.7634 8.0808 13.2462 13.5057 5.1531 8.0271 8.8764 16.6541 11.0212 25.9551z" fill="#e64a3c"/><path d="m264.402 333.3843c.7665 1.0966 1.533 2.1932 2.2995 3.2898-2.1627 1.6786-3.4427 1.5545-5.6371-.653-5.7639-5.7983-11.5005-11.6237-17.2623-17.424-3.499-3.5225-6.982-7.0628-10.5573-10.5068-1.6481-1.5876-1.8249-3.1077-1.2081-5.3472 1.1672-4.2381 1.8928-8.6107 2.5944-12.961 1.0694-6.6307 1.9598-13.2903 2.932-19.9367.2895-1.9792.9772-2.5824 2.9821-2.6757 1.3272-.0618 2.6538-.1366 3.9807-.2057-.147 1.068-.2941 2.136-.4411 3.204-1.163-.3211-2.326-.6422-3.5305-.9747-.3465 3.1595 1.5712 4.672 3.2572 6.3145-.2536.5258-.64 1.0273-.7409 1.581-1.4342 7.8691-2.8203 15.7469-4.2412 23.6185-.3481 1.9285-.279 3.8 1.07 5.3098 2.9382 3.2886 5.9691 6.4943 8.9589 9.7369 2.6612 2.8862 5.2774 5.8159 8.0104 8.6322.5585.5755 1.5483.7325 2.3392 1.0823.6644 2.3001 1.296 4.6103 2.0023 6.8975.6938 2.2459 1.3968 2.448 3.1918 1.0183z" fill="#9695a1"/><path d="m280.1896 299.9301c-2.2442-1.8152-4.7441-3.3943-6.682-5.4925-4.7411-5.1331-9.1947-10.5306-13.8271-15.7658-1.2426-1.4043-2.7118-2.6081-4.0768-3.9038.8212-2.3927 1.6599-4.7798 2.4417-7.1853.1018-.3131-.0891-.7213-.1445-1.0855-.4093.088-.8859.0725-1.2141.2856-.701.455-1.3252 1.0284-1.9808 1.5533-.0014-.8599-.0029-1.7198-.0043-2.5798 3.63-1.4388 5.8853-.5853 8.3825 3.0939 4.6133 6.7969 9.2507 13.5775 13.88 20.3636.6126.898 1.1578 1.8577 1.8709 2.6685 2.1307 2.4222 2.9138 5.026 1.3545 8.0478z" fill="#d1d0d6"/><path d="m237.6013 323.9164c-1.693-.1316-3.3984-.1743-5.0768-.4102-7.152-1.005-14.2664-2.4449-21.5407-2.0946-5.9516.2866-11.7053 1.5508-17.1495 4.0273-6.1597 2.8021-11.7486 6.4365-16.3436 11.4728-.7264.7962-1.3991 1.6414-2.5499 2.4157 0-1.1519 0-2.3039-.0001-3.4561 4.801-7.2242 11.2595-12.4554 19.3568-15.4751 11.8794-4.4301 23.8319-3.9772 35.6917.1807 2.6072.9141 5.0783 2.2161 7.6121 3.3395z" fill="#e5493c"/><path d="m294.3858 319.5821c3.2725 3.5971 3.1693 7.3445.5963 11.2538-.2868.4358-.4149.9761-.6165 1.468-4.9789-.0018-9.9578-.0036-14.9367-.0054 0 0 .024.0225.024.0225 4.0921-3.6216 8.1717-7.2574 12.2869-10.8524.8117-.7093 1.7604-1.2618 2.646-1.8865z" fill="#c72518"/><g fill="#c52418"><path d="m235.3891 345.7802c-1.9838-1.1239-1.9716-3.1375-2.1425-5.0116-.1245-1.3652-.0164-2.7516-.0119-4.1287 6.6722 1.3899 13.5929 1.8079 19.809 5.2668-.5743.053-1.1479.1152-1.7229.1574-3.2442.2383-6.4884.4757-9.7332.7056-2.4709.1751-4.4919 1.2667-6.1985 3.0105z"/><path d="m234.3 333.75c1.2911-2.6862 2.5874-5.37 3.8678-8.0613.203-.4267.3344-.8875.4988-1.3323 4.0147 3.5451 8.0294 7.09 12.044 10.635-.1195.217-.239.434-.3585.651-5.3507-.6308-10.7014-1.2616-16.0521-1.8924z"/><path d="m251.9042 476.1826c3.8121.3869 8.4021 5.0933 8.5316 8.5402.0619 1.6478-1.1439 2.9876-2.9897 3.3221-3.2105.5816-6.4631-2.0309-6.3565-5.3111.0699-2.1506.5196-4.2889.8146-6.5512z"/><path d="m417.8385 362.1296c2.299 1.4943 2.3846 3.0847.0814 4.3028-3.0746 1.626-6.2417 3.077-9.5638 4.6981-1.1295-3.2611-1.9925-6.1539.2949-8.9644 1.2122.2176 2.4301.6385 3.6355.6057 1.8551-.0505 3.7018-.4124 5.552-.6422z"/></g><path d="m254.7017 265.7562c.0014.86.0029 1.7199.0043 2.5798-1.6482 2.1863-3.2963 4.3727-5.0252 6.6661-1.9819-1.7122-3.7889-3.2732-5.5959-4.8342.147-1.068.2941-2.136.4411-3.204 3.3919-.4025 6.7838-.8051 10.1757-1.2077z" fill="#b0b1ba"/><path d="m258.1607 255.6103c-4.2034-.3196-8.1608-.62-12.1181-.9221-.4815-.0368-.9854-.0068-1.4378-.1435-.6046-.1827-1.169-.4981-1.7507-.7565.557-.3405 1.0729-.8379 1.6776-.9959 3.7989-.9926 7.6175-1.9099 11.4299-2.8509.2256-.0557.4537-.101.8739-.194.4312 1.9074.8493 3.7575 1.3252 5.8629z" fill="#dbdfe3"/><path d="m242.337 241.5191c3.7995.1784 7.5989.3598 11.3986.5337 1.4426.0661 2.3495.5745 1.9015 2.3913-4.4232 0-8.8631 0-13.3029 0 .0009-.975.0019-1.95.0028-2.925z" fill="#dbdfe3"/><path d="m245.231 257.4044c4.5531.3608 9.1062.7216 13.6592 1.0824.0148.235.0295.4701.0443.7051-4.5384.6925-9.1106 1.1459-13.7024 1.4606-.0003-1.0827-.0007-2.1654-.0011-3.2481z" fill="#dbdfe3"/><path d="m245.231 257.4044c.0004 1.0827.0008 2.1654.0011 3.248-2.1795.3867-4.359.7734-6.7389 1.1957-.1896-1.6581-.3568-3.1207-.5508-4.8179 2.5191.1294 4.9039.2518 7.2886.3742z" fill="#b5ceda"/><path d="m280.8164 319.5641c2.0625-.6173 4.1406-1.1878 6.1827-1.8663 1.7419-.5787 3.3028-.2705 4.8011.6769-4.9758.7601-9.1927 3.0193-12.6407 6.7973-.1858-.1522-.3716-.3044-.5574-.4565.7381-1.7171 1.4762-3.4342 2.2143-5.1514z" fill="#c52418"/><path d="m248.4985 248.3339c-3.6593 1.2646-7.3187 2.5293-11.1443 3.8514-.172-1.4203-.3213-2.6537-.5-4.1295h11.5544c.0299.0927.0599.1854.0899.2781z" fill="#b5ceda"/><path d="m241.2274 235.1796c4.0191-1.2957 8.0382-2.5914 12.2004-3.9332.2239.7086.397 1.2564.6507 2.0594-4.3374 1.1861-8.5729 2.3443-12.8084 3.5026-.0143-.543-.0285-1.0859-.0427-1.6288z" fill="#dbdfe3"/><path d="m244.6297 238.7398c3.2033-.9021 6.4067-1.8043 9.8096-2.7626.2636 1.4303.487 2.6422.7602 4.1239-3.6284-.2871-7.0638-.5589-10.4993-.8307-.0235-.1769-.047-.3537-.0705-.5306z" fill="#dbdfe3"/><path d="m242.337 241.5191c-.0009.975-.0019 1.95-.0028 2.925-1.8894.2247-3.7787.4494-5.8245.6927-.1904-1.2062-.3534-2.2386-.571-3.6177z" fill="#b5ceda"/><path d="m417.8385 362.1296c-1.8503.2298-3.6969.5917-5.552.6422-1.2054.0328-2.4232-.3881-3.6355-.6057 2.5135-3.3559 5.9703-3.3696 9.1875-.0365z" fill="#db3629"/><path d="m235.0643 234.8609c-.1751-.959-.3214-1.7603-.518-2.8367 3.3605-.2221 6.5404-.4323 9.7204-.6425.0314.1651.0628.3301.0942.4952-3.0395.9757-6.0791 1.9513-9.2966 2.984z" fill="#b5ceda"/><path d="m241.2274 235.1796c.0142.5429.0285 1.0859.0428 1.6288-1.7666.729-3.5332 1.458-5.2933 2.1843-1.0741-2.307-1.0247-2.4484 1.2084-2.9743 1.3389-.3152 2.6941-.5615 4.0421-.8388z" fill="#b5ceda"/><path d="m279.4288 332.2985c-.0169.0502-.0338.1004-.0507.1506.0249-.0427.0498-.0853.0747-.128 0-.0001-.024-.0226-.024-.0226z" fill="#c72518"/><path d="m132.3082 372.5845c-5.8028 3.775-11.3567 6.6855-18.0675 6.0659-2.8827-.2662-4.4291-1.637-4.7973-3.8809-.474-2.8891.764-5.5268 3.2203-6.7093 2.7813-1.339 5.6773-1.2957 8.476-.2146 3.6033 1.3919 7.1201 3.008 11.1685 4.7389z" fill="#f4f2f2"/><path d="m341.6456 260.5004c-3.8417-2.5692-5.7409-7.4186-4.5537-11.448.2965-1.0064.8891-2.0009 1.5789-2.7991 1.1648-1.3478 3.828-1.9573 4.9984-1.343 1.0674.5603 1.7013 2.7356 1.174 4.6487-.9956 3.6128-2.0966 7.1966-3.1976 10.9414z" fill="#f3f1f1"/><path d="m355.8165 276.0825c-.7571-3.7746 2.4122-10.3999 5.9513-11.737 1.5394-.5815 3.5807-.4206 5.2281.0215 1.9586.5257 2.3167 2.3413.8983 3.8522-1.2701 1.353-2.7039 2.6282-4.2713 3.6088-2.442 1.5275-5.0581 2.7766-7.8064 4.2545z" fill="#f2f0f0"/><path d="m139.0616 388.4604c-.0426 3.7566-3.4519 8.5207-7.0227 9.8134-2.634.9535-4.6324-.5279-4.4721-3.315.2379-4.1357 5.7084-9.1024 9.8638-8.9553 1.263.0447 1.6517.6304 1.631 2.4569z" fill="#f3f1f1"/><path d="m204.794 452.9877c2.8092-.0655 4.7305 2.5349 3.7051 4.6302-1.1076 2.2632-2.4386 4.4349-3.8526 6.5244-1.0524 1.555-3.6837 2.3222-4.819 1.676-1.0017-.5701-1.9064-3.9471-1.4082-5.2994.932-2.53 2.1797-4.8659 4.4032-6.5031.7031-.5176 1.5642-.8209 1.9715-1.0281z" fill="#f2f0f0"/><path d="m386.2564 402.9202c5.3694.4598 9.6412 1.5223 11.9235 6.2617 1.0589 2.1989.8731 4.058-.5238 5.3374-1.4291 1.309-3.7146 1.5956-5.5443.2759-1.2748-.9195-2.5527-2.1834-3.1738-3.5841-1.1092-2.5015-1.7233-5.2225-2.6816-8.2909z" fill="#f2f0f0"/><path d="m270.4177 422.1999c.0465.7775.1667 1.5597.1167 2.3309-.0414.6387-.2836 1.2645-.4368 1.896-.708-.3585-1.782-.5453-2.0476-1.1115-.5484-1.169-.666-2.5401-.9606-3.828.0097-3.6924 1.3578-6.8475 3.8497-9.5346 2.2269-2.4013 4.8857-2.9952 7.9365-1.8338 2.3766.9047 4.7057 1.9577 7.1276 2.7155 5.0907 1.593 6.5694.4502 6.8839-4.9338.1516-2.5952.3037-5.209.742-7.7652 1.0492-6.1193 5.1232-8.6551 11.2268-7.2055 5.1213 1.2163 10.2369 2.4639 15.3848 3.558 2.6474.5627 4.0132-.4659 3.9054-3.2697-.1597-4.1534-.8095-8.2857-1.1497-12.4352-.2009-2.4503-.4033-4.9299-.2376-7.3714.1281-1.888 1.3354-3.5307 3.1219-4.1796 2.932-1.065 5.94-2.1764 9.0049-2.563 5.3759-.6781 10.764-.0383 16.0693 1.0797.5638.1188 1.0887.4226 2.15.8488-5.0329.5579-9.5166 1.0007-13.9843 1.5691-2.9958.3811-6.017.7464-8.9395 1.4712-3.2693.8107-4.0065 2.3095-3.5452 5.6288.6651 4.7855 1.3082 9.5754 1.8391 14.3769.1227 1.11-.15 2.2968-.4071 3.4099-1.0863 4.7035-4.7939 6.6775-10.3487 5.476-5.2034-1.1254-10.3817-2.3668-15.5849-3.4933-2.1733-.4705-3.4099.2645-3.7908 2.4776-.5012 2.9125-.8009 5.8671-1.0386 8.8155-.2773 3.4395-.9834 6.6346-4.1349 8.645-2.4185 1.5429-5.0866 1.6672-7.6989.7285-2.3823-.8559-4.6876-1.9576-6.9547-3.0949-3.1941-1.6023-5.1454-.9385-6.3984 2.4237-.6329 1.6981-1.1377 3.4441-1.7003 5.1684z" fill="#351211"/><path d="m235.76 366.133c2.3089.4419 4.6179.8839 6.9267 1.3253 2.5244.9714 5.0488 1.9433 7.5733 2.9152.0434.1971.0869.3943.1303.5914-.788.3318-1.548.7861-2.3689.9744-3.6424.8354-7.2228-.0172-10.8098-.5248-4.0049-.5668-8.0057-1.1632-12.2568-1.783-.6593 3.6635-1.2737 7.1596-1.9206 10.6497-.6559 3.5388-2.0033 6.7959-4.2168 10.298-2.0307-7.732 1.1972-14.573 1.7378-22.0488-5.5663-.4594-10.9081-.9594-16.2599-1.2996-1.2947-.0823-2.6365.3014-3.9315.5854-1.0667.2339-2.0082.2378-2.3728-.9583-.3608-1.1836.0177-2.2261 1.2353-2.672.8365-.3063 1.7629-.4948 2.6524-.5077 6.4584-.0937 12.9453-1.0788 19.4879.7722.7012-3.4325 1.3382-6.6772 2.0326-9.9096.5691-2.649 1.0241-3.1682 3.4559-4.2572 1.7829 2.3689.6304 4.9012.34 7.3489-.2346 1.9772-.6834 3.9327-1.111 5.8817-.2108.9611.1592 1.3703 1.0433 1.4867 2.8773.3786 5.755.7549 8.6326 1.1321z" fill="#351211"/><path d="m320.6824 325.5114c-3.7173-.6687-7.2122-1.2611-10.6907-1.9379-1.8358-.3572-3.6559-.817-5.4532-1.3341-.4044-.1164-.6843-.6653-1.0216-1.0152.4424-.3006.8547-.7991 1.3317-.8713 5.0371-.763 10.0164-.1667 14.9728.7664 2.1985.4139 2.848.0089 3.6522-2.1372.9133-2.4372 1.8207-4.8817 2.8821-7.2553.3374-.7546 1.0473-1.5992 1.7822-1.8679 1.7013-.6222 3.0605 1.123 2.4876 3.2171-.6708 2.4517-1.5124 4.8565-2.2744 7.2833-.1975.6292-.3745 1.2647-.6495 2.1977 1.6899.4795 3.3116.8639 4.8805 1.4017 2.6779.9181 5.3676 1.8311 7.9512 2.9747.6794.3008.9878 1.44 1.4665 2.1941-.8578.266-1.7707.8706-2.5641.7413-4.1065-.6694-8.1967-1.4623-12.2594-2.362-1.0457-.2315-1.4369.061-1.7681.9-.8893 2.2526-1.7643 4.5117-2.7019 6.7442-.9957 2.3706-2.4665 4.3763-4.769 5.9714-1.6943-5.5975 1.1514-10.1951 2.7451-15.611z" fill="#351211"/><path d="m238.232 175.8234c.336 1.4221.6781 2.843.9838 4.2716.011.0515-.3358.1795-.5159.2718-.3542-1.5134-.7083-3.0267-1.0616-4.5397.1985-.001.3961-.0023.5937-.0037z" fill="#331513"/><path d="m238.232 175.8234c-.1976.0013-.3952.0027-.5937.0037-.022-.1906-.0431-.3808-.0642-.5714.2193.1891.4386.3784.6579.5677z" fill="#44251c"/><path d="m217.7309 39.1243c-1.1178-5.4232-2.2063-10.7048-3.2949-15.9865.1393-.1014.2787-.2029.4181-.3043.316.2196.8122.3729.9212.6687 1.8084 4.9105 2.5596 10.0075 2.5609 15.2254 0 .0613-.1791.1227-.6053.3967z" fill="#532c23"/><path d="m244.0849 270.168c1.807 1.561 3.614 3.122 5.5959 4.8342 1.7289-2.2935 3.3771-4.4798 5.0252-6.6661.6557-.5249 1.2798-1.0983 1.9808-1.5533.3282-.213.8047-.1975 1.2141-.2856.0553.3642.2462.7724.1445 1.0855-.7818 2.4055-1.6205 4.7925-2.4416 7.1853-2.0249 1.8238-2.2926 4.102-1.7614 6.6187 3.2421 15.361 6.4849 30.7219 9.689 46.0908.4055 1.9449.5861 3.9367.8708 5.9068-1.795 1.4297-2.4981 1.2276-3.1917-1.0183-.7064-2.2871-1.338-4.5974-2.0032-6.8978.0029-.1808.0413-.3685.0054-.5408-3.0338-14.5761-6.0638-29.1531-9.1409-43.7201-.1512-.7155-.5659-1.5309-1.1185-1.977-1.6441-1.3273-3.4183-2.4934-5.1417-3.7225-1.6861-1.6425-3.6037-3.1549-3.2572-6.3145 1.2045.3325 2.3675.6536 3.5305.9747z" fill="#351817"/><path d="m243.8116 275.5077c1.7234 1.2291 3.4976 2.3952 5.1417 3.7225.5526.4461.9673 1.2614 1.1185 1.977 3.0771 14.567 6.1071 29.144 9.1409 43.7201.0359.1723-.0025.36-.0054.5408-.7901-.3496-1.7799-.5065-2.3384-1.082-2.733-2.8164-5.3492-5.746-8.0104-8.6322-2.9898-3.2426-6.0207-6.4483-8.9589-9.7369-1.349-1.5098-1.4181-3.3813-1.07-5.3098 1.421-7.8716 2.8071-15.7494 4.2412-23.6185.1008-.5537.4872-1.0553.7408-1.581z" fill="#b2b3bc"/></g></svg>