<svg id="Layer_1" enable-background="new 0 0 512 512" height="512" viewBox="0 0 512 512" width="512" xmlns="http://www.w3.org/2000/svg"><g><path d="m256.2967 102.7636c1.2792-4.0156 2.3033-7.8822 3.727-11.5956 10.7924-28.1497 29.6687-48.2145 58.6575-57.8783 17.288-5.7632 34.1683-4.6171 50.4148 3.9086 9.1618 4.8078 15.9912 12.0975 21.741 20.5065 11.6739 17.0728 17.035 36.0656 17.1831 56.6509.1372 19.0731-3.457 37.5086-9.5927 55.4719-8.8701 25.9688-21.8161 49.9066-36.7529 72.8275-.3939.6044-.7483 1.2346-1.15 1.9005.1707.2216.2891.4651.4814.6116 3.5847 2.7311 4.6531 6.4158 3.9149 10.6892-.5469 3.166-1.284 6.299-1.9694 9.6061 6.4557 2.6956 6.0243 7.7829 4.2518 13.491 3.6758.1262 7.1318.1945 10.5818.3776 3.4114.181 4.3053 1.0413 3.9932 4.3929-1.1028 11.8426-.018 23.656.3559 35.4752.3489 11.0261.9363 22.0446 1.4181 33.0664.0198.4542.0327.9086.0388 1.0788-3.8875.1381-7.6617.3488-11.4376.3858-4.1439.0406-8.2914-.02-12.4329-.1635-1.2958-.0449-1.8293.3747-2.1705 1.5883-2.8437 10.1121-5.7964 20.1936-8.612 30.3133-3.4485 12.3939-6.9238 24.7827-10.1559 37.2338-4.1975 16.1703-7.0564 32.6053-9.1388 49.177-.1717 1.3666-.5101 2.7258-.5402 4.0935-.0453 2.06-1.091 2.687-2.9959 2.7477-14.914.475-29.8228 1.1727-44.7399 1.4717-15.7128.315-31.4351.4709-47.1491.3049-11.1067-.1174-22.207-.8746-33.3089-1.3732-2.9937-.1345-5.3229-1.4173-6.5558-4.2651-8.4523-19.5227-17.2446-38.9156-24.0989-59.0804-6.6557-19.5803-13.0157-39.2611-19.5096-58.8965-1.2133-3.6686-2.0992-4.2476-6.0021-4.3931-4.4691-.1667-8.9329-.4715-13.4012-.6653-1.7674-.0767-2.2701-1.2239-2.6199-2.6683-1.8049-7.4538-2.5618-15.0449-2.7499-22.6801-.3855-15.6496-.6147-31.3029-.9342-46.9543-.0362-1.7722.8844-2.2776 2.4572-2.2744 6.8411.0137 13.6823-.0037 20.5235-.0133.4472-.0006.8944-.0298 1.7267-.0594-.5047-.6837-.8106-1.1269-1.1455-1.5469-1.7202-2.1567-3.6732-4.167-5.1226-6.4917-2.4519-3.9328-.8991-7.4631 3.62-8.4784 2.0791-.4671 4.252-.5164 6.5256-.7712-1.9018-2.8648-3.8176-5.6598-5.6383-8.5153-2.4926-3.9093-4.4016-8.0555-5.1742-12.6922-.4346-2.6082-.0995-5.0298 1.4374-7.1305.8382-1.1457.624-1.881-.0899-2.8995-9.6689-13.7947-18.4184-28.1241-25.4348-43.4785-6.8373-14.9625-12.0041-30.455-14.3624-46.752-3.6336-25.1106.7575-48.6381 14.557-70.1981 5.7698-9.0146 12.3713-17.2996 21.5651-22.9679 19.8493-12.238 40.3084-14.0267 61.3974-2.9814 15.9365 8.3467 28.0377 20.6643 37.7474 35.5921 4.9793 7.6553 10.1191 15.2062 15.1905 22.8016.432.647.8954 1.2733 1.4789 2.1zm-97.0233 169.734c-.1505-.1273-.3009-.2546-.4513-.382-.6025-.7149-1.205-1.4297-1.8076-2.1446 2.3739.6315 4.7478 1.2629 7.1216 1.8944-.6363-1.4271-1.4584-2.5712-2.3904-3.6176-1.5739-1.7669-3.4454-2.7428-5.9178-2.0416-.6102.1731-1.2974.0746-1.9492.101-1.8175-.0562-3.6349-.1124-5.7166-.1767.287.7642.3118 1.058.4709 1.22 2.9824 3.0367 5.8841 6.1651 9.0402 9.0107.8426.7597 2.474.6446 3.7432.9312 1.7991.0965 3.5981.1931 5.3972.2896-1.5797-1.479-3.2018-2.5524-4.8477-3.5879-.8753-.5507-1.7919-1.0356-2.6898-1.5502 0 0-.0027.0537-.0027.0537zm-4.5191-37.469c-.8369-.3056-1.6514-.7291-2.5153-.8937-2.2127-.4215-3.1186.3935-3.2633 2.7779.1943 1.0681.3886 2.1362.5829 3.2043 2.6521 6.8379 5.9104 13.3944 10.929 18.7777 5.4085 5.8015 11.2546 11.1936 16.8519 16.8218 1.2088 1.2155 2.4896 1.8708 4.1931 1.6319 2.1871.1916 4.3741.3831 7.1369.6252-.7993-.9247-1.2024-1.3992-1.6141-1.8662-4.2994-4.8771-8.7203-9.6539-12.8534-14.668-2.3126-2.8056-4.1486-6.0041-6.1994-9.0257.7373.4521 1.5986.7806 2.1921 1.3761 4.2101 4.2246 8.3653 8.5038 12.5381 12.7656 2.8664 3.2401 5.6835 6.5261 8.6329 9.6887.7616.8166 1.9387 1.2457 2.925 1.8528.1555-.178.311-.356.4665-.5339-.3519-.5846-.6512-1.2096-1.0646-1.7468-1.9606-2.5478-3.9274-5.0917-5.9398-7.5986-2.1227-2.6444-4.2994-5.2453-6.4526-7.8652-4.9805-5.5804-9.9929-11.1328-14.9294-16.7519-2.8967-3.2972-6.1874-6.0378-10.1838-7.8925-.4775-.2265-.9551-.453-1.4327-.6795zm206.6807 41.4787c-.1624.7229-.3248 1.4457-.513 2.2837.9145-.084 1.676-.154 2.6489-.2434-.0705-1.9834-.0489-3.8186-.2416-5.631-.08-.753-.5914-2.0486-.9523-2.0645-.8286-.0367-1.6852.5611-2.5305.9012-2.4957 2.095-4.9915 4.1901-7.947 6.6711 2.5933.3234 4.4441.398 6.274-.6872.9842-.5835 2.1679-.8308 3.2615-1.2299zm-161.7153-48.2549c-1.5645-.8566-1.732.6455-2.3478 1.3906-2.1945 4.3253-2.7522 8.9776-2.8503 13.7488-.2362 11.4797 2.9762 22.3081 6.2064 33.1304.1897.6354.9431 1.1026 1.4341 1.6481.189-.1085.3779-.217.5669-.3256-.7169-5.1869-1.5125-10.3647-2.1199-15.5645-.3386-2.8986-.3645-5.8337-.5312-8.7523.1343.2176.331.4186.3937.6552 1.8312 6.9047 3.6707 13.8073 5.459 20.7231.8002 3.0946 1.5079 3.5809 4.7121 3.2732 1.434-.1377 1.9417-.6642 1.701-2.1355-1.2801-7.826-2.4984-15.662-3.7388-23.4949-.4469-2.4413-.8914-4.883-1.3411-7.3237-.9744-5.2882-2.2142-10.4956-5.28-15.0332-.5365-.794-1.4986-1.3005-2.2641-1.9397zm126.1964 7.5115c-.0294-1.7809-.0987-3.7787-1.9356-4.5131-2.0471-.8184-3.2958.8655-4.4362 2.3127-9.6355 10.7904-16.3349 36.6474-11.3322 45.576 1.2187-4.7189 2.3204-8.9847 3.4221-13.2505 1.969-5.2819 3.938-10.5637 5.907-15.8455.2065.0563.4131.1125.6196.1688-1.5051 9.6426-4.5947 18.9613-6.4814 28.6049 3.065.2688 5.0964-.6181 6.7978-3.1694 3.7686-5.6513 4.695-12.0216 5.4626-18.4936.4144-3.2328.9258-6.4568 1.2182-9.7006.3502-3.8877.5137-7.7923.7581-11.6897zm.4366 42.6247c1.0471.0052 2.0941.0104 3.1411.0157.7902-.2297 1.769-.2464 2.3258-.7397.8125-.7197 1.3181-1.7842 1.9606-2.6975 4.1493-5.8978 9.0424-11.0862 14.7966-15.4435.6629-.502 1.4295-.8669 2.1481-1.2953-3.7025 7.9721-10.7023 13.2032-15.6971 20.2789.9996.0668 1.6537.1705 2.3025.1439 3.4506-.1419 6.8997-.3166 10.3494-.4799.7823-.7494 1.7437-1.3825 2.3182-2.2669 3.9294-6.0486 6.683-12.6126 8.2051-19.6655.2375-1.1006.0523-2.2923.0625-3.4419-.4001-2.262-1.2998-3.08-3.4678-2.5805-1.9517.4496-3.8066 1.3195-5.7042 2.004-.7325.2761-1.5522.4226-2.1842.8481-8.2129 5.529-15.2202 12.2877-20.7552 20.5293-1.2925 1.5785-2.585 3.1569-4.2472 5.1868 1.8947-.1689 3.1702-.2825 4.4458-.396zm-68.5471-159.2156c-.4061-.5015-.8607-.9715-1.2111-1.5093-5.3101-8.1503-10.5318-16.3592-15.9237-24.4548-7.9293-11.9054-16.5068-23.3144-27.5583-32.5518-10.9088-9.1182-22.8179-16.2614-37.5273-17.1106-4.608-.266-9.1683.0687-13.5305 1.7837-.5825.0908-1.1765.1356-1.7457.2791-13.8923 3.5034-24.2825 11.9387-32.4461 23.3486-7.133 9.9694-11.6331 21.1347-14.4781 33.0236-3.7204 15.5476-3.0724 31.0248.5689 46.4631 2.2066 9.3552 5.2734 18.4305 8.9235 27.3266 7.3297 17.8639 16.8147 34.5081 28.1124 50.1357.6141.8494 1.6354 1.749 2.6033 1.942 6.1305 1.2222 11.0945 4.4756 15.3357 8.8202 5.6475 5.7851 11.0918 11.7696 16.5824 17.7063 1.4844 1.605 2.8209 3.3468 4.4622 5.3091.051-.6921.0996-.9402.0829-1.1839-.3601-5.252-.7193-10.5042-1.1051-15.7543-.0428-.5826-.2457-1.1535-.3744-1.7298.0331-5.4946 1.4119-10.6417 4.136-15.3996 3.4292-5.9894 8.8062-6.3062 13.1114-.949 3.1028 3.861 5.0891 8.216 6.6111 12.8895 4.0014 12.2868 5.7276 24.7969 4.1106 37.6812-.3141 2.5026-.0222 2.9479 2.4589 2.9772 9.1333.1078 18.2669.2014 27.4006.2594 5.2595.0334 10.5195-.0211 15.7793-.0197 10.0542.0026 20.1085.0169 30.1627.0264 3.1063.0708 6.2127.1416 9.5117.2169-.0689-1.9404-.0919-3.4971-.1852-5.0497-.3507-5.8375-.3237-11.6261 1.2808-17.3378 1.1835-4.2132 2.1098-8.4987 3.1506-12.7519.2747-.5189.5692-1.0283.8211-1.5581 2.6378-5.5478 5.4949-10.9367 10.4917-14.8158 2.2046-1.7115 4.5844-2.8447 7.4656-2.2248 4.1595.8949 7.0869 4.6862 7.3691 9.5829.1854 3.2162.2845 6.4374.4222 9.6563-.6873 4.7198-1.3746 9.4397-2.062 14.1595.8387-.0604 1.1113-.2308 1.3366-.45 4.8253-4.694 9.8902-9.0692 15.9192-12.1993.5442-.2825.9305-.8692 1.3901-1.3147 1.3704-2.0246 2.7409-4.0492 4.1113-6.0738 8.002-12.1502 15.2777-24.717 21.8181-37.7163 7.9402-15.7815 14.7121-32.0108 18.882-49.2241 3.6102-14.9022 5.5262-29.9736 4.2134-45.3568-1.5294-17.9219-7.5867-34.0766-18.8553-48.1209-10.1696-12.6746-23.4582-19.0314-39.8044-18.7403-2.3653.2002-4.7307.4004-7.0961.6007-5.4299 1.1907-10.994 1.9646-16.2613 3.6605-10.315 3.3211-19.0151 9.4659-26.7574 16.9405-9.2245 8.9056-16.8541 18.9304-21.3339 31.1205-3.3991 9.2502-6.9088 18.4599-10.3695 27.6876zm-21.4857 352.7835c.7068.0944 1.415.2806 2.12.269 7.6917-.1264 15.3855-.2022 23.0737-.4489 19.3918-.6222 38.7809-1.3253 58.1711-1.9959 1.3375.6051 1.4107-.3809 1.5501-1.2477.7702-4.7875 1.5285-9.577 2.2982-14.3646.5464-3.3982 1.1042-6.7944 1.6937-10.4173-1.6954.1479-3.0567.2666-4.418.3853-.5893-.0399-1.1794-.1238-1.7678-.113-7.5642.1386-15.128.2976-22.692.4381-13.4156.2491-26.8314.4834-40.2469.7351-9.9288.1862-19.8572.3902-29.7858.5862-11.4612-.1976-22.9223-.3952-34.5053-.5948.0952.7927.0684 1.2026.1979 1.555 2.7832 7.5753 5.5824 15.1447 8.3825 22.7139.5207 1.4074 1.5811 2.0086 3.044 2.056 2.1003.0679 4.1987.2376 6.2989.2574 8.8617.0835 17.7238.1276 26.5857.1862zm-51.6434-185.1845c-.9784-.1095-1.9549-.2916-2.9355-.3177-15.3787-.4099-30.7584-.7838-46.1364-1.2184-1.5288-.0432-2.1026.3519-1.9986 1.9755.3788 5.9103.654 11.8274.941 17.7433.5932 12.2278 1.1655 24.4565 1.7543 36.6845.1205 2.5028.4682 2.7932 2.9767 2.7723 3.5519-.0297 7.104-.0323 10.6561-.0438 12.1719-.0396 24.3438-.0827 36.5157-.1158 16.12-.0437 32.2399-.1053 48.3599-.1084 9.598-.0019 19.196.0987 28.7941.1444 14.1368.0673 28.2737.1519 42.4106.1792 7.4297.0143 14.8596-.0774 22.2895-.1212 2.096.0719 4.1919.2006 6.2881.2062 12.3918.0333 24.7836.0379 37.1754.0522.6024.0336 1.2049.0671 1.8835.1049-.4364-19.4976-.8666-38.7122-1.2985-58.006-1.1558.0411-2.0088.0773-2.8621.1008-10.5833.291-21.1656.7621-31.7504.8302-19.6577.1264-39.3174.0888-58.9755-.0135-20.1862-.105-40.3715-.3879-60.5576-.5541-7.6247-.0628-15.2503-.017-22.8755-.0207-3.5518-.0912-7.1033-.1826-10.6548-.2739zm38.9772 150.6389c3.2829.006 6.5673.0789 9.8484.007 17.4945-.3836 34.9888-.778 52.4819-1.2197 11.8963-.3004 23.7905-.6849 35.6857-1.0318.5239.0258 1.0475.0601 1.5717.0762 3.5648.1098 3.8154-.0374 4.5117-3.4117 4.5568-22.0814 10.78-43.6973 18.1-65.0088 1.5069-4.3872 2.9991-8.7794 4.6292-13.5532-3.5292.1254-6.7323.2392-9.9355.353-11.498-.1447-22.9957-.3228-34.494-.4246-11.3735-.1008-22.7475-.1385-34.1214-.1769-7.0314-.0237-14.0629.0027-21.0944.0066-.7011-.0927-1.401-.2546-2.1034-.2666-4.5363-.0774-9.073-.159-13.6098-.1709-14.6713-.0383-29.3427-.0508-44.0141-.0657-7.0994-.0072-14.1994-.0473-21.2981.0235-4.1083.041-8.2147.2728-12.3605.4201.1313.4633.2549 1.0357.4534 1.5808 9.7584 26.8043 19.536 53.6017 29.2621 80.4176.7469 2.0593 2.0521 2.9043 4.1418 2.8656 2.6324-.0488 5.2659-.0336 7.8987-.0695 8.1491-.111 16.2978-.2332 24.4466-.351z" fill="#3f111b"/><path d="m332.528 39.7639c2.3654-.2002 4.7307-.4004 7.0963-.6007.5019.4586.9408 1.0267 1.5163 1.3564 2.163 1.239 4.455 2.2691 6.545 3.616 5.5989 3.6085 10.3477 8.1805 14.9355 13.0045 7.9207 8.3285 13.8313 17.7988 17.445 28.6948 2.4404 7.3581 4.1146 14.8966 4.6974 22.6326.334 4.4337.56 8.8952.4684 13.3367-.1321 6.4091-.0928 12.8875-1.0457 19.1976-1.2195 8.0751-2.8799 16.1533-5.2151 23.972-2.7549 9.2238-6.4384 18.1701-9.712 27.2393-4.9475 13.7064-9.9099 27.4074-14.8036 41.133-.5654 1.5859-.7333 3.3136-1.0854 4.9756-1.3704 2.0246-2.7409 4.0492-4.1113 6.0739-3.544-.3974-7.0809-.9807-10.6352-1.119-1.9679-.0766-3.9648.5912-5.9487.9234-.1377-3.2189-.2368-6.4401-.4222-9.6563-.2822-4.8967-3.2096-8.688-7.3691-9.5829-2.8812-.6198-5.261.5134-7.4656 2.2248-4.9968 3.879-7.8539 9.268-10.4917 14.8158-.2519.5297-.5464 1.0392-.821 1.5581-.5288.2489-1.1617.3855-1.5706.7642-3.7659 3.4876-6.6639 7.6099-8.5747 12.3696-2.8046 6.986-2.7667 14.4655-3.6127 21.7888-10.0543-.0095-20.1085-.0238-30.1627-.0264-5.2598-.0014-10.5198.0531-15.7793.0197-9.1337-.058-18.2673-.1515-27.4006-.2594-2.4812-.0293-2.773-.4746-2.4589-2.9772 1.617-12.8843-.1092-25.3943-4.1106-37.6812-1.522-4.6736-3.5083-9.0285-6.6111-12.8895-4.3052-5.3572-9.6822-5.0404-13.1114.949-2.7241 4.7579-4.1029 9.905-4.1361 15.3996-.4897-.3752-1.122-.655-1.4468-1.1405-3.1019-4.6365-6.385-9.1732-9.1671-13.9975-5.5118-9.5574-10.7771-19.2582-16.0725-28.9389-5.1475-9.4103-9.0594-19.3434-12.2403-29.5735-2.8251-9.0857-4.7588-18.3751-5.7578-27.8192-.6698-6.3323-.9891-12.7212-1.0674-19.0897-.0528-4.2941.2527-8.6546.9823-12.8846 1.9946-11.563 4.4856-23.0215 8.7498-34.0154 2.4515-6.3203 5.4585-12.3446 9.1619-18.0291 1.9648-3.0159 3.805-6.113 5.7014-9.1732 6.9291-.0079 12.9604 3.0343 18.9883 5.8479 9.1068 4.2507 17.8792 9.202 25.644 15.6043 5.754 4.7443 11.4162 9.7488 16.3147 15.3421 5.4646 6.2396 10.1362 13.1935 14.9364 19.9893 4.5653 6.4633 9.8342 12.4923 12.8687 19.9514.1087.2672.3703.4721.6995.8767.4114-.8337.7241-1.4673 1.0367-2.1008.7749.1047 1.5504.3045 2.3246.299 5.8581-.0422 9.6821-2.8877 11.573-8.8244 3.3782-10.6062 7.8256-20.7328 13.718-30.1694 5.4283-8.6933 11.7026-16.7541 18.8422-24.1434 7.0621-7.3092 14.9633-13.3112 24.5837-16.8905 1.3061-.4865 2.3908-1.5678 3.5781-2.3734z" fill="#da3462"/><path d="m250.8372 353.027c7.0314-.0039 14.063-.0303 21.0944-.0066 11.3739.0385 22.7479.0761 34.1214.1769 11.4983.1018 22.996.2799 34.4938.425-.3528 1.5314-.6822 3.0682-1.062 4.5924-2.5847 10.3715-5.1625 20.7447-7.7776 31.1086-2.0369 8.0725-4.3313 16.0865-6.1271 24.2115-1.5802 7.1494-2.6277 14.4165-3.9104 21.6317-11.8951.3469-23.7894.7313-35.6857 1.0318-17.4931.4417-34.9874.8361-52.4819 1.2197-3.2812.0719-6.5655-.0009-9.8485-.0069-.5747-.9399-1.3024-1.8199-1.6985-2.8299-2.1551-5.495-4.3292-10.9862-6.3078-16.546-3.5182-9.8858-6.9471-19.8041-10.3264-29.7383-2.957-8.6927-5.8054-17.4224-8.664-26.1482-.2238-.6832-.151-1.4637-.2265-2.3177 3.9205-.4299 7.5626-.8239 11.2033-1.2299 3.5139-.3919 7.0288-.7762 10.5389-1.1996 5.846-.7052 11.6944-1.3953 17.5308-2.174 5.0526-.6743 10.0898-1.4627 15.1338-2.2005z" fill="#f29943"/><path d="m371.7672 344.6044c-12.3918-.0143-24.7836-.0189-37.1754-.0522-2.0962-.0056-4.1921-.1344-6.2882-.2062-1.5115-.3143-3.0099-.7816-4.5371-.9115-3.2589-.2772-6.535-.3444-9.7997-.5619-4.5646-.304-9.1231-.7017-13.6885-.993-3.4616-.2209-6.9317-.3073-10.3948-.5087-5.0906-.2961-10.1788-.6346-15.2672-.968-4.2416-.2779-8.4832-.5587-12.7227-.8664-5.5412-.4022-11.0791-.8485-16.6207-1.2449-4.1754-.2987-8.365-.439-12.5294-.8439-8.1284-.7903-16.2382-1.7707-24.3658-2.5691-6.5034-.6388-13.0244-1.0957-19.5322-1.6918-2.838-.2599-2.9732-.4451-3.0464-3.2002-.3826-14.4046-.7499-28.8097-1.1225-43.2146 3.5515.0913 7.1031.1826 10.6547.274 3.0202.4217 6.0325.9125 9.0621 1.2489 4.5488.5051 9.1084.9133 13.6655 1.3416 4.6219.4344 9.2416.9066 13.8709 1.2448 4.5694.3339 9.15.5119 13.7247.7745 5.3559.3075 10.7083.684 16.0668.9339 4.3196.2015 8.6487.198 12.9686.3946 7.3215.3332 14.6363.82 21.959 1.1154 6.4816.2614 12.9709.3275 19.4555.5209 7.7263.2304 15.4498.5712 23.1773.7393 6.494.1413 12.9928.0553 19.4877.1668 2.9232.0502 5.8422.3364 8.9465.5268.1838 5.1727.4879 10.1585.5123 15.1456.0551 11.2608 1.3574 22.3765 3.539 33.4053z" fill="#f29943"/><path d="m167.4202 46.3546c-1.8965 3.0604-3.7366 6.1575-5.7015 9.1734-3.7034 5.6845-6.7104 11.7088-9.1619 18.0291-4.2642 10.9939-6.7552 22.4524-8.7498 34.0154-.7297 4.23-1.0352 8.5904-.9823 12.8846.0784 6.3685.3976 12.7574 1.0674 19.0897.999 9.4441 2.9328 18.7335 5.7578 27.8192 3.1809 10.2301 7.0928 20.1632 12.2403 29.5735 5.2954 9.6808 10.5607 19.3815 16.0725 28.9389 2.7822 4.8243 6.0653 9.361 9.1671 13.9975.3248.4855.9571.7653 1.4468 1.1405.1287.5763.3316 1.1472.3744 1.7298.3858 5.2502.745 10.5023 1.1051 15.7543.0167.2437-.0318.4918-.0829 1.1839-1.6414-1.9623-2.9778-3.7041-4.4622-5.3091-5.4906-5.9367-10.9349-11.9212-16.5824-17.7063-4.2413-4.3447-9.2053-7.598-15.3357-8.8202-.9679-.193-1.9892-1.0925-2.6033-1.942-11.2976-15.6275-20.7827-32.2718-28.1124-50.1357-3.6501-8.8962-6.7169-17.9714-8.9235-27.3266-3.6414-15.4383-4.2894-30.9155-.5689-46.4631 2.8449-11.8889 7.3451-23.0541 14.4781-33.0236 8.1636-11.4099 18.5537-19.8452 32.4461-23.3486.5692-.1435 1.1632-.1883 1.7462-.279 1.7887.3415 3.5768.6829 5.365 1.0244z" fill="#c72653"/><path d="m184.6765 286.772c.3726 14.4049.7399 28.81 1.1225 43.2146.0732 2.7551.2083 2.9403 3.0464 3.2002 6.5078.5961 13.0289 1.053 19.5322 1.6918 8.1276.7984 16.2375 1.7788 24.3658 2.5691 4.1644.4049 8.354.5452 12.5294.8439 5.5416.3964 11.0795.8427 16.6207 1.2449 4.2395.3077 8.4811.5885 12.7227.8664 5.0884.3334 10.1766.6718 15.2672.968 3.4631.2014 6.9332.2878 10.3948.5087 4.5654.2912 9.1239.6889 13.6885.993 3.2648.2175 6.5409.2847 9.7997.5619 1.5272.1299 3.0256.5972 4.5371.9115-7.4297.0438-14.8596.1355-22.2894.1212-14.1369-.0273-28.2737-.1119-42.4106-.1792-9.5981-.0457-19.1961-.1463-28.7941-.1444-16.12.0031-32.24.0647-48.3599.1084-12.1719.0331-24.3438.0762-36.5157.1158-3.552.0115-7.1042.0141-10.6561.0438-2.5085.021-2.8562-.2694-2.9767-2.7723-.5887-12.228-1.1611-24.4568-1.7543-36.6845-.287-5.9159-.5622-11.833-.941-17.7433-.104-1.6236.4698-2.0187 1.9986-1.9755 15.378.4346 30.7577.8085 46.1364 1.2184.9809.0261 1.9574.2081 2.9358.3176z" fill="#e77725"/><path d="m250.8372 353.027c-5.044.7379-10.0812 1.5262-15.1337 2.2003-5.8364.7787-11.6848 1.4688-17.5308 2.174-3.5101.4234-7.025.8077-10.5389 1.1996-3.6407.4061-7.2828.8001-11.2033 1.2299.0755.854.0026 1.6345.2265 2.3177 2.8586 8.7258 5.707 17.4555 8.664 26.1482 3.3793 9.9342 6.8082 19.8525 10.3264 29.7383 1.9786 5.5598 4.1527 11.051 6.3078 16.546.3961 1.0099 1.1238 1.89 1.6985 2.8299-8.1487.1177-16.2975.2399-24.4463.3509-2.6327.0359-5.2663.0208-7.8987.0695-2.0897.0387-3.3949-.8063-4.1418-2.8656-9.7261-26.816-19.5037-53.6133-29.2621-80.4176-.1985-.5451-.3221-1.1175-.4534-1.5808 4.1457-.1473 8.2521-.3791 12.3605-.4201 7.0988-.0708 14.1987-.0308 21.2981-.0235 14.6714.0149 29.3428.0274 44.0141.0657 4.5368.0119 9.0735.0935 13.6098.1709.7023.0121 1.4022.174 2.1033.2667z" fill="#e87824"/><path d="m319.6848 469.7805c-19.3902.6707-38.7793 1.3738-58.1711 1.996-7.6882.2467-15.382.3225-23.0737.4489-.705.0116-1.4133-.1746-2.1201-.2691-3.3346-8.7246-6.6691-17.4491-10.0037-26.1736 9.9286-.196 19.8571-.4 29.7858-.5862 13.4155-.2517 26.8313-.4859 40.2469-.7351 7.5641-.1405 15.1279-.2994 22.692-.4381.5884-.0108 1.1785.0732 1.7676.113.0004.657.028 1.3151-.0026 1.9706-.3686 7.8915-.746 15.7825-1.1211 23.6736z" fill="#f09943"/><path d="m353.3702 238.3216c.3521-1.662.52-3.3897 1.0854-4.9756 4.8936-13.7256 9.8561-27.4267 14.8036-41.133 3.2736-9.0692 6.9571-18.0155 9.712-27.2393 2.3352-7.8186 3.9957-15.8969 5.2151-23.972.9529-6.31.9136-12.7884 1.0457-19.1976.0916-4.4415-.1344-8.903-.4684-13.3367-.5828-7.736-2.2571-15.2745-4.6974-22.6326-3.6137-10.896-9.5243-20.3663-17.445-28.6948-4.5878-4.824-9.3366-9.396-14.9355-13.0045-2.0899-1.347-4.382-2.377-6.545-3.616-.5755-.3297-1.0144-.8978-1.5163-1.3564 16.3459-.291 29.6345 6.0657 39.8041 18.7404 11.2686 14.0443 17.3259 30.1991 18.8553 48.1209 1.3128 15.3831-.6033 30.4546-4.2134 45.3568-4.17 17.2133-10.9419 33.4426-18.882 49.2241-6.5405 12.9993-13.8162 25.5661-21.8182 37.7163z" fill="#ed4e94"/><path d="m371.7672 344.6044c-2.1816-11.0288-3.4838-22.1444-3.539-33.4051-.0244-4.9871-.3285-9.9729-.5123-15.1456-3.1043-.1904-6.0233-.4766-8.9465-.5268-6.495-.1115-12.9937-.0256-19.4877-.1668-7.7274-.1681-15.451-.5089-23.1773-.7393-6.4846-.1934-12.9739-.2594-19.4555-.5209-7.3227-.2954-14.6375-.7822-21.959-1.1154-4.3199-.1966-8.649-.1931-12.9686-.3946-5.3585-.2499-10.7109-.6264-16.0668-.9339-4.5748-.2627-9.1554-.4407-13.7247-.7745-4.6293-.3383-9.249-.8105-13.8709-1.2448-4.557-.4283-9.1167-.8365-13.6655-1.3416-3.0295-.3364-6.0419-.8272-9.0621-1.2489 7.6251.0037 15.2507-.0421 22.8754.0207 20.186.1662 40.3713.4491 60.5576.5541 19.6581.1023 39.3178.1399 58.9755.0135 10.5848-.0681 21.167-.5392 31.7504-.8302.8533-.0234 1.7062-.0597 2.8621-.1008.4319 19.2938.862 38.5085 1.2985 58.006-.6788-.038-1.2812-.0716-1.8836-.1051z" fill="#f4c76b"/><path d="m332.528 39.7639c-1.1873.8056-2.2719 1.8869-3.5781 2.3729-9.6204 3.5793-17.5216 9.5813-24.5837 16.8905-7.1396 7.3893-13.4139 15.4502-18.8422 24.1434-5.8925 9.4366-10.3398 19.5632-13.718 30.1694-1.8909 5.9367-5.7149 8.7823-11.573 8.8244-.7741.0056-1.5497-.1943-2.3246-.2989-.0343-.8975-.0685-1.795-.1028-2.6926 3.4607-9.2277 6.9704-18.4374 10.3698-27.6876 4.4798-12.1901 12.1095-22.2149 21.3339-31.1205 7.7422-7.4746 16.4424-13.6194 26.7574-16.9405 5.2673-1.6959 10.8314-2.4699 16.2613-3.6605z" fill="#c62752"/><path d="m226.3162 445.7827c3.3345 8.7245 6.6691 17.4489 10.0037 26.1736-8.8619-.0584-17.724-.1025-26.5856-.1862-2.1002-.0198-4.1986-.1895-6.2989-.2574-1.463-.0474-2.5233-.6486-3.044-2.056-2.8002-7.5691-5.5993-15.1385-8.3825-22.7139-.1295-.3524-.1027-.7623-.1979-1.555 11.5829.1997 23.044.3973 34.5052.5949z" fill="#e77725"/><path d="m257.8056 119.173c.0343.8975.0685 1.7951.1028 2.6926-.3126.6335-.6253 1.2671-1.0367 2.1008-.3292-.4045-.5908-.6095-.6995-.8767-3.0344-7.4591-8.3034-13.4881-12.8687-19.9514-4.8002-6.7959-9.4718-13.7498-14.9364-19.9893-4.8985-5.5932-10.5607-10.5978-16.3147-15.3421-7.7648-6.4023-16.5372-11.3536-25.644-15.6043-6.0279-2.8136-12.0592-5.8558-18.9883-5.8479-1.7881-.3416-3.5762-.683-5.3649-1.0245 4.3616-1.7151 8.922-2.0498 13.53-1.7838 14.7094.8492 26.6185 7.9923 37.5273 17.1106 11.0515 9.2375 19.629 20.6465 27.5583 32.5518 5.3919 8.0956 10.6136 16.3045 15.9237 24.4548.3504.5379.805 1.0079 1.2111 1.5094z" fill="#ea4e90"/><path d="m321.6697 435.1664c1.2827-7.2152 2.3302-14.4823 3.9104-21.6317 1.7958-8.1249 4.0902-16.139 6.1271-24.2115 2.6151-10.3639 5.1929-20.7371 7.7776-31.1086.3799-1.5242.7092-3.061 1.062-4.5924 3.2033-.1143 6.4064-.2281 9.9356-.3534-1.6301 4.7738-3.1223 9.166-4.6292 13.5532-7.32 21.3115-13.5432 42.9274-18.1 65.0088-.6963 3.3743-.9469 3.5216-4.5117 3.4117-.5242-.016-1.0479-.0502-1.5718-.0761z" fill="#f6c86c"/><path d="m323.9396 257.1543c-.7677 6.472-1.6941 12.8424-5.4627 18.4937-1.7013 2.5513-3.7327 3.4381-6.7978 3.1694 1.8867-9.6436 4.9764-18.9623 6.4814-28.6049-.2065-.0563-.4131-.1125-.6196-.1688-1.969 5.2818-3.938 10.5636-5.9069 15.8455-.1343-.4201-.4191-.8549-.3798-1.2581.3913-4.0151.4644-8.1094 1.3522-12.0166 1.3551-5.964 5.0684-10.8512 8.3358-15.9011.1206.1514.2874.2846.3551.4568 2.1665 5.5067 2.1881 11.2561 1.9961 17.0462-.0321.971.4186 1.9581.6462 2.9379z" fill="#c1c818"/><path d="m349.0935 252.2202c1.8976-.6845 3.7525-1.5544 5.7042-2.004 2.168-.4995 3.0677.3185 3.4678 2.5804-2.1648-.8329-3.2698-.511-4.6794 1.4942 2.0354 1.5019 1.8047 3.4828.9855 5.575-2.0482 5.2307-4.0867 10.4652-6.1055 15.7074-.3243.842-.5273 1.7307-.7863 2.5979-3.4497.1633-6.8989.338-10.3494.4799-.6487.0267-1.3029-.0771-2.3025-.1439 4.9948-7.0757 11.9945-12.3068 15.6971-20.2789-.7185.4285-1.4852.7934-2.1481 1.2953-5.7541 4.3574-10.6472 9.5457-14.7966 15.4435-.6425.9133-1.1481 1.9778-1.9606 2.6975-.5568.4932-1.5356.5099-2.3258.7395.0724-.5794.0186-1.212.237-1.7297 1.958-4.6411 4.7909-8.801 8.4489-12.1459 3.591-3.2837 7.7986-5.8918 11.7226-8.8139.7386-.5501 1.416-1.1823 2.2224-1.8615-1.2296-.6621-2.1304-1.1474-3.0313-1.6328z" fill="#c1c818"/><path d="m208.6055 252.5494c1.2397 7.8325 2.458 15.6685 3.7381 23.4945.2406 1.4713-.267 1.9978-1.701 2.1355-3.2042.3076-3.9119-.1786-4.7121-3.2732-1.7883-6.9159-3.6278-13.8185-5.459-20.7231-.0627-.2366-.2594-.4376-.3937-.6548-.0824-6.4206-.1647-12.8416-.247-19.2626.7635.5755 1.7778.9954 2.2483 1.7529 2.3223 3.7386 4.1176 7.7076 4.9766 12.0797.2999 1.5262 1.021 2.9697 1.5498 4.4511z" fill="#c4cc17"/><path d="m292.3474 278.4818c.8461-7.3232.8081-14.8028 3.6127-21.7888 1.9108-4.7596 4.8088-8.882 8.5747-12.3696.4088-.3786 1.0417-.5153 1.5706-.7642-1.041 4.2532-1.9673 8.5387-3.1508 12.7519-1.6045 5.7117-1.6315 11.5003-1.2808 17.3378.0933 1.5525.1162 3.1093.1852 5.0497-3.2989-.0752-6.4052-.146-9.5116-.2168z" fill="#c52752"/><path d="m181.5327 277.3486c-1.7035.2389-2.9843-.4164-4.1931-1.6319-5.5974-5.6282-11.4435-11.0203-16.8519-16.8218-5.0186-5.3833-8.2769-11.9397-10.9281-18.7778 2.0511.0287 4.1013.0574 6.1514.0862.4102.2438.8204.4877 1.2305.7316 2.4225 4.3774 4.4986 8.9958 7.3412 13.0807 5.5225 7.9359 11.4754 15.5724 17.25 23.333z" fill="#aab607"/><path d="m199.8307 234.2656c.0823 6.421.1647 12.842.247 19.2626.1668 2.9183.1926 5.8534.5312 8.752.6075 5.1997 1.403 10.3775 2.1199 15.5645-.189.1086-.3779.2171-.5669.3256-.4911-.5455-1.2445-1.0127-1.4341-1.6481-3.2303-10.8223-6.4426-21.6507-6.2064-33.1304.0982-4.7713.6559-9.4235 2.8503-13.7488.622.6473 1.2441 1.2947 1.8661 1.9421.1977.8935.3953 1.787.5929 2.6805z" fill="#a7b10b"/><path d="m181.5327 277.3486c-5.7746-7.7606-11.7275-15.397-17.25-23.333-2.8427-4.085-4.9187-8.7034-7.3414-13.0806 1.4056.8962 3.1106 1.5334 4.156 2.7413 2.2778 2.632 4.2198 5.5547 6.299 8.3585.212.1328.424.2656.6359.3984 0 0-.0295-.0192-.0294-.0192 2.0507 3.0214 3.8867 6.2199 6.1993 9.0255 4.1331 5.0141 8.554 9.7909 12.8534 14.668.4117.467.8149.9415 1.6141 1.8662-2.7628-.242-4.9499-.4335-7.1369-.6251z" fill="#c1c818"/><path d="m320.9424 236.7133c-3.2675 5.0499-6.9807 9.937-8.3358 15.9011-.8878 3.9073-.9609 8.0016-1.3522 12.0166-.0393.4032.2454.8381.3798 1.2581-1.1017 4.2657-2.2034 8.5316-3.4221 13.2505-5.0026-8.9287 1.6967-34.7856 11.3323-45.576.5557.3864 1.1114.7729 1.6671 1.1593-.0897.6635-.1794 1.3269-.2691 1.9904z" fill="#a6b10b"/><path d="m167.3962 252.0348c-2.0792-2.8039-4.0211-5.7266-6.299-8.3585-1.0454-1.2079-2.7504-1.8451-4.156-2.7413-.41-.244-.8201-.4879-1.2303-.7317-.2322-.6648-.3389-1.4146-.7204-1.9782-1.0857-1.6039-.212-2.1606 1.1965-2.5171 3.9964 1.8547 7.2871 4.5953 10.1838 7.8925 4.9364 5.6191 9.9489 11.1715 14.9294 16.7518.3568.9742.8142 1.9254 1.043 2.9289.2429 1.0656.2689 2.1808.3896 3.2743-4.1727-4.2618-8.328-8.541-12.5381-12.7656-.5934-.5955-1.4547-.924-2.192-1.376 0 .0001.0295.0193.0295.0193-.212-.1328-.424-.2656-.636-.3984z" fill="#dcde29"/><path d="m349.0935 252.2202c.9009.4854 1.8017.9707 3.0311 1.6331-.8063.6791-1.4837 1.3114-2.2224 1.8615-3.924 2.9221-8.1316 5.5302-11.7226 8.8139-3.658 3.3448-6.4908 7.5048-8.4489 12.1459-.2184.5177-.1646 1.1503-.237 1.7297-1.047-.0051-2.0941-.0103-3.1411-.0155-.0662-1.597-.1324-3.1941-.1986-4.7911 5.535-8.2415 12.5423-15.0003 20.7552-20.5293.632-.4255 1.4518-.572 2.1843-.8482z" fill="#aab607"/><path d="m332.675 244.1999c1.9839-.3322 3.9808-1 5.9487-.9234 3.5542.1383 7.0911.7216 10.6352 1.119-.4597.4454-.8459 1.0322-1.3901 1.3147-6.0289 3.1301-11.0938 7.5052-15.9192 12.1993-.2253.2191-.4979.3896-1.3366.45.6874-4.72 1.3747-9.4398 2.062-14.1596z" fill="#c42752"/><path d="m319.6848 469.7805c.3752-7.8911.7525-15.7822 1.1213-23.6736.0306-.6555.003-1.3136.0026-1.9706 1.3615-.1188 2.7228-.2375 4.4182-.3853-.5895 3.6229-1.1473 7.0191-1.6937 10.4173-.7697 4.7876-1.528 9.5771-2.2982 14.3646-.1396.8668-.2127 1.8527-1.5502 1.2476z" fill="#f1c46a"/><path d="m347.6797 278.1711c.2591-.8671.4621-1.7559.7863-2.5979 2.0188-5.2421 4.0573-10.4767 6.1055-15.7074.8193-2.0922 1.0499-4.0731-.9855-5.575 1.4097-2.0051 2.5147-2.327 4.6794-1.4942-.0102 1.1497.175 2.3415-.0625 3.442-1.5222 7.0529-4.2758 13.6169-8.2051 19.6655-.5745.8845-1.5358 1.5177-2.3181 2.267z" fill="#dcde29"/><path d="m320.9424 236.7133c.0897-.6635.1794-1.3269.2694-1.9904 2.2019-1.7995 2.1969-1.7957 4.0637.6634.1387.1827.4236.2543.6406.3776-.2444 3.8974-.408 7.802-.7584 11.6898-.2924 3.2438-.8038 6.4678-1.2182 9.7006-.2275-.9798-.6782-1.967-.646-2.9382.192-5.79.1705-11.5395-1.9961-17.0462-.0676-.1721-.2344-.3053-.355-.4566z" fill="#dcde29"/><path d="m157.0145 269.971c.6025.7149 1.205 1.4297 1.8076 2.1447.1505.1273.3009.2546.4514.3819 0 0 .0027-.0537.0024-.0532.7133 1.6163 1.427 3.2322 2.1406 4.8481-1.2692-.2866-2.9006-.1715-3.7432-.9312-3.1562-2.8456-6.0578-5.974-9.0402-9.0107-.1591-.162-.1839-.4558-.4709-1.22 2.0817.0644 3.8991.1206 5.7166.1768 1.0452 1.2212 2.0904 2.4424 3.1357 3.6636z" fill="#a4ad0c"/><path d="m182.7328 266.5555c-.1207-1.0935-.1467-2.2086-.3896-3.2743-.2287-1.0034-.6861-1.9547-1.043-2.9289 2.1531 2.6199 4.3298 5.2209 6.4525 7.8653 2.0124 2.5069 3.9792 5.0508 5.9398 7.5986.4134.5372.7127 1.1623 1.0646 1.7468-.1555.178-.311.356-.4665.5339-.9862-.6071-2.1634-1.0362-2.925-1.8528-2.9494-3.1625-5.7664-6.4485-8.6328-9.6886z" fill="#b7ba1e"/><path d="m199.8307 234.2656c-.1976-.8935-.3953-1.787-.5922-2.6809.1608-1.111.321-2.2217.4811-3.3323.7655.6393 1.7276 1.1457 2.2641 1.9397 3.0658 4.5376 4.3056 9.7449 5.28 15.0332.4497 2.4407.8943 4.8825 1.3415 7.3239-.5285-1.4812-1.2496-2.9247-1.5495-4.4511-.859-4.372-2.6543-8.341-4.9766-12.0797-.4706-.7575-1.4848-1.1773-2.2484-1.7528z" fill="#dbdd29"/><path d="m157.0145 269.971c-1.0453-1.2212-2.0905-2.4424-3.1358-3.6637.6518-.0264 1.339.072 1.9492-.101 2.4724-.7012 4.3439.2747 5.9178 2.0416.932 1.0463 1.7542 2.1905 2.3904 3.6176-2.3738-.6316-4.7477-1.2631-7.1216-1.8945z" fill="#b9bd1e"/><path d="m361.435 276.5073c-1.0937.399-2.2773.6463-3.2615 1.23-1.8299 1.0851-3.6807 1.0105-6.274.6872 2.9555-2.481 5.4513-4.5761 7.9469-6.6711.5296 1.5846 1.0591 3.1692 1.5886 4.7539z" fill="#b9bd1e"/><path d="m156.187 235.708c-1.4085.3565-2.2822.9132-1.1965 2.5171.3816.5637.4882 1.3135.7204 1.9782-2.0502-.0288-4.1003-.0576-6.1514-.0862-.1952-1.068-.3895-2.1361-.5838-3.2043 1.9262-.6281 3.8524-1.2561 5.7786-1.8842.4776.2265.9552.453 1.4327.6794z" fill="#c4cc17"/><path d="m361.435 276.5073c-.5295-1.5847-1.0591-3.1693-1.5885-4.754.8453-.3402 1.702-.9379 2.5305-.9012.3609.016.8723 1.3115.9523 2.0645.1927 1.8124.1712 3.6476.2416 5.631-.9729.0894-1.7344.1594-2.6489.2434.1883-.8379.3506-1.5608.513-2.2837z" fill="#d5d627"/><path d="m161.4165 277.2924c-.7136-1.6159-1.4273-3.2318-2.1406-4.8481.8982.5142 1.8148.9991 2.6901 1.5498 1.6459 1.0355 3.268 2.1089 4.8477 3.5879-1.7991-.0965-3.5982-.1931-5.3972-.2896z" fill="#b7ba1e"/><path d="m325.9161 235.7639c-.2169-.1233-.5019-.1949-.6406-.3776-1.8668-2.4591-1.8618-2.4629-4.0637-.6634-.5561-.3864-1.1118-.7728-1.6675-1.1593 1.1404-1.4472 2.3891-3.1311 4.4362-2.3127 1.8369.7343 1.9062 2.7321 1.9356 4.513z" fill="#c1c818"/><path d="m154.7543 235.0286c-1.9262.6281-3.8525 1.2561-5.7786 1.8842.1447-2.3844 1.0507-3.1994 3.2634-2.7779.8638.1645 1.6783.5881 2.5152.8937z" fill="#a4ad0c"/><path d="m326.1541 273.5975c.0662 1.597.1324 3.1941.1986 4.7911-1.2755.1135-2.5511.227-4.4458.3956 1.6622-2.0298 2.9547-3.6082 4.2472-5.1867z" fill="#b7ba1e"/><path d="m199.7197 228.2524c-.1601 1.1106-.3203 2.2213-.4811 3.3323-.6228-.647-1.2448-1.2943-1.8668-1.9417.6159-.7451.7833-2.2472 2.3479-1.3906z" fill="#c1c818"/><path d="m159.2734 272.4976c-.1504-.1273-.3009-.2546-.4513-.3819.1504.1272.3009.2545.4513.3819z" fill="#b7ba1e"/><path d="m167.3962 252.0348c.212.1328.424.2656.6359.3984-.2119-.1328-.4239-.2656-.6359-.3984z" fill="#3f111b"/></g></svg>