<svg id="Layer_1" enable-background="new 0 0 512 512" height="512" viewBox="0 0 512 512" width="512" xmlns="http://www.w3.org/2000/svg"><g><path d="m261.9723 173.3352c1.9324-7.133 3.4687-14.1507 5.7498-20.9173 3.6819-10.9217 10.6377-19.7531 19.0692-27.4424 11.5714-10.5529 24.5433-18.867 39.3502-24.1643 15.7356-5.6296 31.9469-7.5583 48.5881-6.3054 14.4658 1.0891 28.2713 4.5389 41.0872 11.4422 20.1938 10.8775 35.2614 26.6214 44.6919 47.6189 6.4688 14.403 9.5061 29.595 10.1217 45.2961.8742 22.2996-2.3502 44.1041-8.2206 65.5665-6.2044 22.6833-15.5317 44.0681-26.7282 64.6994-9.3825 17.2888-19.7746 33.9432-31.0816 50.0229-11.7864 16.7614-24.455 32.8449-37.9993 48.2231-11.0486 12.5445-22.2081 24.9916-33.343 37.4599-2.4073 2.6956-2.6729 2.7835-5.9693 1.3437-18.1189-7.9142-36.425-15.4388-54.2703-23.9304-23.7844-11.3177-46.7565-24.2093-68.7959-38.673-27.117-17.7959-52.5841-37.6849-75.4246-60.7828-16.7475-16.9361-32.1248-35.001-44.3631-55.5579-6.2157-10.4406-11.2931-21.3329-13.8199-33.3138-2.1709-10.2939-2.2429-20.6027-.5582-30.9454 3.608-22.1504 14.3635-40.4533 30.5487-55.643 14.1467-13.2767 31.0679-21.5434 49.7257-26.4862 13.2054-3.4983 26.6002-4.8398 40.1991-3.5795 20.1235 1.8649 38.4201 8.5294 54.2203 21.3677 5.3458 4.3437 10.4743 8.9546 15.7041 13.4412.5011.4298 1.016.8439 1.518 1.2598zm118.5862 107.4476c2.8504 1.6627 5.7009 3.3255 8.5513 4.9882 2.3516 1.6146 5.0152 2.9498 5.6756 6.1947-2.0653 1.099-4.0311 2.1452-5.9969 3.1913-3.3302.5876-6.6604 1.1752-9.9906 1.7628.0124.168.0247.3361.0371.5042 2.6223.6019 5.2445 1.2039 7.8667 1.8058 4.9332 1.2303 10.0081 2.0554 14.9201 5.0273-2.5396 1.2049-4.613 2.1887-6.6864 3.1724-4.8328.9554-9.6656 1.9108-14.4985 2.8661-.0204.1846-.0409.3692-.0613.5538 2.1154.6143 4.2308 1.2286 6.3463 1.843 4.6345 1.7266 9.5007 3.0379 13.0284 7.0118-1.3523 1.1937-2.5126 2.2179-3.6729 3.2421-5.3544 1.7769-10.7088 3.5538-16.5334 5.4867 2.8771 1.5716 5.1986 2.8396 7.5202 4.1077 2.471 1.5067 4.942 3.0134 7.4131 4.52 4.7949 3.3907 9.5897 6.7815 14.3846 10.1722-.0754.1599-.1508.3198-.2263.4797-1.2022-.093-2.4052-.1765-3.6064-.2805-5.6782-.4914-11.3558-.9883-17.0337-1.4833-.8341-.111-1.6682-.2219-2.5023-.3328-2.6603-.5095-5.3085-1.0956-7.9829-1.5146-9.9405-1.5574-19.8882-3.0694-29.8367-4.5749-1.9487-.2949-3.9132-.4848-6.05-.7451 3.1884 6.4059 3.1884 6.4059 2.2478 9.1631-3.3565 1.9597-6.6736 3.9913-10.0778 5.8643-7.4075 4.0758-14.7748 8.2395-22.3257 12.0346-4.4275 2.2252-9.2086 3.7378-13.7587 5.7347-1.1568.5077-2.0396 1.6397-3.1357 2.5581 1.4286 1.6038 2.5473 2.9787 3.7908 4.2297 2.2816 2.2954 2.5042 3.0737 1.362 5.9651-1.7038 4.3133-3.4863 8.5971-5.1073 12.9412-2.0052 5.3737-4.4533 10.4519-2.7993 16.7346 2.2516 8.5522 3.4341 17.3836 5.1761 26.075.2248 1.1219.7859 2.6717 1.6455 3.0899 5.2047 2.5322 10.5414 4.7931 15.8339 7.1447 3.8754 1.9758 7.7344 3.9855 11.6523 5.8731.3784.1824 1.3062-.2289 1.6686-.6389 11.9766-13.5462 24.0801-26.9853 35.8187-40.7357 15.378-18.0136 29.914-36.6887 42.8282-56.5844 10.1172-15.5866 19.4363-31.6299 27.6565-48.2933 8.2012-16.625 14.7542-33.8841 19.4304-51.842 3.8118-14.6383 6.2861-29.4989 6.9609-44.6044.4109-9.1992.2548-18.4048-1.0643-27.5802-2.1781-15.1498-6.8484-29.3348-15.4291-42.1086-7.7376-11.5188-17.6168-20.7586-29.6048-27.7512-9.5446-5.5673-19.8106-9.1628-30.691-10.8727-5.233-.8224-10.5549-1.0786-15.8369-1.5912-4.2443.1228-8.4886.2457-12.7329.3685-2.9074.3057-5.8509.4171-8.7166.9479-22.7387 4.2118-42.4227 14.2822-58.6295 30.8954-6.2672 6.4244-11.4072 13.6461-14.0397 22.3093-2.1383 7.037-3.8219 14.2129-5.6752 21.3355-1.0365 3.9836-1.0073 3.9912 2.463 6.2491 2.9673 2.4971 5.9219 5.0096 8.9051 7.4877 4.1456 3.4437 8.3143 6.8596 12.4694 10.2919 1.239 1.0235 1.8714 2.138.7308 3.6837-1.4926 2.0226-2.9651 4.0644-4.3484 6.1625-6.7091 10.1763-4.8126 8.9786-16.2206 12.0069-3.7136.9858-7.3159 2.3906-11.2237 3.6882 2.6837 4.8495 5.0229 9.2351 7.5593 13.5036.4237.713 1.6665 1.185 2.5942 1.3147 8.7069 1.2171 17.4276 2.3346 26.1442 3.4826 17.3676 2.2873 34.7742 4.3173 52.0921 6.9338 18.7298 2.8299 37.3803 6.1872 56.0559 9.3703 2.6227.4471 5.1914 1.2113 8.1541 1.9165-1.6657 1.5048-2.9237 2.6411-4.1816 3.7774-7.7917 2.5973-15.5833 5.1945-23.3749 7.7918-2.8903.6721-5.7805 1.3441-8.6707 2.0162-.0099.1379-.0198.2758-.0297.4137 1.1229.4164 2.2461.8326 3.3692 1.2487zm-212.6161 14.0279c.5773.8118 1.1545 1.6236 1.7431 2.4513-5.3848 4.5023-11.8316 6.175-18.2394 8.0868 78.2141 10.4034 156.4806 20.1079 234.467 32.3244-4.2716-3.5537-9.6671-5.5044-13.435-10.0019 2.38-1.1421 4.5218-2.1699 6.6636-3.1977 4.401-1.6782 8.802-3.3564 13.5549-5.1689-8.1743-3.0517-16.5535-4.1992-23.586-9.5441 6.4133-1.6688 12.3966-3.2257 18.9671-4.9355-7.3721-2.4304-14.1199-4.8101-20.0239-8.9583.0005-.2787.0011-.5575.0016-.8362 6.7115-1.3886 13.4231-2.7772 20.6241-4.267-6.6635-4.2159-13.7615-6.6831-19.21-12.1557 8.4792-5.4203 18.4131-6.6168 27.836-10.6416-1.1473-.187-1.7303-.3112-2.3198-.3736-7.0533-.7459-14.1114-1.4482-21.1602-2.2337-4.87-.5427-9.7275-1.1973-14.5907-1.8018-5.5258-.831-11.0459-1.7023-16.5785-2.485-13.7742-1.9485-27.5476-3.9041-41.3332-5.7696-20.4104-2.762-40.8132-5.5928-61.2536-8.1159-13.3328-1.6457-26.7269-2.7947-40.093-4.1721-12.6922-1.308-25.3821-2.6386-38.0773-3.9156-1.4797-.1488-2.9874-.0202-4.4821-.0202-.037.1514-.0741.3027-.1111.4541 5.9186 3.1877 11.8371 6.3754 17.7557 9.5632 1.7825 1.3171 3.565 2.6342 5.5552 4.1049-7.4504 4.8781-15.9241 3.6967-24.2866 5.0803 6.16 3.4743 12.8459 5.1599 18.0852 10.527-6.1249 1.2902-11.5817 2.4397-17.0386 3.5892 3.0003 1.5041 6.0444 2.3238 8.8901 3.5895 2.8792 1.2805 5.5621 3.0025 8.3309 4.531-.0606.2599-.1213.5198-.1819.7797-6.1958 4.1825-13.7035 4.748-20.9773 7.1809 5.0623 2.2101 9.783 4.2711 14.5037 6.3321zm85.6075-53.9267c-1.9565-3.3612-3.9753-6.6882-5.8451-10.0969-1.0431-1.9016-1.9936-3.8889-2.6581-5.9435-.2192-.6777.336-2.0791.9653-2.4839 5.3937-3.4691 10.8914-6.7763 16.3464-10.1507 3.344-2.0685 6.6675-4.1699 10.0607-6.2943-2.8523-4.0396-5.618-7.9268-8.3505-11.8371-1.7823-2.5504-3.065-5.2944-3.3255-8.4679-.167-2.035-1.0398-3.6976-2.6576-5.0981-4.1248-3.5709-8.0408-7.3846-12.1959-10.9184-7.6274-6.4868-15.9447-11.9458-25.1787-15.885-14.8399-6.3307-30.3623-8.5318-46.4216-7.6227-9.968.5643-19.4451 3.237-28.8857 6.1712-.3345.0632-.6812.0894-1.0017.195-13.5248 4.4574-25.8458 11.063-36.3571 20.7603-11.641 10.7394-20.2599 23.5435-25.4839 38.5275-4.0262 11.5486-5.0674 23.4436-3.3538 35.5368 1.5425 10.8857 5.5045 20.9451 10.8842 30.4827 7.4354 13.1821 16.2687 25.3794 26.0214 36.9254 9.0406 10.703 18.8728 20.6398 29.0901 30.2198 14.6053 13.6945 30.0304 26.3705 46.3089 38.0219 18.1757 13.0096 37.617 23.9572 56.9535 35.0782 10.6021 5.6195 21.2043 11.2391 32.1919 17.063-.0751-1.0945-.0771-1.563-.1432-2.0222-1.0481-7.2787-2.2583-14.5383-3.1062-21.8401-.59-5.081-.8369-10.2594 1.6381-15.032 2.4775-4.7776 5.0378-9.5139 7.655-14.2165 1.1033-1.9825 1.4614-3.8304.4734-6.0072-.9258-2.0398-1.429-4.2671-2.2575-6.3568-.6213-1.5671-.1687-2.5658 1.157-3.457 3.3929-2.2808 6.7086-4.6772 10.1173-6.9335 7.7338-5.1195 15.5051-10.1826 23.261-15.2686 3.3806-1.5901 3.3805-1.5901 1.8386-4.9379-.0856-.1859-.1824-.3688-.2466-.5621-.729-2.1935-2.2767-3.1974-4.5497-3.4901-6.0144-.7746-12.0143-1.6635-18.0172-2.5266-9.1747-1.3191-18.3457-2.6642-27.5208-3.9805-8.6312-1.2383-17.2612-2.4858-25.8999-3.6701-8.8433-1.2125-17.703-2.3065-26.5437-3.5367-12.2112-1.6993-24.4252-3.3879-36.6121-5.2504-10.0351-1.5337-20.0573-3.1804-30.0361-5.0404-5.0116-.9342-9.9138-2.4551-14.8655-3.7106-.669-.5122-1.338-1.0244-2.187-1.6744 8.7164-5.8351 18.6997-6.9576 28.7276-9.4697-6.3424-2.9014-13.3307-2.4339-18.6137-6.9043 4.7146-6.3933 12.4382-6.3886 19.1538-9.3491-7.5749-3.245-15.8859-3.6406-21.8089-10.1534 7.3771-1.0779 14.3206-2.0925 21.8174-3.188-6.7199-4.1696-14.8424-4.8427-19.7617-11.6356 8.3329-.9955 16.2696-1.9437 24.2062-2.8918.039-.1774.078-.3548.1171-.5323-9.64-5.415-19.28-10.83-28.9199-16.2451.0939-.2551.1877-.5101.2816-.7651 1.884 0 3.7687-.0337 5.6519.0057 9.2815.1941 18.5688.2606 27.8423.6518 11.4437.4827 22.8867 1.0927 34.3096 1.9266 9.5226.6952 19.0167 1.7841 28.5218 2.7154 5.7004.5585 11.3976 1.1495 17.0962 1.7259 1.7295.3025 3.4589.605 5.1884.9075.0217-.1293.0434-.2587.065-.388-1.7126-.36-3.4247-.7201-5.1368-1.0801zm18.3412-47.9224c-.127.1369-.254.2739-.381.4108 2.2686 3.4809 4.869 6.6447 8.1185 9.3289 3.514 2.9026 3.2299 5.207-.752 7.2993-7.1873 3.7765-14.4103 7.4848-21.621 11.2166-2.1635 1.1197-4.3356 2.2226-6.7406 3.4545 1.0333 1.6667 1.9454 3.138 2.921 4.7116 1.7138-1.2581 3.0801-2.7332 4.7669-3.4133 5.617-2.2647 11.3887-4.1446 17.0161-6.3856 2.0313-.8089 4.2874-1.8353 5.6223-3.4424 2.5008-3.0107 4.4061-6.5164 6.5477-9.8235.0564-.0871-.0185-.2592-.0374-.4426-5.1361-4.2903-10.2983-8.6023-15.4605-12.9143zm19.9433 246.8806c.0266-.4911.1281-.9051.0582-1.2878-1.6494-9.032-3.436-18.0414-4.9019-27.1027-.3857-2.3841-.2925-5.0907.449-7.3663 2.2349-6.8583 4.9179-13.5698 7.3631-20.3613.2617-.7268.1091-1.6027.1487-2.4095-.209-.0242-.4179-.0485-.6269-.0727-.2404.2998-.5345.5707-.7132.9036-2.8363 5.2834-5.789 10.5107-8.4166 15.8965-1.0182 2.087-1.7827 4.5289-1.8195 6.8227-.1432 8.9277.214 17.8253 1.4716 26.7169.611 4.3196 2.0899 7.0824 6.3208 8.1769.1275.033.2631.0344.6667.0837zm35.6769-103.0979c.4477.9767.7556 1.7896 1.1751 2.5402 2.4194 4.3281 2.0525 5.752-2.143 8.2561-11.4082 6.8091-22.7963 13.6521-34.2349 20.4098-1.8186 1.0744-1.3441 1.9865-.5706 2.8893 2.7274-1.8737 5.1107-4.2051 7.9691-5.3477 9.3961-3.7556 18.5085-8.0301 27.2097-13.1874 3.964-2.3495 7.9226-4.708 11.8404-7.0367-2.2859-6.3589-5.5754-8.8917-11.2458-8.5236zm-72.1512-105.3154c-.1304.1905-.2609.381-.3913.5715.3362.5766.6577 1.1624 1.011 1.7282 1.4458 2.3151 2.9451 4.5986 4.3149 6.9576.2652.4568.0381 1.1994.0381 1.8699.7259.0797 1.6839.1848 2.7169.2981 0-.537.0753-.7768-.011-.9176-1.9597-3.1975-3.9009-6.4077-5.949-9.5481-.3185-.4883-1.1405-.648-1.7296-.9596z" fill="#3e1818"/><path d="m50.6498 141.0016c7.4504.0451 14.5411 1.3601 20.4787 6.2688 3.3422 2.763 6.0972 6.0306 7.5984 10.2044.5745 1.5973.5029 2.9297-1.1846 3.8383-.3811.2052-.6915.6271-.9201 1.0163-1.745 2.9702-4.1331 5.2804-7.2888 6.6341-7.0931 3.0425-14.5533 4.7728-22.2477 4.6461-5.6465-.0929-11.0553-1.7453-15.5861-5.3895-7.1481-5.7494-7.242-14.8684-.2192-20.814 5.5779-4.7224 12.1704-6.4977 19.3694-6.4045zm-13.0827 11.3101c-4.5146 2.7093-5.2 7.3739-1.2674 9.9824 1.9314 1.2811 4.2222 2.2902 6.4854 2.7348 3.0408.5973 6.2229.8091 9.3255.6908 7.0512-.2687 13.4277-2.6018 18.9569-7.0763.6627-.303 1.3253-.606 2.1312-.9745-2.4826-3.1341-5.1577-5.7987-8.6724-7.1915-9.227-3.6563-18.292-3.4595-26.9592 1.8343z" fill="#3f1a1a"/><path d="m253.5294 90.9179c-.0826-1.2085-.1193-1.7456-.1423-2.0811-.5898-.3664-1.2742-.5497-1.5259-.9839-3.9829-6.8725-7.7451-13.8838-8.5752-21.9434-.8074-7.8394-.2339-15.523 5.2168-21.8581 5.968-6.9363 16.4552-8.2816 23.0496-2.9874 5.0059 4.0188 6.3876 9.4678 5.4018 15.626-1.4319 8.9444-5.8141 16.5583-11.1162 23.653-2.3002 3.0779-5.1102 5.8069-7.9062 8.4656-1.041.9897-2.7029 1.3268-4.4024 2.1093zm7.6474-45.4257c-4.095.0738-7.1345 1.9296-9.0979 5.4966-4.1258 7.4956-3.7365 15.237-1.1754 23.0814 1.0363 3.4162 2.0725 6.8323 3.1088 10.2485.188.0137.376.0273.564.041 3.4302-5.9599 6.8651-11.9171 10.289-17.8805 2.4502-4.2675 4.0514-8.7982 4.0719-13.7772.0202-4.9158-2.8251-7.5317-7.7604-7.2098z" fill="#3f1a1a"/><path d="m220.4167 449.2927c.4317 13.8225-9.1078 24.5702-21.1759 26.2394-8.935 1.2359-15.9067-6.5371-14.0741-15.3651 1.8767-9.0407 8.1111-14.1793 15.7529-18.1169 4.4747-2.3057 9.2933-3.5071 14.2783-4.0678 3.3837-.3806 4.3286.4309 4.5693 3.7671.1913 2.6507.4537 5.2963.6495 7.5433zm-9.2896-4.9974c-8.6861 2.7997-15.9795 7.1905-18.9168 16.558-.8677 2.2808-.6916 4.4754 1.0253 6.243 1.9536 2.0112 4.4716 2.1786 7.0305 1.4306 7.2578-2.1216 11.3013-7.2361 13.0315-14.361.8537-3.5155 1.0132-7.0558-.3102-10.61-.4471.1479-.7054.2176-.9507.3185-.3087.1269-.6069.2794-.9096.4209z" fill="#401a1a"/><path d="m456.8048 392.26c9.9854.5975 18.633 3.8417 24.3057 12.7038 4.5549 7.1159 1.3575 16.5937-6.5727 19.5797-3.4679 1.3058-7.0454.7699-10.489-.0611-11.8608-2.8619-17.9232-11.3253-17.4665-24.125.0219-.6136.0774-1.2259.1037-1.8394.1859-4.3264.5193-4.7824 4.7831-5.6277 1.7329-.3435 3.5181-.4238 5.3357-.6303zm18.7214 22.7664c1.6384-2.5168 1.4567-4.3979-.4612-6.8855-5.0243-6.5165-11.8322-9.1146-19.8295-9.1709-1.2202-.2553-2.4403-.5107-4.12-.8622.7053 3.1766 1.2405 5.9619 1.9485 8.7025 1.8185 7.0404 6.8241 11.2632 14.0821 11.8423 3.3825.2699 6.5888-.1059 8.3801-3.6262z" fill="#401a1a"/><path d="m93.3772 143.3801c-8.6856-2.1103-15.243-7.1216-20.9094-13.377-2.9355-3.2406-5.4232-6.8583-6.5258-11.2219-.8223-3.2541-.4862-6.2772 2.0382-8.7023 2.6583-2.5536 5.8754-2.6091 9.1977-1.6888 4.1152 1.1399 7.18 3.8692 9.9278 6.9384 4.7494 5.305 7.9542 11.4347 8.9052 18.5455.4636 3.4674-.2538 6.7797-2.6337 9.5061zm-12.4359-24.0688c-.2142-.191-.4285-.3821-.6427-.5731-1.3388-1.1295-2.6247-2.3308-4.0334-3.365-1.0775-.7911-2.3437-1.2511-3.5623-.2019-1.2841 1.1056-.6767 2.3579-.122 3.5393 3.14 6.6878 8.2419 11.5841 14.3027 15.5978.7796.6059 1.5591 1.2118 2.3461 1.8042.0581-.0059.117-.0078.1738-.0197.0211-.0044.0373-.0323.0557-.0495-.0874.0394-.1747.0788-.2621.1181.0747-.1793.2459-.3812.21-.5346-1.433-6.1265-3.5595-11.9007-8.3826-16.2834z" fill="#3f1a1a"/><path d="m472.2801 378.0568c-5.0016-.0458-9.3211-1.7859-12.886-5.2987-1.7464-1.7208-3.4389-3.5004-5.0864-5.3163-1.5315-1.688-1.3763-3.1738.2914-4.8275 2.4886-2.4677 5.6685-3.3904 8.9409-4.213 5.6405-1.4179 11.2472-2.3167 16.7652.4023 1.0949.5395 2.1999 1.1346 3.1395 1.9011 5.5019 4.4887 4.2704 9.8565-.838 14.0802-2.7168 2.2464-6.4304 3.3187-10.3266 3.2719zm6.4054-8.9325c2.1137-1.7477 2.0674-2.7102-.3277-4.0124-3.4508-1.8762-7.1183-1.9668-10.8664-1.1167-2.143.2701-4.286.5402-6.429.8103-.0342.2087-.0684.4174-.1025.6261 1.7657 1.4376 3.4549 2.9841 5.3134 4.2896 3.6519 2.5652 9.5925 2.4444 12.4122-.5969z" fill="#401a1a"/><path d="m319.4518 343.9334c-7.756 5.0861-15.5272 10.1492-23.261 15.2686-3.4087 2.2564-6.7244 4.6527-10.1173 6.9335-1.3257.8912-1.7783 1.8899-1.157 3.457.8285 2.0896 1.3317 4.317 2.2575 6.3568.9881 2.1768.63 4.0247-.4734 6.0072-2.6172 4.7025-5.1775 9.4389-7.655 14.2165-2.4749 4.7727-2.2281 9.951-1.6381 15.032.8479 7.3018 2.0581 14.5614 3.1062 21.8401.0661.4592.0681.9277.1432 2.0222-10.9876-5.8239-21.5897-11.4434-32.1921-17.0633-.2975-.4909-.4934-1.1063-.9125-1.4472-.9993-.8128-2.1313-1.4598-3.1618-2.2373-8.311-6.2712-16.573-12.608-24.9252-18.8237-7.6414-5.6868-15.5657-11.0088-23.027-16.9188-11.6241-9.2074-23.1924-18.513-34.346-28.2777-8.4628-7.409-16.0486-15.768-22.7774-24.8513-4.0509-5.4683-8.1625-10.8961-12.3959-16.2235-6.5494-8.242-12.3106-16.9938-17.2143-26.2943-4.7784-9.063-8.6796-18.5126-11.6861-28.3111-2.8672-9.3448-4.7502-18.8675-4.5934-28.6993.0488-3.0623.2232-6.1237.3925-9.1826.3217-5.8127 1.6531-11.4257 3.5927-16.8879 4.5771-12.8899 13.2094-22.6986 23.6569-31.1705 7.184-5.8255 14.9876-10.6496 23.0931-15.0393.5134-.278.8332-.9137 1.243-1.383 9.4406-2.9342 18.9176-5.6069 28.8857-6.1712 16.0593-.9092 31.5817 1.292 46.4216 7.6227 9.234 3.9392 17.5513 9.3982 25.1787 15.885 4.1551 3.5337 8.0712 7.3475 12.1959 10.9184 1.6177 1.4005 2.4905 3.063 2.6576 5.0981.2605 3.1735 1.5432 5.9175 3.3255 8.4679 2.7326 3.9103 5.4982 7.7974 8.3505 11.8371-3.3932 2.1245-6.7168 4.2259-10.0607 6.2943-5.455 3.3743-10.9527 6.6815-16.3464 10.1507-.6293.4048-1.1846 1.8061-.9653 2.4839.6646 2.0546 1.615 4.0419 2.6581 5.9435 1.8698 3.4087 3.8886 6.7358 5.8449 10.0969-.0391.1869-.078.3738-.1169.5607-5.6986-.5764-11.3958-1.1674-17.0962-1.7259-9.5051-.9314-18.9992-2.0203-28.5218-2.7154-11.4229-.8339-22.8659-1.4439-34.3096-1.9266-9.2735-.3912-18.5608-.4576-27.8423-.6518-1.8832-.0394-3.7679-.0057-5.6519-.0057-.0939.255-.1877.5101-.2816.7651 9.64 5.415 19.28 10.83 28.9199 16.2451-.039.1774-.078.3549-.1171.5323-7.9366.9482-15.8732 1.8963-24.2062 2.8918 4.9194 6.7929 13.0419 7.4661 19.7617 11.6356-7.4968 1.0955-14.4403 2.11-21.8174 3.188 5.923 6.5127 14.234 6.9084 21.8089 10.1534-6.7156 2.9604-14.4393 2.9558-19.1538 9.3491 5.283 4.4704 12.2713 4.0029 18.6137 6.9043-10.0278 2.5121-20.0112 3.6345-28.7276 9.4697.849.65 1.518 1.1622 2.187 1.675-.2457 3.0667.35 3.8734 3.2408 4.6906 10.0705 2.8465 20.1573 5.6395 30.1917 8.6087 10.5849 3.1321 21.4313 4.9056 32.3011 6.6126 7.9743 1.2523 15.9338 2.5988 23.9064 3.8622 5.8951.9341 11.7931 1.8556 17.7037 2.684 5.6435.791 11.3014 1.4838 16.9594 2.1664 6.8007.8205 13.6089 1.578 20.4124 2.3755 4.1762.4895 8.351.9914 12.5239 1.5085 4.6469.5758 9.3113 1.0496 13.9296 1.8033 3.791.6187 7.5253 1.5824 11.2845 2.3931z" fill="#ee9495"/><path d="m394.9353 307.4295c2.0734-.9837 4.1468-1.9674 6.6864-3.1724-4.9119-2.9719-9.9868-3.7971-14.9198-5.0273.6957-1.3576 1.3911-2.7152 2.0865-4.0728 1.9659-1.0461 3.9317-2.0923 5.997-3.1913-.6604-3.2449-3.324-4.5801-5.6753-6.1944.599-.5775 1.1018-1.3462 1.8116-1.7023 4.9856-2.5009 10.0247-4.8947 15.0247-7.3672 3.6436-1.8018 4.3898-3.5308 3.3181-7.3892 1.2579-1.1364 2.5158-2.2727 4.1816-3.7774-2.9627-.7052-5.5313-1.4695-8.1541-1.9165-18.6756-3.183-37.3261-6.5404-56.0559-9.3703-17.3179-2.6166-34.7245-4.6465-52.0921-6.9338-8.7166-1.148-17.4373-2.2654-26.1442-3.4826-.9277-.1297-2.1705-.6016-2.5942-1.3147-2.5364-4.2685-4.8755-8.6541-7.5593-13.5036 3.9077-1.2977 7.5101-2.7024 11.2237-3.6882 11.408-3.0283 9.5114-1.8306 16.2206-12.0069 1.3833-2.0981 2.8558-4.1399 4.3484-6.1625 1.1406-1.5457.5082-2.6602-.7308-3.6837-4.1551-3.4323-8.3238-6.8482-12.4694-10.2919-2.9832-2.4781-5.9377-4.9906-8.905-7.4877 2.4272-1.208 3.9672-3.0387 4.2206-5.8378.0791-.874.2718-1.7511.5224-2.5942 3.7932-12.7586 10.2518-24.0159 19.2775-33.7741 5.5393-5.9889 12.2156-10.6104 18.878-15.2319 7.4685-5.1807 15.173-9.9539 23.6882-13.2371 6.9272-2.6709 13.9206-5.1702 20.8846-7.7456.8084-.1405 1.6168-.2811 2.4253-.4216 2.5749 1.4902 5.1178 3.0392 7.7307 4.4597 8.1165 4.4125 15.9522 9.326 22.2959 16.0593 5.1608 5.4778 9.9709 11.376 14.2781 17.5474 6.8663 9.8382 11.5003 20.8803 15.6598 32.0921 3.3738 9.0942 5.4555 18.5312 6.8464 28.1027.8097 5.5723 1.6174 11.2103 1.6202 16.8191.0042 8.3604-.3001 16.7662-1.2282 25.0683-.8269 7.3968-2.1866 14.818-4.2057 21.9761-2.4144 8.559-5.5678 16.9316-8.7836 25.2369-4.5576 11.7706-10.2353 23.0299-16.3348 34.0823-1.5344 2.7803-2.5681 5.8368-3.8319 8.7664-2.471-1.5067-4.9421-3.0133-7.4127-4.52.3646-.337.6762-.7793 1.1024-.9915 1.3266-.6604 2.786-1.0908 4.0309-1.8707 2.4407-1.5293 4.3497-3.475 3.8795-6.7322 1.1603-1.0242 2.3206-2.0484 3.6729-3.2421-3.5276-3.9739-8.3939-5.2852-13.0281-7.0116.2654-.2595.4932-.5799.8015-.7692 2.4618-1.512 4.9391-2.9992 7.4116-4.494z" fill="#ee9495"/><path d="m359.2347 263.5573c4.8631.6046 9.7207 1.2591 14.5907 1.8018 7.0488.7855 14.1069 1.4878 21.1602 2.2337.5895.0623 1.1725.1866 2.3198.3736-9.4229 4.0248-19.3568 5.2213-27.836 10.6416 5.4485 5.4726 12.5465 7.9397 19.21 12.1557-7.201 1.4898-13.9125 2.8784-20.6241 4.267-.0005.2787-.0011.5574-.0016.8362 5.904 4.1482 12.6518 6.528 20.0239 8.9583-6.5704 1.7097-12.5537 3.2666-18.9671 4.9355 7.0325 5.3448 15.4117 6.4924 23.586 9.5441-4.7529 1.8124-9.1539 3.4906-13.5552 5.1681-.5701-.2001-1.1252-.4917-1.7118-.5847-7.3717-1.1689-14.7513-2.2885-22.122-3.463-6.3661-1.0144-12.7238-2.0807-19.0846-3.1281-8.7731-1.4445-17.5421-2.915-26.3198-4.3312-5.6945-.9187-11.3957-1.8002-17.1044-2.6254-5.6407-.8154-11.2934-1.5484-16.9432-2.3002-4.6431-.6178-9.2868-1.2324-13.9352-1.8077-4.9181-.6086-9.8435-1.1584-14.7633-1.7533-5.2548-.6354-10.5073-1.2903-15.7601-1.9426-5.861-.7278-11.7256-1.4285-17.5804-2.2029-6.5925-.872-13.1735-1.8312-19.7641-2.7183-5.1111-.688-10.2216-1.3918-15.3468-1.9589-3.5751-.3955-7.1746-.5717-10.7631-.8458-4.7207-2.061-9.4414-4.122-14.5036-6.3321 7.2738-2.433 14.7816-2.9984 20.9773-7.1809.0607-.2599.1213-.5197.1819-.7797-2.7689-1.5286-5.4517-3.2505-8.3309-4.531-2.8457-1.2657-5.8898-2.0854-8.8901-3.5895 5.4569-1.1495 10.9137-2.299 17.0386-3.5892-5.2394-5.3671-11.9252-7.0526-18.0852-10.527 8.3624-1.3836 16.8362-.2022 24.2866-5.0803-1.9903-1.4706-3.7727-2.7878-5.5551-4.1048 1.735.0347 3.4712.0382 5.2045.1108 3.1276.131 6.2594.2277 9.3787.4743 6.0214.476 12.0356 1.0428 18.0522 1.5789 3.3815.3013 6.7665.573 10.1414.9363 4.3143.4645 8.6188 1.018 12.9297 1.5143 4.0437.4655 8.0915.8963 12.1353 1.3608 4.3111.4952 8.6186 1.0206 12.9295 1.5169 4.0439.4655 8.0884.9266 12.1359 1.3595 4.8555.5193 9.7096 1.0606 14.5732 1.4912 4.1284.3655 8.2715.5623 12.4048.8781 6.7697.5172 13.5366 1.0718 20.3049 1.6078 3.6567.2896 7.3167.5412 10.9702.8671 5.677.5063 11.3512 1.0472 17.0239 1.6006 3.5097.3424 7.0074.8498 10.5238 1.0694 2.8437.1776 5.7074.036 8.7662.036-1.1708-.6882-2.2361-1.3146-3.3015-1.941z" fill="#f4dc9f"/><path d="m394.4771 337.0608c1.2638-2.9296 2.2975-5.9861 3.8319-8.7664 6.0995-11.0524 11.7773-22.3117 16.3348-34.0823 3.2158-8.3053 6.3692-16.678 8.7836-25.2369 2.0192-7.1581 3.3789-14.5793 4.2057-21.9761.928-8.3021 1.2324-16.7079 1.2282-25.0683-.0029-5.6088-.8105-11.2468-1.6202-16.8191-1.3908-9.5715-3.4725-19.0085-6.8464-28.1027-4.1595-11.2118-8.7934-22.2539-15.6598-32.0921-4.3072-6.1714-9.1173-12.0696-14.2781-17.5474-6.3437-6.7333-14.1794-11.6469-22.2959-16.0593-2.6129-1.4204-5.1558-2.9695-7.7303-4.4595 2.4784-1.0878 4.9563-2.1757 7.4342-3.2635 5.2816.5126 10.6036.7688 15.8365 1.5912 10.8804 1.7099 21.1465 5.3054 30.691 10.8727 11.988 6.9926 21.8672 16.2324 29.6048 27.7512 8.5807 12.7738 13.251 26.9588 15.4291 42.1086 1.3191 9.1754 1.4753 18.381 1.0643 27.5802-.6749 15.1055-3.1491 29.9661-6.9609 44.6044-4.6762 17.958-11.2292 35.217-19.4304 51.842-8.2202 16.6634-17.5393 32.7067-27.6565 48.2933-12.9142 19.8956-27.4502 38.5708-42.8282 56.5844-11.7386 13.7504-23.8421 27.1895-35.8187 40.7357-.3625.41-1.2902.8213-1.6686.6389-3.9178-1.8876-7.7769-3.8973-11.6519-5.8732.1095-.3173.1433-.6937.3392-.9426 2.6897-3.4175 5.4133-6.8084 8.106-10.2236 6.9398-8.8018 14.0889-17.4498 20.7419-26.4637 7.2669-9.8458 14.1179-20.001 21.0588-30.0842 4.4333-6.4404 8.8116-12.9244 13.0094-19.5194 3.5737-5.6145 6.8543-11.4155 10.2645-17.134 5.6779.4949 11.3555.9919 17.0337 1.4833 1.2012.104 2.4042.1875 3.6064.2805.0754-.1599.1508-.3198.2263-.4797-4.7946-3.3909-9.5895-6.7817-14.3844-10.1724z" fill="#e86b6c"/><path d="m387.9955 345.9489c-3.4102 5.7185-6.6908 11.5195-10.2645 17.134-4.1979 6.595-8.5761 13.079-13.0094 19.5194-6.9409 10.0832-13.7919 20.2384-21.0588 30.0842-6.653 9.0139-13.8021 17.6618-20.7419 26.4637-2.6927 3.4152-5.4163 6.8061-8.106 10.2236-.1959.2489-.2298.6253-.3392.9426-5.2929-2.3515-10.6296-4.6124-15.8343-7.1446-.8595-.4182-1.4207-1.968-1.6455-3.0899-1.742-8.6914-2.9246-17.5228-5.1761-26.075-1.654-6.2827.794-11.3609 2.7993-16.7346 1.621-4.3441 3.4035-8.6279 5.1073-12.9412 1.1421-2.8914.9196-3.6696-1.362-5.9651-1.2435-1.251-2.3622-2.626-3.7908-4.2297 1.096-.9184 1.9788-2.0504 3.1357-2.5581 4.5502-1.9969 9.3312-3.5095 13.7587-5.7347 7.5509-3.7951 14.9181-7.9588 22.3257-12.0346 3.4042-1.8731 6.7213-3.9047 10.0781-5.8641 5.4855.3219 10.9874.4752 16.4514 1.0128 5.4092.5322 10.7775 1.1628 16.1658-.066 3.1407-.7163 6.4262-1.0192 9.0044-3.2756.8339.111 1.668.222 2.5021.3329z" fill="#ee9495"/><path d="m145.4037 152.2567c-.4098.4693-.7296 1.1049-1.243 1.383-8.1055 4.3897-15.9091 9.2139-23.0931 15.0393-10.4475 8.4719-19.0798 18.2806-23.6569 31.1705-1.9396 5.4622-3.2709 11.0752-3.5927 16.8879-.1693 3.0589-.3436 6.1203-.3925 9.1826-.1568 9.8317 1.7262 19.3545 4.5934 28.6993 3.0065 9.7985 6.9077 19.2481 11.6861 28.3111 4.9037 9.3005 10.6648 18.0524 17.2143 26.2943 4.2334 5.3275 8.345 10.7552 12.3959 16.2235 6.7288 9.0833 14.3146 17.4422 22.7774 24.8513 11.1536 9.7647 22.7219 19.0703 34.346 28.2777 7.4612 5.91 15.3855 11.232 23.027 16.9188 8.3522 6.2157 16.6142 12.5525 24.9252 18.8237 1.0305.7776 2.1625 1.4245 3.1618 2.2373.4191.3409.6149.9563.9125 1.4472-19.3363-11.1207-38.7775-22.0683-56.9532-35.0779-16.2784-11.6515-31.7036-24.3275-46.3089-38.0219-10.2173-9.58-20.0494-19.5168-29.0901-30.2198-9.7526-11.546-18.5859-23.7433-26.0214-36.9254-5.3798-9.5377-9.3417-19.597-10.8842-30.4827-1.7136-12.0931-.6724-23.9882 3.3538-35.5368 5.224-14.984 13.8429-27.7881 25.4839-38.5275 10.5113-9.6973 22.8323-16.3029 36.3571-20.7603.3204-.1058.6671-.1319 1.0016-.1952z" fill="#f4c1c1"/><path d="m167.9424 294.8107c3.5886.2741 7.188.4503 10.7631.8458 5.1252.5671 10.2357 1.2709 15.3468 1.9589 6.5906.8871 13.1716 1.8463 19.7641 2.7183 5.8548.7744 11.7194 1.4751 17.5804 2.2029 5.2527.6523 10.5052 1.3071 15.7601 1.9426 4.9198.5949 9.8452 1.1447 14.7633 1.7533 4.6484.5753 9.2921 1.1899 13.9352 1.8077 5.6497.7518 11.3025 1.4848 16.9432 2.3002 5.7087.8252 11.4099 1.7067 17.1044 2.6254 8.7777 1.4162 17.5467 2.8867 26.3198 4.3312 6.3608 1.0473 12.7186 2.1137 19.0846 3.1281 7.3707 1.1745 14.7503 2.2941 22.122 3.463.5866.093 1.1417.3846 1.7118.5847-2.1414 1.0286-4.2833 2.0564-6.6632 3.1985 3.7679 4.4975 9.1634 6.4482 13.435 10.0019-77.9864-12.2166-156.2529-21.9211-234.467-32.3244 6.4079-1.9117 12.8547-3.5844 18.2394-8.0868-.5885-.8277-1.1658-1.6395-1.743-2.4513z" fill="#edbf66"/><path d="m319.4518 343.9334c-3.7592-.8108-7.4935-1.7744-11.2841-2.3931-4.6183-.7538-9.2827-1.2275-13.9296-1.8033-4.1729-.5171-8.3477-1.019-12.5239-1.5085-6.8034-.7975-13.6117-1.555-20.4124-2.3755-5.658-.6826-11.3159-1.3754-16.9594-2.1664-5.9105-.8284-11.8086-1.7499-17.7037-2.684-7.9726-1.2634-15.9321-2.6098-23.9064-3.8622-10.8698-1.707-21.7162-3.4805-32.3011-6.6126-10.0344-2.9692-20.1212-5.7622-30.1917-8.6087-2.8908-.8171-3.4865-1.6239-3.2408-4.6906 4.9517 1.2549 9.854 2.7758 14.8655 3.71 9.9788 1.86 20.0011 3.5067 30.0361 5.0404 12.1869 1.8625 24.4008 3.5511 36.6121 5.2504 8.8407 1.2303 17.7004 2.3242 26.5437 3.5367 8.6386 1.1843 17.2687 2.4318 25.8999 3.6701 9.1751 1.3163 18.3461 2.6614 27.5208 3.9805 6.0029.8631 12.0027 1.752 18.0172 2.5266 2.273.2928 3.8207 1.2966 4.5497 3.4901.0642.1934.161.3762.2466.5621 1.542 3.3479 1.5421 3.3479-1.8385 4.938z" fill="#e76b6c"/><path d="m359.2347 263.5573c1.0653.6264 2.1307 1.2528 3.3013 1.9411-3.0588 0-5.9225.1416-8.7662-.036-3.5164-.2197-7.0141-.727-10.5238-1.0694-5.6727-.5534-11.3468-1.0943-17.0239-1.6006-3.6534-.3259-7.3134-.5775-10.9702-.8671-6.7683-.536-13.5352-1.0905-20.3049-1.6078-4.1332-.3158-8.2763-.5126-12.4048-.8781-4.8636-.4306-9.7177-.9719-14.5732-1.4912-4.0475-.4329-8.092-.8941-12.1359-1.3595-4.3109-.4962-8.6185-1.0217-12.9295-1.5169-4.0439-.4645-8.0916-.8953-12.1353-1.3608-4.3109-.4963-8.6155-1.0499-12.9297-1.5143-3.375-.3633-6.7599-.635-10.1414-.9363-6.0166-.5361-12.0308-1.1029-18.0522-1.5789-3.1193-.2466-6.2511-.3434-9.3787-.4743-1.7333-.0726-3.4694-.0761-5.2045-.1108-5.9187-3.1878-11.8373-6.3755-17.7558-9.5632.037-.1514.0741-.3027.1111-.4541 1.4947 0 3.0023-.1286 4.4821.0202 12.6953 1.2771 25.3852 2.6077 38.0773 3.9156 13.366 1.3774 26.7601 2.5264 40.093 4.1721 20.4404 2.5231 40.8432 5.3538 61.2536 8.1159 13.7856 1.8655 27.559 3.8211 41.3332 5.7696 5.5326.7825 11.0527 1.6538 16.5784 2.4848z" fill="#f4e9c8"/><path d="m358.0051 107.2721c-6.964 2.5754-13.9574 5.0747-20.8846 7.7456-8.5152 3.2831-16.2197 8.0564-23.6882 13.2371-6.6624 4.6215-13.3387 9.243-18.878 15.2319-9.0257 9.7582-15.4843 21.0155-19.2775 33.7741-.2506.843-.4433 1.7202-.5224 2.5942-.2533 2.7991-1.7934 4.6299-4.2206 5.8378-3.4703-2.2579-3.4996-2.2655-2.463-6.2491 1.8533-7.1226 3.5369-14.2985 5.6752-21.3355 2.6324-8.6632 7.7725-15.8849 14.0397-22.3093 16.2068-16.6132 35.8908-26.6835 58.6295-30.8954 2.8657-.5308 5.8091-.6422 8.7166-.9478.9578 1.1054 1.9155 2.2109 2.8733 3.3164z" fill="#f4c1c1"/><path d="m385.4932 345.6161c-2.5782 2.2564-5.8637 2.5593-9.0044 3.2756-5.3883 1.2289-10.7566.5982-16.1658.066-5.4641-.5376-10.9659-.6909-16.4514-1.0128.9404-2.7575.9404-2.7575-2.248-9.1634 2.1368.2602 4.1013.4502 6.05.7451 9.9485 1.5055 19.8962 3.0175 29.8367 4.5749 2.6744.419 5.3226 1.0052 7.9829 1.5146z" fill="#e66b6c"/><path d="m271.8911 192.9616c5.1622 4.312 10.3243 8.624 15.4606 12.9143.0189.1833.0938.3555.0374.4426-2.1417 3.3071-4.0469 6.8128-6.5477 9.8235-1.3349 1.6071-3.591 2.6335-5.6223 3.4424-5.6273 2.241-11.399 4.1208-17.0161 6.3856-1.6868.6801-3.0531 2.1552-4.7669 3.4133-.9756-1.5736-1.8877-3.0449-2.921-4.7116 2.405-1.2319 4.5772-2.3348 6.7406-3.4545 7.2107-3.7318 14.4337-7.4401 21.621-11.2166 3.9819-2.0923 4.266-4.3967.752-7.2993-3.2495-2.6842-5.8499-5.848-8.1185-9.3289.1269-.1369.2539-.2738.3809-.4108z" fill="#cc5f5e"/><path d="m291.8344 439.8422c-.4035-.0493-.5392-.0507-.6666-.0837-4.2309-1.0945-5.7099-3.8573-6.3208-8.1769-1.2576-8.8916-1.6148-17.7892-1.4716-26.7169.0368-2.2938.8013-4.7357 1.8195-6.8227 2.6275-5.3858 5.5803-10.6131 8.4166-15.8965.1787-.3329.4728-.6038.7132-.9036.2089.0242.4179.0484.6269.0727-.0396.8067.1129 1.6826-.1487 2.4095-2.4453 6.7914-5.1282 13.503-7.3631 20.3613-.7415 2.2755-.8347 4.9821-.449 7.3663 1.4659 9.0613 3.2525 18.0708 4.9019 27.1027.0698.3827-.0317.7967-.0583 1.2878z" fill="#cc5f5e"/><path d="m327.5113 336.7443c5.6704-.3681 8.9599 2.1647 11.2458 8.5236-3.9178 2.3287-7.8764 4.6872-11.8404 7.0367-8.7012 5.1573-17.8136 9.4318-27.2097 13.1874-2.8584 1.1425-5.2417 3.4739-7.9691 5.3477-.7735-.9028-1.2481-1.8149.5706-2.8893 11.4385-6.7576 22.8267-13.6006 34.2349-20.4098 4.1955-2.5042 4.5624-3.928 2.143-8.2561-.4195-.7506-.7274-1.5635-1.1751-2.5402z" fill="#ca5e5d"/><path d="m409.2645 269.3126c1.0717 3.8584.3255 5.5874-3.3181 7.3892-5 2.4725-10.0391 4.8663-15.0247 7.3672-.7098.3561-1.2126 1.1248-1.8116 1.7023-2.8508-1.663-5.7012-3.3257-8.5515-4.9884 1.777-1.2261 3.554-2.4523 5.3309-3.6785 7.7917-2.5973 15.5834-5.1945 23.375-7.7918z" fill="#e66b6c"/><path d="m396.0773 322.9464c.4702 3.2572-1.4388 5.2029-3.8795 6.7322-1.2448.7799-2.7042 1.2104-4.0309 1.8707-.4262.2122-.7379.6544-1.1024.9915-2.322-1.2681-4.6435-2.5361-7.5206-4.1077 5.8245-1.9329 11.1789-3.7098 16.5334-5.4867z" fill="#e46a6b"/><path d="m394.9353 307.4295c-2.4725 1.4948-4.9498 2.9819-7.4118 4.4939-.3083.1893-.536.5097-.8015.7692-2.1158-.6145-4.2312-1.2289-6.3466-1.8432.0204-.1846.0409-.3692.0613-.5538 4.833-.9553 9.6658-1.9107 14.4986-2.8661z" fill="#de6768"/><path d="m358.0051 107.2721c-.9578-1.1055-1.9155-2.211-2.8733-3.3165 4.2442-.1229 8.4886-.2457 12.733-.3685-2.4777 1.0879-4.9557 2.1758-7.434 3.2635-.8089.1404-1.6173.281-2.4257.4215z" fill="#eca1a2"/><path d="m255.3601 231.4289c.5891.3116 1.4112.4714 1.7296.9596 2.0481 3.1404 3.9893 6.3506 5.949 9.5481.0863.1408.011.3806.011.9176-1.033-.1133-1.991-.2184-2.7169-.2981 0-.6706.2271-1.4132-.0381-1.8699-1.3698-2.3589-2.8691-4.6424-4.3149-6.9576-.3533-.5659-.6749-1.1516-1.011-1.7282.1304-.1905.2608-.381.3913-.5715z" fill="#bb5756"/><path d="m388.7885 295.157c-.6954 1.3576-1.3908 2.7153-2.0865 4.0728-2.6226-.602-5.2448-1.2039-7.867-1.8058-.0124-.1681-.0247-.3361-.0371-.5042z" fill="#de6768"/><path d="m385.8896 277.1044c-1.7769 1.2262-3.5539 2.4523-5.3309 3.6785-1.1233-.4162-2.2464-.8324-3.3695-1.2486.0099-.1379.0198-.2758.0297-.4137 2.8902-.6721 5.7804-1.3441 8.6707-2.0162z" fill="#df898a"/><path d="m253.4328 241.4446c.0389-.1869.0778-.3738.1169-.5607 1.7123.3601 3.4244.7201 5.1365 1.0802-.0216.1293-.0433.2587-.065.388-1.7295-.3024-3.4589-.6049-5.1884-.9075z" fill="#bb5756"/><path d="m37.5671 152.3117c8.6672-5.2938 17.7322-5.4906 26.9591-1.8343 3.5147 1.3928 6.1898 4.0574 8.6724 7.1915-.8058.3685-1.4685.6715-2.1314.9746-2.0223.1881-4.0812.195-6.0597.5974-6.5432 1.331-13.0112 1.6527-19.1042-1.5863-2.9045-1.5442-5.5651-3.5475-8.3362-5.3429z" fill="#f9f9f9"/><path d="m37.5671 152.3117c2.7711 1.7954 5.4316 3.7987 8.3363 5.3429 6.093 3.239 12.561 2.9173 19.1042 1.5863 1.9785-.4025 4.0374-.4093 6.0597-.5974-5.529 4.4744-11.9056 6.8075-18.9567 7.0762-3.1026.1182-6.2847-.0935-9.3255-.6908-2.2632-.4446-4.554-1.4538-6.4854-2.7348-3.9326-2.6085-3.2472-7.2731 1.2674-9.9824z" fill="#bcdcec"/><path d="m261.1768 45.4922c4.9354-.3219 7.7806 2.294 7.7604 7.2097-.0205 4.979-1.6217 9.5096-4.0719 13.7772-3.424 5.9635-6.8588 11.9207-10.289 17.8805-.188-.0137-.376-.0273-.564-.041-1.0363-3.4162-2.0725-6.8323-3.1088-10.2485 1.78-4.0835 3.7996-8.0822 5.2798-12.2715 1.892-5.355 3.349-10.8638 4.9935-16.3064z" fill="#bddded"/><path d="m261.1768 45.4922c-1.6445 5.4426-3.1014 10.9514-4.9935 16.3064-1.4802 4.1894-3.4999 8.1881-5.2798 12.2715-2.5611-7.8444-2.9503-15.5858 1.1754-23.0814 1.9633-3.5669 5.0029-5.4226 9.0979-5.4965z" fill="#f7f7f7"/><path d="m211.1271 444.2953c.3027-.1415.6008-.294.9095-.421.2454-.1009.5036-.1706.9507-.3185 1.3234 3.5542 1.1639 7.0946.3102 10.61-1.7302 7.1249-5.7737 12.2394-13.0315 14.361-2.5589.748-5.0769.5806-7.0305-1.4306-1.7169-1.7675-1.893-3.9621-1.0253-6.243 1.913-.3999 3.8245-.8067 5.7393-1.198 2.7794-.568 4.9786-1.9682 6.5719-4.3571 1.2748-1.9116 2.7681-3.684 3.9596-5.6427 1.0316-1.6958 1.7753-3.5667 2.6461-5.3601z" fill="#bddded"/><path d="m211.1271 444.2953c-.8709 1.7935-1.6145 3.6643-2.646 5.3601-1.1915 1.9587-2.6848 3.7311-3.9596 5.6427-1.5933 2.389-3.7925 3.7892-6.5719 4.3571-1.9147.3913-3.8263.7981-5.7393 1.198 2.9374-9.3674 10.2308-13.7582 18.9168-16.5579z" fill="#f7f7f7"/><path d="m475.5262 415.0264c-1.7913 3.5203-4.9976 3.8961-8.3801 3.6263-7.258-.5791-12.2636-4.8019-14.0821-11.8423-.7079-2.7406-1.2432-5.5259-1.9485-8.7025 1.6797.3515 2.8998.6068 4.12.8622 2.1546 2.9825 3.9698 6.3063 6.5443 8.8666 3.7557 3.735 9.0054 5.0769 13.7464 7.1897z" fill="#bddded"/><path d="m475.5262 415.0264c-4.741-2.1128-9.9907-3.4547-13.7464-7.1898-2.5745-2.5603-4.3897-5.8841-6.5443-8.8666 7.9973.0563 14.8052 2.6544 19.8295 9.1709 1.9178 2.4875 2.0996 4.3687.4612 6.8855z" fill="#f8f8f8"/><path d="m86.8836 134.3084c-6.0607-4.0137-11.1627-8.9101-14.3027-15.5978-.5547-1.1814-1.1621-2.4337.122-3.5393 1.2186-1.0492 2.4848-.5892 3.5623.2019 1.4087 1.0342 2.6947 2.2356 4.0335 3.3651.2143.191.4285.3821.6427.5731 0 0 .0832.0322.0818.033.0936.7581.0233 1.5855.3102 2.2613 1.8059 4.2529 3.6911 8.4723 5.5502 12.7027z" fill="#bad7e8"/><g fill="#eae7e7"><path d="m86.8836 134.3084c-1.859-4.2305-3.7443-8.4498-5.5501-12.7029-.2869-.6758-.2167-1.5032-.3102-2.2613 4.8244 4.3819 6.9509 10.1561 8.3839 16.2826.0359.1534-.1354.3553-.21.5346l.0252-.0353c-.7797-.6058-1.5593-1.2117-2.3388-1.8177z"/><path d="m80.9413 119.3113c-.2142-.191-.4284-.382-.6427-.5731.2143.191.4285.3821.6427.5731z"/><path d="m89.1971 136.1615c.0874-.0394.1747-.0788.2621-.1181-.0184.0172-.0346.0451-.0557.0495-.0568.0119-.1157.0138-.1775.0265-.0038.0068-.0289.0421-.0289.0421z"/></g><path d="m478.6855 369.1243c-2.8197 3.0413-8.7603 3.1621-12.4122.5969-1.8585-1.3055-3.5477-2.852-5.3134-4.2896.0341-.2087.0683-.4174.1025-.6261l6.429-.8103c1.0603.5781 2.0874 1.2309 3.1874 1.7195 2.6508 1.1774 5.3356 2.278 8.0067 3.4096z" fill="#bad7e8"/><path d="m478.6855 369.1243c-2.6711-1.1316-5.356-2.2322-8.0067-3.4096-1.1-.4886-2.1271-1.1414-3.1874-1.7195 3.7481-.8501 7.4156-.7595 10.8664 1.1167 2.3951 1.3022 2.4415 2.2648.3277 4.0124z" fill="#eae7e7"/></g></svg>