<svg id="Layer_1" enable-background="new 0 0 512 512" height="512" viewBox="0 0 512 512" width="512" xmlns="http://www.w3.org/2000/svg"><g><path d="m445.4528 415.8591c-34.0533-7.0966-67.8489-12.3441-100.8299-22.485.5157 4.2133.9743 8.2761 1.5199 12.3271.5494 4.0792 1.1658 8.1497 1.7929 12.2178.2605 1.6901-.5109 2.3508-2.0967 2.6003-8.0734 1.2705-16.1354 2.6133-24.205 3.9085-22.6519 3.6354-45.3011 7.2878-67.9597 10.8805-21.8799 3.4693-43.7961 6.7166-65.6486 10.3482-22.1087 3.6743-44.1228 7.9252-66.2488 11.4862-12.955 2.0851-26.0493 3.3018-39.0763 4.9458-1.8904.2386-2.6954-.4379-2.9553-2.3489-2.8714-21.1177-5.8201-42.2248-8.7166-63.3391-3.2513-23.701-6.492-47.4035-9.6949-71.1111-1.7144-12.6897-3.3397-25.3915-5.028-38.2621-1.6533-.2731-3.3194-.4908-4.9604-.83-5.2543-1.0862-7.1687-4.2839-5.3669-9.3314.6526-1.8281.5615-3.1106-.5757-4.7638-2.5106-3.6496-2.025-7.095 1.0525-10.2901.5871-.6096 1.1769-1.3061 1.9106-1.6694 3.303-1.636 3.7653-4.1128 3.1761-7.594-5.442-32.154-10.6558-64.3466-16.0774-96.5042-3.4662-20.5592-7.1712-41.0782-10.7666-61.6156-.1673-.9554-.3091-1.9152-.4908-3.0473 86.9906-13.5695 173.7401-27.9899 261.5899-35.2328 1.3708 6.6441 2.7245 13.1574 4.0573 19.6749 2.4873 12.1633 4.9918 24.3232 7.4041 36.5014.2879 1.4534 1.2435 1.5066 2.2372 1.6762 11.1486 1.9035 22.3023 3.777 33.4515 5.6769 22.7456 3.876 45.481 7.813 68.2366 11.6292 16.3749 2.7461 32.791 5.2484 49.1606 8.0247 13.7738 2.336 27.5072 4.9104 41.7565 7.4686-17.3346 89.5027-32.5592 179.0511-46.6481 269.0585zm-248.246-159.9761c.2007.1935.4014.3869.602.5804l-.0274.0032c.1764.2707.3164.5758.5346.8071 7.8182 8.2884 13.8901 17.7073 18.4676 28.1357 1.1725 2.671 2.7125 5.1933 4.2307 7.6947.7501 1.2359 1.8553 2.1611 3.2905.6523.9063-1.8461 2.2136-3.6047 2.6389-5.5557 1.0206-4.6808-1.189-8.5232-3.9809-12.0389-6.8363-8.6087-15.0315-15.8038-23.6416-22.5569-1.3784-1.0811-2.9383-1.4915-5.1088-.9786.8563.9848 1.5112 1.738 2.1661 2.4912.2649.2422.5297.4845.7946.7267zm226.8438 121.5413c.2962.5158.5923 1.0317.8885 1.5476.5744 1.0794 1.1147 2.1787 1.7289 3.2349 3.5345 6.0774 7.0867 12.1446 10.6328 18.2152.6489 1.3441 1.2977 2.6881 1.9466 4.0322 11.4065-82.1553 25.4407-163.6903 43.3549-245.0517-4.2072 2.2529-8.0291 4.2995-11.851 6.346-.655.2903-1.3219.5563-1.9632.8743-13.2809 6.5861-26.5471 13.2019-39.8408 19.762-12.4153 6.1266-24.8818 12.1495-37.2843 18.3016-14.5551 7.2198-29.0655 14.5297-43.595 21.8011-3.0793 1.541-6.1572 3.0847-9.456 4.7375.9255 1.4215 1.731 2.6586 2.5365 3.8957 4.2343 7.1876 8.4523 14.3848 12.7064 21.5606 7.5488 12.7335 15.1194 25.454 22.6808 38.18.1307.1531.2614.3062.392.4593l-.0184.0097c1.5352 3.0133 2.9467 6.0975 4.6255 9.0285 11.9377 20.8422 23.9121 41.6633 35.9222 62.4639 2.0787 3.6002 4.3821 7.0707 6.5817 10.6011l.0121-.1045zm-266.9794-73.6552c2.9934.6889 4.2417-.0662 4.445-3.1179.1817-2.7263.0984-5.4832-.0538-8.2163-.3899-6.997.3612-13.8221 2.7495-20.4364 2.9236-5.1686 6.3958-9.9182 11.0431-13.9675-1.4214-.8436-2.5718-1.5263-3.7634-2.2336-1.5414 1.8977-2.9118 3.6393-4.3392 5.3329-6.9185 8.2084-11.8689 17.3153-13.0065 28.1927-.4222 4.0366-.7535 8.0575.4922 12.0254.3929 1.2517.9107 2.3278 2.4331 2.4207zm146.9255-72.2771c.2635.1512.527.3024.7906.4536-.6305.164-1.2526.3789-1.8927.4845-9.0845 1.4987-18.1707 2.9878-27.2581 4.4691-18.8869 3.0787-37.7728 6.1633-56.6634 9.219-5.2101.8428-10.4275 1.619-15.3883 4.453 1.1661.816 2.2065 1.544 3.247 2.272 1.0009 1.616 2.4561 1.6226 4.131 1.3331 10.3695-1.7925 20.7037-3.8845 31.1348-5.2041 18.9927-2.4028 38.0502-4.2896 57.0696-6.4876 7.5305-.8703 15.0307-2.0015 22.5464-3.0014 1.4203-.189 2.4837-.7748 2.8574-2.2657.3857-1.5388.0365-2.8909-1.1822-3.8961-.5829-.4807-1.3551-.7319-2.0416-1.0871-1.3153-.4887-2.6306-.9774-3.9468-1.4663-.0181-.3575-.0361-.7151-.0542-1.0727.7607-1.3469 1.5214-2.6939 2.2821-4.0408.092-.6723.3888-1.3944.2395-2.008-.5654-2.3235-2.5821-3.3216-5.4353-2.85-20.4237 3.3764-40.8371 6.8181-61.2775 10.0901-8.3868 1.3425-16.8415 2.2569-25.2428 3.5158-1.4257.2136-2.7377 1.1866-4.1022 1.8087-2.4462 2.4939-4.8924 4.9879-7.4837 7.6298.4732.0783.657.1557.8249.1299 16.3273-2.5066 32.6375-5.1306 48.9847-7.4997 12.5962-1.8254 25.2388-3.3312 37.8608-4.9791zm-254.1991 35.0393c-.0367 3.2843 1.5677 4.535 4.9121 3.7818 6.436-1.4495 12.8485-3.0087 19.3034-4.3672 20.6025-4.336 41.267-8.3292 62.1805-10.9018 4.2358-.5211 8.458-1.1534 12.6864-1.7344.0027-.0974.0055-.1947.0082-.2921-3.2892-1.0078-6.5784-2.0156-9.8677-3.0235-2.4125-1.6278-4.9123-3.0647-7.9816-2.523-18.1344 3.2004-36.2717 6.3855-54.3914 9.6677-7.3212 1.3261-14.6031 2.8703-21.8971 4.3439-2.9183.5896-4.5414 2.2892-4.9528 5.0486zm156.4298 9.7801c-1.3126-2.3188-2.4453-4.7649-3.9766-6.929-2.8531-4.0324-5.9382-7.9007-9.0312-11.9749-1.2203.9201-2.1941 1.6544-3.1678 2.3886-2.7481.2231-5.5026.3903-8.2409.7004-.9174.1039-2.0355.3242-2.6446.9188-2.1255 2.0745-4.0685 4.336-6.0808 6.5265-3.1317 3.3949-5.1376 7.3295-5.7259 11.9437-.0821.4485-.222.8951-.2376 1.3459-.2308 6.6536-.4551 13.3074-.6599 19.9619-.1339 4.3509-2.4135 7.2751-6.3207 8.0483-4.26.8429-8.5094-.9348-9.8197-4.5641-.8659-2.3983-1.465-5.061-1.4097-7.5884.1113-5.0799.7518-10.1482 1.1739-15.2213 1.9347-4.7668 3.8694-9.5336 5.9876-14.7523-2.0336.5853-3.4625.9965-4.8914 1.4078-7.6191 1.6989-15.2357 3.4095-22.8581 5.094-10.1915 2.2523-20.3874 4.4844-30.5814 6.7252-5.4945 1.0395-10.989 2.0789-16.4836 3.1184-5.1998.8795-10.3996 1.759-15.6329 2.6442.3667 2.0057.6573 3.5951.9479 5.1844.4844 4.017.9426 8.0373 1.4578 12.0503 1.8891 14.713 3.858 29.416 5.6811 44.1372 1.8392 14.8517 3.6396 29.7097 5.2751 44.5849 1.6496 15.0029 3.0817 30.0298 4.5965 45.0475.53 5.2543 1.0226 10.5124 1.556 16.0132 7.9082-1.2293 15.569-2.4201 23.2298-3.6109 7.0759-1.3372 14.1518-2.6744 21.2276-4.0116.964-.1512 1.9316-.2822 2.8914-.4565 17.4274-3.1644 34.8215-6.5273 52.289-9.452 20.4328-3.4213 40.9225-6.5066 61.4005-9.6536 18.023-2.7697 36.0623-5.4332 54.0973-8.1244 10.1459-1.5139 20.2976-2.9888 30.4466-4.4812 3.088-.3076 6.176-.6152 9.3301-.9295-9.039-55.5372-18.0171-110.7002-27.0236-166.038-1.2128.3087-2.2071.5618-3.2015.8148-.5186-.006-1.0429-.0646-1.5551-.0101-9.1558.9744-18.3181 1.8941-27.4632 2.9617-19.5318 2.2802-39.0555 4.6298-58.5796 6.9749-2.7316.3281-5.447.7912-8.5202 1.2433 4.8908 5.4548 9.4601 10.5538 14.0373 15.6457.1673.1862.4123.3025.6211.4514.3864.7504.767 1.5038 1.1601 2.2506 2.7092 5.1469 3.8943 10.4577 1.7443 16.1296-.4716.8512-.9277 1.7114-1.4172 2.5522-3.0192 5.1862-8.4837 5.8044-12.4252 1.2513-1.4756-1.7045-2.6529-3.7142-3.7197-5.7162-2.5715-4.8261-4.9978-9.73-7.4829-14.6027zm-28.2694-35.1547c-.7114-2.2257-1.3567-4.4751-2.1451-6.6732-4.4995-12.5435-13.4408-19.8821-26.4637-22.2446-5.8271-1.0571-11.311-.2618-15.8538 4.006-5.2709 4.1392-6.9391 10.7573-4.1166 16.8464 3.1182 6.7269 8.5181 10.9728 15.5837 12.5883 6.0188 1.3761 12.2341 1.9053 18.3706 2.7496 4.2643.5867 8.2772 1.6309 11.6594 4.5729 1.1051.9613 2.7449 1.3079 4.584 2.1353-.3074-4.2126-.5421-7.9088-.8733-11.5963-.0727-.8105-.4878-1.5904-.7452-2.3844zm-14.1845 16.7388c1.6208-1.6964 3.2417-3.3928 4.8625-5.0892-.849-.3296-1.3675-.3229-1.8728-.2381-25.4337 4.2666-50.8817 8.4505-76.2919 12.853-11.3846 1.9724-22.6981 4.3587-34.0333 6.6104-4.0231.7992-5.6707 2.7674-5.8539 6.6626-.7323 1.4102-.0804 2.2585 1.2764 2.2886 2.9963.0665 6.0515.2507 8.9857-.2193 6.6934-1.0721 13.314-2.5894 19.9897-3.7827 25.6239-4.5807 51.2594-9.0962 76.8819-13.6845.9598-.1719 2.0157-.6577 2.7003-1.3299 1.2477-1.2253 2.2504-2.7001 3.3554-4.0709zm20.7234-30.0839c-.3948 1.4212-.9867 2.8214-1.1419 4.2683-.2907 2.7105.0686 5.5431-.556 8.1543-1.2102 5.06.1341 9.9346.1746 14.8311 2.8371.6582 5.2745-.1728 6.4785-2.0701-1.0847-.2353-2.1694-.4706-3.7579-.8152 1.4244-.7423 2.324-1.2112 3.2237-1.68 7.9864-2.7273 15.8814-5.6833 22.8623-10.5546 8.0843-5.6412 13.0712-13.0877 12.8509-23.3111-.1129-5.239-1.0359-10.2932-5.8305-13.4422-5.5484-3.6441-11.5744-3.489-17.1629-.4948-9.9503 5.331-14.2864 14.7855-17.1408 25.1143zm-108.3138 23.1393c4.7097-.9152 9.4194-1.8304 14.129-2.7456.5844-.0465 1.1764-.0486 1.7522-.146 8.0525-1.3633 16.1044-2.7307 24.153-4.1166 3.7806-.651 7.554-1.3439 11.5864-2.0634-.5815-.8705-1.0334-1.4927-1.4294-2.1486-2.3554-3.9005-4.3044-7.94-4.1957-12.6577.2579-11.1833 10.0067-20.9146 21.8755-20.9294 14.7498-.0184 26.3032 6.3256 34.0908 19.0762.2751.4505.5755.8855.9436 1.4496 2.0453-4.591 3.8226-8.9541 5.9031-13.1675 3.5658-7.2213 8.4785-13.1512 16.2587-16.2328 12.688-5.0255 27.7244.2103 28.7312 17.6379.2596 4.4937-.3891 8.8327-1.7518 13.227.5851.0343 1.0348.1311 1.4644.0747 3.4348-.4508 6.8681-.915 10.2977-1.4043 15.5926-2.2246 31.1863-4.4423 46.7742-6.6996 4.5831-.6637 9.1485-1.4491 13.722-2.1788h7.1997c-9.3992-50.903-18.7139-101.3485-28.0406-151.8589-1.1289.0977-1.9732.1475-2.8117.2467-17.1278 2.0262-34.2549 4.0585-51.3823 6.0886-13.6904 1.6228-27.4057 3.0609-41.066 4.9064-24.9234 3.367-49.8197 6.9367-74.715 10.5069-7.032 1.0084-14.0217 2.3125-21.0308 3.481-8.8812 1.3232-17.7623 2.6464-26.6433 3.9696-1.0269.1131-2.0573.2017-3.0802.3435-4.4832.6216-8.9643 1.2587-13.4462 1.8902-4.3225.4334-8.645.8668-13.1935 1.3228 11.317 51.7613 21.5647 103.3981 28.9363 155.7508 5.202-1.259 10.0854-2.4409 14.9687-3.6227zm252.0684-8.5226c-1.4922.8056-2.9525 1.6799-4.4876 2.3935-1.0979.5103-1.2881 1.1534-1.0807 2.3148 1.2849 7.1942 2.5075 14.3998 3.6982 21.6104 2.3501 14.2317 4.7672 28.4533 6.9658 42.7086 1.9894 12.8994 3.7637 25.8325 5.56 38.7608 1.5182 10.9273 2.898 21.8738 4.4545 32.7954.1305.9161.9805 2.2234 1.7669 2.4638 2.859.8742 5.8332 1.372 8.7639 2.0117.7976.2777 1.5772.634 2.3955.8206 6.3625 1.4507 12.7114 2.9717 19.1041 4.2767 15.9874 3.2637 31.9958 6.4247 47.9958 9.6269 3.4608.7076 6.9217 1.4152 10.7576 2.1996-.583-1.0256-.9138-1.6557-1.288-2.2587-5.7215-9.2186-11.5315-18.3833-17.1552-27.6611-8.5378-14.0852-17.1216-28.1474-25.3634-42.4058-8.7954-15.2161-17.1204-30.7034-25.83-45.97-7.3814-12.9385-15.0241-25.7278-22.5395-38.59-2.6977-4.617-5.3611-9.254-8.0825-13.9552-1.766.6936-3.8138.9341-4.0511 3.3972-.5281 1.8203-1.0562 3.6405-1.5843 5.4608zm3.6676-14.4389c.9998-.4265 2.0242-.8033 2.9958-1.2866 24.5691-12.2216 49.1179-24.484 73.7027-36.6737 14.1664-7.0241 28.3896-13.9338 42.5871-20.8954 3.9776-1.9504 7.9546-3.9021 11.9318-5.8532 6.0762-2.5511 12.1534-5.0998 18.2263-7.6588.4376-.1844.8434-.4445 1.6673-.8851-1.3561-.2519-2.2316-.4347-3.1139-.5754-9.3501-1.4909-18.7097-2.924-28.0503-4.4725-15.8518-2.628-31.6981-5.2911-47.5354-8.0058-22.5905-3.8722-45.1754-7.7774-67.7525-11.7269-6.6878-1.1699-13.3413-2.5365-20.0106-3.813-1.0566-.2186-2.1133-.4372-3.1699-.6558-4.6348-1.0096-9.2697-2.0191-14.1334-3.0786.1124.8111.1641 1.376.2714 1.9301 2.6577 13.7212 5.3519 27.4353 7.9756 41.1629 3.1146 16.2958 6.1858 32.5999 9.2264 48.9097.3248 1.7423 1.0016 2.7043 2.8685 3.1525 4.1867 1.0052 6.1677 4.3696 5.3762 8.6354-.2834 1.5275-.6233 3.0445-.9786 4.7661 3.4454.8623 5.5747-1.3507 7.9155-2.9759z" fill="#47191b"/><path d="m330.7229 413.3325c-10.1491 1.4924-20.3008 2.9673-30.4467 4.4812-18.035 2.6912-36.0743 5.3547-54.0973 8.1244-20.478 3.1469-40.9677 6.2323-61.4005 9.6536-17.4675 2.9247-34.8616 6.2876-52.289 9.452-.9598.1743-1.9274.3053-2.8914.4563-.6796-4.8792-1.1969-9.7878-2.0766-14.6305-1.3452-7.4049-2.9808-14.7565-4.41-22.1468-.578-2.989-.9372-6.0204-1.3959-9.0325.3618-.1307.7138-.312 1.087-.3848 13.5609-2.6462 27.149-5.1608 40.6743-7.9767 5.7918-1.2059 11.4537-3.0361 17.1746-4.5827 2.2974-.2556 4.5997-.494 6.6572-1.5766-.0579-.2331-.1157-.4662-.1735-.6994-2.1518.5507-4.3036 1.1013-6.4554 1.6519-11.2289 1.9987-22.4722 3.9207-33.6821 6.0208-8.8358 1.6553-17.6304 3.53-26.4433 5.3073-.9936-5.4204-1.9429-10.8494-2.9914-16.2592-1.4812-7.6422-3.0357-15.2702-4.5589-22.9043.6231-.183 1.2348-.4399 1.871-.5385 19.5659-3.0308 39.1211-6.1348 58.7055-9.0415 25.0186-3.7132 50.0711-7.198 75.0885-10.9183 10.7298-1.5956 21.4083-3.5364 32.1101-5.3204 6.782-1.0017 13.5641-2.0034 20.3462-3.0051-.0254-.1742-.0507-.3484-.0761-.5227-2.9742.2913-5.9612.4898-8.9194.8972-3.7826.5209-7.5419 1.2103-11.3113 1.827-.5219.0175-1.048-.0012-1.5651.058-9.279 1.0603-18.5579 2.121-27.8347 3.1998-10.315 1.1996-20.6361 2.3518-30.9396 3.644-12.5036 1.5681-24.997 3.221-37.4849 4.9109-14.0448 1.9005-28.0982 3.7521-42.11 5.875-9.681 1.4667-19.2978 3.3575-28.9434 5.0587-.2149-1.4117-.367-2.8365-.6558-4.233-1.1966-5.7853-2.4837-11.5522-3.6469-17.344-2.3894-11.8975-4.7339-23.8041-7.0665-35.7129-.6106-3.1174-1.11-6.2566-1.6605-9.3858 1.8818-.3921 3.7474-.9164 5.6487-1.1507 5.0287-.6197 10.0704-1.1375 15.1114-1.6513 5.2345-.5336 10.4755-1.0023 15.7113-1.5239 3.6829-.3669 7.3712-.7031 11.0384-1.1929 1.9605-.2619 2.4055.0523 2.039 2.1091-1.0141 5.6918-2.0584 11.3782-3.0826 17.0683-.621 3.4499-.9082 6.8967 1.0601 10.0443 2.353 3.7627 5.9279 5.6024 10.2509 5.2903 3.9585-.2857 7.2455-2.2394 9.0413-5.962.8958-1.8571 1.292-3.9481 2.0557-5.8773 3.1978-8.0776 5.3581-16.4207 6.5591-25.0185.013-.1201.0266-.2403.0407-.3604 1.176-.0328 2.36.0108 3.5267-.1113 5.7454-.6013 11.4893-1.2199 17.2267-1.8917 1.8499-.2166 2.6418.3633 2.4084 2.3187-.4118 3.4488 1.3254 5.9518 3.7043 8.2071 2.8719 2.7226 5.6719 5.5233 8.4451 8.3471 2.265 2.3062 4.0836 5.1797 7.3409 6.2428 4.8322 1.5771 10.6507-.5657 13.365-4.9117.9017-1.4438 1.8004-3.0421.8706-4.8839 2.15-5.672.9649-10.9827-1.7443-16.1296-.3931-.7469-.7737-1.5003-1.1599-2.2507 1.8767-.1737 3.7547-.3336 5.6295-.5236 6.1976-.6284 12.3925-1.2836 18.5916-1.8961 3.2322-.3194 6.4736-.5444 9.7063-.8594 4.9081-.4783 9.8076-1.0488 14.7191-1.4861 5.242-.4666 10.4948-.8119 15.7411-1.2323 6.3451-.5084 12.6883-1.0399 19.0323-1.5615.1523 1.4221.3041 2.8443.4571 4.2663.4308 4.005.8324 8.0134 1.3009 12.0139.5815 4.9651 1.2401 9.9211 1.8254 14.8858.5857 4.9677 1.0771 9.9468 1.6923 14.9107.7026 5.6695 1.5029 11.3269 2.2489 16.9911.8227 6.2458 1.594 12.4987 2.4569 18.7389.9694 7.0103 2.0618 14.0037 3.0164 21.0159.9985 7.3343 1.8553 14.688 2.851 22.0227.9783 7.2067 2.0531 14.4002 3.0855 21.5995zm-162.6183-2.9403c-.5284.1131-1.0569.2262-1.5853.3394-1.4359.2258-2.8718.4515-4.3077.6773.0272.1707.0544.3414.0815.5121 1.4246-.2078 2.8491-.4155 4.2737-.6233.504-.0653 1.008-.1307 1.512-.196l.7983-.0585c11.0548-2.3601 22.1096-4.7203 33.1644-7.0804-.0382-.1727-.0764-.3453-.1146-.518-3.109-.6204-18.6655 2.5817-33.104 6.8141-.2395.0444-.4789.0889-.7183.1333zm44.8036-29.8408c-2.4068.3289-4.8204.6319-7.1144 1.3897.0618.2783.1236.5565.1853.8348l6.8721-1.5237c8.1212-.7599 16.2969-1.1532 24.3529-2.3513 20.8456-3.1 41.6384-6.5548 62.4523-9.868 3.966-.4403 7.9321-.8806 11.8981-1.3209-.0336-.2589-.0672-.5179-.1008-.7768-3.9072.4702-7.8144.9403-11.7216 1.4105-1.2971.1448-2.5979.2628-3.8908.4385-20.4921 2.7846-40.9888 5.5369-61.4716 8.3884-7.1716.9985-14.3086 2.2454-21.4615 3.3788zm63.0132 11.2158c-.6959-.1161-1.0562-.2646-1.3898-.2189-6.7918.9308-13.5869 1.8423-20.3645 2.8692-1.2852.1947-2.4984.8652-3.952 1.3911 1.5012 1.0303 23.8742-2.5271 25.7063-4.0414z" fill="#fec0aa"/><path d="m300.4881 217.9261c-4.5735.7296-9.139 1.5151-13.722 2.1788-15.5879 2.2573-31.1816 4.475-46.7742 6.6996-3.4296.4893-6.8628.9535-10.2977 1.4043-.4296.0564-.8793-.0404-1.4644-.0747 1.3626-4.3944 2.0114-8.7333 1.7518-13.227-1.0068-17.4276-16.0432-22.6634-28.7312-17.6379-7.7803 3.0816-12.693 9.0115-16.2587 16.2328-2.0805 4.2134-3.8578 8.5766-5.9031 13.1675-.3681-.5641-.6685-.9991-.9436-1.4496-7.7876-12.7507-19.341-19.0947-34.0908-19.0762-11.8687.0148-21.6176 9.7461-21.8755 20.9294-.1088 4.7177 1.8402 8.7571 4.1957 12.6577.3961.6559.8479 1.2781 1.4294 2.1486-4.0324.7195-7.8058 1.4124-11.5864 2.0634-8.0486 1.3859-16.1005 2.7533-24.153 4.1166-.5758.0975-1.1678.0996-1.7522.1458-.0325-.5871.0087-1.1892-.1086-1.7587-1.4421-6.9965-2.8329-14.0047-4.3816-20.9778-3.7058-16.6858-7.6244-33.3256-11.1896-50.041-2.1247-9.9615-3.8209-20.0176-5.5585-30.0573-.951-5.4948-1.5934-11.0432-2.3637-16.569-.6178-4.4323-1.2057-8.8689-1.83-13.3003-.9503-6.7464-1.9206-13.49-2.8824-20.2348 8.8812-1.3232 17.7623-2.6464 26.6435-3.9696 3.7003.0108 7.407.1648 11.0994.0001 6.1127-.2728 12.2152-.7694 18.324-1.1378 7.0218-.4234 14.0481-.7737 21.0678-1.2281 3.3094-.2142 6.6111-.5655 9.9103-.9119 4.2011-.4411 8.3927-.9748 12.5948-1.4048 4.4653-.4569 8.942-.8018 13.4067-1.2636 5.7535-.5951 11.5024-1.2371 17.2488-1.8975 4.9068-.5639 9.8075-1.1802 14.7104-1.7773 5.8711-.7151 11.7364-1.4821 17.6143-2.1364 4.4604-.4965 8.9409-.8098 13.4045-1.2807 5.5576-.5863 11.1078-1.2438 16.6597-1.8837 4.0655-.4686 8.135-.9105 12.19-1.4588 2.0077-.2715 2.9113.1846 3.3919 2.2056 1.4753 6.2049 2.9856 12.4027 4.3549 18.6313 2.6819 12.1998 5.3047 24.4128 7.8995 36.6315 1.6884 7.9506 3.2708 15.9236 4.9244 23.8816 3.3876 16.3031 6.7783 32.6055 10.1969 48.9021.8946 4.2642 1.8961 8.5058 2.8485 12.7578zm-118.3501-124.4727c-34.8109 3.4125-69.4875 7.8757-104.1157 12.7171.0401.3197.0802.6394.1204.9591 34.7906-3.5231 69.5251-7.5056 104.0678-13.0627 3.3662-.3544 6.7323-.7087 10.0985-1.063-.0455-.3335-.0911-.6669-.1366-1.0004-3.3448.4833-6.6896.9666-10.0344 1.4499zm-66.5864 62.9918c-1.1989-.1586-2.6182-.3355-4.0343-.5357-6.3656-.9002-12.6196-1.0227-18.5574 2.088-8.2409 4.3173-10.1094 12.2421-4.495 19.6302 1.0226 1.3456 2.1773 2.6208 3.424 3.7612 6.0863 5.5677 13.5244 8.5998 21.2523 10.9679 6.4398 1.9734 13.0623 2.5517 19.7787 1.8552 3.6843-.382 6.715-1.6777 7.9616-5.5668.5171-1.6134 1.0851-3.2128 1.69-4.7956 3.0739-8.0431 5.6248-16.1773 4.9791-24.9716-.5715-7.784-3.7429-14.0475-10.3839-18.3953-4.4069-2.8851-9.7288-2.9048-13.4937.3976-1.8301 1.6053-3.5465 3.594-4.6126 5.7553-1.4823 3.0055-2.3056 6.3359-3.5088 9.8096zm44.4418 6.2596c.6333 2.7213 1.0374 5.5216 1.942 8.1495 2.9593 8.5959 8.9378 15.0851 15.2947 21.2696 1.2773 1.2427 2.725 1.1043 4.1488.2688 6.4175-3.7663 12.8734-7.4705 19.2209-11.3517 5.4194-3.3137 8.0708-8.3914 8.5617-14.6387.4623-5.8833-3.0991-10.5249-8.829-11.5953-3.6663-.6849-6.9631.6191-10.2438 1.9473-2.9419 1.191-2.9327 1.2137-4.8087-1.3679-3.6503-5.0232-10.8962-7.579-16.3476-5.766-5.1685 1.7188-8.6012 6.9031-8.939 13.0844zm99.6274-79.6961c-13.1133-1.2989-25.6736 1.1038-37.953 5.4133 12.7126-1.3934 25.5597-1.8352 37.953-5.4133z" fill="#fdc0aa"/><path d="m437.3009 400.422c-3.5462-6.0706-7.0984-12.1378-10.6329-18.2152-.6143-1.0562-1.1545-2.1555-1.729-3.2353-.2962-.516-.5923-1.0316-.8884-1.5472l.0004-.1048s-.0121.1045-.0112.104c-.0769-.4328-.0571-.9149-.2482-1.2894-1.3046-2.557-2.6387-5.0993-3.9908-7.6317-4.1541-7.78-8.0999-15.6816-12.5285-23.3025-8.9566-15.4131-18.163-30.6812-27.3145-45.9804-.8388-1.4024-2.0239-2.5976-3.0482-3.8891 0 0 .0184-.0097.0189-.0104-.1305-.1533-.2615-.306-.3925-.4586-7.5615-12.726-15.1321-25.4465-22.6808-38.18-4.2541-7.1758-8.4721-14.3731-12.7061-21.5606.8876-.4 1.7609-.8355 2.6646-1.1944 8.007-3.1797 16.2154-5.9306 23.9899-9.6011 16.9012-7.9793 33.6458-16.2991 50.334-24.7182 15.5255-7.8325 30.0167-17.4344 44.6528-26.7758 2.3528-1.5017 4.8237-2.8186 7.2399-4.221-.5529 3.459-1.0567 6.9267-1.6686 10.3752-1.3294 7.4911-2.7579 14.9647-4.065 22.4596-1.6757 9.6081-3.2925 19.2266-4.8945 28.8473-.9077 5.451-1.7579 10.912-2.5916 16.3749-.7844 5.1404-1.5264 10.2875-2.2621 15.4352-.6993 4.892-1.3838 9.7863-2.0427 14.6839-.7626 5.6693-1.4922 11.3431-2.2322 17.0155-.5719 4.3836-1.1544 8.7659-1.7018 13.1526-.628 5.0318-1.217 10.0685-1.8332 15.1019-.5612 4.5827-1.1754 9.1592-1.6956 13.7465-.7181 6.3334-1.3444 12.6773-2.0574 19.0113-.7273 6.4608-1.5578 12.9102-2.2589 19.3737-.7296 6.7256-1.2993 13.4689-2.0674 20.1898-.2335 2.0399-.8938 4.0309-1.3584 6.0443zm13.2221-213.6269c-6.6607 1.7752-12.0316 5.94-17.705 9.5647 2.9738-1.124 5.9438-2.2819 8.6978-3.8251 3.0996-1.737 6.0046-3.8213 8.9934-5.755zm-37.3568 19.5861c1.84-.7771 3.7288-1.4807 5.0678-3.0132-.1309-.2172-.2618-.4344-.3928-.6516-1.6989 1.0701-3.3977 2.1402-5.0966 3.2103-1.9697 1.0109-3.9849 1.9427-5.9018 3.0453-15.7455 9.0565-31.4777 18.1365-47.1926 27.2462-.8662.5021-1.5428 1.3312-2.4729 2.1544 2.2513 1.3125 3.723.3283 5.1648-.5355 7.4539-4.4653 14.9399-8.8799 22.3222-13.4613 9.5464-5.9245 19.0053-11.9899 28.5019-17.9946z" fill="#fca5a5"/><path d="m463.1364 163.2804c-3.9772 1.9511-7.9542 3.9028-11.9318 5.8532-14.1974 6.9616-28.4207 13.8713-42.5871 20.8954-24.5849 12.1898-49.1336 24.4521-73.7027 36.6737-.9715.4833-1.996.8602-2.9962 1.2868-.7317-3.0759-3.3284-2.9923-5.7409-3.243-.4623-3.8902-.9177-7.6884-1.3641-11.4877-.4929-4.1952-.9716-8.3921-1.4674-12.5869-.5572-4.714-1.1268-9.4266-1.6906-14.1399-.4862-4.0643-.9584-8.1303-1.4612-12.1925-.6707-5.4192-1.3381-10.8391-2.0561-16.2522-.863-6.5052-1.7452-13.0082-2.6814-19.5032-.6305-4.3737-1.3691-8.7318-2.0593-13.0968 1.0566.2186 2.1133.4372 3.1701.6559.606.4352 1.1518 1.0678 1.8275 1.2738 4.7886 1.4602 9.5965 2.8585 14.412 4.2283 10.5051 2.9881 20.9738 6.1183 31.5396 8.8752 12.9706 3.3844 26.0055 6.5305 39.05 9.6216 9.7469 2.3097 19.544 4.412 29.3361 6.5262 7.4958 1.6183 15.0244 3.0841 22.5264 4.6739 2.6438.5603 5.2524 1.2873 7.8771 1.9382z" fill="#fca5a5"/><path d="m423.3879 402.2115c-15.9999-3.2022-32.0083-6.3632-47.9958-9.6269-6.3928-1.305-12.7417-2.8259-19.1041-4.2767-.8183-.1866-1.598-.5429-2.3956-.8206-.0114-.2614.0104-.5292-.0392-.7832-2.1319-10.925-4.3113-21.8409-6.3966-32.7747-2.3768-12.462-4.7096-24.9328-6.9875-37.4132-1.7514-9.5957-3.4331-19.2048-5.0611-28.8222-1.2374-7.3099-2.3617-14.6393-3.4976-21.966-.7177-4.6288-1.3354-9.2732-2.0525-13.9021-.4865-3.1402-1.0677-6.2656-1.6065-9.3977.5281-1.8203 1.0562-3.6405 1.5842-5.4606.5028.5829 1.1006 1.1083 1.494 1.7576 3.1758 5.2421 6.322 10.5023 9.4603 15.7671 4.9099 8.2368 9.8117 16.4785 14.7076 24.7237 8.0315 13.5258 16.1194 27.0186 24.0628 40.5958 6.621 11.3171 13.1513 22.6892 19.5648 34.1249 4.4001 7.8456 8.6012 15.8055 12.7619 23.7817 3.8985 7.4734 7.6414 15.0282 11.399 22.5739.2621.5262.0783 1.2744.1019 1.9192z" fill="#fca5a5"/><path d="m81.2591 283.4609c5.4945-1.0395 10.989-2.0789 16.4838-3.1184.2573 2.4608.5144 4.9217.7715 7.3825-4.6639.4128-9.3273.832-13.9921 1.235-1.8304.1581-2.382 1.1322-2.0722 2.8814.5776 3.2613 1.0659 6.5384 1.5839 9.8102 1.4321 9.0459 2.8659 18.0914 4.288 27.1388 1.0691 6.8014 2.0752 13.6129 3.1949 20.4059.9613 5.832 2.068 11.6398 3.067 17.4658 1.4273 8.3231 2.8112 16.6537 4.221 24.9798 1.0848 6.4067 2.1805 12.8116 3.2722 19.2171 1.3752 8.0685 2.7847 16.1314 4.1144 24.2074.791 4.8045 1.4569 9.6296 2.179 14.4454-7.6608 1.1908-15.3216 2.3816-23.2298 3.6109-.5334-5.5009-1.026-10.7589-1.556-16.0132-1.5148-15.0177-2.947-30.0446-4.5965-45.0475-1.6355-14.8752-3.4359-29.7331-5.2751-44.5849-1.8231-14.7211-3.792-29.4242-5.6811-44.1372-.5153-4.013-.9734-8.0333-1.4574-12.0502 4.6343-.5524 9.2752-1.0561 13.8933-1.7186.5824-.0835 1.4874-1.0082 1.4798-1.532-.0225-1.5292-.4313-3.0525-.6886-4.5782z" fill="#fd966e"/><path d="m108.3704 449.5118c-.7221-4.8158-1.388-9.641-2.179-14.4454-1.3296-8.076-2.7392-16.1389-4.1144-24.2074-1.0918-6.4055-2.1874-12.8104-3.2722-19.2171-1.4098-8.3261-2.7937-16.6567-4.221-24.9798-.9991-5.8259-2.1057-11.6338-3.067-17.4658-1.1197-6.7929-2.1258-13.6045-3.1949-20.4059-1.4222-9.0474-2.856-18.093-4.288-27.1388-.5179-3.2717-1.0063-6.5489-1.5839-9.8102-.3098-1.7492.2418-2.7233 2.0722-2.8814 4.6648-.403 9.3282-.8222 13.9924-1.2349.1323.0034.2644.0066.3965.0098.5505 3.1292 1.0498 6.2684 1.6605 9.3858 2.3326 11.9088 4.6771 23.8154 7.0665 35.7129 1.1632 5.7918 2.4503 11.5587 3.6469 17.344.2888 1.3965.4409 2.8213.6558 4.2328-2.0053.7885-4.0125 1.5723-6.0151 2.3677-1.1952.4748-1.723 1.3097-1.2826 3.1269 2.803-.5426 5.5819-1.0805 8.3608-1.6184 1.5232 7.6341 3.0777 15.2621 4.5589 22.9043 1.0485 5.4098 1.9978 10.8388 2.9914 16.259-2.6554.9971-5.3108 1.9944-7.9662 2.9917.0664.2093.1327.4185.1991.6277 2.9762-.4596 5.9523-.9193 8.9284-1.3789.4588 3.0121.8179 6.0435 1.3959 9.0325 1.4292 7.3903 3.0648 14.7419 4.41 22.1468.8798 4.8427 1.397 9.7513 2.0766 14.6305-7.0758 1.3372-14.1517 2.6744-21.2276 4.0116z" fill="#fead8c"/><path d="m300.4881 217.9261c-.9524-4.252-1.9539-8.4936-2.8484-12.7577-3.4186-16.2966-6.8092-32.599-10.1969-48.9021-1.6536-7.958-3.236-15.931-4.9244-23.8816-2.5948-12.2187-5.2176-24.4317-7.8995-36.6315-1.3693-6.2286-2.8796-12.4264-4.3549-18.6313-.4805-2.0211-1.3842-2.4772-3.3919-2.2056-4.055.5484-8.1245.9903-12.19 1.4588-5.5519.6399-11.102 1.2974-16.6597 1.8837-4.4636.4709-8.9441.7842-13.4045 1.2807-5.8779.6543-11.7432 1.4213-17.6143 2.1364-4.9029.5972-9.8037 1.2134-14.7104 1.7773-5.7464.6604-11.4953 1.3024-17.2488 1.8975-4.4647.4618-8.9415.8067-13.4067 1.2636-4.2022.43-8.3937.9637-12.5948 1.4048-3.2992.3464-6.601.6977-9.9103.9119-7.0197.4544-14.046.8047-21.0678 1.2281-6.1088.3683-12.2113.865-18.324 1.1378-3.6924.1648-7.3991.0108-11.0994-.0001 7.0091-1.1685 13.9987-2.4726 21.0308-3.481 24.8954-3.5702 49.7917-7.1399 74.715-10.5069 13.6603-1.8454 27.3756-3.2836 41.066-4.9064 17.1274-2.0302 34.2545-4.0624 51.3823-6.0886.8385-.0992 1.6828-.149 2.8117-.2467 9.3268 50.5105 18.6414 100.9559 28.0406 151.8589-2.5627 0-4.8812 0-7.1997 0z" fill="#fbe4db"/><path d="m76.1831 250.9509c-4.8833 1.1818-9.7667 2.3637-14.9686 3.6226-7.3716-52.3526-17.6193-103.9895-28.9363-155.7508 4.5485-.456 8.871-.8894 13.1937-1.3225.2091 1.6092.2636 3.2565.6511 4.8212 3.5356 14.2759 7.3428 28.4883 10.6409 42.8182 2.8425 12.3505 5.1426 24.8263 7.6461 37.254 1.2059 5.986 2.4314 11.9711 3.4639 17.9882 1.5489 9.0266 2.9177 18.0839 4.3969 27.1226 1.2797 7.8195 2.6064 15.6313 3.9123 23.4465z" fill="#fd966e"/><path d="m76.1831 250.9509c-1.3059-7.8152-2.6326-15.627-3.9123-23.4465-1.4792-9.0387-2.848-18.096-4.3969-27.1226-1.0325-6.0171-2.258-12.0022-3.4639-17.9882-2.5036-12.4277-4.8036-24.9036-7.6461-37.254-3.2981-14.3299-7.1053-28.5423-10.6409-42.8182-.3875-1.5648-.442-3.212-.6511-4.8213 4.4817-.6317 8.9628-1.2688 13.446-1.8904 1.0229-.1418 2.0533-.2304 3.0801-.3435.9617 6.7448 1.932 13.4884 2.8823 20.2348.6242 4.4314 1.2121 8.868 1.83 13.3003.7702 5.5258 1.4127 11.0742 2.3637 16.569 1.7376 10.0397 3.4338 20.0958 5.5585 30.0573 3.5652 16.7154 7.4837 33.3552 11.1896 50.041 1.5487 6.9731 2.9395 13.9813 4.3816 20.9778.1174.5695.0762 1.1715.1086 1.7587-4.7098.9154-9.4195 1.8306-14.1292 2.7458z" fill="#fead8c"/><path d="m311.7885 266.8878c-6.3441.5215-12.6873 1.0531-19.0324 1.5615-5.2463.4203-10.4991.7656-15.7411 1.2323-4.9115.4372-9.811 1.0078-14.7191 1.4861-3.2326.315-6.4741.5399-9.7063.8594-6.1991.6125-12.394 1.2678-18.5916 1.8961-1.8748.1901-3.7528.3499-5.6295.5236-.209-.1489-.454-.2652-.6213-.4514-4.5772-5.0919-9.1465-10.1908-14.0373-15.6457 3.0732-.4521 5.7886-.9152 8.5202-1.2433 19.5241-2.3451 39.0478-4.6947 58.5796-6.9749 9.145-1.0676 18.3073-1.9873 27.4632-2.9617.5122-.0545 1.0364.0041 1.5551.0102.1351.6329.3369 1.2598.3947 1.8996.5361 5.9348 1.0474 11.8718 1.5658 17.8082z" fill="#fdad8c"/><path d="m437.3009 400.422c.4646-2.0134 1.1249-4.0044 1.3581-6.0443.7682-6.7209 1.3378-13.4642 2.0674-20.1898.7011-6.4635 1.5316-12.9129 2.2589-19.3737.713-6.334 1.3393-12.6779 2.0574-19.0113.5202-4.5872 1.1344-9.1638 1.6956-13.7465.6162-5.0333 1.2052-10.07 1.8332-15.1019.5474-4.3867 1.1299-8.769 1.7018-13.1526.74-5.6724 1.4695-11.3462 2.2322-17.0155.6589-4.8976 1.3434-9.7919 2.0427-14.6839.7357-5.1477 1.4777-10.2947 2.2621-15.4352.8336-5.463 1.6839-10.9239 2.5916-16.3749 1.6021-9.6207 3.2188-19.2392 4.8945-28.8473 1.3071-7.4949 2.7357-14.9685 4.065-22.4596.6119-3.4485 1.1158-6.9162 1.6694-10.3747.2406-.9538.4805-1.9081.7205-2.8624 3.8219-2.0466 7.6438-4.0931 11.851-6.346-17.9142 81.3614-31.9485 162.8964-43.3549 245.0517-.6488-1.344-1.2977-2.688-1.9465-4.0321z" fill="#fad6d7"/><path d="m463.1364 163.2804c-2.6247-.6509-5.2333-1.378-7.8772-1.9383-7.502-1.5898-15.0306-3.0556-22.5264-4.6739-9.7921-2.1142-19.5891-4.2165-29.3361-6.5262-13.0445-3.0911-26.0793-6.2372-39.05-9.6216-10.5659-2.7569-21.0345-5.887-31.5396-8.8752-4.8155-1.3698-9.6234-2.7681-14.412-4.2283-.6758-.2061-1.2215-.8386-1.8275-1.2738 6.6691 1.2764 13.3225 2.643 20.0104 3.8129 22.5771 3.9495 45.162 7.8548 67.7525 11.7269 15.8373 2.7146 31.6836 5.3778 47.5354 8.0058 9.3405 1.5485 18.7002 2.9816 28.0503 4.4725.8822.1407 1.7578.3234 3.1139.5754-.8239.4406-1.2297.7007-1.6673.8851-6.0729 2.5589-12.1502 5.1076-18.2264 7.6587z" fill="#fbd6d8"/><path d="m311.7885 266.8878c-.5185-5.9364-1.0297-11.8734-1.5658-17.8082-.0578-.6399-.2596-1.2667-.3947-1.8996.9943-.2531 1.9886-.5062 3.2014-.8149 9.0065 55.3378 17.9846 110.5008 27.0236 166.038-3.1541.3142-6.2421.6219-9.3301.9295-1.0324-7.1992-2.1072-14.3928-3.0855-21.5994-.9956-7.3347-1.8524-14.6884-2.851-22.0227-.9547-7.0122-2.0471-14.0056-3.0164-21.0159-.8629-6.2402-1.6342-12.493-2.4569-18.7389-.746-5.6642-1.5463-11.3216-2.2489-16.9911-.6152-4.9639-1.1066-9.943-1.6923-14.9107-.5854-4.9647-1.244-9.9207-1.8254-14.8858-.4685-4.0005-.8701-8.0089-1.3009-12.0139-.153-1.4221-.3048-2.8443-.4571-4.2664z" fill="#fbe4db"/><path d="m313.3975 125.4872c.6902 4.365 1.4288 8.7231 2.0593 13.0968.9362 6.495 1.8185 12.998 2.6814 19.5032.718 5.4131 1.3854 10.833 2.0561 16.2522.5028 4.0622.9751 8.1282 1.4612 12.1925.5638 4.7133 1.1334 9.4258 1.6906 14.1399.4958 4.1949.9745 8.3917 1.4674 12.5869.4464 3.7993.9018 7.5975 1.3641 11.4877 2.4125.2507 5.0093.1672 5.7409 3.243-2.3403 1.6251-4.4696 3.8381-7.915 2.9759.3553-1.7216.6953-3.2386.9786-4.7661.7914-4.2658-1.1895-7.6302-5.3762-8.6354-1.8669-.4482-2.5437-1.4102-2.8685-3.1525-3.0406-16.3097-6.1118-32.6139-9.2264-48.9097-2.6238-13.7276-5.318-27.4418-7.9756-41.1629-.1073-.5541-.159-1.119-.2714-1.9301 4.8639 1.0595 9.4987 2.0691 14.1335 3.0786z" fill="#f76968"/><path d="m328.2515 242.4283c.5388 3.132 1.1201 6.2575 1.6065 9.3977.7171 4.6289 1.3348 9.2732 2.0525 13.9021 1.1359 7.3267 2.2602 14.6561 3.4976 21.966 1.628 9.6174 3.3098 19.2265 5.0611 28.8222 2.2779 12.4805 4.6107 24.9512 6.9875 37.4132 2.0854 10.9338 4.2648 21.8498 6.3966 32.7747.0496.2539.0277.5218.0392.7831-2.9307-.6397-5.9048-1.1375-8.7639-2.0117-.7864-.2405-1.6364-1.5477-1.7669-2.4638-1.5565-10.9216-2.9362-21.8681-4.4545-32.7954-1.7963-12.9283-3.5706-25.8615-5.56-38.7608-2.1985-14.2552-4.6157-28.4769-6.9658-42.7086-1.1907-7.2106-2.4133-14.4162-3.6982-21.6104-.2074-1.1614-.0172-1.8045 1.0807-2.3148 1.535-.7136 2.9953-1.5879 4.4876-2.3935z" fill="#f76968"/><path d="m470.7513 165.7486c-.24.9543-.4799 1.9086-.7205 2.8624-2.417 1.4019-4.8878 2.7188-7.2406 4.2205-14.6361 9.3415-29.1272 18.9434-44.6528 26.7758-16.6883 8.4191-33.4328 16.7389-50.334 24.7182-7.7745 3.6705-15.9829 6.4214-23.9899 9.6011-.9037.3589-1.777.7944-2.6646 1.1944-.8058-1.2371-1.6112-2.4742-2.5368-3.8957 3.2988-1.6528 6.3768-3.1965 9.456-4.7375 14.5295-7.2714 29.0399-14.5813 43.595-21.8011 12.4025-6.1521 24.8691-12.175 37.2843-18.3016 13.2937-6.5601 26.5599-13.1759 39.8408-19.762.6412-.3182 1.3081-.5843 1.9631-.8745z" fill="#f76968"/><path d="m98.911 287.735c-.1321-.0032-.2641-.0065-.3964-.0098-.2573-2.461-.5144-4.9218-.7717-7.3826 10.1938-2.2407 20.3897-4.4729 30.5812-6.7252 7.6223-1.6845 15.239-3.3951 22.858-5.0941-.5886 3.7772-1.1722 7.5552-1.7694 11.331-.1266.8004-.6586 1.7113.6733 2.0135-.4221 5.0731-1.0627 10.1414-1.1739 15.2213-.0553 2.5274.5437 5.1901 1.4097 7.5884 1.3103 3.6293 5.5597 5.407 9.8197 4.5641 3.9072-.7731 6.1868-3.6974 6.3207-8.0483.2047-6.6544.429-13.3083.6599-19.9619.0156-.4509.1555-.8974.2376-1.3459 2.3282-.0051 4.6565-.0103 6.9848-.0154-1.2009 8.5979-3.3612 16.941-6.559 25.0186-.7637 1.9292-1.1599 4.0202-2.0557 5.8773-1.7958 3.7227-5.0828 5.6763-9.0413 5.962-4.3229.312-7.8979-1.5276-10.2509-5.2903-1.9683-3.1476-1.6811-6.5944-1.0601-10.0443 1.0243-5.69 2.0686-11.3764 3.0826-17.0683.3664-2.0568-.0786-2.371-2.039-2.1091-3.6672.4899-7.3555.826-11.0384 1.1929-5.2358.5215-10.4768.9902-15.7113 1.5239-5.041.5139-10.0828 1.0317-15.1114 1.6513-1.9016.2344-3.7671.7587-5.649 1.1509z" fill="#fcac8c"/><path d="m423.3879 402.2115c-.0236-.6449.1602-1.393-.1018-1.9192-3.7576-7.5457-7.5005-15.1006-11.399-22.5739-4.1608-7.9762-8.3619-15.9361-12.7619-23.7817-6.4135-11.4358-12.9438-22.8079-19.5648-34.1249-7.9434-13.5773-16.0313-27.07-24.0628-40.5958-4.8959-8.2451-9.7977-16.4868-14.7076-24.7237-3.1383-5.2648-6.2845-10.5249-9.4603-15.7671-.3933-.6492-.9911-1.1746-1.494-1.7576.2375-2.4633 2.2853-2.7037 4.0513-3.3974 2.7214 4.7012 5.3848 9.3382 8.0825 13.9552 7.5154 12.8622 15.158 25.6516 22.5395 38.59 8.7096 15.2666 17.0346 30.7539 25.83 45.97 8.2418 14.2583 16.8256 28.3206 25.3634 42.4058 5.6237 9.2778 11.4337 18.4425 17.1552 27.6611.3743.603.705 1.2331 1.288 2.2587-3.836-.7842-7.2968-1.4918-10.7577-2.1995z" fill="#f56969"/><path d="m184.4968 227.8116c2.8544-10.3288 7.1905-19.7833 17.1407-25.1143 5.5885-2.9942 11.6145-3.1493 17.1629.4948 4.7946 3.149 5.7176 8.2032 5.8305 13.4422.2203 10.2234-4.7667 17.6699-12.8509 23.3111-6.9809 4.8713-14.8759 7.8273-22.8623 10.5545-.9314-2.0309-2.0567-3.9973-2.7562-6.1051-1.7865-5.3833-1.646-10.9999-1.6647-16.5832zm30.5871-12.2834c-2.5451-4.6472-6.9813-6.4965-11.2225-4.0819-2.7034 1.5391-5.3006 3.6666-7.2185 6.1026-4.4718 5.6799-7.3356 12.2883-9.483 19.1709-.4522 1.4492-.4443 3.0552-.5186 4.5952-.0116.2399.6742.5135 1.0375.7715.7215.4081 1.5455 1.2813 2.1478 1.1486 3.8511-.8492 7.7572-1.4534 11.2832-3.5375 3.4754-2.0542 6.3196-4.7308 9.0764-7.5987 3.1745-3.3025 5.5662-7.0672 6.9711-11.4072.768-2.3726 1.3845-4.8389.1257-7.5633-.8242.8994-1.5116 1.6496-2.1991 2.3998z" fill="#f4d000"/><path d="m50.5841 278.6942c.1832-3.8951 1.8308-5.8634 5.8539-6.6626 11.3352-2.2517 22.6487-4.638 34.0333-6.6104 25.4102-4.4024 50.8582-8.5864 76.2919-12.853.5054-.0848 1.0238-.0915 1.8728.2381-1.6208 1.6964-3.2417 3.3928-4.8625 5.0891-1.2847.1798-2.5864.2803-3.8515.5515-14.4898 3.106-28.9444 6.3846-43.4705 9.3093-9.0926 1.8307-18.298 3.0959-27.439 4.6937-9.0166 1.5761-18.0047 3.3171-27.028 4.8523-3.7699.6415-7.5985.9385-11.4004 1.392z" fill="#f4d000"/><path d="m133.4954 216.245c4.5428-4.2678 10.0267-5.0631 15.8538-4.006 13.0229 2.3625 21.9642 9.7011 26.4637 22.2446.7885 2.198 1.4337 4.4475 2.1451 6.6739-.0675.9446-.135 1.8885-.2016 2.82-3.7224-.22-7.2516-.4056-10.7752-.666-.44-.0325-.8506-.4611-1.2749-.7061 2.0253-1.1477 3.7843-2.5366 4.7577-4.762 1.1839-2.7066.8409-4.3378-1.4368-6.1589-3.8573-3.0841-8.2445-5.0277-13.0896-5.8756-1.6631-.291-3.3837-.3627-5.0768-.3516-4.1938.0275-6.9055 1.8414-7.8957 5.1368-1.0027 3.3371.3831 7.8703 3.5035 9.6614 2.2662 1.3008 4.9581 1.8596 7.4603 2.7493-.0505.0417-.0957.1098-.1523.1212-9.4458 1.9032-22.027-6.0779-19.6532-18.7537.5161-2.7566.953-5.5246-.628-8.1273z" fill="#f4d000"/><path d="m231.2728 292.8271c.9298 1.8418.0311 3.4401-.8706 4.8839-2.7143 4.3459-8.5328 6.4888-13.365 4.9117-3.2572-1.0631-5.0758-3.9366-7.3409-6.2428-2.7733-2.8238-5.5732-5.6245-8.4451-8.3471-2.3789-2.2552-4.1161-4.7582-3.7043-8.2071.2335-1.9554-.5584-2.5353-2.4084-2.3187-5.7375.6718-11.4814 1.2904-17.2267 1.8917-1.1667.1221-2.3507.0785-3.5271.111-.4333-3.8561-.8663-7.712-1.2993-11.5679 2.0123-2.1904 3.9554-4.4519 6.0808-6.5265.6092-.5945 1.7273-.8149 2.6446-.9188 2.7383-.3101 5.4927-.4774 8.2409-.7004 2.0979 3.4173 4.1674 6.8524 6.3036 10.2455 1.3995 2.2229 2.6774 4.4412 1.6128 7.2991 2.9106-.3628 5.5849-.6961 8.2591-1.0294 2.4851 4.8727 4.9114 9.7766 7.4833 14.6031 1.0668 2.0019 2.2441 4.0117 3.7197 5.7162 3.9415 4.553 9.406 3.9349 12.4252-1.2513.4897-.8408.9458-1.701 1.4174-2.5522z" fill="#fdad8c"/><path d="m321.3472 232.2343c.6865.3551 1.4587.6063 2.0416 1.0871 1.2187 1.0052 1.5679 2.3573 1.1822 3.8961-.3737 1.491-1.4371 2.0768-2.8574 2.2657-7.5157.9999-15.0159 2.1311-22.5464 3.0014-19.0194 2.198-38.0769 4.0849-57.0696 6.4876-10.4311 1.3196-20.7653 3.4116-31.1348 5.2041-1.6749.2896-3.1301.2829-4.131-1.3332.7837-.0376 1.5878.0256 2.3478-.1285 6.6225-1.3423 13.2254-2.7836 19.8575-4.0755 6.1182-1.1918 12.2634-2.2453 18.3999-3.3417 5.943-1.0619 11.8853-2.1287 17.8369-3.1404 4.0934-.6959 8.1981-1.3285 12.3049-1.9415 6.6767-.9966 13.3672-1.9031 20.0368-2.9444 5.0034-.7811 10.0044-1.6092 14.9651-2.6194 2.9635-.6034 5.8471-1.5984 8.7665-2.4174z" fill="#f8b101"/><path d="m321.3472 232.2343c-2.9194.819-5.803 1.814-8.7664 2.4175-4.9607 1.0102-9.9617 1.8382-14.9651 2.6194-6.6696 1.0413-13.3601 1.9478-20.0368 2.9444-4.1068.613-8.2115 1.2456-12.3049 1.9415-5.9516 1.0118-11.894 2.0785-17.8369 3.1404-6.1365 1.0965-12.2817 2.15-18.3999 3.3417-6.6321 1.2919-13.235 2.7332-19.8575 4.0755-.76.1541-1.5641.0908-2.3478.1285-1.0405-.7279-2.0809-1.4559-3.247-2.2719 4.9607-2.8341 10.1782-3.6103 15.3883-4.453 18.8906-3.0556 37.7765-6.1402 56.6634-9.219 9.0874-1.4813 18.1735-2.9704 27.2581-4.4691.6401-.1056 1.2622-.3204 1.8926-.4844.718-.0003 1.4429.0632 2.1531-.0118 3.4891-.3684 6.9744-.7735 10.461-1.1657 1.3152.4886 2.6305.9773 3.9458 1.466z" fill="#f2ce00"/><path d="m223.81 236.2112c1.3645-.6221 2.6765-1.5951 4.1022-1.8087 8.4014-1.2589 16.856-2.1733 25.2428-3.5158 20.4404-3.272 40.8538-6.7137 61.2775-10.0901 2.8532-.4717 4.8699.5265 5.4353 2.85.1493.6136-.1476 1.3357-.2395 2.0081-3.2181.4153-6.4518.7355-9.6512 1.2641-8.3912 1.3865-16.7539 2.9492-25.1536 4.2802-8.0108 1.2694-16.0289 2.5726-24.09 3.4226-7.9514.8385-15.9617 1.1128-23.944 1.6653-2.9813.2063-5.9548.6487-8.9354.6841-1.3201.0156-3.0042 1.0227-4.0441-.7598z" fill="#f2ce00"/><path d="m49.7976 266.5313c.4114-2.7595 2.0345-4.459 4.9528-5.0486 7.294-1.4736 14.576-3.0178 21.8971-4.3439 18.1197-3.2821 36.257-6.4673 54.3914-9.6677 3.0693-.5417 5.5691.8952 7.9816 2.523-2.2498.5295-4.4817 1.1575-6.7525 1.5714-9.3098 1.6971-18.64 3.2827-27.9454 5.0025-5.4217 1.002-10.8 2.2375-16.217 3.2668-9.1077 1.7304-18.2244 3.4154-27.3503 5.0466-3.6348.6499-7.3041 1.1058-10.9577 1.6499z" fill="#f2ce00"/><path d="m133.4954 216.245c1.581 2.6027 1.1441 5.3707.6278 8.1272-2.3738 12.6758 10.2074 20.6569 19.6532 18.7537.0566-.0114.1018-.0795.1522-.1212 2.3906.0237 4.7829.1092 7.1715.049 1.5381-.0388 3.0709-.2915 4.606-.4484.4243.2451.8349.6736 1.2749.7061 3.5236.2604 7.0528.446 10.7752.666.0666-.9315.1341-1.8754.2016-2.82.2575.7933.6725 1.5731.7453 2.3837.3311 3.6875.5659 7.3838.8733 11.5963-1.8391-.8274-3.4789-1.174-4.584-2.1353-3.3822-2.942-7.3951-3.9861-11.6594-4.5729-6.1366-.8443-12.3519-1.3735-18.3706-2.7496-7.0656-1.6155-12.4654-5.8614-15.5837-12.5883-2.8224-6.089-1.1542-12.7071 4.1167-16.8463z" fill="#f8b101"/><path d="m49.7976 266.5313c3.6536-.5442 7.3229-1.0001 10.9576-1.6498 9.1259-1.6312 18.2426-3.3162 27.3503-5.0466 5.417-1.0293 10.7953-2.2649 16.217-3.2668 9.3055-1.7198 18.6357-3.3054 27.9454-5.0025 2.2708-.414 4.5027-1.0419 6.7525-1.5714 3.2893 1.0078 6.5785 2.0156 9.8677 3.0235-.0027.0974-.0055.1947-.0082.2921-4.2285.581-8.4506 1.2134-12.6864 1.7344-20.9135 2.5727-41.5779 6.5659-62.1805 10.9018-6.4549 1.3584-12.8674 2.9177-19.3034 4.3672-3.3443.7532-4.9487-.4976-4.912-3.7819z" fill="#f8b101"/><path d="m223.81 236.2112c1.0399 1.7826 2.724.7755 4.0441.7598 2.9806-.0355 5.9541-.4778 8.9354-.6841 7.9823-.5525 15.9926-.8268 23.944-1.6653 8.0611-.85 16.0792-2.1532 24.09-3.4226 8.3997-1.331 16.7624-2.8938 25.1536-4.2802 3.1994-.5286 6.4331-.8488 9.6512-1.2641-.7607 1.3468-1.5214 2.6938-2.2818 4.0402-4.4497.5987-8.8998 1.198-13.3499 1.7973-12.622 1.6479-25.2646 3.1537-37.8609 4.9792-16.3472 2.369-32.6574 4.993-48.9847 7.4997-.1679.0258-.3517-.0516-.8249-.1299 2.5915-2.6421 5.0377-5.1361 7.4839-7.63z" fill="#f8b101"/><path d="m50.5841 278.6942c3.802-.4536 7.6306-.7505 11.4006-1.3919 9.0233-1.5352 18.0114-3.2762 27.028-4.8523 9.141-1.5978 18.3463-2.863 27.439-4.6937 14.526-2.9246 28.9807-6.2033 43.4705-9.3093 1.2651-.2712 2.5668-.3717 3.8515-.5515-1.105 1.3708-2.1077 2.8457-3.3555 4.0709-.6846.6722-1.7405 1.1581-2.7003 1.3299-25.6225 4.5883-51.258 9.1038-76.8819 13.6845-6.6757 1.1934-13.2963 2.7107-19.9897 3.7827-2.9341.47-5.9894.2858-8.9857.2193-1.357-.0301-2.0089-.8783-1.2765-2.2886z" fill="#f8b101"/><path d="m196.3785 255.1175c-.6549-.7532-1.3098-1.5063-2.1661-2.4912 2.1704-.5129 3.7304-.1026 5.1088.9786 8.6101 6.7531 16.8054 13.9482 23.6416 22.5569 2.7919 3.5158 5.0014 7.3581 3.9809 12.0389-.4254 1.9509-1.7326 3.7096-2.639 5.5556-.3216-.632-.6385-1.2664-.9656-1.8955-3.2423-6.2369-6.1638-12.6713-9.8361-18.644-2.7338-4.4464-6.2885-8.4301-9.7811-12.3495-1.6051-1.8011-3.9378-2.9539-5.9405-4.4007 0 0 .0274-.0032.0281-.0043-.2004-.1938-.4016-.3866-.6028-.5793 0 0-.0337-.0388-.0337-.0388-.2648-.2422-.5297-.4845-.7945-.7267z" fill="#f2ce00"/><path d="m157.0712 303.7691c-1.5224-.0929-2.0402-1.169-2.4332-2.4207-1.2457-3.9679-.9144-7.9888-.4922-12.0254 1.1376-10.8774 6.088-19.9843 13.0065-28.1927 1.4274-1.6936 2.7978-3.4352 4.3392-5.3329 1.1916.7072 2.342 1.39 3.7634 2.2336-4.6473 4.0493-8.1195 8.7989-11.0434 13.9677-.369.3169-.8859.5606-1.0836.9616-1.9756 4.0066-4.1778 7.934-5.7445 12.0988-1.166 3.0999-1.9767 6.5066-2.0439 9.795-.0604 2.9587 1.1063 5.9424 1.7317 8.915z" fill="#f8b101"/><path d="m376.9094 295.3304c1.0243 1.2914 2.2094 2.4867 3.0482 3.8891 9.1515 15.2992 18.3579 30.5674 27.3145 45.9804 4.4286 7.6209 8.3745 15.5225 12.5285 23.3025 1.3521 2.5323 2.6862 5.0747 3.9908 7.6317.1911.3745.1713.8566.2482 1.2894-2.2005-3.5299-4.5038-7.0004-6.5826-10.6006-12.0101-20.8006-23.9845-41.6217-35.9222-62.4639-1.6787-2.9311-3.0902-6.0152-4.6254-9.0286z" fill="#f56969"/><path d="m157.0712 303.7691c-.6254-2.9726-1.7921-5.9563-1.7316-8.9149.0673-3.2885.8779-6.6952 2.0439-9.795 1.5666-4.1648 3.7689-8.0922 5.7445-12.0988.1977-.401.7146-.6447 1.0836-.9616-2.3881 6.614-3.1391 13.4391-2.7492 20.4362.1523 2.7331.2355 5.49.0538 8.2163-.2033 3.0516-1.4516 3.8067-4.445 3.1178z" fill="#f2ce00"/><path d="m197.7814 256.4666c2.0027 1.4468 4.3354 2.5995 5.9405 4.4007 3.4926 3.9193 7.0473 7.903 9.7811 12.3495 3.6722 5.9727 6.5938 12.4071 9.8361 18.644.3271.6291.6439 1.2635.9656 1.8955-1.435 1.5089-2.5402.5837-3.2904-.6522-1.5182-2.5014-3.0582-5.0237-4.2307-7.6947-4.5775-10.4284-10.6494-19.8473-18.4676-28.1357-.2182-.2313-.3581-.5364-.5346-.8071z" fill="#f8b101"/><path d="m206.2274 276.3114c-2.6743.3333-5.3485.6666-8.2591 1.0294 1.0646-2.858-.2133-5.0762-1.6128-7.2991-2.1362-3.3931-4.2058-6.8282-6.3036-10.2455.9738-.7343 1.9475-1.4685 3.1678-2.3886 3.093 4.0742 6.178 7.9425 9.0312 11.9749 1.5312 2.164 2.6639 4.6101 3.9765 6.9289z" fill="#fd966e"/><path d="m81.2591 283.4609c.2573 1.5256.6662 3.049.6884 4.5781.0076.5239-.8973 1.4485-1.4798 1.532-4.6181.6625-9.259 1.1662-13.8933 1.7186-.2909-1.5894-.5815-3.1787-.9482-5.1845 5.2333-.8851 10.4331-1.7646 15.6329-2.6442z" fill="#f88156"/><path d="m184.4969 227.8116c.0187 5.5833-.1219 11.1999 1.6647 16.5832.6995 2.1078 1.8248 4.0742 2.7562 6.1051-.8996.4689-1.7992.9377-3.2236 1.6801 1.5885.3446 2.6732.5799 3.7556.8147-1.2016 1.8978-3.6391 2.7289-6.4761 2.0706-.0405-4.8965-1.3848-9.7711-.1746-14.8311.6245-2.6112.2653-5.4437.556-8.1543.1551-1.447.747-2.8471 1.1418-4.2683z" fill="#f8b101"/><path d="m173.0855 267.9418c.433 3.8559.866 7.7117 1.2993 11.5678-.0138.1203-.0273.2405-.0403.3606-2.3284.0051-4.6567.0102-6.9849.0154.5883-4.6142 2.5942-8.5488 5.7259-11.9438z" fill="#fd966e"/><path d="m150.086 281.8678c-1.3319-.3022-.7999-1.2131-.6733-2.0135.5972-3.7758 1.1808-7.5538 1.7694-11.331 1.429-.4112 2.8579-.8225 4.8915-1.4077-2.1182 5.2186-4.0529 9.9854-5.9876 14.7522z" fill="#fd966e"/><path d="m303.9967 231.492c4.4501-.5993 8.9002-1.1985 13.3499-1.7973.0177.3581.0358.7157.0543 1.0733-3.4861.3923-6.9714.7974-10.4606 1.1658-.7102.075-1.4351.0115-2.1531.0118-.2635-.1512-.527-.3024-.7905-.4536z" fill="#ac6863"/><path d="m424.0506 377.4243c.2961.5156.5923 1.0312.8884 1.5472-.2961-.5154-.5922-1.0313-.8884-1.5472z" fill="#f56969"/><path d="m196.3785 255.1175c.2648.2422.5297.4845.7946.7267-.2649-.2423-.5298-.4845-.7946-.7267z" fill="#f8b101"/><path d="m197.2068 255.883c.2012.1927.4024.3855.6028.5793-.2015-.1924-.4021-.3859-.6028-.5793z" fill="#f8b101"/><path d="m376.5358 294.8615c.131.1526.2621.3053.3925.4586-.1312-.1524-.2618-.3055-.3925-.4586z" fill="#f56969"/><path d="m113.0039 358.2865c-2.7789.5379-5.5578 1.0758-8.3608 1.6184-.4404-1.8172.0873-2.6521 1.2826-3.1269 2.0026-.7954 4.0098-1.5792 6.0151-2.3677 9.6455-1.701 19.2623-3.5918 28.9434-5.0584 14.0118-2.1229 28.0653-3.9745 42.11-5.875 12.4879-1.6898 24.9812-3.3427 37.4849-4.9109 10.3035-1.2922 20.6246-2.4445 30.9396-3.644 9.2768-1.0788 18.5557-2.1396 27.8347-3.1998.5172-.0591 1.0432-.0404 1.5651-.0579-.0131.2679-.0262.5357-.0393.8036-10.7018 1.784-21.3802 3.7249-32.1101 5.3204-25.0175 3.7203-50.07 7.2051-75.0885 10.9183-19.5844 2.9067-39.1396 6.0107-58.7055 9.0415-.6364.0985-1.2481.3554-1.8712.5384z" fill="#702930"/><path d="m299.6565 369.033c-20.8139 3.3131-41.6067 6.7679-62.4523 9.8679-8.056 1.198-16.2317 1.5913-24.3529 2.3512.019-.2336.038-.4672.057-.7007 7.1529-1.1334 14.2899-2.3803 21.4615-3.3787 20.4828-2.8515 40.9795-5.6038 61.4716-8.3884 1.2929-.1757 2.5937-.2937 3.8907-.4383-.0254.2292-.0505.4581-.0756.687z" fill="#783235"/><path d="m121.7155 399.6902c-2.9761.4596-5.9523.9193-8.9284 1.3789-.0664-.2092-.1327-.4185-.1991-.6277 2.6554-.9973 5.3108-1.9946 7.9662-2.9917 8.8129-1.7771 17.6076-3.6518 26.4434-5.307 11.2099-2.1001 22.4532-4.0221 33.6816-6.0198-.0096.2083-.0187.4157-.0278.623-5.7209 1.5466-11.3828 3.3768-17.1746 4.5827-13.5254 2.816-27.1135 5.3306-40.6743 7.9767-.3732.073-.7252.2542-1.087.3849z" fill="#752f33"/><path d="m168.8228 410.2589c14.4385-4.2323 29.9951-7.4344 33.1041-6.814.0382.1727.0764.3453.1146.518-11.0548 2.3601-22.1096 4.7202-33.1645 7.0804-.0181-.2614-.0361-.5229-.0542-.7844z" fill="#7d3639"/><path d="m275.9214 391.7672c-1.8321 1.5143-24.2051 5.0717-25.7063 4.0415 1.4536-.5259 2.6668-1.1964 3.952-1.3911 6.7775-1.027 13.5726-1.9384 20.3645-2.8692.3337-.0459.694.1026 1.3898.2188z" fill="#7d3639"/><g fill="#ac6863"><path d="m280.779 332.4679c.0131-.2678.0262-.5356.0393-.8036 3.7694-.6168 7.5287-1.3062 11.3113-1.8271 2.9582-.4073 5.9452-.6059 8.9194-.8972.0254.1742.0507.3484.0761.5227-6.7819 1.0018-13.564 2.0035-20.3461 3.0052z"/><path d="m299.6565 369.033c.0251-.2289.0502-.4578.0756-.687 3.9074-.4704 7.8145-.9406 11.7217-1.4107.0336.2589.0672.5179.1008.7768-3.9661.4403-7.9321.8806-11.8981 1.3209z"/><path d="m212.9082 380.5514c-.019.2336-.038.4671-.057.7007-2.2907.508-4.5814 1.0159-6.8721 1.5238-.0618-.2783-.1236-.5565-.1853-.8348 2.294-.7578 4.7076-1.0609 7.1144-1.3897z"/><path d="m180.6514 386.746c.0091-.2073.0182-.4147.0278-.623 2.1523-.5516 4.3041-1.1023 6.4559-1.653.0578.2331.1157.4662.1735.6994-2.0575 1.0825-4.3599 1.321-6.6572 1.5766z"/><path d="m166.5667 411.2978c-1.4246.2078-2.8491.4155-4.2737.6233-.0272-.1707-.0544-.3414-.0815-.5121 1.4359-.2258 2.8718-.4515 4.3077-.6773.0158.1886.0317.3773.0475.5661z"/></g><path d="m166.5667 411.2978c-.0159-.1888-.0317-.3775-.0475-.5662.5285-.1131 1.0569-.2262 1.5851-.3389-.0087.2367-.0172.4728-.0256.709-.5039.0654-1.008.1307-1.512.1961z" fill="#7d3639"/><path d="m168.0788 411.1017c.0085-.2362.0169-.4724.0256-.709.2396-.0449.4791-.0894.7185-.1338.018.2615.0361.523.0542.7844-.2662.0194-.5323.0389-.7983.0584z" fill="#ac6863"/><path d="m115.5516 156.4452c1.2032-3.4737 2.0266-6.8041 3.5089-9.8095 1.0661-2.1613 2.7824-4.15 4.6126-5.7553 3.7649-3.3024 9.0868-3.2827 13.4937-.3976 6.641 4.3478 9.8124 10.6113 10.3839 18.3953.6457 8.7943-1.9052 16.9285-4.9791 24.9716-.6049 1.5828-1.1728 3.1821-1.69 4.7956-1.2466 3.8891-4.2773 5.1848-7.9616 5.5668-6.7165.6964-13.3389.1182-19.7787-1.8552-7.7279-2.3681-15.166-5.4003-21.2523-10.9679-1.2467-1.1405-2.4014-2.4156-3.424-3.7612-5.6144-7.3881-3.7459-15.3129 4.495-19.6302 5.9377-3.1107 12.1918-2.9883 18.5574-2.088 1.4159.2001 2.8352.3769 4.0342.5356zm12.8136 31.8918c1.1111 0 2.2232.029 3.3332-.0058 2.5921-.0814 3.3892-.7334 4.2573-3.2106.9072-2.5884 1.952-5.1298 2.8169-7.7316 2.0665-6.2161 3.9443-12.4664 3.0433-19.1679-.797-5.9274-3.0061-10.9337-8.6227-13.8568-2.2889-1.1913-4.3838-.9459-6.3964.6212-2.1385 1.6651-3.4752 3.8692-4.3982 6.3652-.9963 2.6942-1.9873 5.3904-2.9808 8.0856-.5452 1.4789-1.5894 1.8774-3.1105 1.6483-3.2916-.4958-6.589-1.0578-9.9045-1.2671-5.1657-.3261-9.8391 1.1188-13.6689 4.7452-1.7912 1.696-2.7979 3.9291-1.7114 6.1964 1.0713 2.2356 2.4982 4.5415 4.361 6.1165 9.4832 8.0178 20.6989 11.3714 32.9817 11.4614z" fill="#48181c"/><path d="m159.9934 162.7048c.3378-6.1812 3.7705-11.3656 8.9389-13.0844 5.4514-1.8129 12.6974.7428 16.3476 5.766 1.876 2.5816 1.8668 2.559 4.8087 1.3679 3.2807-1.3282 6.5775-2.6322 10.2438-1.9473 5.73 1.0704 9.2913 5.712 8.829 11.5953-.4909 6.2473-3.1423 11.325-8.5617 14.6387-6.3475 3.8812-12.8034 7.5854-19.2209 11.3517-1.4238.8355-2.8715.9739-4.1488-.2688-6.3569-6.1845-12.3354-12.6737-15.2947-21.2696-.9045-2.6279-1.3085-5.4282-1.9419-8.1495zm43.5364 3.7126c.0245-4.8036-2.4266-7.0855-6.9093-6.3372-.9479.1582-1.8964.532-2.7516.9828-2.1899 1.1543-4.2717 2.5244-6.5008 3.5908-2.4828 1.1878-3.3075.6727-3.5801-2.0712-.2906-2.9245-1.7076-5.1847-3.938-6.9534-5.0624-4.0144-11.7907-2.3958-13.7417 3.561-.6845 2.09-.5625 4.6817-.0682 6.8775 1.8074 8.0293 7.0142 14.0097 12.5656 19.7152.955.9815 1.9924.7063 3.0326.0815 5.5953-3.3607 11.2265-6.6629 16.784-10.0849 3.438-2.1168 5.066-5.3349 5.1075-9.3621z" fill="#48181c"/><path d="m182.2105 94.067c-34.5427 5.5571-69.2773 9.5396-104.0678 13.0627-.0401-.3197-.0802-.6394-.1204-.9591 34.6282-4.8414 69.3048-9.3046 104.1158-12.7174.0242.2043.0483.409.0724.6138z" fill="#7d3639"/><path d="m259.6208 83.0087c-12.3933 3.578-25.2405 4.0199-37.953 5.4133 12.2794-4.3095 24.8397-6.7122 37.953-5.4133z" fill="#752f33"/><path d="m182.2105 94.067c-.0241-.2047-.0482-.4095-.0724-.6139 3.3447-.483 6.6895-.9663 10.0343-1.4496.0455.3335.0911.6669.1366 1.0004-3.3662.3544-6.7324.7087-10.0985 1.0631z" fill="#ac6863"/><path d="m413.1662 206.3812c-9.4966 6.0047-18.9554 12.0701-28.5018 17.9946-7.3823 4.5814-14.8682 8.996-22.3222 13.4613-1.4418.8638-2.9135 1.848-5.1648.5355.9301-.8232 1.6067-1.6523 2.4729-2.1544 15.7149-9.1097 31.447-18.1896 47.1926-27.2462 1.917-1.1026 3.9322-2.0344 5.9019-3.0451.1405.1515.2809.3029.4214.4543z" fill="#752f33"/><path d="m450.51 186.7801c-2.9896 1.9332-5.8946 4.0176-8.9942 5.7545-2.754 1.5433-5.724 2.7012-8.6978 3.8251 5.6735-3.6247 11.0443-7.7895 17.705-9.5647z" fill="#7d3639"/><path d="m413.1662 206.3812c-.1405-.1514-.2809-.3027-.4214-.4543 1.6988-1.0703 3.3976-2.1404 5.0965-3.2105.1309.2172.2619.4344.3928.6516-1.3391 1.5325-3.2279 2.2361-5.0679 3.0132z" fill="#ac6863"/><path d="m450.523 186.7951s-.0139-.0155-.0135-.0152c.0005.0002.0135.0152.0135.0152z" fill="#7d3639"/><path d="m187.6789 242.0865c-.3633-.258-1.0491-.5316-1.0375-.7715.0744-1.54.0665-3.146.5186-4.5952 2.1474-6.8826 5.0111-13.491 9.483-19.1709 1.9179-2.436 4.5151-4.5635 7.2185-6.1026 4.2411-2.4147 8.6773-.5653 11.2225 4.0818.6584 3.5078-.3393 6.5606-2.4597 9.3573-3.9723 5.2392-8.858 9.4204-14.6646 12.4545-3.3414 1.746-6.8484 3.1749-10.2808 4.7466zm4.4502-9.4015c3.1056.1892 5.8035-.1535 7.8303-1.8854 3.3492-2.8618 6.4236-6.05 9.5427-9.1718.5695-.57.8982-1.4455 1.1685-2.2378.9933-2.9111-.8618-5.2111-3.8096-4.4348-1.8919.4982-3.8641 1.4109-5.3277 2.682-4.5592 3.9593-6.6094 9.5612-9.4042 15.0478z" fill="#4a1c19"/><path d="m187.6789 242.0865c3.4324-1.5717 6.9394-3.0007 10.2808-4.7466 5.8066-3.0341 10.6923-7.2153 14.6646-12.4545 2.1204-2.7967 3.1181-5.8495 2.4597-9.3573.6874-.7501 1.3749-1.5002 2.1991-2.3996 1.2587 2.7244.6423 5.1907-.1257 7.5633-1.4049 4.34-3.7965 8.1047-6.9711 11.4072-2.7568 2.8679-5.6009 5.5445-9.0764 7.5987-3.526 2.0842-7.4321 2.6883-11.2832 3.5375-.6023.1327-1.4263-.7406-2.1478-1.1487z" fill="#f8b101"/><path d="m165.7062 242.6053c-1.5352.1569-3.0679.4096-4.606.4484-2.3886.0602-4.7809-.0253-7.1715-.049-2.502-.8896-5.194-1.4485-7.4602-2.7493-3.1205-1.7911-4.5062-6.3243-3.5035-9.6614.9901-3.2953 3.7019-5.1093 7.8957-5.1368 1.6931-.0111 3.4137.0605 5.0768.3516 4.8451.8479 9.2323 2.7915 13.0896 5.8756 2.2777 1.8211 2.6207 3.4523 1.4368 6.1589-.9734 2.2254-2.7324 3.6143-4.7577 4.762zm-7.5025-4.4817c1.3731-.0892 2.6605.1133 3.6859-.3134 1.225-.5098 2.2858-1.4946 3.2741-2.4261.2018-.1902-.0591-1.3739-.4022-1.5627-4.0986-2.2557-8.4102-4.016-13.1813-3.6665-1.2129.0889-2.8308 1.0402-3.3915 2.0696-.7494 1.376.2354 2.8191 1.4725 3.8934 2.5777 2.2385 5.7027 1.8788 8.5425 2.0057z" fill="#4a1c19"/><path d="m128.3652 188.337c-12.2828-.09-23.4986-3.4436-32.9817-11.4614-1.8628-1.575-3.2898-3.8809-4.361-6.1165-1.0865-2.2673-.0797-4.5004 1.7114-6.1964 3.8298-3.6264 8.5032-5.0713 13.6689-4.7452 3.3156.2093 6.6129.7712 9.9045 1.2671 1.5211.2291 2.5653-.1694 3.1105-1.6483.9935-2.6952 1.9845-5.3914 2.9808-8.0856.923-2.496 2.2597-4.7001 4.3982-6.3652 2.0126-1.5671 4.1075-1.8125 6.3964-.6212 5.6165 2.9231 7.8257 7.9294 8.6227 13.8568.9011 6.7015-.9768 12.9518-3.0433 19.1679-.8649 2.6018-1.9098 5.1432-2.8169 7.7316-.8682 2.4772-1.6652 3.1292-4.2573 3.2106-1.11.0348-2.222.0058-3.3332.0058z" fill="#f7435c"/><path d="m203.5305 166.4178c-.0422 4.0268-1.6702 7.2449-5.1082 9.3618-5.5575 3.422-11.1887 6.7242-16.784 10.0849-1.0402.6248-2.0776.9-3.0326-.0815-5.5514-5.7055-10.7582-11.6859-12.5656-19.7152-.4943-2.1959-.6163-4.7876.0682-6.8775 1.951-5.9568 8.6793-7.5754 13.7417-3.561 2.2304 1.7687 3.6474 4.0289 3.938 6.9534.2726 2.7439 1.0973 3.259 3.5801 2.0712 2.229-1.0664 4.3109-2.4364 6.5008-3.5908.8553-.4508 1.8038-.8246 2.7516-.9828 4.4827-.7483 6.9339 1.5335 6.91 6.3375z" fill="#f7435c"/><path d="m192.1291 232.685c2.7948-5.4866 4.845-11.0884 9.4042-15.0478 1.4636-1.2711 3.4359-2.1838 5.3277-2.682 2.9478-.7762 4.8029 1.5238 3.8096 4.4348-.2704.7923-.599 1.6678-1.1685 2.2378-3.119 3.1218-6.1935 6.31-9.5427 9.1718-2.0268 1.7318-4.7247 2.0746-7.8303 1.8854z" fill="#f8bca7"/><path d="m158.2037 238.1236c-2.8398-.1269-5.9648.2328-8.5425-2.0057-1.2371-1.0743-2.2218-2.5174-1.4725-3.8934.5606-1.0295 2.1786-1.9808 3.3915-2.0696 4.7711-.3495 9.0827 1.4108 13.1813 3.6665.3431.1888.6039 1.3725.4022 1.5627-.9882.9315-2.0491 1.9162-3.2741 2.4261-1.0254.4267-2.3128.2241-3.6859.3134z" fill="#f8bca7"/></g></svg>