<svg id="Layer_1" enable-background="new 0 0 512 512" height="512" viewBox="0 0 512 512" width="512" xmlns="http://www.w3.org/2000/svg"><g><path d="m172.9637 419.0602c2.9242 6.1579 5.5587 12.4262 6.6189 19.2146 1.306 8.362 1.4325 16.7432-2.4248 24.4863-4.4225 8.8777-11.4 14.9254-21.697 15.5449-11.567.6957-19.9275-7.9076-18.9967-19.4836 1.4045-17.4683 8.2947-32.5125 20.8759-44.8438.4639-.4547 1.037-.8731 1.3143-1.4303 1.3689-2.7497 3.4391-3.1094 6.3086-2.5486 22.6668 4.4295 45.359 8.7288 68.0439 13.0656.2794.0534.565.0744 1.1206.1453-.1005-2.3-.1759-4.5053-.2966-6.7081-.9043-16.5126-.8707-33.0247-.0012-49.5371.2921-5.547.2947-5.5514-4.747-7.7761-19.8931-8.7779-39.3249-18.4139-57.2604-30.826-19.3885-13.4177-37.3509-28.4116-51.9563-47.1064-9.7471-12.4762-17.4028-26.0443-20.6892-41.6714-3.2946-15.666-2.063-30.9982 4.8476-45.6144 1.2561-2.6566 3.0244-5.104 4.786-7.4774 1.2454-1.678 1.211-2.9809.0681-4.6817-7.5115-11.1783-15.0892-22.3166-22.3599-33.651-6.808-10.6132-12.8612-21.6713-17.8019-33.296-1.2104-2.8477-2.1013-5.8312-3.1234-8.7081-4.9652-.3613-10.0252-.2859-14.9063-1.1835-8.3217-1.5303-15.6194-5.3389-18.854-13.6499-3.6071-9.268-1.637-18.1046 4.3415-25.9484 2.3231-3.048 5.7406-4.7728 9.4579-5.3394 9.1797-1.3991 18.2013-1.1951 26.5406 3.7302 5.8138 3.4337 10.2388 8.0075 12.3494 14.5636 3.0104 9.3513-.045 17.6002-8.4905 22.8408-1.7137 1.0634-3.4808 2.0408-5.3299 3.1201 12.5731 25.9684 27.5215 50.3729 44.1796 74.3705 18.0646-16.5098 39.5315-22.8351 63.4883-21.5867 24.0148 1.2514 44.2045 10.4898 60.0942 28.949.9375-4.1713 1.7054-8.348 2.8223-12.4292 5.6596-20.6813 17.849-36.6039 35.5579-48.4706 8.6182-5.775 17.7617-10.3278 28.0435-12.3006 10.7384-2.0605 21.1878-1.1312 31.3356 2.9943 3.3517 1.3626 3.3602 1.354 5.8377-1.4771 15.5732-17.7961 32.3699-34.3804 49.8915-50.2383 1.808-1.6363 3.9698-2.9056 6.0576-4.1998 1.1814-.7324 1.6962-1.4921 1.5397-2.9537-.451-4.2125-.4384-8.4124 1.6598-12.2855.6502-1.2002 1.3039-2.4732 2.2449-3.4281 4.1577-4.2188 8.9178-7.664 14.5081-9.6759 6.6698-2.4004 12.5315-.2181 17.8321 3.9164 11.5099 8.9779 13.6844 25.0984 4.8908 35.9221-9.2396 11.3728-24.1349 11.886-34.0744 1.1277-1.7649-1.9103-3.3333-4.0023-4.988-6.0051-3.3394 1.9947-51.0582 47.6965-55.9117 53.5589 2.7956 2.2282 5.6898 4.3437 8.369 6.7035 11.8007 10.3941 18.2416 23.7187 21.1002 38.975 3.2784 17.4963 2.8008 35.0384.713 52.6073-3.0452 25.6258-9.5015 50.4844-16.8676 75.1391-.3495 1.1699-.7888 2.3127-1.1555 3.4778-.0488.155.0859.3678.2337.9208 2.4873-2.6165 4.8032-5.0593 7.1263-7.4952 14.1756-14.8642 29.8503-28.0919 45.3733-41.481 3.5899-3.0964 7.021-1.7721 7.7663 2.9515 2.5064 15.8846 4.9214 31.7836 7.3764 47.6763.1693 1.0958.3804 2.1852.6715 3.8439 1.9187-5.416 3.5736-10.2357 5.3424-15.0133.8024-2.1672 1.6852-4.3295 2.7825-6.3584 4.0523-7.4926 11.4345-9.2379 18.5589-4.5196 7.5948 5.0298 11.2634 12.4472 13.4994 21.0183 3.3548 12.8594-4.6271 27.7228-20.8813 30.1984-5.7672.8784-11.5113 1.7565-17.0759-.8814-1.1718-.5555-2.5305-1.0249-3.3443-1.9414-.8177-.9209-1.6794-2.4828-1.4532-3.5338 1.0219-4.749.1524-9.2424-1.2871-13.6854-4.9058-15.1409-7.9655-30.6877-10.3516-46.388-.1808-1.1902-.4225-2.3712-.7202-4.0245-3.2017 2.7323-6.0938 5.104-8.8795 7.5948-11.8268 10.5743-23.7003 21.0985-35.3868 31.8262-4.2025 3.8577-8.189 8.0245-11.7687 12.4583-2.0758 2.5712-3.5345 5.8228-4.6064 8.9928-6.8911 20.379-14.8715 40.3269-23.4336 60.0478-1.2922 2.9762-3.0547 5.7451-4.5076 8.6558-.7465 1.4956-1.8187 1.814-3.3763 1.5905-10.5912-1.5194-20.7394-4.6707-30.7851-8.2248-15.3479-5.4299-30.7029-10.8397-46.056-16.2546-.3902-.1376-.7942-.2362-1.7722-.5236 0 6.5793-.1076 12.8479.0218 19.1117.2918 14.1226.7179 28.2424 1.0526 42.3642.1097 4.627-2.5833 6.5396-7.5293 5.457-10.8207-2.3683-21.6241-4.8194-32.4675-7.0788-9.4948-1.9784-19.0344-3.7412-28.5544-5.5991-.1663-.0418-.3324-.0836-.4985-.1255.008.1662.0158.3325.0236.4989zm-126.2894-352.9922c-3.5028.3639-6.1954 1.7812-7.13 5.484-3.3007 5.236-2.3197 10.9368-1.7868 16.5851.0331.3504.1411.7426.3439 1.021 4.1746 5.7311 9.485 9.4153 16.8856 9.29 7.0159.9651 13.6329.3943 19.1731-4.7242 1.9111-1.7656 3.6003-3.6701 3.7253-6.3493.1035-2.2183-.1641-4.4611-.3795-6.6822-.0575-.5931-.5264-1.1464-.8064-1.7179-1.7018-3.881-4.3804-6.8718-8.0351-9.0385-6.853-4.0625-14.3538-4.3221-21.9901-3.868zm409.4803 248.3193c2.5107-2.0188 3.2229-4.821 3.4187-7.8482-.1111-2.0914-.0482-4.2094-.3646-6.2693-1.1178-7.2794-4.3945-13.2881-10.8094-17.2494-2.7533-1.7002-5.6392-1.1499-7.1967 1.471-1.2842 2.1611-2.2025 4.5396-3.2828 6.8218-1.3271 3.8843-2.6895 7.757-3.9705 11.6565-1.0533 3.2062-2.0099 6.4443-3.0093 9.6682-.7372 3.0984-1.4744 6.1968-2.2668 9.5273 7.1383.1037 13.9398.6384 20.3249-2.2875 2.769-1.2689 5.8066-2.3158 7.1565-5.4904zm-47.4935-269.4274c-.2841.8865-.5681 1.773-.8522 2.6595-.4135.8895-1.1367 1.7657-1.1755 2.6713-.0797 1.8582.4085 3.7438.3008 5.5971-.213 3.6678.9683 6.7421 3.1 9.6719 4.7961 6.5915 11.7325 8.7529 19.0681 5.6357 3.5359-1.5026 5.2074-4.791 7.0751-7.8527.1411-.2338.2823-.4677.4234-.7015.5752-1.122 1.4375-2.1861 1.6774-3.3757 1.2354-6.1276-.7439-11.3019-4.7764-15.9494-7.3978-8.5262-18.8492-7.8204-24.8407 1.6438zm-253.6749 426.1275c.3176.1295.6685.4211.9476.3636 3.353-.6905 6.508-1.7763 8.6584-4.6953 2.9965-1.657 4.7628-4.385 6.0771-7.3752 2.1779-4.9554 2.2885-10.1667 1.843-15.5049-.5367-6.4298-2.0797-12.5284-5.0241-18.2452-1.5015-2.9152-2.9749-5.9071-5.9642-8.138-1.9375 2.8464-3.7968 5.5779-5.6561 8.3095-2.4786 4.388-5.3018 8.6215-7.356 13.1999-3.1784 7.0842-5.2574 14.5363-4.7991 22.4419.1333 2.2997.5993 4.5332 2.456 6.2498 2.5091 2.3199 5.3346 3.6732 8.8174 3.3939zm154.097-349.3077c-.5704.0009-1.188-.1432-1.7038.0248-5.6871 1.8531-11.6733 3.1202-16.9796 5.7531-23.1188 11.4711-37.7945 29.8726-43.976 55.0281-1.8027 7.3361-3.4416 14.5434.8915 21.5707.1113.1805.1879.3823.2806.5742.0793.8669.1585 1.7338.285 3.1182-3.0773-3.2379-5.7457-6.0454-8.414-8.8528-8.8551-12.1468-20.1518-21.3163-33.9458-27.2438-17.1212-7.3573-34.8238-7.7752-52.7988-3.7868-5.5946 1.2413-11.0841 2.7798-15.9774 5.9203-2.3258 1.4475-4.6515 2.8951-6.9773 4.3426-15.2393 9.8803-22.5571 24.1954-23.4764 42.0566-.7609 14.7846 3.1536 28.3912 10.5926 41.0602 8.0697 13.7433 18.391 25.623 30.1388 36.33 17.2377 15.7107 36.274 28.8316 56.8889 39.6908 15.2143 8.0143 31.0266 14.6693 47.0831 20.791 20.9865 8.0013 42.1516 15.4448 63.8544 21.2932 1.4604.3935 2.352.2125 2.8843-1.287.7007-1.974 1.491-3.9162 2.2428-5.8721.1966-.3818.4265-.7504.585-1.1475 8.3548-20.9219 17.0597-41.7123 23.7787-63.2492 1.3024-3.9807 2.6574-7.9449 3.8987-11.9446 7.9015-25.4617 14.6829-51.1859 18.0173-77.7062 2.0489-16.296 2.6059-32.5768-.1354-48.8773-2.6219-15.5907-9.1114-28.894-22.023-38.5699-8.1898-6.1374-17.2956-9.5385-27.6377-9.2402-2.4588.0747-4.9176.1492-7.3765.2236z" fill="#450906"/><path d="m239.4669 198.996c2.6683 2.8075 5.3366 5.615 8.414 8.8528-.1265-1.3843-.2058-2.2513-.2849-3.118.4283.0547.8905.023 1.2795.1766 5.4999 2.1717 11.7038-2.0592 12.6268-6.9729.9954-5.2992 1.7538-10.643 2.7575-15.9404 1.6225-8.5629 4.1486-16.8376 8.8732-24.2508 6.6458-10.4277 15.7914-18.3573 25.9147-25.2178 4.3469-2.9459 8.8914-5.6 13.6359-8.568-.8312-.4288-1.4051-.6833-1.9349-1.0094-.5765-.3548-1.1121-.7761-1.6655-1.1685 2.4589-.0744 4.9177-.1489 7.3765-.2232-.7138.7572-1.4276 1.5144-2.2562 2.3932 4.0188 2.4588 7.8867 4.8208 11.7502 7.1902 8.1783 5.0155 13.8539 12.2169 17.4608 20.9481 1.9435 4.7044 3.2193 9.7075 4.5247 14.6477 2.4396 9.2323 3.5396 18.6944 3.7079 28.2093.1585 8.9648-.1243 17.943-.429 26.9079-.1315 3.8697-.8066 7.721-1.2348 11.5807-3.0761.155-6.1596-.2991-9.1327 1.254-5.7089 2.982-11.6521 5.5243-17.2935 8.6218-2.1043 1.1554-4.0226 3.1014-5.3455 5.1304-2.43 3.7273-.8635 8.5581 3.1445 10.5306 4.654 2.2903 9.0013 1.1033 13.1112-1.5551 4.7277-3.058 9.4378-6.1432 14.1556-9.2166-.5571 4.9283-1.2057 9.8483-1.6512 14.7867-.8086 8.9625-1.4867 17.9367-2.2403 26.9042-.2289 2.7233-.7021 5.4377-.7488 8.1616-.0562 3.2781.2233 6.562.3574 9.8434-6.719 21.5368-15.4239 42.3273-23.7787 63.2492-.1585.397-.3884.7656-.585 1.1474-.8392-.204-1.7-.3447-2.514-.6222-4.7869-1.6322-9.5904-3.2215-14.3373-4.9641-12.8141-4.7039-25.7426-9.1356-38.3665-14.308-16.782-6.876-33.6328-13.6768-49.4491-22.6757-6.6593-3.7889-13.599-7.2465-19.7146-11.7919-9.4287-7.008-18.5878-14.4642-27.2283-22.4179-5.9704-5.4957-11.3083-11.8279-16.1602-18.3573-9.3362-12.5642-16.1214-26.5527-21.1503-41.3799-2.5561-7.5363-4.5799-15.2236-5.1426-23.1682-.5978-8.4387 1.0657-16.6759 3.2166-24.7938.8427-3.1802 1.4826-6.3176.6379-9.5837 2.3258-1.4475 4.6515-2.8951 6.9774-4.3426 2.3083-.2371 4.65-.3016 6.9187-.742 8.3239-1.6158 16.6973-2.6023 25.1373-1.3922 12.1172 1.7374 23.2697 6.2703 33.5882 12.7254 6.9077 4.3213 13.5029 9.1404 20.2666 13.6941 5.15 3.4673 10.3302 6.8907 15.5377 10.2708.7054.4579 1.6484.5498 2.4813.8111.1095-.8841.4243-1.8008.2899-2.6461-.4058-2.5518-.9859-5.076-1.4981-7.6109zm-38.3818 108.1191c.7644-.1338 1.7811-.2157 2.7402-.4952 6.173-1.7994 12.4182-3.4054 18.4626-5.5697 3.0535-1.0934 6.0652-2.8459 8.5056-4.9765 3.3-2.881 3.112-7.756-.0063-10.5686-3.3961-3.0632-7.4604-3.4442-11.4883-1.661-4.882 2.1613-9.672 4.5746-14.3253 7.1927-3.1954 1.7979-6.3875 3.8122-9.0481 6.2998-3.8395 3.5898-2.6003 7.9834 2.3279 9.4571.8147.2434 1.7141.2032 2.8317.3214zm42.2668-58.943c.216-.0773.432-.1546.648-.2319-.4503-1.47-.692-3.0476-1.3859-4.3919-3.6692-7.1091-9.451-11.6168-17.2584-13.3887-7.696-1.7466-15.002 1.9399-17.7635 8.9757-2.0703 5.2747-2.4817 10.7719-.8369 16.186.9766 3.2147 2.5757 6.2666 4.1328 9.2682.8572 1.6524 3.6798 2.17 4.9705 1.1486 1.5803-1.2505.6347-2.5825-.027-3.8689-.1984-.3857-.4253-.7569-.621-1.1438-2.9209-5.7762-4.0043-11.7939-1.9978-18.0759 1.5029-4.7056 5.2187-6.7441 10.0203-5.6442 1.4687.3364 2.9261.8727 4.278 1.5413 5.5543 2.7472 11.1478 5.4452 15.8409 9.6255zm70.8862-15.9418c.2077-.0669.4154-.1338.6231-.2006.0997-.615.2831-1.2295.2865-1.8451.0491-8.7938-3.6122-15.7303-10.8896-20.5474-3.7065-2.4535-7.8099-2.4131-11.7444-.1169-6.9187 4.0378-11.3238 16.8381-8.161 24.1296.3725.8587 1.7577 1.2781 2.6734 1.9011.5247-.7906 1.35-1.5245 1.5123-2.3835.3473-1.8382.3152-3.7449.5039-5.6169.4373-4.3391 1.444-8.4518 5.0084-11.4124 3.2334-2.6857 5.9271-2.3662 8.5827.8592 4.0582 4.9287 9.2625 8.9516 11.6047 15.2329zm-64.3661 67.9968c-.0922.2773-.1844.5545-.2767.8318.3696.3041.6967.6955 1.1152.8993 8.3263 4.0573 16.5619 8.3242 25.0392 12.0388 4.4665 1.9571 9.2977 3.2177 14.0781 4.28 3.8719.8604 6.0051-.8842 6.9872-4.7076.126-.4906.2515-.9868.3112-1.4883 1.0609-8.9137 2.1167-17.828 3.1491-26.7451.0481-.4153-.1317-.8569-.2053-1.2862-.1989-.0292-.3978-.0584-.5967-.0876-.5457 1.6733-1.2285 3.3156-1.6135 5.0251-1.701 7.5539-3.3065 15.1293-4.968 22.6922-.6052 2.7548-1.0096 3.0013-3.71 2.2597-1.8846-.5175-3.7856-1.0153-5.61-1.7052-8.9311-3.3774-17.8201-6.8668-26.7681-10.1982-2.2264-.8287-4.6167-1.2176-6.9317-1.8087z" fill="#e98688"/><path d="m129.7676 178.2284c.8448 3.2662.2048 6.4035-.6379 9.5837-2.1509 8.1179-3.8144 16.3551-3.2166 24.7938.5628 7.9446 2.5865 15.6319 5.1426 23.1682 5.0289 14.8271 11.8141 28.8157 21.1503 41.3799 4.8519 6.5295 10.1898 12.8617 16.1602 18.3573 8.6406 7.9536 17.7996 15.4099 27.2283 22.4179 6.1156 4.5455 13.0553 8.003 19.7146 11.7919 15.8163 8.9989 32.6671 15.7997 49.4491 22.6757 12.6239 5.1724 25.5524 9.6041 38.3665 14.308 4.7469 1.7426 9.5504 3.3319 14.3373 4.9641.8141.2776 1.6748.4182 2.514.6222-.7518 1.9559-1.5421 3.8981-2.2428 5.8721-.5323 1.4995-1.424 1.6805-2.8843 1.287-21.7029-5.8484-42.8679-13.292-63.8544-21.2932-16.0565-6.1216-31.8688-12.7766-47.0831-20.791-20.6149-10.8592-39.6512-23.9801-56.8889-39.6908-11.7478-10.7071-22.0691-22.5867-30.1388-36.33-7.439-12.6691-11.3535-26.2756-10.5926-41.0602.9194-17.8613 8.2372-32.1763 23.4765-42.0566z" fill="#e2605f"/><path d="m344.34 307.8946c-.1341-3.2814-.4136-6.5652-.3574-9.8434.0467-2.7239.5199-5.4383.7488-8.1616.7536-8.9676 1.4317-17.9417 2.2403-26.9042.4455-4.9384 1.0941-9.8584 1.6514-14.7865.1867-.3692.3732-.7386.5597-1.108.6146-.3789 1.2967-.6806 1.833-1.149 3.9763-3.4729 4.9235-9.2542-.9742-12.1831-.0094-.1102-.0289-.2186-.0585-.3252.4282-3.8597 1.1033-7.7109 1.2348-11.5807.3047-8.9649.5875-17.9431.429-26.9079-.1683-9.515-1.2682-18.977-3.7079-28.2093-1.3054-4.9401-2.5812-9.9432-4.5247-14.6477-3.6069-8.7312-9.2825-15.9325-17.4608-20.9481-3.8635-2.3694-7.7314-4.7314-11.7502-7.1902.8286-.8788 1.5424-1.636 2.2562-2.3932 10.3422-.2984 19.448 3.1028 27.6378 9.2402 12.9116 9.6759 19.4011 22.9792 22.023 38.5699 2.7413 16.3005 2.1843 32.5813.1354 48.8773-3.3344 26.5204-10.1158 52.2446-18.0173 77.7062-1.241 3.9995-2.596 7.9638-3.8984 11.9445z" fill="#f4b1b1"/><path d="m309.0832 121.7797c.5534.3923 1.089.8136 1.6655 1.1685.5298.3261 1.1037.5806 1.9349 1.0094-4.7445 2.968-9.289 5.6221-13.6359 8.568-10.1233 6.8605-19.2689 14.7901-25.9147 25.2178-4.7246 7.4131-7.2507 15.6879-8.8732 24.2508-1.0037 5.2975-1.7621 10.6413-2.7575 15.9404-.923 4.9137-7.1269 9.1446-12.6268 6.9729-.389-.1536-.8512-.1219-1.2795-.1766-.0929-.192-.1695-.3939-.2807-.5744-4.3331-7.0273-2.6942-14.2346-.8915-21.5707 6.1815-25.1555 20.8572-43.557 43.976-55.0281 5.3062-2.6329 11.2924-3.9 16.9796-5.7531.5158-.1682 1.1334-.024 1.7038-.0249z" fill="#e2605f"/><path d="m239.4669 198.996c.5121 2.5349 1.0923 5.059 1.4979 7.6109.1344.8453-.1805 1.762-.2899 2.6461-.833-.2613-1.7759-.3532-2.4813-.8111-5.2075-3.3802-10.3876-6.8035-15.5377-10.2708-6.7637-4.5538-13.3589-9.3728-20.2666-13.6941-10.3185-6.455-21.471-10.988-33.5882-12.7254-8.44-1.2102-16.8135-.2237-25.1373 1.3922-2.2687.4404-4.6104.5049-6.9187.742 4.8931-3.1405 10.3827-4.679 15.9773-5.9203 17.9751-3.9884 35.6776-3.5704 52.7988 3.7868 13.7939 5.9274 25.0907 15.0969 33.9457 27.2437z" fill="#f4b1b1"/><path d="m76.6995 78.9746c.28.5715.7489 1.1248.8064 1.7179.2154 2.2211.4831 4.4639.3795 6.6822-.1251 2.6792-1.8142 4.5836-3.7253 6.3493-5.5402 5.1184-12.1572 5.6893-19.1737 4.7251-1.4269-2.024-2.7903-4.097-4.2909-6.0653-5.0247-6.5907-6.9346-13.9148-5.3695-22.0956.1493-.1542.2983-.3081.4473-.462 3.0964-.1467 6.1919-.3948 9.2892-.42 7.5667-.0614 14.1454 2.3555 19.414 7.9703.6128.6531 1.4759 1.0712 2.223 1.5981z" fill="#ad1107"/><path d="m155.8677 425.8018c1.8593-2.7315 3.7186-5.4631 5.6562-8.3094 2.9893 2.2309 4.4628 5.2228 5.9642 8.138 2.9444 5.7168 4.4874 11.8154 5.0241 18.2452.4456 5.3382.335 10.5495-1.843 15.5049-1.3142 2.9902-3.0806 5.7182-6.0771 7.3748-.5779-1.3373-1.325-2.628-1.7054-4.019-2.1132-7.7273-1.4813-15.7251-2.2226-23.59-.4131-4.3827-1.9121-8.3911-4.3835-12.0346-.1377-.4366-.2753-.8732-.4129-1.3099z" fill="#cd1c13"/><path d="m156.2805 427.1117c2.4715 3.6436 3.9704 7.6519 4.3835 12.0346.7413 7.8649.1094 15.8627 2.2226 23.59.3804 1.3909 1.1275 2.6816 1.7054 4.019-2.1503 2.9194-5.3052 4.0053-8.6583 4.6957-.2791.0575-.6301-.2342-.9474-.3639-.2216-2.2095-.1245-4.5093-.7216-6.612-2.3463-8.262-3.7389-16.5928-1.7947-25.0932.9522-4.1628 2.5209-8.1846 3.8105-12.2702z" fill="#ad1107"/><path d="m430.9399 312.638c.9994-3.2239 1.9561-6.462 3.0093-9.6682 1.281-3.8995 2.6434-7.7722 3.9702-11.6564 6.0442.5629 13.087 6.9779 14.764 13.3135.3782 1.4289 1.1447 2.7551 1.7324 4.1284-.0073.1505-.0145.3011-.0217.4518-.6331.0956-1.2874.1191-1.8957.2985-3.6505 1.0767-7.2866 2.2017-10.9353 3.2846-1.8604.5522-3.6668.728-4.8777-1.2206-1.2692 1.1196-1.2692 1.1196-5.7455 1.0684z" fill="#ad1107"/><path d="m436.1776 63.3427c-1.8677 3.0617-3.5392 6.3502-7.0751 7.8527-7.3357 3.1172-14.2721.9558-19.0681-5.6357-2.1317-2.9298-3.313-6.0041-3.1-9.6719.1077-1.8533-.3805-3.7389-.3008-5.5971.0388-.9056.7621-1.7818 1.1759-2.6712.2915.4031.6337.7786.866 1.213 3.1001 5.7968 7.608 10.1204 13.9466 11.9444 4.4001 1.2662 9.0288 1.7387 13.5555 2.5658z" fill="#7e0304"/><path d="m436.1776 63.3426c-4.5266-.8271-9.1554-1.2995-13.5557-2.5657-6.3387-1.824-10.8465-6.1476-13.9466-11.9444-.2323-.4344-.5745-.81-.866-1.213.2837-.8866.5677-1.7731.8522-2.6593.3155.0925.6434.2954.9438.2608 6.5482-.7541 12.6668.4297 18.1848 4.1246 4.7683 3.193 7.9101 7.5144 8.8108 13.2955-.1411.2339-.2822.4677-.4233.7015z" fill="#ad1107"/><path d="m454.4158 308.7555c-.5877-1.3735-1.3542-2.6996-1.7325-4.1286-1.677-6.3357-8.7198-12.7507-14.764-13.3135 1.0807-2.2823 1.999-4.6609 3.2832-6.8219 1.5576-2.621 4.4435-3.1712 7.1967-1.471 6.415 3.9613 9.6917 9.97 10.8094 17.2494.3163 2.0599.2535 4.1779.3649 6.2694-1.7189.7387-3.4383 1.4775-5.1577 2.2162z" fill="#cb1c13"/><path d="m156.2805 427.1117c-1.2896 4.0856-2.8583 8.1074-3.8104 12.2703-1.9442 8.5004-.5516 16.8312 1.7947 25.0932.5971 2.1027.5 4.4025.7216 6.612-3.483.2796-6.3085-1.0738-8.8178-3.3937-1.8567-1.7166-2.3227-3.9501-2.456-6.2498-.4583-7.9055 1.6208-15.3577 4.7991-22.4419 2.0542-4.5785 4.8774-8.8119 7.356-13.1999.1376.4366.2752.8732.4128 1.3098z" fill="#7e0304"/><path d="m436.601 62.6411c-.9007-5.781-4.0425-10.1025-8.8108-13.2955-5.518-3.6949-11.6366-4.8787-18.1848-4.1246-.3004.0346-.6283-.1683-.9438-.2608 5.9911-9.4645 17.4425-10.1703 24.8404-1.6441 4.0325 4.6475 6.0118 9.8218 4.7764 15.9494-.2399 1.1895-1.1022 2.2536-1.6774 3.3756z" fill="#ca1c13"/><path d="m430.9399 312.638c4.4763.0513 4.4763.0513 5.7455-1.0684 1.2109 1.9486 3.0173 1.7728 4.8777 1.2206 3.6487-1.0829 7.2849-2.2079 10.9353-3.2846.6083-.1794 1.2626-.2029 1.8959-.2989.5869 1.7267 1.1736 3.4536 1.7603 5.1806-1.3499 3.1746-4.3875 4.2215-7.1567 5.4905-6.385 2.9259-13.1865 2.3912-20.3249 2.2875.7925-3.3305 1.5297-6.4289 2.2669-9.5273z" fill="#7f0304"/><path d="m45.3257 70.2886c-1.5649 8.1805.345 15.5046 5.3697 22.0953 1.5006 1.9683 2.864 4.0413 4.2909 6.0653-7.4.1243-12.7104-3.5598-16.885-9.2909-.2028-.2784-.3108-.6706-.3439-1.021-.5329-5.6484-1.5139-11.3492 1.7883-16.5851 1.9277-.4212 3.8539-.8424 5.78-1.2636z" fill="#7f0304"/><path d="m76.6995 78.9746c-.7471-.527-1.6102-.945-2.2229-1.598-5.2687-5.6148-11.8474-8.0317-19.414-7.9703-3.0973.0251-6.1929.2733-9.2892.42.3004-1.2528.6007-2.5055.901-3.7583 7.6363-.4542 15.137-.1946 21.9901 3.8681 3.6546 2.1667 6.3332 5.1575 8.035 9.0385z" fill="#c11d15"/><path d="m456.1546 314.3873c-.5867-1.727-1.1734-3.4539-1.7603-5.1806.007-.1503.0142-.301.0215-.4514 1.7194-.7385 3.4388-1.4772 5.1579-2.2161-.1962 3.0271-.9084 5.8293-3.4191 7.8481z" fill="#b00300"/><path d="m46.6743 66.068c-.3003 1.2527-.6006 2.5055-.901 3.7583-.1491.1539-.2981.3078-.4474.462-1.9264.4215-3.8525.8427-5.7802 1.2638.9333-3.7028 3.6258-5.1202 7.1286-5.4841z" fill="#af0400"/><path d="m172.9637 419.0602c-.0078-.1664-.0156-.3327-.0235-.499.1661.0419.3323.0837.4985.1255-.1582.1244-.3166.2489-.475.3735z" fill="#fefefe"/><path d="m201.0851 307.1151c-1.1176-.1181-2.017-.0779-2.8316-.3215-4.9283-1.4738-6.1674-5.8673-2.3279-9.4571 2.6606-2.4876 5.8527-4.5019 9.0481-6.2998 4.6532-2.6181 9.4433-5.0314 14.3253-7.1927 4.0278-1.7832 8.0921-1.4022 11.4883 1.661 3.1183 2.8127 3.3063 7.6876.0063 10.5686-2.4404 2.1306-5.4521 3.8831-8.5056 4.9765-6.0443 2.1643-12.2895 3.7703-18.4626 5.5697-.9592.2796-1.9759.3615-2.7403.4953z" fill="#d3403d"/><path d="m349.9832 233.4335c.0295.1066.049.215.0582.3259-.2864 4.4443-.5725 8.8879-.8586 13.3315-.1865.3694-.373.7388-.5597 1.108-4.718 3.0732-9.4281 6.1584-14.1558 9.2164-4.11 2.6584-8.4573 3.8453-13.1112 1.5551-4.0081-1.9725-5.5746-6.8033-3.1445-10.5306 1.3229-2.029 3.2412-3.975 5.3455-5.1304 5.6413-3.0975 11.5846-5.6398 17.2935-8.6218 2.973-1.5531 6.0565-1.0991 9.1326-1.2541z" fill="#d3403d"/><path d="m243.3519 248.1721c-4.6931-4.1803-10.2866-6.8783-15.8408-9.6255-1.3519-.6686-2.8093-1.2049-4.278-1.5413-4.8017-1.0999-8.5174.9386-10.0203 5.6442-2.0064 6.282-.923 12.2997 1.9978 18.0759.1957.387.4227.7581.621 1.1438.6617 1.2865 1.6072 2.6184.027 3.8689-1.2907 1.0214-4.1133.5038-4.9705-1.1486-1.5572-3.0016-3.1562-6.0535-4.1328-9.2682-1.6448-5.4141-1.2334-10.9113.8369-16.186 2.7615-7.0357 10.0675-10.7223 17.7635-8.9757 7.8074 1.7719 13.5891 6.2796 17.2584 13.3887.6938 1.3443.9356 2.9219 1.3859 4.3919-.2161.0773-.4321.1546-.6481.2319z" fill="#470806"/><path d="m314.2381 232.2303c-2.3422-6.2814-7.5465-10.3042-11.6046-15.2329-2.6557-3.2254-5.3493-3.5449-8.5827-.8592-3.5644 2.9606-4.5711 7.0733-5.0084 11.4124-.1887 1.872-.1566 3.7787-.5039 5.6169-.1623.8591-.9875 1.5929-1.5123 2.3835-.9157-.623-2.3009-1.0424-2.6734-1.9011-3.1628-7.2915 1.2423-20.0918 8.161-24.1296 3.9345-2.2962 8.0379-2.3366 11.7444.1169 7.2774 4.8172 10.9387 11.7536 10.8896 20.5474-.0034.6155-.1868 1.2301-.2865 1.8451-.2078.0669-.4155.1338-.6232.2006z" fill="#480907"/><path d="m249.872 300.2271c2.315.5911 4.7053.98 6.9318 1.8089 8.948 3.3314 17.837 6.8207 26.7681 10.1982 1.8244.6899 3.7255 1.1877 5.61 1.7052 2.7004.7415 3.1048.4951 3.71-2.2597 1.6616-7.5629 3.267-15.1383 4.968-22.6922.3849-1.7094 1.0677-3.3518 1.6135-5.0251l.5967.0876c.0736.4293.2533.871.2053 1.2862-1.0324 8.9171-2.0881 17.8314-3.1491 26.7451-.0597.5015-.1852.9977-.3112 1.4883-.9821 3.8234-3.1153 5.5681-6.9872 4.7076-4.7805-1.0624-9.6116-2.3229-14.0781-4.28-8.4773-3.7147-16.7129-7.9815-25.0392-12.0388-.4185-.2039-.7455-.5952-1.1152-.8993.0922-.2775.1844-.5547.2766-.832z" fill="#4b0c09"/><path d="m349.1828 247.0909c.2861-4.4436.5722-8.8872.8586-13.3315 5.898 2.9282 4.9508 8.7095.9745 12.1824-.5364.4685-1.2185.7702-1.8331 1.1491z" fill="#d45551"/></g></svg>