<svg id="Layer_1" enable-background="new 0 0 512 512" height="512" viewBox="0 0 512 512" width="512" xmlns="http://www.w3.org/2000/svg"><g><path d="m257.7978 474.9786c-3.2025-5.9105-6.2333-11.4971-9.2576-17.0872-9.6737-17.8807-19.3454-35.7625-29.0148-53.6456-.2357-.4359-.5646-.8728-.6314-1.3405-.553-3.8727-3.2812-4.8578-6.637-5.2996-25.7795-3.3948-51.5829-6.6277-77.318-10.3336-25.566-3.6817-50.6398-9.5941-75.0107-18.2651-11.464-4.0788-21.4248-10.5437-29.8616-19.325-2.9302-3.0498-4.4325-6.5903-4.2292-10.9475.5318-11.3972.7516-22.8098 1.3422-34.2035.8255-15.9234 1.7433-31.8444 2.8557-47.7501 2.2654-32.3917 6.2039-64.606 11.0484-96.6993 3.139-20.7947 6.7604-41.5192 10.3808-62.2376 2.1715-12.4269 9.7551-20.4419 21.4735-24.6876 11.035-3.998 22.5316-5.6135 34.169-6.3432 18.9301-1.1869 37.8364-.4056 56.7238.9818 30.039 2.2066 60.0522 4.7446 89.8554 9.1944 36.1472 5.3969 72.2588 11.0323 108.3817 16.5915 22.4705 3.4581 44.881 7.2767 67.0268 12.4541 13.4258 3.1387 27.0166 5.7978 39.8257 11.1115 6.003 2.4903 12.0631 5.0652 16.6763 9.9195 4.0872 4.3008 5.7569 9.4951 5.1656 15.391-1.0392 10.3607-1.8873 20.747-3.2163 31.0709-2.4055 18.6864-5.2097 37.3212-7.6593 56.0022-3.9051 29.7818-7.8348 59.5625-11.3939 89.3867-1.6772 14.0549-2.5379 28.2079-3.7299 42.3196-.6055 7.1689-4.3868 12.5564-9.4738 17.2415-9.1447 8.4224-20.1023 13.3889-31.9634 16.5019-16.0348 4.2085-32.4459 5.9972-48.924 7.3262-19.7975 1.5966-39.6295 1.6169-59.4674 1.4371-3.6849-.0334-7.3812-.0311-11.0493-.3284-3.054-.2475-4.8908 1.01-6.3418 3.5744-5.8227 10.2904-11.6888 20.5575-17.654 30.7659-7.0003 11.9798-14.1199 23.8899-21.1902 35.8287-.2132.3598-.4534.7035-.9013 1.3949zm-168.9615-397.3934c-7.0667.6596-13.7514 2.6105-19.9595 6.0625-5.0313 2.7976-8.0085 7.1872-8.9838 12.7793-1.4107 8.0882-2.6489 16.2086-3.8271 24.3346-2.1033 14.5069-4.1974 29.0162-6.1272 43.5468-2.0315 15.296-4.0581 30.5973-5.7312 45.935-1.5888 14.5657-2.9348 29.1659-3.9937 43.7794-1.3153 18.1519-2.2877 36.3296-3.2852 54.503-.5046 9.1937-.6531 18.4068-1.132 27.6023-.2297 4.4116 1.0282 7.9795 4.3634 10.9691 4.9608 4.4468 10.4454 8.0376 16.582 10.5688 13.9216 5.7426 28.3918 9.7969 43.0668 12.9592 14.1125 3.0411 28.3372 5.6278 42.5909 7.9299 15.5827 2.5167 31.2422 4.5751 46.8932 6.6447 9.3331 1.2342 18.7083 2.1657 28.0777 3.1007 2.4895.2484 3.9474 1.2241 4.8456 3.6283 1.1366 3.042 2.4852 6.0462 4.1004 8.8612 9.2747 16.163 18.6528 32.2665 28.0029 48.3861 1.3582 2.3416 2.7543 4.6613 4.3171 7.3026 2.0189-3.5678 3.8589-6.8194 5.6988-10.0709 3.3687-5.4896 6.8951-10.8896 10.0728-16.4876 6.2898-11.0804 12.4335-22.2448 18.5299-33.4332 1.4669-2.692 1.9247-3.1473 5.083-3.1039 12.8109.1757 25.6233.4995 38.4332.4283 20.6314-.1145 41.223-1.0987 61.6837-3.969 12.3111-1.7271 24.423-4.217 35.8749-9.2934 8.5329-3.7824 16.0093-8.8506 20.8477-17.0783.8622-1.466 1.4473-3.2656 1.5888-4.9589 1.6683-19.9688 2.9673-39.972 4.9001-59.9141 1.4815-15.2874 3.6411-30.5121 5.6563-45.7438 1.959-14.8064 4.1294-29.5847 6.1858-44.3782 1.687-12.1354 3.5114-24.2551 4.9622-36.419 1.2741-10.6828 2.1756-21.412 3.1083-32.1324.2755-3.1666-.9205-6.1116-3.7588-7.6066-5.7478-3.0273-11.4444-6.583-17.6134-8.2964-16.6329-4.6199-33.4008-8.88-50.3038-12.3683-21.281-4.3919-42.7202-8.0472-64.1462-11.6973-16.5403-2.8178-33.1549-5.2087-49.7557-7.6587-15.1274-2.2325-30.2667-4.3963-45.4267-6.3928-14.7438-1.9417-29.502-3.8084-44.2887-5.3798-12.5994-1.339-25.2463-2.2363-37.8759-3.2845-18.1481-1.5062-36.3105-3.0264-54.5368-2.0433-8.259.4453-16.4811 1.5713-24.7198 2.3886z" fill="#24373a"/><path d="m88.8363 77.5852c8.2387-.8173 16.4608-1.9433 24.7196-2.3888 18.2263-.9831 36.3886.537 54.5368 2.0433 12.6296 1.0482 25.2765 1.9455 37.8759 3.2845 14.7867 1.5714 29.5449 3.4381 44.2887 5.3798 15.16 1.9965 30.2993 4.1603 45.4267 6.3928 16.6008 2.45 33.2154 4.8409 49.7557 7.6587 21.426 3.6501 42.8652 7.3055 64.1462 11.6973 16.9031 3.4884 33.671 7.7485 50.3038 12.3683 6.1689 1.7135 11.8656 5.2691 17.6134 8.2964 2.8383 1.4949 4.0343 4.44 3.7588 7.6066-.9326 10.7204-1.8341 21.4496-3.1083 32.1324-1.4508 12.1639-3.2752 24.2836-4.9622 36.419-2.0564 14.7936-4.2268 29.5719-6.1858 44.3782-2.0153 15.2318-4.1748 30.4564-5.6563 45.7438-1.9327 19.9421-3.2318 39.9452-4.9001 59.9141-.1414 1.6933-.7266 3.4928-1.5888 4.9589-4.8384 8.2277-12.3149 13.2959-20.8477 17.0783-11.4519 5.0764-23.5638 7.5663-35.8749 9.2934-20.4606 2.8703-41.0522 3.8545-61.6837 3.969-12.8099.0711-25.6223-.2526-38.4332-.4283-3.1583-.0433-3.6161.4119-5.083 3.1039-6.0964 11.1884-12.2401 22.3528-18.5299 33.4332-3.1777 5.598-6.7041 10.998-10.0729 16.4874-3.0157-7.0896-5.987-14.1982-9.0566-21.2642-5.2956-12.1899-10.5252-24.4111-16.035-36.5041-2.9044-6.3745-7.7717-11.2866-14.1391-14.0998-5.0539-2.2328-10.488-3.7618-15.8885-5.0249-19.005-4.4451-38.0634-8.6629-57.1116-12.9217-9.6238-2.1517-19.3006-4.0735-28.8965-6.3405-10.629-2.511-21.2324-5.1524-31.7706-8.0177-6.4482-1.7532-11.5989-5.5215-14.7785-11.5866-5.4605-10.416-8.087-21.6192-9.1187-33.2545-.4417-4.9809-.8946-9.961-1.3125-14.9439-.571-6.8081-1.4751-13.6124-1.5923-20.4294-.2358-13.7136-.4142-27.442 1.1621-41.119.4919-4.2677.4841-8.5919.9411-12.8649.8828-8.2534 1.78-16.511 2.9561-24.726 1.286-8.9827 2.7885-17.9383 4.3928-26.8704 1.5178-8.4503 3.3006-16.8528 4.948-25.28 2.1066-10.7758 4.2664-21.542 6.2647-32.338 1.3061-7.0551 2.3661-14.1561 3.5363-21.2366zm137.2677 154.231c1.3582.1832 2.1302.2509 2.8876.3951 7.9296 1.5095 15.8483 3.0773 23.7882 4.5301 3.9985.7317 7.6398-1.8458 8.1293-5.8731.52-4.2773 1.0359-8.596 1.0012-12.8922-.1097-13.5837-1.7342-26.9998-5.4138-40.1106-2.9154-10.3878-7.7161-19.7969-15.0928-27.7521-11.5459-12.4512-26.2883-18.2009-42.8223-19.6656-16.8318-1.4911-33.0538 1.5645-48.6487 7.8855-10.5727 4.2854-20.0017 10.3624-27.5267 19.0749-10.553 12.2185-13.1693 26.4872-10.471 42.0019 3.4176 19.6506 11.8109 37.1871 23.2238 53.3497 11.677 16.5367 25.8121 30.8824 41.1486 43.9408 13.8999 11.8352 28.4168 22.9515 42.7883 34.2233 3.6523 2.8646 7.6153 5.4505 11.7462 7.5544 4.1716 2.1247 8.3818-.6484 8.5057-5.3458.0585-2.2171-.3255-4.5633-1.0491-6.665-6.0184-17.4816-12.1687-34.9178-18.2646-52.3728-1.3024-3.7292-2.5453-7.4792-3.9262-11.545.9889.1215 1.6003.1793 2.206.2736 8.1177 1.2639 16.2367 2.5204 24.3504 3.8095 2.0716.3291 3.7852-.1834 5.0921-1.8605 1.3241-1.6991 1.3309-3.5194.4344-5.3952-.3049-.638-.5958-1.3052-1.023-1.8588-4.1976-5.4384-8.349-10.9152-12.6682-16.256-2.5236-3.1208-5.3279-6.0146-8.3954-9.4461zm53.3327 43.0578c-.9672.2553-1.4396.3921-1.9176.5045-8.9634 2.1077-17.9385 4.1674-26.8859 6.341-3.3859.8225-4.9031 2.6157-5.0414 5.964-.4915 11.8941-.6065 23.7917.6133 35.6535.6721 6.5353 1.4865 13.0586 2.4196 19.5611.1194.8317 1.2329 1.9385 2.0821 2.1579 1.612.4164 3.3659.357 5.0614.3647 9.1308.0417 17.5315-2.9584 25.8754-6.2285 19.287-7.5588 37.3006-17.4857 54.5069-28.9725 18.1143-12.0929 34.9828-25.6071 49.3044-42.131 8.8448-10.205 16.3895-21.1291 20.26-34.2946 4.7973-16.3176 2.9367-31.5672-7.0987-45.4832-7.957-11.0339-18.5237-18.8524-31.0851-23.9051-10.6454-4.282-21.7544-5.6822-33.1586-4.3281-9.5545 1.1345-17.2211 5.8079-24.0635 12.4422-15.2672 14.8025-26.3561 31.9373-30.963 52.9384-.668 3.045-.1197 5.4856 2.5614 7.226 1.899 1.2327 3.8484 2.3877 5.7774 3.574.9443.5807 1.8934 1.1536 3.1083 1.8932-.8052.25-1.2507.4254-1.7126.5263-9.965 2.1778-19.9313 4.3491-29.8984 6.517-2.2281.4846-4.78.7808-5.5564 3.2808-.7916 2.5489.8011 4.6023 2.4178 6.4608.1392.16.2962.3061.4552.4471 4.0811 3.6192 8.1129 7.2961 12.2615 10.8362 3.3767 2.8815 6.8933 5.5988 10.6765 8.6543z" fill="#b2e2eb"/><path d="m88.8363 77.5852c-1.1702 7.0806-2.2302 14.1815-3.5362 21.237-1.9983 10.796-4.1581 21.5622-6.2647 32.338-1.6475 8.4272-3.4302 16.8297-4.948 25.28-1.6044 8.9321-3.1068 17.8877-4.3928 26.8704-1.1761 8.215-2.0733 16.4725-2.9561 24.726-.4571 4.2731-.4493 8.5972-.9411 12.8649-1.5763 13.677-1.3979 27.4054-1.1621 41.119.1172 6.817 1.0212 13.6212 1.5923 20.4294.418 4.9829.8708 9.963 1.3125 14.9439 1.0318 11.6353 3.6582 22.8385 9.1187 33.2545 3.1796 6.0651 8.3303 9.8334 14.7785 11.5866 10.5382 2.8653 21.1416 5.5067 31.7706 8.0177 9.5959 2.267 19.2727 4.1888 28.8965 6.3405 19.0482 4.2588 38.1066 8.4766 57.1116 12.9217 5.4005 1.2631 10.8347 2.7921 15.8885 5.0249 6.3674 2.8131 11.2347 7.7252 14.1391 14.0998 5.5098 12.093 10.7394 24.3142 16.035 36.5041 3.0696 7.066 6.041 14.1746 9.0566 21.2642-1.8398 3.2518-3.6798 6.5034-5.6987 10.0712-1.5628-2.6412-2.9588-4.9609-4.3171-7.3026-9.3501-16.1196-18.7283-32.2232-28.0029-48.3861-1.6153-2.815-2.9639-5.8192-4.1004-8.8612-.8982-2.4042-2.356-3.3798-4.8456-3.6283-9.3695-.935-18.7446-1.8665-28.0777-3.1007-15.651-2.0696-31.3105-4.1281-46.8932-6.6447-14.2536-2.302-28.4784-4.8888-42.5909-7.9299-14.675-3.1623-29.1451-7.2166-43.0668-12.9592-6.1365-2.5312-11.6212-6.122-16.582-10.5688-3.3352-2.9896-4.5931-6.5576-4.3634-10.9691.4789-9.1955.6274-18.4086 1.132-27.6023.9975-18.1734 1.97-36.3511 3.2852-54.503 1.0589-14.6135 2.4048-29.2137 3.9937-43.7794 1.6731-15.3378 3.6997-30.639 5.7312-45.935 1.9298-14.5306 4.0239-29.0399 6.1272-43.5468 1.1782-8.126 2.4164-16.2465 3.8271-24.3346.9753-5.5921 3.9525-9.9816 8.9838-12.7793 6.2081-3.4523 12.8929-5.4032 19.9596-6.0628z" fill="#92d8e3"/><path d="m226.104 231.8162c3.0675 3.4315 5.8718 6.3253 8.3955 9.446 4.3192 5.3408 8.4705 10.8177 12.6682 16.256.4272.5535.7181 1.2208 1.023 1.8588.8965 1.8759.8898 3.6961-.4344 5.3952-1.307 1.6771-3.0206 2.1897-5.0921 1.8605-8.1137-1.2891-16.2327-2.5456-24.3504-3.8095-.6057-.0943-1.2171-.1522-2.206-.2736 1.3809 4.0659 2.6239 7.8159 3.9262 11.545 6.0959 17.455 12.2462 34.8912 18.2646 52.3728.7236 2.1017 1.1075 4.4479 1.0491 6.665-.1239 4.6974-4.3341 7.4705-8.5057 5.3458-4.1309-2.1039-8.0939-4.6898-11.7462-7.5544-14.3715-11.2718-28.8884-22.3881-42.7883-34.2233-15.3365-13.0584-29.4716-27.4041-41.1486-43.9408-11.4129-16.1627-19.8061-33.6991-23.2238-53.3497-2.6983-15.5147-.082-29.7834 10.471-42.0019 7.525-8.7125 16.954-14.7895 27.5267-19.0749 15.5948-6.321 31.8169-9.3766 48.6487-7.8855 16.534 1.4647 31.2765 7.2144 42.8223 19.6656 7.3767 7.9552 12.1774 17.3643 15.0928 27.7521 3.6796 13.1109 5.3041 26.5269 5.4138 40.1106.0347 4.2962-.4812 8.6149-1.0012 12.8922-.4895 4.0273-4.1308 6.6048-8.1293 5.8731-7.9398-1.4529-15.8586-3.0206-23.7882-4.5301-.7575-.1441-1.5294-.2118-2.8877-.395zm-81.1773-79.4977s-.0258-.0647-.0258-.0647c-3.4605 2.2742-7.1921 4.2281-10.3296 6.8838-8.7015 7.3652-13.577 16.8186-13.7518 28.3316-.164 10.8052 2.8307 21.0219 6.78 30.9362 8.0298 20.158 20.6233 37.2785 36.1035 52.2484 9.5102 9.1966 19.5527 17.8518 29.5211 26.5614 4.301 3.7578 9.019 7.0384 13.5475 10.5358.8605.8316 1.6547 1.7484 2.5935 2.4796 3.4633 2.6975 6.9777 5.3293 10.4662 7.9945 1.7732 1.3547 3.5323 2.7279 5.2978 4.0928.1706-.1092.3412-.2184.5117-.3277-.2307-.9902-.3687-2.0132-.7057-2.9658-6.8766-19.4351-13.7648-38.8661-20.6785-58.2881-1.7841-5.012.4872-8.5623 5.5101-8.2084 5.0127.3532 10.0098.9409 15.0082 1.4774 2.6281.2821 5.2444.6744 7.866 1.017.0983-.1654.1965-.3308.2948-.4962-1.7193-2.1124-3.4099-4.249-5.1633-6.3328-5.6698-6.7383-11.7828-13.0182-18.8287-18.3556-2.1482-1.6273-2.7254-3.8907-1.8526-6.0251.8272-2.0228 3.1857-3.4697 5.5382-3.1183 11.2746 1.6841 22.542 3.4176 33.8038 5.1853 2.6133.4102 5.1948 1.0227 7.9119 1.5663 0-1.4336.0225-2.5609-.0061-3.687-.0306-1.203-.1443-2.4043-.1622-3.6072-.2132-14.3451-2.4259-28.3597-7.0522-41.9551-8.2827-24.3405-27.4648-36.8746-51.4881-38.1-10.1375-.5171-20.0853.9383-29.8954 3.3223-7.1864 1.7464-14.088 4.2943-20.3293 8.3859-.1618.1711-.3234.3424-.485.5137z" fill="#233638"/><path d="m279.4367 274.874c-3.7833-3.0555-7.2999-5.7728-10.6764-8.6541-4.1486-3.5401-8.1805-7.217-12.2615-10.8362-.159-.141-.316-.2871-.4552-.4471-1.6167-1.8585-3.2094-3.9119-2.4178-6.4608.7764-2.5001 3.3283-2.7962 5.5564-3.2808 9.9671-2.1678 19.9335-4.3392 29.8984-6.517.4619-.1009.9074-.2763 1.7126-.5263-1.2149-.7395-2.164-1.3125-3.1083-1.8932-1.929-1.1863-3.8784-2.3413-5.7774-3.574-2.6811-1.7404-3.2294-4.181-2.5614-7.226 4.6069-21.0011 15.6959-38.1359 30.963-52.9384 6.8424-6.6342 14.509-11.3076 24.0635-12.4422 11.4042-1.3542 22.5132.046 33.1586 4.3281 12.5614 5.0527 23.1282 12.8712 31.0851 23.9051 10.0354 13.916 11.896 29.1656 7.0987 45.4832-3.8706 13.1655-11.4152 24.0896-20.26 34.2946-14.3216 16.5239-31.19 30.0381-49.3044 42.131-17.2063 11.4868-35.2198 21.4136-54.5069 28.9725-8.3439 3.2701-16.7446 6.2702-25.8754 6.2285-1.6955-.0078-3.4494.0517-5.0614-.3647-.8492-.2194-1.9627-1.3262-2.0821-2.1579-.9331-6.5025-1.7476-13.0258-2.4196-19.5611-1.2198-11.8618-1.1048-23.7594-.6133-35.6535.1384-3.3482 1.6555-5.1414 5.0414-5.964 8.9474-2.1736 17.9225-4.2334 26.8859-6.341.478-.1126.9503-.2493 1.9175-.5047zm25.1285-39.3994c1.0547.7051 2.1255 1.3876 3.1608 2.1201 1.8277 1.2931 2.0842 2.7343.3891 4.1844-1.2415 1.0621-2.817 2.0019-4.3894 2.3653-9.4539 2.1849-18.9498 4.1874-28.4317 6.251-3.1291.6106-6.2581 1.2212-9.3872 1.8318-.0662.2265-.1324.453-.1987.6795 9.1357 7.0695 18.2712 14.1391 27.4068 21.2086 1.6696 4.8395.6082 6.6369-4.4862 7.7491-7.8501 1.7138-15.6918 3.4655-23.5371 5.2011-2.2231.3912-4.4482.7714-6.6689 1.1758-4.5836.8347-4.5822.8401-4.5114 5.5438.0043.283-.0122.5663-.0084.8494.1597 11.8011.283 23.6029.5116 35.4026.0488 2.5165.4812 5.0256.7824 7.9852 4.5319-1.8159 8.6996-3.4858 12.8673-5.1558 5.8879-2.2232 11.8914-4.1841 17.6421-6.7188 17.2231-7.5911 33.4655-16.9498 48.9506-27.655 16.3731-11.3191 31.6527-23.8629 44.655-39.0268 7.7188-9.002 14.3724-18.6145 17.324-30.3348 2.8663-11.3816 2.3412-22.3287-4.2224-32.492-9.1206-14.1227-22.1814-22.5538-38.338-26.4511-5.7485-1.3867-11.5807-1.8468-17.4658-.8752-2.5964.5995-5.3963.7662-7.7536 1.8745-9.506 4.4691-16.9654 11.4598-23.2007 19.8147-7.7475 10.3812-12.6525 22.2549-17.6764 34.05-.2939.69.3068 2.4108.9604 2.7514 5.1443 2.6809 10.4027 5.1423 15.6258 7.6712z" fill="#243638"/><path d="m145.4116 151.8046c6.2413-4.0917 13.1429-6.6396 20.3293-8.3859 9.8101-2.384 19.7579-3.8394 29.8954-3.3223 24.0233 1.2254 43.2054 13.7596 51.4881 38.1 4.6263 13.5954 6.839 27.61 7.0522 41.9551.0179 1.2029.1316 2.4042.1622 3.6072.0287 1.1261.0061 2.2535.0061 3.687-2.7171-.5436-5.2986-1.1561-7.9119-1.5663-11.2618-1.7676-22.5292-3.5012-33.8038-5.1853-2.3525-.3514-4.711 1.0955-5.5382 3.1183-.8728 2.1343-.2956 4.3978 1.8526 6.0251 7.0459 5.3374 13.1588 11.6174 18.8287 18.3556 1.7533 2.0838 3.4439 4.2204 5.1633 6.3328-.0983.1654-.1965.3308-.2948.4962-2.6216-.3426-5.2379-.735-7.866-1.017-4.9984-.5365-9.9955-1.1242-15.0082-1.4774-5.0229-.3539-7.2943 3.1965-5.5101 8.2084 6.9137 19.422 13.8019 38.853 20.6785 58.2881.3371.9526.4751 1.9756.7057 2.9658-.1706.1092-.3412.2184-.5117.3277-1.7655-1.3649-3.5245-2.7381-5.2978-4.0928-3.4885-2.6652-7.0029-5.297-10.4662-7.9945-.9388-.7312-1.733-1.6479-2.5939-2.4798-.3488-.6821-.6037-1.4351-1.0601-2.0348-4.0592-5.3333-8.3737-10.4871-12.1896-15.9876-6.6461-9.5802-13.1827-19.2484-19.4053-29.1069-5.5068-8.7244-10.7022-17.6595-15.688-26.6931-2.864-5.1891-5.3048-10.6554-7.4528-16.1847-2.5511-6.5669-4.9256-13.2446-6.7314-20.0456-1.4384-5.4173-2.0041-11.0784-2.7845-16.6554-1.0866-7.7656-.9245-15.4777 1.5707-23.0155.6357-1.9204 1.2478-3.8486 1.8707-5.7732 0 0 .0258.0647.0262.0646.1618-.1713.3232-.3426.4846-.5138z" fill="#f9988a"/><path d="m144.9009 152.2538c-.6229 1.9246-1.235 3.8528-1.8707 5.7732-2.4951 7.5378-2.6572 15.2499-1.5707 23.0155.7804 5.577 1.3461 11.2381 2.7845 16.6554 1.8057 6.801 4.1803 13.4787 6.7314 20.0456 2.148 5.5293 4.5888 10.9956 7.4528 16.1847 4.9858 9.0336 10.1812 17.9687 15.688 26.6931 6.2226 9.8585 12.7591 19.5267 19.4053 29.1069 3.8159 5.5005 8.1304 10.6542 12.1896 15.9876.4564.5996.7113 1.3526 1.0601 2.0348-4.5281-3.4972-9.2461-6.7777-13.547-10.5356-9.9684-8.7096-20.0109-17.3647-29.5211-26.5614-15.4802-14.97-28.0737-32.0905-36.1035-52.2484-3.9493-9.9142-6.944-20.131-6.78-30.9362.1748-11.513 5.0503-20.9664 13.7518-28.3316 3.1374-2.6555 6.869-4.6094 10.3295-6.8836z" fill="#f85f4d"/><path d="m145.4116 151.8046c-.1614.1713-.3228.3426-.4845.5139.1612-.1713.3228-.3426.4845-.5139z" fill="#f85f4d"/><path d="m336.61 169.3129c5.8851-.9716 11.7173-.5115 17.4658.8752 16.1566 3.8973 29.2174 12.3284 38.338 26.4511 6.5635 10.1633 7.0887 21.1103 4.2224 32.492-2.9516 11.7203-9.6052 21.3328-17.324 30.3348-13.0023 15.1638-28.2819 27.7077-44.655 39.0268-15.4851 10.7052-31.7274 20.0638-48.9506 27.655-5.7507 2.5346-11.7542 4.4956-17.6425 6.7188-.5682-8.3003-1.1566-16.5992-1.6975-24.9013-.4537-6.9647-.852-13.933-1.2748-20.8997 7.8453-1.7356 15.6871-3.4873 23.5371-5.2011 5.0944-1.1122 6.1558-2.9096 4.4863-7.7489.7467-2.3953.9647-4.9293-.5701-6.9393-2.1733-2.846-4.631-5.5137-7.2207-7.9929-3.2079-3.0709-6.6751-5.8709-10.0303-8.7879 9.4819-2.0636 18.9778-4.0661 28.4317-6.251 1.5724-.3634 3.1479-1.3032 4.3894-2.3653 1.6951-1.45 1.4385-2.8913-.3891-4.1844-1.0353-.7325-2.106-1.4151-3.1607-2.1201-.1122-2.1777-.3405-4.3573-.3071-6.5328.0409-2.6646-.2993-5.1534-1.6188-7.5507-.9634-1.7504-.8836-3.6669.2323-5.459 4.5897-7.3713 8.7299-15.0717 13.8629-22.0416 5.0875-6.9082 11.2129-13.0471 16.7813-19.6099 1.2485-1.4716 2.0738-3.3024 3.094-4.9678z" fill="#fc988a"/><path d="m336.61 169.3129c-1.0202 1.6654-1.8455 3.4962-3.0941 4.9677-5.5684 6.5627-11.6938 12.7017-16.7813 19.6099-5.133 6.97-9.2731 14.6704-13.8629 22.0416-1.1158 1.7921-1.1957 3.7085-.2323 5.459 1.3195 2.3973 1.6597 4.8861 1.6188 7.5507-.0334 2.1755.195 4.3551.3071 6.5328-5.2233-2.529-10.4816-4.9904-15.6256-7.6712-.6537-.3406-1.2543-2.0614-.9604-2.7514 5.0239-11.7952 9.9288-23.6688 17.6764-34.05 6.2353-8.3549 13.6947-15.3455 23.2007-19.8147 2.3572-1.1081 5.1571-1.2749 7.7536-1.8744z" fill="#f55f4e"/><path d="m265.0917 287.0656c.4229 6.9667.8211 13.935 1.2748 20.8997.5409 8.3021 1.1293 16.6011 1.6975 24.9013-4.1673 1.6699-8.3351 3.3398-12.8669 5.1557-.3012-2.9596-.7337-5.4687-.7824-7.9852-.2286-11.7997-.3519-23.6016-.5116-35.4026-.0038-.2831.0127-.5663.0084-.8494-.0708-4.7037-.0722-4.709 4.5114-5.5438 2.2207-.4044 4.4458-.7846 6.6688-1.1757z" fill="#f55f4d"/><path d="m275.294 250.3954c3.3552 2.917 6.8224 5.717 10.0303 8.7879 2.5897 2.4791 5.0474 5.1469 7.2207 7.9929 1.5348 2.0099 1.3168 4.5439.5701 6.9393-9.1357-7.0698-18.2713-14.1393-27.407-21.2088.0662-.2265.1324-.453.1987-.6795 3.1291-.6106 6.2582-1.2212 9.3872-1.8318z" fill="#f35e4e"/></g></svg>