<svg id="Layer_1" enable-background="new 0 0 512 512" height="512" viewBox="0 0 512 512" width="512" xmlns="http://www.w3.org/2000/svg"><g><path d="m378.9538 477.6426c-.4964.6027-.9245 1.2817-1.4995 1.7967-7.7135 6.908-16.3713 12.128-26.689 13.949-10.0938 1.7814-20.0714 1.1591-29.6797-2.7113-10.6483-4.2893-16.8284-14.539-16.3884-26.9574.2416-6.8185 2.0391-13.3045 4.1658-19.7195 2.2299-6.7265 4.6728-13.3688 6.1149-20.3547 1.0696-5.1814-.1243-9.4284-3.6436-13.1985-6.1914-6.6329-13.7519-11.0746-22.5003-13.1838-7.5249-1.8143-15.191-3.0539-22.8102-4.4636-11.7797-2.1794-23.6009-4.1902-34.7703-8.7656-14.2566-5.8399-25.8267-14.7495-32.6765-28.9465-2.6291-5.4491-4.0585-11.2449-4.5593-17.2623-.6953-8.3557 2.3353-15.6233 6.765-22.4264 4.8841-7.5009 11.3054-13.5359 18.6731-18.4904 9.8536-6.6262 19.8996-12.9658 29.8425-19.4598 3.2339-2.1122 6.2381-4.4427 7.5003-8.3722.9582-2.9831.624-5.981.3208-8.9834-.6284-6.2225-1.1015-12.435-.3304-18.6904.7713-6.2575 2.437-12.0452 7.8323-16.2053-3.2929-1.2978-6.4077-2.5581-9.5459-3.7569-29.5833-11.3002-56.9716-26.4196-81.3191-46.8056-9.9586-8.3382-19.2134-17.365-26.5593-28.1696-6.8413-10.0624-11.7353-20.8935-13.7908-33.0209-1.4628-8.6302-.4327-16.9514 1.8174-25.2102 4.4924-16.4896 14.2234-29.3687 27.6831-39.6282 10.5944-8.0754 22.2389-13.9286 35.334-16.6682 9.1931-1.9233 18.4695-2.6339 27.746-.7475 13.9716 2.8411 24.0669 10.7085 30.0071 23.7588.2214.4865.4484.9703.797 1.7237.8672-1.2483 1.5995-2.2512 2.279-3.2887 6.0513-9.2388 13.3904-17.2709 22.4224-23.6685 8.6013-6.0926 17.9068-10.6359 28.4506-12.207 11.8059-1.7591 22.5924 1.0425 32.4667 7.5652 16.9106 11.1707 26.0065 27.0371 28.0789 47.0673 1.6854 16.2894-.9573 31.9952-6.3884 47.3343-8.1283 22.9568-21.5027 42.5631-38.0488 60.2184-14.4371 15.405-30.527 28.8107-47.9984 40.6112-1.5246 1.0297-2.8835 2.3048-4.7317 3.7993 3.0655 1.2741 5.7716 2.4184 8.4932 3.5247 3.1637 1.2861 6.3961 2.4202 9.4894 3.8557 1.5684.7278 2.8865 1.988 4.3368 2.9797.9575.6547 1.0554 1.3081.4754 2.3764-3.2855 6.0521-8.6139 9.2715-15.0335 10.9668-2.3296.6152-4.7076 1.0689-7.0835 1.4817-3.2541.5653-5.6713-1.0877-6.4257-4.5492-.7386-3.3887-1.2386-6.8293-1.845-10.2468-.0663-.3737-.1432-.7455-.5854-1.1817-.4167 1.3067-.8982 2.5966-1.239 3.9228-1.6912 6.5822-1.071 13.1808-.138 19.792.5832 4.1329 1.2314 8.2668.5287 12.4733-.8834 5.2877-3.4013 9.6494-7.7754 12.6478-6.3893 4.3798-12.9852 8.4588-19.5042 12.6487-8.4868 5.4547-16.7827 11.1554-23.8072 18.4883-4.2557 4.4425-7.8217 9.3171-9.6592 15.3052-1.6325 5.3204-1.6436 10.6223.0252 15.9084 4.6394 14.6955 14.4065 24.6006 28.4954 30.4999 12.4625 5.2183 25.6107 7.6327 38.8571 9.6721 9.0577 1.3946 18.1423 2.68 26.7701 5.9775 9.2719 3.5437 17.3005 8.877 23.231 16.9479 3.9996 5.4431 4.9767 11.6298 3.1322 18.1041-2.2328 7.8375-4.8755 15.5608-6.9992 23.4257-1.4112 5.2263-2.6963 10.57-3.1972 15.9396-.8149 8.7355 4.0526 15.4785 12.3109 18.4743 7.0754 2.5667 14.3633 2.8988 21.7444 2.3075 7.2856-.5837 14.5469-1.4427 21.4219-4.1075 2.6121-1.0125 5.0579-2.4524 7.5861-3.6839.5853-.285 1.1978-.514 1.7978-.7688.0766.1187.1531.2375.2296.3563zm-124.3633-406.9194c-.6376-2.1154-1.2241-4.2479-1.9217-6.3434-3.2067-9.6326-8.9585-17.1536-18.2281-21.6821-5.0551-2.4696-10.4666-3.5209-16.0511-3.783-7.92-.3716-15.667.5431-23.1819 3.1551-4.9539 2.0745-9.9079 4.1491-14.8618 6.2236-1.8062.9833-3.6624 1.8854-5.4107 2.9627-14.5828 8.9862-25.1904 21.2219-30.5299 37.6874-2.4055 7.4179-3.3662 15.0116-2.276 22.7907 1.2682 9.0491 4.9015 17.208 9.5907 24.9283 6.7743 11.1531 15.7794 20.3521 25.6462 28.7529 14.9251 12.7075 31.3109 23.2787 48.7564 32.0965 12.1741 6.1534 24.7997 11.4089 37.1549 17.2118 2.885 1.3551 5.2457 1.401 7.4662-.9946.1668-.1799.4137-.2834.6139-.4348 4.2161-3.1896 8.4308-6.381 12.6458-9.572 3.9152-3.2478 7.8043-6.5277 11.7509-9.737 9.6004-7.8068 18.4338-16.4033 26.6053-25.6877.1855-.1657.3882-.3158.5541-.4993 15.5641-17.2075 27.348-36.5748 33.7159-59.0347 3.3954-11.9757 5.1754-24.1048 3.534-36.5701-1.7709-13.4485-6.9963-25.1428-17.3262-34.2566-6.4147-5.6595-13.664-9.709-22.2715-10.6578-13.9265-1.5351-25.5349 4.0051-36.1434 12.3381-1.7647 1.487-3.5517 2.9485-5.2904 4.4653-7.9536 6.9387-14.9242 14.6295-18.9055 24.628-1.2266 3.0807-2.628 3.5342-5.6361 2.0127zm17.426 158.671c.9012 5.0869 1.7292 9.7606 2.5969 14.6589 5.1034-1.4485 9.4739-3.7678 13.585-7.2343-5.4851-2.5167-10.6372-4.8806-16.1819-7.4246z" fill="#4e1925"/><path d="m322.3597 168.2978c-8.1715 9.2843-17.0049 17.8808-26.6053 25.6876-3.9466 3.2092-7.8357 6.4892-11.7511 9.7367-4.2757-1.5902-8.5805-3.1062-12.82-4.7868-7.0417-2.7915-14.1344-5.4823-21.0375-8.5892-10.6956-4.8138-20.7661-10.777-30.249-17.688-1.5362-1.1196-2.7327-2.7053-4.0863-4.0759 1.3588-.016 2.7281.0689 4.0746-.0687 2.6576-.2716 5.3937-.1139 7.6672-2.0916 2.3581-2.0512 3.3559-4.9316 2.385-7.9659-.9035-2.8236-3.5266-4.7517-6.6425-4.7249-2.7585.0237-5.518.1512-8.2732.3036-4.3544.2408-8.5891.9281-12.2034 3.6588-.1983-.1524-.4397-.2711-.5888-.462-4.5273-5.7987-9.4443-11.2945-13.2316-17.6618-3.3884-5.6966-6.1156-11.6977-7.8946-18.0379-1.5092-5.3784-2.6213-10.907-3.4004-16.4408-.8288-5.8861-1.1434-11.8512-1.5164-17.7922-.1953-3.1119-.0744-6.2468-.0245-9.3701.0618-3.8684-.2019-7.7983.3936-11.5889.9526-6.0643 2.4965-12.0356 3.7905-18.0462 4.9539-2.0745 9.9079-4.1491 14.862-6.2237 1.8838.0815 3.7927.3985 5.6461.1992 5.0125-.5388 9.9342-.5605 14.9083.5835 8.551 1.9666 15.1659 6.7479 20.351 13.5867 4.0968 5.4034 8.1438 10.8312 12.9297 15.6549.9389.9463 1.9981 1.7733 3.2005 2.83.8565-1.5331 1.6017-2.867 2.3469-4.2009 3.0081 1.5215 4.4095 1.068 5.6361-2.0125 3.9814-9.9985 10.9519-17.6894 18.9055-24.628 1.7387-1.5168 3.5257-2.9783 5.2904-4.4653 1.2964-.1058 2.6382-.0339 3.8806-.3512 3.5991-.9191 7.1659-1.9687 10.7314-3.0146 5.6424-1.6552 11.2465-3.4045 17.2786-2.3915 3.8181.6411 7.6368 1.2179 11.1637 2.92 7.8498 3.7884 12.6376 10.3909 16.2537 17.9804 2.4531 5.1486 3.9163 10.5951 4.7105 16.2746.7178 5.1329.6662 10.2481.1002 15.3275-.6089 5.4646-1.4668 10.9336-2.7073 16.2869-1.3783 5.948-3.1753 11.8112-5.0486 17.628-1.3228 4.1074-3.0586 8.0831-4.6424 12.1048-1.9708 5.0041-3.957 10.0023-5.9692 14.9899-2.6329 6.5261-5.3076 13.0354-7.9234 19.5682-.1511.3772.0644.9014.1094 1.3573zm-103.7571-24.2207c15.1938.3234 28.5059-12.0545 28.4562-28.0606-.0485-15.6158-12.2268-28.1786-28.1432-28.2385-15.4439-.0581-28.0762 12.5034-28.2711 27.5611-.22 16.9871 13.757 29.0154 27.9581 28.738zm75.5753-6.0415c15.8516.2092 28.4372-12.1242 28.353-28.1084-.084-15.9461-12.1237-28.1509-28.2588-28.0964-16.188.0547-28.1477 12.5468-28.0863 28.0847.065 16.4398 12.8744 28.312 27.9921 28.1201zm.3202 18.462c-.1123 4.5917 3.6073 7.4108 7.4067 7.0056 2.9363-.3132 5.8727-.6335 8.8004-1.0169 3.3421-.4377 6.6619-.9656 9.5047-3.0203 3.0167-2.1805 2.7811-8.1087-.6694-9.4398-2.8936-1.1163-6.1602-2.043-9.1844-1.8491-3.8878.2493-7.7701 1.483-11.5185 2.7092-2.7397.8962-4.0232 3.3213-4.3395 5.6113zm-16.7675.917c-.5618.6186-.8846.9664-1.1991 1.3216-2.6344 2.9758-5.2162 6.0004-7.916 8.9156-2.3604 2.5486-4.0992 2.8327-7.1216 1.2719-2.0088-1.0374-3.9737-2.1689-5.9031-3.3485-2.4145-1.4761-4.7725-3.0447-7.1549-4.5734-.0647.6208.0639 1.0488.3206 1.3765 3.5843 4.5768 7.7618 8.4535 13.1659 10.7959 2.9353 1.2723 5.7737 1.0255 8.4307-.8643 4.9999-3.5562 6.7845-8.7048 7.3775-14.8953z" fill="#ee8ba1"/><path d="m180.346 48.2935c-1.294 6.0106-2.8379 11.982-3.7905 18.0462-.5954 3.7905-.3317 7.7205-.3936 11.5889-.0499 3.1234-.1709 6.2582.0245 9.3701.373 5.941.6876 11.9061 1.5164 17.7922.7791 5.5338 1.8913 11.0624 3.4004 16.4408 1.779 6.3402 4.5062 12.3413 7.8946 18.0379 3.7873 6.3673 8.7043 11.8632 13.2316 17.6618.149.1909.3904.3096.5884.4616-.1142.3895-.2281.7795-.342 1.1694-1.4448 3.4803-.6411 6.1965 2.7592 7.5023 2.5744.9887 5.4164 1.2808 8.1392 1.8829.8121.1116 1.6242.2232 2.4363.3349 1.3535 1.3703 2.5499 2.956 4.0861 4.0756 9.4829 6.911 19.5535 12.8742 30.249 17.688 6.9031 3.1069 13.9958 5.7977 21.0375 8.5892 4.2395 1.6806 8.5443 3.1966 12.82 4.7868-4.2147 3.1913-8.4294 6.3827-12.6455 9.5723-.2002.1515-.4471.2549-.6139.4348-2.2205 2.3956-4.5811 2.3497-7.4662.9946-12.3552-5.8029-24.9808-11.0584-37.1549-17.2118-17.4455-8.8178-33.8314-19.389-48.7564-32.0965-9.8668-8.4008-18.8719-17.5998-25.6462-28.7529-4.6892-7.7202-8.3225-15.8792-9.5907-24.9283-1.0902-7.7791-.1295-15.3729 2.276-22.7907 5.3394-16.4655 15.947-28.7011 30.5299-37.6874 1.7483-1.0773 3.6046-1.9794 5.4108-2.9627z" fill="#e96d8e"/><path d="m322.3597 168.2978c-.045-.4558-.2605-.98-.1094-1.3574 2.6158-6.5329 5.2905-13.0421 7.9234-19.5682 2.0122-4.9876 3.9984-9.9858 5.9692-14.9899 1.5839-4.0217 3.3196-7.9974 4.6424-12.1048 1.8734-5.8168 3.6704-11.68 5.0486-17.628 1.2405-5.3533 2.0984-10.8224 2.7073-16.2869.566-5.0794.6176-10.1946-.1002-15.3275-.7942-5.6795-2.2574-11.126-4.7105-16.2746-3.6161-7.5895-8.4039-14.192-16.2537-17.9804-3.5269-1.7021-7.3456-2.2789-11.1637-2.92-6.0321-1.0129-11.6362.7363-17.2786 2.3915-3.5655 1.0459-7.1323 2.0955-10.7314 3.0146-1.2424.3173-2.5842.2453-3.8806.3512 10.6085-8.333 22.2169-13.8732 36.1434-12.3382 8.6075.9488 15.8567 4.9982 22.2715 10.6578 10.3299 9.1139 15.5553 20.8081 17.3262 34.2566 1.6414 12.4653-.1386 24.5944-3.534 36.5701-6.368 22.46-18.1518 41.8272-33.7159 59.0347-.1658.1835-.3685.3337-.554.4994z" fill="#f3b8c6"/><path d="m254.5905 70.7232c-.7452 1.3339-1.4905 2.6679-2.3469 4.2009-1.2024-1.0567-2.2616-1.8837-3.2005-2.83-4.7859-4.8237-8.8329-10.2515-12.9297-15.6549-5.1851-6.8388-11.8-11.6201-20.351-13.5867-4.9742-1.144-9.8958-1.1223-14.9083-.5835-1.8534.1992-3.7623-.1177-5.6461-.1992 7.5148-2.6119 15.2618-3.5266 23.1818-3.155 5.5844.262 10.9959 1.3134 16.0511 3.783 9.2696 4.5284 15.0214 12.0494 18.2281 21.6821.6975 2.0954 1.2839 4.2279 1.9215 6.3433z" fill="#f3b7c5"/><path d="m272.0165 229.3942c5.5447 2.5441 10.6968 4.9079 16.1819 7.4247-4.1111 3.4665-8.4816 5.7858-13.585 7.2343-.8678-4.8984-1.6957-9.5721-2.5969-14.659z" fill="#e66b8a"/><path d="m218.6026 144.0771c-14.2011.2775-28.1781-11.7508-27.9581-28.7379.1949-15.0577 12.8272-27.6192 28.2711-27.5611 15.9164.0599 28.0947 12.6227 28.1432 28.2385.0497 16.006-13.2624 28.3839-28.4562 28.0605zm-3.1196-31.9442c-.0768 0-.1537 0-.2305 0 0 1.5086.0021 3.0172-.0006 4.5259-.0028 1.5598-.1642 3.139.0297 4.6737.1777 1.4069.5571 2.8522 1.1713 4.1243.8312 1.7215 2.2326 2.2742 4.0017 1.9877 1.574-.2549 2.8082-1.3802 3.1197-3.0868.2243-1.2287.4502-2.5302.2825-3.745-.8114-5.8771-1.6763-11.7499-2.7147-17.59-.2299-1.2927-1.1494-2.5113-1.9456-3.6252-.2401-.3358-1.3587-.4902-1.6896-.2327-1.0929.8507-2.091 1.8154-2.0479 3.4654.0827 3.1655.024 6.3349.024 9.5027z" fill="#fefdfd"/><path d="m294.1779 138.0356c-15.1177.1919-27.9272-11.6803-27.9921-28.12-.0614-15.5379 11.8984-28.03 28.0863-28.0847 16.1351-.0545 28.1747 12.1503 28.2588 28.0964.0842 15.9841-12.5014 28.3175-28.353 28.1083zm-5.2221-35.057c-.0878.0138-.1755.0276-.2633.0414.583 6.0428 1.1565 12.0866 1.7629 18.127.0642.6396.2399 1.2967.5045 1.8822.8855 1.9591 3.799 3.0576 5.1492 1.9235 1.5022-1.2617 2.3904-2.7832 1.9053-4.8956-.3699-1.6107-.5328-3.2684-.8046-4.9024-1.0871-6.5358-2.1764-13.0713-3.2757-19.6051-.2259-1.3423-.7725-2.4479-2.3656-2.4436-1.626.0044-2.163 1.1668-2.2645 2.5013-.1866 2.4518-.2395 4.9137-.3482 7.3713z" fill="#fefdfd"/><path d="m294.4981 156.4976c.3163-2.29 1.5998-4.7151 4.3395-5.6113 3.7484-1.2262 7.6307-2.46 11.5185-2.7092 3.0242-.1939 6.2908.7328 9.1844 1.8491 3.4504 1.3311 3.6861 7.2593.6694 9.4398-2.8428 2.0548-6.1626 2.5826-9.5047 3.0203-2.9276.3835-5.8641.7037-8.8004 1.0169-3.7994.4052-7.5189-2.4139-7.4067-7.0056z" fill="#e85960"/><path d="m202.4758 158.8625c.1139-.39.2278-.7799.342-1.1694 3.6147-2.7303 7.8493-3.4176 12.2038-3.6584 2.7552-.1523 5.5146-.2799 8.2732-.3036 3.1159-.0268 5.739 1.9014 6.6425 4.7249.971 3.0343-.0269 5.9147-2.385 7.9659-2.2735 1.9777-5.0096 1.82-7.6672 2.0916-1.3465.1376-2.7158.0527-4.0746.0687-.812-.1113-1.6241-.2229-2.4362-.3346-.1526-.3039-.2338-.686-.4685-.8998-2.8434-2.5916-5.6892-5.1817-8.5897-7.7086-.477-.4155-1.2202-.5255-1.8403-.7767z" fill="#e8595f"/><path d="m277.7306 157.4146c-.593 6.1905-2.3776 11.3391-7.3775 14.8953-2.6569 1.8897-5.4954 2.1366-8.4307.8643-5.4041-2.3424-9.5816-6.2191-13.1659-10.7959-.2567-.3277-.3853-.7558-.3206-1.3765 2.3824 1.5287 4.7404 3.0973 7.1549 4.5734 1.9294 1.1796 3.8944 2.3111 5.9031 3.3485 3.0223 1.5609 4.7612 1.2768 7.1216-1.2719 2.6998-2.9152 5.2816-5.9397 7.916-8.9156.3144-.3552.6373-.703 1.1991-1.3216z" fill="#521b28"/><path d="m202.4758 158.8625c.6201.2512 1.3633.3612 1.8403.7767 2.9005 2.5269 5.7463 5.117 8.5897 7.7086.2346.2139.3159.5959.4685.8998-2.7229-.6021-5.5648-.8941-8.1392-1.8828-3.4004-1.3058-4.2041-4.0221-2.7593-7.5023z" fill="#e64a56"/><path d="m215.483 112.1329c0-3.1679.0587-6.3372-.0241-9.5029-.0432-1.65.955-2.6147 2.0479-3.4654.3309-.2575 1.4495-.1031 1.6896.2327.7962 1.1139 1.7158 2.3325 1.9456 3.6252 1.0385 5.8401 1.9033 11.713 2.7147 17.59.1677 1.2148-.0582 2.5163-.2825 3.745-.3116 1.7066-1.5457 2.8319-3.1197 3.0868-1.7691.2865-3.1705-.2662-4.0017-1.9877-.6142-1.2721-.9936-2.7175-1.1713-4.1243-.1938-1.5346-.0325-3.1139-.0297-4.6737.0027-1.5086.0006-3.0172.0006-4.5259.077.0002.1538.0002.2306.0002z" fill="#501b26"/><path d="m288.9558 102.9786c.1086-2.4577.1616-4.9196.3481-7.3713.1015-1.3346.6385-2.4969 2.2645-2.5013 1.5931-.0044 2.1397 1.1012 2.3656 2.4436 1.0993 6.5338 2.1886 13.0693 3.2757 19.6051.2718 1.634.4347 3.2917.8046 4.9024.4851 2.1124-.4031 3.6339-1.9053 4.8956-1.3502 1.1341-4.2636.0357-5.1492-1.9235-.2646-.5854-.4402-1.2426-.5045-1.8822-.6064-6.0405-1.1799-12.0842-1.7629-18.127.0879-.0138.1756-.0276.2634-.0414z" fill="#501b27"/></g></svg>