<svg id="Layer_1" enable-background="new 0 0 512 512" height="512" viewBox="0 0 512 512" width="512" xmlns="http://www.w3.org/2000/svg"><g><path d="m495.5885 154.9098c-1.5153 6.879-2.9552 13.6545-4.5035 20.4051-7.9538 34.6783-19.2944 68.3941-29.0935 102.549-8.0961 28.2189-15.9991 56.5052-23.2701 84.9451-6.1021 23.868-11.1624 48.0021-16.697 72.0154-2.3843 10.3448-4.8013 20.6819-7.28 31.3516-2.8161-.8199-5.5599-1.4687-8.1998-2.4093-59.5628-21.2222-119.1146-42.4755-178.6677-63.725-40.3322-14.3912-80.6615-28.7909-120.9958-43.1764-25.4297-9.0697-50.8577-18.1444-76.3103-27.1495-3.2607-1.1537-6.6518-1.9525-10.0072-2.8201-2.9325-.7583-3.2104-1.079-2.417-4.0269 8.0827-30.0304 16.1383-60.0683 24.2803-90.0826 15.7613-58.1022 34.2054-115.3892 52.5925-172.6924 1.2715-3.9626 2.7108-7.8715 4.0808-11.8023.1111-.3187.2901-.6138.6262-1.3115 66.4275 16.3347 132.9027 32.5582 199.1157 49.844 66.1671 17.2738 131.0623 38.8345 196.7464 58.0858zm-459.1182 164.3319c-1.9414-.9673-3.8828-1.9346-6.058-3.0185-.3412 1.6832-.6173 3.0452-.9265 4.5711 2.1471.5339 4.066 1.011 5.9849 1.4882 1.5667.5453 3.1333 1.0905 4.7 1.6358 3.9185 1.4019 7.8212 2.8498 11.758 4.1984 23.1905 7.9436 46.3889 15.864 69.5847 23.7922.9399.4169 1.8559.9024 2.8233 1.2406 16.6478 5.8204 33.3269 11.5524 49.9493 17.4444 28.1362 9.9733 56.2399 20.0385 84.3528 30.0775 32.168 11.4872 64.3139 23.0364 96.5044 34.4602 13.4722 4.7809 27.0344 9.3082 40.5557 13.9508 3.9331 1.4602 7.8662 2.9203 12.0467 4.4723.5329-2.4287.9958-4.5383 1.497-6.8226-6.0673-1.8158-11.8245-3.5388-17.5817-5.2619l-.02.0456c-.1752-.1024-.3505-.2048-.5257-.3073-.3798-.162-.7503-.3517-1.1407-.4821-22.8573-7.6336-45.7701-15.1057-68.5633-22.926-39.6227-13.5944-79.1816-27.3748-118.747-41.1357-17.9063-6.2278-35.7639-12.5959-53.6436-18.9004-.5231-.1855-1.0462-.3709-1.5693-.5564l.0305.0522c-.8062-.3629-1.5888-.7951-2.422-1.0787-27.4143-9.3311-54.834-18.6462-82.2513-27.9683-6.5679-2.2331-13.1303-4.4823-19.6958-6.7243-2.2141-.7491-4.4282-1.4981-6.6424-2.2471zm444.8904-142.5515c.4058-1.1799.8115-2.3597 1.2172-3.5396-.1793-.1384-.3586-.2767-.5378-.4151-3.8645 2.2832-7.7291 4.5665-11.5936 6.8497-2.1007 1.1041-4.2014 2.2082-6.3022 3.3123-6.911 3.6971-13.8387 7.3633-20.7296 11.0974-15.994 8.667-31.8781 17.5423-47.9782 26.0067-18.2423 9.5907-36.6597 18.8494-55.0421 28.1713-1.586.8043-2.6926 1.7267-3.4381 3.3505-3.7924 8.2603-9.3094 15.2965-15.8697 21.4987-8.6894 8.2149-17.9272 15.7777-27.6598 22.7399-11.3608 8.127-23.1662 15.5411-35.4004 22.2702-3.643 2.0038-7.0924 2.146-9.6793-1.3362-.1448-.1949-.4762-.2514-.7207-.3723-1.282-1.2657-2.5691-2.5261-3.8451-3.7978-6.7271-6.7046-13.7841-13.1143-20.1053-20.1821-12.0251-13.4456-21.2796-28.7305-28.38-45.3175-3.7836-8.8388-6.3039-17.8538-5.6075-27.6719.204-2.876-1.0395-5.9718-2.1052-8.7828-.8191-2.1606-2.3827-4.0433-3.6447-6.0309-7.5139-11.8333-15.2061-23.5573-22.5186-35.5136-13.0635-21.3595-25.9288-42.8405-38.8148-64.308-4.4597-7.4296-8.7347-14.97-13.0941-22.4598-2.6117-5.0371-5.2234-10.0741-8.0584-15.5419-25.5097 82.0213-49.7972 163.6876-70.2249 246.599 2.3392.7211 4.3844 1.3515 6.4296 1.982 4.1211 1.4384 8.2421 2.8768 12.3632 4.3152.3788.1703.7463.3742 1.1381.5061 19.9334 6.7144 39.8898 13.3614 59.7989 20.1473 24.1198 8.221 48.2027 16.5504 72.295 24.8517 6.6268 2.2833 13.2303 4.6339 19.8446 6.9536.8888.3759 1.76.8018 2.6689 1.1202 20.6998 7.2518 41.3937 14.5205 62.1091 21.7274 33.4412 11.6342 66.8953 23.2312 100.3482 34.8314 6.226 2.1589 12.4725 4.2591 18.7095 6.3864 7.4506 2.77 14.9011 5.5399 22.6048 8.404.2521-1.2048.4182-1.9987.5844-2.7927 2.5074-11.3184 4.8126-22.6862 7.5622-33.9454 6.7025-27.4464 13.1004-54.9826 20.5709-82.2221 8.5557-31.1962 18.1389-62.1106 27.2722-93.1485 3.0168-10.252 6.0223-20.5074 9.033-30.7612 2.2666-8.3272 4.5335-16.6544 6.8003-24.9816zm-296.0429 16.2375c.1616.2457.3232.4913.4848.737 2.3605 3.8715 4.7211 7.7431 7.0923 11.632.4292-.3001.5721-.3569.65-.462.3293-.4446.6559-.8928.9536-1.3588 2.9899-4.6819 6.5302-8.8421 11.4556-11.5835 12.2542-6.8205 24.7055-6.4768 37.2184-.7868 9.041 4.1112 16.4051 10.1107 20.8209 19.2358 1.0692 2.2095 1.9085 4.5303 2.898 6.9068.9592-.633 1.7602-1.1764 2.5754-1.6975 16.546-10.5791 33.6832-12.088 51.411-3.191 10.0711 5.0544 16.8549 12.7366 18.6363 24.2206.2493 1.6069.5334 3.2084.8402 5.0449 1.0739-.4407 1.8609-.6893 2.5786-1.0692 13.9796-7.3989 28.0003-14.722 41.9124-22.2459 19.8429-10.7313 39.6156-21.5926 59.3965-32.4383 8.2103-4.5016 16.3641-9.1062 24.5436-13.664 4.9983-2.6482 10.0162-5.2606 14.9714-7.9872.6653-.3661 1.0133-1.3087 1.6978-2.2431-4.1289-1.1044-7.8506-2.0999-11.5721-3.0953-.7048-.2762-1.3945-.6016-2.1164-.8215-29.2646-8.9136-58.5216-17.8518-87.8045-26.7049-10.6846-3.2303-21.4314-6.2551-32.1498-9.3737-1.0208-.4016-2.0161-.894-3.0669-1.1882-3.5418-.9915-7.1061-1.9021-10.6569-2.862-32.0995-8.6769-64.1481-17.5473-96.3089-25.9903-41.7633-10.9639-83.6141-21.5946-125.432-32.3503-4.0481-1.0412-8.1294-1.9529-12.6769-3.0398 1.4389 5.9142 5.0625 10.1606 7.5691 14.9552 2.8603 4.9797 5.6774 9.9849 8.5952 14.9307 2.1748 3.6863 4.4799 7.2957 6.7269 10.9394.1968.4394.352.9037.5967 1.3147 4.8591 8.1596 9.6694 16.3491 14.6083 24.4602 10.3136 16.9377 20.6403 33.868 31.0789 50.7288 4.0051 6.4692 8.33 12.7403 12.5092 19.1017zm17.9759 48.4425c2.0357 4.529 3.8677 9.1633 6.1463 13.5666 6.1612 11.9064 13.7758 22.9162 21.4522 33.871 4.7936 6.8407 10.254 13.0915 17.0236 18.091 3.8614 3.9686 4.0223 3.9797 8.5656 1.2458 18.3983-11.0709 36.1721-23.0241 52.4496-37.0924 6.8637-5.9322 13.0171-12.4849 17.6179-20.3743 3.2044-5.4948 4.8055-11.2323 2.4025-17.4858-1.6842-4.383-4.9925-7.4019-8.6215-10.1802-12.3865-9.4831-30.0578-9.5483-42.3748-3.077-2.7362 1.7314-5.5543 3.348-8.1854 5.2264-2.6091 1.8627-5.0298 3.9892-7.686 6.1227-.5868-2.0415-1.0652-3.7061-1.5437-5.3707.1898-3.8472-.6853-7.4974-2.5323-10.8153-8.0633-14.4849-22.0665-21.6279-38.5229-19.1372-8.3954 1.2706-14.6079 5.764-18.2034 13.5682-5.0492 10.9598-2.9592 21.4989 2.0123 31.8412z" fill="#4c211a"/><path d="m109.5113 82.2594c4.3594 7.4898 8.6344 15.0302 13.0941 22.4598 12.886 21.4675 25.7513 42.9485 38.8148 64.308 7.3125 11.9563 15.0047 23.6803 22.5186 35.5136 1.262 1.9875 2.8256 3.8703 3.6447 6.0309 1.0657 2.811 2.3092 5.9068 2.1052 8.7828-.6964 9.8181 1.8239 18.8331 5.6075 27.6719 7.1004 16.587 16.3549 31.8719 28.38 45.3175 6.3211 7.0678 13.3781 13.4776 20.1053 20.1821 1.276 1.2717 2.5631 2.5321 3.845 3.7977 1.0023 1.5145 1.6845 3.8325 3.0703 4.3848 3.4142 1.3607 7.1385 2.5693 10.7621 2.6422 6.5554.1317 12.9037-1.7199 18.8058-4.5442 7.179-3.4352 14.2404-7.1355 21.2207-10.9619 10.013-5.4888 18.8839-12.5554 27.082-20.4657 3.9391-3.8007 7.8509-7.6411 11.5723-11.6517 2.1521-2.3193 4.2258-4.8309 5.7621-7.5765 3.0396-5.4319 6.9142-9.8022 12.745-12.2622 4.0814-1.7219 8.1648-3.445 12.1913-5.2899 14.3792-6.5882 28.7727-13.1473 43.0871-19.8744 11.9884-5.6339 23.8702-11.4944 35.809-17.2341 1.5095-.7257 3.0786-1.3269 5.0481-2.1687-.3752 1.258-.5915 2.0419-.8421 2.8148-5.0023 15.4268-10.3819 30.7435-14.9203 46.3055-5.7715 19.7904-10.9559 39.7546-16.2118 59.6918-3.2771 12.4309-6.0344 24.9996-9.3573 37.4176-4.2219 15.7776-8.7859 31.4635-13.1835 47.1943-.3759 1.3448-1.106 1.9496-2.5476 1.8475-2.7605-.1955-5.5285-.2849-8.2933-.4185-.2538-.0317-.5078-.0631-.7618-.0947-1.619-2.8961-3.1558-5.8422-4.8735-8.6785-4.1579-6.8653-8.0863-13.899-12.6786-20.4652-7.804-11.1586-16.007-22.04-24.1363-32.9679-1.9228-2.5847-4.1888-4.9193-6.3772-7.2949-.3099-.3363-1.078-.2505-1.6341-.3602-.0595.51-.2393 1.0401-.1583 1.5267.4182 2.5118.9032 5.0126 1.365 7.5166-1.8589-2.8284-3.718-5.6561-5.577-8.4838-.2962.1972-.5924.3944-.8886.5916 1.831 2.7301 3.662 5.4602 5.4929 8.1903.3492.6713.671 1.3586 1.052 2.0113 2.5023 4.2878 5.0175 8.5682 7.5285 12.851.1299.1856.2598.3712.3897.5569l-.0062-.0208c.2421 1.2067.2888 2.4965.7601 3.6058 2.0857 4.9095 4.2108 9.806 6.4777 14.634 2.8839 6.1422 5.9092 12.2181 8.8929 18.3131.9498 1.9404 1.9613 3.8506 3.0371 5.9558-1.4806 0-2.6694.1344-3.8171-.0256-3.2088-.4474-6.3938-1.0635-9.6004-1.5288-9.0108-1.3075-18.0501-2.4347-27.0356-3.8951-8.2386-1.339-16.4354-2.9496-24.6256-4.5673-9.8198-1.9395-19.6184-3.9879-29.416-6.0376-7.2981-1.5268-14.5994-3.0468-21.8651-4.7185-12.6596-2.9127-25.2848-5.9746-37.9425-8.8958-3.2759-.7561-6.6189-1.2217-9.9311-1.8207-6.6142-2.3197-13.2178-4.6703-19.8446-6.9536-24.0923-8.3013-48.1752-16.6307-72.295-24.8517-19.909-6.7859-39.8654-13.4329-59.7989-20.1473-.3917-.1319-.7593-.3358-1.138-.5062.5416-.5025 1.0005-1.1784 1.6369-1.481 8.1215-3.8608 16.1847-7.8605 24.4272-11.4469 14.6615-6.3793 28.4268-14.2997 41.544-23.3908.6241-.4326 1.0233-1.1897 1.5272-1.7957-2.4222-.1596-4.4603.1291-6.5085.2689-1.895.1293-3.8008.0992-5.7018.1393 6.3883-2.8377 12.7766-5.6754 19.1649-8.5132 2.4631-.8454 4.9261-1.6908 7.3892-2.5361-.1224-.3419-.2449-.6839-.3673-1.0258-2.3343.8655-4.6686 1.731-7.003 2.5965-5.8587 1.9349-11.8337 3.5786-17.5527 5.8633-13.2643 5.2989-26.438 10.8297-39.5784 16.4307-4.9003 2.0887-9.6055 4.6351-14.3996 6.9727.4852-.5092.8806-1.1862 1.4696-1.5013 5.0195-2.6851 10.0966-5.2627 15.1132-7.9532 7.9488-4.2631 15.8863-8.5482 23.7881-12.8977 9.8428-5.4179 19.6492-10.9019 29.4605-16.3768 2.6291-1.4671 5.2186-3.0053 7.8263-4.5109-.0892-.1658-.1785-.3316-.2677-.4974-29.995 10.6352-58.9287 23.6126-86.6274 39.6598-.0614-1.2027.0883-2.1817.3864-3.1131 3.6364-11.3584 7.4353-22.6668 10.9152-34.0728 5.6819-18.6237 11.0677-37.3376 16.7471-55.9621 6.5923-21.6182 13.3989-43.171 20.0459-64.7726 2.6493-8.6098 5.2305-17.2438 7.6445-25.9219 2.9134-10.4744 5.6165-21.0078 8.4107-31.5158z" fill="#fedf94"/><path d="m351.8116 121.9821c10.7184 3.1186 21.4651 6.1434 32.1498 9.3737 29.2828 8.8531 58.5399 17.7913 87.8045 26.7049.7219.2199 1.4117.5453 2.1163.8217-1.6991 4.4419-3.398 8.8837-5.0969 13.3255-8.1795 4.5578-16.3333 9.1624-24.5436 13.664-19.7808 10.8457-39.5535 21.707-59.3965 32.4383-13.9121 7.5239-27.9328 14.847-41.9124 22.2459-.7176.3798-1.5047.6285-2.5786 1.0692-.3068-1.8365-.5909-3.438-.8402-5.0449-1.7815-11.4841-8.5652-19.1663-18.6363-24.2206-17.7278-8.897-34.8651-7.3881-51.411 3.191-.8152.5212-1.6162 1.0645-2.5754 1.6975-.9895-2.3765-1.8288-4.6973-2.898-6.9068-4.4158-9.1251-11.7799-15.1246-20.8209-19.2358-12.5129-5.6899-24.9642-6.0337-37.2184.7868-4.9254 2.7414-8.4656 6.9016-11.4556 11.5835-.2976.466-.6243.9143-.9536 1.3588-.0778.1051-.2208.1619-.65.462-2.3712-3.889-4.7318-7.7605-7.0921-11.6318-.1615-.2456-.3233-.4914-.485-.7372 0 0 .0365.0544.0366.0542-.1687-.7994-.2164-1.6496-.5284-2.3883-1.0234-2.4232-2.1346-4.8097-3.2268-7.2036-6.0177-13.1887-11.7964-26.4935-18.1249-39.5313-7.1227-14.6741-14.6919-29.133-22.1694-43.6326-3.2411-6.2848-6.7785-12.416-10.1043-18.6581-1.8713-3.5121-3.5855-7.1078-5.5104-10.9448.9094.0755 1.4018.0397 1.8488.1654 3.9972 1.1245 7.9676 2.3486 11.981 3.4104 22.6225 5.9849 45.2018 12.1442 67.9011 17.8233 16.7754 4.197 33.7017 7.7958 50.5795 11.5774 11.4733 2.5707 22.9567 5.1059 34.4763 7.458 12.8008 2.6137 25.6357 5.066 38.4795 7.4613 6.9262 1.2916 13.9019 2.3173 20.8553 3.463z" fill="#fedf94"/><path d="m389.4261 406.1746c2.7649.1335 5.5329.2229 8.2934.4184 1.4416.1021 2.1717-.5027 2.5476-1.8475 4.3976-15.7307 8.9616-31.4167 13.1835-47.1943 3.3229-12.418 6.0802-24.9867 9.3573-37.4176 5.2559-19.9372 10.4403-39.9014 16.2118-59.6918 4.5384-15.562 9.918-30.8787 14.9203-46.3055.2506-.7728.4669-1.5568.8421-2.8148-1.9695.8418-3.5387 1.443-5.0481 2.1687-11.9388 5.7397-23.8206 11.6002-35.809 17.2341-14.3144 6.7271-28.7079 13.2862-43.0871 19.8744-4.0265 1.8448-8.1099 3.568-12.1913 5.2899-5.8308 2.4599-9.7054 6.8302-12.745 12.2622-1.5363 2.7455-3.61 5.2572-5.7621 7.5765-3.7214 4.0106-7.6332 7.851-11.5723 11.6517-8.1981 7.9103-17.069 14.977-27.082 20.4657-6.9803 3.8264-14.0417 7.5266-21.2207 10.9619-5.9021 2.8242-12.2504 4.6759-18.8058 4.5442-3.6237-.0728-7.3479-1.2815-10.7621-2.6422-1.3858-.5523-2.068-2.8702-3.0703-4.3848.2446.1209.5759.1774.7208.3723 2.5869 3.4821 6.0363 3.3399 9.6793 1.3362 12.2342-6.7291 24.0396-14.1432 35.4004-22.2702 9.7325-6.9622 18.9703-14.525 27.6598-22.7399 6.5603-6.2021 12.0773-13.2384 15.8697-21.4987.7455-1.6237 1.8521-2.5462 3.4381-3.3505 18.3824-9.3219 36.7998-18.5806 55.0421-28.1713 16.1002-8.4645 31.9842-17.3398 47.9782-26.0067 6.891-3.7341 13.8186-7.4003 20.7296-11.0973-.1981 1.0803-.2706 2.2024-.6146 3.234-1.9883 5.9635-4.0551 11.9008-6.0633 17.8578-.6706 1.9892-1.2466 4.0103-2.0249 6.5327 4.1325-1.9737 7.6681-3.6973 11.2347-5.354 2.6068-1.2109 5.2545-2.334 7.8839-3.4962-3.0107 10.2538-6.0162 20.5092-9.033 30.7612-9.1332 31.0379-18.7165 61.9522-27.2722 93.1485-7.4705 27.2395-13.8684 54.7757-20.5709 82.2221-2.7496 11.2593-5.0548 22.627-7.5624 33.9453-1.0662-1.4653-2.0698-2.9815-3.2156-4.3814-1.1709-1.4305-2.4815-2.7466-3.731-4.1127-.8244-1.798-1.6487-3.5962-2.473-5.3943-.1644-.2674-.3288-.5349-.4933-.8023l.0168.0238c-.5168-1.3115-.9116-2.6882-1.5714-3.9233-3.0354-5.6832-6.145-11.3267-9.228-16.9843z" fill="#fac965"/><path d="m247.9158 306.8988c-6.7696-4.9995-12.2301-11.2502-17.0236-18.091-7.6764-10.9548-15.291-21.9646-21.4522-33.871-2.2786-4.4033-4.1106-9.0377-6.146-13.5664-.0027-.9721.1517-1.9756-.0339-2.9117-1.3046-6.58-.7925-13.107.5113-19.6047.9068-4.5195 1.9995-9.0598 5.443-12.3956 5.4362-5.2661 12.3548-6.8481 19.4809-5.8395 11.7338 1.6607 20.5479 8.1853 26.864 18.1727 1.5467 2.4457 3.3146 4.7515 4.9808 7.1216.4785 1.6646.9569 3.3292 1.5437 5.3707 2.6562-2.1335 5.0769-4.26 7.686-6.1227 2.6311-1.8784 5.4492-3.4951 8.1859-5.2264 1.9639.9897 3.952 1.9338 5.8859 2.9781 4.9818 2.6904 10.1254 5.1445 14.8307 8.2578 2.4369 1.6124 4.4715 4.1908 5.9952 6.7458 2.6277 4.4059 1.5007 9.1416-.6056 13.3408-6.4012 12.762-15.8765 23.1127-26.5481 32.4005-6.4608 5.623-13.0577 11.097-19.741 16.4539-3.1046 2.4886-6.5605 4.5385-9.857 6.7871z" fill="#fe9485"/><path d="m109.5113 82.2594c-2.7942 10.508-5.4972 21.0413-8.4109 31.5161-2.4139 8.6781-4.9951 17.3121-7.6445 25.9219-6.647 21.6017-13.4535 43.1544-20.0459 64.7726-5.6794 18.6244-11.0652 37.3384-16.7471 55.9621-3.4798 11.4059-7.2788 22.7144-10.9152 34.0728-.2982.9314-.4478 1.9104-.3864 3.1131 27.6987-16.0472 56.6324-29.0246 86.6274-39.6598.0892.1658.1785.3316.2677.4974-2.6077 1.5056-5.1972 3.0438-7.8263 4.5109-9.8112 5.475-19.6177 10.959-29.4605 16.3768-7.9018 4.3495-15.8393 8.6346-23.7881 12.8977-5.0166 2.6905-10.0937 5.268-15.1132 7.9532-.589.3151-.9844.9921-1.4693 1.5009.0002-.0005-.0646-.0121-.0646-.0121-.3606.2013-.7212.4026-1.0819.604 0 0-.1074.0173-.1074.0173-.4832.2802-.9665.5605-1.4497.8408 0 0 .0092-.0168.0092-.0168-.2944.1164-.5887.2328-.8831.3492-5.5791 2.8589-11.1582 5.7177-16.7372 8.5766.0665.244.133.4881.1995.7321 1.4909-.2376 2.9819-.4752 4.4728-.7128-.4331 1.075-.8663 2.15-1.2994 3.2249-2.0452-.6305-4.0904-1.2609-6.4296-1.982 20.4279-82.9113 44.7154-164.5776 70.2253-246.5987 2.835 5.4677 5.4467 10.5048 8.0584 15.5418z" fill="#f8f3e1"/><path d="m351.8116 121.9821c-6.9533-1.1457-13.929-2.1713-20.8552-3.463-12.8438-2.3953-25.6787-4.8476-38.4795-7.4613-11.5196-2.352-23.003-4.8873-34.4763-7.458-16.8778-3.7816-33.804-7.3804-50.5795-11.5774-22.6993-5.6791-45.2786-11.8384-67.9011-17.8233-4.0134-1.0618-7.9838-2.2858-11.981-3.4104-.447-.1258-.9395-.09-1.8488-.1654 1.9249 3.837 3.6391 7.4327 5.5104 10.9448 3.3258 6.2421 6.8632 12.3733 10.1043 18.6581 7.4775 14.4996 15.0467 28.9585 22.1694 43.6326 6.3285 13.0379 12.1073 26.3427 18.1249 39.5313 1.0922 2.3939 2.2034 4.7803 3.2268 7.2036.312.7386.3597 1.5889.5284 2.3883-4.1793-6.3611-8.5043-12.6322-12.5094-19.1014-10.4386-16.8608-20.7653-33.7911-31.0789-50.7288-4.9389-8.1111-9.7492-16.3006-14.6083-24.4602-.2447-.4109-.3998-.8752-.5968-1.3148-.1562-.5933-.219-1.2319-.4825-1.7726-3.3718-6.9194-6.7535-13.8343-10.1792-20.7272-.8403-1.6907-1.848-3.2982-2.755-4.9018-.7709.6197-1.3382 1.0757-1.9054 1.5316-2.5066-4.7946-6.1302-9.041-7.5691-14.9552 4.5475 1.0869 8.6289 1.9986 12.6769 3.0398 41.8179 10.7557 83.6687 21.3864 125.432 32.3503 32.1608 8.443 64.2095 17.3133 96.3089 25.9903 3.5508.9598 7.1151 1.8705 10.6569 2.862 1.051.294 2.0463.7865 3.0671 1.1881z" fill="#f7f0e0"/><path d="m203.097 372.0723c3.3122.5991 6.6552 1.0647 9.9311 1.8207 12.6577 2.9212 25.2829 5.983 37.9425 8.8958 7.2657 1.6717 14.567 3.1917 21.8651 4.7185 9.7976 2.0497 19.5962 4.0981 29.416 6.0376 8.1902 1.6177 16.387 3.2283 24.6256 4.5673 8.9855 1.4604 18.0248 2.5876 27.0356 3.8951 3.2066.4653 6.3916 1.0814 9.6004 1.5288 1.1477.16 2.3365.0256 3.8171.0256-1.0758-2.1052-2.0873-4.0154-3.0371-5.9558-2.9836-6.095-6.009-12.171-8.8929-18.3131-2.2668-4.828-4.392-9.7245-6.4777-14.634-.4713-1.1094-.518-2.3991-.7601-3.6057 4.5584 6.8529 9.0381 13.7597 13.696 20.5443 5.3686 7.8199 10.8944 15.5318 16.352 23.2906-3.1496 0-6.2991 0-9.6848 0 .2807.7365.3561 1.0754.5256 1.3578 3.0223 5.0353 6.0679 10.0566 9.084 15.0957 2.9469 4.9235 5.866 9.8636 8.7973 14.7963-6.237-2.1273-12.4835-4.2274-18.7095-6.3863-33.4529-11.6003-66.907-23.1972-100.3482-34.8314-20.7154-7.2069-41.4093-14.4756-62.1091-21.7274-.9089-.3186-1.7801-.7445-2.6689-1.1204z" fill="#fac965"/><path d="m247.9158 306.8988c3.2966-2.2487 6.7524-4.2986 9.8568-6.7869 6.6833-5.3569 13.2802-10.8308 19.741-16.4539 10.6716-9.2878 20.1469-19.6385 26.5481-32.4005 2.1063-4.1992 3.2332-8.9349.6056-13.3408-1.5237-2.555-3.5583-5.1335-5.9952-6.7458-4.7052-3.1133-9.8488-5.5675-14.8307-8.2578-1.9339-1.0444-3.922-1.9884-5.8859-2.9781 12.3165-6.4712 29.9878-6.4061 42.3743 3.077 3.629 2.7783 6.9373 5.7972 8.6215 10.1802 2.403 6.2535.8018 11.991-2.4025 17.4858-4.6008 7.8894-10.7542 14.4421-17.6179 20.3743-16.2774 14.0682-34.0513 26.0215-52.4496 37.0924-4.5433 2.7338-4.7041 2.7227-8.5655-1.2459z" fill="#fd7360"/><path d="m149.0207 357.7643c17.8797 6.3045 35.7372 12.6726 53.6436 18.9004 39.5653 13.7609 79.1243 27.5413 118.747 41.1357 22.7932 7.8203 45.706 15.2924 68.5633 22.926.3904.1304.7609.3201 1.1406.4821.1752.1024.3505.2048.5258.3073 0 0 .02-.0456.0192-.0446.4048.9849.7257 2.0153 1.2346 2.9425.8728 1.5902 1.8631 3.1159 2.8041 4.6688-13.5213-4.6426-27.0835-9.1699-40.5557-13.9508-32.1905-11.4238-64.3364-22.973-96.5044-34.4602-28.1129-10.0391-56.2166-20.1042-84.3528-30.0775-16.6224-5.892-33.3015-11.624-49.9493-17.4444-.9674-.3382-1.8834-.8237-2.8232-1.2405.9509.1104 1.9245.1252 2.8487.3467 5.4147 1.2975 10.8041 2.7033 16.2314 3.9443 2.2588.5165 4.5901.7163 6.8884 1.0601 0 0-.0305-.0522-.0304-.0513.5231.1856 1.0461.3705 1.5691.5554z" fill="#f0bf60"/><path d="m37.6573 315.2984c.4331-1.075.8663-2.15 1.299-3.2248 8.4042-3.7614 16.7975-7.5485 25.2158-11.279 14.2495-6.3146 28.5148-12.5933 42.7734-18.8871 1.901-.0401 3.8069-.01 5.7018-.1393 2.0482-.1398 4.0863-.4285 6.5085-.2689-.5039.606-.9031 1.3631-1.5272 1.7957-13.1172 9.0911-26.8825 17.0115-41.544 23.3908-8.2425 3.5864-16.3057 7.586-24.4272 11.4469-.6364.3026-1.0954.9785-1.6369 1.481-4.1211-1.4385-8.2421-2.8769-12.3632-4.3153z" fill="#fac965"/><path d="m386.9327 436.1378c-2.9313-4.9328-5.8504-9.8729-8.7973-14.7964-3.0161-5.0391-6.0617-10.0604-9.084-15.0957-.1695-.2824-.2448-.6213-.5256-1.3578 3.3857 0 6.5352 0 9.6848.0001.2916.2893.6208.5495.8695.8719 6.8701 8.9038 13.7205 17.823 20.6146 26.7082.6378.822 1.5451 1.4348 2.3563 2.171.5229-.644.8235-1.0142 1.1241-1.3844 1.2494 1.3662 2.56 2.6824 3.7309 4.1129 1.1458 1.3998 2.1494 2.9161 3.2156 4.3814-.1659.7941-.332 1.5881-.5841 2.7928-7.7036-2.8641-15.1542-5.6341-22.6048-8.404z" fill="#f9b947"/><path d="m260.54 225.9133c-1.6662-2.3701-3.4341-4.6759-4.9808-7.1216-6.3161-9.9874-15.1303-16.512-26.864-18.1727-7.1261-1.0086-14.0447.5734-19.4809 5.8395-3.4435 3.3358-4.5361 7.8761-5.443 12.3956-1.3038 6.4977-1.8159 13.0247-.5113 19.6047.1856.9361.0312 1.9396.0339 2.9117-4.9717-10.3426-7.0618-20.8818-2.0125-31.8415 3.5954-7.8042 9.808-12.2976 18.2034-13.5682 16.4565-2.4907 30.4596 4.6523 38.5229 19.1372 1.847 3.318 2.722 6.9681 2.5323 10.8153z" fill="#f5d7d4"/><path d="m474.5602 201.6719c-2.6294 1.1622-5.2771 2.2853-7.8839 3.4962-3.5666 1.6568-7.1022 3.3804-11.2347 5.354.7784-2.5224 1.3544-4.5435 2.0249-6.5327 2.0081-5.957 4.075-11.8943 6.0633-17.8578.3439-1.0316.4165-2.1537.6146-3.234 2.1008-1.1042 4.2015-2.2083 6.3022-3.3124 2.8634-.9626 5.7133-1.97 8.6004-2.8557.7086-.2174 1.5393-.0369 2.3139-.0394-2.267 8.3273-4.5339 16.6545-6.8007 24.9818z" fill="#fabb47"/><path d="m147.4819 357.2601c-2.2983-.3438-4.6296-.5436-6.8884-1.0601-5.4273-1.241-10.8167-2.6468-16.2314-3.9443-.9241-.2215-1.8978-.2363-2.8487-.3467-23.1959-7.9283-46.3943-15.8488-69.5848-23.7923-3.9368-1.3485-7.8395-2.7964-11.7579-4.1983.981-.8098 1.9618-1.6196 2.9426-2.4295 6.5649 2.2418 13.1273 4.491 19.6952 6.7242 27.4173 9.3221 54.837 18.6371 82.2513 27.9683.8333.2836 1.6159.7158 2.4221 1.0787z" fill="#edcb89"/><path d="m395.6989 449.0825c-.941-1.5528-1.9313-3.0785-2.8041-4.6687-.5089-.9272-.8299-1.9576-1.2346-2.9425 5.7579 1.7221 11.5151 3.4451 17.5824 5.2609-.5012 2.2843-.9641 4.3939-1.497 6.8226-4.1805-1.552-8.1136-3.0122-12.0467-4.4723z" fill="#f0b145"/><path d="m468.7852 172.2078c1.6989-4.4418 3.3978-8.8836 5.0969-13.3255 3.7217.9953 7.4434 1.9908 11.5723 3.0952-.6844.9343-1.0325 1.877-1.6978 2.2431-4.9551 2.7266-9.9731 5.3389-14.9714 7.9872z" fill="#f1c061"/><path d="m111.239 71.5067c.5673-.456 1.1345-.912 1.9054-1.5316.9069 1.6036 1.9147 3.2111 2.755 4.9018 3.4257 6.8929 6.8073 13.8077 10.1792 20.7272.2635.5408.3263 1.1793.4825 1.7726-2.247-3.6435-4.552-7.2529-6.7268-10.9392-2.9179-4.9458-5.735-9.9511-8.5953-14.9308z" fill="#ebcb8c"/><path d="m35.4707 322.2825c-1.9189-.4771-3.8378-.9543-5.9849-1.4882.3093-1.5259.5854-2.8879.9265-4.5711 2.1752 1.0838 4.1166 2.0511 6.0587 3.0192-.333 1.0139-.6666 2.027-1.0003 3.0401z" fill="#efd2ce"/><path d="m35.4707 322.2825c.3337-1.0131.6674-2.0262 1.0003-3.0401 2.2135.7483 4.4276 1.4973 6.6421 2.2464-.9805.8099-1.9613 1.6198-2.9423 2.4296-1.5668-.5454-3.1335-1.0906-4.7001-1.6359z" fill="#eebd61"/><path d="m481.3607 176.6902c-.7746.0025-1.6052-.178-2.3139.0394-2.8871.8857-5.7369 1.8931-8.6004 2.8557 3.8646-2.2832 7.7291-4.5665 11.5937-6.8497.1793.1384.3586.2767.5378.4151-.4057 1.1798-.8114 2.3596-1.2172 3.5395z" fill="#e9b85c"/><path d="m149.0207 357.7643c-.523-.1849-1.046-.3698-1.5691-.5555.5229.1846 1.046.37 1.5691.5555z" fill="#edcb89"/><path d="m185.3178 192.9277c.1617.2458.3235.4916.485.7372-.1618-.2458-.3234-.4915-.485-.7372z" fill="#f7f0e0"/><path d="m391.641 441.5159c-.1753-.1024-.3506-.2049-.5258-.3073.1753.1024.3505.2049.5258.3073z" fill="#f0b145"/><path d="m340.1713 345.3569c-.4617-2.5046-.9467-5.0053-1.3649-7.5172-.081-.4866.0988-1.0167.1583-1.5267.5561.1096 1.3242.0238 1.6341.3602 2.1884 2.3756 4.4545 4.7102 6.3772 7.2949 8.1293 10.9279 16.3322 21.8093 24.1363 32.9679 4.5923 6.5662 8.5207 13.5999 12.6786 20.4652 1.7178 2.8363 3.2545 5.7824 4.8731 8.6792-1.3731.0182-2.7458.0356-4.1185.0529-1.9807-2.6711-3.9828-5.3265-5.9385-8.0157-10.5975-14.5719-21.1704-29.1618-31.7845-43.7216-2.1544-2.9554-4.4496-5.8082-6.6798-8.7083.0093-.1103.0189-.2205.0286-.3308z" fill="#fac965"/><path d="m340.1426 345.6877c2.2302 2.9001 4.5253 5.753 6.6798 8.7083 10.6141 14.5598 21.187 29.1497 31.7845 43.7216 1.9557 2.6892 3.9578 5.3447 5.9384 8.0158 1.5231 2.142 2.9967 4.3215 4.5796 6.4184 3.6721 4.8646 7.3971 9.6892 11.1007 14.5301 0 0-.0168-.0238-.0164-.0238.1646.2674.3287.5349.4928.8023.8243 1.7982 1.6486 3.5963 2.473 5.3943-.3005.37-.6011.7402-1.1241 1.3842-.8112-.7362-1.7185-1.349-2.3563-2.171-6.8941-8.8852-13.7445-17.8044-20.6146-26.7082-.2487-.3223-.5779-.5826-.8695-.8719-5.4576-7.7589-10.9834-15.4708-16.352-23.2907-4.6578-6.7846-9.1375-13.6914-13.696-20.5443 0-.0001.0062.0207.006.0206-.1299-.1857-.2597-.3712-.3896-.5568-2.511-4.2828-5.0261-8.5632-7.5284-12.851-.381-.6527-.7028-1.34-1.0517-2.0113.3149.0113.6294.0223.9438.0334z" fill="#682f23"/><path d="m106.9456 281.9074c-14.2587 6.2938-28.524 12.5726-42.7734 18.8871-8.4183 3.7305-16.8116 7.5175-25.2158 11.279-1.4906.2375-2.9816.475-4.4725.7126-.0665-.244-.133-.4881-.1995-.7321 5.5791-2.8589 11.1582-5.7177 16.7372-8.5766.2944-.1164.5887-.2328.8831-.3492 0 0-.0092.0168-.0092.0166.4833-.2803.9665-.5604 1.4497-.8406 0 0 .1074-.0173.1083-.0177.3609-.2015.7209-.4026 1.0809-.6037 0 0 .0648.0116.0646.0121 4.7939-2.3372 9.4991-4.8835 14.3993-6.9723 13.1404-5.6011 26.3141-11.1318 39.5784-16.4307 5.719-2.2846 11.694-3.9284 17.5525-5.8628-.0063.322-.0126.6435-.0188.9649-6.3882 2.838-12.7765 5.6757-19.1648 8.5134z" fill="#6c3528"/><path d="m400.2257 427.082c-3.7036-4.8409-7.4286-9.6655-11.1007-14.5301-1.5829-2.0969-3.0565-4.2764-4.5796-6.4184 1.3728-.0174 2.7454-.0348 4.1186-.053.2545.0308.5084.0623.7623.0939 3.0829 5.6578 6.1925 11.3013 9.2281 16.9842.6597 1.2352 1.0545 2.6119 1.5713 3.9234z" fill="#f1b246"/><path d="m340.1426 345.6877c-.3145-.0111-.6289-.0221-.9437-.0332-1.8312-2.7301-3.6622-5.4603-5.4932-8.1904.2962-.1972.5924-.3944.8886-.5916 1.859 2.8277 3.718 5.6555 5.577 8.4838-.0097.1109-.0193.2211-.0287.3314z" fill="#95624a"/><path d="m126.1105 273.3943c.0062-.3215.0124-.6429.0188-.9649 2.3345-.8661 4.6688-1.7316 7.0031-2.597.1224.3419.2449.6839.3673 1.0258-2.4631.8453-4.9262 1.6907-7.3892 2.5361z" fill="#925f48"/><path d="m347.7791 360.5168c.1299.1856.2596.3711.3896.5568-.1298-.1855-.2597-.3711-.3896-.5568z" fill="#fac965"/><path d="m400.7021 427.8605c-.1641-.2675-.3282-.5349-.4928-.8023.164.2674.3285.5348.4928.8023z" fill="#f1b246"/><g fill="#fedf94"><path d="m53.3452 302.3044c-.4832.2802-.9664.5603-1.4497.8406.4832-.2801.9664-.5604 1.4497-.8406z"/><path d="m54.5344 301.683c-.36.2011-.7199.4022-1.0809.6037.3597-.201.7203-.4023 1.0809-.6037z"/><path d="m51.9047 303.1283c-.2944.1164-.5887.2328-.8831.3492.2943-.1164.5887-.2328.8831-.3492z"/></g></g></svg>