<svg id="Layer_1" enable-background="new 0 0 512 512" height="512" viewBox="0 0 512 512" width="512" xmlns="http://www.w3.org/2000/svg"><g><path d="m252.0097 203.7459c4.7564-6.9649 9.4031-13.7693 14.0599-20.5883-4.1082-5.9706-9.2774-11.3731-8.5853-19.3698 3.4968 5.5021 6.9936 11.0042 10.7299 16.8832 2.7958-3.2323 5.2461-6.0651 7.8726-9.1016-4.9211-5.8859-7.6365-12.8393-10.0757-19.9214-.6678-1.939-1.1833-3.9222 1.0076-6.0802.7423 1.2892 1.6541 2.3552 2.0135 3.5829 2.0163 6.8888 5.2457 13.0998 10.0481 18.7818 2.632-2.4009 5.0628-4.9679 7.851-7.0581 2.5248-1.8928 5.381-3.3827 8.2167-4.7987.8875-.4431 2.183-.0691 3.2917-.0691.1619.2364.3239.4728.4858.7092-.8574 1.2296-1.5514 2.6249-2.6011 3.6594-4.0074 3.9495-8.1294 7.7828-12.3652 11.8083 5.1779 4.4191 11.205 6.5334 17.7577 7.9131-2.5255 2.4476-5.5631 2.3576-8.329 1.4901-4.3827-1.3746-8.5908-3.306-13.2614-5.1557-2.0676 2.3609-4.4274 5.0556-6.9404 7.9252 6.7291 5.4307 14.2449 7.7931 23.118 7.2428-2.4595 2.9262-5.6307 3.6389-8.7175 3.423-3.0204-.2113-6.1088-1.0837-8.9158-2.2643-2.9118-1.2247-5.5217-3.1671-8.3994-4.8762-4.0889 5.927-8.134 11.7906-12.359 17.9149 2.759 1.3477 5.2732 2.6309 7.8323 3.8171 16.0229 7.4267 32.0837 14.7729 48.046 22.3274 1.7514.8289 3.469 2.5563 4.3393 4.2982 19.2251 38.4794 38.4001 76.981 53.0805 117.5223 4.4679 12.3385 9.4429 24.4933 14.1799 36.7344.3265.8437.6049 1.7059.9572 2.7056-80.5771 35.5819-161.2009 70.6594-244.0655 101.1346-.9922-2.3095-1.9805-4.4923-2.876-6.7125-12.6237-31.2961-25.3514-62.5509-37.8087-93.9131-8.5426-21.5065-16.7427-43.1496-24.9522-64.7862-.548-1.4443-.3624-3.572.2955-5.0095 15.8078-34.5353 35.2806-66.9985 56.3377-98.525 10.985-16.4466 22.3932-32.6145 33.8338-48.7498 2.4501-3.4554 5.8662-6.2259 8.8376-9.3116 1.3863-1.4397 2.7968-1.0275 4.3518-.2094 9.4573 4.9757 18.9028 9.9764 28.4254 14.825 14.3153 7.2889 28.6908 14.4594 43.2827 21.802zm-59.4058 262.7047c.5089-.2077 1.0178-.4153 1.5267-.6229 4.2476-1.5962 8.5538-3.0529 12.7335-4.8104 37.64-15.827 75.2812-31.6518 112.8703-47.5991 14.1834-6.0174 28.2314-12.3536 42.3411-18.5444 3.91-1.7641 7.82-3.5281 11.73-5.2922.8312-.2804 1.6624-.5608 2.5978-.8763-18.6104-49.2624-39.2445-97.2974-62.5503-144.4642-.7395.8275-1.2569 1.366-1.7295 1.9414-4.6499 5.6618-9.1324 11.4705-13.9673 16.9693-13.7892 15.6826-27.6152 31.3355-41.6343 46.8122-9.1506 10.1021-18.6627 19.8766-28.0129 29.7978-1.3004.3111-2.5929.8492-3.9024.8943-5.8063.1996-11.6299.5542-17.4247.3123-18.506-.7725-37.0128-1.6121-55.4983-2.7634-13.357-.8319-26.6854-2.1482-40.017-3.354-6.4505-.5834-12.8791-1.4095-19.3176-2.1256-2.6214-.5839-5.2428-1.1678-8.2792-1.8442.45 1.2596.65 1.8956.9009 2.5108 15.0644 36.9305 30.1086 73.8691 45.2149 110.7825 5.0342 12.3015 10.2284 24.5375 15.3494 36.8035.4136 1.2377.8273 2.4754 1.3537 4.0506 5.47-2.2794 10.6446-4.4357 15.8192-6.592.6431-.1579 1.3145-.244 1.925-.4846 8.1784-3.2231 16.3547-6.452 24.5134-9.7245 1.2185-.4887 2.3447-1.2075 3.5136-1.8199zm63.6075-204.8142s-.0696.0054-.0696.0054c-7.7792 2.7208-15.5876 5.3639-23.3026 8.2558-1.0208.3826-1.5665 2.0328-2.3322 3.0959-2.8524 9.0227-3.9915 18.3539-5.1 27.701-.1627 1.3717-1.1027 2.6512-1.7124 4.0402-2.472-1.4024-3.0747-2.9128-2.8353-5.0123.8468-7.4286 1.5787-14.8704 2.3542-22.3071.4695-1.3814.9391-2.7628 1.5722-4.6253-46.0245 15.6984-91.3186 31.5098-134.2578 53.2368.0302.212.0603.424.0904.636 5.1363.4885 10.2726.9769 15.4089 1.4654.4126.0744.8225.1888 1.2382.2173 21.0691 1.4506 42.1372 2.9154 63.2087 4.3309 16.2885 1.0941 32.5812 2.1253 48.872 3.1844 2.1214.5752 4.2823 1.3136 6.1746-.5135 2.7882-2.6921 5.705-5.2775 8.2645-8.1755 15.8424-17.9375 31.6725-35.8869 47.3573-53.962 8.6656-9.9861 17.0406-20.2245 25.5429-30.3509.0462-.1755.0924-.3511.1386-.5267-.1682.0577-.3363.1155-.5045.1732-6.3753 2.5281-12.7505 5.0562-19.1258 7.5843-.7196.2124-1.4566.379-2.1562.6441-9.2332 3.4996-18.461 7.0132-27.6902 10.5232-.3789.1266-.7574.253-1.1359.3794zm-3.3248-46.3654c-.2047.2637-.4746.4988-.6045.7953-4.9592 11.3142-9.9833 22.6009-14.8092 33.9718-1.5812 3.7256-2.6432 7.6716-4.1156 12.0286 1.7844-.5457 2.9111-.8347 3.9987-1.2312 12.3275-4.4939 24.6837-8.9126 36.9606-13.5412 8.7357-3.2935 17.3625-6.8757 26.0378-10.329.8355-.273 1.671-.5459 3.0653-1.0014-16.768-7.9994-32.9611-15.7245-49.2717-23.5057-.5167 1.1521-.889 1.9824-1.2614 2.8128zm-78.9946-34.4553c-4.2593 6.1476-8.4799 12.3224-12.7846 18.4381-20.0565 28.4948-39.6018 57.3287-57.2265 87.4088-6.5011 11.0955-12.557 22.4518-18.8125 33.6919-.0174.1869-.0348.3738-.0522.5607.1053-.0965.2105-.193.3158-.2894 4.7414-2.172 9.4829-4.3439 14.2243-6.5159.4652-.1894.9437-.3515 1.3936-.5721 22.3119-10.9404 45.2874-20.308 68.6429-28.7437 18.1168-6.5436 36.3085-12.8805 54.4888-19.2466 1.9378-.6786 3.0537-1.7377 3.6261-3.7458 1.2423-4.3586 2.4097-8.7765 4.1357-12.952 5.1345-12.4209 10.5243-24.7362 15.8145-37.0931.3585-.6082.717-1.2165 1.1298-1.9169-24.2567-11.2841-48.1117-22.8245-70.4954-37.574-1.5693 3.0496-2.9848 5.7998-4.4003 8.55z" fill="#38241f"/><path d="m360.1485 62.2419c6.231-4.7663 12.9136-8.2932 20.1256-10.6954 10.3782-3.4568 20.9399-5.9165 31.9803-3.7754 15.9552 3.0942 27.0772 16.3257 28.3225 32.5182 1.7863 23.2279-8.2319 40.6387-26.2734 53.8667-16.3229 11.9678-35.0209 18.8934-54.6041 23.5465-15.6355 3.7151-31.4951 4.2801-47.4456 3.2643-1.2852-.0819-2.8814-1.0065-3.6861-2.0422-10.366-13.3417-17.7439-28.37-24.3932-43.7929-5.8503-13.5695-10.4109-27.5447-12.9117-42.1351-1.7698-10.3258-2.3433-20.6678 1.9406-30.5628 5.6968-13.1585 16.1382-20.2684 30.0179-22.7719 18.2826-3.2977 34.0482 1.3244 46.7411 15.1036 6.0342 6.5506 8.8502 14.605 9.6476 23.4021.0988 1.0904.1345 2.1865.2162 3.2787.0119.1561.1192.3051.3223.7956zm56.0984-3.791c-6.8387-3.5288-14.0494-3.3921-21.4034-2.2962-13.8726 2.0674-25.7904 8.9242-37.8973 15.3266-.7237.3827-1.3134 1.0189-1.9655 1.5371-.676-.3275-1.3521-.6549-2.028-.9824-.9441-6.2203-1.687-12.48-2.8962-18.6483-.9612-4.9031-3.104-9.4286-6.3319-13.3017-7.3116-8.7731-16.9947-12.4883-28.1562-12.9343-3.5356.1734-7.0713.3468-10.6069.5201-14.108.6595-26.2235 12.9716-27.4055 27.6992-.7603 9.4733 1.091 18.6158 3.233 27.7261 3.4091 14.4992 8.8334 28.2996 15.3873 41.6066 4.5304 9.1985 9.8066 18.0352 14.933 26.9278.6746 1.1702 2.3978 2.3428 3.7063 2.4283 4.1048.2681 8.2435.0172 12.3691-.0326.5023.03 1.007.1084 1.5065.0831 19.4412-.9845 38.0227-5.5616 55.7779-13.4888 11.3812-5.0814 22.7032-10.2907 31.2916-19.8019.355-.2135.7763-.3626 1.0556-.6498 11.7241-12.0586 16.9487-26.3036 13.945-43.0576-1.5445-8.6145-6.1976-15.147-14.5144-18.6613z" fill="#39231f"/><g fill="#d5e7a1"><path d="m92.349 332.7253c6.4385.7162 12.8671 1.5422 19.3176 2.1257 13.3316 1.2058 26.66 2.522 40.017 3.354 18.4855 1.1513 36.9923 1.9909 55.4983 2.7634 5.7948.2419 11.6183-.1127 17.4247-.3123 1.3095-.045 2.6021-.5831 3.9019-.894 3.1713 2.5197 3.3766 2.5333 6.845.3748.4994-.3108.9928-.6356 1.4627-.9888 9.911-7.4483 19.0006-15.761 27.3041-24.9986 9.2782-10.322 18.9613-20.2789 28.3234-30.527 4.8684-5.3291 9.4026-10.9626 14.1319-16.4204 2.3411-2.7018 4.7819-5.3171 7.5492-8.3832 15.7155 40.4664 34.9599 78.6796 53.3506 117.3911-12.5742-.6809-24.6599-1.3353-36.7455-1.9899-.4996-.0134-.9991-.0267-1.4987-.0399-1.0187-.1552-2.0374-.3104-3.056-.4656-.33-.0142-.66-.0285-.99-.0428-3.3574-.5029-6.7052-1.097-10.0783-1.4504-.9505-.0996-1.9749.5057-2.9655.7877.4553 1.0773.9106 2.1546 1.3659 3.232 2.5366 1.113 5.0733 2.226 7.6099 3.339-2.7767.1736-5.5534.3471-8.3301.5206-.0083.2366-.0166.4732-.0249.7098 7.3323 1.355 14.6646 2.7101 21.9968 4.0651 4.7877 1.7055 9.5753 3.411 15.0524 5.3621-56.2534 20.1739-111.8632 40.117-167.4729 60.0601-.1366-.2094-.2731-.4189-.4096-.6283.6312-1.0584 1.3452-2.0772 1.8766-3.1836 1.1112-2.3135 2.1263-4.6733 3.1808-7.014 0 .0001-.0111.0171-.0111.0171.1558-.2095.3116-.4189.4674-.6284 5.0304-7.6524 10.0607-15.3047 15.0911-22.9571-.2267-.1852-.4535-.3703-.6802-.5555-1.5697 1.5293-3.1393 3.0586-4.709 4.588.1316-1.4969.2632-2.9939.4576-5.2047-1.6381 1.3103-2.7936 2.0159-3.6729 2.9748-4.5392 4.9496-9.1115 9.8751-13.476 14.977-6.3622 7.4371-11.0093 16.0085-15.7346 24.5143-.5106.3292-1.0212.6584-1.5318.9875-1.9049.6334-3.837 1.1959-5.7085 1.9159-3.2266 1.2414-3.706 1.1247-5.2232-2.0604-2.6764-5.6187-5.3051-11.2603-7.9395-16.899-3.6309-7.7715-7.3484-15.5045-10.8486-23.3346-5.3832-12.0428-10.5625-24.1767-15.9257-36.2286-3.7255-8.3718-7.6801-16.6416-11.4112-25.0109-3.4381-7.7121-7.5435-15.0042-12.7793-21.648-.4834-.6138-.6748-1.4573-1.0018-2.194z"/><path d="m247.6579 211.757c-5.29 12.3566-10.6798 24.6719-15.8143 37.0927-1.726 4.1754-2.8934 8.5934-4.1357 12.952-.5724 2.0081-1.6883 3.0672-3.6261 3.7458-18.1803 6.3661-36.372 12.703-54.4888 19.2466-23.3556 8.4358-46.331 17.8033-68.6429 28.7437-.4499.2206-.9284.3827-1.3933.5718.1318-.8785.0086-1.9118.4341-2.6111 4.4944-7.3872 9.1106-14.7002 13.627-22.0741 9.5596-15.6078 18.9566-31.3167 28.6549-46.8376 7.8291-12.5294 15.9628-24.8695 24.0379-37.2437 4.4926-6.8844 9.1416-13.6666 13.7202-20.4949 1.7495.5359 3.5525.9404 5.2398 1.6286 11.9085 4.8578 23.7762 9.8156 35.691 14.6578 8.8722 3.6058 17.7956 7.0861 26.6962 10.6224z"/><path d="m219.3459 335.8608c-16.2908-1.0591-32.5835-2.0903-48.872-3.1844-21.0715-1.4155-42.1396-2.8803-63.2087-4.3309-.4158-.0286-.8256-.1429-1.2382-.2173 2.658-1.5719 5.2675-3.2334 7.9817-4.7011 18.1844-9.8335 37.603-16.8368 56.6589-24.6762 11.9739-4.926 23.8605-10.0644 35.8356-14.9874 5.5089-2.2647 11.1364-4.241 16.71-6.3481-.7755 7.4368-1.5073 14.8785-2.3541 22.3071-.2393 2.0995.3633 3.6099 2.8353 5.0123.6097-1.389 1.5498-2.6685 1.7124-4.0402 1.1085-9.3471 2.2475-18.6783 5.1-27.7011.4147-.0526.8652-.0175 1.2387-.1705 6.91-2.8312 13.8325-5.634 20.6948-8.5771 1.3566-.5818 2.4738-1.7216 3.7014-2.6042 0 0 .0696-.0054.0701-.004.3787-.1259.757-.2533 1.1352-.3805 9.2292-3.5101 18.4571-7.0236 27.6902-10.5232.6996-.2652 1.4366-.4317 2.1561-.644-2.3603 3.3267-4.583 6.7617-7.1043 9.9613-11.1667 14.1711-22.3702 28.3141-33.6591 42.388-6.7727 8.4436-13.744 16.7277-20.5904 25.1125-2.2226 2.7222-4.3323 5.5368-6.4936 8.309z"/></g><path d="m186.9863 439.4716c-1.0546 2.3407-2.0696 4.7005-3.1808 7.014-.5314 1.1064-1.2453 2.1251-1.8766 3.1836.1365.2094.2731.4189.4096.6283 55.6097-19.9431 111.2194-39.8862 167.4729-60.0601-5.4772-1.9511-10.2648-3.6566-15.0524-5.3621 7.6127.7645 15.2253 1.529 22.838 2.2935-1.8194 1.0331-3.6388 2.0663-5.888 3.3436 2.4168.8222 4.4025 1.3933 6.3001 2.1777 1.4146.5848 2.7151 1.4455 4.0664 2.1834-14.1097 6.1909-28.1577 12.5272-42.3411 18.5445-37.5891 15.9473-75.2303 31.7721-112.8703 47.5991-4.1797 1.7575-8.486 3.2142-12.7335 4.8103-.5089.2076-1.0178.4153-1.5267.623 0 0 .056-.0429.0555-.0434-1.2046.3008-2.4351.5229-3.6083.9163-7.9558 2.6681-15.8995 5.3723-23.847 8.0649.2062-.5459.3154-1.1576.6338-1.6275 3.0516-4.5046 6.1597-8.971 9.207-13.4785 1.6977-2.5113 3.3112-5.0795 4.9865-7.6587-1.2025-.4723-1.9487-.7653-2.6947-1.0583 3.2165-4.0311 6.433-8.0623 9.6496-12.0936z" fill="#c1d86d"/><path d="m330.7299 374.2202c12.0856.6544 24.1712 1.3089 36.7455 1.9898-18.3907-38.7115-37.6351-76.9247-53.3506-117.3911-2.7673 3.0661-5.2081 5.6815-7.5492 8.3832-4.7292 5.4578-9.2635 11.0912-14.1319 16.4204-9.3621 10.2481-19.0452 20.205-28.3234 30.527-8.3035 9.2376-17.3931 17.5503-27.3041 24.9986-.4699.3532-.9633.678-1.4627.9888-3.4684 2.1585-3.6737 2.1449-6.845-.3748 9.3506-9.9215 18.8628-19.696 28.0134-29.7981 14.019-15.4767 27.8451-31.1297 41.6343-46.8122 4.835-5.4988 9.3174-11.3075 13.9673-16.9693.4726-.5754.99-1.114 1.7295-1.9414 23.3058 47.1667 43.94 95.2017 62.5503 144.4642-.9354.3155-1.7666.5959-2.5984.8763-.2022-.3977-.4037-.7953-.6051-1.193-.5387-2.0994-1.1815-4.0974-3.9373-4.0316-1.371-.5544-2.6989-1.4015-4.1207-1.6111-5.3811-.7934-10.7926-1.38-16.1928-2.044-.7718-.6385-1.4514-1.6245-2.3307-1.8579-4.9595-1.3167-9.9707-2.4376-14.9504-3.6806-.3683-.0921-.6279-.6187-.938-.9432z" fill="#eceeda"/><path d="m92.349 332.7254c.327.7366.5185 1.5801 1.0019 2.1935 5.2358 6.6438 9.3413 13.9359 12.7793 21.648 3.7311 8.3694 7.6857 16.6392 11.4112 25.0109 5.3632 12.0519 10.5425 24.1858 15.9257 36.2286 3.5001 7.8301 7.2177 15.5631 10.8486 23.3346 2.6344 5.6387 5.2631 11.2803 7.9395 16.899 1.5172 3.1851 1.9966 3.3018 5.2232 2.0604 1.8715-.7201 3.8037-1.2825 5.7087-1.9156-1.083 1.8581-1.9523 3.8888-3.2881 5.5425-4.7014 5.8202-9.563 11.5109-14.3639 17.2508-5.121-12.266-10.3152-24.502-15.3494-36.8035-15.1063-36.9133-30.1505-73.852-45.2149-110.7825-.251-.6153-.451-1.2513-.9009-2.5108 3.0362.6763 5.6576 1.2601 8.2791 1.8441z" fill="#bfd86d"/><path d="m180.0307 184.8481c-4.5785 6.8283-9.2276 13.6105-13.7202 20.4949-8.0751 12.3742-16.2088 24.7143-24.0379 37.2437-9.6983 15.5209-19.0953 31.2298-28.6549 46.8376-4.5165 7.3739-9.1326 14.687-13.627 22.0741-.4255.6994-.3022 1.7326-.4341 2.6111-4.7417 2.1722-9.4832 4.3442-14.2246 6.5162-.087-.0933-.176-.1846-.2672-.2739 6.259-11.2374 12.3149-22.5937 18.816-33.6892 17.6247-30.08 37.17-58.9139 57.2265-87.4088 4.3046-6.1157 8.5252-12.2905 12.7844-18.4373 2.0463 1.3445 4.0926 2.688 6.139 4.0316z" fill="#bfd66d"/><path d="m300.3543 236.9653c-8.6754 3.4533-17.3022 7.0355-26.0378 10.329-12.2769 4.6286-24.633 9.0473-36.9606 13.5412-1.0876.3965-2.2143.6855-3.9987 1.2312 1.4724-4.3571 2.5344-8.3031 4.1156-12.0286 4.8259-11.3709 9.8501-22.6576 14.8092-33.9718.1299-.2965.3999-.5316.6044-.7952.9002.1444 1.8768.1122 2.6878.463 3.8494 1.6652 7.6716 3.3963 11.4698 5.1757 6.3015 2.9522 12.5897 5.9333 18.8596 8.952 4.836 2.3283 9.6352 4.7329 14.4507 7.1035z" fill="#d2e4a1"/><path d="m219.3459 335.8608c2.1614-2.7723 4.271-5.5868 6.4937-8.309 6.8464-8.3849 13.8177-16.6689 20.5904-25.1125 11.2889-14.0739 22.4923-28.2169 33.6591-42.388 2.5213-3.1997 4.744-6.6346 7.1043-9.9613 6.3754-2.5282 12.7506-5.0563 19.1259-7.5844.1232.1184.2464.2368.3695.3552-8.506 10.1246-16.881 20.363-25.5465 30.3491-15.6848 18.0751-31.5149 36.0245-47.3573 53.962-2.5595 2.898-5.4763 5.4834-8.2645 8.1755-1.8923 1.827-4.0532 1.0887-6.1746.5134z" fill="#bfd56d"/><path d="m223.2133 277.4153c-5.5737 2.1071-11.2011 4.0834-16.71 6.3481-11.9751 4.923-23.8617 10.0614-35.8356 14.9874-19.0559 7.8394-38.4745 14.8427-56.6589 24.6762-2.7142 1.4678-5.3237 3.1293-7.9817 4.7011-5.1364-.4885-10.2727-.9769-15.409-1.4654-.0302-.212-.0603-.424-.0904-.636 42.9392-21.727 88.2333-37.5384 134.2578-53.2368-.6331 1.8627-1.1027 3.2441-1.5722 4.6254z" fill="#bfd56d"/><path d="m180.0307 184.8481c-2.0463-1.3436-4.0927-2.6871-6.1389-4.0315 1.4157-2.7511 2.8312-5.5013 4.4007-8.5508 22.3836 14.7495 46.2387 26.2898 70.4954 37.574-.4128.7004-.7713 1.3086-1.1299 1.917-8.9008-3.5361-17.8241-7.0164-26.6965-10.6223-11.9147-4.8422-23.7825-9.8-35.691-14.6578-1.6873-.6882-3.4903-1.0927-5.2398-1.6286z" fill="#e8ebd6"/><path d="m145.535 480.978c4.8008-5.7398 9.6625-11.4306 14.3639-17.2508 1.3358-1.6537 2.2051-3.6844 3.2881-5.5425.5104-.3294 1.021-.6586 1.5317-.9878.8892-.1494 1.7783-.2989 2.6674-.4483-.5977.9048-1.1361 1.856-1.8025 2.707-4.6592 5.9504-9.3831 11.8505-13.9938 17.838-1.089 1.4142-1.8255 3.0999-2.6893 4.6001 4.1051-3.8578 8.3741-7.4333 12.1198-11.4917 5.6312-6.1014 10.8958-12.541 16.3163-18.8369.7461.293 1.4922.586 2.6948 1.0583-1.6753 2.5793-3.2888 5.1475-4.9865 7.6587-3.0473 4.5075-6.1554 8.9739-9.207 13.4785-.3184.47-.4275 1.0816-.6334 1.6279-.8319 1.0162-1.6641 2.0321-2.4964 3.048-5.1746 2.1563-10.3492 4.3126-15.8192 6.592-.5266-1.5751-.9402-2.8128-1.3539-4.0505z" fill="#b3ca51"/><path d="m300.3543 236.9653c-4.8155-2.3706-9.6147-4.7752-14.4506-7.1035-6.2699-3.0187-12.5581-5.9997-18.8596-8.952-3.7982-1.7795-7.6204-3.5106-11.4698-5.1757-.8109-.3508-1.7876-.3186-2.6878-.463.3724-.8305.7448-1.6609 1.2614-2.813 16.3106 7.7812 32.5037 15.5063 49.2717 23.5057-1.3943.4556-2.2298.7285-3.0653 1.0015z" fill="#e1e5c8"/><path d="m373.1995 388.3885c.2016.3976.4031.7952.6053 1.193-3.9094 1.7641-7.8194 3.5282-11.7294 5.2922-1.3513-.7379-2.6518-1.5987-4.0663-2.1834-1.8976-.7845-3.8833-1.3555-6.3001-2.1777 2.2492-1.2773 4.0686-2.3105 5.8877-3.3429 3.8491-.2939 7.6985-.5884 11.5479-.883 1.3517.7005 2.7033 1.4011 4.0549 2.1018z" fill="#b4cb51"/><path d="m256.1417 261.6418c-1.2276.8825-2.3448 2.0224-3.7014 2.6042-6.8623 2.9431-13.7848 5.7459-20.6948 8.5771-.3735.153-.824.1179-1.2387.1705.7657-1.0631 1.3114-2.7133 2.3322-3.0959 7.7152-2.8921 15.5235-5.5352 23.3027-8.2559z" fill="#bbd06c"/><path d="m162.708 478.4367c.8322-1.0159 1.6644-2.0318 2.4963-3.048 7.9473-2.6929 15.891-5.3971 23.8468-8.0652 1.1731-.3934 2.4037-.6154 3.6083-.9163-1.1683.613-2.2945 1.3318-3.513 1.8205-8.1587 3.2725-16.335 6.5013-24.5134 9.7245-.6105.2405-1.2819.3266-1.925.4845z" fill="#c9d996"/><path d="m192.6039 466.4506c.5089-.2077 1.0178-.4154 1.5267-.623-.5089.2077-1.0178.4153-1.5267.623z" fill="#c9d996"/><path d="m257.347 261.2572c-.3783.1273-.7565.2546-1.1352.3805.3781-.1277.7566-.2541 1.1352-.3805z" fill="#bbd06c"/><path d="m85.3321 320.6257c-.1053.0965-.2105.1929-.3158.2894.0174-.1869.0348-.3738.0504-.562.0894.088.1784.1793.2654.2726z" fill="#bfd66d"/><path d="m306.3193 242.5055c.1682-.0577.3363-.1155.5045-.1732-.0462.1756-.0924.3511-.1368.5275-.1214-.1175-.2445-.2359-.3677-.3543z" fill="#bfd56d"/><path d="m352.9527 72.036c.676.3275 1.352.6549 2.0282.9823 1.3232 2.1359 3.1891 2.5286 5.4408 1.7009 8.17-3.0032 16.2868-6.1632 24.5251-8.9659 10.1933-3.4678 20.7239-5.2255 31.5119-5.3102 2.7062 5.0272 5.53 9.9955 8.0901 15.0961 3.5393 7.0517 4.7817 14.6272 2.6326 22.2007-1.4461 5.0961-4.1234 9.867-6.4759 14.6726-1.4254 2.9117-3.2822 5.6122-4.9452 8.4076-8.588 9.5108-19.9101 14.7201-31.2912 19.8015-17.7552 7.9272-36.3367 12.5043-55.7779 13.4888-.4995.0253-1.0042-.0531-1.5066-.0831-3.0852-5.9744-6.0555-12.0114-9.2782-17.9107-7.9918-14.6293-15.7199-29.3718-20.8351-45.3178-3.0909-9.6354-5.3185-19.4189-4.8063-29.6394.1342-2.6787.2578-5.3616.5183-8.0297.6895-7.0614 2.5695-13.6589 7.3999-19.1573 1.7352-1.9751 3.1935-4.1934 4.7782-6.3007 3.5356-.1734 7.0713-.3468 10.6073-.5202.4372.2483.8455.5968 1.315.7303 11.7193 3.3316 18.8292 11.5488 23.473 22.2865 2.4679 5.7063 4.6474 11.5367 7.0589 17.2683 1.0207 2.4263 2.7076 4.2522 5.5371 4.5994zm-10.0412 28.2022c.2732.151.5463.302.8194.453 1.8726-2.772 3.8952-5.4566 5.576-8.3404 1.7132-2.9393 1.5526-6.1466.3409-9.262-1.1254-2.8936-3.3518-4.3042-6.3701-3.6667-2.1012.4438-4.2177 1.2435-6.0771 2.3175-4.1899 2.4201-7.0145 6.0271-7.8398 10.8843-.1595.9389.5935 2.0329.9256 3.0553 1.0362-.3543 2.1339-.5965 3.08-1.1152.409-.2242.5081-1.0181.7428-1.5555 1.5617-3.5771 4.2409-6.017 7.7881-7.515 1.9591-.8274 2.863-.2338 2.9705 1.8877.0378.7455-.1077 1.5073-.2269 2.2525-.5655 3.5365-1.151 7.0699-1.7294 10.6045zm18.6513 13.0039c6.6179-3.8367 11.3905-9.0216 12.4426-16.8241.6606-4.8985-2.8058-8.3813-7.7022-7.6689-5.7682.8392-9.8533 4.0909-12.544 9.1642-.7267 1.3702-1.9971 3.0833-.1066 4.2367 2.0459 1.2482 2.6748-.9209 3.503-2.1755 2.0729-3.14 4.8139-5.4076 8.4415-6.4704 2.7959-.8192 4.1732.4809 3.4178 3.2558-.4164 1.5297-1.0736 3.0074-1.7441 4.452-1.8686 4.0258-3.8009 8.0222-5.708 12.0302zm-35.1651-3.7188c2.0525.015 3.3839-.9898 4.6035-2.9606 1.0617-1.7155.4509-2.9815-.5847-4.336-2.868-3.7511-7.1256-5.2324-11.3021-6.6731-1.9172-.6614-4.4404 2.5125-4.045 4.663.6806 3.7013 7.4691 9.2784 11.3283 9.3067zm44.2315 21.5358c1.5694-1.5572 3.1341-2.6587 4.0714-4.1537 1.1798-1.8817.0923-3.885-1.4838-4.7881-3.3792-1.9363-6.9391-3.6406-10.5917-4.9879-2.5387-.9364-4.9905 1.5795-4.0299 4.0948.6667 1.7458 1.9897 3.4825 3.4806 4.6177 2.4842 1.8917 5.338 3.2979 8.5534 5.2172zm-13.6525-2.2984c-4.9643.7988-9.9225 1.6378-14.8949 2.3825-3.3971.5088-4.8738-.3075-6.2206-3.3231-1.0268-2.2991-1.8867-4.6761-2.9887-6.9366-.508-1.0419-1.4173-1.8882-2.1447-2.8232-.221.0887-.4419.1774-.6629.2661 0 1.101-.2521 2.277.0486 3.2887.8124 2.734 1.8598 5.3982 2.8141 8.0901 1.2172 3.4334 3.7343 4.9668 7.2892 5.1738 6.4115.3734 11.6525-2.5438 16.7599-6.1183z" fill="#fd8f81"/><path d="m304.9615 27.6719c-1.5847 2.1073-3.043 4.3256-4.7782 6.3007-4.8304 5.4984-6.7104 12.0958-7.3999 19.1573-.2605 2.6681-.3841 5.351-.5183 8.0297-.5122 10.2205 1.7155 20.004 4.8063 29.6394 5.1152 15.946 12.8432 30.6884 20.8351 45.3178 3.2227 5.8993 6.193 11.9363 9.2782 17.9107-4.1255.0499-8.2642.3007-12.369.0326-1.3085-.0855-3.0317-1.258-3.7063-2.4283-5.1264-8.8926-10.4026-17.7293-14.933-26.9278-6.5539-13.307-11.9782-27.1074-15.3873-41.6066-2.142-9.1103-3.9933-18.2528-3.233-27.7261 1.1818-14.7278 13.2974-27.0399 27.4054-27.6994z" fill="#fd6f5e"/><path d="m416.4587 60.4432c-10.788.0848-21.3186 1.8424-31.5119 5.3102-8.2383 2.8027-16.3551 5.9626-24.5251 8.9659-2.2517.8277-4.1176.4349-5.4408-1.7009.6519-.5182 1.2415-1.1543 1.9653-1.5371 12.1069-6.4024 24.0247-13.2592 37.8973-15.3266 7.354-1.0959 14.5648-1.2326 21.4036 2.2962.0707.6641.1411 1.3282.2116 1.9923z" fill="#fb6f5e"/><path d="m352.9527 72.036c-2.8295-.3473-4.5164-2.1731-5.5371-4.5992-2.4114-5.7316-4.591-11.562-7.0589-17.2683-4.6438-10.7377-11.7537-18.9549-23.473-22.2865-.4695-.1335-.8778-.482-1.315-.7303 11.1612.4461 20.8443 4.1613 28.1559 12.9344 3.2279 3.8731 5.3706 8.3985 6.3319 13.3017 1.2092 6.1682 1.9521 12.428 2.8962 18.6482z" fill="#f5d2cf"/><path d="m416.4587 60.4432c-.0704-.6641-.1409-1.3282-.2115-1.9923 8.3166 3.5143 12.9697 10.0468 14.5142 18.6616 3.0037 16.7539-2.2209 30.999-13.945 43.0576-.2793.2872-.7005.4363-1.0558.65 1.6628-2.7952 3.5195-5.4957 4.9449-8.4074 2.3525-4.8057 5.0298-9.5766 6.4759-14.6726 2.1491-7.5735.9067-15.149-2.6326-22.2007-2.5601-5.1007-5.3839-10.0689-8.0901-15.0962z" fill="#f4d1cd"/><path d="m177.3366 451.5652c-5.4205 6.2958-10.6852 12.7354-16.3163 18.8369-3.7457 4.0585-8.0147 7.634-12.1198 11.4917.8638-1.5002 1.6003-3.1859 2.6893-4.6001 4.6107-5.9875 9.3346-11.8876 13.9938-17.838.6664-.851 1.2049-1.8022 1.8023-2.707.8432-.9274 1.75-1.8051 2.5199-2.7899 5.3826-6.8842 10.6791-13.8365 16.1205-20.6736 3.6053-4.5301 7.4053-8.9051 11.1182-13.3496 1.5697-1.5293 3.1393-3.0586 4.709-4.588.2267.1852.4534.3703.6802.5555-5.0304 7.6524-10.0607 15.3047-15.0911 22.9572-.1558.2095-.3116.4189-.4674.6284 0 0 .0111-.017.0112-.0171-3.2167 4.0313-6.4332 8.0625-9.6498 12.0936z" fill="#3c2820"/><path d="m369.1447 386.2866c-3.8494.2946-7.6988.5891-11.5479.883-7.6123-.7653-15.2249-1.5298-22.8376-2.2943-7.3323-1.355-14.6646-2.7101-21.9969-4.0651.0083-.2366.0166-.4732.0249-.7098 2.7767-.1735 5.5534-.347 8.3298-.5206 9.2772.374 18.5546.7479 27.8321 1.1218 5.4001.664 10.8117 1.2507 16.1928 2.0441 1.4218.2096 2.7497 1.0567 4.1201 1.6106-.0396.6431-.0785 1.2867-.1173 1.9303z" fill="#3b2721"/><path d="m197.1445 419.9356c-3.7129 4.4445-7.5128 8.8195-11.1182 13.3496-5.4414 6.8371-10.738 13.7894-16.1205 20.6736-.7699.9847-1.6767 1.8625-2.5199 2.7899-.8889.1495-1.778.299-2.6673.4483 4.7252-8.506 9.3723-17.0773 15.7345-24.5144 4.3645-5.1018 8.9368-10.0274 13.476-14.977.8793-.9589 2.0349-1.6645 3.6729-2.9748-.1943 2.2109-.3259 3.7079-.4575 5.2048z" fill="#bfd56d"/><path d="m348.9489 380.7017c-9.2775-.3739-18.5549-.7478-27.8321-1.1218-2.5363-1.113-5.073-2.226-7.6095-3.3391 1.4401-2.0857 3.2878-2.6072 5.8298-2.1725 1.872.32 3.8932-.2327 5.848-.3966.33.0143.66.0286.99.0427.7915 1.6454 1.9054 1.1764 3.0561.4658.4995.0133.9991.0266 1.4987.0399.3102.3246.5698.8513.9379.9431 4.9797 1.243 9.991 2.364 14.9504 3.6806.8793.2334 1.5589 1.2194 2.3307 1.8579z" fill="#e6eace"/><path d="m325.1851 373.6716c-1.9547.1639-3.976.7166-5.848.3966-2.5421-.4347-4.3897.0869-5.8298 2.1725-.4554-1.0772-.9107-2.1545-1.366-3.2318.9905-.282 2.015-.8874 2.9655-.7877 3.3731.3535 6.7209.9475 10.0783 1.4504z" fill="#eceeda"/><path d="m329.2312 374.1801c-1.1507.7107-2.2646 1.1796-3.0561-.4658 1.0187.1554 2.0374.3106 3.0561.4658z" fill="#eceeda"/><path d="m186.9751 439.4887c.1558-.2094.3116-.4188.4674-.6284-.1558.2095-.3116.419-.4674.6284z" fill="#c1d86d"/><path d="m369.1447 386.2866c.0389-.6436.0777-1.2872.1172-1.9303 2.7564-.0653 3.3991 1.9327 3.9378 4.0321-1.3518-.7006-2.7034-1.4012-4.055-2.1018z" fill="#bfd66d"/><path d="m342.9115 100.2382c.5785-3.5345 1.164-7.0679 1.7296-10.6045.1192-.7452.2647-1.507.2269-2.2525-.1075-2.1215-1.0113-2.7151-2.9705-1.8877-3.5472 1.498-6.2264 3.938-7.7881 7.515-.2346.5374-.3338 1.3313-.7428 1.5555-.9461.5187-2.0438.7608-3.08 1.1152-.3321-1.0224-1.0851-2.1164-.9256-3.0553.8253-4.8572 3.6498-8.4642 7.8398-10.8843 1.8594-1.074 3.9758-1.8737 6.0771-2.3175 3.0183-.6375 5.2446.7731 6.3701 3.6667 1.2116 3.1154 1.3723 6.3227-.3409 9.262-1.6808 2.8838-3.7034 5.5684-5.576 8.3404-.2733-.1511-.5465-.302-.8196-.453z" fill="#3b231f"/><path d="m361.5628 113.2421c1.9072-4.008 3.8394-8.0044 5.708-12.0303.6705-1.4446 1.3276-2.9222 1.7441-4.452.7554-2.7749-.6219-4.075-3.4178-3.2558-3.6276 1.0628-6.3686 3.3305-8.4415 6.4704-.8282 1.2546-1.4571 3.4236-3.503 2.1755-1.8904-1.1533-.6201-2.8665.1066-4.2367 2.6907-5.0733 6.7758-8.325 12.544-9.1642 4.8964-.7124 8.3627 2.7704 7.7022 7.6689-1.0522 7.8026-5.8247 12.9875-12.4426 16.8242z" fill="#3b231f"/><path d="m326.3977 109.5233c-3.8592-.0283-10.6477-5.6054-11.3282-9.3068-.3954-2.1505 2.1278-5.3243 4.045-4.663 4.1765 1.4408 8.434 2.922 11.3021 6.6731 1.0356 1.3545 1.6464 2.6205.5847 4.336-1.2197 1.9709-2.5511 2.9757-4.6036 2.9607z" fill="#f85b46"/><path d="m370.6292 131.0591c-3.2153-1.9193-6.0691-3.3255-8.5533-5.2171-1.4908-1.1352-2.8138-2.8719-3.4806-4.6177-.9606-2.5153 1.4912-5.0312 4.0299-4.0948 3.6526 1.3473 7.2125 3.0516 10.5917 4.9879 1.5761.9031 2.6636 2.9063 1.4838 4.7881-.9374 1.4949-2.5022 2.5964-4.0715 4.1536z" fill="#f85b46"/><path d="m356.9767 128.7607c-5.1074 3.5745-10.3484 6.4917-16.7599 6.1182-3.5549-.207-6.0721-1.7404-7.2892-5.1738-.9543-2.6919-2.0017-5.3561-2.8141-8.0901-.3006-1.0117-.0486-2.1876-.0486-3.2887.221-.0887.4419-.1774.6629-.2661.7274.935 1.6367 1.7812 2.1447 2.8232 1.102 2.2605 1.962 4.6376 2.9887 6.9366 1.3468 3.0156 2.8235 3.8319 6.2206 3.3231 4.9724-.7446 9.9306-1.5836 14.8949-2.3824z" fill="#3f2621"/></g></svg>