<svg id="Layer_1" enable-background="new 0 0 512 512" height="512" viewBox="0 0 512 512" width="512" xmlns="http://www.w3.org/2000/svg"><g><path d="m249.5828 190.1032c4.8125-7.6609 9.8158-14.7691 15.9863-21.0187 20.4887-20.7516 53.731-28.7445 83.1672-12.0856 2.0472 1.1586 4.0616 2.3754 6.2782 3.6747 1.6885-7.3476 3.3087-14.5692 5.0114-21.7714 3.5116-14.8527 6.3873-29.8821 11.7562-44.2339 4.5196-12.0814 10.3602-23.4902 18.1321-33.8296 1.4905-1.9829 3.3094-3.7594 5.1663-5.4191 5.958-5.3255 12.8681-4.8101 18.2156 1.1808 3.5656 3.9945 5.0884 8.8375 6.0516 13.9505 1.9231 10.2073.8052 20.3467-.6374 30.48-.4716 3.3129-.982 6.6203-1.5328 10.3206 2.562-1.6114 4.7435-3.0567 6.9937-4.3855 8.7376-5.1597 17.9125-9.003 28.3196-8.4896 7.2059.3555 13.7113 2.5452 18.2502 8.5883 3.7561 5.0009 3.7948 10.8563 3.2874 16.7192-.5264 6.0832-3.106 11.586-5.1898 17.221-.2749.7435-.5349 1.4925-.8611 2.4043 3.1223.1728 6.0877.1355 8.9922.5382 6.8088.944 12.9613 3.385 17.4875 8.8519 6.7726 8.1804 6.8322 18.2831.3192 27.9572-4.7405 7.0415-11.2894 12.1262-18.1126 16.9266-2.0845 1.4665-4.1805 2.9164-5.9694 4.1635 1.6553 3.1478 3.6593 5.9009 4.6144 8.9793 2.5569 8.2414-.637 15.1204-6.0724 21.1619-6.1418 6.8267-14.2388 10.6144-22.5424 13.9573-13.6846 5.5092-28.0214 8.0622-42.6778 9.0281-2.9015.1912-5.8101.3179-8.7172.3639-1.537.0243-2.3254.6945-2.7371 2.1365-1.9855 6.9535-3.9816 13.9044-6.0617 20.8299-.5788 1.9271-.2359 3.4995.8592 5.1421 3.8463 5.7694 7.1167 11.8366 8.3663 18.7501 2.4168 13.371-2.6481 22.7247-15.1401 28.2308-6.1216 2.6982-12.5443 3.7652-19.1809 3.3076-2.6261-.1811-4.2751.7435-5.7145 2.8914-7.6844 11.4669-16.1655 22.3275-25.3967 32.5897-1.4263 1.5856-1.5826 2.8252-.3575 4.6031 4.8669 7.0628 9.3919 14.373 14.4981 21.2544 2.9572 3.9853 6.7964 7.3133 10.2063 10.9672 1.2438 1.3327 2.5022 2.6744 3.5665 4.1475 2.9857 4.1324.8215 8.8463-4.2689 9.2314-5.4167.4097-9.8703-1.9283-13.7743-5.3924-5.1444-4.5647-8.0552-10.2758-8.1573-17.2342-.0183-1.2457.1411-2.7095.7884-3.7004 1.051-1.6091.4655-2.6277-.4302-3.9303-3.014-4.3827-5.9282-8.8339-9.0073-13.4488-3.8823 3.9687-7.511 7.8694-11.388 11.5052-.9536.8943-2.6979 1.2133-4.1112 1.3069-10.272.6809-20.3828-.7988-30.4609-2.534-4.4636-.7685-8.9063-1.6585-13.3597-2.4864-.4406-.0819-.8902-.1155-1.4518-.1861 1.2665 6.9355 3.7067 13.2399 7.1064 19.196 4.9893 8.7407 9.5221 17.7608 15.8552 25.6738 1.3907 1.7376 2.8313 3.4619 3.9954 5.3488 3.0444 4.9345 1.2913 8.7292-4.4121 9.6521-5.6548.915-10.8883-.1492-15.5866-3.5498-4.189-3.032-5.3335-7.5271-5.739-12.2635-.4553-5.3184-.0096-10.533 2.6715-15.3623.3384-.6096.2348-1.6954-.0636-2.3885-1.4144-3.2857-2.9172-6.5362-4.4829-9.7533-2.269-4.6622-3.7331-9.554-4.3716-14.6896-.2532-2.0364-1.1303-3.1198-3.3096-3.6466-11.6942-2.8265-23.1378-6.4748-34.3436-10.8765-1.0804-.4244-2.5454-.4027-3.6764-.0661-3.4891 1.0384-6.8751 2.4193-10.3528 3.5009-4.5686 1.4209-9.2286 1.757-13.7057-.2171-6.2974-2.7767-8.6685-8.1972-9.1957-14.6481-.1423-1.7409-.2482-3.5754.1398-5.2486.6454-2.7822-.2476-4.7041-2.418-6.3284-6.7351-5.0406-12.7301-10.8828-18.3002-17.1645-2.233-2.5182-4.3358-5.1518-6.2409-7.4261-8.4109 4.1238-16.4668 8.4228-24.8045 12.0791-12.293 5.3908-25.2084 8.5659-38.6821 9.011-7.392.2441-14.3926-1.2346-20.5334-5.6797-5.8231-4.2152-8.2227-9.9904-7.8047-17.0555.0511-.8632.1479-1.7237.2402-2.7766-3.3976-.2743-6.6938-.4313-9.961-.8278-5.8936-.7154-11.877-1.1242-17.6247-2.493-6.3853-1.5206-12.1936-4.6478-16.0505-10.2631-5.542-8.0686-4.6184-16.3218-.0044-24.4435 2.8056-4.9384 6.9601-8.5768 11.7338-11.5522.516-.3216 1.0312-.6443 1.5416-.9746.0421-.0273.0433-.1176.128-.3734-2.9738-2.1798-6.1847-4.1918-8.9796-6.6725-3.1638-2.8081-6.3397-5.7528-8.8333-9.1369-6.7496-9.1603-5.2563-19.5993 3.4419-27.5942 6.5276-5.9999 14.3694-8.9965 22.9974-10.0141 4.7548-.5608 9.5722-.5927 14.3619-.8535.5835-.0318 1.1703-.0043 2.2737-.0043-2.6829-3.2752-5.1175-6.1253-7.4174-9.0803-4.7267-6.0733-9.6147-12.0413-13.9888-18.3624-3.2666-4.7207-4.8677-10.2762-5.281-16.0255-.8394-11.6741 6.43-17.8514 17.8116-15.2512 7.2747 1.662 13.7076 5.3003 20.164 8.8257 16.6981 9.1176 31.1997 21.085 44.5714 34.5173 7.486 7.5199 15.0666 14.9455 22.6086 22.4094.4737.4688.9835.9012 1.6379 1.4977 1.7075-3.1652 3.3214-6.1907 4.9658-9.1994 6.4403-11.7837 14.549-22.1536 25.9523-29.5239 19.4295-12.5579 39.9846-14.5707 61.5976-6.2522 6.9882 2.6892 12.9754 6.5956 17.3652 13.1119zm-12.6811 165.2065c-2.6322 2.2164-5.2644 4.4327-8.2007 6.9052 5.1848 1.5684 9.7654 2.9586 14.3489 4.3392 4.5596 1.3735 9.122 2.7373 13.8556 4.157.252-1.5706.4536-2.8269.6552-4.0833.8664-2.202 1.6397-4.4476 2.6425-6.5856.4319-.9207 1.2432-1.7467 2.07-2.3643.4224-.3155 1.3436-.2566 1.8738-.0104.2645.1228.2948 1.0734.1947 1.6051-.6376 3.3865-1.2904 6.7719-2.0442 10.134-.3772 1.6823.1886 2.5576 1.817 2.9771 3.076.7923 6.1302 1.6692 9.1994 2.4887 9.146 2.4421 18.2858 4.8856 27.783 5.6432 2.4937.1989 4.2056-.641 5.7961-2.5101 3.1552-3.7078 6.4017-7.3511 9.8103-10.825 1.8431-1.8784 2.1532-3.8312 1.771-6.2773-.845-5.4079-1.5147-10.8435-2.224-16.2719-.2138-1.636.1758-3.0828 2.0381-3.4089 2.0526-.3594 2.2361 1.3294 2.5255 2.6985.7689 3.6378 1.4505 7.294 2.2125 10.9334.2412 1.1522.6264 2.2742.9457 3.41.2079.049.4158.098.6237.1469 6.9116-8.9291 13.8231-17.8582 20.8779-26.9723-.9241-.4382-1.5753-.7679-2.2428-1.0602-5.6331-2.4672-11.4772-4.5442-16.8631-7.4662-12.9341-7.0174-24.5758-16.0205-36.4559-24.6374-3.1872-2.3117-6.3614-4.5704-10.3394-5.3813-1.1244-.2292-1.6535-.0633-2.2138 1.0131-1.199 2.3036-2.9802 4.2344-5.739 4.2698-2.3137.0298-3.0274 1.1561-3.4287 3.1102-2.9118 14.1777-9.0431 26.8499-18.0964 38.1041-4.3194 5.3693-8.7905 10.6163-13.1929 15.9187zm-211.7155-125.5775c-5.244 4.5214-6.7377 9.8318-3.641 15.2455 1.668 2.916 3.8848 5.8281 6.5508 7.7994 5.7368 4.2419 11.9009 7.9113 17.9387 11.7382 2.5911 1.6423 5.3035 3.0932 8.1222 4.7245-4.3252 1.6356-8.3469 3.1564-12.3685 4.6772-6.797 2.5303-11.9123 6.8112-14.3968 13.8306-2.4918 5.3318-1.3929 11.423 3.3024 14.4807 3.163 2.0598 6.8236 3.9209 10.4861 4.5379 9.4623 1.594 19.0563 2.2919 28.6881 1.6197 1.028-.0717 2.0654-.0096 2.5746-.0096-.3096 3.6938-.8811 7.2939-.843 10.8875.0457 4.3099.8724 8.5552 4.3974 11.5876 3.7004 3.1833 8.2159 4.3014 12.9558 4.4916 6.8072.2731 13.4703-.8715 20.0819-2.3687 14.7613-3.3428 27.9665-10.3073 41.0198-17.6235.1561-.0875.2385-.3066.3885-.5092-.2731-.4705-.5258-.9426-.8118-1.3934-7.2794-11.4739-12.4314-23.789-14.8905-37.2019-1.4692-8.0131-1.9085-16.0884-1.828-24.2106 1.2786-6.7598 2.6288-13.5077 3.7576-20.2924.1662-.9989-.4126-2.481-1.1604-3.2188-11.2924-11.1403-22.5722-22.297-34.0546-33.2404-13.733-13.0883-29.615-22.9531-46.9866-30.4773-2.0562-.6026-4.1292-1.1535-6.1653-1.8179-5.0928-1.6619-6.719.497-6.8536 5.6963-.019.733.1284 1.4762.2503 2.206.7919 4.7438 2.6902 9.0536 5.4317 12.955 6.048 8.607 12.2389 17.1136 18.2783 25.7265 2.8545 4.0708 5.4947 8.2917 8.232 12.4447-1.9474-.2206-3.8985-.4128-5.8416-.6666-9.0207-1.1783-18.0242-1.477-26.972.5662-5.8416 1.3339-11.3917 3.2825-15.6425 7.8152zm440.7602-20.0613c-1.8044-2.8301-3.6087-5.6601-5.413-8.4902-.7737-.8887-1.5475-1.7774-2.4068-2.7642 5.7863-3.9103 11.4454-7.7155 17.084-11.551 4.8917-3.3275 9.4232-7.0302 12.5879-12.1586 4.1881-6.7865 3.5935-12.971-1.7203-17.4754-1.3305-1.0114-2.5646-2.1949-4.0085-3.004-5.9504-3.3344-12.2643-3.0253-18.632-1.554-3.6371.8404-7.2478 1.7946-10.8704 2.6976.2264-.7635.3589-1.5712.6938-2.2838 3.1599-6.7226 6.2796-13.4659 9.5623-20.1287 2.6927-5.4652 4.1654-11.1291 3.4101-17.2315-.3893-3.1448-1.9313-5.5656-4.9668-6.8463-.4878-.352-.9477-.7531-1.4677-1.0482-4.7654-2.705-9.8485-2.4765-14.987-1.5505-9.7851 1.7634-17.9879 6.7648-25.7602 12.6414-3.0452 2.3025-6.1097 4.5794-9.4628 7.0906 0-1.1463-.0321-1.8622.0049-2.5745.4035-7.7642.823-15.5275 1.2281-23.2916.5597-10.727 1.5759-21.4878-1.2509-32.0597-.5571-2.0832-1.6433-4.1297-2.9032-5.8951-1.8127-2.54-4.1874-2.6944-6.371-.4527-2.3959 2.4597-4.7957 4.9978-6.712 7.8281-7.3139 10.8026-12.8044 22.524-16.9324 34.8906-6.4543 19.3355-10.4688 39.2696-14.4366 59.21-.2009 1.0099.4095 2.3179.9694 3.3007.4795.8416 1.4319 1.4124 2.1699 2.1085 10.6238 10.0206 18.8028 21.7257 24.193 35.3214 3.7286 9.4046 5.2097 19.2605 5.637 29.3098-.2219 4.0157-.4438 8.0313-.6759 12.2317 1.0141 0 1.747.0597 2.4677-.0091 8.4557-.8073 16.9658-1.2653 25.35-2.5453 11.4073-1.7415 22.2508-5.4797 32.4194-11.0288 4.9485-2.7006 9.2421-6.1231 11.8061-11.2899 1.9216-3.8722 2.2043-7.7375-.6061-11.3973zm-99.8227 64.3011c-.4217-.3269-.8239-.6836-1.2686-.9755-1.6593-1.0891-3.1025-2.5146-2.3879-4.5695.6767-1.946 2.6769-1.9044 4.4619-1.7963 3.1547 1.5013 6.3095 3.0025 9.7553 4.6423 1.1612-4.2822 2.2585-8.3152 3.3484-12.3503 4.0689-15.0643 4.7126-30.1315.094-45.2193-5.1871-16.9453-15.186-30.4949-29.2021-41.1347-19.6073-14.8843-40.6602-17.0902-62.9205-6.616-3.3113 1.5581-6.2189 3.9742-9.3133 5.9934-.5583.3723-1.1392.7152-1.6716 1.1215-7.1577 5.4619-13.086 12.0944-18.2974 19.3869-1.7207 2.4077-3.5572 4.8069-4.7994 7.4632-1.5107 3.2305-1.2633 3.3462-3.9831 1.2857-.9691-1.1971-1.9407-2.3921-2.9067-3.5917-3.8445-4.7744-8.1472-8.9726-13.808-11.6214-10.3858-4.8597-21.2523-5.7332-32.4471-4.1416-6.9228.3013-13.1855 2.6754-19.1173 6.0884-.7207.3469-1.48.6314-2.1563 1.05-12.064 7.4656-20.8338 17.8798-27.1902 30.4451-7.8208 15.4601-10.5916 31.7959-8.4178 48.9683 1.2827 10.1328 4.2131 19.7786 8.7107 28.9539 6.3273 12.9082 15.1282 23.9557 25.4665 33.8336 2.605 2.4891 5.3949 4.7846 8.2668 7.3161 1.4588-2.9182 2.7333-5.5205 4.0551-8.0985 1.6136-3.147 3.8879-5.5135 7.5473-6.1721 1.7967.1838 3.308.6701 3.1269 2.9502-4.2256 3.6591-6.5352 8.4944-8.3698 13.6233-.4663 1.3036-.2402 2.2986.996 3.1251 8.3297 5.5688 17.0599 10.3976 26.3035 14.271.7426.3112 2.0076.5244 2.4865.1275 2.8856-2.3914 5.6125-4.9741 8.3926-7.4928.5897-.4276 1.2354-.7958 1.7608-1.2916 8.3469-7.8752 14.6911-17.3011 20.7418-26.9418 4.3142-6.8741 8.6074-13.7841 11.3355-21.4771.5377-1.5161.4485-3.4641.0423-5.0585-.6965-2.7336-1.9107-5.3315-2.8358-8.0112-1.5612-4.522-3.5311-8.9358-3.5278-13.8692.0033-4.9211 3.4122-7.1177 7.8878-4.9846 1.3966.6656 2.7388 1.4455 4.1811 2.213.2367-.474.4527-.8874.6521-1.3087 3.1813-6.72 10.3614-7.4473 14.6598-1.394 3.9489 5.5612 5.3109 11.9209 5.1472 18.6328-.0463 1.8956.5454 3.173 2.1337 4.2405 2.6908 1.8086 5.232 3.838 7.8771 5.7169 9.9183 7.0453 19.4265 14.743 30.4044 20.146 4.9539 2.4382 10.2004 4.2957 15.3676 6.2773 1.3049.5004 2.9393 1.0803 3.9894-.6702 3.5466-5.912 7.0803-11.8317 10.6189-17.7484 1.28-2.4432 2.6206-4.8568 3.8272-7.3357 2.476-5.0865 4.974-10.166 7.2795-15.3304 1.4562-3.2618.8715-4.6912-2.2001-6.5285-1.3204-.7896-2.7286-1.4326-4.0969-2.1424zm16.4096 16.4312c-6.4752 12.1253-12.7753 23.9228-19.1597 35.8781 5.0385.2413 10.7489-.94 14.7453-2.9424 8.1408-4.0789 11.58-9.9074 10.5296-17.7707-.7321-5.4804-3.1942-10.2453-6.1152-15.165zm-172.7831 75.7447c-6.9928-3.9843-13.5714-7.7327-20.6476-11.7646.3364 2.991.461 5.4654.9223 7.8753.67 3.5004 3.0033 5.4106 6.4596 6.071 4.5104.8618 8.6461-.4267 13.2657-2.1817zm75.7228-81.1488c-.8812-4.7753-2.26-9.4054-4.4359-13.7622-.614-1.2293-1.7216-1.8915-3.2052-1.0746-2.2032 1.2131-3.6804 4.8404-2.7626 7.1543 1.0911 2.7507 2.1744 5.5194 3.5241 8.1452.537 1.0447 1.6433 2.034 2.7271 2.5127 2.4809 1.0957 4.1899-.2551 4.1525-2.9754zm-16.4089 133.0517c-.1313.0873-.2626.1746-.3939.2619.4711 3.3382.7718 6.7116 1.4498 10.0072 1.2854 6.2476 8.862 10.4127 15.179 8.2994-5.4537-6.2375-10.8443-12.403-16.2349-18.5685zm-6.1079-143.767c2.1713 6.8336 4.1733 13.1348 6.2047 19.5282 2.5246-1.66 3.3629-2.902 3.5341-4.9925.4111-5.0188-4.2455-12.3708-9.7388-14.5357zm75.7167 121.8988c-.7272 7.7612 8.3432 17.8817 14.9623 16.7784-5.0993-5.4577-8.6768-12.1083-14.9623-16.7784z" fill="#381c1a"/><path d="m139.5781 146.413c-4.9933.2155-13.6447-.1767-22.0399-2.4957-3.39-.9364-6.7345-2.4944-9.7076-4.3859-5.817-3.7007-7.4736-10.0137-4.744-16.3615 2.8577-6.6457 7.7356-11.6479 13.2152-16.1641 14.6109-12.0419 31.368-20.0206 49.1888-25.9664 17.6445-5.887 35.7993-9.5133 54.2548-11.4618 17.4784-1.8454 34.9956-3.3908 52.526-4.6454 8.2601-.5911 16.6021-.4695 24.8859-.1413 5.3237.2109 10.2203 2.4312 14.6499 5.4557 4.9546 3.383 6.2411 9.0223 3.6127 15.5538-2.4911 6.1902-7.2418 10.531-12.1732 14.6713-6.7298 5.6504-14.4413 9.7131-22.3376 13.4592-26.3051 12.4795-54.1102 20.1942-82.5116 26.0179-18.1906 3.73-36.5621 5.9123-58.8194 6.4642zm164.8535-58.5153c1.364-1.9911 2.9867-3.8567 4.0284-6.0041 1.3852-2.8556.422-5.2033-2.4241-6.5583-4.232-2.0148-8.6347-3.6663-13.375-3.7522-8.3766-.1518-16.7601-.2497-25.1354-.0913-23.3909.4423-46.4573 3.6126-69.2876 8.6151-17.8618 3.9138-35.382 8.8783-51.8506 17.0316-7.8922 3.9073-15.4723 8.3095-22.1026 14.187-5.5596 3.681-10.1586 8.2723-13.177 14.2744-1.6602 3.3014-1.0936 5.492 2.0227 7.4328 1.8668 1.1626 3.9208 2.373 6.0311 2.7283 5.4489.9176 10.9609 1.6949 16.4744 1.9502 15.4588.716 30.7863-.9833 46.0382-3.284 22.4337-3.3841 44.3313-9.0307 65.8615-16.1247 15.699-5.1727 30.9787-11.3212 45.0596-20.1147 4.4737-2.7937 8.7029-5.9268 11.8364-10.2901z" fill="#381d19"/><path d="m249.9395 201.2035c2.7198 2.0605 2.4723 1.9448 3.9831-1.2857 1.2422-2.6563 3.0787-5.0555 4.7994-7.4632 5.2114-7.2925 11.1397-13.9249 18.2974-19.3869.5324-.4063 1.1133-.7491 1.6715-1.1213 4.7329-.5913 9.4622-1.2139 14.1998-1.7653 4.4732-.5206 8.9465-1.2071 13.4359-1.3674 3.4755-.1241 6.9757.4536 10.4653.7154 8.7797.6587 16.689 3.8161 23.7497 8.8922 8.8253 6.3447 15.4756 14.6593 20.2282 24.4 3.9698 8.1365 7.0771 16.5527 8.3526 25.6455 1.1493 8.193.6256 16.266-.371 24.3734-.5657 4.602-1.2121 9.194-1.8222 13.7905-1.785-.1081-3.7852-.1497-4.4619 1.7963-.7146 2.055.7286 3.4804 2.3879 4.5695.4447.2919.8469.6486 1.2685.9755-.3271 3.7513-.3352 7.5654-1.0571 11.2391-1.0475 5.3311-2.69 10.5428-3.8979 15.8466-.3044 1.3368.0784 2.83.1454 4.2514-3.5386 5.9167-7.0723 11.8365-10.6189 17.7484-1.0501 1.7504-2.6844 1.1706-3.9894.6702-5.1672-1.9816-10.4136-3.8391-15.3676-6.2773-10.9779-5.403-20.4861-13.1007-30.4044-20.146-2.6451-1.8789-5.1863-3.9083-7.8771-5.7169-1.5883-1.0676-2.18-2.3449-2.1337-4.2405.1637-6.7119-1.1983-13.0715-5.1472-18.6328-4.2983-6.0534-11.4784-5.3261-14.6598 1.394-.1994.4213-.4154.8347-.6521 1.3087-1.4423-.7675-2.7845-1.5474-4.1811-2.213-4.4756-2.1331-7.8845.0635-7.8878 4.9846-.0033 4.9334 1.9665 9.3472 3.5278 13.8692.9251 2.6797 2.1393 5.2777 2.8358 8.0112.4062 1.5944.4953 3.5424-.0423 5.0585-2.7281 7.693-7.0213 14.603-11.3355 21.4771-6.0507 9.6407-12.3949 19.0665-20.7418 26.9418-.5254.4957-1.1711.864-1.7607 1.2914-.6011-.2542-1.29-.395-1.7889-.7811-2.7165-2.1025-5.4117-4.2345-8.067-6.4138-6.6645-5.4699-13.3036-10.9706-19.953-16.4589.181-2.28-1.3302-2.7664-3.1275-2.9501-.5284-.9337-.897-2.0164-1.6092-2.7779-6.0487-6.4678-10.5315-14.0065-14.7697-21.6852-4.5866-8.3101-7.9608-17.1241-10.3753-26.3163-2.0281-7.7211-3.1232-15.571-3.3394-23.5261-.2403-8.8444.8131-17.6093 1.9542-26.3681 1.4616-11.2183 4.5987-21.8751 10.0643-31.8156.6746-1.2269 1.1993-2.5362 1.7935-3.8073 5.9318-3.413 12.1945-5.7871 19.1172-6.0885 3.5372.2315 7.0716.5593 10.6127.6695 4.0955.1274 7.9864 1.0356 11.7031 2.6883 6.1028 2.7138 11.3158 6.6644 15.9647 11.4448 2.939 3.022 6.303 5.3134 10.8815 4.5521zm81.4282 72.0069c3.0968-.5714 6.0052-.8246 8.726-1.6766 4.0534-1.2692 7.2212-6.7165 4.6427-11.5817-1.9704-3.7177-5.1412-5.2269-9.0508-5.4492-5.6409-.3206-10.94 1.2962-16.0706 3.4034-2.5998 1.0678-4.5505 2.9168-4.7053 6.0215-.164 3.2895 1.7143 6.1905 5.3381 7.1843 3.661 1.004 7.4789 1.4356 11.1199 2.0983zm-128.5541 11.7331c.0295-.0975.0591-.1951.0886-.2926 2.0786-.1776 4.1609-.32 6.2349-.5399 5.0222-.5325 8.1159-4.4829 7.8552-9.9804-.2281-4.8089-3.8529-8.151-8.7203-8.3131-5.7689-.1921-10.9988 1.7187-16.2092 3.7966-3.0377 1.2114-4.7212 3.547-4.6894 6.4482.0379 3.4643 1.7172 5.9305 5.1885 6.8455 3.3625.8863 6.8302 1.3733 10.2517 2.0357zm135.5874-56.699c-2.0704 4.0384-5.7741 5.6614-8.9895 7.9342-6.5463 4.6271-16.2469 2.4359-21.2856-2.9297-.5508-.5865-1.0104-1.4322-1.6889-1.6866-1.1594-.4347-2.8303-1.0828-3.6169-.5845-1.3695.8676-1.4733 2.6765-.5613 4.1758.7664 1.26 1.6311 2.4833 2.6017 3.592 5.0047 5.7168 16.1378 10.2313 24.7088 5.5387 5.5848-3.0578 9.6439-9.9339 8.8317-16.0399zm-98.065 10.3429c-3.0262 1.5668-5.5744 3.0533-8.2573 4.2339-3.5661 1.5691-7.1275 3.5619-10.8877 4.1843-6.3303 1.0479-12.0281-.7344-16.199-6.1625-.5618-.731-2.0573-.7446-3.1204-1.0904-.2709 1.0891-1.0226 2.349-.7093 3.2305.5918 1.6654 1.5486 3.3573 2.786 4.6117 7.7066 7.8121 20.4202 8.576 29.0952 1.8811 3.4983-2.6998 6.032-6.0489 7.2925-10.8886z" fill="#fe6958"/><path d="m452.5673 155.3711c3.6226-.903 7.2333-1.8573 10.8704-2.6976 6.3677-1.4713 12.6816-1.7804 18.632 1.554 1.4439.8091 2.6779 1.9926 4.0082 3.0038-.3763.7092-.6747 1.4749-1.1415 2.1184-2.2151 3.0537-4.4098 6.1258-6.7327 9.0967-7.2071 9.2172-16.1154 15.8678-27.8338 18.2166-3.2057.6426-5.5098 2.6705-5.7987 5.1598-.6407 5.5198 1.7318 8.8188 7.9875 9.7402 2.5834.3805 5.3121-.2251 7.9748-.3822 1.8044 2.8301 3.6087 5.6601 5.4131 8.4904-1.3171.7872-2.6492 1.5503-3.9487 2.3654-5.1326 3.2195-10.074 6.8016-15.4261 9.5991-7.0035 3.6606-14.6302 5.8225-22.3367 7.5552-4.7863 1.0761-9.5898 2.1292-14.434 2.8794-4.8405.7496-9.7414 1.1089-14.6158 1.6394-.4273-10.0493-1.9084-19.9052-5.637-29.3098-5.3902-13.5957-13.5692-25.3008-24.193-35.3214-.738-.6961-1.6904-1.2668-2.1699-2.1085-.5599-.9828-1.1703-2.2908-.9694-3.3007 3.9678-19.9404 7.9823-39.8745 14.4366-59.21 4.128-12.3666 9.6185-24.088 16.9324-34.8906 1.9162-2.8302 4.316-5.3683 6.712-7.8281 2.1836-2.2417 4.5583-2.0873 6.371.4527 1.2599 1.7654 2.3461 3.8119 2.9032 5.8951 2.8269 10.5719 1.8106 21.3326 1.2509 32.0597-.4051 7.7641-.8245 15.5274-1.2281 23.2916-.037.7123-.0049 1.4282-.0049 2.5745 3.353-2.5112 6.4176-4.7881 9.4628-7.0906 7.7723-5.8767 15.9751-10.878 25.7602-12.6414 5.1385-.926 10.2216-1.1545 14.987 1.5505.52.2952.9799.6963 1.4676 1.0482-1.2498 3.2672-2.3708 6.5909-3.7737 9.791-4.1046 9.3625-8.3132 18.6794-12.5027 28.0044-.6878 1.5309-1.5886 2.9714-2.2088 4.5264-.9745 2.4434 1.0816 5.4291 3.6651 5.2256 2.0552-.1621 4.0815-.6911 6.1207-1.0572z" fill="#f9f9f9"/><path d="m54.4688 164.8068c17.3716 7.5242 33.2536 17.389 46.9866 30.4773 11.4824 10.9433 22.7622 22.1001 34.0546 33.2404.7478.7378 1.3266 2.2199 1.1604 3.2188-1.1288 6.7847-2.4789 13.5326-3.7576 20.2924-3.4684 3.9075-5.9423 8.388-6.9895 13.4903-1.1467 5.5865-2.0048 11.236-2.8605 16.8775-.9197 6.0641-.3896 12.1234.7569 18.0883.951 4.9478 3.106 9.4681 5.9637 13.6433 1.1604 1.6954.8602 2.4943-.9339 3.2648-3.0381 1.3048-6.0182 2.7548-9.0966 3.9537-8.3035 3.2339-16.5945 6.5546-25.8063 5.8779-4.2487-.3121-7.5301-1.9417-9.7513-5.7944-3.5453-6.1495-4.8889-12.9436-6.1836-19.757-1.4358-7.556-4.8387-11.5393-12.3903-12.6438-3.7576-.5496-7.724.4716-11.6009.56-5.1611.1176-10.3411.2484-15.4864-.0643-3.7365-.2271-7.4299-1.164-11.1426-1.7844 2.4845-7.0194 7.5998-11.3002 14.3971-13.8307.2814.1591.5442.3897.8462.4666 4.048 1.0312 7.8841-.1059 11.6886-1.2599 2.164-.6564 2.7577-2.0176 1.8485-4.0921-.6481-1.4789-1.3656-2.9739-2.3201-4.2633-2.72-3.6744-5.3132-7.4982-8.4485-10.7951-3.7015-3.8923-8.1399-7.0831-11.8488-10.9693-3.6346-3.8085-6.4125-8.3215-8.3685-13.2716 4.2507-4.5327 9.8009-6.4813 15.6423-7.8152 8.9478-2.0432 17.9514-1.7446 26.972-.5662 1.9431.2538 3.8942.446 5.8415.6667 2.6192.1049 5.2486.3877 7.8537.2403 1.3208-.0747 2.062-1.3642 1.7427-2.7472-1.3268-5.7454-3.0604-11.3695-6.3939-16.3057-5.0932-7.5419-10.5033-14.8754-15.4298-22.5222-3.1359-4.8679-5.6129-10.1546-6.9457-15.8759z" fill="#fcfcfc"/><path d="m236.9017 355.3097c4.4023-5.3024 8.8735-10.5495 13.1928-15.9187 9.0534-11.2542 15.1846-23.9265 18.0964-38.1041.4013-1.9541 1.1151-3.0805 3.4287-3.1102 2.7587-.0354 4.54-1.9662 5.739-4.2698.5602-1.0764 1.0894-1.2423 2.2138-1.0131 3.9781.8109 7.1523 3.0696 10.3394 5.3813 11.8801 8.6169 23.5218 17.62 36.4559 24.6374 5.3859 2.922 11.2299 4.999 16.8631 7.4662.6675.2924 1.3187.622 2.2428 1.0602-7.0547 9.114-13.9663 18.0432-20.8779 26.9723-.2079-.049-.4158-.0979-.6237-.1469-.3193-1.1358-.7045-2.2578-.9457-3.41-.762-3.6393-1.4436-7.2955-2.2125-10.9334-.2894-1.3691-.473-3.058-2.5255-2.6985-1.8622.3261-2.2518 1.7729-2.0381 3.4089.7093 5.4284 1.3789 10.8641 2.224 16.2719.3822 2.4461.0721 4.399-1.771 6.2773-3.4086 3.4739-6.6551 7.1172-9.8103 10.825-1.5905 1.8691-3.3024 2.709-5.7961 2.5101-9.4973-.7576-18.6371-3.2011-27.783-5.6432-3.0692-.8195-6.1234-1.6964-9.1994-2.4887-1.6285-.4195-2.1943-1.2948-1.817-2.9771.7538-3.362 1.4066-6.7475 2.0442-10.134.1001-.5316.0698-1.4823-.1947-1.6051-.5302-.2462-1.4514-.3051-1.8738.0104-.8268.6176-1.6381 1.4436-2.07 2.3643-1.0027 2.138-1.7761 4.3836-2.6424 6.5855-.8918-.2518-1.8704-.3458-2.6614-.7809-4.8964-2.6929-9.7623-5.4421-14.6103-8.2214-1.1828-.678-2.261-1.5388-3.3873-2.3157z" fill="#fd6854"/><path d="m181.6604 187.9372c-.5942 1.2711-1.119 2.5804-1.7935 3.8073-5.4655 9.9405-8.6027 20.5973-10.0643 31.8156-1.1411 8.7588-2.1945 17.5237-1.9542 26.3681.2161 7.9552 1.3113 15.805 3.3394 23.5261 2.4145 9.1921 5.7887 18.0062 10.3753 26.3163 4.2381 7.6788 8.721 15.2174 14.7697 21.6852.7121.7615 1.0807 1.8442 1.6092 2.7779-3.6588.6585-5.9331 3.025-7.5468 6.172-1.3219 2.578-2.5964 5.1804-4.0551 8.0985-2.8718-2.5315-5.6618-4.827-8.2668-7.3161-10.3382-9.878-19.1391-20.9254-25.4665-33.8336-4.4975-9.1753-7.428-18.8211-8.7107-28.9539-2.1738-17.1723.597-33.5082 8.4178-48.9683 6.3564-12.5653 15.1262-22.9795 27.1902-30.4451.6763-.4186 1.4356-.7031 2.1563-1.05z" fill="#fd4430"/><path d="m27.3917 287.7477c3.7126.6204 7.406 1.5573 11.1426 1.7844 5.1453.3127 10.3253.1819 15.4864.0643 3.877-.0883 7.8433-1.1096 11.6009-.56 7.5516 1.1045 10.9545 5.0878 12.3903 12.6438 1.2947 6.8134 2.6383 13.6075 6.1836 19.757 2.2212 3.8528 5.5025 5.4823 9.7513 5.7944 9.2118.6767 17.5028-2.644 25.8063-5.8779 3.0785-1.1989 6.0585-2.6489 9.0966-3.9537 1.7941-.7705 2.0943-1.5694.9339-3.2648-2.8577-4.1752-5.0127-8.6956-5.9637-13.6433-1.1465-5.9649-1.6766-12.0243-.7569-18.0883.8556-5.6415 1.7138-11.291 2.8605-16.8775 1.0473-5.1023 3.5212-9.5829 6.9895-13.4903-.0804 8.1222.3589 16.1975 1.828 24.2106 2.4591 13.4129 7.6111 25.728 14.8905 37.2019.2861.4509.5388.9229.8118 1.3934-.15.2025-.2323.4216-.3885.5092-13.0533 7.3163-26.2585 14.2807-41.0198 17.6235-6.6116 1.4973-13.2747 2.6419-20.0819 2.3687-4.7399-.1902-9.2554-1.3083-12.9558-4.4916-3.525-3.0323-4.3517-7.2776-4.3974-11.5876-.0381-3.5936.5334-7.1937.843-10.8875-.5092 0-1.5465-.0621-2.5746.0096-9.6318.6722-19.2258-.0257-28.6881-1.6197-3.6625-.617-7.3232-2.4781-10.4861-4.5379-4.6953-3.0577-5.7942-9.149-3.3024-14.4807z" fill="#c4e6f5"/><path d="m366.9291 266.6307c.6101-4.5965 1.2565-9.1885 1.8222-13.7905.9966-8.1074 1.5203-16.1804.371-24.3734-1.2755-9.0928-4.3828-17.509-8.3526-25.6455-4.7526-9.7407-11.4029-18.0553-20.2282-24.4-7.0607-5.0761-14.97-8.2335-23.7497-8.8922-3.4896-.2618-6.9898-.8395-10.4653-.7154-4.4894.1603-8.9627.8468-13.4359 1.3674-4.7376.5514-9.4669 1.174-14.1998 1.7653 3.0944-2.0194 6.002-4.4355 9.3133-5.9936 22.2603-10.4743 43.3132-8.2683 62.9205 6.616 14.0161 10.6398 24.015 24.1894 29.2021 41.1347 4.6185 15.0878 3.9749 30.155-.094 45.2193-1.0898 4.035-2.1872 8.0681-3.3484 12.3503-3.4457-1.6398-6.6005-3.1411-9.7552-4.6424z" fill="#fc8f77"/><path d="m395.1852 233.7097c4.8744-.5304 9.7753-.8898 14.6158-1.6394 4.8442-.7502 9.6477-1.8033 14.434-2.8794 7.7065-1.7326 15.3332-3.8945 22.3367-7.5552 5.3521-2.7975 10.2935-6.3796 15.4261-9.5991 1.2996-.8152 2.6317-1.5783 3.9487-2.3654 2.8103 3.6596 2.5276 7.5249.6059 11.3972-2.564 5.1667-6.8575 8.5893-11.8061 11.2899-10.1685 5.5492-21.012 9.2874-32.4194 11.0288-8.3842 1.28-16.8943 1.738-25.35 2.5453-.7207.0688-1.4536.0091-2.4677.0091.2322-4.2005.4541-8.2162.676-12.2318z" fill="#c3e5f4"/><path d="m54.4688 164.8068c1.3328 5.7213 3.8098 11.008 6.946 15.8759 4.9265 7.6469 10.3366 14.9803 15.4298 22.5222 3.3335 4.9361 5.0671 10.5602 6.3939 16.3057.3194 1.383-.4219 2.6724-1.7427 2.7472-2.6051.1474-5.2345-.1354-7.8537-.2403-2.7372-4.1529-5.3774-8.3739-8.2319-12.4447-6.0394-8.6129-12.2304-17.1195-18.2783-25.7265-2.7415-3.9014-4.6399-8.2113-5.4317-12.955-.1218-.7299-.2692-1.473-.2503-2.206.1347-5.1993 1.7608-7.3582 6.8536-5.6963 2.0361.6643 4.1091 1.2152 6.1653 1.8178z" fill="#c3e6f4"/><path d="m460.5334 201.1808c-2.6627.1571-5.3914.7628-7.9748.3822-6.2556-.9214-8.6281-4.2204-7.9875-9.7402.2889-2.4893 2.593-4.5172 5.7987-5.1598 11.7184-2.3488 20.6267-8.9994 27.8338-18.2166 2.323-2.9709 4.5177-6.043 6.7327-9.0967.4668-.6436.7653-1.4092 1.1415-2.1185 5.3141 4.5046 5.9087 10.6891 1.7206 17.4756-3.1648 5.1284-7.6963 8.8311-12.5879 12.1586-5.6385 3.8355-11.2977 7.6407-17.084 11.551.8594.987 1.6332 1.8757 2.4069 2.7644z" fill="#c3e5f4"/><path d="m201.0694 327.1837c6.6494 5.4883 13.2885 10.989 19.953 16.4589 2.6553 2.1793 5.3505 4.3113 8.067 6.4138.4989.3862 1.1878.5269 1.7889.7811-2.7802 2.5189-5.5071 5.1016-8.3927 7.493-.4789.3969-1.7439.1836-2.4865-.1275-9.2436-3.8734-17.9738-8.7022-26.3035-14.271-1.2362-.8265-1.4623-1.8214-.996-3.1251 1.8346-5.1287 4.1441-9.964 8.3698-13.6232z" fill="#fc432f"/><path d="m25.1862 229.7322c1.956 4.9501 4.7338 9.4631 8.3685 13.2716 3.7088 3.8863 8.1473 7.077 11.8488 10.9693 3.1353 3.2969 5.7286 7.1207 8.4485 10.7951.9545 1.2894 1.672 2.7844 2.3201 4.2633.9091 2.0745.3155 3.4357-1.8485 4.0921-3.8045 1.1541-7.6406 2.2912-11.6886 1.2599-.302-.0769-.5648-.3076-.8462-.4666 4.0213-1.5207 8.043-3.0415 12.3682-4.6771-2.8188-1.6313-5.5311-3.0823-8.1222-4.7245-6.0379-3.8269-12.2019-7.4963-17.9387-11.7382-2.6661-1.9714-4.8829-4.8834-6.5508-7.7994-3.0967-5.4137-1.603-10.7241 3.6409-15.2455z" fill="#c3e4f3"/><path d="m452.5673 155.3711c-2.0392.3661-4.0655.8951-6.1208 1.057-2.5835.2036-4.6395-2.7822-3.6651-5.2256.6201-1.5549 1.5209-2.9954 2.2088-4.5264 4.1895-9.325 8.3981-18.6419 12.5027-28.0044 1.4029-3.2001 2.5239-6.5238 3.7737-9.791 3.0356 1.2807 4.5776 3.7015 4.9668 6.8463.7553 6.1023-.7174 11.7663-3.4101 17.2315-3.2827 6.6628-6.4024 13.406-9.5623 20.1287-.3349.7127-.4673 1.5204-.6937 2.2839z" fill="#c3e5f4"/><path d="m236.9017 355.3097c1.1263.7769 2.2044 1.6377 3.3873 2.3158 4.848 2.7793 9.7139 5.5285 14.6103 8.2214.791.4351 1.7696.5291 2.6614.7809-.2017 1.2564-.4033 2.5128-.6553 4.0833-4.7336-1.4197-9.296-2.7835-13.8556-4.157-4.5835-1.3806-9.1641-2.7708-14.3489-4.3392 2.9365-2.4724 5.5686-4.6888 8.2008-6.9052z" fill="#f9422f"/><path d="m249.9395 201.2035c-4.5785.7613-7.9425-1.5301-10.8815-4.5521-4.6489-4.7804-9.8618-8.731-15.9647-11.4448-3.7167-1.6527-7.6076-2.5609-11.7031-2.6883-3.5411-.1101-7.0754-.4379-10.6127-.6695 11.1949-1.5916 22.0614-.718 32.4472 4.1417 5.6608 2.6488 9.9635 6.847 13.808 11.6214.9661 1.1995 1.9377 2.3945 2.9068 3.5916z" fill="#f8866e"/><path d="m361.314 305.3091c-.067-1.4213-.4498-2.9146-.1454-4.2514 1.2079-5.3038 2.8504-10.5155 3.8979-15.8466.7219-3.6738.7299-7.4878 1.0571-11.2391 1.3684.7097 2.7767 1.3528 4.0971 2.1426 3.0716 1.8373 3.6563 3.2667 2.2001 6.5285-2.3055 5.1643-4.8036 10.2438-7.2795 15.3304-1.2067 2.4788-2.5473 4.8925-3.8273 7.3356z" fill="#fa876f"/><path d="m285.473 284.9991c.0374 2.7204-1.6716 4.0711-4.1525 2.9754-1.0838-.4787-2.1901-1.468-2.7271-2.5127-1.3497-2.6257-2.4331-5.3945-3.5241-8.1452-.9178-2.3138.5594-5.9411 2.7626-7.1543 1.4836-.8169 2.5912-.1547 3.2052 1.0746 2.1759 4.3568 3.5547 8.9868 4.4359 13.7622z" fill="#f8c75c"/><path d="m269.0641 418.0508c5.3906 6.1655 10.7812 12.331 16.2349 18.5685-6.317 2.1133-13.8936-2.0518-15.179-8.2994-.6781-3.2956-.9787-6.669-1.4498-10.0072.1313-.0873.2626-.1746.3939-.2619z" fill="#f6c55c"/><path d="m262.9562 274.2838c5.4933 2.1649 10.1498 9.5169 9.7388 14.5357-.1712 2.0905-1.0095 3.3325-3.5341 4.9925-2.0313-6.3934-4.0334-12.6946-6.2047-19.5282z" fill="#f4c35b"/><path d="m338.6729 396.1826c6.2856 4.6701 9.8631 11.3207 14.9623 16.7784-6.6192 1.1032-15.6896-9.0172-14.9623-16.7784z" fill="#f4c35b"/><path d="m124.2846 111.3255c6.6303-5.8774 14.2104-10.2797 22.1026-14.187 16.4686-8.1533 33.9888-13.1178 51.8506-17.0316 22.8304-5.0025 45.8967-8.1728 69.2876-8.6151 8.3753-.1584 16.7588-.0605 25.1354.0913 4.7402.0859 9.143 1.7374 13.375 3.7522 2.8461 1.3549 3.8093 3.7027 2.4241 6.5583-1.0417 2.1474-2.6644 4.013-4.0284 6.0041-1.7743.3206-3.634.4034-5.3076 1.0043-6.2693 2.2511-12.4561 4.7319-18.727 6.9783-1.2681.4543-2.7677.2623-4.1605.3682 2.0579-2.3255 4.2609-4.5403 6.1393-7.0027 2.7338-3.5835 1.9584-6.7111-1.985-8.8601-3.5575-1.9387-7.3965-2.5075-11.3948-2.1777-5.8618.4835-11.7242.9601-17.5838 1.4693-16.1052 1.3995-32.1853 3.021-48.0591 6.1932-17.972 3.5914-35.4866 8.5929-51.6112 17.582-6.0213 3.3567-11.9407 6.897-16.5403 12.2461-2.1113 2.4553-3.2909 5.0724-2.794 8.3293-5.2436-.3918-9.1985-5.2185-8.4565-10.3185.1156-.7941.2227-1.5893.3336-2.3839z" fill="#f8d200"/><path d="m124.2846 111.3255c-.111.7946-.218 1.5898-.3335 2.3838-.7419 5.1001 3.213 9.9267 8.4565 10.3185 1.4261 2.6979 3.8162 4.0219 6.6279 4.9275 5.2416 1.6883 10.562.9808 15.8834.8279 18.5777-.5337 36.8734-3.0499 54.8587-7.7392 17.3222-4.5164 34.6668-9.0333 50.8895-16.8123 5.387-2.5831 10.3905-5.966 15.5694-8.9833 1.3929-.1059 2.8924.0861 4.1605-.3682 6.2709-2.2464 12.4577-4.7272 18.727-6.9783 1.6736-.601 3.5333-.6837 5.3076-1.0043-3.1334 4.3633-7.3626 7.4965-11.8364 10.2903-14.081 8.7934-29.3607 14.942-45.0596 20.1147-21.5303 7.0941-43.4279 12.7406-65.8615 16.1247-15.2519 2.3007-30.5794 4-46.0382 3.284-5.5135-.2554-11.0255-1.0326-16.4744-1.9502-2.1102-.3554-4.1643-1.5657-6.0311-2.7283-3.1163-1.9409-3.6829-4.1315-2.0227-7.4328 3.0183-6.0022 7.6173-10.5935 13.1769-14.2745z" fill="#f5b500"/><path d="m331.3677 273.2104c-3.641-.6627-7.4589-1.0943-11.1199-2.0983-3.6238-.9937-5.5021-3.8948-5.3381-7.1843.1548-3.1046 2.1055-4.9537 4.7053-6.0215 5.1306-2.1072 10.4298-3.724 16.0706-3.4034 3.9096.2222 7.0804 1.7315 9.0508 5.4492 2.5786 4.8652-.5893 10.3125-4.6427 11.5817-2.7208.852-5.6292 1.1052-8.726 1.6766z" fill="#ff3036"/><path d="m202.8136 284.9435c-3.4215-.6624-6.8892-1.1495-10.2517-2.0358-3.4713-.9149-5.1505-3.3812-5.1885-6.8455-.0318-2.9012 1.6517-5.2368 4.6894-6.4482 5.2104-2.0779 10.4403-3.9888 16.2092-3.7966 4.8674.1621 8.4921 3.5042 8.7203 8.3131.2607 5.4975-2.833 9.4478-7.8552 9.9804-2.0741.2199-4.1564.3623-6.2349.5399-.0295.0977-.059.1952-.0886.2927z" fill="#ff3036"/><path d="m338.401 228.2445c.8123 6.106-3.2469 12.9821-8.8318 16.0398-8.571 4.6926-19.7041.1782-24.7088-5.5387-.9706-1.1087-1.8353-2.332-2.6017-3.592-.912-1.4993-.8082-3.3081.5613-4.1758.7866-.4983 2.4575.1498 3.6169.5845.6785.2544 1.1381 1.1001 1.6889 1.6866 5.0388 5.3655 14.7393 7.5568 21.2856 2.9297 3.2155-2.2727 6.9192-3.8957 8.9896-7.9341z" fill="#3a1b18"/><path d="m240.336 238.5874c-1.2605 4.8397-3.7941 8.1887-7.2926 10.8886-8.675 6.6949-21.3885 5.931-29.0952-1.8811-1.2375-1.2544-2.1942-2.9463-2.786-4.6117-.3132-.8815.4384-2.1414.7093-3.2305 1.0631.3458 2.5587.3593 3.1204 1.0904 4.1709 5.4281 9.8688 7.2104 16.199 6.1625 3.7602-.6225 7.3216-2.6152 10.8877-4.1843 2.683-1.1805 5.2312-2.6671 8.2574-4.2339z" fill="#3b1b18"/><path d="m276.2364 96.2485c-5.1789 3.0173-10.1824 6.4001-15.5694 8.9833-16.2227 7.779-33.5673 12.2958-50.8895 16.8123-17.9852 4.6893-36.281 7.2055-54.8587 7.7392-5.3214.1529-10.6418.8603-15.8834-.8279-2.8116-.9056-5.2017-2.2296-6.6279-4.9275-.4969-3.2568.6827-5.874 2.794-8.3292 4.5996-5.3491 10.519-8.8894 16.5403-12.2461 16.1246-8.989 33.6392-13.9906 51.6112-17.582 15.8739-3.1721 31.9539-4.7937 48.0591-6.1932 5.8596-.5092 11.722-.9858 17.5838-1.4693 3.9983-.3298 7.8372.239 11.3948 2.1777 3.9434 2.149 4.7188 5.2766 1.985 8.8601-1.8784 2.4623-4.0814 4.6771-6.1393 7.0026zm-125.06 29.7638c.0294-.1188.0587-.2376.0881-.3564 1.4144-.119 2.8269-.275 4.2436-.3513 22.1653-1.1949 43.88-5.0791 65.2329-11.0398 14.662-4.093 29.084-8.8932 42.8397-15.4937 5.0265-2.4119 9.6107-5.5288 13.4368-9.6268 2.2263-2.3845 1.4244-4.9296-1.7171-5.8288-.5157-.1476-1.0516-.2735-1.5844-.3048-2.5633-.1504-5.1278-.3505-7.6936-.3786-18.6098-.2033-36.9446 2.3173-55.1404 5.8969-16.1818 3.1834-32.1623 7.1666-47.2824 13.9702-8.9974 4.0486-17.3486 9.1032-24.2293 16.3096-1.9787 2.0723-1.6895 3.9669.9959 4.7593 3.536 1.0435 7.2008 1.6499 10.8102 2.4442z" fill="#3e211a"/></g></svg>