<svg id="Layer_1" enable-background="new 0 0 512 512" height="512" viewBox="0 0 512 512" width="512" xmlns="http://www.w3.org/2000/svg"><g><path d="m311.8072 135.848c.1836-3.5617-1.4448-5.8983-3.5889-7.892-2.1018-1.9543-4.2572-3.8874-6.5853-5.556-20.6398-14.7933-17.6229-39.0828-3.2046-53.5036 13.754-13.7564 37.6012-18.0103 54.6023-9.952 15.3988 7.2988 22.698 23.298 17.8164 39.794-1.5749 5.3221-4.0252 10.3839-6.0507 15.5743-1.1708 3.0002-1.0364 3.0961 1.8928 4.5889 2.7794 1.4164 5.4037.7549 8.0918-.1751 19.4862-6.7422 38.9774-13.47 58.7073-20.2854 4.2167 8.5871 8.4983 17.0971 12.5965 25.6944 9.435 19.7931 17.6974 40.0466 23.5284 61.2261.6269 2.2769 1.0601 4.6157 1.4469 6.9484.9873 5.9544-.9933 8.1163-7.1058 8.5279-9.9574.6704-19.5393-1.0497-28.969-4.0202-.3221-.1015-.6519-.1792-.9712-.2882-7.2957-2.4896-11.0379-3.362-17.5414 6.1507-6.6168 9.6785-8.0323 20.4593-5.4267 31.795 1.4299 6.2207 5.5064 10.2012 11.3446 12.3175 11.2349 4.0726 22.4007 4.0349 33.2316-1.387 5.9682-2.9876 11.7763-6.2941 17.6738-9.4243 4.4905-2.3834 6.8022-1.649 9.3271 2.8197 2.5172 4.4552 3.4232 9.3564 3.82 14.3453 1.1133 13.9968 2.1069 28.0031 3.1516 42.0053 1.3213 17.7096 2.6495 35.4186 3.9611 53.1289.0681.9189.0088 1.8472.0088 2.6469-3.5277 0-7.0419.1349-10.5427-.0242-12.6803-.5766-25.3508-1.4675-38.0363-1.782-4.9403-.1225-9.9283.8468-14.8611 1.5528-3.1544.4515-4.3241 3.3892-2.1864 5.856 2.6425 3.0495 5.523 5.979 8.6827 8.4771 7.5409 5.9618 12.9725 13.2534 14.1249 22.9154 2.4662 20.6765-8.3501 45.6873-36.9955 48.6111-10.8957 1.1122-21.1569-.7922-30.2281-7.0334-11.5988-7.9803-16.1092-19.4891-14.8509-33.2174.6157-6.7176 2.1389-13.3504 3.2043-20.0291.3834-2.4037.6286-4.8293 1.0023-7.7571-3.2483 1.3179-6.11 2.2893-8.8049 3.6031-17.1674 8.3697-34.3002 16.8105-51.4403 25.2364-19.3894 9.5316-39.3698 17.4662-60.6808 21.4786-4.5634.8592-9.4176.6186-14.0963.2914-4.3837-.3064-7.0147-2.7205-7.3405-7.0782-.4193-5.6065.0766-11.2766.0473-16.9187-.032-6.1628.2701-12.3813-.4396-18.4746-1.1635-9.9885-7.1733-16.12-16.9029-18.5281-6.4173-1.5883-12.8468-1.8778-19.2941.0284-9.9581 2.9441-14.5519 8.8304-15.4828 19.2153-1.1667 13.0151 2.495 24.1508 11.8309 33.4186 4.2404 4.2095 5.797 9.2446 3.6376 15.0854-1.1264 3.0466-3.2166 5.0656-6.3116 6.1144-13.7912 4.6732-27.9999 7.2133-42.5153 7.5567-11.1472.2637-22.3113-.2321-33.4685-.3146-2.4496-.0181-2.9227-1.196-2.8177-3.3697.7883-16.3125 1.6666-32.6237 2.1701-48.946.3813-12.3592-.1275-24.7354-3.1451-36.7903-1.0044-4.0124-3.0054-7.8788-5.1148-11.4818-2.0634-3.5243-4.4127-3.68-7.545-1.06-4.9886 4.1727-9.6764 8.7336-14.8682 12.6281-6.8343 5.1267-14.7482 7.8042-23.2894 8.4567-12.6666.9677-22.8395-4.8283-28.746-16.3908-9.0058-17.6294-7.7018-34.9349 2.0043-51.7942 4.689-8.1447 13.6798-11.6153 23.2677-9.1909 7.2027 1.8213 14.3023 4.047 21.4847 5.9535 2.0223.5368 4.1683.7247 6.2693.8233 4.2674.2004 5.5089-1.0166 4.6553-5.2705-1.209-6.0254-2.4235-12.1107-4.4002-17.9098-6.4037-18.787-13.1733-37.449-19.7606-56.1737-1.4252-4.0511-2.677-8.1633-4.0101-12.2469-.6924-2.1211.9066-2.9245 2.2747-3.6948 5.8148-3.2742 11.4889-6.8802 17.5535-9.6124 15.0865-6.7967 30.3122-13.2925 45.58-19.6749 5.6021-2.3418 8.8096.0134 8.6059 6.0679-.2247 6.6769-1.2512 13.348-1.1433 20.009.1089 6.7267.5107 13.5867 1.9641 20.126 3.3902 15.2535 19.346 23.1088 34.1312 17.2267 9.7422-3.8758 14.8303-11.3574 15.9566-21.626.4434-4.0425-1.0421-7.6576-3.0836-11.0428-2.9244-4.8492-5.9135-9.6593-8.8737-14.4869-1.9715-3.2151-2.7352-6.7078-2.3771-10.4512.3018-3.1554 1.3868-5.8989 4.0394-7.8687.5936-.4408 1.1611-1.0267 1.5096-1.6708 3.697-6.8324 9.7997-9.2035 17.1564-9.8918 23.9091-2.2368 47.8263-4.4388 71.685-7.1423 14.6898-1.6645 29.2776-4.2268 43.9147-6.3625 1.6552-.2412 3.3327-.3306 5.1435-.5043zm114.1305-25.7839s.0292-.054.0292-.054c-7.6145 2.4214-15.2315 4.8352-22.8428 7.2667-5.6869 1.8167-11.3665 3.6563-17.0493 5.4857-4.7079.9778-9.4257 1.9107-14.1207 2.947-4.0589.8958-8.0371 1.1092-11.883-.8276-4.6054-3.9663-4.9255-8.6936-2.5568-13.9598 1.4188-3.1544 2.7278-6.3585 4.068-9.5479 2.4408-5.8086 3.5662-11.8086 2.2235-18.0585-3.1331-14.5837-17.1307-20.9488-29.7094-20.2514-.5171-.0037-1.0342-.0073-1.5513-.011-14.903-.8816-29.6133 7.9717-35.7775 21.5323-5.4705 12.0346-.9865 25.9741 10.3604 32.2076 1.5222 1.3124 3.0689 2.5977 4.5622 3.9423 4.5434 4.091 7.6968 8.8675 7.4108 15.3029-.7419 2.4088-.5283 5.3994-3.5941 6.4527-2.95 1.0135-5.8918 2.2624-8.9417 2.738-16.0145 2.4973-32.0593 4.8006-48.0999 7.1281-4.1435.6012-8.3096 1.047-12.5159 1.5704.0938 1.446.149 2.5415.2455 3.6332.0286.3237.1738.6372.2655.9554.0868 5.2351.1735 10.4702.2603 15.7052.0226 1.1826.0452 2.3653.0678 3.5479.0069.3322.0138.6644.0207.9967.1468 10.4922.2937 20.9844.4405 31.4767.3327.0721.6653.1443.998.2164 1.3469-1.5642 2.6939-3.1285 4.0408-4.6927 3.5722-3.0987 6.9776-6.419 10.7466-9.2563 13.5237-10.1809 28.4034-12.8831 44.5531-7.4174 12.7779 4.3245 22.5542 12.4615 29.5385 23.9283 12.6886 20.8319 15.6669 43.4395 11.8887 67.1798-3.6328 22.8266-12.9566 43.2884-26.3087 61.998-6.2847 8.8064-12.74 17.491-19.118 26.2308-1.4912 1.493-3.171 2.8489-4.3972 4.5346-.6542.8994-.9887 2.512-.6663 3.555 1.1705 3.7866 2.661 7.4754 4.0663 11.1877 1.3161 3.4769 1.5012 3.5385 4.9195 1.7954 11.7521-5.9932 23.377-12.2539 35.2901-17.9076 8.9198-4.2331 18.209-7.688 27.3336-11.4895.5005.0815 1.0048.145 1.5011.2471 6.7852 1.3963 8.9055 3.9034 8.6358 10.8609-.1204 3.1055-.7196 6.2098-1.3016 9.2766-1.4191 7.4779-3.377 14.9351-2.1841 22.6117 1.2958 8.3377 4.5651 15.5702 12.6779 19.5758 2.3762.9942 4.7523 1.9883 7.1285 2.9825 3.8219.5939 7.6273 1.5397 11.4687 1.7198 15.1921.7123 27.9289-8.4021 31.9062-22.9754 3.5185-12.8922 1.49-24.1656-9.8888-32.8553-3.8256-2.9215-7.2007-6.7453-9.9128-10.7458-5.1917-7.658-1.4835-15.6458 7.6165-17.2516 13.0222-2.2979 26.1227-3.4843 39.3628-2.598 5.5456.3712 11.0994.6187 16.8824.9352 0-1.3249.0748-2.4016-.0116-3.4653-.8349-10.2754-1.7715-20.5431-2.5346-30.8237-1.2891-17.3666-2.4274-34.7444-3.7386-52.1093-.2771-3.6686-1.0264-7.3015-1.6237-11.4016-1.428 1.0052-2.3656 1.6651-3.3032 2.3251-1.1992.6101-2.428 1.1687-3.5929 1.8383-11.011 6.3294-22.5113 10.8853-35.5558 9.9142-.5078-.0373-1.0155-.0745-1.5232-.1118-.3319.0011-.6639.0022-.9958.0033-3.2356-.8343-6.523-1.5076-9.6972-2.5321-10.7144-3.4583-17.4898-10.4415-19.4061-21.825-1.1808-7.0144-.2615-13.9223.5583-20.8565.5541-2.1552 1.1082-4.3103 1.6623-6.4654 1.3175-2.2528 2.6394-4.5031 3.9517-6.7589 6.441-11.0713 13.6412-16.3068 27.9323-11.8414 4.3447 1.3576 8.7915 2.4446 13.2527 3.3567 3.8534.7878 7.7932 1.1317 11.9528.0009-7.0567-28.9296-19.7838-55.5297-30.7824-82.9455-1.3603.5644-2.4329 1.0094-3.5056 1.4544-.3764.1396-.7527.2793-1.129.419zm-186.0486 46.828c.3649-1.4504-.2825-2.0467-1.6889-1.9955-1.2546.0457-2.5089.0972-3.7634.1462-.6739-.0278-1.3516-.1169-2.021-.0741-10.7875.6901-21.5747 1.3848-32.36 2.1065-3.877.2594-7.751.5686-11.6228.8974-9.4337.801-14.3606 9.2751-10.1908 17.7326 1.3745 2.7878 3.0416 5.4756 4.8873 7.9787 6.3262 8.5794 10.1177 17.7489 7.3755 28.6354-.3342.8574-.672 1.7135-1.0022 2.5724-2.3571 6.132-6.4725 11.0052-11.1005 15.5118-7.6754 4.7005-15.7746 7.4963-25.0024 6.4332-12.8299-1.4782-22.0932-8.0516-27.1059-19.7282-4.3772-10.1961-4.5169-21.2153-3.8964-32.1816.2359-4.1693.4233-8.3413.6521-12.8956-3.6341 1.3678-6.8638 2.5833-10.0935 3.7989-5.9339 2.2845-11.8678 4.569-17.8017 6.8535-9.3231 4.1909-18.6429 8.3894-27.9729 12.5651-1.4999.6713-1.6556 1.6333-1.0644 3.0729.898 2.1867 1.6134 4.4478 2.4302 6.6685 6.9406 18.8697 14.1647 37.642 20.6896 56.6543 2.4995 7.2831 3.7453 15.0607 4.9236 22.7113.8455 5.4898-2.1779 9.3973-7.4309 11.2656-4.2927 1.5268-8.6593 1.4929-12.9778.2471-6.4957-1.8739-12.937-3.9351-19.4196-5.8554-9.0694-2.6865-14.4681-.2384-18.6462 8.2579-4.2859 8.7156-5.4789 17.8495-3.9254 27.3894 1.7831 4.6049 3.5663 9.2099 5.3494 13.8148 2.3876 5.6357 7.0995 8.5147 12.6366 9.9999 7.7513 2.079 14.8706-.5383 21.6746-3.9336 6.4404-3.2138 11.4271-8.3322 16.5132-13.2999 3.4007-3.3215 7.2685-5.5503 12.3048-3.9533.433.2444.8659.4887 1.2989.7331.2195.2536.398.5659.6645.7523 7.3648 5.1468 11.082 12.5349 13.0486 21.0409 3.3595 14.5305 4.0303 29.291 3.7261 44.1187-.2168 10.563-.6754 21.1211-1.0261 31.6814-.2885 2.1685-.5771 4.337-.8989 6.7561 2.6598-.3992 4.8665-.7305 7.0732-1.0617 4.7315-.1201 9.494.061 14.1884-.4211 10.7383-1.1028 21.4689-2.3536 32.1494-3.9099 4.3922-.64 8.7062-2.0412 12.9453-3.433 3.1968-1.0496 3.8466-3.3907 2.0277-6.1885-.8693-1.3371-1.9429-2.5584-3.0301-3.734-7.2107-7.7976-11.3509-16.9696-12.0405-27.5634-.2947-4.5277-.0413-9.091-.0369-13.6382.4267-1.3711.8941-2.7311 1.273-4.1152 1.8511-6.7625 5.6268-12.0904 11.7754-15.5638 11.8839-6.7131 24.2667-6.6701 36.7418-2.1203 8.5412 3.1151 14.0272 9.4595 17.1164 17.9526 2.2694 6.2392 2.7796 12.6907 2.3196 19.2379-.4261 6.0646-1.0144 12.1178-1.5313 18.176-.3253 1.0427-.768 2.0655-.9485 3.1327-.2724 1.6104.5967 2.4839 2.1721 2.314 3.1019-.3347 6.2774-.4905 9.2617-1.3075 6.109-1.6725 12.1632-3.5854 18.1466-5.6674 9.42-3.2776 18.7619-6.7793 28.1399-10.1778 1.1127-.4032 2.0607-.7985 1.4634-2.3321-1.8115-4.651-3.5034-9.3499-5.3989-13.9657-.3223-.7849-1.3369-1.6054-2.1742-1.8021-3.1214-.7331-6.3023-1.2131-9.4608-1.7881-1.5552-.6467-3.1141-1.2846-4.6649-1.9415-10.5108-4.4521-21.2266-8.4824-31.4817-13.4614-15.8914-7.7157-30.5601-17.4567-43.7562-29.2616-11.9207-10.6638-21.883-22.8529-27.9888-37.8302-6.9396-17.0228-7.3617-33.708 1.8707-50.2908 10.845-19.4792 34.9973-34.647 59.4067-30.8905 2.5512.3926 5.1568.4316 7.892.6468-.1784-1.7484-.3234-3.1692-.4683-4.5903.1407-.65.412-1.302.4024-1.9498-.1238-8.3647-.3307-16.7282-.4289-25.0931-.0932-7.9459-.0835-15.8931-.119-23.8397zm-26.7508 174.355c.1385.1089.2769.2179.4154.3268 1.2987 1.0628 2.5167 2.2485 3.9114 3.1651 4.0224 2.6433 8.1655 5.1039 12.1726 7.7693 13.2289 8.7992 27.5743 15.3064 42.4077 20.8289 4.7628 1.8025 9.5255 3.6049 14.2883 5.4074.1647-.2538.3293-.5076.494-.7614-1.7491-4.2624-3.5225-8.515-5.243-12.7889-6.2828-15.6077-12.6154-31.1936-15.8763-47.813-1.8537-9.4474.7255-12.6955 10.4194-12.73 6.5183-.0232 13.0591.2903 19.5472-.1605 4.3102-.2995 8.8616-.9741 12.7542-2.7135 11.5235-5.1495 18.2442-19.1352 16.6986-32.6076-1.2087-10.536-5.7889-18.3019-16.3499-21.5629-5.4247-1.675-10.9601-1.8166-16.556-.6815-7.3538 1.4917-13.6974 5.2668-20.2033 8.6896-3.5909 1.8892-7.1285 3.8819-10.7447 5.7208-7.2015 3.6623-11.9764 1.6267-14.4616-6.0839-.0777-.2411-.1446-.4865-.2022-.7332-1.6727-7.1571-3.3931-14.3036-4.9855-21.4785-.4978-2.243-1.7335-3.3807-3.9489-3.5888-1.0883-.1022-2.1763-.2072-3.2644-.3109-21.6756-2.2623-38.7294 5.6225-51.2939 23.3635-7.7616 9.8715-10.5118 21.1843-8.3231 33.3485 4.3495 24.1737 19.1754 41.336 38.3327 55.3864zm47.3687-88.3114c4.7623-2.5599 9.484-5.1992 14.2957-7.6628 9.3976-4.8117 19.1547-8.134 29.9615-6.6611 12.7905 1.7432 22.0851 8.084 26.5643 20.5184 2.6476 7.3501 2.6977 14.9089 1.1811 22.5166-2.7786 13.9389-10.3502 24.1451-24.0494 28.561-5.4982 1.7723-11.6392 1.7712-17.5142 2.093-6.055.3316-12.1422.0737-18.2132.0737.0084 8.6732 15.3729 53.1071 21.836 63.2227.5507-.7054 1.045-1.3386 1.5392-1.9717 1.6964-2.0886 3.4083-4.1649 5.0867-6.2679 13.1409-16.4648 24.6723-33.9078 32.0495-53.7882 7.788-20.9872 10.6998-42.4105 4.895-64.4338-3.2838-12.4584-8.5136-23.8621-18.3816-32.6605-15.0708-13.4371-34.7198-15.0824-50.2316-3.5499-5.5834 4.1511-10.2529 9.5315-15.3395 14.3509-1.3627 1.379-2.8355 2.67-4.0392 4.1761-.5586.699-.9769 1.8957-.8036 2.7308 1.0472 5.0473 2.284 10.0553 3.4574 15.0764.0114.2503-.0147.509.0396.7495 1.4017 6.2082 2.5349 6.6394 7.6663 2.9268z" fill="#12312f"/><path d="m319.1012 136.0384c.286-6.4355-2.8675-11.2119-7.4108-15.3029-1.4933-1.3446-3.0399-2.6299-4.5622-3.9423-.6787-1.6113-1.1451-3.3593-2.0771-4.8075-2.4698-3.8376-3.3768-8.1714-3.352-12.5047.0203-3.5446.9569-7.1721 2.0068-10.604 2.1115-6.9023 4.6378-13.704 11.5237-17.4487 3.0969-1.6842 6.4081-2.9703 9.5929-4.4978 2.5967-1.2454 5.1501-2.5813 7.7227-3.877.5171.0037 1.0342.0073 1.5511.011.7907.8614 1.45 2.2696 2.3937 2.4969 6.9197 1.6668 12.4659 5.2947 16.9216 10.8136 2.8064 3.4761 5.0327 6.9559 3.5885 11.7303-1.5556 5.1425-3.1281 10.2933-4.3364 15.5229-.9022 3.9046-1.6123 7.9294-1.7263 11.9202-.1314 4.601 3.2039 10.3696 9.1338 9.3338 3.8459 1.9368 7.8241 1.7234 11.883.8276 4.695-1.0362 9.4128-1.9692 14.1216-2.9464 8.8531-.6656 17.326-3.0523 25.728-5.7271 3.7582-1.1965 7.4712-2.535 11.2047-3.809 8.0656 22.2011 16.1312 44.4023 24.4189 67.215-4.0727-.3057-7.2357-.6387-10.4068-.7589-4.8051-.1821-9.6289-.4594-14.4183-.203-2.1625.1158-4.5049 1.0459-6.3478 2.2474-8.8667 5.7806-12.4763 14.2523-11.9893 24.6514-.5541 2.1552-1.1082 4.3103-1.6622 6.4655-.4799.8056-1.2528 1.5652-1.3878 2.425-.5195 3.3087-.8423 6.6486-1.2249 9.9784-1.2177 10.6007-.3136 20.4691 8.4074 28.2235 5.9462 5.2871 12.7577 6.835 20.3604 5.9443.8381-.0982 1.5952-.8883 2.3898-1.3575.3319-.0011.6639-.0022.9959-.0033.5078.0373 1.0154.0745 1.5232.1118 13.0445.9711 24.5449-3.5849 35.5558-9.9142 1.1649-.6696 2.3938-1.2282 3.593-1.8384-1.3214 4.631-2.3064 9.2815-2.0681 14.172.317 6.5079.3732 13.0286.5385 19.5439.1735 6.838.3102 13.677.5296 20.5135.1026 3.1983.3237 6.3943.5578 9.5865.4614 6.2901.9139 12.5819 1.4848 18.8625.2321 2.5533-.9226 3.1991-3.2369 3.2234-6.5002.0682-13.0159.0631-19.4935.5296-8.4614.6093-16.9054 1.5326-25.3305 2.5416-4.2712.5115-8.5199 1.4112-11.7946 4.6286-5.4651 5.3694-5.8838 12.1301-4.9668 19.0841 1.1151 8.4561 6.1162 14.3896 12.6102 19.658 7.5268 6.1063 9.5777 9.2093 7.2025 20.0399-1.3792 6.2887-5.0069 11.3712-9.3241 15.9816-3.9555 4.2242-8.1364 8.2295-14.0131 9.579-2.9187.6703-5.9427.8824-8.919 1.3018-2.3762-.9941-4.7523-1.9883-7.1285-2.9825-.8222-2.2908-1.4511-4.6749-2.5041-6.8542-2.7284-5.6465-4.2118-11.5737-4.0688-17.8137.1952-8.5126.6838-17.0181.9627-25.5294.1375-4.1965-1.287-8.0461-3.7211-11.331-1.1119-1.5005-3.0863-2.6668-4.9053-3.2524-1.8178-.5853-4.0564-.5911-5.1009 1.8253-3.5421.0864-7.1768-.3108-10.6097.3463-12.1679 2.3288-23.1583 7.6194-33.5772 14.1873-5.2595 3.3155-10.5399 6.5977-16.3257 10.2169-2.0874-5.5584-4.0562-10.8007-6.0249-16.043 6.378-8.7398 12.8333-17.4244 19.118-26.2308 13.352-18.7095 22.6758-39.1713 26.3087-61.998 3.7782-23.7402.7999-46.3479-11.8887-67.1798-6.9843-11.4668-16.7607-19.6038-29.5385-23.9283-16.1497-5.4656-31.0294-2.7635-44.5531 7.4174-3.769 2.8374-7.1744 6.1576-10.7466 9.2563-.5268-1.3434-1.3229-2.6456-1.5354-4.037-1.1244-7.3619-2.0937-14.7474-3.1594-22.1186-.0452-.3128-.5134-.5645-.7845-.8447-.0069-.3322-.0138-.6644-.0207-.9967-.0226-1.1827-.0452-2.3653-.0677-3.5479-.0868-5.2351-.1735-10.4702-.2601-15.7053 10.1396.2568 20.1417-.7674 30.1465-2.4949 14.9208-2.5764 29.8489-5.0419 44.2334-9.9132 1.5598-.5282 3.3578-1.9618 3.9503-3.4203 1.4802-3.6442-.9458-6.2512-5.6901-6.6497z" fill="#fcd600"/><path d="m101.5384 329.0215c-.433-.2444-.8659-.4887-1.2988-.7333-.2903-.5795-.4382-1.328-.8935-1.7112-3.7277-3.1375-7.8976-4.5094-12.8776-3.7138-5.2847.8442-8.8435 4.2243-12.5413 7.5536-5.4008 4.8625-10.9787 9.4553-17.9131 12.0783-5.2614 1.9901-10.3168 2.1853-15.2085-1.0298-1.1646-.7655-2.4601-1.332-3.6953-1.99-1.7831-4.6049-3.5663-9.2099-5.3494-13.815.2985-.3444.8164-.6625.8613-1.0372.4007-3.3387.9815-6.6856 1.0036-10.0335.0431-6.5394 2.6431-11.9367 6.8232-16.7023 1.8319-2.0886 4.0306-3.2964 7.0645-3.2902 6.7968.0141 13.1188 1.9771 19.4814 3.9747 9.032 2.8356 17.6855 2.5608 26.01-2.6912 3.8643-2.438 5.5744-5.587 5.1789-9.8801-.3771-4.0938-.836-8.2286-1.8166-12.208-1.8521-7.5157-3.8441-15.0177-6.2428-22.3737-5.5228-16.9367-11.2478-33.8091-17.0973-50.6358-.8511-2.4482-.4018-3.3296 1.7306-4.4821 6.0872-3.2899 12.0704-6.7807 17.9864-10.3708 1.0672-.6476 1.6202-2.1426 2.4106-3.2464 5.9339-2.2845 11.8678-4.569 17.8018-6.8536-.3248 3.593-.7839 7.18-.951 10.7805-.6553 14.1216.941 27.7848 8.8867 39.9847 4.1573 6.3833 9.8757 10.9789 16.905 13.9016 5.1657 2.1478 10.5932 2.5831 16.127 2.3458 7.5077-.322 14.5007-2.2721 20.441-6.961 1.7172-1.3555 2.7116-3.6266 4.0374-5.478 4.628-4.5066 8.7434-9.3798 11.1005-15.5118.3302-.859.6679-1.715 1.0027-2.5726.6828-.696 1.578-1.2795 2.0135-2.1054 3.4013-6.4504 3.6359-13.3371 1.7503-20.1408-1.1542-4.1647-3.2052-8.1291-5.206-12.0014-4.6828-9.0631-4.343-8.1365 1.0704-15.9709 1.334-1.9306 2.8243-2.2666 4.959-1.9762 4.2417.5772 8.5135 1.2891 12.7733 1.2918 5.797.0037 11.6036-.4976 17.388-.9933 3.0746-.2635 6.111-.972 9.1646-1.4796.1762 2.4246.3805 4.8475.5236 7.274.5283 8.9603.9951 17.9245 1.5739 26.8815.2104 3.2554.454 6.5387 1.1013 9.7241.3541 1.7424 1.5828 3.307 2.4171 4.9517.145 1.4209.2899 2.8418.4684 4.5901-2.7352-.2152-5.3408-.2542-7.892-.6468-24.4094-3.7565-48.5617 11.4113-59.4067 30.8905-9.2325 16.5828-8.8103 33.2679-1.8707 50.2908 6.1057 14.9773 16.068 27.1664 27.9888 37.8302 13.1961 11.8049 27.8648 21.5459 43.7562 29.2616 10.2551 4.979 20.9709 9.0093 31.4817 13.4614 1.5509.6569 3.1098 1.2948 4.6648 1.9417.1524 3.1037.1671 6.222.5022 9.3056.2567 2.3618-.7693 3.9655-2.5265 5.1156-4.7125 3.0849-9.2135 6.7564-14.3427 8.8808-8.0431 3.3312-16.5332 5.5829-24.834 8.2918.5169-6.0582 1.1053-12.1114 1.5313-18.176.46-6.5472-.0502-12.9987-2.3196-19.2379-3.0893-8.4932-8.5752-14.8375-17.1164-17.9526-12.4752-4.5498-24.8579-4.5927-36.7418 2.1203-6.1487 3.4733-9.9243 8.8013-11.7754 15.5638-.3789 1.3842-.8464 2.7441-1.2728 4.1154-.8158.6785-1.8221 1.2211-2.4187 2.0562-6.0476 8.4654-9.1803 17.8796-8.0897 28.3028.7237 6.9169 3.0356 13.3048 8.9792 17.7259.6228.4633 1.0784 1.1511 1.7351 1.8699-.7835.3911-1.2067.7023-1.6786.823-8.5877 2.1958-17.3423 3.2914-26.1778 3.5883-6.1695.2072-12.3518.0354-18.5283.0331.1679-4.2109.4943-8.4228.4706-12.6328-.0494-8.7801-.2072-17.5613-.4653-26.3378-.2303-7.831-.668-15.6557-.991-23.4841-.2734-6.6255-1.6498-13.045-4.1481-19.1471-2.9131-7.1151-6.7052-13.6705-13.8817-17.4537-1.2314-.6489-2.5363-1.7432-3.5969.2567z" fill="#3bb8b8"/><path d="m272.0455 363.3372c-14.8334-5.5225-29.1789-12.0297-42.4077-20.8289-4.0072-2.6654-8.1503-5.1259-12.1726-7.7693-1.3948-.9166-2.6127-2.1023-3.9114-3.1649-.1385-.1089-.2769-.2179-.4154-.3269 0 0-.0113-.0083-.0114-.0084-1.9752-2.374-3.929-4.7659-5.9297-7.1181-4.6367-5.4512-9.6611-10.6171-13.863-16.3835-6.7554-9.2704-10.6261-19.847-12.4667-31.1841-1.1752-7.2385-1.6462-14.4699-.333-21.7193.7482-4.1304 1.7147-8.2212 2.5829-12.3299 12.5645-17.741 29.6183-25.6258 51.2941-23.3635.0397 1.2677-.0698 2.5611.1432 3.799 1.2817 7.4493 2.5117 14.9111 4.0024 22.3198 1.5896 7.9004 7.3543 12.9018 16.1778 11.3283 4.7832-.853 9.3975-2.6444 14.178-3.5225 10.2362-1.8802 20.5177-3.5328 30.8147-5.0465 1.7572-.2583 4.0655.1002 5.4613 1.096 4.3995 3.1388 5.5848 8.0648 5.9731 13.1277.5257 6.8553-2.0133 12.9254-5.3658 18.6876-4.0063 6.8861-10.0305 10.4824-18.0363 10.6933-5.9889.1577-11.9864.1932-17.9625.5646-4.1148.2557-7.9023 1.454-10.4358 5.2162-2.3361 3.4689-2.2062 7.3205-1.3642 10.9393 3.1631 13.5941 6.6332 27.1174 10.0628 40.6484 1.219 4.8097 2.6506 9.5653 3.9852 14.3456zm-37.0684-21.9597c-.2005.2987-.401.5974-.6014.8961 4.0934 2.9648 8.1867 5.9295 12.2801 8.8943.2219-.3066.4438-.6132.6658-.9198-3.4793-3.8226-7.8816-6.3879-12.3445-8.8706z" fill="#fca89c"/><path d="m254.1866 217.2762c5.0866-4.8194 9.756-10.1998 15.3395-14.3509 15.5117-11.5325 35.1607-9.8872 50.2316 3.5499 9.868 8.7983 15.0979 20.2021 18.3816 32.6605 5.8048 22.0233 2.8929 43.4466-4.895 64.4338-7.3772 19.8804-18.9086 37.3234-32.0495 53.7882-1.6784 2.103-3.3903 4.1792-5.0869 6.2678-1.4461-4.2242-3.0715-8.3967-4.3007-12.6829-2.5785-8.9914-4.9842-18.0331-7.389-27.0733-1.157-4.3496-2.1509-8.7426-3.2898-13.4069 1.9186 0 3.343.0306 4.7658-.0058 4.0954-.1048 8.3141.3485 12.2577-.4872 6.9044-1.4632 13.789-3.327 20.3882-5.8051 3.7502-1.4082 7.4121-3.8774 10.2449-6.7313 5.9194-5.9637 7.8205-13.8096 8.3036-21.9738.603-10.1893-1.3367-19.9683-5.077-29.4354-3.1096-7.8708-7.4961-14.7073-15.7577-17.8649-7.1578-2.7357-14.6125-3.4873-22.3425-2.791-8.2498.7431-16.092 2.7362-23.7085 5.8167-3.208 1.2975-6.3531 2.7516-9.5156 4.1595-1.1233.5-2.0089.462-2.3442-.9096-1.3975-5.7165-2.7729-11.4384-4.1565-17.1583z" fill="#f8a89c"/><path d="m396.5925 425.6597c2.9763-.4194 6.0003-.6316 8.919-1.3018 5.8767-1.3496 10.0575-5.3549 14.0131-9.579 4.3172-4.6104 7.9449-9.6928 9.3241-15.9816 2.3752-10.8306.3243-13.9336-7.2025-20.0399-6.494-5.2684-11.4952-11.202-12.6102-19.658-.917-6.954-.4982-13.7147 4.9668-19.0841 3.2747-3.2174 7.5234-4.1171 11.7946-4.6286 8.425-1.009 16.8691-1.9323 25.3305-2.5416 6.4777-.4665 12.9933-.4614 19.4935-.5296 2.3143-.0243 3.469-.6701 3.2369-3.2234-.5709-6.2806-1.0235-12.5724-1.4848-18.8625-.2341-3.1922-.4553-6.3882-.5578-9.5865-.2193-6.8365-.3561-13.6755-.5296-20.5135-.1653-6.5153-.2215-13.036-.5385-19.5439-.2383-4.8905.7467-9.541 2.0681-14.172.9376-.6599 1.8752-1.3199 3.3032-2.325.5974 4.1002 1.3466 7.7331 1.6237 11.4016 1.3112 17.3649 2.4495 34.7427 3.7386 52.1093.7631 10.2806 1.6997 20.5483 2.5346 30.8237.0864 1.0637.0116 2.1404.0116 3.4653-5.783-.3165-11.3368-.5639-16.8824-.9352-13.2401-.8863-26.3405.3002-39.3628 2.598-9.0999 1.6058-12.8082 9.5935-7.6165 17.2516 2.7121 4.0005 6.0872 7.8242 9.9128 10.7458 11.3788 8.6897 13.4073 19.9631 9.8888 32.8553-3.9773 14.5733-16.7142 23.6878-31.9062 22.9754-3.8413-.18-7.6467-1.1259-11.4686-1.7198z" fill="#f7ba01"/><path d="m272.0455 363.3372c-1.3346-4.7802-2.7663-9.5359-3.9853-14.3454-3.4296-13.531-6.8996-27.0544-10.0628-40.6484-.842-3.6189-.9719-7.4704 1.3642-10.9393 2.5336-3.7622 6.321-4.9605 10.4358-5.2162 5.9761-.3713 11.9736-.4068 17.9625-.5646 8.0058-.2109 14.0299-3.8072 18.0363-10.6933 3.3524-5.7622 5.8915-11.8323 5.3658-18.6876-.3883-5.0629-1.5736-9.989-5.9731-13.1277-1.3958-.9958-3.7041-1.3543-5.4613-1.096-10.297 1.5138-20.5784 3.1664-30.8147 5.0465-4.7805.8781-9.3949 2.6695-14.178 3.5225-8.8235 1.5735-14.5883-3.4279-16.1778-11.3283-1.4906-7.4087-2.7207-14.8705-4.0024-22.3198-.213-1.2379-.1035-2.5313-.1432-3.799 1.088.1037 2.176.2087 3.2642.3109 2.2155.2081 3.4511 1.3458 3.9489 3.5888 1.5924 7.1749 3.3128 14.3214 4.9855 21.4785.0577.2467.1245.4921.2022.7332 2.4852 7.7106 7.2601 9.7462 14.4616 6.0839 3.6161-1.839 7.1537-3.8316 10.7447-5.7208 6.506-3.4228 12.8495-7.198 20.2033-8.6896 5.5959-1.1351 11.1313-.9935 16.556.6815 10.561 3.261 15.1412 11.0268 16.3499 21.5629 1.5457 13.4724-5.175 27.4581-16.6986 32.6076-3.8926 1.7395-8.444 2.4141-12.7542 2.7135-6.4881.4508-13.0289.1373-19.5472.1605-9.6939.0345-12.2731 3.2825-10.4194 12.73 3.2609 16.6194 9.5936 32.2054 15.8763 47.813 1.7205 4.2739 3.4938 8.5266 5.243 12.7889-.1647.2538-.3293.5076-.494.7614-4.7627-1.8027-9.5254-3.6052-14.2882-5.4076z" fill="#f58d7b"/><path d="m254.1866 217.2762c1.3836 5.7199 2.759 11.4418 4.1565 17.1583.3353 1.3715 1.2209 1.4096 2.3442.9096 3.1626-1.4079 6.3076-2.8621 9.5156-4.1595 7.6165-3.0805 15.4587-5.0736 23.7085-5.8167 7.73-.6963 15.1847.0553 22.3425 2.791 8.2616 3.1576 12.648 9.9941 15.7577 17.8649 3.7403 9.4671 5.6799 19.2461 5.077 29.4354-.4832 8.1642-2.3842 16.0101-8.3036 21.9738-2.8327 2.8539-6.4947 5.3232-10.2449 6.7313-6.5992 2.478-13.4838 4.3419-20.3882 5.8051-3.9436.8358-8.1623.3824-12.2577.4872-1.4228.0364-2.8472.0058-4.7658.0058 1.1388 4.6643 2.1328 9.0573 3.2898 13.4069 2.4048 9.0402 4.8105 18.0818 7.389 27.0733 1.2292 4.2862 2.8545 8.4587 4.3007 12.6829-.494.6333-.9883 1.2664-1.539 1.9718-6.4631-10.1156-21.8276-54.5495-21.836-63.2227 6.0709 0 12.1582.2579 18.2132-.0737 5.8749-.3217 12.016-.3206 17.5142-2.093 13.6992-4.416 21.2708-14.6221 24.0494-28.561 1.5166-7.6078 1.4666-15.1665-1.1811-22.5166-4.4792-12.4345-13.7738-18.7752-26.5643-20.5184-10.8068-1.4729-20.5638 1.8495-29.9615 6.6611-4.8116 2.4636-9.5333 5.1029-14.2957 7.6626-.4834-2.1524-.9669-4.3046-1.5182-6.7589-2.1466 1.0695-4.1672 2.0761-6.1878 3.0828-1.1734-5.0211-2.4101-10.0291-3.4574-15.0764-.1733-.8351.245-2.0318.8036-2.7308 1.2038-1.5061 2.6766-2.7971 4.0393-4.1761z" fill="#f28c7b"/><path d="m404.2651 206.3788c-.487-10.3991 3.1227-18.8708 11.9893-24.6514 1.843-1.2015 4.1853-2.1317 6.3478-2.2474 4.7894-.2564 9.6132.0209 14.4183.203 3.1711.1201 6.3341.4532 10.4068.7589-8.2878-22.8127-16.3533-45.0139-24.4189-67.2149.9861-1.0722 1.9723-2.1445 2.9584-3.2168 0 0-.0292.054-.0285.0546.3765-.1395.7523-.2796 1.1282-.4196 1.0727-.445 2.1453-.8901 3.5056-1.4544 10.9985 27.4158 23.7257 54.0159 30.7824 82.9455-4.1597 1.1308-8.0995.7869-11.9528-.0009-4.4612-.9121-8.9079-1.9991-13.2527-3.3567-14.291-4.4655-21.4912.7701-27.9323 11.8414-1.3122 2.2556-2.6341 4.5059-3.9516 6.7587z" fill="#f7b901"/><path d="m178.4024 230.4037c-1.3258 1.8514-2.3202 4.1226-4.0374 5.478-5.9403 4.6889-12.9333 6.639-20.441 6.961-5.5338.2374-10.9613-.198-16.127-2.3458-7.0293-2.9227-12.7476-7.5183-16.905-13.9016-7.9456-12.1999-9.542-25.8631-8.8867-39.9847.1671-3.6005.6261-7.1875.951-10.7805 3.2296-1.2154 6.4593-2.431 10.0935-3.7987-.2288 4.5542-.4162 8.7263-.6521 12.8956-.6206 10.9664-.4808 21.9855 3.8964 32.1816 5.0127 11.6766 14.276 18.25 27.1059 19.7282 9.2277 1.0632 17.3269-1.7326 25.0024-6.4331z" fill="#239d9e"/><path d="m95.1546 182.6838c-.7904 1.1038-1.3434 2.5987-2.4106 3.2464-5.9159 3.5901-11.8992 7.0809-17.9864 10.3708-2.1324 1.1525-2.5817 2.0338-1.7306 4.4821 5.8495 16.8267 11.5745 33.6991 17.0973 50.6358 2.3987 7.3561 4.3907 14.8581 6.2428 22.3737.9806 3.9794 1.4395 8.1141 1.8166 12.208.3955 4.2931-1.3146 7.4421-5.1789 9.8801-8.3245 5.252-16.9781 5.5267-26.01 2.6912-6.3627-1.9976-12.6847-3.9606-19.4814-3.9747-3.034-.0063-5.2326 1.2016-7.0645 3.2902-4.1801 4.7656-6.7801 10.1629-6.8232 16.7023-.0221 3.3478-.6029 6.6948-1.0036 10.0335-.045.3748-.5628.6928-.8613 1.0372-1.5535-9.5398-.3604-18.6737 3.9255-27.3893 4.1781-8.4963 9.5768-10.9444 18.6462-8.2579 6.4826 1.9203 12.924 3.9815 19.4196 5.8554 4.3185 1.2458 8.6851 1.2798 12.9778-.2471 5.253-1.8683 8.2764-5.7758 7.4309-11.2656-1.1783-7.6506-2.4241-15.4283-4.9236-22.7113-6.525-19.0123-13.7491-37.7845-20.6896-56.6543-.8168-2.2207-1.5322-4.4818-2.4302-6.6685-.5912-1.4396-.4355-2.4016 1.0644-3.0729 9.3299-4.1757 18.6496-8.3742 27.9728-12.5651z" fill="#5ed1d2"/><path d="m124.1504 427.8203c6.1766.0025 12.3589.1743 18.5284-.0329 8.8355-.2968 17.5902-1.3925 26.1778-3.5883.4719-.1207.8951-.4319 1.6786-.823-.6566-.7188-1.1123-1.4066-1.7351-1.8699-5.9436-4.4211-8.2555-10.8091-8.9792-17.7259-1.0906-10.4232 2.0421-19.8374 8.0897-28.3028.5966-.8351 1.6029-1.3777 2.4187-2.0562-.0046 4.547-.2581 9.1104.0366 13.6381.6896 10.5938 4.8299 19.7657 12.0405 27.5634 1.0872 1.1756 2.1608 2.3969 3.0301 3.734 1.8189 2.7979 1.1691 5.1389-2.0277 6.1885-4.239 1.3917-8.5531 2.793-12.9453 3.433-10.6805 1.5562-21.4111 2.8071-32.1494 3.9099-4.6944.4821-9.4568.301-14.1883.4212.0031-1.4991.0061-2.9983.0091-4.4975z" fill="#239d9e"/><path d="m238.024 406.9882c8.3008-2.7089 16.791-4.9606 24.8341-8.2918 5.1292-2.1244 9.6302-5.7959 14.3427-8.8808 1.7571-1.1502 2.7832-2.7538 2.5265-5.1156-.3351-3.0836-.3498-6.2019-.5022-9.3056 3.1587.5748 6.3395 1.0548 9.461 1.7879.8374.1966 1.8519 1.0172 2.1742 1.8021 1.8955 4.6158 3.5873 9.3147 5.3989 13.9657.5973 1.5337-.3506 1.929-1.4634 2.3321-9.378 3.3985-18.7199 6.9002-28.1399 10.1778-5.9835 2.0819-12.0376 3.9949-18.1466 5.6674-2.9843.817-6.1598.9729-9.2617 1.3075-1.5753.17-2.4445-.7036-2.1721-2.314.1806-1.0672.6232-2.09.9485-3.1327z" fill="#239d9e"/><path d="m234.4187 158.9436c-3.0536.5076-6.0901 1.2161-9.1646 1.4796-5.7844.4957-11.591.997-17.388.9933-4.2598-.0027-8.5315-.7146-12.7733-1.2918-2.1346-.2905-3.625.0455-4.959 1.9762-5.4133 7.8344-5.7532 6.9078-1.0704 15.9709 2.0008 3.8723 4.0518 7.8366 5.206 12.0014 1.8856 6.8037 1.651 13.6904-1.7503 20.1408-.4355.8259-1.3307 1.4094-2.0135 2.1054 2.7416-10.8864-1.0499-20.0558-7.3761-28.6353-1.8457-2.5032-3.5129-5.1909-4.8873-7.9787-4.1698-8.4575.7572-16.9316 10.1908-17.7326 3.8718-.3288 7.7459-.638 11.6228-.8974 10.7854-.7217 21.5726-1.4164 32.36-2.1065.6694-.0428 1.3471.0463 2.0209.0741.0227 1.1626.0456 2.3251.0684 3.4877-.018.1398-.0468.2775-.0864.4129z" fill="#5fd3d4"/><path d="m101.5384 329.0215c1.0606-1.9999 2.3655-.9056 3.5966-.2566 7.1764 3.7832 10.9686 10.3386 13.8817 17.4537 2.4984 6.1021 3.8748 12.5215 4.1481 19.1471.323 7.8284.7607 15.6531.991 23.4841.2581 8.7765.4158 17.5577.4653 26.3378.0237 4.2099-.3027 8.4218-.4706 12.6328-.0001-.0001-.0155-.0086-.0153-.0084-1.3891.0075-2.7964.1489-4.1606-.0328-.7134-.0951-1.3512-.758-2.0231-1.1644.3507-10.5603.8093-21.1184 1.0261-31.6814.3042-14.8277-.3666-29.5882-3.7261-44.1187-1.9666-8.506-5.6838-15.8941-13.0486-21.0409-.2665-.1863-.445-.4987-.6645-.7523z" fill="#5fd3d4"/><path d="m37.1102 339.4754c1.2353.658 2.5307 1.2245 3.6953 1.99 4.8916 3.2151 9.9471 3.0198 15.2085 1.0298 6.9344-2.623 12.5123-7.2158 17.9131-12.0783 3.6979-3.3293 7.2566-6.7094 12.5413-7.5536 4.9799-.7956 9.1499.5763 12.8776 3.7138.4553.3832.6032 1.1317.8935 1.7112-5.0364-1.5967-8.9042.632-12.3049 3.9536-5.0862 4.9677-10.0728 10.0861-16.5132 13.2999-6.804 3.3953-13.9233 6.0127-21.6746 3.9336-5.537-1.4853-10.2489-4.3643-12.6366-10z" fill="#239d9e"/><path d="m319.1012 136.0384c4.7444.3985 7.1703 3.0055 5.6898 6.6494-.5926 1.4585-2.3906 2.8921-3.9503 3.4203-14.3845 4.8713-29.3126 7.3369-44.2334 9.9132-10.0048 1.7275-20.0069 2.7518-30.1465 2.4949-.0919-.3181-.2371-.6316-.2657-.9553-.0965-1.0918-.1517-2.1872-.2455-3.6332 4.2064-.5235 8.3724-.9692 12.5159-1.5704 16.0406-2.3275 32.0854-4.6307 48.0999-7.1281 3.0499-.4756 5.9917-1.7245 8.9417-2.738 3.0657-1.0534 2.8522-4.044 3.5941-6.4528z" fill="#f4e202"/><path d="m360.0711 124.8819c-5.9299 1.0358-9.2652-4.7328-9.1338-9.3338.114-3.9908.8241-8.0156 1.7263-11.9202 1.2083-5.2296 2.7808-10.3804 4.3364-15.5229 1.4443-4.7743-.782-8.2541-3.5885-11.7303-4.4557-5.5189-10.0019-9.1468-16.9216-10.8136-.9437-.2273-1.603-1.6355-2.3937-2.4969 12.5789-.6973 26.5765 5.6677 29.7096 20.2514 1.3426 6.2499.2172 12.2499-2.2235 18.0585-1.3402 3.1894-2.6491 6.3935-4.068 9.5479-2.3687 5.2663-2.0486 9.9936 2.5568 13.9599z" fill="#f3b903"/><path d="m303.5889 368.4294c1.9688 5.2423 3.9375 10.4846 6.0249 16.043 5.7857-3.6193 11.0662-6.9015 16.3257-10.2169 10.4189-6.5679 21.4093-11.8585 33.5772-14.1873 3.4329-.657 7.0676-.2599 10.61-.3461.0199.1274.0226.2551.0081.3831-9.1247 3.8015-18.4138 7.2564-27.3336 11.4895-11.9131 5.6536-23.5379 11.9144-35.2901 17.9076-3.4183 1.7431-3.6033 1.6815-4.9195-1.7954-1.4053-3.7123-2.8958-7.4012-4.0663-11.1877-.3224-1.043.012-2.6556.6663-3.555 1.2264-1.6859 2.9061-3.0418 4.3973-4.5348z" fill="#f2b803"/><path d="m183.1174 242.5039c-.8682 4.1086-1.8347 8.1995-2.5829 12.3299-1.3132 7.2494-.8421 14.4808.333 21.7193 1.8406 11.3371 5.7113 21.9137 12.4667 31.1841 4.2019 5.7664 9.2263 10.9323 13.863 16.3835 2.0007 2.3521 3.9545 4.7441 5.9297 7.1181-19.1572-14.0504-33.9832-31.2126-38.3326-55.3864-2.1887-12.1642.5615-23.477 8.3231-33.3485z" fill="#efcbc6"/><path d="m332.5452 63.0533c-2.5726 1.2957-5.126 2.6316-7.7227 3.877-3.1848 1.5275-6.496 2.8137-9.5929 4.4978-6.886 3.7448-9.4122 10.5464-11.5237 17.4487-1.0499 3.4319-1.9865 7.0594-2.0068 10.604-.0248 4.3333.8821 8.6671 3.352 12.5047.9321 1.4482 1.3984 3.1962 2.0771 4.8075-11.3469-6.2334-15.8309-20.173-10.3604-32.2075 6.1641-13.5605 20.8744-22.4138 35.7774-21.5322z" fill="#f3e003"/><path d="m370.1349 360.1051c.0145-.128.0118-.2557-.0081-.3831 1.0442-2.4165 3.2828-2.4107 5.1006-1.8255 1.819.5856 3.7934 1.7519 4.9053 3.2524 2.4341 3.2849 3.8586 7.1346 3.7211 11.331-.279 8.5113-.7676 17.0168-.9627 25.5294-.143 6.24 1.3403 12.1672 4.0688 17.8137 1.053 2.1793 1.6819 4.5634 2.5041 6.8542-8.1128-4.0056-11.382-11.2381-12.6778-19.5758-1.193-7.6766.7649-15.1337 2.1841-22.6117.582-3.0669 1.1812-6.1711 1.3016-9.2766.2697-6.9575-1.8506-9.4646-8.6358-10.8609-.4964-.1021-1.0007-.1656-1.5012-.2471z" fill="#f4e103"/><path d="m234.4187 158.9436c.0396-.1354.0685-.2731.086-.4136 1.7945-.5463 3.5894-1.0921 5.3844-1.6378.0356 7.9466.0258 15.8938.1191 23.8398.0982 8.3649.3051 16.7284.4289 25.0931.0096.6478-.2617 1.2997-.4024 1.9499-.8343-1.6447-2.0631-3.2093-2.4171-4.9516-.6473-3.1854-.891-6.4686-1.1013-9.7241-.5788-8.957-1.0456-17.9212-1.5739-26.8815-.1432-2.4267-.3475-4.8497-.5237-7.2742z" fill="#249b9c"/><path d="m431.1478 258.0578c-.7946.4692-1.5517 1.2593-2.3898 1.3575-7.6028.8908-14.4142-.6572-20.3604-5.9443-8.721-7.7543-9.6251-17.6228-8.4074-28.2235.3825-3.3298.7054-6.6697 1.2249-9.9784.1349-.8597.9079-1.6193 1.3878-2.425-.8199 6.9342-1.7392 13.8421-.5584 20.8565 1.9164 11.3835 8.6917 18.3667 19.4061 21.825 3.1742 1.0247 6.4617 1.698 9.6972 2.5322z" fill="#f1de04"/><path d="m246.8093 178.766c.2711.2802.7393.5319.7845.8447 1.0658 7.3712 2.035 14.7567 3.1594 22.1186.2125 1.3914 1.0086 2.6936 1.5354 4.037-1.347 1.5643-2.6939 3.1285-4.0408 4.6928-.3327-.0721-.6653-.1443-.998-.2164-.1468-10.4922-.2936-20.9845-.4405-31.4767z" fill="#e4b307"/><path d="m425.9669 110.0101c-.9861 1.0723-1.9723 2.1446-2.9584 3.2168-3.7335 1.274-7.4465 2.6125-11.2047 3.809-8.4021 2.6748-16.8749 5.0616-25.728 5.7271 5.6819-1.8299 11.3615-3.6695 17.0484-5.4862 7.6112-2.4315 15.2282-4.8453 22.8427-7.2667z" fill="#e8d707"/><path d="m252.8011 239.2595c2.0206-1.0067 4.0412-2.0134 6.1878-3.0828.5513 2.4542 1.0347 4.6064 1.5182 6.7588-5.1314 3.7128-6.2647 3.2816-7.6664-2.9265-.0544-.2405-.0283-.4992-.0396-.7495z" fill="#ef7362"/><path d="m117.9515 426.6147c.6719.4064 1.3096 1.0693 2.0231 1.1644 1.3642.1817 2.7714.0403 4.1606.0328-.0033 1.499-.0063 2.9982-.0093 4.4973-2.2067.3311-4.4135.6624-7.0733 1.0616.3219-2.4191.6104-4.5876.8989-6.7561z" fill="#3ac4c4"/><path d="m239.8891 156.8921c-1.795.5457-3.59 1.0915-5.3844 1.6378-.0224-1.162-.0452-2.3246-.0679-3.4872 1.2546-.0489 2.5089-.1005 3.7635-.1462 1.4062-.0511 2.0536.5452 1.6888 1.9956z" fill="#3ac4c4"/><path d="m246.7208 174.2214c.0226 1.1826.0452 2.3652.0677 3.5479-.0225-1.1826-.0451-2.3652-.0677-3.5479z" fill="#e4b307"/><path d="m433.6669 258.1663c-.5077-.0373-1.0154-.0745-1.5232-.1118.5077.0373 1.0154.0746 1.5232.1118z" fill="#f1de04"/><path d="m427.0666 109.6451c-.3759.14-.7517.2801-1.1282.4196.3756-.1403.7519-.28 1.1282-.4196z" fill="#e8d707"/><path d="m213.1383 331.2471c.1385.109.277.218.4154.3269-.1384-.109-.2769-.218-.4154-.3269z" fill="#efcbc6"/><path d="m234.9771 341.3775c4.4629 2.4827 8.8652 5.0479 12.3444 8.8705-.2219.3066-.4438.6132-.6658.9198-4.0934-2.9648-8.1867-5.9295-12.2801-8.8943.2006-.2986.4011-.5973.6015-.896z" fill="#f5cbc6"/></g></svg>