<svg id="Layer_1" enable-background="new 0 0 512 512" height="512" viewBox="0 0 512 512" width="512" xmlns="http://www.w3.org/2000/svg"><g><path d="m323.5925 402.8702c10.4281 3.4681 14.2548 11.0614 14.0994 22.8761-.0556 4.2247-.1031 8.4694-.5455 12.6636-.4326 4.1018-1.3637 8.151-2.1074 12.4032 2.4917-.5818 5.0385-1.2721 7.6233-1.7618 7.37-1.3965 14.7266-1.9783 21.727 1.5428 1.8663.9387 3.665 2.1343 5.24 3.5048 3.5616 3.099 3.675 7.2847.5538 10.8289-3.1855 3.6173-7.4413 4.9197-11.9767 5.601-9.3405 1.403-18.4096.4051-27.1449-3.2444-1.1583-.4839-2.2957-1.096-3.3096-1.8321-2.6444-1.92-3.3282-4.5972-1.3711-7.1603 2.0995-2.7494 2.7591-5.7249 2.9422-9.0349.4361-7.8828 1.1635-15.752 1.4611-23.6386.1126-2.9842-.4142-6.0474-1.0402-8.9916-.9114-4.287-5.9274-8.32-10.2899-8.4848-.7992-.0302-1.8246.3567-2.4048.909-17.4526 16.6137-36.9357 30.6629-56.371 44.7776-4.5041 3.271-9.1457 3.8332-14.325 1.6722-12.2886-5.1271-23.2566-12.3082-33.2198-21.0575-7.4648-6.5554-14.7678-13.2951-22.2426-19.8388-.9371-.8203-2.5377-1.4366-3.7381-1.3045-4.7529.5229-9.4879 1.2782-14.1923 2.1486-3.5191.6512-4.5638 1.8396-4.1405 5.4032.5712 4.8076 1.4819 9.5901 2.5211 14.3232 1.719 7.8297 3.6064 15.6241 5.5652 23.3975.252 1.0001 1.1752 2.238 2.09 2.5988 6.3703 2.5121 6.4735 10.0569.9638 13.8042-5.9867 4.0717-12.617 5.7646-19.8031 5.4427-5.4942-.2461-10.759-1.2689-15.4222-4.4422-6.704-4.5621-7.019-12.0892-.6309-17.0956 4.5262-3.5472 9.8404-4.2672 15.3842-4.0841 3.7138.1227 7.4294.1929 11.0341.2838-1.2639-3.4562-2.9581-7.1913-3.9862-11.1014-1.7328-6.5901-3.298-13.2493-4.4046-19.9666-.4377-2.6568.1255-5.6802.9681-8.3002 1.3584-4.2241 5.1728-5.7316 9.1417-6.5992 3.4945-.7639 7.0405-1.2922 10.9325-1.9908-2.2936-2.831-4.3841-5.5511-6.6191-8.1468-12.7323-14.7871-23.9539-30.582-32.2318-48.3304-7.3341-15.7248-13.0046-31.984-14.1677-49.4332-.4327-6.4913.2328-13.0557.4056-19.9109-2.2406-.5774-4.5799-1.2639-6.9565-1.7782-11.1008-2.4023-16.237-9.0397-16.1804-20.3561.0412-8.2293 3.1582-15.4157 7.0548-22.3028 3.9812-7.0365 8.4183-13.8151 12.6531-20.7082.3231-.5259.6246-1.0651.8966-1.5304-5.5492-3.4849-11.0619-6.8686-16.4915-10.3808-4.6103-2.9823-9.2288-5.9735-13.6229-9.2562-1.4632-1.0931-2.918-2.9815-3.2259-4.7111-2.1695-12.1885-4.8384-24.3653-5.8397-36.6687-2.1721-26.689 5.8732-50.7263 20.9904-72.5864 17.3932-25.1513 41.4882-40.3626 70.8034-47.833 15.5479-3.9621 31.3524-5.714 47.3526-4.2891 21.724 1.9346 42.3168 7.6332 60.183 20.6944 11.5571 8.4489 19.9454 19.4424 23.4959 33.5841 2.6585 10.5888 2.5387 21.3556 1.3591 32.1332-1.1845 10.8223-3.8802 21.3353-6.5604 31.8528-.8621 3.3829-.3745 4.2355 2.8337 5.799 10.6346 5.1825 21.9781 8.2757 33.3347 11.3394 9.1736 2.4748 18.3329 5.0024 27.9002 7.6163-.3672 1.1149-.5927 2.1696-1.0454 3.1157-3.9498 8.2548-7.9386 16.4911-10.003 25.4843-.0756.3291-.0655.6779-.0992 1.0604 2.3401-.7933 4.5288-1.8207 6.828-2.2346 2.3099-.4158 4.7299-.2204 7.4936-.3048.8969-2.7682 1.8891-5.8951 2.9234-9.008 1.6101-4.8455 3.7317-9.4194 7.0901-13.3451.7562-.884 1.4019-1.1905 2.6709-.8196 17.7094 5.1758 35.3373 10.5925 52.476 17.4721 3.2597 1.3085 6.4189 2.871 9.605 4.358 1.8776.8763 1.8228 2.5304 1.4557 4.1853-1.2964 5.8433-2.661 11.6714-3.9604 17.514-3.3957 15.2675-6.7821 30.537-10.1365 45.8136-.3467 1.5791-.585 3.207-.6331 4.8194-.0455 1.5253-.8405 1.8707-2.114 1.927-14.1364.626-27.8304-1.1743-40.8312-7.1408-1.1798-.5414-2.7931-.1385-4.4907-.1813.4452 3.1499.8501 5.9823 1.2453 8.816 2.4687 17.6996-.962 34.4901-7.8721 50.7289-9.5902 22.5371-24.2337 41.6532-40.4929 59.6683-5.2859 5.8567-10.584 11.7024-15.8715 17.5576-.3676.407-.6927.8527-1.1863 1.4649zm59.9117-186.7338c-.7164-.914-1.4328-1.828-2.3424-2.9886-1.5598 3.0197-3.1787 5.5736-3.1185 8.8903.1485 8.1754.0909 16.3544.2088 24.5307.0098.6772.7192 1.3444 1.1036 2.0162 1.9372 1.3565 3.8744 2.713 5.8116 4.0696 1.5272.9436 2.9768 2.0759 4.615 2.7496.7987.3284 2.2211.1343 2.8848-.4071 1.4335-1.1695 2.5595-2.7159 3.8114-4.1081 2.6672-3.3572 2.2618-7.0969 1.2076-10.8326-2.6021-9.2203-8.3933-16.575-14.1819-23.92zm.5615-4.07c.8652.7082 1.7167 1.4338 2.5976 2.1219 11.2711 8.8033 18.6896 19.5514 17.5148 34.6454-1.0202 3.9036-3.3057 7.0464-6.2717 9.8732.5548.3129.8399.5337 1.1627.6469 8.7086 3.0551 17.6822 4.6492 26.904 4.9259 1.4765.0443 1.4646-.9527 1.6872-1.9068 2.9568-12.6756 5.7953-25.3809 8.9368-38.0107 1.7797-7.155 4.0603-14.1854 6.1763-21.4822-3.0006-1.1089-5.8883-2.1761-8.776-3.2433-6.5636-2.4319-13.1271-4.8639-19.6907-7.2959-8.8662-3.2647-17.7325-6.5294-26.7398-9.8461-3.5887 9.2435-7.5318 17.9938-7.1814 27.9422 1.2489.5529 2.4646 1.0912 3.6802 1.6295zm-128.1853-168.6686c-.3112-.1144-.6224-.2287-.9336-.3431-5.2015-1.2255-10.403-2.4511-15.6046-3.6766-.6751-.188-1.3392-.4476-2.0269-.5531-10.0697-1.5453-20.1811-1.9815-30.3528-1.2719-14.5108 1.0124-28.608 3.9305-42.0005 9.6273-28.8831 12.2859-49.6363 32.8673-61.8713 61.8193-5.3671 12.7002-7.5422 26.1051-7.449 39.8482.0887 13.0726 2.6079 25.8879 4.5594 38.755.1217.8024.7544 1.7373 1.4296 2.2105 3.5681 2.5002 7.2261 4.8721 10.853 7.2885 1.4886.9128 2.9553 1.8638 4.4697 2.7315 5.2868 3.0291 10.59 6.0295 15.7392 8.9568 1.8784-1.9079 3.488-3.7818 5.3371-5.378 6.6472-5.7377 15.1704-5.5348 20.8837.3894 4.2746 4.4324 4.646 9.5783 1.0501 14.5188-.406.5578-.8023 1.1228-1.4454 2.024 3.5212 1.2027 6.8193 2.3291 10.1173 3.4556 2.7201 1.0793 5.3284 2.9558 8.3943 2.3249 6.2426-1.2845 12.4282-2.8459 18.8349-4.3393-.4242-7.7006-.7627-15.6425-1.3206-23.5691-.9269-13.1679-1.2132-26.32.7874-39.4137 1.1761-7.6974 3.2098-15.1408 7.3153-21.893 3.1333-5.1534 7.4089-9.1594 12.2486-12.6383.62-.3045 1.241-.607 1.8598-.9139 13.6855-6.7878 27.4739-6.7668 41.3296-.5708 7.7759 3.4772 14.1031 8.4309 16.9379 16.8943 1.5773 4.7092 1.4658 9.5472 1.2461 14.4028-1.0155 3.2066-1.9122 6.4568-3.0695 9.6114-3.1248 8.5177-6.4075 16.9774-9.5355 25.4939-2.0697 5.6351-2.7778 11.5036-2.1073 17.4569 1.0234 9.0865 6.7175 14.863 14.1496 19.3125 1.3981.8089 2.7962 1.6179 4.1944 2.4268.4347.3435.8287.7637 1.3101 1.019 7.4337 3.9423 15.1533 7.276 23.4219 8.8687 13.1319 2.5294 26.3387 4.6717 39.5205 6.9383 2.1067.3622 4.2488.5187 6.6148.7987-2.8155-24.5435-.8365-48.1027 9.4195-70.5327-2.9896-.3837-5.6631-.5923-8.2815-1.0903-5.7353-1.0909-11.4427-2.3285-17.1615-3.5061-.8518-.3092-1.6892-.6681-2.5576-.92-10.5976-3.0747-21.1285-6.3127-30.6116-12.1858-3.6171-3.674-4.2992-8.0549-3.1062-12.8884.1349-.5466.2534-1.0973.3909-1.6432 3.9375-15.6249 7.2842-31.3202 6.0329-47.6078-.5279-6.8705-1.7682-13.5224-5.1196-19.6623-5.2535-9.625-12.5881-17.2507-21.8964-22.9922-6.8702-4.2377-14.1373-7.5895-21.9857-9.5978zm49.1595 365.6395c-.5452.048-1.0975.0564-1.6344.1512-1.8724.3304-3.4253-.851-2.9897-2.67.2699-1.127 1.2612-2.521 2.2795-2.9375 2.1123-.8639 4.4407-1.2549 6.7126-1.6588 2.9848-.5307 5.5967-1.4963 7.7492-3.8589 5.7414-6.3014 11.8611-12.2664 17.4561-18.6911 12.9313-14.8485 25.1395-30.2549 34.3605-47.7809 7.7398-14.7106 13.033-30.1125 13.0096-46.9835-.0073-5.2727-.3875-10.4934-1.7305-15.6034-5.0625 1.2669-9.965 2.4929-14.8671 3.7208-3.3865.8482-6.8075 1.3486-10.2281.3518-.7413-.216-1.6262-.9821-1.828-1.6746-.1602-.5493.4726-1.5506 1.0307-2.0243.5214-.4425 1.4014-.5997 2.135-.6334 7.5652-.3477 14.6563-2.4916 21.667-5.5124-4.3125-9.9531-11.7155-16.572-21.5775-21.4568.1152 2.0344.1818 3.6193.299 5.2004.2992 4.0361-.0346 4.7182-4.0004 4.6374-9.3705-.1908-18.7987-.1312-28.0837-1.2077-9.1285-1.0584-18.1054-3.4123-27.1607-5.1353-.8268-.1573-1.8867-.1219-2.5883.2707-3.3131 1.8541-6.5391 3.8638-9.7962 5.8179-.9112.638-1.9173 1.1754-2.7183 1.9305-5.3847 5.0755-10.5844 10.3585-16.1435 15.2327-2.5935 2.274-5.7585 3.9733-8.851 5.5723-1.8616.9626-2.8591.2106-3.334-1.8762-.3279-1.4406-.511-2.9152-.7329-4.3786-1.5526-10.2405-5.0916-19.6493-13.1424-26.5022-12.7973-10.8933-27.9324-13.9619-44.3188-12.0529-8.3943.5843-16.3758 2.7916-23.8617 6.5593-15.3398 7.7206-26.2778 19.3992-31.576 35.9675-.5678 1.7756-.9069 3.6244-1.405 5.6551 5.3334.7831 10.3409 1.5183 15.3484 2.2536 2.997.3989 6.0216.6582 8.9817 1.2437 2.106.4166 4.1251 1.2724 6.183 1.9323-.0417.2484-.0835.4969-.1252.7453-1.4151.3702-2.8167.9842-4.2479 1.0638-3.9264.2183-7.8652.2121-11.7991.2948-5.1252-.7667-10.2505-1.5334-15.4007-2.3038-.16 6.3467-.7673 12.4118-.3725 18.4111.9057 13.7639 4.9234 26.7954 10.307 39.4444 10.529 24.7382 26.4466 45.746 44.9269 64.9708 1.0573 1.0999 2.6573 1.935 4.1497 2.2986 2.1653.5276 4.4628.5127 6.7038.7292 1.3527.3821 2.7257.7047 4.0538 1.1586 2.8209.9642 3.1053 2.0481 1.2374 4.4169-2.4714-.1845-4.9427-.369-7.4141-.5535-.1017.2172-.2034.4344-.305.6515 5.1516 4.3675 10.3031 8.735 15.4546 13.1025 5.3786 4.0753 10.5482 8.4738 16.1994 12.1275 4.8666 3.1465 10.2822 5.444 15.4551 8.1169 2.8812 1.9562 5.5576 2.083 8.0586-.719.6861-.7687 1.6655-1.2856 2.539-1.8755 14.1233-9.5398 27.7621-19.7194 40.6552-30.8761 1.8402-1.5924 3.5013-3.3919 5.2455-5.0955.0641-.0203.1357-.0296.1891-.0658.0243-.0165.0127-.086.0175-.1314-.0575.0768-.1149.1534-.1722.23zm-19.5564-167.8952c-5.5421-3.2246-10.7906-6.101-15.8607-9.2634-12.6039-7.8615-18.1758-19.0945-16.181-34.0063 1.0576-7.9058 3.7116-15.301 6.4947-22.6854 2.5544-6.7777 5.419-13.4593 7.5721-20.3625 3.0363-9.7347-.2931-17.9336-9.0168-23.1174-5.9856-3.5567-12.6124-5.1526-19.5324-5.5708-15.2007-.9187-28.0672 7.8062-32.9611 22.2303-3.4731 10.2363-4.3804 20.7909-3.9882 31.4876.4544 12.3935 1.0917 24.7804 1.6671 37.1693.0738 1.5889.2526 3.1729.3608 4.4911 4.2847.5745 8.3778.8774 12.3548 1.7252 4.0476.8628 8.0648 2.0343 11.949 3.4672 13.9669 5.1526 23.4157 14.754 27.7547 29.0992 1.0887 3.5992 1.7469 7.3285 2.7302 11.5435 7.2086-10.5941 16.1038-19.1128 26.6568-26.2076zm-153.7044 34.7068c4.6936-19.6223 15.8481-34.2233 33.2364-44.345-10.6977-4.7312-21.1519-9.3547-31.7401-14.0374-5.0801 8.982-9.9787 17.7634-14.9996 26.4743-2.9 5.0314-5.0192 10.2255-4.7916 16.1732.3125 8.165 3.2138 11.5615 9.4141 13.1846 2.8553.7474 5.6764 1.6254 8.8808 2.5503zm32.1544 184.7732c.0014-.049.0028-.0981.0042-.1471-.4931-.0124-.9996-.1049-1.4772-.0248-4.4205.7408-8.8612 1.3935-13.2406 2.3309-1.7766.3803-3.064 1.7092-3.325 3.7067-.2668 2.0415.8024 3.3365 2.4261 4.3048.7242.4319 1.4581.8553 2.2184 1.2177 9 4.2893 17.4541 1.4753 25.8152-2.082.5756-.2449 1.1318-1.155 1.2193-1.8187.3502-2.6565-3.5345-7.1317-6.2757-7.2858-2.4509-.1379-4.9095-.1398-7.3647-.2017zm166.3219-.3682c5.308 2.4444 10.5994 3.8728 16.1024 4.3227 5.9702.488 11.8247-.1961 17.2936-2.8451.7921-.3836 1.8416-1.2841 1.8475-1.9537.0062-.6989-.975-1.6601-1.754-2.0618-1.8633-.9607-3.7935-1.9815-5.817-2.4094-8.9375-1.8901-17.4854-.0057-25.8306 3.1545-.6881.2606-1.1556 1.1036-1.8419 1.7928zm40.8756-255.9183c-5.0765.044-8.7629 2.0216-11.3851 5.7677-2.2322 3.189-.8386 6.4781 2.913 7.374 4.9821 1.1897 11.7448-2.0924 13.8722-6.7326 1.0831-2.3624.1356-4.8038-2.3167-5.686-1.1135-.4006-2.3174-.5497-3.0834-.7231zm-222.2875 13.2049c.5976-.0804 1.5069-.1578 2.3975-.3311 2.6054-.5071 4.6852-1.7744 5.2437-4.5309.5514-2.7214-1.0762-4.6382-3.0941-6.0302-5.3249-3.6734-11.974-.6964-14.6338 4.099-.3062.552.0404 1.8019.5087 2.391 2.3431 2.9474 5.6182 4.0746 9.578 4.4022zm208.0815 4.5749c-.2591 3.3164-.5545 6.3792-.6877 9.449-.0248.5717.4534 1.4365.952 1.7167 3.9606 2.2255 7.9823 4.3425 12.0539 6.5296.1385-5.4934.2701-10.7145.4096-16.2461-4.5233 1.3733-8.5623.3776-12.7278-1.4492z" fill="#321310"/><g fill="#321411"><path d="m369.8107 389.8448c.0018-.0704.0045-.1408.0052-.2112.0634-6.8554-.0157-5.8828 5.9421-4.8379 10.252 1.7981 21.6916 12.7849 23.1619 22.8481.9944 6.806-3.8788 11.7421-10.6137 10.4362-7.3926-1.4334-11.7463-6.4209-15.0701-12.62-2.6069-4.8622-3.6705-10.1058-3.4254-15.6152zm21.0814 22.9129c2.557-.423 3.2649-1.3935 2.6982-3.8837-2.0397-8.9615-8.1933-14.2478-16.1069-17.9466-.9095-.5922-1.8189-1.1844-2.9251-1.9048.4771 8.5201 2.7553 15.9325 9.3637 21.4352 2.0074 1.6715 4.243 2.7579 6.9701 2.2999z"/><path d="m92.7792 345.6184c-5.2897-.3286-10.5965-.7456-14.8069-4.4984-3.1926-2.8456-5.1521-6.2974-3.974-10.8083.8332-3.1904 2.9936-5.2213 6.1573-5.6096 10.419-1.279 19.8234.9556 27.4471 8.6629.5406.5466 1.0329 1.1484 1.4944 1.7644 1.2464 1.6633 1.0473 3.2537-.5254 4.6088-4.5351 3.9072-9.6811 6.1561-15.7925 5.8802zm-11.1284-15.0897c-2.0608 1.1009-2.6511 3.1736-.8882 4.4825 2.087 1.5497 4.4863 2.9379 6.9647 3.6501 6.1056 1.7545 11.8867-.3636 17.9665-2.2163-1.972-1.2896-3.7166-2.4305-5.4612-3.5715-5.9044-3.0771-12.0189-4.4872-18.5818-2.3448z"/><path d="m421.4181 349.0224c.1903 3.7772-1.9499 6.3783-6.0303 7.8059-8.1371 2.847-15.0055.2542-21.2728-4.8297-2.2794-1.8489-4.4713-3.8955-5.3286-6.8765-.7993-2.7794.0185-4.8731 2.7155-6.0201 8.9329-3.7987 17.6324-3.649 25.7744 2.1377 2.6162 1.8594 4.4052 4.3147 4.1418 7.7827zm-25.4694-3.3427c3.5556 4.7644 12.4306 8.5518 18.819 4.7382 1.6865-1.6952 1.5411-2.8111-.6219-4.7744-4.3024-3.905-14.716-5.2556-20.2863-2.4972.7138.8654 1.4015 1.6994 2.0892 2.5334z"/><path d="m108.5462 372.9146c-.0308 3.8599-2.4809 6.6294-5.5641 9.0595-4.3891 3.4596-9.4963 4.9511-14.9357 5.4839-3.2831.3216-10.4517-5.3054-10.8497-8.5898-.2979-2.4579.6981-4.5583 2.7604-5.994 5.7783-4.0226 12.1977-5.9062 19.2398-5.5195 1.8857.1035 3.7672.3546 5.6393.6179 3.2569.4581 3.8634 1.2377 3.71 4.942zm-21.9864 7.4216c1.2755.2519 2.5835.8234 3.8205.6974 4.2039-.4282 7.7679-2.3728 10.6219-5.4433 1.0125-1.0893 1.5887-2.5841 2.576-4.2517-1.7268.2429-2.8288.3978-3.9307.5529-3.1224.3462-6.3292.3666-9.3394 1.1463-2.227.5769-4.2772 2.0211-6.2524 3.3139-1.124.7357-1.1292 1.9315.1389 2.7521.7431.4809 1.5739.8262 2.3652 1.2324z"/></g><path d="m153.5117 285.0002c3.9339-.0827 7.8728-.0765 11.7991-.2948 1.4313-.0796 2.8328-.6936 4.2479-1.0638.0417-.2484.0835-.4969.1252-.7453-2.0579-.6598-4.077-1.5157-6.183-1.9323-2.9601-.5855-5.9847-.8448-8.9818-1.2437.2496-1.2334.4498-2.4793.7574-3.6981 1.798-7.123 5.22-13.4255 9.3929-19.4424 7.2867-10.5066 16.6955-18.544 27.7172-24.8394 1.2641-.722 2.4206-1.6325 3.6269-2.4556 16.3864-1.909 31.5215 1.1596 44.3188 12.0529 8.0507 6.8529 11.5898 16.2617 13.1424 26.5022.2219 1.4634.405 2.938.7329 4.3786.475 2.0868 1.4724 2.8388 3.334 1.8762 3.0925-1.599 6.2574-3.2983 8.851-5.5723 5.5591-4.8742 10.7588-10.1572 16.1435-15.2327.801-.755 1.8071-1.2924 2.7185-1.9305 1.516 1.0079 2.9295 2.241 4.5656 2.9847 7.062 3.2103 14.6248 3.2719 22.1713 3.1528 7.9351-.1253 15.8672-.4662 23.8022-.5421.9907-.0095 2.3127.7887 2.9212 1.6218 1.3146 1.7995 2.3945 3.8047 3.3384 5.8336 1.9813 4.2588 4.275 8.4509 5.5927 12.9203 1.7758 6.0227 1.8573 12.3034.9245 18.5758-1.1645 7.8303-1.8735 15.7397-3.3233 23.5135-2.5802 13.8348-6.8358 27.1712-14.5284 39.084-3.9496 6.1164-8.4724 11.8927-13.0694 17.5519-4.247 5.2283-8.9286 10.1045-13.4374 15.1191-6.5287 7.2613-13.0328 14.5455-19.6408 21.7341-1.7057 1.8556-3.818 3.3301-5.6432 5.0841-5.1685 4.9666-10.2679 10.0051-15.4273 14.9812-4.4693 4.3104-8.9886 8.569-13.4714 12.8654-.5528.5298-1.017 1.152-1.5223 1.7314-5.1729-2.6729-10.5884-4.9704-15.4551-8.1169-5.6512-3.6537-10.8208-8.0522-16.1996-12.128-.3635-.8161-.6449-1.6813-1.104-2.4388-2.1839-3.6031-4.4163-7.1769-6.6313-10.7612 1.8679-2.3688 1.5835-3.4526-1.2374-4.4169-1.3281-.4539-2.7011-.7765-4.0542-1.1586-.3418-.9656-.5003-2.0541-1.0538-2.8771-4.0767-6.061-8.3826-11.9724-12.3298-18.1151-6.9484-10.8134-14.0415-21.5593-20.3999-32.7176-4.2286-7.4207-7.534-15.4065-10.7981-23.3266-3.2971-8.0005-5.1375-16.4158-5.9738-25.0784-.6928-7.1788-.5832-14.2986.2417-21.4354zm65.6072 31.3465c-.6842-.1423-1.3919-.2153-2.0486-.4384-3.8641-1.313-7.6883-2.7537-11.592-3.9326-.9824-.2967-2.2065.2071-3.3195.343.418 1.1845.7503 2.4108 1.2974 3.5322.2101.4307.8801.6922 1.3918.9113 2.7772 1.1893 5.5362 2.4334 8.3669 3.4819 3.2323 1.1972 6.5332 2.2089 9.8044 3.3012-.0272.1231-.0544.2463-.0816.3694-10.6254 1.3631-21.2507 2.7262-31.8761 4.0893.0009.2997.0017.5994.0026.899.7607.2224 1.5084.5635 2.284.6476 4.9008.5316 9.8018 1.0786 14.7139 1.4844 9.9001.818 19.6785-.6313 29.4626-1.7886 3.1387-.3712 4.2082-2.7112 2.4624-5.3337-.7086-1.0644-1.8563-1.8832-2.9213-2.6514-1.2504-.9019-2.6656-1.572-3.9444-2.4384-6.1788-4.1869-11.9765-8.7064-14.7529-16.0684-.2704-.7171-1.7318-1.515-2.4904-1.3869-.9967.1683-2.447 1.0916-2.6205 1.9175-.2876 1.369-.1003 3.1354.5766 4.35 1.6374 2.9383 3.6727 5.6548 5.5475 8.4607-.088.0832-.1757.1668-.2628.2509zm95.7224 24.5408c-4.1498-3.6761-9.1063-5.7839-14.311-7.4644-5.2488-1.6948-10.4639-3.494-15.6938-5.2475.0365-.1861.073-.3723.1096-.5584 8.3936-.1903 16.9608.6987 24.7069-3.5194.029-.2975.0579-.595.0869-.8925-5.1445-1.048-10.2891-2.096-15.4008-3.1374.1591-.0995.4313-.2906.7216-.4482 6.4373-3.4943 12.9361-6.8819 19.2769-10.5432 1.7512-1.0112 3.2174-2.6931 4.4771-4.3273 1.1947-1.55.405-2.8777-1.4996-2.5887-2.0545.3117-4.2106.7413-6.0275 1.6863-5.6833 2.9562-11.2642 6.1161-16.8163 9.3157-6.9478 4.0039-13.6671 8.4403-21.6002 10.4182-1.9006.4738-2.5255 2.3677-1.2064 4.0266 1.2021 1.5117 2.7026 2.8973 4.3265 3.9425 5.7253 3.6847 11.9637 6.2502 18.5258 8.069 6.6295 1.8376 13.305 2.8508 20.3243 1.2687zm-15.4583 40.2468c.1566-.1626.3132-.3251.4698-.4877-.1113-.3096-.1404-.6957-.3464-.9172-2.4927-2.6817-4.7907-5.6009-7.5706-7.9474-5.4782-4.6245-11.7028-5.4579-18.0897-2.0204-2.6308 1.4159-4.881 3.5426-7.2917 5.3627-2.4629 1.8596-3.7092 1.7999-5.8739-.3581-.9475-.9446-1.8658-1.9187-2.7944-2.8823-5.9007-6.1226-11.5653-6.3268-17.9374-.7224-3.2269 2.8381-6.5002 5.6267-9.8262 8.3478-2.4037 1.9664-2.9675 1.7449-3.8123-1.1848-.7212-2.5009-1.2242-5.0865-2.1798-7.4931-1.4419-3.6312-3.9908-5.2013-7.8391-4.6527-4.9752.7092-9.237 3.2914-13.4423 5.8818-.3388.2087-.6915.6065-.7755.976-.2174.9562-.2881 1.9457-.4174 2.9218 1.0282.0602 2.1853.4557 3.0612.1194 2.9551-1.1348 5.7855-2.5887 8.7091-3.812 5.1289-2.1461 6.268-1.4877 7.6361 3.9473.5628 2.2357 1.1557 4.5208 2.162 6.5742 1.3851 2.8262 3.9825 3.5572 6.7752 2.1232 1.3644-.7006 2.625-1.6567 3.809-2.6452 3.0821-2.5732 6.1047-5.2182 9.135-7.8531 4.6437-4.0378 7.3155-3.9002 11.5004.6344 1.2424 1.3463 2.3971 2.7809 3.7093 4.054 3.15 3.0563 6.9587 3.3774 10.5762.8914 1.3309-.9146 2.5603-1.9873 3.7783-3.0539 3.4292-3.0031 7.3841-4.7621 11.8526-3.3959 3.7264 1.1393 7.2461 3.0042 10.7752 4.7169 1.5224.7386 2.8379 1.9038 4.2473 2.8753zm-6.5371-33.7357c-1.6582.3159-3.6059.2084-4.979 1.0446-3.225 1.9639-2.9495 6.7013.5213 8.768 5.7785 3.4409 12.2112 4.907 18.8653 5.2098 2.8812.1311 6.0005-2.8687 6.2446-5.6368.2562-2.9064-2.0563-6.4555-4.9897-6.9663-5.1601-.8986-10.3527-1.6097-15.6625-2.4193zm-91.2962-6.6159c-.0286-.1802-.0572-.3604-.0858-.5406-3.6249.6654-7.2911 1.1643-10.8613 2.0502-2.7329.6782-3.8786 2.5414-3.9034 5.2823-.0183 2.0222 1.6064 4.5686 3.7446 5.0839 4.8686 1.1736 9.7259 2.8723 14.856 1.7023 2.4752-.5645 4.3241-2.032 5.1147-4.5243.751-2.3676.8077-4.5341-1.1284-6.6295-2.2048-2.3863-4.888-2.4802-7.7364-2.4243z" fill="#fb6f5c"/><path d="m301.5749 157.7755c9.4831 5.8731 20.0141 9.1111 30.6116 12.1858.8684.252 1.7058.6108 2.5576.92-.6193 16.7959-.3021 33.6277-2.0808 50.3806-.4695 4.4223-2.6127 6.6336-7.0701 6.5687-.7043-.0103-1.4099-.0473-2.1129-.0203-8.5406.3278-17.0784.8041-25.6219.9528-5.982.1041-11.9716-.2358-17.9579-.3775-1.3981-.8089-2.7963-1.6179-4.1944-2.4269-.9604-3.8009-1.8373-7.6253-2.9037-11.3961-1.1638-4.1155-2.3783-8.1384-1.5825-12.5544 1.1157-6.191 1.8077-12.4575 2.873-18.6587 1.0079-5.867 2.5249-11.651 2.3436-17.679-.1161-3.8603-.1158-7.7242-.1677-11.5864.2197-4.8556.3312-9.6936-1.2461-14.4028-2.8347-8.4634-9.162-13.4171-16.9379-16.8943-13.8557-6.196-27.6441-6.217-41.3296.5708-.6188.3069-1.2398.6094-1.86.914-3.6228.7566-7.4846.9494-10.8264 2.3676-14.1561 6.0072-23.86 16.584-29.9028 30.5963-2.9042 6.7344-4.6523 13.7694-5.7823 21.0473-1.2256 7.8934-1.5103 15.7724-1.281 23.7086.0526 1.8207.2456 3.6373.3744 5.4558.386 5.4509.7723 10.9018 1.1584 16.3528-3.298-1.1264-6.5961-2.2529-10.1173-3.4556.6431-.9012 1.0394-1.4662 1.4454-2.024 3.5959-4.9405 3.2244-10.0864-1.0501-14.5188-5.7133-5.9242-14.2365-6.1272-20.8837-.3894-1.8492 1.5962-3.4587 3.4701-5.3371 5.378-5.1492-2.9273-10.4525-5.9277-15.7392-8.9568-1.5144-.8677-2.9812-1.8187-4.4699-2.7316.0672-1.6168.27-3.2414.1761-4.8487-.2616-4.4739-.6889-8.938-.9732-13.4109-.5107-8.0368-1.3056-16.0763-1.3286-24.1166-.0168-5.8574.8275-11.7435 1.6221-17.5713 1.4345-10.5215 4.7392-20.5099 9.5889-29.9372 4.0618-7.8956 9.2623-15.019 15.0293-21.7968 6.2346-7.3275 13.2332-13.801 20.8709-19.5413 8.0366-6.04 16.7112-11.0585 25.9881-15.0785 15.0074-6.5032 30.6913-9.6955 46.9504-10.4963 2.9862-.1471 5.9569-.6094 8.9347-.9263 5.2015 1.2255 10.403 2.4511 15.6046 3.6767.3112.1144.6224.2287.9336.3431 0 0 .0104-.0141.0102-.0138.1481.4407.172 1.0042.4657 1.3007 1.4324 1.4461 2.8711 2.8992 4.4269 4.2078 8.1049 6.817 13.8037 15.2178 17.0782 25.309 3.1995 9.8599 5.0161 19.9774 5.539 30.294.3728 7.3563.2449 14.7375.3647 22.1072.041 2.5223-.0272 5.0653.2714 7.561.8424 7.0402 3.5543 13.2966 8.6805 18.2775 2.495 2.4243 5.1338 4.8432 8.8578 5.3342z" fill="#a2dade"/><path d="m248.5072 447.5709c.5053-.5793.9695-1.2015 1.5223-1.7314 4.4828-4.2964 9.0021-8.555 13.4714-12.8654 5.1595-4.9761 10.2588-10.0146 15.4273-14.9812 1.8253-1.7539 3.9376-3.2285 5.6432-5.0841 6.608-7.1885 13.1121-14.4728 19.6408-21.7341 4.5088-5.0146 9.1904-9.8907 13.4374-15.1191 4.597-5.6592 9.1198-11.4356 13.0694-17.5519 7.6926-11.9128 11.9481-25.2492 14.5284-39.084 1.4498-7.7738 2.1588-15.6833 3.3233-23.5135.9328-6.2724.8513-12.5531-.9245-18.5758-1.3178-4.4694-3.6115-8.6616-5.5927-12.9203-.9439-2.029-2.0238-4.0341-3.3384-5.8336-.6086-.833-1.9306-1.6313-2.9212-1.6218-7.935.076-15.8671.4169-23.8022.5421-7.5465.1191-15.1093.0575-22.1713-3.1528-1.636-.7437-3.0495-1.9768-4.5656-2.9847 3.2569-1.9541 6.4829-3.9637 9.796-5.8179.7016-.3926 1.7615-.428 2.5883-.2707 9.0553 1.7229 18.0322 4.0769 27.1607 5.1353 9.2849 1.0765 18.7132 1.0168 28.0837 1.2077 3.9658.0808 4.2996-.6013 4.0004-4.6374-.1172-1.5811-.1838-3.166-.299-5.2004 9.862 4.8848 17.265 11.5037 21.5775 21.4568-7.0107 3.0208-14.1017 5.1646-21.667 5.5124-.7336.0337-1.6136.1909-2.135.6334-.5581.4737-1.1909 1.4749-1.0307 2.0243.2018.6925 1.0868 1.4586 1.828 1.6746 3.4206.9968 6.8416.4964 10.2281-.3518 4.9021-1.2279 9.8046-2.4539 14.8671-3.7208 1.3429 5.11 1.7232 10.3306 1.7305 15.6034.0234 16.8709-5.2698 32.2729-13.0096 46.9835-9.221 17.526-21.4292 32.9323-34.3605 47.7809-5.5951 6.4246-11.7148 12.3897-17.4561 18.6911-2.1525 2.3626-4.7644 3.3282-7.7492 3.8589-2.2719.4039-4.6003.795-6.7126 1.6588-1.0182.4165-2.0096 1.8105-2.2795 2.9375-.4356 1.819 1.1172 3.0004 2.9897 2.67.537-.0947 1.0892-.1031 1.6344-.1512l-.0345-.0326c-1.744 1.7036-3.4051 3.5031-5.2454 5.0955-12.8931 11.1566-26.5319 21.3362-40.6552 30.8761-.8735.59-1.8529 1.1069-2.539 1.8755-2.5011 2.8016-5.1775 2.6748-8.0587.7187z" fill="#fa4632"/><path d="m239.3422 39.3781c-2.9778.3168-5.9485.7792-8.9347.9263-16.2591.8007-31.9429 3.993-46.9504 10.4963-9.2769 4.02-17.9515 9.0385-25.9881 15.0785-7.6377 5.7402-14.6362 12.2138-20.8709 19.5413-5.767 6.7778-10.9675 13.9012-15.0293 21.7968-4.8498 9.4273-8.1544 19.4157-9.5889 29.9372-.7946 5.8277-1.6389 11.7139-1.6221 17.5713.0231 8.0403.8179 16.0798 1.3286 24.1166.2842 4.4729.7116 8.9369.9732 13.4109.094 1.6073-.1088 3.2319-.1761 4.8487-3.6267-2.4163-7.2847-4.7882-10.8528-7.2884-.6753-.4732-1.308-1.4081-1.4296-2.2105-1.9515-12.8671-4.4708-25.6824-4.5594-38.755-.0932-13.7431 2.0819-27.148 7.449-39.8482 12.235-28.952 32.9882-49.5334 61.8713-61.8193 13.3925-5.6967 27.4897-8.6149 42.0005-9.6273 10.1717-.7097 20.2832-.2734 30.3528 1.2719.6877.1053 1.3518.3649 2.0269.5529z" fill="#c8e6ea"/><path d="m168.6357 223.8c-.3862-5.4509-.7724-10.9018-1.1584-16.3528-.1288-1.8185-.3218-3.6351-.3744-5.4558-.2292-7.9363.0555-15.8153 1.281-23.7086 1.13-7.2779 2.8781-14.3129 5.7823-21.0473 6.0427-14.0123 15.7466-24.589 29.9028-30.5963 3.3418-1.4181 7.2036-1.611 10.8264-2.3676-4.8395 3.4789-9.1151 7.4848-12.2484 12.6383-4.1054 6.7522-6.1392 14.1956-7.3153 21.893-2.0006 13.0936-1.7143 26.2457-.7874 39.4137.5579 7.9265.8964 15.8685 1.3206 23.5691-6.4067 1.4934-12.5923 3.0547-18.8349 4.3393-3.066.6308-5.6743-1.2457-8.3943-2.325z" fill="#76c7cd"/><path d="m301.5749 157.7755c-3.7241-.491-6.3629-2.9099-8.8579-5.3343-5.1262-4.9809-7.8381-11.2374-8.6805-18.2775-.2986-2.4956-.2303-5.0386-.2714-7.561-.1198-7.3697.0081-14.7509-.3647-22.1072-.5229-10.3167-2.3395-20.4341-5.539-30.294-3.2746-10.0912-8.9733-18.4921-17.0782-25.309-1.5559-1.3086-2.9945-2.7617-4.4269-4.2078-.2936-.2964-.3176-.8599-.4657-1.3007 7.8486 2.0079 15.1158 5.3598 21.9859 9.5975 9.3083 5.7415 16.6429 13.3672 21.8964 22.9922 3.3514 6.14 4.5917 12.7919 5.1196 19.6623 1.2514 16.2876-2.0953 31.9829-6.0329 47.6078-.1376.5459-.256 1.0966-.3909 1.6432-1.193 4.8336-.5109 9.2145 3.1062 12.8885z" fill="#76c6cc"/><path d="m279.9005 228.3856c5.9862.1416 11.9759.4816 17.9579.3775 8.5436-.1487 17.0814-.625 25.6219-.9528.703-.027 1.4086.01 2.1129.0203 4.4574.0649 6.6006-2.1464 7.0701-6.5687 1.7787-16.7529 1.4615-33.5847 2.0808-50.3806 5.7188 1.1777 11.4262 2.4153 17.1616 3.5061 2.6184.498 5.2919.7066 8.2815 1.0903-10.256 22.43-12.2349 45.9892-9.4195 70.5327-2.366-.28-4.5081-.4365-6.6148-.7987-13.1819-2.2666-26.3886-4.4089-39.5205-6.9383-8.2686-1.5927-15.9882-4.9264-23.4219-8.8687-.4814-.2554-.8754-.6756-1.31-1.0191z" fill="#76c6cc"/><path d="m404.1782 248.8337c1.1747-15.094-6.2438-25.8421-17.5148-34.6454-.8809-.688-1.7325-1.4137-2.5976-2.1219.7463-6.4699 3.0499-12.4876 5.3-18.5312.591-1.5875 1.5299-2.206 3.1443-2.1474 3.4152.1239 6.8344.1468 10.2482.297 3.8517.1695 7.6992.4332 11.5486.656 6.5636 2.432 13.1271 4.8639 19.6905 7.2958-.2208 2.0871-.3297 4.1934-.682 6.2582-1.289 7.5532-3.4309 14.8831-6.3824 21.9412-2.495 5.9666-5.3347 11.7774-10.5289 16.0026-3.5706 2.9042-7.5482 4.8045-12.2259 4.9951z" fill="#a2dade"/><path d="m153.5117 285.0002c-.825 7.1367-.9346 14.2566-.2415 21.4355.8363 8.6625 2.6767 17.0779 5.9738 25.0784 3.2641 7.9202 6.5695 15.906 10.7981 23.3266 6.3584 11.1583 13.4514 21.9041 20.3999 32.7176 3.9471 6.1427 8.2531 12.054 12.3298 18.1151.5535.8229.712 1.9115 1.0538 2.8771-2.2407-.2165-4.5381-.2016-6.7034-.7292-1.4924-.3636-3.0924-1.1987-4.1497-2.2986-18.4803-19.2248-34.3979-40.2326-44.9269-64.9708-5.3836-12.649-9.4013-25.6805-10.307-39.4444-.3948-5.9993.2125-12.0644.3725-18.4111 5.1502.7704 10.2754 1.5371 15.4006 2.3038z" fill="#faa18b"/><path d="m404.1782 248.8337c4.6777-.1906 8.6553-2.0909 12.2258-4.9952 5.1943-4.2252 8.0339-10.036 10.5289-16.0026 2.9515-7.0581 5.0934-14.388 6.3824-21.9412.3524-2.0647.4612-4.171.682-6.2582 2.8879 1.0673 5.7756 2.1345 8.7762 3.2434-2.116 7.2968-4.3966 14.3272-6.1763 21.4822-3.1414 12.6299-5.9799 25.3351-8.9368 38.0107-.2226.9541-.2107 1.9511-1.6872 1.9068-9.2218-.2767-18.1954-1.8707-26.904-4.9259-.3228-.1133-.6079-.3341-1.1627-.6469 2.966-2.8268 5.2515-5.9695 6.2717-9.8731z" fill="#75c4cb"/><path d="m196.0137 229.2849c-1.2064.8231-2.3628 1.7336-3.6269 2.4556-11.0218 6.2954-20.4305 14.3327-27.7172 24.8394-4.1729 6.0169-7.5949 12.3193-9.3929 19.4424-.3076 1.2188-.5078 2.4647-.7574 3.6981-5.0073-.7353-10.0148-1.4705-15.3482-2.2536.4981-2.0307.8372-3.8795 1.405-5.6551 5.2982-16.5683 16.2361-28.2469 31.576-35.9675 7.4858-3.7678 15.4673-5.9751 23.8616-6.5593z" fill="#f9a18b"/><path d="m276.2689 154.0841c.0519 3.8623.0516 7.7261.1677 11.5864.1813 6.028-1.3357 11.812-2.3436 17.679-1.0653 6.2012-1.7574 12.4677-2.873 18.6587-.7958 4.416.4186 8.4389 1.5825 12.5544 1.0664 3.7708 1.9432 7.5952 2.9037 11.3961-7.432-4.4494-13.1261-10.2258-14.1495-19.3123-.6705-5.9533.0376-11.8218 2.1073-17.4569 3.1281-8.5165 6.4108-16.9762 9.5355-25.4939 1.1572-3.1547 2.0538-6.4049 3.0694-9.6115z" fill="#c6e3e6"/><path d="m385.1673 252.6546c-1.9372-1.3565-3.8744-2.713-5.8114-4.0695.5529-4.9162 1.1271-9.8303 1.6528-14.7495.5926-5.5453 1.1286-11.0968 1.7384-16.6401.0414-.3762.4952-.7071.7571-1.0591 5.7885 7.345 11.5798 14.6997 14.1819 23.92 1.0543 3.7357 1.4597 7.4754-1.2078 10.8326-3.7705.5885-7.5407 1.1771-11.311 1.7656z" fill="#a2d9dd"/><path d="m163.9335 460.6221c2.4552.0619 4.9138.0638 7.3648.2017 2.7412.1541 6.626 4.6293 6.2757 7.2858-.0875.6637-.6437 1.5738-1.2193 1.8187-8.3611 3.5573-16.8152 6.3713-25.8152 2.082-.7604-.3624-1.4942-.7857-2.2184-1.2177-1.6238-.9683-2.6929-2.2633-2.4261-4.3048.261-1.9975 1.5484-3.3264 3.325-3.7067 4.3794-.9374 8.8201-1.5901 13.2406-2.3309.4776-.08.9841.0124 1.4772.0248-.0016.049-.0029.0981-.0043.1471z" fill="#f1dbab"/><path d="m330.2554 460.2539c.6863-.6892 1.1538-1.5322 1.8419-1.7928 8.3452-3.1602 16.8931-5.0446 25.8306-3.1545 2.0235.4279 3.9536 1.4487 5.817 2.4094.779.4016 1.7602 1.3629 1.754 2.0618-.0059.6696-1.0555 1.5701-1.8475 1.9537-5.4688 2.649-11.3234 3.3331-17.2936 2.8451-5.503-.4499-10.7944-1.8784-16.1024-4.3227z" fill="#efdaaa"/><path d="m414.3068 192.3407c-3.8494-.2227-7.6969-.4865-11.5486-.656-3.4138-.1502-6.833-.173-10.2482-.297-1.6144-.0586-2.5533.5599-3.1443 2.1474-2.2501 6.0436-4.5536 12.0613-5.3 18.5312-1.2157-.5383-2.4314-1.0766-3.6802-1.6296-.3504-9.9484 3.5927-18.6987 7.1814-27.9422 9.0075 3.3168 17.8737 6.5815 26.7399 9.8462z" fill="#c6e2e5"/><path d="m371.131 204.3356c.766.1734 1.9699.3226 3.0833.7231 2.4523.8822 3.3998 3.3236 2.3167 5.686-2.1274 4.6402-8.89 7.9223-13.8722 6.7326-3.7516-.8959-5.1452-4.185-2.913-7.374 2.6222-3.7461 6.3086-5.7237 11.3852-5.7677z" fill="#efdaaa"/><path d="m148.8435 217.5405c-3.9598-.3276-7.2349-1.4548-9.578-4.4023-.4683-.589-.8149-1.839-.5087-2.391 2.6599-4.7953 9.3089-7.7724 14.6338-4.099 2.0179 1.392 3.6455 3.3088 3.0941 6.0302-.5585 2.7565-2.6383 4.0238-5.2437 4.5309-.8906.1735-1.7999.2508-2.3975.3312z" fill="#efdaaa"/><path d="m383.5042 216.1364c-.262.352-.7158.6829-.7571 1.0591-.6098 5.5434-1.1458 11.0948-1.7384 16.6401-.5257 4.9192-1.0999 9.8333-1.6528 14.7495-.3846-.6719-1.094-1.3391-1.1038-2.0163-.1179-8.1762-.0603-16.3553-.2088-24.5307-.0602-3.3167 1.5587-5.8706 3.1185-8.8903.9096 1.1606 1.626 2.0746 2.3424 2.9886z" fill="#c3dfe2"/><path d="m209.1172 414.1259c2.2151 3.5842 4.4474 7.158 6.6313 10.7612.4592.7575.7405 1.6227 1.104 2.4388-5.1514-4.367-10.3029-8.7345-15.4545-13.102.1017-.2172.2034-.4344.305-.6515 2.4715.1845 4.9428.369 7.4142.5535z" fill="#f49d87"/><path d="m385.1673 252.6546c3.7703-.5885 7.5405-1.177 11.311-1.7656-1.2516 1.3922-2.3776 2.9386-3.8112 4.1081-.6637.5415-2.0861.7356-2.8848.4071-1.6382-.6737-3.0878-1.8061-4.615-2.7496z" fill="#75c4cb"/><path d="m255.8804 43.3978c-.3112-.1143-.6224-.2287-.9336-.3431.3111.1144.6224.2288.9336.3431z" fill="#76c6cc"/><path d="m305.0399 409.0373c.0574-.0766.1147-.1532.1721-.2298-.0047.0454.0068.1149-.0175.1314-.0534.0362-.125.0455-.1891.0658-.0001 0 .0345.0326.0345.0326z" fill="#fa4632"/><path d="m390.8921 412.7577c-2.7271.458-4.9627-.6284-6.9702-2.2999-6.6084-5.5026-8.8866-12.915-9.3637-21.4352 1.1062.7203 2.0157 1.3126 2.9252 1.9048.6677.8561 1.2232 1.8381 2.0209 2.5481 5.8625 5.2183 10.1662 11.3336 11.3878 19.2822z" fill="#f6f5f5"/><path d="m390.8921 412.7577c-1.2216-7.9485-5.5253-14.0639-11.3878-19.2821-.7977-.71-1.3532-1.692-2.0209-2.5481 7.9136 3.6987 14.0671 8.9851 16.1068 17.9465.5668 2.4902-.1411 3.4607-2.6981 3.8837z" fill="#bbd7e4"/><path d="m100.2324 332.8736c1.7446 1.141 3.4893 2.2819 5.4612 3.5715-6.0797 1.8527-11.8609 3.9708-17.9665 2.2163-2.4783-.7122-4.8776-2.1005-6.9647-3.6501-1.7629-1.3089-1.1726-3.3817.8883-4.4825 3.997 2.5288 8.2846 4.1574 13.0852 3.6821 1.8582-.184 3.6659-.8765 5.4965-1.3373z" fill="#bbd7e4"/><path d="m100.2324 332.8736c-1.8306.4608-3.6383 1.1533-5.4964 1.3372-4.8006.4753-9.0882-1.1534-13.0852-3.6821 6.5629-2.1424 12.6774-.7323 18.5816 2.3449z" fill="#f2f0f0"/><path d="m395.9487 345.6797c-.6877-.8339-1.3755-1.6679-2.0893-2.5335 5.5703-2.7584 15.9839-1.4078 20.2863 2.4972 2.1631 1.9633 2.3085 3.0793.6216 4.7741-3.8773-2.5173-7.8606-4.826-12.5826-5.2722-2.0853-.197-4.2767-.9913-6.236.5344z" fill="#bbd7e4"/><path d="m395.9487 345.6797c1.9593-1.5256 4.1506-.7313 6.2361-.5343 4.722.4461 8.7053 2.7549 12.5826 5.2722-6.388 3.8138-15.2631.0265-18.8187-4.7379z" fill="#f2f0f0"/><path d="m86.5598 380.3363c-.7913-.4062-1.6221-.7516-2.3652-1.2324-1.2681-.8206-1.2629-2.0164-.1389-2.7521 1.9752-1.2928 4.0254-2.737 6.2524-3.3139 3.0101-.7797 6.2169-.8001 9.3393-1.1464-.2261.3441-.3854.7685-.6883 1.0203-3.7467 3.1159-7.718 5.8658-12.3993 7.4245z" fill="#f2f0f0"/><path d="m86.5598 380.3363c4.6813-1.5587 8.6526-4.3085 12.3994-7.4244.3028-.2518.4622-.6762.6883-1.0203 1.102-.155 2.204-.3099 3.9308-.5528-.9873 1.6676-1.5635 3.1624-2.576 4.2517-2.854 3.0705-6.4181 5.0151-10.6219 5.4433-1.2371.1258-2.5451-.4457-3.8206-.6975z" fill="#bbd7e4"/><path d="m314.8413 340.8875c-7.0193 1.5821-13.6948.5688-20.3245-1.2688-6.562-1.8188-12.8004-4.3844-18.5258-8.069-1.6239-1.0451-3.1244-2.4307-4.3265-3.9425-1.3191-1.6588-.6942-3.5527 1.2064-4.0266 7.9331-1.9779 14.6524-6.4143 21.6002-10.4182 5.5522-3.1996 11.1331-6.3595 16.8163-9.3157 1.8169-.945 3.973-1.3746 6.0275-1.6863 1.9046-.289 2.6943 1.0388 1.4996 2.5887-1.2597 1.6342-2.7259 3.3161-4.4771 4.3273-6.3408 3.6613-12.8395 7.0489-19.2769 10.5432-.2903.1577-.5626.3487-.7216.4482 5.1118 1.0414 10.2563 2.0894 15.4008 3.1374-.029.2975-.0579.595-.0869.8925-7.7461 4.2181-16.3133 3.329-24.7069 3.5194-.0365.1861-.073.3723-.1096.5584 5.2299 1.7535 10.4449 3.5527 15.6938 5.2475 5.2049 1.6807 10.1614 3.7885 14.3112 7.4645z" fill="#33120e"/><path d="m299.383 381.1343c-1.4095-.9715-2.7249-2.1367-4.2473-2.8755-3.5291-1.7127-7.0487-3.5776-10.7752-4.7169-4.4685-1.3662-8.4234.3929-11.8526 3.3959-1.2179 1.0666-2.4474 2.1393-3.7783 3.0539-3.6175 2.486-7.4262 2.1649-10.5762-.8914-1.3123-1.2731-2.4669-2.7077-3.7093-4.054-4.1849-4.5346-6.8567-4.6721-11.5004-.6344-3.0303 2.6349-6.0529 5.2798-9.135 7.8531-1.184.9885-2.4445 1.9446-3.809 2.6452-2.7927 1.434-5.3902.703-6.7752-2.1232-1.0063-2.0533-1.5993-4.3384-2.162-6.5742-1.3681-5.435-2.5072-6.0934-7.6361-3.9473-2.9236 1.2233-5.754 2.6772-8.7091 3.812-.8759.3364-2.033-.0592-3.0612-.1194.1293-.9762.2-1.9657.4174-2.9218.084-.3695.4367-.7673.7755-.976 4.2053-2.5904 8.4671-5.1726 13.4423-5.8818 3.8483-.5486 6.3972 1.0215 7.8391 4.6527.9557 2.4067 1.4587 4.9922 2.1798 7.4931.8448 2.9297 1.4086 3.1513 3.8123 1.1848 3.326-2.721 6.5993-5.5097 9.8262-8.3478 6.3721-5.6044 12.0367-5.4002 17.9374.7224.9286.9635 1.8469 1.9376 2.7944 2.8823 2.1648 2.158 3.4111 2.2177 5.8739.3581 2.4107-1.8202 4.6609-3.9468 7.2917-5.3627 6.3869-3.4375 12.6114-2.604 18.0897 2.0204 2.7798 2.3466 5.0779 5.2657 7.5706 7.9474.206.2216.2351.6076.3464.9172-.1566.1628-.3132.3253-.4698.4879z" fill="#35130f"/><path d="m219.3818 316.0959c-1.8749-2.8059-3.9101-5.5224-5.5475-8.4607-.6769-1.2147-.8642-2.9811-.5766-4.35.1735-.8259 1.6238-1.7492 2.6205-1.9175.7586-.1281 2.22.6698 2.4904 1.3869 2.7764 7.362 8.5741 11.8815 14.7529 16.0684 1.2787.8665 2.694 1.5365 3.9444 2.4384 1.065.7682 2.2127 1.587 2.9213 2.6514 1.7458 2.6225.6763 4.9625-2.4624 5.3337-9.7841 1.1573-19.5625 2.6066-29.4626 1.7886-4.9122-.4059-9.8131-.9529-14.7139-1.4844-.7756-.0841-1.5234-.4253-2.284-.6476-.0009-.2997-.0017-.5994-.0026-.899 10.6254-1.3631 21.2507-2.7262 31.8761-4.0893.0272-.1231.0544-.2463.0816-.3694-3.2711-1.0923-6.5721-2.104-9.8044-3.3012-2.8307-1.0485-5.5898-2.2926-8.3669-3.4819-.5116-.2191-1.1817-.4806-1.3918-.9113-.5471-1.1215-.8794-2.3477-1.2974-3.5322 1.113-.1359 2.3371-.6397 3.3195-.343 3.9037 1.179 7.7279 2.6196 11.592 3.9326.6567.2231 1.3644.2961 2.0494.4377.1552.0193.3096.0393.464.0593-.0674-.1032-.1347-.2064-.202-.3095z" fill="#33120f"/><path d="m292.8459 347.3986c5.3098.8095 10.5023 1.5207 15.6624 2.4192 2.9334.5108 5.2459 4.0599 4.9897 6.9663-.244 2.7681-3.3633 5.7679-6.2446 5.6368-6.654-.3028-13.0867-1.7689-18.8653-5.2098-3.4708-2.0667-3.7463-6.8041-.5213-8.768 1.3733-.8361 3.321-.7286 4.9791-1.0445z" fill="#ff304c"/><path d="m201.5497 340.7827c2.8484-.0559 5.5316.038 7.7364 2.4243 1.9361 2.0954 1.8794 4.2619 1.1284 6.6295-.7906 2.4923-2.6395 3.9598-5.1147 4.5243-5.1301 1.17-9.9874-.5287-14.856-1.7023-2.1382-.5154-3.7629-3.0617-3.7446-5.0839.0248-2.7409 1.1705-4.6042 3.9034-5.2823 3.5702-.8859 7.2364-1.3848 10.8613-2.0502.0286.1802.0572.3604.0858.5406z" fill="#ff304c"/><path d="m219.3818 316.0959c.0673.1031.1346.2062.2018.3094-.1544-.02-.3088-.04-.464-.0593.0864-.0834.1741-.167.2622-.2501z" fill="#fb6f5c"/></g></svg>