<svg id="Layer_1" enable-background="new 0 0 512 512" height="512" viewBox="0 0 512 512" width="512" xmlns="http://www.w3.org/2000/svg"><g><path d="m175.1574 159.7743c.266 4.9742.5153 9.6369.7698 14.3968 2.3642-.9451 4.5362-1.924 6.7806-2.6911 8.5045-2.9065 16.8347-2.0053 24.9331 1.5094 8.5894 3.7278 16.3679 8.7696 23.3364 15.0343 1.2047 1.083 2.312 2.2744 3.6642 3.6137.9383-2.5002 1.8112-4.8107 2.6728-7.1254 2.5859-6.9467 5.2479-13.8593 9.7995-19.8298 9.9637-13.0697 23.084-20.8066 39.3589-23.0997 11.7909-1.6613 22.9603.7657 33.7211 5.4817 13.6449 5.9799 23.9827 15.7491 31.868 28.223 6.6928 10.5874 11.3054 22.0509 14.0094 34.2814.5039 2.2793 1.0111 4.5578 1.5303 6.8977 3.4928-.7426 5.8563-2.7829 7.9321-5.3589 6.7506-8.3771 12.2975-17.5625 18.0419-26.6182 4.245-6.692 8.77-13.1822 14.1814-19.0038 11.0921-11.9329 24.6022-19.2442 40.8662-21.1597 14.2347-1.6766 26.4534 2.8308 36.9847 12.332 5.5172 4.9776 10.1817 10.6252 13.3806 17.3732 3.4421 7.2611 4.6932 14.907 4.1629 22.9414-.5132 7.7741-3.2313 14.5766-8.0419 20.6286-6.373 8.0176-14.8095 12.0007-24.8943 12.6231-3.3934.2094-6.8106.0347-10.4403.0357-.1525 2.5123-.138 5.067-.4874 7.5709-2.0395 14.6143-14.9329 22.6136-28.1713 21.4694-3.1295-.2705-6.2077-1.1315-9.3101-1.7186-.3882-.0734-.7791-.1324-1.2599-.2134-.7207 5.0812-4.5524 7.6744-8.1628 10.3046-5.37 3.912-11.4663 5.9722-18.1339 6.2376-5.8512.2329-11.5345-.808-16.9636-2.8421-4.0266-1.5086-7.8439-3.5759-11.9403-5.4807-.3506 1.1305-.8483 2.5974-1.2608 4.0877-2.5048 9.0501-6.1246 17.6452-10.5926 25.8875-7.7529 14.302-17.5273 27.1903-27.8507 39.6911-6.5815 7.9698-13.6777 15.4546-21.2335 22.5045-4.5656 4.2599-9.3977 8.1898-14.7025 11.4968-.7629.4756-1.831.7672-2.7189.6908-13.4477-1.1571-26.7856-3.1255-39.9284-6.1869-16.3139-3.8001-31.6986-9.9955-46.1707-18.4801-10.6268-6.2302-20.4025-13.5777-29.5365-21.8108-1.24-1.1177-2.4469-2.2721-3.839-3.5675-.9742 2.1263-1.822 4.0708-2.7471 5.9778-2.5524 5.2613-5.4162 10.326-9.7284 14.3916-5.8479 5.5136-12.991 8.1584-20.8198 9.1452-5.6512.7124-11.2341.1642-16.6436-1.5959-2.3124-.7524-3.7904-.1187-5.2978 1.6951-7.4863 9.0082-16.732 15.0461-28.7232 15.6915-9.1018.4898-17.4417-1.7826-24.1676-8.3741-3.028-2.9674-4.6398-6.6707-5.3092-10.817-.0719-.4455-.1567-.8889-.2518-1.4256-2.6641 1.0554-5.1998 2.1183-7.7771 3.0686-5.2562 1.938-10.62 3.3347-16.3035 2.9033-8.8836-.6744-15.7502-6.2346-18.6632-14.7505-2.9234-8.5466-2.1897-16.8548 1.4166-24.9241 2.1799-4.8775 4.5468-9.7277 7.3785-14.2463 6.7885-10.8324 16.2378-18.6656 28.1302-23.4422 9.3718-3.7642 19.1202-5.4521 29.2196-4.9055 6.6351.3591 12.9797 2.0798 19.2491 4.1893 8.274 2.784 16.538 5.6151 24.899 8.1164 4.9019 1.4665 10.0605 1.389 15.4941 1.4537-.729-1.3969-1.3004-2.5556-1.9274-3.6834-5.2507-9.4453-9.5946-19.3004-13.0458-29.5298-2.5847-7.6609-4.6801-15.4484-4.63-23.6506.0158-2.5793-.2388-2.8082-2.6239-3.6316-6.6558-2.2977-13.3155-4.5839-19.9719-6.8799-2.2742-.7845-2.7363-1.8083-1.298-3.7446 2.7367-3.6841 5.6125-7.2681 8.511-10.8281 2.9672-3.6444 6.104-7.153 8.9986-10.8525.6861-.8768.9293-2.267.9891-3.4408.496-9.736.8355-19.4804 1.3933-29.2124.1017-1.7745.8671-3.5501 1.5401-5.24.5224-1.3116 1.7313-1.4936 3.0836-.6117 4.191 2.7329 8.3597 5.5002 12.5374 8.2536 4.1776 2.7533 8.3852 5.4625 12.5173 8.2823 1.453.9915 2.7729.8834 4.3207.3316 5.3828-1.919 10.743-3.9363 16.2228-5.536 3.7036-1.081 7.5933-1.5232 11.6738-2.3036zm193.7634 100.1592c.45.3297.8846.6833 1.3525.9853 5.9947 3.8692 12.7403 5.3829 19.6967 6.0604 4.7411.4617 9.4802.01 13.5981-2.5699 4.1708-2.613 8.0832-5.6385 12.3292-8.6391-3.973-2.6331-7.6985-5.1022-11.4241-7.5713-2.5037-2.8931-4.9833-5.8074-7.5181-8.6731-2.3134-2.6155-4.2147-5.4403-4.8864-9.0483 5.1264 6.3846 11.9495 10.3243 19.1776 13.6897 7.1543 5.0306 15.005 8.0693 23.8463 7.7486 6.097-.2211 11.0762-2.8377 14.6272-7.9552 3.0188-4.3506 3.6438-9.4677 4.7164-14.4417.0602-.2793-.2188-.8079-.4861-.9551-3.6151-1.9912-7.256-3.9353-10.8905-5.8911-1.8839-1.5462-3.8002-3.0549-5.6422-4.6495-1.7347-1.5018-3.4125-3.0794-3.925-5.3293 2.8948 1.566 5.7792 3.1264 8.6636 4.6868.8546.4271 1.6809.9276 2.5682 1.2699 7.8459 3.0261 16.0056 4.033 24.3579 3.623 9.3048-.4568 16.7104-4.3589 21.6075-12.4297 3.979-6.5579 5.2826-13.7431 4.356-21.3256-.5498-4.4994-1.7549-8.7946-4.4453-12.5493-1.01-1.6505-1.9651-3.3378-3.0401-4.9448-3.7502-5.6058-8.5477-10.1657-14.2819-13.6724-6.2963-3.8504-13.2247-5.5722-20.5907-5.3414-6.2895.1971-12.3163 1.7186-18.1442 4.0426-9.1012 3.6292-17.016 9.028-22.9992 16.7926-5.3544 6.9487-10.1868 14.2998-15.2417 21.4789-4.5252 6.4268-8.8868 12.9762-13.6105 19.2533-3.3788 4.4899-7.8691 7.7034-13.4127 9.1758-1.0126.269-.8753.8884-.8557 1.6215.1143 4.2761.1989 8.553.2935 12.8296-.0587.7358-.1174 1.4717-.1761 2.2075-.009.1638-.018.3277-.027.4915-.0226.5322-.0451 1.0645-.0677 1.5967-.2664 3.8589-.5327 7.7178-.7991 11.5768-.2531 1.0221-.5001 2.0457-.7604 3.066-.5518 2.1634-.1071 2.9972 2.034 3.7903zm-248.7105 73.768c-.7624 2.0954-1.6033 4.1674-2.242 6.2999-.2072.6917.1153 1.5421.1955 2.3199.3762.1172.7454.2699 1.1297.3463 5.4608 1.086 10.8527.3954 16.2387-.6136 7.2065-1.3501 12.9453-4.9267 17.2359-10.9279 3.4482-4.823 5.9461-10.0658 7.7784-15.6809.4399-1.3483.3093-2.3642-.5945-3.3654-2.2516-2.4946-4.4997-4.9923-6.7492-7.4888-4.1092-5.5952-8.235-11.1783-12.3141-16.7954-.845-1.1637-1.8616-1.3794-3.2005-1.1822-5.5833.8227-11.2205 1.1812-16.7271-.205-6.9162-1.7411-13.762-3.7759-20.5974-5.8206-9.5667-2.8617-19.1748-5.3498-29.2986-4.7045-7.9399.5061-15.5074 2.472-22.6445 5.9621-6.9832 3.4148-12.9055 8.2162-17.7752 14.278-3.6572 4.5526-6.7814 9.4405-8.9791 14.8804-.0999.1123-.2305.2094-.2953.3392-3.308 6.6214-4.5783 13.5281-2.538 20.7674 1.202 4.2649 3.5786 7.7913 8.0101 9.2009 2.092.6654 4.3941.8025 6.6141.9117 14.1731.6972 26.8885-2.8697 37.3304-12.9651.4341-.4196 1.0228-.6794 1.5395-1.0136.1253.1232.2505.2464.3758.3695-.5879.8429-1.063 1.8006-1.7833 2.5089-3.1656 3.1125-6.3936 6.1619-9.6166 9.2156-1.459 1.3823-1.8757 2.9662-1.1381 4.857 1.63 4.1787 4.5201 7.257 8.3954 9.3913 3.799 2.0924 7.9344 2.7664 12.2538 2.7604 10.9445-.0151 18.922-5.494 25.5159-13.6129 3.0191-3.2216 6.0381-6.4431 9.0572-9.6647 1.5958-2.9023 3.1916-5.8045 4.7874-8.7067.4179.7345.644 1.3819.6029 2.0118-.1377 2.1124-.3707 4.2185-.5672 6.327zm34.7237-118.9641c1.3266-1.2517 2.6322-2.5381 4.6367-1.1513.1824.1262.5816-.0628.8805-.1029 7.3159-.9804 14.6319-1.9603 21.9478-2.9408 2.9934-.4012 5.9866-.8035 9.3265-1.2518-2.4678-2.0711-4.6431-3.8966-6.8183-5.7221-3.3394-3.5165-6.6841-7.028-10.0162-10.5514-2.1992-2.3254-4.386-4.7861-4.5872-8.1077-.2402-3.9656-.0744-7.9601.0153-11.9398.0582-2.5829.2948-5.1618.4616-7.9107-.6114.1456-1.2521.2472-1.8588.4504-5.8107 1.9462-11.6094 3.9285-17.4249 5.8601-2.8556.9484-5.7356 1.8245-8.6124 2.7079-1.2685.3896-2.1219-.2016-2.8744-1.2031-.503-.6693-1.1458-1.2757-1.833-1.7577-4.3072-3.021-8.6576-5.9804-12.9657-9.0002-1.8623-1.3055-3.6577-2.7064-5.5605-4.1213-.1052.3749-.169.5183-.1836.6665-.8203 8.339-1.6465 16.6774-2.4384 25.019-.085.8951-.2141 1.9108.1081 2.6931.6275 1.5236.391 2.7796-.5459 4.0112-1.578 2.0744-3.1683 4.1395-4.7411 6.2178-2.0925 2.7652-4.1732 5.5393-6.259 8.3095-1.8522 2.1366-3.7044 4.2732-5.6239 6.4873.4007.1662.5338.2367.6754.278 6.4108 1.8661 12.8064 3.7869 19.2391 5.5743 4.7224 1.3122 8.5398 3.6751 11.09 8.0322 3.7906 6.4763 7.7627 12.8464 11.6483 19.2673 1.1709 1.935 2.311 3.8887 3.4653 5.8338.1253-.017.2505-.0339.3758-.0509.8439-4.3949 1.6878-8.7898 2.5317-13.1848.1832-.526.4041-1.0422.5439-1.5796 1.8059-6.9422 3.6002-13.8876 5.3973-20.8323zm-4.4876 37.4845c-.2386.5522-.4543 1.1156-.7202 1.6543-.7699 1.5597-1.9015 2.6274-3.7445 2.7515-1.9152.129-3.2023-.8032-4.1067-2.3808-2.69-4.6918-5.4302-9.3564-8.0343-14.0956-2.8727-5.2278-5.6105-10.5298-8.4308-15.7866-.1681-.3133-.5418-.7049-.8301-.7135-.3055-.0091-.7858.3333-.9016.6334-.2305.5974-.4477 1.3015-.3471 1.9078.5082 3.0632 1.0059 6.1361 1.7185 9.1558 1.766 7.4835 4.6993 14.5566 7.8777 21.528 1.2645 2.7736 2.6736 5.4812 4.0169 8.2188.0699.2437.0926.5152.217.727 1.6284 2.7723 3.3604 5.4877 4.8939 8.3111 4.9702 9.1513 10.99 17.5689 17.7377 25.4701 9.3578 10.9575 19.8374 20.7234 31.4839 29.22 8.0242 5.8539 16.5238 10.9166 25.4871 15.1998 8.1687 3.9035 16.625 7.0356 25.3022 9.6116s17.5395 4.2552 26.4532 5.7144c4.8308.7908 9.6593 1.5968 14.4972 2.3417 1.589.2447 3.3076.826 4.7199-.4085 3.8473-3.3628 7.6331-6.796 11.4433-10.2013.3945-.3172.8142-.6079 1.1799-.9554 8.6065-8.1808 16.4171-17.0722 23.7375-26.4145 6.5893-8.4093 12.9306-16.9797 18.4039-26.1749 5.8752-9.8704 10.8322-20.147 13.6052-31.3335 1.2483-5.0355 1.9714-10.2012 2.9328-15.3078.2453-1.4007.5646-2.793.7242-4.2034 1.0796-9.5401.7347-19.036-.7488-28.5218-2.5044-16.0135-8.0645-30.7546-17.891-43.7575-4.4946-5.9475-9.7054-11.1746-15.898-15.3622-7.0807-4.788-14.8396-7.8136-23.3159-9.1154-9.7503-1.4975-19.2354-.9317-28.3602 3.0639-4.2665 1.8682-8.3005 4.1388-11.7689 7.3063-4.9763 3.6786-9.0663 8.1705-12.3268 13.4252-4.2734 6.8868-7.0828 14.4426-9.9665 21.9581-.28.7298-.1748 1.7268.0539 2.5117.9839 3.3754 2.0788 6.7185 3.1375 10.072.3607 1.1425.5053 2.2566-.3511 3.409-.3398-.3655-.5956-.6679-.8792-.9414-1.8912-1.8236-3.7884-3.641-5.6837-5.4604-1.0571-1.3359-2.0855-2.6958-3.1759-4.004-8.1716-9.8037-17.9088-17.4585-29.8465-22.278-8.8721-3.5818-17.3938-3.1738-25.7961 1.2752-1.0136.5367-1.6431 1.2159-1.2045 2.4453-1.0074 3.127-.5162 4.7939 1.9692 6.8796 1.1695.9814 2.2973 2.0128 3.4398 3.0262 6.2865 5.5761 12.5732 11.1519 18.8556 16.7325.9491.8431 1.8763 1.7108 3.0536 2.7864-3.5226.9061-6.6199 1.7028-9.7173 2.4995-.5045-.0007-1.0134-.0454-1.5128.005-3.401.3437-6.7981.7252-10.1998 1.0609-6.4962.6411-12.9971 1.2347-19.4897 1.9096-1.2574.1307-2.6528.3798-3.1209 1.8258-.4643 1.4343-.7243 2.9348-1.0739 4.4062-1.1992 4.4483-2.4156 8.892-3.5916 13.3464-.8143 3.084-1.5728 6.1828-2.3563 9.275-.5172 1.9171-1.0341 3.8343-1.5509 5.7514z" fill="#490f06"/><path d="m359.0386 250.8948c-.9614 5.1066-1.6845 10.2723-2.9328 15.3078-2.7731 11.1865-7.73 21.4631-13.6052 31.3335-5.4733 9.1952-11.8146 17.7657-18.4039 26.1749-7.3204 9.3423-15.131 18.2336-23.7375 26.4145-.3657.3476-.7854.6383-1.1801.9554-1.596-.3069-3.1898-.6242-4.7879-.9187-5.0428-.9293-10.1266-1.6768-15.1216-2.8144-7.6728-1.7474-15.2832-3.7682-22.9234-5.6594-8.9037-2.2039-17.6493-4.962-25.9692-8.7919-7.5842-3.4913-15.0879-7.2458-22.2792-11.4758-6.1301-3.6058-11.9342-7.834-17.5755-12.1849-6.4765-4.9951-12.0526-10.963-17.1069-17.4223-4.8287-6.171-8.8245-12.843-12.1308-19.9078-3.3748-7.2109-6.0509-14.7001-8.0224-22.4312-.2655-1.0412-.8359-2.0046-1.2651-3.0041.7834-3.0922 1.542-6.1909 2.3563-9.275 1.176-4.4544 2.3924-8.8981 3.5912-13.3466.3036-.0343.6134-.0422.911-.1065 5.3762-1.1607 10.7507-2.3293 16.1259-3.494 5.2234-1.1319 10.4521-2.2402 15.6676-3.4076 1.2165-.2723 2.3486-.7906 2.693-2.1993 3.0974-.7967 6.1947-1.5934 9.7173-2.4995-1.1773-1.0756-2.1045-1.9433-3.0536-2.7864-6.2825-5.5806-12.5692-11.1564-18.8556-16.7325-1.1425-1.0134-2.2703-2.0448-3.4398-3.0262-2.4854-2.0857-2.9765-3.7526-1.9692-6.8796 1.2732.0634 2.5573.2658 3.8178.1669 6.9082-.5417 13.7534.0173 20.4935 1.4481 7.5171 1.5957 13.9268 5.4368 19.3586 10.7947 4.7079 4.6438 10.2609 7.8016 16.3532 10.1518 1.8952 1.8194 3.7924 3.6369 5.6837 5.4604.2836.2735.5395.5759.8792.9414.8565-1.1525.7118-2.2665.3511-3.409-1.0587-3.3535-2.1536-6.6966-3.1375-10.072-.2288-.7848-.334-1.7819-.0539-2.5117 2.8837-7.5155 5.6931-15.0713 9.9665-21.9581 3.2606-5.2547 7.3505-9.7466 12.3269-13.4252.7575-.0419 1.5369.0166 2.2683-.144 2.4369-.535 4.8342-1.2769 7.2874-1.706 5.5923-.9781 11.2235-.8921 16.8511-.271 4.357.4809 8.7578.7354 13.0571 1.5331 8.9821 1.6664 17.018 5.5719 24.2291 11.1514 7.9901 6.1823 14.0908 13.9868 19.1164 22.667 4.5021 7.776 7.7204 16.0689 9.9717 24.7751 2.3074 8.9231 3.2948 18.0073 3.8737 27.1652.1143 1.8122.3979 3.6134.6035 5.4195zm-179.4563 6.6967c-1.1948 16.8988 11.2444 31.8559 29.2447 32.8034 17.8674.9406 31.3918-12.1752 32.5359-28.8112 1.2069-17.5496-11.2949-32.2996-29.6808-33.2016-17.335-.8503-31.2549 12.3401-32.0998 29.2094zm123.7078 13.1774c16.5394 1.2122 31.2771-11.5645 32.617-27.9833 1.4363-17.5984-11.4441-32.6241-28.1869-33.8539-17.2799-1.2693-32.3425 11.5031-33.6179 28.4226-1.3047 17.3105 11.5582 32.4093 29.1878 33.4146zm-19.8223 3.5328c-.1553-.1452-.3105-.2904-.4659-.4357-.3274.447-.6035.9453-.9909 1.3322-1.6629 1.6603-3.3536 3.2929-5.0435 4.9261-3.4836 3.3667-7.661 5.172-12.4907 4.8355-3.3938-.2365-6.7548-.9892-10.1198-1.5722-1.3953-.2418-2.763-.6425-4.4463-1.043.2926.5493.3541.752.4842.8899.2437.2584.5117.4999.7963.7128 5.3223 3.9815 11.362 5.1522 17.8319 4.3972 5.3512-.6245 9.6934-3.0825 12.7235-7.611 1.2945-1.9347 2.078-4.0569 1.7212-6.4318z" fill="#fe7b60"/><path d="m442.1561 217.3807c-2.8844-1.5604-5.7688-3.1207-8.6636-4.6868.5125 2.2498 2.1903 3.8275 3.925 5.3293 1.842 1.5946 3.7584 3.1033 5.6428 4.6499.6947 1.0743 1.1985 2.3635 2.1207 3.1797 2.2532 1.9938 3.179 4.5851 2.67 7.2772-.9131 4.8293-3.9738 8.2996-8.598 9.9295-3.0361 1.0702-6.2886 1.6786-9.4958 2.0661-2.8536.3448-5.7869.2472-8.6694.0788-3.2895-.1921-6.5617-.6785-9.8415-1.037-7.2281-3.3654-14.0512-7.3052-19.1776-13.6897.6717 3.608 2.573 6.4328 4.8864 9.0483 2.5348 2.8657 5.0144 5.78 7.5179 8.6728-2.3775 1.5571-4.6489 3.3163-7.1535 4.631-5.6985 2.9912-11.7161 4.0884-18.1347 2.629-3.1604-.7186-6.4072-1.0569-9.6149-1.5673-.6408-.2713-1.2816-.5427-1.9225-.814.2664-3.8589.5327-7.7178.7991-11.5767.0226-.5322.0451-1.0645.0677-1.5968.009-.1638.018-.3277.027-.4915.0587-.7358.1174-1.4717.1761-2.2075-.0946-4.2766-.1792-8.5535-.2935-12.8296-.0196-.7331-.1569-1.3526.8557-1.6215 5.5436-1.4724 10.0339-4.6859 13.4127-9.1758 4.7237-6.2771 9.0853-12.8265 13.6105-19.2533 5.0549-7.1791 9.8873-14.5303 15.2417-21.4789 5.9832-7.7646 13.898-13.1634 22.9992-16.7926 5.8279-2.324 11.8547-3.8455 18.1442-4.0426 7.366-.2308 14.2944 1.4909 20.5907 5.3414 5.7342 3.5067 10.5316 8.0667 14.2819 13.6724 1.0751 1.607 2.0301 3.2943 3.04 4.9446-.2256 3.4672-.4182 6.9371-.6833 10.4015-.5264 6.877-3.4731 12.635-8.496 17.2479-7.2775 6.6834-16.0257 9.3863-25.8165 9.0774-2.4831-.0783-5.0009-.144-7.453.1712-2.7329.351-4.9739 1.7135-5.9955 4.5136z" fill="#fdfdfd"/><path d="m21.6664 311.0037c2.1977-5.4399 5.3218-10.3279 8.9791-14.8804 4.8697-6.0618 10.792-10.8633 17.7752-14.278 7.1371-3.49 14.7046-5.4559 22.6445-5.9621 10.1238-.6453 19.7319 1.8428 29.2986 4.7045 6.8353 2.0446 13.6812 4.0795 20.5974 5.8206 5.5066 1.3862 11.1438 1.0277 16.7271.205 1.3389-.1972 2.3555.0185 3.2005 1.1822 4.0791 5.6171 8.2048 11.2002 12.3139 16.7952-.8511 3.352-1.7105 6.7021-2.5508 10.0569-.967 3.8605-2.4559 7.3814-6.2167 9.3708-4.6436 2.4564-9.2773 4.9352-13.9812 7.2717-1.3226.657-2.8766.8479-4.5399 1.3129.1148-.6141.1656-.9479.2406-1.2762.3374-1.4755.8711-2.9349.985-4.4268.2527-3.311-1.9935-7.0047-5.0644-8.2546-3.2835-1.3364-6.5237-1.0168-9.1103 1.5127-2.3232 2.2719-4.3931 4.814-6.4722 7.322-5.1192 6.1751-10.8878 11.4431-18.7033 14.022-4.7867 1.5795-9.6014 2.2325-14.2472-.2-3.4553-1.8092-3.7304-1.8743-2.1002-5.4233 1.4672-3.1942 2.6995-6.4995 3.9544-9.7867.7232-1.8945-.1174-3.1274-2.1587-3.2086-2.904-.1155-5.8139-.2235-8.7178-.1642-3.0678.0627-6.02.6243-8.869 1.9698-4.238 2.0014-8.5299 3.9441-12.9428 5.5047-4.6667 1.6504-9.5248 1.7232-14.2697.085-2.7345-.9441-4.6059-2.7626-4.9971-5.8087-.5767-4.4908-1.182-8.9778-1.775-13.4664z" fill="#fdfdfd"/><path d="m151.9969 246.4706c.4292.9994.9995 1.9629 1.2651 3.0041 1.9715 7.731 4.6477 15.2203 8.0224 22.4312 3.3064 7.0648 7.3022 13.7368 12.1308 19.9078 5.0543 6.4594 10.6304 12.4272 17.1069 17.4223 5.6413 4.3509 11.4454 8.5791 17.5755 12.1849 7.1913 4.2299 14.6949 7.9845 22.2792 11.4758 8.3199 3.8299 17.0655 6.588 25.9692 8.7919 7.6402 1.8912 15.2506 3.912 22.9234 5.6594 4.9951 1.1376 10.0789 1.8851 15.1216 2.8144 1.5981.2945 3.1919.6118 4.7879.9187-3.81 3.4053-7.5958 6.8385-11.4431 10.2013-1.4123 1.2345-3.131.6532-4.7199.4085-4.8379-.745-9.6664-1.551-14.4972-2.3417-8.9137-1.4592-17.776-3.1384-26.4532-5.7144s-17.1335-5.7081-25.3022-9.6116c-8.9633-4.2832-17.4629-9.3459-25.4871-15.1998-11.6465-8.4966-22.1261-18.2625-31.4839-29.22-6.7477-7.9012-12.7675-16.3188-17.7377-25.4701-1.5334-2.8234-3.2655-5.5388-4.8939-8.3111-.1244-.2118-.147-.4832-.2159-.7273.3635-.1074.7352-.3287 1.0865-.3 1.0052.0819 2.0001.3717 3.0027.3916 6.7836.1345 10.8209-4.5819 10.479-11.1888-.0315-.6086-.6963-1.1845-1.0671-1.7756.5173-1.9173 1.0342-3.8345 1.551-5.7515z" fill="#fb4d33"/><path d="m105.5912 204.9124c2.0858-2.7702 4.1665-5.5443 6.259-8.3095 1.5728-2.0784 3.1631-4.1434 4.7411-6.2178.9369-1.2316 1.1733-2.4876.5459-4.0112-.3222-.7823-.193-1.798-.1081-2.6931.7919-8.3417 1.6182-16.6801 2.4384-25.019.0146-.1483.0784-.2917.1836-.6665 1.9028 1.4149 3.6982 2.8158 5.5605 4.1213 4.3081 3.0198 8.6585 5.9792 12.9657 9.0002.6872.482 1.33 1.0883 1.833 1.7577.7525 1.0015 1.6058 1.5926 2.8744 1.2031 2.8768-.8834 5.7567-1.7595 8.6124-2.7079 5.8156-1.9315 11.6142-3.9138 17.4249-5.8601.6067-.2032 1.2474-.3049 1.8588-.4504-.1669 2.749-.4034 5.3278-.4616 7.9107-.0897 3.9797-.2555 7.9742-.0153 11.9398.2012 3.3217 2.388 5.7823 4.5872 8.1077 3.3321 3.5234 6.6768 7.0349 10.016 10.5514-2.8987.038-5.7974.1166-8.6958.1045-4.3282-.018-8.6587-.2103-12.983-.1087-2.2167.0521-4.4917.3397-6.6166.9509-3.1681.9113-4.8564 6.4709-2.9574 9.2184.2944.4259.8467.6736 1.2797 1.0037-1.7971 6.9447-3.5914 13.8901-5.3972 20.8326-.1398.5373-.3607 1.0535-.5439 1.5793-.3114-.2342-.7421-.4015-.9156-.7123-1.4382-2.5772-2.8182-5.1867-4.2361-7.7754-2.6591-4.8547-5.2415-9.7547-8.0376-14.5294-1.3561-2.3157-3.2532-4.122-6.2263-4.4151-1.753-.1728-3.4659-.7281-5.2053-1.0681-2.6856-.5249-5.3837-.9867-8.067-1.5226-3.5759-.7146-7.1429-1.4742-10.7138-2.2142z" fill="#fde02f"/><path d="m21.6664 311.0037c.5931 4.4886 1.1983 8.9756 1.775 13.4663.3911 3.0461 2.2625 4.8647 4.9971 5.8087 4.7449 1.6382 9.6029 1.5654 14.2697-.085 4.4129-1.5606 8.7048-3.5033 12.9428-5.5047 2.849-1.3455 5.8012-1.9071 8.869-1.9698 2.9039-.0593 5.8138.0487 8.7178.1642 2.0413.0812 2.8819 1.3141 2.1587 3.2086-1.2548 3.2872-2.4872 6.5925-3.9544 9.7867-1.6301 3.549-1.355 3.6141 2.1002 5.4233 4.6457 2.4326 9.4604 1.7795 14.2472.2 7.8155-2.5789 13.5842-7.847 18.7033-14.022 2.0791-2.508 4.149-5.0501 6.4722-7.322 2.5866-2.5294 5.8268-2.8491 9.1103-1.5127 3.0709 1.2499 5.3172 4.9436 5.0644 8.2546-.1139 1.4919-.6475 2.9514-.985 4.4268-.0751.3283-.1258.6621-.2406 1.2762 1.6633-.4649 3.2174-.6559 4.5399-1.3129 4.7039-2.3364 9.3376-4.8153 13.9812-7.2717 3.7608-1.9894 5.2497-5.5103 6.2167-9.3708.8403-3.3548 1.6997-6.7049 2.5508-10.0569 2.2496 2.4967 4.4977 4.9945 6.7494 7.489.9037 1.0013 1.0344 2.0172.5945 3.3654-1.8322 5.6151-4.3301 10.858-7.7784 15.6809-4.2906 6.0013-10.0294 9.5779-17.2359 10.9279-5.386 1.009-10.7779 1.6996-16.2387.6136-.3843-.0764-.7535-.2291-1.1296-.3461.3014-.5237.5351-1.1038.9156-1.5619 1.6539-1.9908 3.3666-3.9327 5.0147-5.928.2522-.3054.2784-.7974.4091-1.2031-.3765-.0846-.7582-.2581-1.1286-.2368-1.0573.0608-2.11.2008-3.1646.3097.1965-2.1085.4295-4.2146.5672-6.3269.0411-.6299-.185-1.2773-.6029-2.0118-1.5958 2.9023-3.1916 5.8045-4.7873 8.7066-3.0974-.3881-5.936-.0714-8.238 2.4276-1.8082 1.963-2.2914 5.295-.8193 7.2372-6.5939 8.119-14.5714 13.5978-25.5159 13.6129-4.3194.006-8.4548-.668-12.2538-2.7604-3.8753-2.1344-6.7654-5.2126-8.3954-9.3913-.7375-1.8908-.3209-3.4746 1.1381-4.857 3.223-3.0537 6.451-6.1031 9.6166-9.2156.7203-.7083 1.1954-1.666 1.7833-2.5089-.1253-.1232-.2505-.2464-.3758-.3695-.5167.3342-1.1055.5939-1.5395 1.0136-10.4419 10.0953-23.1573 13.6622-37.3304 12.9651-2.22-.1092-4.5221-.2462-6.6141-.9117-4.4315-1.4096-6.8081-4.936-8.0101-9.2009-2.0403-7.2393-.77-14.146 2.538-20.7674.065-.1297.1956-.2267.2955-.3391zm47.0847 28.2006c-4.1423-1.3246-8.3034 1.7074-7.5595 5.3367 3.0523-.9999 5.7747-2.3834 7.5595-5.3367z" fill="#a8d7ef"/><path d="m359.0386 250.8948c-.2056-1.8062-.4892-3.6074-.6038-5.4193-.5788-9.1579-1.5663-18.2421-3.8737-27.1652-2.2513-8.7062-5.4696-16.9992-9.9717-24.7751-5.0256-8.6802-11.1263-16.4848-19.1164-22.667-7.2112-5.5795-15.2471-9.485-24.2291-11.1514-4.2993-.7977-8.7001-1.0522-13.0571-1.5331-5.6276-.6211-11.2588-.707-16.8511.271-2.4533.4291-4.8505 1.171-7.2874 1.706-.7314.1606-1.5108.1021-2.2683.144 3.4683-3.1675 7.5023-5.438 11.7689-7.3062 9.1248-3.9955 18.6099-4.5613 28.3602-3.0639 8.4763 1.3018 16.2352 4.3274 23.3159 9.1154 6.1926 4.1875 11.4034 9.4147 15.898 15.3622 9.8265 13.0029 15.3866 27.744 17.891 43.7575 1.4835 9.4858 1.8284 18.9817.7488 28.5218-.1596 1.4103-.4789 2.8027-.7242 4.2033z" fill="#fbc1b4"/><path d="m442.1561 217.3807c1.0216-2.8002 3.2626-4.1626 5.9954-4.5139 2.4521-.3153 4.9699-.2496 7.453-.1712 9.7909.3089 18.5391-2.394 25.8165-9.0774 5.0229-4.6129 7.9696-10.3709 8.496-17.2479.2652-3.4644.4578-6.9343.6833-10.4015 2.6904 3.755 3.8956 8.0502 4.4454 12.5495.9265 7.5825-.377 14.7677-4.356 21.3256-4.8971 8.0708-12.3027 11.973-21.6075 12.4297-8.3523.41-16.5121-.5969-24.3579-3.623-.8873-.3423-1.7136-.8428-2.5682-1.2699z" fill="#a8d4ed"/><path d="m105.5912 204.9124c3.5709.7401 7.1379 1.4996 10.7139 2.2138 2.6833.5359 5.3814.9977 8.067 1.5226 1.7394.34 3.4523.8953 5.2053 1.0681 2.9731.2931 4.8702 2.0994 6.2263 4.4151 2.7961 4.7747 5.3785 9.6748 8.0376 14.5294 1.4179 2.5886 2.7979 5.1982 4.2361 7.7754.1734.3109.6041.4782.9156.7123-.8439 4.3952-1.6878 8.7901-2.5317 13.1851-.1253.017-.2505.0339-.3758.0509-1.1542-1.9451-2.2943-3.8988-3.4653-5.8338-3.8856-6.4209-7.8577-12.7909-11.6483-19.2673-2.5502-4.357-6.3676-6.7199-11.09-8.0322-6.4327-1.7874-12.8283-3.7082-19.2391-5.5743-.1416-.0412-.2746-.1117-.6754-.278 1.9194-2.214 3.7716-4.3505 5.6238-6.4871z" fill="#fcbe03"/><path d="m369.5699 253.8913c3.2077.5104 6.4545.8487 9.6149 1.5673 6.4186 1.4594 12.4362.3622 18.1347-2.629 2.5047-1.3147 4.7761-3.0739 7.1535-4.631 3.7258 2.4695 7.4514 4.9386 11.4244 7.5716-4.246 3.0006-8.1584 6.0261-12.3292 8.6391-4.1179 2.5799-8.857 3.0316-13.5981 2.5699-6.9564-.6774-13.702-2.1912-19.6967-6.0604-.4679-.302-.9025-.6556-1.3526-.9853.2163-2.0141.4327-4.0281.6491-6.0422z" fill="#a8d4ed"/><path d="m150.4464 252.2219c.3707.5911 1.0356 1.1669 1.0671 1.7756.3419 6.6068-3.6955 11.3233-10.479 11.1888-1.0027-.0199-1.9975-.3096-3.0027-.3916-.3514-.0286-.7231.1926-1.0865.3-1.3443-2.7373-2.7535-5.4449-4.018-8.2185-3.1783-6.9715-6.1117-14.0446-7.8777-21.528-.7126-3.0197-1.2103-6.0926-1.7185-9.1558-.1006-.6064.1166-1.3105.3471-1.9078.1158-.3001.5961-.6425.9016-.6334.2884.0086.662.4002.8301.7135 2.8204 5.2569 5.5581 10.5588 8.4308 15.7866 2.6042 4.7392 5.3443 9.4038 8.0343 14.0956.9045 1.5775 2.1915 2.5097 4.1067 2.3808 1.843-.1241 2.9747-1.1918 3.7445-2.7515.2658-.5387.4815-1.1022.7202-1.6543z" fill="#f63218"/><path d="m235.764 205.2789c-6.0923-2.3502-11.6453-5.508-16.3532-10.1518-5.4317-5.3579-11.8414-9.199-19.3586-10.7947-6.74-1.4307-13.5852-1.9898-20.4935-1.4481-1.2605.0988-2.5446-.1036-3.8178-.1669-.4386-1.2294.1909-1.9086 1.2045-2.4453 8.4023-4.4491 16.924-4.8571 25.7961-1.2752 11.9377 4.8195 21.6749 12.4743 29.8465 22.278 1.0905 1.3082 2.1188 2.668 3.176 4.004z" fill="#f8beb3"/><path d="m411.2464 244.1673c3.2797.3585 6.552.8449 9.8415 1.037 2.8825.1684 5.8158.266 8.6694-.0788 3.2073-.3875 6.4597-.9959 9.4958-2.0661 4.6242-1.6299 7.6848-5.1002 8.598-9.9295.509-2.6921-.4169-5.2834-2.67-7.2772-.9223-.8161-1.426-2.1053-2.1207-3.1796 3.634 1.9554 7.2749 3.8996 10.89 5.8907.2673.1472.5464.6758.4861.9551-1.0727 4.974-1.6977 10.0911-4.7164 14.4417-3.551 5.1175-8.5302 7.7341-14.6272 7.9552-8.8415.3208-16.6923-2.7179-23.8465-7.7485z" fill="#a9d4eb"/><path d="m154.934 214.7374c-.433-.3301-.9853-.5778-1.2797-1.0037-1.899-2.7475-.2107-8.3071 2.9574-9.2184 2.1249-.6112 4.3998-.8989 6.6166-.9509 4.3244-.1016 8.6548.0907 12.983.1087 2.8983.0121 5.797-.0665 8.6958-.1045 2.1755 1.8255 4.3507 3.651 6.8186 5.7221-3.3399.4483-6.3331.8507-9.3265 1.2518-7.3159.9805-14.6319 1.9603-21.9478 2.9408-.2989.04-.6981.2291-.8805.1029-2.0046-1.3869-3.3103-.1005-4.6369 1.1512z" fill="#fbbe03"/><path d="m193.3419 214.6416c-.3444 1.4087-1.4765 1.927-2.693 2.1993-5.2155 1.1674-10.4441 2.2757-15.6676 3.4076-5.3753 1.1648-10.7498 2.3333-16.1259 3.494-.2976.0643-.6074.0721-.911.1065.3501-1.4712.61-2.9717 1.0744-4.406.4681-1.446 1.8635-1.6951 3.1209-1.8258 6.4926-.6749 12.9935-1.2685 19.4897-1.9096 3.4017-.3357 6.7989-.7172 10.1998-1.0609.4993-.0505 1.0083-.0058 1.5127-.0051z" fill="#f84c33"/><path d="m106.33 343.7341c-1.4721-1.9421-.9889-5.2742.8193-7.2372 2.302-2.4991 5.1406-2.8157 8.238-2.4276-3.0192 3.2217-6.0382 6.4433-9.0573 9.6648z" fill="#78bbde"/><path d="m120.2103 333.7015c1.0546-.1089 2.1073-.2489 3.1646-.3097.3704-.0213.7521.1522 1.1286.2368-.1307.4057-.1569.8977-.4091 1.2031-1.6482 1.9953-3.3609 3.9372-5.0147 5.928-.3806.458-.6142 1.0381-.9156 1.5619-.0804-.7781-.4029-1.6284-.1957-2.3202.6385-2.1326 1.4795-4.2045 2.2419-6.2999z" fill="#79badc"/><g fill="#beb3b6"><path d="m369.5699 253.8913c-.2164 2.0141-.4327 4.0281-.649 6.0422-2.1411-.7931-2.5858-1.6269-2.0338-3.7903.2603-1.0202.5073-2.0439.7604-3.066.6407.2714 1.2815.5428 1.9224.8141z"/><path d="m368.7173 237.2047c-.0587.7359-.1174 1.4717-.1761 2.2075.0587-.7358.1174-1.4716.1761-2.2075z"/><path d="m368.5142 239.9038c-.0226.5323-.0451 1.0645-.0677 1.5968.0226-.5323.0451-1.0646.0677-1.5968z"/></g><path d="m179.5823 257.5915c.845-16.8694 14.7648-30.0597 32.0998-29.2093 18.3859.902 30.8876 15.652 29.6808 33.2016-1.1441 16.636-14.6685 29.7517-32.5359 28.8112-18.0003-.9476-30.4395-15.9047-29.2447-32.8035zm33.1677 21.5076c8.4134.7 15.2531-7.6616 12.6586-15.6962-1.8009-5.5771-5.3277-10.2057-9.0495-14.6314-3.1206-3.7109-7.1722-4.7636-11.7448-3.2391-4.5242 1.5084-7.0721 4.8807-7.5127 9.5263-.5953 6.2768 1.3932 11.9441 4.6993 17.2535 2.5659 4.1211 6.0656 6.5141 10.9491 6.7869z" fill="#fbfaf9"/><path d="m303.2901 270.7689c-17.6297-1.0052-30.4925-16.1041-29.1877-33.4147 1.2754-16.9195 16.338-29.6919 33.6179-28.4226 16.7428 1.2299 29.6231 16.2556 28.1869 33.8539-1.34 16.4188-16.0776 29.1955-32.6171 27.9834zm14.1023-20.9925c-.0178-1.8344.1-3.6825-.083-5.5003-.3309-3.2883-.4539-6.6711-1.3652-9.8107-1.4641-5.0439-6.0049-7.8577-11.6854-7.9222-4.5312-.0514-9.2293 3.3958-10.8766 8.1016-2.2601 6.4565-2.2177 13.0843-.6202 19.6 1.2155 4.9579 4.7553 8.1512 9.8329 8.9677 4.9635.7982 9.2801-.7711 12.4685-4.8692 1.9701-2.5324 2.1746-5.5359 2.329-8.5669z" fill="#fafaf9"/><path d="m283.4678 274.3017c.3568 2.3749-.4267 4.497-1.7212 6.4318-3.0301 4.5285-7.3723 6.9866-12.7235 7.611-6.4699.755-12.5096-.4157-17.8319-4.3972-.2846-.2129-.5526-.4544-.7963-.7128-.1301-.1379-.1915-.3406-.4842-.8899 1.6832.4005 3.051.8012 4.4463 1.043 3.3651.5831 6.726 1.3358 10.1198 1.5722 4.8296.3365 9.0071-1.4688 12.4907-4.8355 1.6898-1.6332 3.3805-3.2658 5.0435-4.9261.3874-.3868.6636-.8852.9909-1.3322.1553.1453.3106.2905.4659.4357z" fill="#4f1007"/><path d="m68.7511 339.2043c-1.7849 2.9534-4.5072 4.3369-7.5595 5.3367-.7439-3.6294 3.4173-6.6614 7.5595-5.3367z" fill="#7dc6ee"/><path d="m212.7499 279.0993c-4.8834-.2729-8.383-2.666-10.9491-6.787-3.306-5.3094-5.2946-10.9767-4.6993-17.2535.4406-4.6456 2.9885-8.0179 7.5127-9.5263 4.5726-1.5246 8.6242-.4718 11.7448 3.2391 3.7217 4.4257 7.2486 9.0544 9.0495 14.6314 2.5946 8.0345-4.2451 16.396-12.6586 15.6963z" fill="#470c04"/><path d="m317.3924 249.7764c-.1544 3.0309-.3589 6.0345-2.3291 8.5668-3.1884 4.0982-7.505 5.6674-12.4685 4.8692-5.0775-.8166-8.6173-4.0098-9.8329-8.9677-1.5975-6.5157-1.6399-13.1434.6202-19.6 1.6472-4.7058 6.3454-8.153 10.8766-8.1016 5.6805.0645 10.2214 2.8782 11.6854 7.9222.9113 3.1397 1.0343 6.5224 1.3652 9.8107.1831 1.8179.0653 3.666.0831 5.5004z" fill="#470c04"/></g></svg>