<svg id="Layer_1" enable-background="new 0 0 512 512" height="512" viewBox="0 0 512 512" width="512" xmlns="http://www.w3.org/2000/svg"><g><path d="m272.6439 277.1241c3.6847-1.5217 7.3415-3.1154 11.0596-4.5507 8.5222-3.2896 17.2995-5.572 26.3663-6.8405 10.4489-1.4619 20.8528-1.5873 31.0425 1.3028 14.0289 3.9791 23.6713 12.54 27.1303 27.2138 2.1127 8.9622 1.6262 17.851-.4258 26.7222-3.5581 15.3828-10.6788 29.1558-19.1727 42.3075-7.1827 11.1216-15.6035 21.2744-24.5444 30.9869-10.8503 11.7866-22.5562 22.6834-34.9078 32.8998-13.2649 10.9717-26.9917 21.3242-41.3416 30.8169-10.9473 7.2418-22.1417 14.11-33.2111 21.1679-2.1454 1.368-4.2029 2.8731-6.3368 4.2599-1.2069.7844-2.1526.676-3.1482-.6423-8.1058-10.7341-16.6408-21.1629-24.3584-32.1663-8.4674-12.0724-16.3711-24.5529-24.1944-37.0594-4.5381-7.2548-8.4632-14.895-12.613-22.3901-5.1541-9.309-9.4626-19.0138-13.2382-28.9513-3.9775-10.4691-6.971-21.2266-9.1703-32.2088-1.5955-7.9674-2.0196-16.064-2.0065-24.1263.0137-8.4697 1.6749-16.7641 4.4763-24.824 2.6591-7.6507 6.4234-14.6253 11.6431-20.8182 5.6684-6.7251 12.4704-11.9665 20.229-16.1208 7.2107-3.8609 14.8199-6.341 22.8438-7.634 10.7099-1.7259 21.1965-.7993 31.4224 2.8742 13.2666 4.7658 23.7421 12.9417 30.8318 25.2479.3087.5358.5188 1.1275.8092 1.675.2911.5488.6253 1.0748 1.2092 2.0671 0-1.2595.0296-2.0704-.0046-2.8786-.3475-8.2197-.8234-16.4362-1.0265-24.6593-.1929-7.8116-.0886-15.6302-.145-23.4456-.0256-3.5448-.1769-7.0894-.1632-10.6337.0057-1.4654-.6471-2.1581-1.9725-2.509-5.6156-1.4867-11.1781-3.206-16.8432-4.4665-10.6569-2.3711-21.3109-4.8567-32.0786-6.6004-11.0149-1.7838-22.1597-2.7781-33.2577-4.029-4.2694-.4812-8.566-.7227-12.851-1.0622-2.0132-.1595-3.5498-1.3778-3.9555-3.1715-.4166-1.8419.3679-3.6016 2.3816-4.6257 4.9034-2.4938 9.8551-4.8935 14.8046-7.2958 6.0742-2.9482 12.1654-5.8612 18.25-8.788 9.5748-4.6056 19.1167-9.2812 28.734-13.7961 11.0671-5.1956 22.2182-10.2124 33.2728-15.434.8637-.408 1.6153-1.7463 1.8095-2.7681 1.4332-7.5419 2.6412-15.1264 4.0573-22.6718 1.6029-8.5403 3.1741-17.0933 5.0907-25.5658 1.4042-6.2075 3.1651-12.3505 5.0881-18.4206 2.5443-8.0311 5.3365-15.9862 8.1508-23.9283 1.5595-4.4009 3.3813-8.7089 5.2386-13.4513 1.5955 2.1179 3.2657 4.0154 4.5797 6.1337 6.327 10.1993 12.8582 20.2891 18.7425 30.7411 6.4998 11.545 12.4001 23.4286 18.5043 35.1944 1.3792 2.6584 2.5418 5.4305 3.7652 8.1677.5114 1.1444 1.2773 1.5392 2.5376 1.3804 7.9336-.9999 15.8675-2.004 23.8142-2.8908 5.3375-.5956 10.6958-1.0054 16.0456-1.4892 6.9799-.6312 13.9561-1.3101 20.9426-1.8585 4.3817-.344 8.7787-.5012 13.1701-.7152 6.0842-.2965 12.1694-.5725 18.2548-.8439.8145-.0363 1.6327-.005 2.4487.0131 2.2468.0499 4.0988.8981 4.9985 3.0288.8412 1.9918.5454 3.9793-.8988 5.6473-3.0783 3.5553-6.1835 7.0879-9.3186 10.5931-4.4489 4.9742-8.9818 9.8739-13.3944 14.8798-7.6776 8.71-16.0258 16.7163-24.9602 24.1215-.2874.2382-.513.551-.886.9586 2.7122 2.4634 5.4841 4.9571 8.2294 7.4798 4.5884 4.2163 9.2033 8.4051 13.7281 12.6889 6.7326 6.374 13.571 12.6504 20.0426 19.2823 7.0787 7.2541 13.8642 14.8002 20.6248 22.3557 2.4411 2.7282 4.832 5.6409 6.5564 8.841 3.315 6.152-.0219 9.5793-5.2987 10.7713-2.2005.4971-4.6417.4864-6.8859.1397-12.284-1.8979-24.5666-3.8279-36.7995-6.0264-12.0066-2.1578-23.9943-4.4616-35.9111-7.0638-7.5029-1.6383-14.8635-3.9313-22.281-5.9558-2.3458-.6402-4.648-1.458-7.0167-1.9855-.666-.1483-1.7726.2133-2.2114.7337-6.4961 7.703-12.8369 15.5376-19.3697 23.2089-7.6868 9.0264-15.5253 17.9236-23.2942 26.8802-1.2519 1.4432-2.484 2.9036-3.7253 4.3561.0975.0745.1947.1493.2919.2241zm-103.5499-94.7659c2.603.3771 5.2138.7075 7.8076 1.1396 10.0071 1.6671 20.0351 3.2266 30.0034 5.1018 7.0679 1.3296 14.0525 3.1019 21.0743 4.6766 4.8207 1.429 9.6413 2.858 14.4631 4.2858 1.4659.8034 2.9599 1.5611 4.3812 2.4368.453.2791.9878.8551 1.0157 1.3231.1556 2.6139.2142 5.2364.2177 7.856.0064 4.7859-.2421 9.5804-.0335 14.356.3188 7.2966.9776 14.5776 1.4135 21.87.4252 7.115.7023 14.2389 1.1356 21.3533.4249 6.9768.9647 13.9466 1.4943 21.4925 1.9785-2.3858 3.5658-4.2999 5.1531-6.214.8883-.8848 1.84-1.7151 2.6552-2.6628 9.0034-10.4673 17.9998-20.9408 26.9606-31.4445 1.6185-1.8972 3.0674-3.939 4.5946-5.9141 1.5269-1.6435 3.1244-3.2277 4.5686-4.941 6.0449-7.1715 12.3815-14.0604 19.5266-20.1566.7895-.6736 1.9922-.8629 3.0033-1.2768 1.7813.297 3.5734.5412 5.3424.8993 17.9814 3.6404 35.9148 7.5385 53.9517 10.8778 14.5242 2.6889 29.1693 4.7276 43.7692 7.001 1.8546.2888 3.76.2519 5.6419.3659.0916-.1884.1832-.3768.2748-.5652-2.1563-2.4644-4.3127-4.9289-6.4691-7.3933-.0909-.1645-.1516-.3577-.2768-.4896-8.378-8.8225-16.55-17.8534-25.1968-26.4043-10.9833-10.8615-22.3363-21.3501-33.5843-31.9418-.9076-.8546-2.2355-1.2628-3.3681-1.8784-.3513-1.2588-.7745-2.4172.2662-3.6895 5.9867-7.3192 11.6928-14.8782 17.888-22.0138 8.5115-9.8036 17.3755-19.3012 26.0835-28.9344.3567-.3946.6628-.8351 1.1889-1.5041-1.1392.0635-1.9312.118-2.7241.1501-5.5639.2254-11.128.4462-16.692.6685-.1868-.0218-.3754-.0729-.5601-.0611-9.2625.5904-18.524 1.1974-27.7872 1.7778-7.0444.4414-14.0975.7628-21.1345 1.2985-6.4402.4902-12.8594 1.2547-19.299 1.755-1.2107.0941-2.4738-.4864-3.7127-.7555-.0862-.1655-.1542-.344-.2614-.4947-10.1847-14.3212-18.9521-29.5095-27.559-44.8045-4.5121-8.0184-9.2994-15.882-13.9624-23.8155-.4445.1187-1.1212.0981-1.2913.3815-.5769.961-1.0609 1.9999-1.4267 3.062-2.2845 6.6338-4.817 13.2002-6.7203 19.9434-3.3854 11.994-6.6867 24.0284-9.4505 36.1762-2.5361 11.1471-4.3169 22.4661-6.4305 33.7093-.7791.7575-1.5583 1.515-2.3374 2.2725-.8181.2264-1.6854.3461-2.4464.6965-4.5907 2.114-9.1499 4.2961-13.7333 6.426-6.2481 2.9036-12.5177 5.761-18.7607 8.6754-5.3157 2.4815-10.6174 4.9938-15.9063 7.5319-6.586 3.1605-13.1525 6.3615-19.7274 9.545-4.8046 2.2689-9.6091 4.5377-14.4137 6.8066.0367.1673.0734.3346.1101.5019 3.7603.314 7.5204.628 11.2804.9419zm27.4756 276.7213c3.1351 4.3775 6.2667 8.7575 9.4078 13.1307.7542 1.05 1.5978.6575 2.4602.1258 8.0646-4.9724 16.2325-9.7853 24.1798-14.9384 15.7012-10.1807 30.8883-21.093 45.4834-32.8152 19.0873-15.3301 36.7776-32.0769 52.0358-51.2946 10.9509-13.7925 20.3985-28.45 26.2868-45.1881 2.9407-8.3593 4.7204-16.8917 4.0873-25.8109-.7769-10.9457-5.3912-19.508-15.536-24.4462-8.4878-4.1317-17.5428-4.9067-26.8152-4.0366-4.0139.4557-8.0278.9114-12.0417 1.3671-1.4818.2104-2.9873.317-4.442.6471-15.6473 3.5504-30.1254 9.9636-43.8877 18.0853-.9841.5807-1.7058 1.6062-2.5495 2.4249-2.3726 2.9791-5.7741 4.2945-9.1467 5.6567-1.8909-1.2025-2.6461-3.0239-3.0071-5.1581-.5639-3.3331-1.2713-6.6418-1.9124-9.9619-1.6887-8.7451-4.7401-16.9087-10.427-23.8944-8.0744-9.9184-18.69-15.651-31.0534-18.1417-3.6808-.7415-7.5703-.4474-11.3642-.6278-5.1555.7784-10.3111 1.5567-15.4665 2.335-.6763.1114-1.379.1402-2.0247.3469-8.3454 2.671-15.9769 6.6593-22.5602 12.4958-11.0274 9.7764-16.7344 22.3538-19.1342 36.6455-2.2222 13.2336-.6738 26.222 2.427 39.138 5.8284 24.2773 16.2334 46.6074 29.0902 67.8354 9.0674 14.9714 18.5563 29.6885 27.9341 44.4701 2.5136 3.9619 5.3097 7.7446 7.9761 11.6096z" fill="#37140d"/><path d="m246.092 301.9871c3.3726-1.3622 6.7741-2.6776 9.1467-5.6567.8353-.241 1.6986-.4124 2.5019-.7336 11.9716-4.7872 23.9663-9.519 35.8842-14.4366 4.2622-1.7587 8.3343-3.978 12.4931-5.9871 4.0139-.4557 8.0278-.9114 12.0418-1.3671.5595.9714 1.0144 2.024 1.6953 2.9011 4.9469 6.3715 9.8908 12.7467 14.937 19.0394 2.7337 3.4091 4.8143 7.0288 4.8903 11.5236.0628 3.7139-1.3466 7.056-2.4952 10.5104-2.745 8.2559-6.3336 16.0796-11.0482 23.384-6.2592 9.6977-14.126 18.084-22.27 26.1307-9.1345 9.0253-18.7697 17.5497-28.3066 26.1595-4.9218 4.4434-10.0458 8.6695-15.1827 12.8661-5.1819 4.2333-10.4715 8.3359-15.7525 12.4463-8.0464 6.2628-16.0784 12.5456-24.2068 18.7009-6.2856 4.7597-12.6938 9.3586-19.0814 13.982-1.8622 1.3479-3.8411 2.5345-5.7666 3.795-1.8094-3.2133-3.6965-6.3857-5.4126-9.648-3.9382-7.4863-7.7429-15.0429-11.6937-22.5225-5.8596-11.093-11.9023-22.0902-17.6671-33.2317-3.7406-7.2293-7.2005-14.6075-10.6505-21.9825-4.4404-9.4923-8.0795-19.2946-10.7445-29.4374-2.0539-7.8167-3.6817-15.7051-3.5425-23.8575.0639-3.7432-.104-7.494.0706-11.2303.1306-2.7958.5507-5.5886 1.0004-8.357 1.1407-7.0226 3.9978-13.3894 7.4865-19.5368 5.1239-9.029 11.907-16.5406 20.221-22.7127 2.7544-2.0448 5.4818-4.1259 8.2216-6.1905 5.1555-.7784 10.3111-1.5567 15.4668-2.335.3645.3227.683.7303 1.1001.9547 4.0801 2.195 8.261 4.2167 12.2449 6.5725 4.025 2.3801 8.2867 4.6179 11.6861 7.7433 6.5645 6.0354 10.3791 13.946 12.6681 22.4711 2.4327 9.0602 6.5673 17.3235 11.089 25.4355 1.167 2.0936 4.2201 2.3038 5.5643.4013 1.2887-1.8242 2.2858-3.8546 3.4112-5.7944zm-63.0139 14.1828c-.0117 9.5892 7.3437 17.1301 16.7359 17.1578 9.3947.0277 17.2956-7.4762 17.1582-16.5609-.152-10.0524-6.9382-17.3104-16.9562-17.2914-9.9355.0188-16.8051 7.3253-16.9379 16.6945zm85.3744 29.2714c9.8188.1926 17.1233-7.499 17.1003-16.5682-.0274-10.8312-8.6506-17.0595-16.9068-17.0477-9.5756.0137-17.274 8.1083-17.0202 17.5546.2105 7.8387 7.554 16.6085 16.8267 16.0613zm8.3884 20.7099c.7524 0 1.5085.0484 2.2566-.0087 2.634-.201 4.5134-1.6289 5.037-3.7786.618-2.537-.4457-5.2113-2.7411-6.4465-3.9867-2.1452-8.218-3.3431-12.805-2.9351-2.9273.2604-5.3424 2.0005-5.8545 4.2327-.5425 2.3645.5563 4.5286 3.1486 6.281 3.3258 2.2484 7.1287 2.5069 10.9584 2.6552zm-103.43-27.9172c-.0371.0822-.0742.1644-.1114.2466-1.3637.174-2.7316.3212-4.0891.5343-.6141.0964-1.2291.27-1.8071.5004-3.6049 1.4367-4.6638 4.9785-2.3637 7.695 2.4752 2.9234 11.1367 5.6095 15.5669 3.184 2.0184-1.1051 3.5654-2.5626 3.5948-5.092.0301-2.5882-1.2815-4.3891-3.5862-5.2124-2.3256-.8307-4.7968-1.254-7.2042-1.8559zm70.2177 31.1142c-.4122.1321-.7001.1698-.9295.3059-5.2249 3.0993-10.4045 6.2772-15.6742 9.2982-5.1977 2.9798-6.3628 2.495-8.4919-3.0863-1.0267-2.6917-2.048-5.3863-3.1394-8.0519-.4942-1.2068-1.718-1.8859-2.722-1.2806-.677.4081-1.2206 1.9741-.9911 2.7871.9852 3.4897 2.1068 6.9638 3.4979 10.3109 2.444 5.8806 6.2425 7.2411 12.1147 4.7315 7.0364-3.007 11.5305-8.8856 16.3951-14.3543.054-.0608-.0162-.2322-.0596-.6605z" fill="#feb4a8"/><path d="m242.6916 141.2331c.7791-.7575 1.5582-1.515 2.3374-2.2725 1.772.3754 5.0761-2.018 5.404-3.9143-2.7004-.5852-2.6871-.5819-1.9754-3.4243.7272-2.9042 1.411-5.8193 2.1377-8.7237 1.7568-7.0218 3.468-14.0557 5.31-21.0552 1.6846-6.4015 3.6273-12.7361 5.2562-19.151 2.118-8.3414 4.0225-16.7369 6.0706-25.0965.1786-.7292.7406-1.3644 1.1246-2.0433 1.0117 2.2753 2.0626 4.5341 3.0277 6.829 3.0336 7.2135 5.9802 14.4641 9.0635 21.6561 3.3066 7.7128 6.6023 15.4348 10.1396 23.0427 3.3027 7.1033 9.1882 11.4068 16.4187 13.9878 2.4285.8669 4.1986-.4829 4.4011-3.047.0857-1.085.4734-2.1461.7238-3.2181 1.2389.2692 2.502.8496 3.7127.7555 6.4395-.5003 12.8588-1.2648 19.299-1.755 7.037-.5357 14.0901-.8571 21.1345-1.2985 9.2632-.5804 18.5246-1.1874 27.7872-1.7778.1847-.0118.3733.0393.56.0611-.3645.2075-.7606.6342-1.088.5868-2.0813-.3015-3.5805.3772-4.7217 2.1919-.9945 1.5814-2.2257 3.0139-3.3494 4.5143-6.7412 9.0015-13.5414 17.9597-20.2 27.0219-4.0722 5.5422-5.1717 12.0706-5.8109 18.7419-.2226 2.3237 1.8102 3.8045 4.0383 3.3761 1.7148-.3297 3.4147-.737 5.1213-1.1098 1.1326.6156 2.4605 1.0238 3.3681 1.8784 11.248 10.5916 22.6009 21.0802 33.5843 31.9418 8.6468 8.5509 16.8189 17.5819 25.1968 26.4043.1252.1319.1859.325.2766.4896-3.0722-.7866-6.1454-1.569-9.2161-2.3608-8.5168-2.1962-16.9759-4.659-25.5668-6.5109-6.745-1.454-13.64-2.2477-20.4912-3.1633-6.3514-.8488-12.684-1.6947-19.1683-1.1797-7.1644.569-14.3769.5068-21.5603.8784-2.1834.1129-4.3396.7525-6.5082 1.1509-1.0111.4139-2.2138.6032-3.0033 1.2768-7.1451 6.0962-13.4817 12.9852-19.5266 20.1566-1.4442 1.7133-3.0416 3.2975-4.5686 4.941-.5405.1283-1.1721.1185-1.6077.4059-5.1066 3.3694-10.2849 6.6431-15.2441 10.2195-6.9441 5.0078-13.7193 10.2498-20.5667 15.3917-.3776-10.8328-.7199-21.6671-1.1538-32.4976-.135-3.3685-.4751-6.7311-.7984-10.089-.4424-4.5946-.8784-9.1924-1.4678-13.7694-.4771-3.7052-.9845-7.4267-1.8345-11.0576-.7762-3.3155-3.1135-4.281-6.3161-3.0546-4.8206-1.429-9.6413-2.858-14.462-4.287-.217-.2793-.3747-.6691-.6595-.8217-8.2433-4.4189-16.9193-7.7186-25.9544-10.1291-6.7523-1.8015-13.4655-3.7498-20.196-5.6327.9966-.8725 1.8732-1.9677 3.0099-2.5797 5.6621-3.0487 11.3882-5.9789 17.1003-8.9341 5.0411-2.608 10.1471-5.0959 15.1282-7.8132 7.1745-3.9137 14.3025-7.9176 21.3584-12.0402 1.8182-1.0622 3.2928-2.7124 4.9253-4.0924zm39.7508 5.4714c-.1143-9.6545-7.697-17.2104-17.1116-17.0513-9.2963.1572-16.7575 7.8222-16.6791 17.1349.0785 9.319 7.7662 16.8644 17.0475 16.7321 9.3578-.1334 16.8517-7.6597 16.7432-16.8157zm18.8179-24.8105c-9.8069.0797-17.141 7.4881-17.072 17.2448.0641 9.0642 7.8474 16.6006 17.074 16.5323 9.4436-.0699 16.8429-7.6431 16.7973-17.1922-.0435-9.0798-7.7204-16.6587-16.7993-16.5849zm21.0581 46.2128c3.9326.1763 7.384-1.2608 10.6649-3.1751 1.5677-.9147 2.4593-2.3322 2.1666-4.2547-.2762-1.814-1.2336-3.1804-2.9946-3.7466-4.8261-1.5515-9.5253-1.0387-13.9663 1.3132-2.0089 1.0639-2.795 3.0505-2.6103 5.2514.1756 2.0915 1.2814 3.7146 3.3904 4.3 1.0633.2952 2.2295.2197 3.3493.3118zm-73.628 17.7546c2.6874-.7766 5.5751-1.4792 8.3636-2.463 1.8623-.657 3.3107-3.6494 2.9606-5.4404-.42-2.148-2.7437-4.0755-4.9137-4.2923-3.9242-.3919-7.5207.7457-10.9717 2.3485-3.4435 1.5993-3.6748 6.4224-.3801 8.3383 1.3279.772 3.0055.9425 4.9413 1.5089zm40.2624 6.9888c.0403 1.7857.5069 2.8043 1.7863 3.4567 1.7881.9117 3.5127 1.9477 5.2989 2.8634 4.7766 2.449 7.9368 2.0977 11.7612-1.6208 4.9645-4.8271 7.6294-10.8725 8.7838-17.6755-.8165.5993-1.5375 1.2664-2.1426 2.0258-3.2831 4.1207-6.5133 8.2838-9.8134 12.3908-1.4343 1.785-3.2874 2.4654-5.528 1.5995-2.2794-.8809-4.5252-1.8581-6.8379-2.6386-.9805-.331-2.0941-.2677-3.3083-.4013z" fill="#fddd00"/><path d="m195.5722 455.2451c1.9254-1.2605 3.9043-2.4471 5.7665-3.795 6.3876-4.6234 12.7958-9.2223 19.0814-13.982 8.1283-6.1553 16.1604-12.4381 24.2068-18.7009 5.281-4.1104 10.5706-8.213 15.7525-12.4463 5.137-4.1966 10.2609-8.4227 15.1827-12.8661 9.5369-8.6099 19.1722-17.1342 28.3066-26.1595 8.144-8.0468 16.0108-16.4331 22.27-26.1307 4.7146-7.3044 8.3032-15.1281 11.0482-23.384 1.1486-3.4544 2.558-6.7965 2.4952-10.5104-.076-4.4948-2.1566-8.1145-4.8903-11.5236-5.0462-6.2927-9.99-12.6679-14.937-19.0394-.6809-.877-1.1358-1.9297-1.6953-2.9011 9.2724-.8701 18.3274-.0951 26.8152 4.0366 10.1447 4.9382 14.7591 13.5005 15.536 24.4462.6331 8.9192-1.1466 17.4515-4.0873 25.8109-5.8883 16.7382-15.3359 31.3956-26.2868 45.1881-15.2583 19.2177-32.9485 35.9645-52.0358 51.2946-14.5951 11.7222-29.7822 22.6345-45.4834 32.8152-7.9474 5.1531-16.1152 9.9659-24.1798 14.9384-.8624.5317-1.706.9242-2.4602-.1258-3.1411-4.3732-6.2727-8.7532-9.4079-13.1308.015-.4271.143-.8897.0221-1.274-.2748-.8739-.672-1.7093-1.0194-2.5604z" fill="#fd9a88"/><path d="m195.5722 455.2451c.3475.8511.7446 1.6865 1.0194 2.5604.1209.3843-.0072.8468-.0221 1.274-2.6663-3.865-5.4623-7.6477-7.9759-11.6096-9.3778-14.7816-18.8667-29.4987-27.9341-44.4701-12.8568-21.228-23.2618-43.5582-29.0902-67.8354-3.1008-12.916-4.6492-25.9044-2.427-39.138 2.3998-14.2917 8.1069-26.8691 19.1342-36.6455 6.5833-5.8365 14.2149-9.8248 22.5602-12.4958.6458-.2067 1.3485-.2355 2.0247-.3469-2.7398 2.0645-5.4673 4.1457-8.2217 6.1905-8.314 6.1721-15.097 13.6837-20.221 22.7127-3.4886 6.1473-6.3457 12.5142-7.4865 19.5368-.4497 2.7684-.8698 5.5612-1.0004 8.357-.1746 3.7363-.0068 7.4872-.0706 11.2303-.1391 8.1524 1.4886 16.0408 3.5425 23.8575 2.6651 10.1428 6.3041 19.9451 10.7445 29.4374 3.4499 7.375 6.9099 14.7532 10.6505 21.9825 5.7648 11.1414 11.8075 22.1387 17.6671 33.2317 3.9508 7.4795 7.7555 15.0362 11.6937 22.5225 1.7162 3.2623 3.6032 6.4347 5.4127 9.648z" fill="#fcd3cc"/><path d="m358.614 166.1114c-1.7065.3728-3.4065.78-5.1213 1.1098-2.2281.4285-4.261-1.0523-4.0383-3.3761.6393-6.6714 1.7387-13.1998 5.8109-18.7419 6.6586-9.0622 13.4588-18.0204 20.2-27.0219 1.1237-1.5005 2.3548-2.9329 3.3494-4.5143 1.1412-1.8147 2.6404-2.4935 4.7217-2.1919.3274.0474.7235-.3793 1.088-.5868 5.5641-.2223 11.1283-.4431 16.6921-.6685.7929-.0321 1.5849-.0867 2.7241-.1501-.5262.669-.8322 1.1095-1.1889 1.5041-8.708 9.6332-17.5719 19.1308-26.0835 28.9344-6.1952 7.1357-11.9014 14.6946-17.888 22.0138-1.0408 1.2722-.6175 2.4306-.2662 3.6894z" fill="#fac400"/><path d="m318.5289 215.64c2.1686-.3984 4.3248-1.038 6.5082-1.1509 7.1833-.3716 14.3959-.3094 21.5603-.8784 6.4843-.515 12.8169.3309 19.1683 1.1797 6.8512.9156 13.7462 1.7093 20.4912 3.1633 8.5909 1.8519 17.05 4.3147 25.5668 6.5109 3.0707.7919 6.1439 1.5742 9.2161 2.3608 2.1565 2.4644 4.3129 4.9288 6.4692 7.3933-.0916.1884-.1832.3768-.2748.5652-1.8819-.114-3.7873-.0771-5.6419-.3659-14.5999-2.2734-29.245-4.3121-43.7692-7.001-18.0369-3.3392-35.9703-7.2374-53.9517-10.8778-1.7691-.358-3.5612-.6022-5.3425-.8992z" fill="#fac400"/><path d="m246.092 301.9871c-1.1253 1.9398-2.1225 3.9702-3.4114 5.7944-1.3442 1.9025-4.3973 1.6923-5.5643-.4013-4.5217-8.112-8.6563-16.3753-11.089-25.4355-2.289-8.5251-6.1036-16.4357-12.6681-22.4711-3.3993-3.1254-7.661-5.3632-11.6861-7.7433-3.9839-2.3558-8.1648-4.3775-12.2449-6.5725-.4171-.2244-.7356-.632-1.1001-.9546 3.7937.1803 7.6832-.1138 11.364.6277 12.3633 2.4908 22.979 8.2233 31.0534 18.1417 5.6869 6.9857 8.7383 15.1493 10.427 23.8944.6411 3.3201 1.3485 6.6288 1.9124 9.9619.361 2.1343 1.1161 3.9557 3.0071 5.1582z" fill="#fd9886"/><path d="m312.131 114.8028c-.2505 1.072-.6381 2.1331-.7238 3.2181-.2025 2.5641-1.9727 3.9139-4.4011 3.047-7.2305-2.581-13.116-6.8845-16.4187-13.9878-3.5373-7.6079-6.833-15.3299-10.1396-23.0427-3.0833-7.192-6.03-14.4426-9.0635-21.6561-.9651-2.2949-2.0161-4.5537-3.0277-6.829-.2692-3.4765.5403-6.7351 1.9917-9.8642 4.663 7.9335 9.4503 15.7971 13.9624 23.8155 8.6069 15.295 17.3743 30.4833 27.559 44.8045.107.1507.175.3292.2613.4947z" fill="#fcc400"/><path d="m254.012 268.0315c6.8474-5.1418 13.6225-10.3839 20.5667-15.3917 4.9593-3.5764 10.1376-6.8501 15.2441-10.2195.4355-.2874 1.0671-.2776 1.6077-.4059-1.5272 1.9751-2.9761 4.0169-4.5946 5.9141-8.9608 10.5037-17.9572 20.9772-26.9606 31.4445-.8152.9477-1.7669 1.778-2.6556 2.6629-1.3847.4258-2.769.8516-4.4849 1.3792.2446-3.7526.4484-7.2898.718-10.8221.1164-1.5257.3686-3.0413.5592-4.5615z" fill="#fac400"/><path d="m242.6916 141.2331c-1.6324 1.3801-3.1071 3.0302-4.9252 4.0925-7.056 4.1226-14.184 8.1264-21.3584 12.0402-4.9811 2.7173-10.0871 5.2051-15.1282 7.8132-5.7122 2.9552-11.4382 5.8854-17.1003 8.9341-1.1367.6121-2.0134 1.7073-3.0099 2.5798-1.0035.0064-2.0071.0126-3.0107.0188-1.6026-.48-3.2254-.9045-4.796-1.4729-.4877-.1765-.8342-.7429-1.2453-1.1308 6.5749-3.1835 13.1415-6.3845 19.7275-9.545 5.289-2.5381 10.5906-5.0504 15.9063-7.5319 6.243-2.9144 12.5126-5.7718 18.7607-8.6754 4.5834-2.1299 9.1426-4.3121 13.7333-6.426.7608-.3505 1.628-.4703 2.4462-.6966z" fill="#fbe800"/><path d="m270.3482 45.6882c-1.4514 3.1291-2.2609 6.3877-1.9917 9.8642-.3839.6789-.946 1.3141-1.1246 2.0433-2.048 8.3596-3.9526 16.755-6.0706 25.0965-1.6288 6.4149-3.5716 12.7495-5.2562 19.151-1.8419 6.9995-3.5532 14.0334-5.31 21.0552-.7266 2.9044-1.4105 5.8195-2.1377 8.7237-.7117 2.8424-.725 2.8391 1.9754 3.4243-.3279 1.8964-3.632 4.2897-5.404 3.9143 2.1136-11.2432 3.8944-22.5622 6.4305-33.7093 2.7638-12.1478 6.0651-24.1822 9.4505-36.1762 1.9033-6.7432 4.4358-13.3096 6.7203-19.9434.3658-1.0621.8498-2.1009 1.4267-3.062.1703-.2835.8469-.2629 1.2914-.3816z" fill="#fae600"/><path d="m254.012 268.0315c-.1906 1.5202-.4428 3.0357-.5592 4.5616-.2695 3.5323-.4734 7.0695-.718 10.8221 1.7159-.5277 3.1002-.9534 4.4849-1.3793-1.5869 1.914-3.1743 3.8281-5.1528 6.2139-.5296-7.5459-1.0694-14.5157-1.4943-21.4925-.4333-7.1144-.7104-14.2383-1.1356-21.3533-.4358-7.2924-1.0947-14.5734-1.4135-21.87-.2086-4.7756.0399-9.5701.0335-14.356-.0035-2.6196-.0621-5.2421-.2177-7.856-.0279-.468-.5627-1.0441-1.0157-1.3231-1.4213-.8757-2.9153-1.6334-4.3817-2.4362 3.2021-1.2258 5.5394-.2603 6.3156 3.0552.8501 3.6309 1.3574 7.3525 1.8345 11.0576.5894 4.577 1.0254 9.1748 1.4678 13.7694.3233 3.3579.6634 6.7205.7984 10.089.4339 10.8306.7762 21.6648 1.1538 32.4976z" fill="#fbe700"/><path d="m178.1588 176.7116c1.0036-.0062 2.0072-.0124 3.0107-.0188 6.7305 1.8828 13.4437 3.8312 20.196 5.6326 9.0351 2.4105 17.711 5.7103 25.9544 10.1291.2848.1527.4425.5425.6595.8217-7.0218-1.5747-14.0064-3.347-21.0743-4.6766-9.9684-1.8752-19.9964-3.4347-30.0034-5.1018-2.5938-.4321-5.2046-.7625-7.8076-1.1396.9947-.6081 1.9942-1.2084 2.9829-1.8261 2.0303-1.2685 4.0549-2.5464 6.0818-3.8205z" fill="#f9c400"/><path d="m306.1179 275.1731c-4.1588 2.0091-8.2309 4.2284-12.4931 5.9871-11.9179 4.9177-23.9126 9.6494-35.8842 14.4366-.8033.3212-1.6666.4926-2.5019.7336.8438-.8188 1.5654-1.8442 2.5496-2.425 13.7623-8.1217 28.2404-14.5349 43.8877-18.0853 1.4546-.33 2.96-.4366 4.4419-.647z" fill="#f9cfc5"/><path d="m178.1588 176.7116c-2.0269 1.274-4.0515 2.552-6.0819 3.8205-.9887.6177-1.9882 1.2179-2.9829 1.8261-3.7601-.3139-7.5201-.6279-11.2802-.9418-.0367-.1673-.0734-.3346-.1101-.5019 4.8046-2.2689 9.6091-4.5377 14.4137-6.8066.4111.3879.7577.9544 1.2453 1.1308 1.5707.5684 3.1935.993 4.7961 1.4729z" fill="#f9d900"/><path d="m183.0781 316.1699c.1328-9.3691 7.0024-16.6757 16.9379-16.6945 10.018-.019 16.8041 7.239 16.9562 17.2914.1374 9.0847-7.7635 16.5886-17.1582 16.5609-9.3922-.0278-16.7477-7.5686-16.7359-17.1578zm20.476 3.2869c1.1818.0244 2.4357-.9049 2.9971-2.6222.6779-2.0736 1.1007-4.2326 1.816-6.2913.6062-1.7446.0047-3.1403-1.3809-3.8063-1.4132-.6793-2.998-.2134-3.9294 1.2695-1.2291 1.957-2.4983 3.9045-3.5281 5.967-1.3112 2.6264.4129 5.3223 4.0253 5.4833z" fill="#fdfbf8"/><path d="m268.4525 345.4413c-9.2727.5472-16.6161-8.2226-16.8268-16.0613-.2538-9.4463 7.4447-17.5409 17.0202-17.5546 8.2562-.0118 16.8794 6.2165 16.9068 17.0477.023 9.0692-7.2815 16.7608-17.1002 16.5682zm5.0067-22.0892c-.3037-1.6546-.6136-3.3081-.9094-4.9641-.3033-1.6981-1.2347-2.6955-3.0257-2.7343-1.886-.0408-3.0604 1.0339-3.2365 2.7461-.2338 2.2729-.2463 4.6035-.0199 6.8761.1442 1.4477 1.0843 2.6263 2.7285 2.9776 2.5678.5488 4.499-1.6055 4.463-4.9014z" fill="#fdfbf8"/><path d="m276.8409 366.1512c-3.8297-.1483-7.6326-.4068-10.9585-2.6552-2.5923-1.7524-3.6911-3.9166-3.1486-6.281.5121-2.2322 2.9272-3.9723 5.8545-4.2327 4.587-.4081 8.8183.7899 12.805 2.9351 2.2954 1.2351 3.3591 3.9094 2.7411 6.4465-.5236 2.1497-2.403 3.5776-5.037 3.7786-.748.0571-1.5041.0087-2.2565.0087z" fill="#fe765b"/><path d="m173.4109 338.234c2.4074.6018 4.8786 1.0251 7.2043 1.8559 2.3047.8233 3.6163 2.6242 3.5862 5.2124-.0294 2.5294-1.5765 3.9869-3.5948 5.092-4.4301 2.4255-13.0917-.2606-15.5669-3.184-2.3-2.7166-1.2411-6.2583 2.3637-7.695.578-.2303 1.193-.404 1.8071-.5004 1.3575-.2131 2.7254-.3603 4.0891-.5343.0371-.0822.0742-.1643.1113-.2466z" fill="#fe765b"/><path d="m243.6286 369.3482c.0434.4283.1136.5997.0594.6606-4.8645 5.4687-9.3586 11.3473-16.3951 14.3543-5.8721 2.5095-9.6707 1.149-12.1147-4.7315-1.3911-3.3471-2.5127-6.8212-3.4979-10.3109-.2295-.813.3141-2.379.9911-2.7871 1.004-.6053 2.2279.0738 2.722 1.2806 1.0915 2.6656 2.1127 5.3602 3.1394 8.0519 2.1291 5.5813 3.2942 6.0661 8.4919 3.0863 5.2696-3.021 10.4493-6.1989 15.6742-9.2982.2297-.1362.5175-.1739.9297-.306z" fill="#3b1710"/><path d="m282.4424 146.7045c.1084 9.156-7.3855 16.6823-16.7431 16.8157-9.2814.1323-16.969-7.4131-17.0475-16.7321-.0784-9.3126 7.3827-16.9777 16.6791-17.1349 9.4145-.1592 16.9972 7.3968 17.1115 17.0513zm-14.0393 11.9071c-.0071-2.2404-2.9758-7.1356-4.9899-7.9952-.5257-.2243-1.5685-.2114-1.8398.1242-.8319 1.0293-1.7751 2.2004-2.002 3.4395-.4947 2.7023 1.0237 4.945 2.5612 6.9597 1.0094 1.3226 2.6884 1.2528 4.1671.6744 1.3948-.5454 2.2066-1.6071 2.1034-3.2026z" fill="#fdfbf5"/><path d="m301.2603 121.894c9.079-.0738 16.7559 7.5051 16.7993 16.585.0456 9.5491-7.3536 17.1223-16.7973 17.1922-9.2266.0683-17.0099-7.4681-17.074-16.5323-.069-9.7568 7.265-17.1652 17.072-17.2449zm5.9491 25.2097c-.0857-.3219-.1592-1.0993-.4899-1.7451-.9688-1.8918-2.0099-3.7487-3.0818-5.5847-.6975-1.1947-1.6715-2.1292-3.1921-1.8215-1.5849.3207-2.3925 1.4087-2.6685 3.0092-.3334 1.9329 2.4406 8.53 4.0917 9.5111 2.2555 1.3402 5.2478-.3119 5.3406-3.369z" fill="#fdfbf5"/><path d="m322.3184 168.1068c-1.1198-.0921-2.2859-.0166-3.3493-.3118-2.109-.5853-3.2148-2.2084-3.3904-4.3-.1847-2.2008.6014-4.1875 2.6103-5.2514 4.441-2.352 9.1403-2.8647 13.9663-1.3132 1.761.5661 2.7184 1.9326 2.9946 3.7466.2927 1.9225-.5988 3.34-2.1666 4.2547-3.2809 1.9142-6.7323 3.3514-10.6649 3.1751z" fill="#fe765b"/><path d="m248.6904 185.8614c-1.9358-.5664-3.6134-.7369-4.9412-1.509-3.2947-1.9159-3.0634-6.739.3801-8.3383 3.451-1.6028 7.0475-2.7404 10.9717-2.3485 2.17.2168 4.4937 2.1443 4.9137 4.2923.3501 1.7911-1.0983 4.7834-2.9606 5.4404-2.7886.9839-5.6762 1.6866-8.3637 2.4631z" fill="#fe765b"/><path d="m288.9528 192.8502c1.2142.1336 2.3278.0703 3.3083.4012 2.3127.7805 4.5585 1.7577 6.8379 2.6386 2.2406.8659 4.0936.1856 5.528-1.5995 3.3001-4.107 6.5302-8.2701 9.8134-12.3908.6051-.7594 1.3261-1.4265 2.1426-2.0258-1.1544 6.803-3.8192 12.8485-8.7838 17.6755-3.8244 3.7185-6.9846 4.0697-11.7612 1.6208-1.7861-.9158-3.5108-1.9517-5.2989-2.8634-1.2794-.6523-1.7461-1.6709-1.7863-3.4566z" fill="#3c190c"/><path d="m203.5541 319.4568c-3.6125-.161-5.3365-2.8569-4.0251-5.4833 1.0298-2.0625 2.299-4.01 3.5281-5.967.9314-1.4829 2.5162-1.9488 3.9294-1.2695 1.3856.6661 1.9871 2.0617 1.3809 3.8063-.7154 2.0587-1.1381 4.2177-1.816 6.2913-.5616 1.7172-1.8155 2.6466-2.9973 2.6222z" fill="#3a1811"/><path d="m273.4592 323.3521c.036 3.2959-1.8952 5.4502-4.463 4.9015-1.6441-.3513-2.5842-1.5299-2.7285-2.9776-.2264-2.2726-.214-4.6032.0199-6.8761.1761-1.7122 1.3506-2.7869 3.2365-2.7461 1.791.0388 2.7224 1.0362 3.0257 2.7343.2958 1.6559.6057 3.3094.9094 4.964z" fill="#3a1811"/><path d="m268.404 158.6122c.1023 1.5949-.7094 2.6567-2.1042 3.2021-1.4787.5783-3.1577.6482-4.1671-.6744-1.5376-2.0147-3.0559-4.2573-2.5612-6.9597.2269-1.2392 1.1701-2.4102 2.002-3.4395.2713-.3356 1.3141-.3486 1.8398-.1242 2.014.8595 4.9827 5.7547 4.9907 7.9957z" fill="#391711"/><path d="m307.2094 147.1037c-.0928 3.0571-3.0851 4.7092-5.3405 3.369-1.6512-.9811-4.4251-7.5781-4.0917-9.5111.276-1.6005 1.0836-2.6885 2.6685-3.0092 1.5206-.3077 2.4946.6268 3.1921 1.8215 1.0719 1.8361 2.113 3.693 3.0818 5.5847.3306.6457.4041 1.4232.4898 1.7451z" fill="#3a1811"/></g></svg>